<svg version="1.1" xmlns="http://www.w3.org/2000/svg" viewBox="0 0 759.0760498046875 520" width="759.0760498046875" height="520">
  <!-- svg-source:excalidraw -->
  
  <defs>
    <style class="style-fonts">
      @font-face {
        font-family: "Virgil";
        src: url("https://excalidraw.com/Virgil.woff2");
      }
      @font-face {
        font-family: "Cascadia";
        src: url("https://excalidraw.com/Cascadia.woff2");
      }
      @font-face {
        font-family: "Assistant";
        src: url("https://excalidraw.com/Assistant-Regular.woff2");
      }
    </style>
    
  </defs>
  <g transform="translate(183 455) rotate(0 249.5 -222.5)" stroke="none"><path fill="#d2bab0" d="M 0,-1.31 Q 0,-1.31 2.3,-1.31 4.6,-1.31 5.86,-1.31 7.12,-1.31 8.81,-1.31 10.50,-1.31 12.37,-1.31 14.23,-1.31 15.60,-1.31 16.97,-1.31 18.99,-1.31 21.01,-1.31 22.44,-1.31 23.87,-1.31 25.53,-1.59 27.18,-1.87 29.27,-2.54 31.36,-3.21 32.50,-3.77 33.64,-4.32 35.18,-4.62 36.72,-4.92 38.12,-5.30 39.51,-5.68 40.97,-6.13 42.42,-6.58 43.82,-7.31 45.21,-8.03 47.47,-8.42 49.73,-8.81 51.42,-9.23 53.11,-9.64 55.23,-10.38 57.34,-11.12 60.31,-12.02 63.27,-12.93 70.29,-14.75 77.32,-16.58 80.89,-17.36 84.47,-18.14 86.59,-18.47 88.71,-18.81 90.80,-18.95 92.90,-19.10 94.64,-19.16 96.39,-19.22 98.72,-19.80 101.05,-20.38 103.24,-20.93 105.44,-21.47 108.72,-22.00 112.01,-22.53 114.51,-23.03 117.00,-23.53 120.95,-24.32 124.90,-25.11 128.37,-25.46 131.84,-25.81 136.41,-26.52 140.98,-27.23 144.61,-28.10 148.24,-28.97 151.26,-29.64 154.27,-30.30 158.99,-31.44 163.70,-32.58 169.16,-33.93 174.61,-35.28 178.63,-36.42 182.66,-37.56 188.14,-38.92 193.61,-40.27 198.19,-41.70 202.78,-43.13 206.72,-44.59 210.66,-46.05 216.63,-48.67 222.59,-51.30 227.43,-53.56 232.27,-55.83 239.26,-58.53 246.25,-61.24 253.79,-64.39 261.32,-67.54 266.82,-70.03 272.31,-72.51 279.51,-76.14 286.72,-79.78 292.37,-82.76 298.02,-85.74 303.00,-88.44 307.99,-91.15 314.97,-95.44 321.94,-99.74 329.47,-105.56 336.99,-111.37 342.50,-115.87 348.00,-120.36 355.20,-127.13 362.40,-133.90 367.76,-139.36 373.11,-144.82 380.26,-152.87 387.41,-160.93 392.74,-167.50 398.07,-174.07 404.91,-184.02 411.75,-193.97 416.97,-201.94 422.18,-209.91 428.69,-221.04 435.21,-232.17 439.69,-240.90 444.17,-249.64 449.51,-262.51 454.85,-275.39 458.85,-285.47 462.85,-295.56 466.84,-308.71 470.82,-321.86 473.38,-331.76 475.93,-341.65 478.75,-353.05 481.56,-364.45 483.33,-372.44 485.09,-380.44 487.00,-389.30 488.90,-398.16 489.99,-403.93 491.08,-409.69 492.42,-415.62 493.75,-421.55 494.60,-425.49 495.45,-429.44 496.10,-433.10 496.74,-436.77 497.01,-439.16 497.28,-441.55 497.49,-443.35 497.69,-445.14 497.75,-445.35 497.81,-445.55 497.93,-445.73 498.05,-445.90 498.22,-446.03 498.39,-446.16 498.59,-446.23 498.79,-446.29 499.00,-446.29 499.21,-446.29 499.41,-446.22 499.62,-446.15 499.78,-446.02 499.95,-445.89 500.07,-445.72 500.19,-445.54 500.25,-445.34 500.30,-445.13 500.29,-444.92 500.28,-444.71 500.20,-444.51 500.12,-444.31 499.98,-444.15 499.84,-443.99 499.66,-443.88 499.48,-443.77 499.27,-443.73 499.06,-443.68 498.85,-443.71 498.64,-443.73 498.45,-443.82 498.25,-443.91 498.10,-444.06 497.95,-444.21 497.85,-444.39 497.75,-444.58 497.72,-444.79 497.68,-445.00 497.72,-445.21 497.75,-445.42 497.85,-445.61 497.95,-445.79 498.11,-445.94 498.26,-446.09 498.46,-446.17 498.65,-446.26 498.86,-446.28 499.07,-446.31 499.28,-446.26 499.49,-446.21 499.67,-446.10 499.85,-445.99 499.99,-445.83 500.12,-445.67 500.20,-445.47 500.28,-445.27 500.29,-445.06 500.30,-444.85 500.30,-444.85 500.30,-444.85 500.10,-443.05 499.89,-441.25 499.61,-438.78 499.33,-436.31 498.67,-432.60 498.02,-428.88 497.17,-424.93 496.31,-420.97 494.99,-415.09 493.66,-409.20 492.57,-403.41 491.47,-397.61 489.56,-388.74 487.66,-379.87 485.88,-371.85 484.11,-363.82 481.29,-352.41 478.48,-341.00 475.91,-331.05 473.34,-321.10 469.32,-307.84 465.30,-294.59 461.29,-284.49 457.28,-274.38 451.90,-261.41 446.51,-248.44 441.99,-239.64 437.47,-230.84 430.92,-219.66 424.38,-208.47 419.15,-200.48 413.92,-192.48 407.01,-182.45 400.11,-172.42 394.74,-165.80 389.38,-159.18 382.18,-151.08 374.99,-142.98 369.59,-137.48 364.20,-131.98 356.93,-125.15 349.66,-118.32 344.13,-113.81 338.59,-109.30 330.96,-103.40 323.32,-97.50 316.28,-93.17 309.24,-88.84 304.24,-86.13 299.24,-83.42 293.57,-80.42 287.90,-77.43 280.65,-73.77 273.39,-70.12 267.86,-67.62 262.34,-65.12 254.77,-61.96 247.20,-58.79 240.29,-56.12 233.38,-53.45 228.52,-51.17 223.65,-48.89 217.61,-46.24 211.57,-43.59 207.57,-42.10 203.56,-40.62 198.90,-39.17 194.24,-37.72 188.81,-36.38 183.37,-35.03 179.31,-33.88 175.24,-32.73 169.78,-31.38 164.32,-30.03 159.58,-28.88 154.84,-27.73 151.85,-27.08 148.85,-26.42 145.12,-25.53 141.38,-24.64 136.74,-23.91 132.09,-23.19 128.76,-22.86 125.42,-22.54 121.47,-21.75 117.52,-20.96 114.97,-20.44 112.42,-19.93 109.24,-19.43 106.06,-18.92 103.87,-18.37 101.67,-17.83 99.08,-17.21 96.49,-16.60 94.78,-16.54 93.08,-16.48 91.10,-16.35 89.12,-16.21 87.07,-15.89 85.03,-15.57 81.50,-14.80 77.98,-14.04 71.01,-12.22 64.03,-10.41 61.12,-9.53 58.21,-8.64 55.97,-7.86 53.73,-7.09 51.93,-6.65 50.14,-6.22 48.26,-5.95 46.37,-5.69 44.79,-4.88 43.20,-4.07 41.70,-3.61 40.20,-3.15 38.69,-2.74 37.19,-2.34 35.97,-2.14 34.75,-1.94 33.46,-1.33 32.17,-0.71 29.89,0.00 27.61,0.72 25.74,1.01 23.88,1.31 22.44,1.31 21.01,1.31 18.99,1.31 16.97,1.31 15.60,1.31 14.23,1.31 12.37,1.31 10.50,1.31 8.81,1.31 7.12,1.31 5.86,1.31 4.6,1.31 2.3,1.31 0,1.31 -0.15,1.29 -0.31,1.27 -0.46,1.21 -0.61,1.16 -0.74,1.07 -0.87,0.98 -0.97,0.86 -1.08,0.74 -1.15,0.60 -1.22,0.46 -1.26,0.31 -1.30,0.15 -1.30,-0.00 -1.30,-0.15 -1.26,-0.31 -1.22,-0.46 -1.15,-0.60 -1.08,-0.74 -0.97,-0.86 -0.87,-0.98 -0.74,-1.07 -0.61,-1.16 -0.46,-1.21 -0.31,-1.27 -0.15,-1.29 0.00,-1.31 0.00,-1.31 L 0,-1.31 Z"></path></g><g stroke-linecap="round"><g transform="translate(181 457) rotate(0 1 -189.5)"><path d="M0.66 0.07 C1.08 -63.26, 1.59 -316.9, 1.92 -380.19 M-0.46 -0.94 C-0.15 -64.14, 0.49 -316.32, 0.93 -379.28" stroke="#1e1e1e" stroke-width="2" fill="none"></path></g></g><mask></mask><g stroke-linecap="round"><g transform="translate(179 458) rotate(0 278 -2.5)"><path d="M-0.4 -0.82 C92.07 -1.51, 462.25 -3.2, 554.86 -4 M1.59 1.36 C94.41 0.34, 464.28 -4.6, 556.98 -5.6" stroke="#1e1e1e" stroke-width="2" fill="none"></path></g></g><mask></mask><g transform="translate(736 475) rotate(0 6.53802490234375 17.5)"><text x="0" y="0" font-family="Virgil, Segoe UI Emoji" font-size="28px" fill="#1e1e1e" text-anchor="start" style="white-space: pre;" direction="ltr" dominant-baseline="text-before-edge">n</text></g><g transform="translate(10 63) rotate(0 53.424217224121094 17.5)"><text x="0" y="0" font-family="Virgil, Segoe UI Emoji" font-size="28px" fill="#1e1e1e" text-anchor="start" style="white-space: pre;" direction="ltr" dominant-baseline="text-before-edge">Latency</text></g><g stroke-linecap="round"><g transform="translate(279.9999999999999 447.86927839061616) rotate(0 0.2661194058202341 -11.99904123301718)"><path d="M-0.29 0.48 C-0.16 -3.4, 0.16 -19.52, 0.26 -23.62 M0.56 0.25 C0.91 -3.75, 1.47 -20.42, 1.36 -24.4" stroke="#1e1e1e" stroke-width="2" fill="none"></path></g></g><mask></mask><g stroke-linecap="round" transform="translate(276.5 433.1081739478201) rotate(0 3.5 3.5)"><path d="M3.68 -0.21 C4.42 -0.27, 5.16 0.33, 5.67 0.81 C6.18 1.29, 6.59 1.92, 6.72 2.65 C6.84 3.39, 6.76 4.52, 6.42 5.23 C6.08 5.94, 5.34 6.7, 4.68 6.91 C4.02 7.13, 3.2 6.81, 2.47 6.52 C1.75 6.22, 0.74 5.73, 0.32 5.14 C-0.1 4.56, -0.23 3.65, -0.06 2.98 C0.11 2.32, 0.73 1.65, 1.35 1.13 C1.98 0.62, 3.38 0.02, 3.7 -0.11 C4.03 -0.23, 3.34 0.32, 3.3 0.4 M3.03 -0.13 C3.83 -0.21, 5.24 0.51, 5.87 1.02 C6.51 1.53, 6.75 2.23, 6.82 2.93 C6.9 3.62, 6.57 4.59, 6.32 5.18 C6.07 5.76, 5.97 6.26, 5.32 6.46 C4.66 6.66, 3.17 6.61, 2.39 6.37 C1.6 6.13, 0.96 5.51, 0.6 5.02 C0.24 4.52, 0.07 4.01, 0.21 3.39 C0.35 2.76, 0.88 1.83, 1.44 1.27 C2 0.72, 3.3 0.28, 3.59 0.06 C3.89 -0.17, 3.2 -0.18, 3.21 -0.09" stroke="none" stroke-width="0" fill="#1971c2"></path><path d="M3.86 0.18 C4.55 0.26, 5.3 0.67, 5.81 1.15 C6.31 1.64, 6.74 2.35, 6.87 3.09 C7 3.84, 7.03 5, 6.61 5.61 C6.18 6.23, 5.12 6.64, 4.3 6.77 C3.49 6.9, 2.41 6.66, 1.71 6.39 C1.02 6.13, 0.4 5.77, 0.13 5.18 C-0.14 4.58, -0.19 3.6, 0.09 2.81 C0.36 2.01, 1.13 0.85, 1.79 0.41 C2.45 -0.04, 3.75 0.21, 4.06 0.14 C4.37 0.08, 3.71 -0.02, 3.65 0.02 M3.19 -0.37 C3.91 -0.57, 5.21 -0.31, 5.74 0.16 C6.26 0.64, 6.22 1.71, 6.32 2.49 C6.41 3.26, 6.45 4.15, 6.29 4.82 C6.13 5.49, 5.95 6.17, 5.36 6.52 C4.78 6.87, 3.47 7.01, 2.79 6.91 C2.1 6.82, 1.79 6.5, 1.25 5.94 C0.72 5.38, -0.3 4.25, -0.43 3.54 C-0.56 2.82, -0.04 2.24, 0.46 1.66 C0.96 1.07, 2.22 0.21, 2.58 0.03 C2.93 -0.15, 2.56 0.52, 2.59 0.6" stroke="#1971c2" stroke-width="2" fill="none"></path></g><g stroke-linecap="round"><g transform="translate(275 422.6009055852627) rotate(0 7 0)"><path d="M0 0.34 C2.28 0.36, 11.28 0.19, 13.62 0.08 M-0.66 0.04 C1.79 0.17, 12.26 0.81, 14.65 0.82" stroke="#1e1e1e" stroke-width="2" fill="none"></path></g></g><mask></mask><g stroke-linecap="round"><g transform="translate(273.2555779619887 449.4370286856281) rotate(0 7 0)"><path d="M-0.23 -0.4 C1.99 -0.44, 11.22 0.15, 13.56 0.25 M0.65 0.59 C3.03 0.62, 12.44 -0.36, 14.56 -0.59" stroke="#1e1e1e" stroke-width="2" fill="none"></path></g></g><mask></mask><g stroke-linecap="round"><g transform="translate(382.5045684671892 430.3753510393543) rotate(0 0.37469715156004213 -17.38035032243812)"><path d="M0.21 0.38 C0.4 -5.44, 1.11 -28.96, 1.12 -34.81 M-0.34 0.1 C-0.2 -5.65, 0.6 -28.44, 0.88 -34.13" stroke="#1e1e1e" stroke-width="2" fill="none"></path></g></g><mask></mask><g stroke-linecap="round" transform="translate(379.50416466926924 408.6198997674363) rotate(0 3.5 3.5)"><path d="M4.29 0.36 C5.01 0.41, 5.84 0.51, 6.3 1.03 C6.76 1.54, 7.05 2.68, 7.07 3.46 C7.09 4.24, 6.86 5.15, 6.4 5.71 C5.95 6.27, 5.1 6.64, 4.36 6.83 C3.62 7.01, 2.64 7.11, 1.95 6.82 C1.26 6.52, 0.44 5.8, 0.2 5.05 C-0.05 4.3, 0.23 3.07, 0.48 2.34 C0.74 1.61, 1.15 1.03, 1.72 0.68 C2.29 0.32, 3.46 0.35, 3.91 0.22 C4.35 0.09, 4.35 -0.15, 4.39 -0.1 M3.11 0.17 C3.83 0.08, 4.81 0.53, 5.37 0.97 C5.94 1.42, 6.23 2.14, 6.48 2.84 C6.74 3.54, 7.12 4.59, 6.89 5.16 C6.66 5.74, 5.76 5.93, 5.1 6.29 C4.43 6.65, 3.54 7.4, 2.88 7.3 C2.23 7.2, 1.7 6.29, 1.17 5.7 C0.64 5.1, -0.25 4.45, -0.3 3.75 C-0.35 3.05, 0.36 2.2, 0.85 1.51 C1.33 0.82, 2.3 -0.25, 2.63 -0.41 C2.96 -0.57, 2.68 0.49, 2.83 0.55" stroke="none" stroke-width="0" fill="#1971c2"></path><path d="M2.99 0.26 C3.64 0.12, 4.48 0.41, 5.07 0.75 C5.66 1.08, 6.29 1.55, 6.52 2.27 C6.76 2.99, 6.72 4.32, 6.47 5.06 C6.22 5.8, 5.65 6.41, 5.03 6.69 C4.42 6.97, 3.52 6.96, 2.79 6.74 C2.06 6.51, 1.08 5.9, 0.64 5.34 C0.2 4.78, 0.16 4.09, 0.14 3.38 C0.13 2.66, 0.08 1.59, 0.56 1.06 C1.04 0.52, 2.62 0.34, 3 0.18 C3.39 0.02, 2.85 0.07, 2.88 0.09 M2.94 0.26 C3.65 0.12, 4.56 0.47, 5.26 0.78 C5.95 1.09, 6.93 1.45, 7.12 2.14 C7.31 2.82, 6.77 4.13, 6.39 4.89 C6.01 5.65, 5.51 6.32, 4.86 6.69 C4.2 7.05, 3.08 7.33, 2.46 7.07 C1.83 6.81, 1.45 5.83, 1.12 5.13 C0.78 4.43, 0.54 3.53, 0.44 2.86 C0.34 2.19, 0.1 1.52, 0.52 1.12 C0.95 0.72, 2.56 0.57, 2.99 0.45 C3.42 0.32, 3.04 0.31, 3.1 0.35" stroke="#1971c2" stroke-width="2" fill="none"></path></g><g stroke-linecap="round"><g transform="translate(376.2555779619888 395.6146503944782) rotate(0 7 0)"><path d="M-0.47 0.06 C1.85 0.07, 11.83 0.07, 14.3 -0.02 M0.28 -0.38 C2.53 -0.28, 11.71 0.62, 14.03 0.67" stroke="#1e1e1e" stroke-width="2" fill="none"></path></g></g><mask></mask><g stroke-linecap="round"><g transform="translate(375.0107521260577 431.19370703124616) rotate(0 7 0)"><path d="M0.3 -0.02 C2.78 -0.1, 12.02 -0.37, 14.37 -0.45 M-0.2 -0.5 C2.27 -0.54, 11.72 -0.03, 14.12 0.02" stroke="#1e1e1e" stroke-width="2" fill="none"></path></g></g><mask></mask><g stroke-linecap="round"><g transform="translate(459.05126836254385 404.39412232071254) rotate(0 0 -24)"><path d="M-0.32 0.04 C-0.26 -7.94, 0.12 -39.41, 0.22 -47.5 M0.52 -0.42 C0.54 -8.56, -0.03 -40.26, -0.1 -48.2" stroke="#1e1e1e" stroke-width="2" fill="none"></path></g></g><mask></mask><g stroke-linecap="round" transform="translate(455.55126836254385 375.8941223207127) rotate(0 3.5 3.5000000000000284)"><path d="M3.79 0.07 C4.52 0.12, 5.74 0.74, 6.3 1.26 C6.86 1.79, 7.2 2.43, 7.18 3.2 C7.15 3.97, 6.59 5.24, 6.13 5.87 C5.67 6.49, 5.19 6.84, 4.43 6.92 C3.67 7, 2.25 6.69, 1.58 6.35 C0.92 6, 0.68 5.47, 0.44 4.85 C0.21 4.23, 0 3.37, 0.17 2.64 C0.34 1.92, 0.82 0.93, 1.45 0.51 C2.09 0.09, 3.55 0.2, 3.99 0.12 C4.43 0.04, 4.15 -0.05, 4.09 0.03 M4.32 -0.32 C5 -0.35, 5.22 0.25, 5.7 0.82 C6.19 1.4, 7.13 2.29, 7.24 3.13 C7.34 3.98, 6.77 5.34, 6.31 5.89 C5.85 6.45, 5.28 6.27, 4.49 6.46 C3.7 6.66, 2.25 7.42, 1.56 7.07 C0.86 6.72, 0.52 5.1, 0.3 4.36 C0.08 3.62, 0.04 3.24, 0.22 2.62 C0.4 2.01, 0.81 1.18, 1.37 0.69 C1.93 0.2, 3.17 -0.18, 3.59 -0.32 C4 -0.46, 3.84 -0.19, 3.85 -0.15" stroke="none" stroke-width="0" fill="#1971c2"></path><path d="M3.54 -0.2 C4.31 -0.15, 5.54 0.76, 6.07 1.32 C6.59 1.89, 6.62 2.49, 6.71 3.21 C6.79 3.94, 6.96 5.02, 6.59 5.65 C6.21 6.29, 5.21 6.88, 4.47 7.04 C3.72 7.21, 2.85 6.98, 2.12 6.66 C1.4 6.33, 0.45 5.8, 0.11 5.08 C-0.23 4.36, -0.11 3.02, 0.09 2.33 C0.29 1.63, 0.63 1.28, 1.32 0.93 C2.01 0.59, 3.83 0.43, 4.23 0.27 C4.63 0.1, 3.82 -0.07, 3.73 -0.05 M4.37 -0.03 C5.2 -0.08, 5.82 0.33, 6.32 0.93 C6.82 1.53, 7.33 2.87, 7.36 3.57 C7.39 4.27, 6.94 4.56, 6.51 5.13 C6.08 5.7, 5.48 6.76, 4.79 7.01 C4.1 7.25, 3.12 6.96, 2.37 6.6 C1.62 6.24, 0.66 5.53, 0.3 4.84 C-0.07 4.14, 0.05 3.11, 0.2 2.44 C0.35 1.76, 0.55 1.24, 1.17 0.78 C1.8 0.32, 3.43 -0.24, 3.94 -0.32 C4.44 -0.41, 4.19 0.18, 4.21 0.26" stroke="#1971c2" stroke-width="2" fill="none"></path></g><g stroke-linecap="round"><g transform="translate(454.05126836254385 356.3941223207127) rotate(0 7 0)"><path d="M0.28 -0.45 C2.61 -0.61, 11.94 -0.54, 14.16 -0.44 M-0.23 0.5 C2.01 0.64, 11.31 -0.02, 13.82 0.04" stroke="#1e1e1e" stroke-width="2" fill="none"></path></g></g><mask></mask><g stroke-linecap="round"><g transform="translate(454.0554330318132 405.9618726157246) rotate(0 7 0)"><path d="M0.16 -0.44 C2.39 -0.34, 11.26 0.16, 13.65 0.15 M-0.42 0.53 C1.96 0.5, 12.24 -0.63, 14.71 -0.73" stroke="#1e1e1e" stroke-width="2" fill="none"></path></g></g><mask></mask><g stroke-linecap="round"><g transform="translate(542.8072528248927 352.4705729125932) rotate(0 0.36602330647667713 -33.02857489308903)"><path d="M1.11 -0.78 C1.02 -11.63, 0.14 -54.99, 0.07 -65.74 M0.24 1.42 C0.48 -9.74, 2.49 -56.26, 2.43 -67.7" stroke="#1e1e1e" stroke-width="2" fill="none"></path></g></g><mask></mask><g stroke-linecap="round" transform="translate(539.5512683625439 316.8941223207127) rotate(0 3.5 3.5)"><path d="M3.22 0.24 C3.93 0.2, 5.07 0.53, 5.71 0.98 C6.35 1.43, 6.94 2.25, 7.05 2.91 C7.16 3.56, 6.77 4.23, 6.34 4.92 C5.92 5.6, 5.18 6.77, 4.51 7.04 C3.83 7.31, 3.04 6.75, 2.32 6.51 C1.6 6.27, 0.62 6.16, 0.19 5.6 C-0.24 5.04, -0.37 3.89, -0.24 3.14 C-0.11 2.39, 0.34 1.58, 0.98 1.07 C1.62 0.56, 3.13 0.27, 3.58 0.09 C4.02 -0.1, 3.66 -0.03, 3.65 -0.02 M3.89 -0.2 C4.57 -0.16, 5.11 0.1, 5.66 0.76 C6.22 1.43, 7.18 3, 7.23 3.78 C7.28 4.56, 6.41 4.91, 5.98 5.44 C5.56 5.97, 5.41 6.71, 4.66 6.96 C3.91 7.2, 2.26 7.28, 1.47 6.9 C0.68 6.52, 0.07 5.37, -0.08 4.66 C-0.23 3.95, 0.23 3.24, 0.58 2.63 C0.93 2.01, 1.43 1.35, 2.01 0.98 C2.59 0.61, 3.67 0.6, 4.05 0.4 C4.43 0.21, 4.22 -0.26, 4.28 -0.18" stroke="none" stroke-width="0" fill="#1971c2"></path><path d="M3.49 -0.26 C4.16 -0.26, 5.14 0.45, 5.67 0.95 C6.2 1.44, 6.53 1.98, 6.68 2.73 C6.82 3.47, 6.82 4.78, 6.54 5.43 C6.26 6.08, 5.71 6.46, 4.99 6.64 C4.28 6.83, 2.96 6.8, 2.25 6.54 C1.53 6.28, 1.09 5.69, 0.71 5.09 C0.32 4.49, -0.13 3.69, -0.07 2.93 C-0.01 2.16, 0.45 1.03, 1.05 0.52 C1.66 0, 3.08 -0.08, 3.54 -0.16 C4.01 -0.23, 3.9 0.05, 3.84 0.09 M4.31 0.18 C5.01 0.18, 5.55 0.62, 5.93 1.09 C6.31 1.56, 6.51 2.32, 6.6 2.99 C6.69 3.66, 6.87 4.41, 6.48 5.1 C6.08 5.79, 4.95 6.82, 4.21 7.14 C3.47 7.46, 2.63 7.32, 2.04 7.02 C1.46 6.72, 1.02 6.09, 0.68 5.36 C0.34 4.63, -0.23 3.36, 0 2.64 C0.24 1.92, 1.36 1.46, 2.07 1.05 C2.78 0.64, 3.98 0.39, 4.28 0.18 C4.58 -0.02, 4.04 -0.18, 3.89 -0.2" stroke="#1971c2" stroke-width="2" fill="none"></path></g><g stroke-linecap="round"><g transform="translate(538.0512683625439 284.39643416847895) rotate(0 7 0)"><path d="M-0.04 0.35 C2.3 0.33, 11.47 0.12, 13.74 0.04 M-0.72 0.05 C1.55 0.12, 10.61 0.7, 13.18 0.77" stroke="#1e1e1e" stroke-width="2" fill="none"></path></g></g><mask></mask><g stroke-linecap="round"><g transform="translate(534.8832310423495 354.0383232076052) rotate(0 7 0)"><path d="M-0.26 0.04 C2.01 -0.03, 11.16 -0.01, 13.58 -0.08 M0.61 -0.41 C3.05 -0.43, 12.36 0.51, 14.59 0.57" stroke="#1e1e1e" stroke-width="2" fill="none"></path></g></g><mask></mask><g stroke-linecap="round"><g transform="translate(636.9724925164949 251.8778971677151) rotate(0 0 -71.17827490354372)"><path d="M-0.57 0.52 C-0.66 -23.03, -1.47 -118.64, -1.18 -142.4 M1.32 -0.26 C1.65 -23.51, 0.97 -117.5, 0.91 -140.88" stroke="#1e1e1e" stroke-width="2" fill="none"></path></g></g><mask></mask><g stroke-linecap="round" transform="translate(633.5512683625439 176.89412232071265) rotate(0 3.5 3.5)"><path d="M3.64 -0.26 C4.39 -0.28, 5.78 0.41, 6.32 1.02 C6.86 1.63, 6.85 2.63, 6.9 3.39 C6.95 4.14, 7.04 4.95, 6.63 5.53 C6.23 6.1, 5.3 6.63, 4.49 6.82 C3.68 7.01, 2.43 6.98, 1.78 6.69 C1.13 6.4, 0.88 5.77, 0.58 5.1 C0.28 4.42, -0.13 3.42, -0.01 2.65 C0.1 1.87, 0.59 0.93, 1.26 0.44 C1.93 -0.05, 3.52 -0.21, 4 -0.29 C4.49 -0.38, 4.21 -0.16, 4.18 -0.08 M3.46 -0.33 C4.05 -0.46, 4.82 0.02, 5.42 0.66 C6.02 1.3, 6.82 2.73, 7.06 3.5 C7.29 4.27, 7.22 4.79, 6.85 5.27 C6.47 5.76, 5.68 6.22, 4.82 6.41 C3.96 6.61, 2.38 6.6, 1.71 6.46 C1.04 6.32, 1.13 6.19, 0.8 5.57 C0.47 4.95, -0.37 3.56, -0.29 2.73 C-0.21 1.91, 0.61 1.03, 1.28 0.63 C1.96 0.24, 3.45 0.41, 3.78 0.34 C4.11 0.28, 3.2 0.2, 3.24 0.26" stroke="none" stroke-width="0" fill="#1971c2"></path><path d="M4.29 -0.27 C4.98 -0.21, 5.66 0.57, 6.13 1.17 C6.59 1.76, 7.07 2.59, 7.09 3.29 C7.11 4, 6.72 4.8, 6.25 5.4 C5.78 6, 4.97 6.69, 4.28 6.92 C3.59 7.14, 2.83 7.17, 2.12 6.77 C1.41 6.37, 0.29 5.24, 0.01 4.51 C-0.28 3.79, 0.1 3.07, 0.41 2.43 C0.72 1.78, 1.3 1.02, 1.87 0.64 C2.44 0.26, 3.44 0.23, 3.82 0.14 C4.19 0.05, 4.09 0.06, 4.13 0.11 M3.58 -0.03 C4.21 0.01, 5.07 0.04, 5.56 0.61 C6.05 1.18, 6.35 2.62, 6.52 3.39 C6.69 4.16, 6.9 4.57, 6.56 5.23 C6.22 5.89, 5.26 7.06, 4.47 7.34 C3.68 7.63, 2.59 7.38, 1.82 6.95 C1.04 6.53, 0.11 5.57, -0.17 4.79 C-0.45 4.01, -0.18 3.01, 0.13 2.27 C0.43 1.53, 1.03 0.69, 1.67 0.34 C2.31 -0.02, 3.66 0.22, 3.97 0.15 C4.28 0.08, 3.48 -0.05, 3.54 -0.08" stroke="#1971c2" stroke-width="2" fill="none"></path></g><g stroke-linecap="round"><g transform="translate(626.1402082691147 109.62100707694498) rotate(0 10.14565429237939 0)"><path d="M0.51 0.15 C3.98 0.22, 17.07 0.43, 20.28 0.4 M0.11 -0.25 C3.56 -0.33, 16.39 -0.5, 19.84 -0.36" stroke="#1e1e1e" stroke-width="2" fill="none"></path></g></g><mask></mask><g stroke-linecap="round"><g transform="translate(627.3841716756806 251.56047550190567) rotate(0 9.535615448251747 0.12200776882551168)"><path d="M-0.02 0.4 C2.99 0.41, 15.38 0.23, 18.55 0.23 M-0.69 0.13 C2.44 0.22, 16.3 0.76, 19.52 0.91" stroke="#1e1e1e" stroke-width="2" fill="none"></path></g></g><mask></mask><g stroke-linecap="round"><g transform="translate(587.817448609273 310.4570898857104) rotate(0 0.12200776882548325 -52.67182567399894)"><path d="M-0.7 -0.04 C-0.75 -17.58, -0.73 -88.76, -0.66 -106.22 M1.14 -1.11 C1.49 -18.44, 1.98 -87.52, 1.58 -105.14" stroke="#1e1e1e" stroke-width="2" fill="none"></path></g></g><mask></mask><g stroke-linecap="round" transform="translate(584.561464146924 267.8041887019494) rotate(0 3.5 3.5)"><path d="M3.67 -0.05 C4.36 -0.04, 5.14 0.42, 5.66 0.85 C6.18 1.29, 6.66 1.89, 6.78 2.56 C6.91 3.23, 6.73 4.18, 6.41 4.87 C6.08 5.56, 5.55 6.39, 4.86 6.72 C4.16 7.04, 2.89 7.02, 2.21 6.81 C1.52 6.6, 1.12 6.14, 0.75 5.46 C0.38 4.79, -0.07 3.5, -0.02 2.76 C0.02 2.02, 0.43 1.51, 1.03 1.01 C1.63 0.52, 3.14 -0.08, 3.57 -0.23 C3.99 -0.39, 3.62 0.01, 3.6 0.09 M3.39 0.01 C4.16 -0.11, 5.56 -0.09, 6.14 0.37 C6.73 0.83, 6.75 1.91, 6.88 2.75 C7.01 3.59, 7.23 4.75, 6.92 5.4 C6.62 6.05, 5.77 6.42, 5.07 6.65 C4.38 6.88, 3.46 6.95, 2.77 6.77 C2.09 6.58, 1.46 6.24, 0.94 5.56 C0.42 4.88, -0.35 3.51, -0.35 2.68 C-0.35 1.84, 0.4 0.97, 0.95 0.57 C1.51 0.17, 2.61 0.28, 2.97 0.27 C3.32 0.27, 2.99 0.44, 3.08 0.54" stroke="none" stroke-width="0" fill="#1971c2"></path><path d="M3.12 0.22 C3.8 0.15, 4.87 0.44, 5.52 0.88 C6.18 1.33, 6.82 2.17, 7.04 2.88 C7.27 3.59, 7.17 4.47, 6.86 5.15 C6.56 5.82, 5.89 6.59, 5.22 6.93 C4.55 7.26, 3.58 7.37, 2.85 7.15 C2.13 6.92, 1.28 6.27, 0.85 5.58 C0.42 4.88, 0.2 3.75, 0.26 3 C0.33 2.25, 0.76 1.58, 1.24 1.07 C1.72 0.56, 2.82 0.12, 3.14 -0.07 C3.45 -0.25, 3.07 -0.11, 3.14 -0.03 M2.92 0.42 C3.57 0.34, 4.72 0.16, 5.43 0.45 C6.15 0.74, 7.04 1.5, 7.22 2.16 C7.4 2.82, 6.9 3.73, 6.52 4.4 C6.13 5.07, 5.57 5.84, 4.9 6.2 C4.23 6.55, 3.18 6.57, 2.5 6.55 C1.83 6.53, 1.33 6.6, 0.85 6.08 C0.36 5.56, -0.48 4.24, -0.41 3.43 C-0.35 2.61, 0.63 1.8, 1.24 1.19 C1.86 0.58, 2.95 0.02, 3.28 -0.24 C3.61 -0.5, 3.24 -0.51, 3.22 -0.37" stroke="#1971c2" stroke-width="2" fill="none"></path></g><g stroke-linecap="round"><g transform="translate(580.8653243080644 204.38139192475955) rotate(0 7 0)"><path d="M-0.22 0.26 C2.2 0.28, 11.69 -0.18, 14.11 -0.23 M0.66 -0.09 C3.06 0.05, 11.49 0.25, 13.74 0.35" stroke="#1e1e1e" stroke-width="2" fill="none"></path></g></g><mask></mask><g stroke-linecap="round"><g transform="translate(580.869488977334 310.072715879514) rotate(0 7.488031075302047 -0.1220077688255401)"><path d="M0.11 -0.23 C2.7 -0.33, 12.78 -0.35, 15.32 -0.31 M-0.49 -0.83 C2.07 -0.85, 12.46 0.38, 15.06 0.36" stroke="#1e1e1e" stroke-width="2" fill="none"></path></g></g><mask></mask></svg>