<svg version="1.1" xmlns="http://www.w3.org/2000/svg" viewBox="0 0 1392.3276980682651 556.5198252605343" width="1392.3276980682651" height="556.5198252605343">
  <!-- svg-source:excalidraw -->
  
  <defs>
    <style class="style-fonts">
      @font-face {
        font-family: "Virgil";
        src: url("https://excalidraw.com/Virgil.woff2");
      }
      @font-face {
        font-family: "Cascadia";
        src: url("https://excalidraw.com/Cascadia.woff2");
      }
      @font-face {
        font-family: "Assistant";
        src: url("https://excalidraw.com/Assistant-Regular.woff2");
      }
    </style>
    
  </defs>
  <g stroke-linecap="round"><g transform="translate(594.3276980682651 55.62840458915127) rotate(0 0.8434514412294902 245.53992362692117)"><path d="M1.02 0.28 C1.09 81.96, 0.72 408.01, 0.86 489.95 M0.1 -0.62 C0.51 81.18, 2.95 409.12, 3.14 490.89" stroke="#1e1e1e" stroke-width="2" fill="none"></path></g></g><mask></mask><g stroke-linecap="round"><g transform="translate(944.3944225969572 56.03116011301546) rotate(0 2.3130809312332303 243.09054861838976)"><path d="M-0.29 0.5 C0.33 81.63, 4.03 405.25, 4.65 486.1 M1.76 -0.28 C2.15 81.11, 3.05 406.44, 3.72 487.6" stroke="#1e1e1e" stroke-width="2" fill="none"></path></g></g><mask></mask><g transform="translate(636.8607330672774 10) rotate(0 126.74193572998047 17.5)"><text x="0" y="0" font-family="Virgil, Segoe UI Emoji" font-size="28px" fill="#1e1e1e" text-anchor="start" style="white-space: pre;" direction="ltr" dominant-baseline="text-before-edge">Interaction buffer</text></g><g stroke-linecap="round" transform="translate(137.830324409401 258.865993498235) rotate(0 146.11461209777053 60.33331298828128)"><path d="M30.17 0 C114.41 1.7, 199.56 -0.69, 262.06 0 M30.17 0 C122.39 -0.89, 213.74 -2.09, 262.06 0 M262.06 0 C281.31 -1.89, 291.91 8.08, 292.23 30.17 M262.06 0 C284.37 -0.2, 293.07 8.05, 292.23 30.17 M292.23 30.17 C290.67 50.89, 289.99 76.32, 292.23 90.5 M292.23 30.17 C292.77 52.06, 292.92 76.18, 292.23 90.5 M292.23 90.5 C291.52 110.63, 281.47 121.9, 262.06 120.67 M292.23 90.5 C293.34 109.39, 281.29 119.19, 262.06 120.67 M262.06 120.67 C204.28 122.33, 144.97 123.23, 30.17 120.67 M262.06 120.67 C215.27 123, 168.4 122.01, 30.17 120.67 M30.17 120.67 C10.32 120.17, 1.05 109.28, 0 90.5 M30.17 120.67 C9.21 120.03, 2.03 112.16, 0 90.5 M0 90.5 C-0.35 75.16, 0.03 56.88, 0 30.17 M0 90.5 C-0.5 75.78, -0.05 59.58, 0 30.17 M0 30.17 C0.83 10.2, 9.64 0.17, 30.17 0 M0 30.17 C0.65 11.39, 10.67 1.82, 30.17 0" stroke="#1e1e1e" stroke-width="2" fill="none"></path></g><g transform="translate(347.66107209170264 216.96174809501065) rotate(0 29.34996795654297 12.5)"><text x="0" y="0" font-family="Virgil, Segoe UI Emoji" font-size="20px" fill="#1e1e1e" text-anchor="start" style="white-space: pre;" direction="ltr" dominant-baseline="text-before-edge">Queue</text></g><g stroke-linecap="round" transform="translate(478.7674365002915 279.51231205132297) rotate(0 22.33331298828125 42.333343505859375)"><path d="M11.17 0 C19.59 0.94, 28.1 -1.13, 33.5 0 M11.17 0 C16.33 0.13, 21.53 -0.39, 33.5 0 M33.5 0 C40.1 -1.03, 45.24 5.21, 44.67 11.17 M33.5 0 C40.49 -2.06, 45.82 3.4, 44.67 11.17 M44.67 11.17 C45.12 27.97, 45.85 46.05, 44.67 73.5 M44.67 11.17 C44.47 26.54, 44.53 43.26, 44.67 73.5 M44.67 73.5 C43.53 82.76, 42.45 85.52, 33.5 84.67 M44.67 73.5 C43.84 82.82, 39.04 85.83, 33.5 84.67 M33.5 84.67 C29.51 85.86, 22.71 83.94, 11.17 84.67 M33.5 84.67 C29.24 84.91, 22.89 84.83, 11.17 84.67 M11.17 84.67 C2.4 84.58, -1.75 80.59, 0 73.5 M11.17 84.67 C2.79 86.02, -2.16 80.44, 0 73.5 M0 73.5 C-0.54 60.45, 0.16 47.11, 0 11.17 M0 73.5 C-0.34 52.09, 1.02 31.15, 0 11.17 M0 11.17 C-1.88 4.36, 2.37 1.35, 11.17 0 M0 11.17 C1.37 5.71, 3.6 1.09, 11.17 0" stroke="#1e1e1e" stroke-width="2" fill="none"></path></g><g stroke-linecap="round"><g transform="translate(630.3276980682651 266.2950305657138) rotate(0 153.3333740234375 -1.666656494140625)"><path d="M0.13 0.04 C51.32 -0.36, 255.67 -2.02, 306.58 -2.66 M-1.25 -0.98 C49.82 -1.7, 254.06 -4.14, 305.58 -4.42" stroke="#1e1e1e" stroke-width="2" fill="none"></path></g><g transform="translate(630.3276980682651 266.2950305657138) rotate(0 153.3333740234375 -1.666656494140625)"><path d="M282.17 4.34 C288.21 1.93, 295.22 -2.03, 305.58 -4.42 M282.17 4.34 C287.73 2.61, 294.41 -0.88, 305.58 -4.42" stroke="#1e1e1e" stroke-width="2" fill="none"></path></g><g transform="translate(630.3276980682651 266.2950305657138) rotate(0 153.3333740234375 -1.666656494140625)"><path d="M282.01 -12.76 C288.05 -10.82, 295.11 -10.43, 305.58 -4.42 M282.01 -12.76 C287.65 -9.98, 294.37 -8.96, 305.58 -4.42" stroke="#1e1e1e" stroke-width="2" fill="none"></path></g></g><mask></mask><g stroke-linecap="round" transform="translate(985.6610720917026 152.2950610832919) rotate(0 198.33331298828125 165.6666717529297)"><path d="M7.86 8.16 C7.86 8.16, 7.86 8.16, 7.86 8.16 M7.86 8.16 C7.86 8.16, 7.86 8.16, 7.86 8.16 M2.75 26.24 C9.07 19.14, 12.67 14.11, 21.12 5.11 M2.75 26.24 C7.08 20.76, 13.4 13.35, 21.12 5.11 M2.88 38.28 C11.86 25.41, 25.4 12.65, 34.37 2.05 M2.88 38.28 C13.71 26.75, 23.52 14.99, 34.37 2.05 M2.36 51.07 C18.2 31.36, 32.8 14.97, 45 2.02 M2.36 51.07 C18.48 34.08, 34.06 14.89, 45 2.02 M2.49 63.11 C22.67 40.31, 45.66 16.23, 55.63 1.98 M2.49 63.11 C20.17 41.28, 38.99 20.77, 55.63 1.98 M2.62 75.16 C25.22 48.83, 45.23 26.01, 66.26 1.95 M2.62 75.16 C22.06 52.37, 41.65 29.26, 66.26 1.95 M2.76 87.2 C17.45 70.42, 34.11 53.23, 76.89 1.91 M2.76 87.2 C18.1 68.55, 34.71 52.13, 76.89 1.91 M2.23 99.99 C36.05 59.51, 69.36 22.52, 87.52 1.88 M2.23 99.99 C21.21 79.68, 37.53 59.2, 87.52 1.88 M2.37 112.03 C36.16 74.53, 72.27 32.89, 98.15 1.85 M2.37 112.03 C31.1 80.17, 59.77 46.18, 98.15 1.85 M2.5 124.07 C23.64 96.81, 44.13 74.78, 108.78 1.81 M2.5 124.07 C29.65 91.19, 58.76 58.68, 108.78 1.81 M2.63 136.11 C26.35 108.98, 51.87 77.63, 119.41 1.78 M2.63 136.11 C46.38 86.27, 88.46 36.69, 119.41 1.78 M2.11 148.91 C33.82 114.37, 62.79 80.39, 130.04 1.74 M2.11 148.91 C34.37 114.64, 63.93 77.93, 130.04 1.74 M2.24 160.95 C55.5 98.14, 110.57 33.81, 140.67 1.71 M2.24 160.95 C49.64 107.6, 96.61 53.37, 140.67 1.71 M2.38 172.99 C45.53 124.03, 90.29 73.75, 150.65 2.43 M2.38 172.99 C52.84 116.24, 102.15 60.51, 150.65 2.43 M2.51 185.03 C51.51 128.75, 98.73 74.98, 161.28 2.39 M2.51 185.03 C51.87 131.05, 98.51 75.61, 161.28 2.39 M2.64 197.07 C68.14 122.01, 131.97 49.2, 171.91 2.36 M2.64 197.07 C55.08 137.18, 107.34 75.84, 171.91 2.36 M2.12 209.87 C72.02 131.86, 138.98 52.99, 182.54 2.32 M2.12 209.87 C50.66 153.94, 99.85 97.97, 182.54 2.32 M2.25 221.91 C47.77 174.62, 90.67 122.98, 193.17 2.29 M2.25 221.91 C44 173.81, 88.18 123.94, 193.17 2.29 M2.39 233.95 C53.05 177.09, 104.31 118.72, 203.8 2.26 M2.39 233.95 C55.14 171.36, 110.99 107.65, 203.8 2.26 M2.52 245.99 C78.85 158.74, 153.65 72.23, 214.43 2.22 M2.52 245.99 C57.9 182.8, 112.09 119.81, 214.43 2.22 M2 258.79 C89.12 160.04, 173.44 62.01, 225.06 2.19 M2 258.79 C55.86 195.47, 110.42 131.65, 225.06 2.19 M2.13 270.83 C56.99 209.3, 112.07 145.36, 235.69 2.15 M2.13 270.83 C65.8 200.82, 127.21 130, 235.69 2.15 M2.26 282.87 C60.34 217.34, 116.2 149.67, 246.32 2.12 M2.26 282.87 C86.86 187.36, 169.23 90.97, 246.32 2.12 M2.4 294.91 C85.05 201.43, 164.83 110.43, 256.95 2.08 M2.4 294.91 C68.58 218.75, 135.07 142.14, 256.95 2.08 M5.15 303.93 C85.95 208.37, 170.26 113.46, 267.58 2.05 M5.15 303.93 C62.58 240.04, 118.19 176.22, 267.58 2.05 M5.29 315.97 C110.26 194.58, 213.66 73.97, 278.21 2.01 M5.29 315.97 C95.62 213.89, 185.85 110.31, 278.21 2.01 M8.7 324.24 C89.57 228.86, 172.16 135.01, 288.84 1.98 M8.7 324.24 C100.57 216.73, 194.49 109.75, 288.84 1.98 M16.05 327.98 C79.57 254.07, 146.04 178.16, 299.47 1.94 M16.05 327.98 C100.1 230.57, 185.93 132.82, 299.47 1.94 M22.09 333.23 C108.57 231.89, 197.93 130.01, 310.1 1.91 M22.09 333.23 C102.92 238.03, 185.34 143.89, 310.1 1.91 M33.37 332.44 C137.07 213.13, 241.29 94.24, 320.73 1.88 M33.37 332.44 C113.35 239.64, 193.33 147.31, 320.73 1.88 M44 332.4 C118.08 245.61, 192.85 159.63, 331.36 1.84 M44 332.4 C118.2 249.12, 192.1 164.6, 331.36 1.84 M54.63 332.37 C142.73 232.09, 228.7 132.74, 341.99 1.81 M54.63 332.37 C145.68 227.34, 238.71 121.41, 341.99 1.81 M65.26 332.34 C155.95 228.29, 247.21 123.22, 352.62 1.77 M65.26 332.34 C165.85 215.46, 267.6 99.54, 352.62 1.77 M75.89 332.3 C154.74 238.23, 235.68 144.53, 364.56 0.23 M75.89 332.3 C177.33 214.52, 277.86 98.99, 364.56 0.23 M86.52 332.27 C146.35 263.54, 205.93 196.46, 373.88 1.7 M86.52 332.27 C169.32 238.61, 251.4 144.93, 373.88 1.7 M97.15 332.23 C194.89 217.49, 295 101.81, 381.88 4.69 M97.15 332.23 C167.19 251.24, 236.16 171.49, 381.88 4.69 M107.78 332.2 C197.32 228.29, 287.41 122.25, 389.23 8.43 M107.78 332.2 C184.75 242.69, 262.92 152.64, 389.23 8.43 M118.41 332.16 C192.36 245.93, 269.71 158.16, 393.3 15.94 M118.41 332.16 C214.95 221.64, 310.95 111.21, 393.3 15.94 M129.04 332.13 C189.14 261.53, 250.37 193.54, 398.68 21.94 M129.04 332.13 C229.5 217.78, 330.3 102.12, 398.68 21.94 M139.02 332.85 C201.03 262.11, 260.97 194.14, 398.82 33.98 M139.02 332.85 C233.65 221.91, 328.52 112.15, 398.82 33.98 M149.65 332.81 C233.56 236.7, 317.33 142.35, 398.95 46.02 M149.65 332.81 C224.2 245.3, 301.08 157.9, 398.95 46.02 M160.28 332.78 C235.73 248.03, 309.17 161.61, 399.08 58.07 M160.28 332.78 C220.99 261.74, 283.44 189.49, 399.08 58.07 M170.91 332.74 C224.61 268.94, 277.75 209.42, 398.56 70.86 M170.91 332.74 C226.09 268.46, 281.82 204.84, 398.56 70.86 M181.54 332.71 C229.74 275.09, 276.02 220.29, 398.69 82.9 M181.54 332.71 C260.04 242.63, 338.7 153.51, 398.69 82.9 M192.17 332.68 C270.61 244.07, 348.01 152.46, 398.83 94.94 M192.17 332.68 C243.49 270.86, 296.06 210.79, 398.83 94.94 M202.8 332.64 C279.6 246.01, 353.75 162.79, 398.96 106.98 M202.8 332.64 C251.96 275.13, 300.76 220.14, 398.96 106.98 M213.43 332.61 C284.8 249.93, 356.77 170.03, 399.09 119.02 M213.43 332.61 C252.41 288.64, 290.14 243.33, 399.09 119.02 M224.06 332.57 C263.51 286.25, 302.55 242.82, 398.57 131.82 M224.06 332.57 C271.47 278.91, 319.47 224.63, 398.57 131.82 M234.69 332.54 C285.72 274.24, 338.59 214.95, 398.7 143.86 M234.69 332.54 C285.09 276.14, 334.89 218.27, 398.7 143.86 M245.32 332.5 C287.31 282.04, 333.45 229.97, 398.84 155.9 M245.32 332.5 C283.37 291.49, 319.85 248.96, 398.84 155.9 M255.95 332.47 C289.16 296.52, 320.37 258.03, 398.97 167.94 M255.95 332.47 C305.33 276.15, 353.5 220.78, 398.97 167.94 M266.58 332.43 C312.71 280.08, 359.84 224.71, 399.1 179.98 M266.58 332.43 C308.93 283.68, 353.12 234.36, 399.1 179.98 M277.21 332.4 C307.44 299.23, 333.67 269.49, 398.58 192.78 M277.21 332.4 C306.14 300.92, 334.04 269.94, 398.58 192.78 M287.84 332.37 C316.34 295.81, 347.14 261.48, 398.71 204.82 M287.84 332.37 C327.5 287.27, 365.65 243.36, 398.71 204.82 M298.47 332.33 C336.11 287.4, 376.43 243.24, 398.85 216.86 M298.47 332.33 C327.78 297.75, 357.35 264.81, 398.85 216.86 M309.1 332.3 C340.69 293.3, 372.5 255.25, 398.98 228.9 M309.1 332.3 C335.75 301.08, 364.75 267.98, 398.98 228.9 M319.73 332.26 C336.37 312.55, 354.99 290.65, 399.11 240.94 M319.73 332.26 C347.74 298.97, 378.16 265.06, 399.11 240.94 M330.36 332.23 C346.38 316.67, 359.9 298.56, 398.59 253.74 M330.36 332.23 C348.93 312.47, 366.61 290.58, 398.59 253.74 M340.99 332.19 C356.6 316.62, 371.57 298.75, 398.72 265.78 M340.99 332.19 C358.9 313.25, 374.75 292.3, 398.72 265.78 M351.62 332.16 C361.16 320.85, 374.2 306.15, 398.86 277.82 M351.62 332.16 C361.63 320.93, 370.65 310.41, 398.86 277.82 M362.25 332.12 C369.61 323.18, 376.92 314.45, 398.99 289.86 M362.25 332.12 C369.73 321.73, 379.76 312.07, 398.99 289.86 M369.6 335.86 C381.94 322.6, 390.96 312.18, 399.12 301.9 M369.6 335.86 C375.7 327.88, 383.71 320.43, 399.12 301.9" stroke="#ffc9c9" stroke-width="1" fill="none"></path><path d="M32 0 C143.21 0.29, 255.04 1.87, 364.67 0 M32 0 C107 1.34, 183 0.28, 364.67 0 M364.67 0 C385.66 1.43, 394.85 12.43, 396.67 32 M364.67 0 C388.12 -1.68, 396.14 10.22, 396.67 32 M396.67 32 C398.78 137.74, 396.86 239.74, 396.67 299.33 M396.67 32 C396.11 106.88, 397.53 182.21, 396.67 299.33 M396.67 299.33 C397.45 318.87, 385.21 331.49, 364.67 331.33 M396.67 299.33 C395.05 320.98, 385.77 330.3, 364.67 331.33 M364.67 331.33 C290.53 330.43, 214.77 331.14, 32 331.33 M364.67 331.33 C236.73 330.4, 109.45 331.15, 32 331.33 M32 331.33 C11.29 331.48, -1.14 320.55, 0 299.33 M32 331.33 C11.55 332.28, -2.03 318.54, 0 299.33 M0 299.33 C0.43 203.85, -0.93 108.24, 0 32 M0 299.33 C-0.23 226.62, 0.26 155, 0 32 M0 32 C-0.97 11.74, 10 1.78, 32 0 M0 32 C0.73 9.93, 9.39 -0.51, 32 0" stroke="#1e1e1e" stroke-width="2" fill="none"></path></g><g transform="translate(1140.3044284149448 305.4617328362216) rotate(0 43.68995666503906 12.5)"><text x="43.68995666503906" y="0" font-family="Virgil, Segoe UI Emoji" font-size="20px" fill="#1e1e1e" text-anchor="middle" style="white-space: pre;" direction="ltr" dominant-baseline="text-before-edge">Resource</text></g><g stroke-linecap="round"><g transform="translate(501.774102511406 379.09582363989284) rotate(0 12.954928179332796 -0.19593299671794284)"><path d="M0.4 0.29 C4.65 0.37, 21.4 0.27, 25.61 0.11 M-0.06 -0.04 C4.36 -0.07, 22.48 -0.57, 26.69 -0.6" stroke="#1e1e1e" stroke-width="2" fill="none"></path></g><g transform="translate(501.774102511406 379.09582363989284) rotate(0 12.954928179332796 -0.19593299671794284)"><path d="M14.61 4.06 C18.89 2.15, 23.07 0.73, 26.69 -0.6 M14.61 4.06 C17.38 3.22, 20.63 2.01, 26.69 -0.6" stroke="#1e1e1e" stroke-width="2" fill="none"></path></g><g transform="translate(501.774102511406 379.09582363989284) rotate(0 12.954928179332796 -0.19593299671794284)"><path d="M14.43 -4.8 C18.74 -3.83, 22.98 -2.37, 26.69 -0.6 M14.43 -4.8 C17.25 -3.47, 20.55 -2.51, 26.69 -0.6" stroke="#1e1e1e" stroke-width="2" fill="none"></path></g></g><mask></mask><g stroke-linecap="round"><g transform="translate(504.13640955651977 378.98413713811146) rotate(0 -13.443647645884312 -0.4121346136747661)"><path d="M-0.12 -0.36 C-4.71 -0.55, -22.68 -0.78, -27.1 -0.94 M0.81 0.64 C-3.9 0.51, -23.03 -0.03, -27.64 -0.3" stroke="#1e1e1e" stroke-width="2" fill="none"></path></g><g transform="translate(504.13640955651977 378.98413713811146) rotate(0 -13.443647645884312 -0.4121346136747661)"><path d="M-14.82 -4.38 C-20.04 -3.14, -24.51 -1.06, -27.64 -0.3 M-14.82 -4.38 C-17.27 -3.25, -19.93 -2.33, -27.64 -0.3" stroke="#1e1e1e" stroke-width="2" fill="none"></path></g><g transform="translate(504.13640955651977 378.98413713811146) rotate(0 -13.443647645884312 -0.4121346136747661)"><path d="M-15.2 4.81 C-20.29 2.63, -24.63 1.28, -27.64 -0.3 M-15.2 4.81 C-17.56 4.03, -20.13 3.03, -27.64 -0.3" stroke="#1e1e1e" stroke-width="2" fill="none"></path></g></g><mask></mask><g transform="translate(455.7226547205098 394.4192573858195) rotate(0 48.51995086669922 12.5)"><text x="0" y="0" font-family="Virgil, Segoe UI Emoji" font-size="20px" fill="#1e1e1e" text-anchor="start" style="white-space: pre;" direction="ltr" dominant-baseline="text-before-edge">Fixed size</text></g><g transform="translate(629.1389173663836 220.31450578994588) rotate(0 90.82990264892578 12.5)"><text x="0" y="0" font-family="Virgil, Segoe UI Emoji" font-size="20px" fill="#1e1e1e" text-anchor="start" style="white-space: pre;" direction="ltr" dominant-baseline="text-before-edge">Limited throughput</text></g><g stroke-linecap="round"><g transform="translate(176.3872757099541 82.69815801562072) rotate(0 -82.94687443024702 90.48222477107657)"><path d="M0.05 0.77 C-27.37 12.21, -154.23 38.29, -165.03 68.34 C-175.83 98.4, -81.66 162.49, -64.75 181.1 M-1.38 0.12 C-28.84 11.79, -154.79 39.41, -165.53 69.8 C-176.27 100.2, -82.9 164.01, -65.81 182.5" stroke="#1e1e1e" stroke-width="2" fill="none"></path></g><g transform="translate(176.3872757099541 82.69815801562072) rotate(0 -82.94687443024702 90.48222477107657)"><path d="M-89.2 173.66 C-81.89 177.37, -77.35 177.31, -65.81 182.5 M-89.2 173.66 C-82.45 176.71, -74.01 178.7, -65.81 182.5" stroke="#1e1e1e" stroke-width="2" fill="none"></path></g><g transform="translate(176.3872757099541 82.69815801562072) rotate(0 -82.94687443024702 90.48222477107657)"><path d="M-78.05 160.7 C-73.66 167.77, -72.02 171.07, -65.81 182.5 M-78.05 160.7 C-74.7 167.71, -69.74 173.74, -65.81 182.5" stroke="#1e1e1e" stroke-width="2" fill="none"></path></g></g><mask></mask><g stroke-linecap="round" transform="translate(188.92926681151346 57.331220643220945) rotate(0 15.106890334652633 17.512110129619856)"><path d="M0.4 4.33 C0.4 4.33, 0.4 4.33, 0.4 4.33 M0.4 4.33 C0.4 4.33, 0.4 4.33, 0.4 4.33 M0.54 16.37 C6.52 9.88, 9.45 5.06, 14.31 0.52 M0.54 16.37 C5.02 11.63, 9.52 6.94, 14.31 0.52 M0.67 28.41 C6.71 20.63, 15.87 14.59, 24.94 0.48 M0.67 28.41 C10.05 19.61, 18.26 8.6, 24.94 0.48 M6.05 34.41 C14.3 26.2, 23.81 16.92, 30.33 6.49 M6.05 34.41 C12.01 27.31, 17.14 20.64, 30.33 6.49 M16.68 34.38 C20.68 29.18, 23.49 24.88, 30.46 18.53 M16.68 34.38 C19.5 31.4, 23.15 28.5, 30.46 18.53 M4.34 34.63 C4.34 34.63, 4.34 34.63, 4.34 34.63 M4.34 34.63 C4.34 34.63, 4.34 34.63, 4.34 34.63 M16.38 34.5 C13.46 32.5, 11.14 28.26, 0.54 20.72 M16.38 34.5 C11.9 31.52, 9.63 27.34, 0.54 20.72 M27.67 33.71 C21.96 29.17, 13.88 20.76, 1.26 10.75 M27.67 33.71 C21.1 28.12, 15.93 22.36, 1.26 10.75 M30.65 25.71 C21.04 18.43, 13.67 11.65, 2.73 1.43 M30.65 25.71 C22.1 17.72, 14.38 12.08, 2.73 1.43 M30.62 15.08 C23.44 11.11, 18.55 3.85, 12.51 -0.67 M30.62 15.08 C27.62 11.55, 22.27 7.35, 12.51 -0.67" stroke="#b2f2bb" stroke-width="1" fill="none"></path><path d="M7.55 0 C9.26 1.25, 14.91 -0.35, 22.66 0 M7.55 0 C12.91 0.04, 17.04 0.01, 22.66 0 M22.66 0 C28.16 1.48, 28.22 1.02, 30.21 7.55 M22.66 0 C26.44 -1.88, 31.83 0.87, 30.21 7.55 M30.21 7.55 C31.45 14.24, 31.1 20.16, 30.21 27.47 M30.21 7.55 C30.39 13.01, 29.7 20.09, 30.21 27.47 M30.21 27.47 C29.07 32.53, 25.88 36.04, 22.66 35.02 M30.21 27.47 C29.9 30.9, 25.59 34.7, 22.66 35.02 M22.66 35.02 C17.98 36, 12.5 36.31, 7.55 35.02 M22.66 35.02 C19.16 34.9, 16.79 34.84, 7.55 35.02 M7.55 35.02 C3.84 33.61, 1.31 34.5, 0 27.47 M7.55 35.02 C3.6 35.6, 1.46 31.9, 0 27.47 M0 27.47 C1.67 22.86, -0.6 15.88, 0 7.55 M0 27.47 C-0.35 20.79, 0.52 15.52, 0 7.55 M0 7.55 C0.23 1.46, 3.05 -0.45, 7.55 0 M0 7.55 C-0.26 2.69, 4.05 -0.42, 7.55 0" stroke="#1e1e1e" stroke-width="2" fill="none"></path></g><g stroke-linecap="round" transform="translate(244.8694964694597 343.22965614242537) rotate(0 12.907531803025961 11.54246788909245)"><path d="M0.5 3.09 C0.5 3.09, 0.5 3.09, 0.5 3.09 M0.5 3.09 C0.5 3.09, 0.5 3.09, 0.5 3.09 M-0.02 15.88 C4.43 8.27, 10.48 5.14, 13.76 0.03 M-0.02 15.88 C3.84 11.83, 8.4 7.45, 13.76 0.03 M4.7 22.64 C7.54 15.97, 11.91 13.48, 23.07 1.51 M4.7 22.64 C11.37 14.01, 19.9 5.61, 23.07 1.51 M14.68 23.36 C17.07 19.35, 18.46 18.36, 25.83 10.53 M14.68 23.36 C16.74 19.07, 20.89 16.53, 25.83 10.53 M1.23 21.45 C1.23 21.45, 1.23 21.45, 1.23 21.45 M1.23 21.45 C1.23 21.45, 1.23 21.45, 1.23 21.45 M10.25 18.7 C7.56 17.27, 5.91 15.56, 3.46 12.79 M10.25 18.7 C7.63 16.47, 5.17 14.23, 3.46 12.79 M25.31 21.19 C19.13 13.97, 9.82 8.71, 1.91 0.85 M25.31 21.19 C18.63 14.71, 11.74 9.09, 1.91 0.85 M29.05 13.84 C22.08 7.99, 15.1 3.84, 8.67 -3.88 M29.05 13.84 C22.1 6.83, 14.78 0.65, 8.67 -3.88" stroke="#b2f2bb" stroke-width="1" fill="none"></path><path d="M5.77 0 C9.23 -0.61, 14.83 -0.51, 20.04 0 M5.77 0 C9.37 -0.26, 12.15 -0.56, 20.04 0 M20.04 0 C25.35 1.12, 26.98 1.91, 25.82 5.77 M20.04 0 C23.19 -0.15, 27.2 3.96, 25.82 5.77 M25.82 5.77 C26.18 8.19, 25.39 11.83, 25.82 17.31 M25.82 5.77 C25.18 8.7, 26.05 12.42, 25.82 17.31 M25.82 17.31 C25.96 22.68, 24.35 24.12, 20.04 23.08 M25.82 17.31 C25.42 20.23, 24.94 24.83, 20.04 23.08 M20.04 23.08 C16.24 21.79, 9.47 22.18, 5.77 23.08 M20.04 23.08 C16.11 22.46, 11.14 22.77, 5.77 23.08 M5.77 23.08 C0.45 24.35, -1.65 22.57, 0 17.31 M5.77 23.08 C1.61 25.06, -1.2 19.17, 0 17.31 M0 17.31 C0.91 13.49, 0.12 9.02, 0 5.77 M0 17.31 C0.16 13.6, -0.27 10.92, 0 5.77 M0 5.77 C-0.71 2.2, 2.97 0.9, 5.77 0 M0 5.77 C1.12 0.17, 3.76 -0.54, 5.77 0" stroke="#1e1e1e" stroke-width="2" fill="none"></path></g><g stroke-linecap="round" transform="translate(279.2717330271504 332.9692536421295) rotate(0 15.106890334652633 17.512110129619828)"><path d="M0.4 4.33 C0.4 4.33, 0.4 4.33, 0.4 4.33 M0.4 4.33 C0.4 4.33, 0.4 4.33, 0.4 4.33 M0.54 16.37 C2.96 13.73, 8.65 8.16, 11.69 3.54 M0.54 16.37 C3.69 12.51, 6.5 8.47, 11.69 3.54 M0.67 28.41 C4.06 24.5, 10.82 17.81, 22.32 3.5 M0.67 28.41 C8.5 19.39, 17.16 8.79, 22.32 3.5 M5.4 35.17 C13 27.37, 22.19 17.56, 30.98 5.73 M5.4 35.17 C16.32 24.51, 25.83 12.01, 30.98 5.73 M16.03 35.13 C20.51 31.46, 25.26 26.39, 31.12 17.77 M16.03 35.13 C22.29 28.37, 27.22 21.41, 31.12 17.77 M4.34 34.63 C4.34 34.63, 4.34 34.63, 4.34 34.63 M4.34 34.63 C4.34 34.63, 4.34 34.63, 4.34 34.63 M16.38 34.5 C11.05 27.42, 2.92 25.13, 0.54 20.72 M16.38 34.5 C10.29 31.08, 6.78 25.5, 0.54 20.72 M27.67 33.71 C16.75 23.34, 7.86 15.67, 1.26 10.75 M27.67 33.71 C19 25.53, 10.78 18.7, 1.26 10.75 M30.65 25.71 C21.84 18.22, 9.24 7.29, 2.73 1.43 M30.65 25.71 C19.35 17.32, 8.98 6.43, 2.73 1.43 M30.62 15.08 C24.67 11.38, 22.5 8.06, 12.51 -0.67 M30.62 15.08 C25.31 10.77, 21.55 6.51, 12.51 -0.67" stroke="#b2f2bb" stroke-width="1" fill="none"></path><path d="M7.55 0 C12.37 0.96, 18.85 0.87, 22.66 0 M7.55 0 C13.25 0.16, 17.65 -0.73, 22.66 0 M22.66 0 C27.1 -0.67, 30.46 3.14, 30.21 7.55 M22.66 0 C29.96 -0.18, 31.02 2.97, 30.21 7.55 M30.21 7.55 C30.07 13.93, 31.37 19.51, 30.21 27.47 M30.21 7.55 C29.86 14.21, 30.19 21.8, 30.21 27.47 M30.21 27.47 C28.49 30.6, 26.25 33.92, 22.66 35.02 M30.21 27.47 C28.53 33.32, 28.01 33.66, 22.66 35.02 M22.66 35.02 C18.29 34.53, 14.78 33.54, 7.55 35.02 M22.66 35.02 C17.75 35.25, 14.92 34.98, 7.55 35.02 M7.55 35.02 C2.89 34.81, 0.96 30.84, 0 27.47 M7.55 35.02 C1.51 36.36, 0.91 33.14, 0 27.47 M0 27.47 C0.88 18.29, -0.4 13.42, 0 7.55 M0 27.47 C0.26 21.01, 0.63 15.85, 0 7.55 M0 7.55 C-0.59 2.63, 1.95 1.44, 7.55 0 M0 7.55 C1.47 2.8, 1.03 0.95, 7.55 0" stroke="#1e1e1e" stroke-width="2" fill="none"></path></g><g stroke-linecap="round" transform="translate(392.0616542604955 346.03528145336975) rotate(0 8.983520086596627 9.674190830246346)"><path d="M0.1 2.74 C0.1 2.74, 0.1 2.74, 0.1 2.74 M0.1 2.74 C0.1 2.74, 0.1 2.74, 0.1 2.74 M0.89 14.02 C4.73 10.97, 3.95 10.18, 12.04 1.19 M0.89 14.02 C5.48 10.07, 8.05 5.33, 12.04 1.19 M7.58 18.52 C11.86 14.56, 14.61 9.28, 18.08 6.44 M7.58 18.52 C10.73 15.6, 13.4 11.88, 18.08 6.44 M1.27 18.35 C1.27 18.35, 1.27 18.35, 1.27 18.35 M1.27 18.35 C1.27 18.35, 1.27 18.35, 1.27 18.35 M14.07 18.88 C12.54 17.45, 8.87 14.3, 0.48 7.07 M14.07 18.88 C10.17 15.6, 6.37 13.56, 0.48 7.07 M17.81 11.53 C12.01 9.21, 8.43 2.87, 4.22 -0.28 M17.81 11.53 C14.33 9.72, 11.59 7.07, 4.22 -0.28" stroke="#b2f2bb" stroke-width="1" fill="none"></path><path d="M4.49 0 C7.27 -0.12, 11 0.25, 13.48 0 M4.49 0 C6.96 0.17, 10.3 -0.26, 13.48 0 M13.48 0 C17.04 1, 19.6 3.19, 17.97 4.49 M13.48 0 C16.16 1.89, 20.12 1.52, 17.97 4.49 M17.97 4.49 C18.48 8.38, 18.42 12.58, 17.97 14.86 M17.97 4.49 C18.07 7.21, 18.08 9.12, 17.97 14.86 M17.97 14.86 C17.03 16.16, 16.63 18.66, 13.48 19.35 M17.97 14.86 C18.33 18.89, 16.34 18.85, 13.48 19.35 M13.48 19.35 C12.3 18.53, 10.5 20, 4.49 19.35 M13.48 19.35 C10.51 19.48, 6.76 19.12, 4.49 19.35 M4.49 19.35 C3.43 19.18, -1.14 17.2, 0 14.86 M4.49 19.35 C0.23 20.46, -1.38 18.34, 0 14.86 M0 14.86 C0.17 11.38, -0.37 7.07, 0 4.49 M0 14.86 C0.05 11.13, 0.24 7.07, 0 4.49 M0 4.49 C-0.18 1.37, 2.62 -1.25, 4.49 0 M0 4.49 C-0.79 2.36, 2.19 0.93, 4.49 0" stroke="#1e1e1e" stroke-width="2" fill="none"></path></g><g stroke-linecap="round" transform="translate(318.5812561326719 348.7296208720635) rotate(0 9.718346043810584 8.939387297456506)"><path d="M0.09 2.73 C0.09 2.73, 0.09 2.73, 0.09 2.73 M0.09 2.73 C0.09 2.73, 0.09 2.73, 0.09 2.73 M0.88 14.02 C4.5 8.98, 7.39 8.65, 12.03 1.19 M0.88 14.02 C5.05 9.64, 8.6 5.77, 12.03 1.19 M8.89 17 C11.55 13.4, 16.1 10.35, 19.38 4.93 M8.89 17 C12.65 13.2, 16.3 9.66, 19.38 4.93 M1.24 16.87 C1.24 16.87, 1.24 16.87, 1.24 16.87 M1.24 16.87 C1.24 16.87, 1.24 16.87, 1.24 16.87 M14.79 18.05 C8.41 14.18, 2.57 7.85, 0.45 5.58 M14.79 18.05 C11.02 15.63, 6.94 10.46, 0.45 5.58 M21.55 13.32 C13.46 6.89, 9.4 0.69, 4.94 -1.11 M21.55 13.32 C14.66 9.06, 9.61 3.09, 4.94 -1.11" stroke="#b2f2bb" stroke-width="1" fill="none"></path><path d="M4.47 0 C7.46 0.52, 11.27 -0.6, 14.97 0 M4.47 0 C8.34 0.31, 12.34 0.49, 14.97 0 M14.97 0 C17.68 1.64, 21.31 1.51, 19.44 4.47 M14.97 0 C18.93 -2.09, 18.03 2.83, 19.44 4.47 M19.44 4.47 C18.8 8.33, 20.37 10.4, 19.44 13.41 M19.44 4.47 C19.23 7.47, 19.48 11.07, 19.44 13.41 M19.44 13.41 C19.75 17.29, 17.83 17.44, 14.97 17.88 M19.44 13.41 C17.34 16.16, 16.81 19.68, 14.97 17.88 M14.97 17.88 C13.48 17.7, 10.32 18.85, 4.47 17.88 M14.97 17.88 C11.98 17.78, 7.69 17.66, 4.47 17.88 M4.47 17.88 C0.39 18.84, -1.2 16.82, 0 13.41 M4.47 17.88 C3.18 19.39, -0.57 16.92, 0 13.41 M0 13.41 C0.86 10.42, 0.5 7.47, 0 4.47 M0 13.41 C-0.08 10.1, 0.21 6.57, 0 4.47 M0 4.47 C-0.69 2.24, 2.09 0.81, 4.47 0 M0 4.47 C-1.68 0.93, 0.98 -1.71, 4.47 0" stroke="#1e1e1e" stroke-width="2" fill="none"></path></g><g stroke-linecap="round" transform="translate(351.1575984100074 287.74088280166535) rotate(0 15.106890334652633 39.556216113312445)"><path d="M2.01 1.75 C2.01 1.75, 2.01 1.75, 2.01 1.75 M2.01 1.75 C2.01 1.75, 2.01 1.75, 2.01 1.75 M0.83 15.3 C6.31 10.32, 11.79 2.45, 13.3 0.96 M0.83 15.3 C5.16 11.73, 9.29 5.38, 13.3 0.96 M0.96 27.34 C6.56 18.78, 16.9 10.81, 23.93 0.92 M0.96 27.34 C7.05 19.35, 13.42 12.45, 23.93 0.92 M0.44 40.13 C7.57 31.6, 16.69 20.17, 29.96 6.17 M0.44 40.13 C9.89 28.4, 20.01 18.31, 29.96 6.17 M0.57 52.18 C8.34 43.56, 13.63 34.23, 30.1 18.21 M0.57 52.18 C11.93 40.64, 21.76 28.2, 30.1 18.21 M0.71 64.22 C12.77 50.6, 22.09 38.57, 30.23 30.25 M0.71 64.22 C9.65 53.7, 16.39 45.72, 30.23 30.25 M1.5 75.5 C7.86 67.89, 18.1 55.54, 30.36 42.3 M1.5 75.5 C8.38 67.89, 15.38 59.03, 30.36 42.3 M8.85 79.24 C12.74 71.33, 20.83 67.01, 30.5 54.34 M8.85 79.24 C12.38 74.29, 18.62 68.06, 30.5 54.34 M19.48 79.21 C22.16 73.78, 27.49 71.13, 30.63 66.38 M19.48 79.21 C23.2 74.49, 27.27 69.9, 30.63 66.38 M4.4 78.77 C4.4 78.77, 4.4 78.77, 4.4 78.77 M4.4 78.77 C4.4 78.77, 4.4 78.77, 4.4 78.77 M16.44 78.64 C12.3 75.32, 4.95 70.2, 0.59 64.86 M16.44 78.64 C13.15 76.06, 9.2 72.09, 0.59 64.86 M26.97 77.19 C18.26 70.76, 10.35 61.85, 0.56 54.23 M26.97 77.19 C19.89 70.89, 11.88 64.11, 0.56 54.23 M30.71 69.84 C24.96 63.22, 14.45 58.29, 0.52 43.6 M30.71 69.84 C23.37 63.61, 17.61 58.42, 0.52 43.6 M30.68 59.21 C20.94 49.98, 12.23 42.82, 0.49 32.97 M30.68 59.21 C19.41 49.22, 7.83 39.1, 0.49 32.97 M30.64 48.58 C21.41 39.15, 13.91 32.26, 0.45 22.34 M30.64 48.58 C22.69 42.35, 17.43 35.95, 0.45 22.34 M30.61 37.95 C20.61 28.92, 5.28 16.13, 0.42 11.71 M30.61 37.95 C19.69 30.38, 10.4 19.8, 0.42 11.71 M30.57 27.32 C21.55 19.37, 10.61 9.58, 1.89 2.39 M30.57 27.32 C23.55 22.87, 18.11 17.3, 1.89 2.39 M30.54 16.69 C25.05 12.07, 21.97 8.54, 10.92 -0.36 M30.54 16.69 C25.93 12.76, 22.24 10.23, 10.92 -0.36 M30.5 6.06 C27.09 3.99, 25.06 1.19, 23.71 0.16 M30.5 6.06 C28.9 4.4, 26.59 2.72, 23.71 0.16" stroke="#b2f2bb" stroke-width="1" fill="none"></path><path d="M7.55 0 C12.62 -1.39, 16.47 -1.17, 22.66 0 M7.55 0 C11.48 0.08, 14.72 0.48, 22.66 0 M22.66 0 C28.97 -0.21, 29.72 1.76, 30.21 7.55 M22.66 0 C28.78 -0.69, 28.77 3.67, 30.21 7.55 M30.21 7.55 C30.34 23.08, 31.54 40.54, 30.21 71.56 M30.21 7.55 C30.56 28.26, 29.67 50.19, 30.21 71.56 M30.21 71.56 C31.27 75.89, 26.59 79.39, 22.66 79.11 M30.21 71.56 C31.19 75.43, 29.16 78.63, 22.66 79.11 M22.66 79.11 C16.14 78.58, 12.53 79.34, 7.55 79.11 M22.66 79.11 C18.86 78.62, 16.32 78.81, 7.55 79.11 M7.55 79.11 C0.76 80.78, 0.28 76.37, 0 71.56 M7.55 79.11 C2.5 79.32, 0 77.1, 0 71.56 M0 71.56 C-0.95 48.2, -0.64 27.06, 0 7.55 M0 71.56 C0.83 51.8, -0.54 32.3, 0 7.55 M0 7.55 C0.58 0.69, 3.54 0.78, 7.55 0 M0 7.55 C1.2 3.83, 3.22 -2.16, 7.55 0" stroke="#1e1e1e" stroke-width="2" fill="none"></path></g><g stroke-linecap="round"><g transform="translate(425.7835749006299 253.57182607468877) rotate(0 25.71812364764139 -5.143624729528284)"><path d="M-0.47 -0.04 C3.72 -3.63, 17.22 -23.16, 25.91 -21.46 C34.6 -19.76, 47.49 4.76, 51.66 10.17 M1.49 -1.11 C5.96 -4.49, 19.83 -21.88, 28.08 -19.87 C36.33 -17.87, 47.21 5.61, 51.01 10.91" stroke="#1e1e1e" stroke-width="2" fill="none"></path></g><g transform="translate(425.7835749006299 253.57182607468877) rotate(0 25.71812364764139 -5.143624729528284)"><path d="M35.21 -2.13 C40.96 1.01, 46.99 7.89, 51.01 10.91 M35.21 -2.13 C38.11 0.36, 41.2 2.46, 51.01 10.91" stroke="#1e1e1e" stroke-width="2" fill="none"></path></g><g transform="translate(425.7835749006299 253.57182607468877) rotate(0 25.71812364764139 -5.143624729528284)"><path d="M47.29 -9.23 C48.6 -3.53, 50.19 5.96, 51.01 10.91 M47.29 -9.23 C47.63 -5.29, 48.21 -1.71, 51.01 10.91" stroke="#1e1e1e" stroke-width="2" fill="none"></path></g></g><mask></mask><g stroke-linecap="round" transform="translate(489.5455821357946 337.4626034700549) rotate(0 9.718346043810584 8.939387297456506)"><path d="M0.09 2.73 C0.09 2.73, 0.09 2.73, 0.09 2.73 M0.09 2.73 C0.09 2.73, 0.09 2.73, 0.09 2.73 M0.88 14.02 C5.1 11.77, 4.41 7.95, 12.03 1.19 M0.88 14.02 C3.27 11.21, 6.18 8.33, 12.03 1.19 M8.89 17 C14.04 12.61, 15.86 7.39, 19.38 4.93 M8.89 17 C12.01 13.82, 13.47 10.65, 19.38 4.93 M1.24 16.87 C1.24 16.87, 1.24 16.87, 1.24 16.87 M1.24 16.87 C1.24 16.87, 1.24 16.87, 1.24 16.87 M14.79 18.05 C9.06 16.55, 6.92 10.74, 0.45 5.58 M14.79 18.05 C8.99 13.09, 3.5 9.49, 0.45 5.58 M19.28 11.35 C16.32 9.16, 12.75 7.12, 6.45 0.2 M19.28 11.35 C16.54 8.31, 13.78 5.91, 6.45 0.2" stroke="#b2f2bb" stroke-width="1" fill="none"></path><path d="M4.47 0 C6.67 0.78, 9.04 -0.02, 14.97 0 M4.47 0 C8.58 0.55, 12.29 -0.13, 14.97 0 M14.97 0 C19.79 -1.33, 18.13 2.13, 19.44 4.47 M14.97 0 C19.19 -0.75, 19.79 -0.19, 19.44 4.47 M19.44 4.47 C19.42 8.4, 19.84 10.57, 19.44 13.41 M19.44 4.47 C19.29 7.8, 19.86 10.21, 19.44 13.41 M19.44 13.41 C18.67 17.47, 17.97 19.15, 14.97 17.88 M19.44 13.41 C21.12 17.31, 16.37 16.13, 14.97 17.88 M14.97 17.88 C10.89 18.84, 8.25 18.29, 4.47 17.88 M14.97 17.88 C11.46 18.35, 7.29 17.69, 4.47 17.88 M4.47 17.88 C3.26 17.9, 0.54 17.14, 0 13.41 M4.47 17.88 C1.6 18.67, -0.92 17.32, 0 13.41 M0 13.41 C0.82 10.49, -0.89 7.63, 0 4.47 M0 13.41 C0.01 9.75, -0.33 6.68, 0 4.47 M0 4.47 C0.82 2.13, 2.69 0.73, 4.47 0 M0 4.47 C0.93 2.49, 1.55 1.44, 4.47 0" stroke="#1e1e1e" stroke-width="2" fill="none"></path></g><g stroke-linecap="round" transform="translate(483.6621018067342 309.14139923077744) rotate(0 12.907531803025904 11.54246788909245)"><path d="M0.5 3.09 C0.5 3.09, 0.5 3.09, 0.5 3.09 M0.5 3.09 C0.5 3.09, 0.5 3.09, 0.5 3.09 M-0.02 15.88 C3.39 12.99, 4.2 9.49, 10.47 3.81 M-0.02 15.88 C4.37 11.05, 7.58 6.1, 10.47 3.81 M4.05 23.39 C10.46 16.02, 13.89 11.77, 22.42 2.26 M4.05 23.39 C11.48 15.56, 16.9 8.24, 22.42 2.26 M10.74 27.89 C15.47 20.93, 20.52 16.54, 28.45 7.51 M10.74 27.89 C17.84 20.86, 23.79 13.28, 28.45 7.51 M1.23 21.45 C1.23 21.45, 1.23 21.45, 1.23 21.45 M1.23 21.45 C1.23 21.45, 1.23 21.45, 1.23 21.45 M14.78 22.63 C9.89 20.64, 5.38 15.75, 0.44 10.17 M14.78 22.63 C10.87 19.67, 7.58 16.23, 0.44 10.17 M25.31 21.19 C16.63 15.49, 9.3 6.8, 2.67 1.51 M25.31 21.19 C18.16 15.84, 11.93 9.25, 2.67 1.51 M26.03 11.21 C19.36 5.76, 16.12 2.13, 12.44 -0.6 M26.03 11.21 C22.2 7.12, 18.56 5.48, 12.44 -0.6" stroke="#b2f2bb" stroke-width="1" fill="none"></path><path d="M5.77 0 C9.65 0, 16.37 0.64, 20.04 0 M5.77 0 C8.3 0.66, 11.59 0.19, 20.04 0 M20.04 0 C24.69 0.06, 26.81 3.18, 25.82 5.77 M20.04 0 C25.27 2.23, 25.66 1.5, 25.82 5.77 M25.82 5.77 C25.58 9.55, 25.21 10.79, 25.82 17.31 M25.82 5.77 C25.47 7.65, 26 10.75, 25.82 17.31 M25.82 17.31 C26.76 19.67, 22.68 22.32, 20.04 23.08 M25.82 17.31 C26.16 22.38, 24.37 25.04, 20.04 23.08 M20.04 23.08 C17.58 21.69, 15.16 23.05, 5.77 23.08 M20.04 23.08 C15.6 22.79, 12.03 22.64, 5.77 23.08 M5.77 23.08 C3.47 21.71, -1.14 19.5, 0 17.31 M5.77 23.08 C1.84 23.76, -0.9 22.55, 0 17.31 M0 17.31 C0.37 14.08, 0.71 11.67, 0 5.77 M0 17.31 C-0.3 13.78, -0.35 10.1, 0 5.77 M0 5.77 C-1.58 1.9, 1.86 0.66, 5.77 0 M0 5.77 C1.59 2.43, 4 1.4, 5.77 0" stroke="#1e1e1e" stroke-width="2" fill="none"></path></g><g stroke-linecap="round" transform="translate(499.3429700477993 286.02635617477216) rotate(0 8.983520086596627 9.674190830246374)"><path d="M0.1 2.74 C0.1 2.74, 0.1 2.74, 0.1 2.74 M0.1 2.74 C0.1 2.74, 0.1 2.74, 0.1 2.74 M0.89 14.02 C6.01 10.02, 7.2 4.73, 12.04 1.19 M0.89 14.02 C5.78 8.85, 9.67 4.25, 12.04 1.19 M7.58 18.52 C10.08 16.5, 14.64 11.71, 18.08 6.44 M7.58 18.52 C10.39 15.33, 12.02 13.22, 18.08 6.44 M1.27 18.35 C1.27 18.35, 1.27 18.35, 1.27 18.35 M1.27 18.35 C1.27 18.35, 1.27 18.35, 1.27 18.35 M14.07 18.88 C12.79 17.4, 8.27 14.79, 0.48 7.07 M14.07 18.88 C10.26 14.69, 6.83 11.2, 0.48 7.07 M17.81 11.53 C14.48 8.86, 10.51 5.65, 4.22 -0.28 M17.81 11.53 C15.2 9.48, 10.78 7.04, 4.22 -0.28" stroke="#b2f2bb" stroke-width="1" fill="none"></path><path d="M4.49 0 C5.97 0.59, 9.01 -0.72, 13.48 0 M4.49 0 C6.85 0.37, 9.67 0, 13.48 0 M13.48 0 C14.52 1.47, 16.72 1.71, 17.97 4.49 M13.48 0 C17.6 -0.89, 17.07 -0.64, 17.97 4.49 M17.97 4.49 C18.14 7.37, 16.91 11.91, 17.97 14.86 M17.97 4.49 C18.54 8.03, 17.94 11.86, 17.97 14.86 M17.97 14.86 C18.03 19.36, 17.38 18.86, 13.48 19.35 M17.97 14.86 C17.16 16.92, 17.73 21.22, 13.48 19.35 M13.48 19.35 C11.24 19, 8.55 18.83, 4.49 19.35 M13.48 19.35 C10.32 19.33, 7.56 19.49, 4.49 19.35 M4.49 19.35 C1.97 18.84, 0.65 18.37, 0 14.86 M4.49 19.35 C0.64 19.36, 1.69 17.37, 0 14.86 M0 14.86 C0.87 11.72, 0.1 9.56, 0 4.49 M0 14.86 C-0.14 11.56, -0.4 8.88, 0 4.49 M0 4.49 C0.19 2.71, 0.57 0.89, 4.49 0 M0 4.49 C-0.61 0.26, 1.29 -1.7, 4.49 0" stroke="#1e1e1e" stroke-width="2" fill="none"></path></g><g stroke-linecap="round" transform="translate(439.8238838918295 207.1574137561064) rotate(0 8.983520086596627 9.674190830246374)"><path d="M0.1 2.74 C0.1 2.74, 0.1 2.74, 0.1 2.74 M0.1 2.74 C0.1 2.74, 0.1 2.74, 0.1 2.74 M0.89 14.02 C4.17 11.52, 7.38 9.11, 12.04 1.19 M0.89 14.02 C3.48 11.27, 5.95 8.09, 12.04 1.19 M7.58 18.52 C11.17 15.72, 13.94 10.1, 18.08 6.44 M7.58 18.52 C10.81 14.55, 15.39 8.49, 18.08 6.44 M1.27 18.35 C1.27 18.35, 1.27 18.35, 1.27 18.35 M1.27 18.35 C1.27 18.35, 1.27 18.35, 1.27 18.35 M14.07 18.88 C9.76 12.98, 4.61 8.01, 0.48 7.07 M14.07 18.88 C10.53 15.19, 5.35 10.38, 0.48 7.07 M17.81 11.53 C13.57 8.66, 10.78 7.03, 4.22 -0.28 M17.81 11.53 C13.12 6.64, 7.05 2.7, 4.22 -0.28" stroke="#b2f2bb" stroke-width="1" fill="none"></path><path d="M4.49 0 C7.25 -0.67, 9.38 0.78, 13.48 0 M4.49 0 C6.47 0.05, 9.54 -0.08, 13.48 0 M13.48 0 C14.69 -1.14, 16.31 3.05, 17.97 4.49 M13.48 0 C16.25 0.68, 17.2 3.05, 17.97 4.49 M17.97 4.49 C17.84 5.56, 17.54 8.91, 17.97 14.86 M17.97 4.49 C17.76 8.56, 17.86 12.16, 17.97 14.86 M17.97 14.86 C16.41 16.83, 16.79 21.31, 13.48 19.35 M17.97 14.86 C18.31 20.07, 14.72 21.34, 13.48 19.35 M13.48 19.35 C10.44 19.82, 9.66 18.8, 4.49 19.35 M13.48 19.35 C10.79 19.34, 9.03 19.02, 4.49 19.35 M4.49 19.35 C1.44 18.4, -1.01 19.67, 0 14.86 M4.49 19.35 C3.55 21.22, -0.3 19.97, 0 14.86 M0 14.86 C0.56 12.5, -0.16 10.67, 0 4.49 M0 14.86 C0.37 11.77, 0.01 9.56, 0 4.49 M0 4.49 C-1.65 -0.39, -0.29 0.06, 4.49 0 M0 4.49 C1.9 -0.59, 3.05 1.66, 4.49 0" stroke="#1e1e1e" stroke-width="2" fill="none"></path></g><g stroke-linecap="round"><g transform="translate(530.1256765567748 323.13324212840155) rotate(0 28.412395793062387 0.7348035327897833)"><path d="M0.04 -0.64 C9.33 -0.35, 46.77 2.23, 56.04 2.55 M-1.4 1.64 C8.24 1.55, 48.44 0.86, 58.34 0.99" stroke="#1e1e1e" stroke-width="2" fill="none"></path></g><g transform="translate(530.1256765567748 323.13324212840155) rotate(0 28.412395793062387 0.7348035327897833)"><path d="M34.88 9.64 C41.41 5.5, 51.91 2.07, 58.34 0.99 M34.88 9.64 C40.79 8.2, 48.33 5.29, 58.34 0.99" stroke="#1e1e1e" stroke-width="2" fill="none"></path></g><g transform="translate(530.1256765567748 323.13324212840155) rotate(0 28.412395793062387 0.7348035327897833)"><path d="M34.81 -7.46 C41.48 -6.03, 52 -3.88, 58.34 0.99 M34.81 -7.46 C40.9 -4.08, 48.46 -2.18, 58.34 0.99" stroke="#1e1e1e" stroke-width="2" fill="none"></path></g></g><mask></mask><g stroke-linecap="round" transform="translate(650.8340432034847 276.3910774258037) rotate(0 22.33331298828125 42.333343505859375)"><path d="M11.17 0 C16.6 0.31, 23.19 -1.44, 33.5 0 M11.17 0 C16.13 -0.34, 19.47 -0.62, 33.5 0 M33.5 0 C41.12 -0.97, 45.24 2.97, 44.67 11.17 M33.5 0 C40.44 1.63, 43.52 5.03, 44.67 11.17 M44.67 11.17 C44.82 28.7, 42.98 49.84, 44.67 73.5 M44.67 11.17 C44.82 30.07, 45.48 49.17, 44.67 73.5 M44.67 73.5 C43.87 79.4, 40.87 85.11, 33.5 84.67 M44.67 73.5 C43.38 80.78, 40.67 85.95, 33.5 84.67 M33.5 84.67 C27.06 85.77, 23.42 83.64, 11.17 84.67 M33.5 84.67 C28.61 84.72, 23.14 83.81, 11.17 84.67 M11.17 84.67 C4.57 86.09, -1.1 80.38, 0 73.5 M11.17 84.67 C1.82 85.86, -0.26 82.54, 0 73.5 M0 73.5 C-0.51 56.41, -0.41 40.98, 0 11.17 M0 73.5 C-0.74 57.34, 0.37 39.07, 0 11.17 M0 11.17 C-0.51 4.01, 4.84 -1.28, 11.17 0 M0 11.17 C-1.7 4.75, 1.71 0.78, 11.17 0" stroke="#1e1e1e" stroke-width="2" fill="none"></path></g><g stroke-linecap="round" transform="translate(665.5310812154021 333.8514848730596) rotate(0 9.718346043810584 8.939387297456506)"><path d="M0.09 2.73 C0.09 2.73, 0.09 2.73, 0.09 2.73 M0.09 2.73 C0.09 2.73, 0.09 2.73, 0.09 2.73 M0.88 14.02 C2.51 9.91, 8.02 7.5, 12.03 1.19 M0.88 14.02 C2.65 11.81, 5.71 8.42, 12.03 1.19 M8.89 17 C12.8 11.49, 16.81 7.82, 19.38 4.93 M8.89 17 C11.68 13.94, 15.29 9.57, 19.38 4.93 M1.24 16.87 C1.24 16.87, 1.24 16.87, 1.24 16.87 M1.24 16.87 C1.24 16.87, 1.24 16.87, 1.24 16.87 M14.79 18.05 C8.66 14.59, 3.87 7.31, 0.45 5.58 M14.79 18.05 C10.41 14.36, 5.74 11.21, 0.45 5.58 M21.55 13.32 C18.81 9.5, 15.65 7.43, 4.94 -1.11 M21.55 13.32 C15.82 7.28, 9.15 1.8, 4.94 -1.11" stroke="#b2f2bb" stroke-width="1" fill="none"></path><path d="M4.47 0 C7.78 -0.86, 8.14 -0.92, 14.97 0 M4.47 0 C6.43 -0.35, 9.36 -0.2, 14.97 0 M14.97 0 C18.52 -0.76, 19 2.91, 19.44 4.47 M14.97 0 C16.8 1.31, 19.44 0, 19.44 4.47 M19.44 4.47 C18.89 7.03, 19.56 8.29, 19.44 13.41 M19.44 4.47 C19.89 6.18, 19.28 8.18, 19.44 13.41 M19.44 13.41 C19.36 16.83, 16.83 17.74, 14.97 17.88 M19.44 13.41 C19.16 17.67, 16.44 16.88, 14.97 17.88 M14.97 17.88 C11.06 17.28, 6.23 18.45, 4.47 17.88 M14.97 17.88 C13.29 17.57, 10.95 18.28, 4.47 17.88 M4.47 17.88 C0.39 17.32, -1.66 17.43, 0 13.41 M4.47 17.88 C1.23 19.48, -0.68 18.68, 0 13.41 M0 13.41 C0.09 10.96, -0.27 7.15, 0 4.47 M0 13.41 C0.16 10.89, -0.03 9.12, 0 4.47 M0 4.47 C1.12 0.21, 0.01 0.89, 4.47 0 M0 4.47 C-2.01 2.27, 1.13 0.09, 4.47 0" stroke="#1e1e1e" stroke-width="2" fill="none"></path></g><g stroke-linecap="round" transform="translate(661.117207951921 283.9760586215656) rotate(0 13.15245136433964 19.625306749779725)"><path d="M1.75 1.52 C1.75 1.52, 1.75 1.52, 1.75 1.52 M1.75 1.52 C1.75 1.52, 1.75 1.52, 1.75 1.52 M0.57 15.07 C5.06 12, 4.35 9.98, 13.04 0.73 M0.57 15.07 C4.71 10.4, 9.67 4.53, 13.04 0.73 M0.7 27.11 C6.44 20.39, 10.84 13.85, 23.67 0.7 M0.7 27.11 C5.84 20.92, 12.09 14.7, 23.67 0.7 M2.15 37.64 C9.63 30.89, 13.39 24.73, 26.42 9.72 M2.15 37.64 C10.21 27.97, 18.74 18.7, 26.42 9.72 M11.47 39.12 C16.81 33.75, 17.98 29.46, 26.56 21.76 M11.47 39.12 C17.26 31.95, 23.36 25.43, 26.56 21.76 M22.1 39.08 C23.2 38.14, 24.67 36.71, 25.38 35.31 M22.1 39.08 C22.94 37.86, 23.9 36.66, 25.38 35.31 M3.49 38.66 C3.49 38.66, 3.49 38.66, 3.49 38.66 M3.49 38.66 C3.49 38.66, 3.49 38.66, 3.49 38.66 M15.53 38.53 C11.52 35.37, 9.26 32.13, 5.72 30 M15.53 38.53 C12.42 36.14, 8.47 32.9, 5.72 30 M25.31 36.43 C17.71 30.34, 15.01 27.2, 5.69 19.37 M25.31 36.43 C20.86 32.32, 16.42 27.03, 5.69 19.37 M29.05 29.08 C20.06 20.52, 9.37 13.3, 5.65 8.74 M29.05 29.08 C23.72 25.44, 18.48 20.08, 5.65 8.74 M29.02 18.45 C21.95 12.43, 14.23 6.25, 7.13 -0.58 M29.02 18.45 C25.63 15.67, 20.49 11.61, 7.13 -0.58 M28.98 7.82 C25.79 6.96, 23.75 3.92, 19.92 -0.06 M28.98 7.82 C25.98 4.52, 21.97 1.88, 19.92 -0.06" stroke="#b2f2bb" stroke-width="1" fill="none"></path><path d="M6.58 0 C9.37 -1.04, 13.73 0.59, 19.73 0 M6.58 0 C9.93 -0.22, 13.36 -0.15, 19.73 0 M19.73 0 C23.68 1.42, 25.31 3.33, 26.3 6.58 M19.73 0 C24.12 -1.49, 24.58 2.83, 26.3 6.58 M26.3 6.58 C26.35 12.4, 24.68 19.74, 26.3 32.67 M26.3 6.58 C26.15 12.44, 26.52 20.07, 26.3 32.67 M26.3 32.67 C25.19 36.92, 23.87 40.36, 19.73 39.25 M26.3 32.67 C24.8 36.06, 26.22 37.88, 19.73 39.25 M19.73 39.25 C14.54 39.83, 9.36 40.1, 6.58 39.25 M19.73 39.25 C15.71 39.64, 10.77 38.98, 6.58 39.25 M6.58 39.25 C0.53 40.29, -0.23 38.45, 0 32.67 M6.58 39.25 C1.51 41.54, 0.78 37.19, 0 32.67 M0 32.67 C-0.63 24.51, -1.15 15.75, 0 6.58 M0 32.67 C-0.3 23.24, 0.51 12.88, 0 6.58 M0 6.58 C-1.48 3.09, 0.45 0.68, 6.58 0 M0 6.58 C-0.36 2.29, 2.86 0.77, 6.58 0" stroke="#1e1e1e" stroke-width="2" fill="none"></path></g><g stroke-linecap="round" transform="translate(787.9975188204003 274.18666682743435) rotate(0 22.33331298828125 42.333343505859375)"><path d="M11.17 0 C16.71 -0.65, 20.67 1.52, 33.5 0 M11.17 0 C16.11 -0.75, 22.63 -0.59, 33.5 0 M33.5 0 C39.66 1.23, 44.88 3.26, 44.67 11.17 M33.5 0 C39.27 0.68, 43.62 5.92, 44.67 11.17 M44.67 11.17 C44.34 25.83, 43.3 39.47, 44.67 73.5 M44.67 11.17 C44.58 30.03, 44.42 47.52, 44.67 73.5 M44.67 73.5 C45.06 79.71, 39.96 85.66, 33.5 84.67 M44.67 73.5 C42.41 82.57, 41.56 86.61, 33.5 84.67 M33.5 84.67 C27.11 84.26, 21.28 85.86, 11.17 84.67 M33.5 84.67 C28.05 84.94, 20.66 84.48, 11.17 84.67 M11.17 84.67 C3.93 85.86, -0.6 80.31, 0 73.5 M11.17 84.67 C2.43 82.51, 1.54 81.35, 0 73.5 M0 73.5 C1.28 58.32, -1.32 46.61, 0 11.17 M0 73.5 C-0.17 60.53, 0.12 47.31, 0 11.17 M0 11.17 C1.06 2.86, 4.01 -1.67, 11.17 0 M0 11.17 C-0.8 5.07, 4.18 -1.36, 11.17 0" stroke="#1e1e1e" stroke-width="2" fill="none"></path></g><g stroke-linecap="round" transform="translate(794.8566823817928 329.68758323763484) rotate(0 15.596774306128623 12.123543414353435)"><path d="M1.61 1.4 C1.61 1.4, 1.61 1.4, 1.61 1.4 M1.61 1.4 C1.61 1.4, 1.61 1.4, 1.61 1.4 M0.43 14.95 C3.03 10.44, 7.1 6.05, 12.9 0.61 M0.43 14.95 C2.72 10.95, 7.12 7.94, 12.9 0.61 M3.85 23.22 C8.5 16.54, 15.58 11.32, 23.53 0.58 M3.85 23.22 C10.74 16.07, 16.73 8.3, 23.53 0.58 M13.17 24.7 C18.24 17.43, 23.21 13, 30.88 4.32 M13.17 24.7 C18.79 18.55, 22.6 13.92, 30.88 4.32 M23.8 24.66 C26.23 21.49, 28 20.33, 31.67 15.6 M23.8 24.66 C26.83 21.02, 30.02 17.23, 31.67 15.6 M1.47 22.69 C1.47 22.69, 1.47 22.69, 1.47 22.69 M1.47 22.69 C1.47 22.69, 1.47 22.69, 1.47 22.69 M15.02 23.87 C10.17 19.25, 2.51 13.17, 0.68 11.41 M15.02 23.87 C11.25 20.44, 6.64 17.01, 0.68 11.41 M26.31 23.08 C17.15 13.85, 9.1 5.09, 1.4 1.43 M26.31 23.08 C19.43 18.28, 13.54 12.91, 1.4 1.43 M31.56 17.05 C26.73 9.8, 17.89 5.61, 11.18 -0.67 M31.56 17.05 C25.66 11.79, 21.8 7.7, 11.18 -0.67 M31.52 6.42 C28.66 3.5, 24.14 0.95, 23.22 -0.8 M31.52 6.42 C28.23 3.72, 26.54 2.19, 23.22 -0.8" stroke="#b2f2bb" stroke-width="1" fill="none"></path><path d="M6.06 0 C10.44 1.42, 14.71 1.16, 25.13 0 M6.06 0 C12.05 -0.42, 16.9 0.73, 25.13 0 M25.13 0 C29.39 -0.46, 29.73 2.61, 31.19 6.06 M25.13 0 C28.12 2.2, 29.54 1.1, 31.19 6.06 M31.19 6.06 C30.51 8.67, 31.04 12.13, 31.19 18.19 M31.19 6.06 C30.78 9.18, 31.26 11.38, 31.19 18.19 M31.19 18.19 C30.21 23.22, 27.21 25.66, 25.13 24.25 M31.19 18.19 C31.81 24.17, 27.71 25.22, 25.13 24.25 M25.13 24.25 C16.47 25.18, 10.75 25.52, 6.06 24.25 M25.13 24.25 C20.03 24.2, 14.92 24.88, 6.06 24.25 M6.06 24.25 C1.42 23.61, -1.13 20.35, 0 18.19 M6.06 24.25 C3.56 24.65, -1.77 21.64, 0 18.19 M0 18.19 C-0.96 14.92, -1.13 10.98, 0 6.06 M0 18.19 C0.2 14.94, 0.32 11.03, 0 6.06 M0 6.06 C0.29 0.35, 1.33 1.17, 6.06 0 M0 6.06 C0.46 0.66, 2.71 0.18, 6.06 0" stroke="#1e1e1e" stroke-width="2" fill="none"></path></g><g stroke-linecap="round" transform="translate(796.811076503257 302.3461469413095) rotate(0 12.907531803025904 11.54246788909245)"><path d="M0.5 3.09 C0.5 3.09, 0.5 3.09, 0.5 3.09 M0.5 3.09 C0.5 3.09, 0.5 3.09, 0.5 3.09 M-0.02 15.88 C1.59 12.86, 5.48 8.5, 13.76 0.03 M-0.02 15.88 C3.61 12.54, 5.59 10.41, 13.76 0.03 M4.7 22.64 C10.11 18.3, 15.01 10.24, 23.07 1.51 M4.7 22.64 C11.52 14.53, 18.14 6.87, 23.07 1.51 M14.68 23.36 C17.8 19.76, 22.13 12.64, 25.83 10.53 M14.68 23.36 C17.67 19.76, 20.42 16.45, 25.83 10.53 M1.23 21.45 C1.23 21.45, 1.23 21.45, 1.23 21.45 M1.23 21.45 C1.23 21.45, 1.23 21.45, 1.23 21.45 M14.78 22.63 C7.89 16.48, 3.19 13.28, 0.44 10.17 M14.78 22.63 C9.24 18.74, 5.42 13.82, 0.44 10.17 M25.31 21.19 C16.95 14.2, 11.19 9.86, 2.67 1.51 M25.31 21.19 C19.21 16.46, 14.36 10.39, 2.67 1.51 M26.03 11.21 C22.94 5.8, 16.45 4.98, 12.44 -0.6 M26.03 11.21 C21.1 7.54, 16.73 3.75, 12.44 -0.6" stroke="#b2f2bb" stroke-width="1" fill="none"></path><path d="M5.77 0 C8.8 0.71, 13.26 -1.02, 20.04 0 M5.77 0 C8.53 0.52, 12.27 -0.08, 20.04 0 M20.04 0 C22.43 0.59, 24.9 3.84, 25.82 5.77 M20.04 0 C22.24 -0.92, 24.03 1.84, 25.82 5.77 M25.82 5.77 C25.61 10.13, 25 12.71, 25.82 17.31 M25.82 5.77 C25.86 9.94, 25.46 15.1, 25.82 17.31 M25.82 17.31 C23.85 22.58, 24.43 24.77, 20.04 23.08 M25.82 17.31 C24.36 22.14, 25.53 21.82, 20.04 23.08 M20.04 23.08 C16 24.15, 11.86 24.58, 5.77 23.08 M20.04 23.08 C15.35 23.49, 10.3 22.84, 5.77 23.08 M5.77 23.08 C0.8 21.21, 1.34 21.51, 0 17.31 M5.77 23.08 C0.15 22.5, 0.33 22.44, 0 17.31 M0 17.31 C-0.92 14.99, -0.1 11.92, 0 5.77 M0 17.31 C0.27 13.27, 0.04 9.23, 0 5.77 M0 5.77 C-0.69 3.1, 2.32 -1.19, 5.77 0 M0 5.77 C0.69 2.11, 0.97 -0.64, 5.77 0" stroke="#1e1e1e" stroke-width="2" fill="none"></path></g><g stroke-linecap="round" transform="translate(800.2452490970586 278.25138079120046) rotate(0 8.983520086596627 9.674190830246374)"><path d="M0.1 2.74 C0.1 2.74, 0.1 2.74, 0.1 2.74 M0.1 2.74 C0.1 2.74, 0.1 2.74, 0.1 2.74 M0.89 14.02 C3.5 10.1, 6.34 4.66, 12.04 1.19 M0.89 14.02 C3.29 11.82, 5.64 7.77, 12.04 1.19 M7.58 18.52 C10.95 14.01, 14.78 12.12, 18.08 6.44 M7.58 18.52 C11.01 14.45, 14.75 10.61, 18.08 6.44 M1.27 18.35 C1.27 18.35, 1.27 18.35, 1.27 18.35 M1.27 18.35 C1.27 18.35, 1.27 18.35, 1.27 18.35 M14.07 18.88 C9.97 16.01, 4.6 10.28, 0.48 7.07 M14.07 18.88 C8.75 14.53, 5.83 11.56, 0.48 7.07 M17.81 11.53 C13.7 8.43, 10.83 5.09, 4.22 -0.28 M17.81 11.53 C14.23 7.72, 9.01 4.23, 4.22 -0.28" stroke="#b2f2bb" stroke-width="1" fill="none"></path><path d="M4.49 0 C7.83 -0.63, 10.48 0.2, 13.48 0 M4.49 0 C6.7 -0.16, 8.49 0.08, 13.48 0 M13.48 0 C15.56 1.91, 16.53 0.7, 17.97 4.49 M13.48 0 C14.69 -0.09, 18.47 0.21, 17.97 4.49 M17.97 4.49 C17.28 7.08, 18.9 9.94, 17.97 14.86 M17.97 4.49 C17.73 8.33, 17.48 12.01, 17.97 14.86 M17.97 14.86 C18.5 19.54, 15.2 20.2, 13.48 19.35 M17.97 14.86 C19.61 16.58, 15.82 17.44, 13.48 19.35 M13.48 19.35 C10.05 20.31, 7.46 19.46, 4.49 19.35 M13.48 19.35 C10.75 19.26, 8.04 18.98, 4.49 19.35 M4.49 19.35 C2.84 19.7, -1.54 17.34, 0 14.86 M4.49 19.35 C1.83 20.63, -1.48 16.15, 0 14.86 M0 14.86 C-0.07 11.33, 0.39 8.06, 0 4.49 M0 14.86 C0.02 10.97, -0.23 8.26, 0 4.49 M0 4.49 C0.4 0.31, 2.1 0.16, 4.49 0 M0 4.49 C-0.95 0.86, 0.34 2.06, 4.49 0" stroke="#1e1e1e" stroke-width="2" fill="none"></path></g><g stroke-linecap="round" transform="translate(856.33415767215 273.45186329464457) rotate(0 22.33331298828125 42.333343505859375)"><path d="M11.17 0 C20.75 -1.42, 28.34 -1.92, 33.5 0 M11.17 0 C20.51 0.12, 29.44 -0.4, 33.5 0 M33.5 0 C42.47 -0.13, 44.47 4.95, 44.67 11.17 M33.5 0 C42.05 -0.19, 42.46 3.18, 44.67 11.17 M44.67 11.17 C43.67 30.92, 44.17 49.6, 44.67 73.5 M44.67 11.17 C44.53 29.16, 45.22 47.03, 44.67 73.5 M44.67 73.5 C44.56 81.34, 41.18 85.61, 33.5 84.67 M44.67 73.5 C44.19 79.65, 42.17 86.56, 33.5 84.67 M33.5 84.67 C29.94 86.65, 21.4 85.36, 11.17 84.67 M33.5 84.67 C27.29 84.29, 19.28 85.72, 11.17 84.67 M11.17 84.67 C1.84 85.16, -0.73 79.39, 0 73.5 M11.17 84.67 C2.75 86.44, -0.03 81.88, 0 73.5 M0 73.5 C1.85 54.77, -1.34 33.66, 0 11.17 M0 73.5 C0.58 57.03, -0.18 40.3, 0 11.17 M0 11.17 C-0.76 5.47, 3.62 1.78, 11.17 0 M0 11.17 C0.33 3.33, 4.58 -0.1, 11.17 0" stroke="#1e1e1e" stroke-width="2" fill="none"></path></g><g stroke-linecap="round" transform="translate(869.9288925595733 330.8493716749473) rotate(0 9.718346043810584 8.939387297456506)"><path d="M0.09 2.73 C0.09 2.73, 0.09 2.73, 0.09 2.73 M0.09 2.73 C0.09 2.73, 0.09 2.73, 0.09 2.73 M0.88 14.02 C4.88 10.21, 8.16 8, 9.41 4.2 M0.88 14.02 C2.17 11.52, 5.02 8.97, 9.41 4.2 M5.61 20.77 C8.91 16.19, 14.82 7.87, 19.38 4.93 M5.61 20.77 C9.21 16.08, 13.38 11.65, 19.38 4.93 M1.24 16.87 C1.24 16.87, 1.24 16.87, 1.24 16.87 M1.24 16.87 C1.24 16.87, 1.24 16.87, 1.24 16.87 M14.79 18.05 C11.9 13.47, 5.18 12.42, 0.45 5.58 M14.79 18.05 C10.71 15.4, 7.29 11.12, 0.45 5.58 M19.28 11.35 C17.05 9.09, 11.26 3.41, 6.45 0.2 M19.28 11.35 C16.25 8.62, 11.88 4.96, 6.45 0.2" stroke="#b2f2bb" stroke-width="1" fill="none"></path><path d="M4.47 0 C7.1 -0.28, 12.04 -0.4, 14.97 0 M4.47 0 C7.8 -0.42, 10.68 0.35, 14.97 0 M14.97 0 C16.01 -0.29, 19.14 -0.33, 19.44 4.47 M14.97 0 C17.52 0.57, 19.17 -0.39, 19.44 4.47 M19.44 4.47 C19.24 6.59, 19.96 10.33, 19.44 13.41 M19.44 4.47 C19.65 6.87, 19.33 10.01, 19.44 13.41 M19.44 13.41 C19.83 17.81, 19.65 18.33, 14.97 17.88 M19.44 13.41 C19.88 18.11, 17.43 18.93, 14.97 17.88 M14.97 17.88 C9.89 18.23, 6.43 18.65, 4.47 17.88 M14.97 17.88 C12.12 17.92, 9.6 18.34, 4.47 17.88 M4.47 17.88 C1.22 17.75, -0.67 17.44, 0 13.41 M4.47 17.88 C-0.59 16.6, -1.64 15.75, 0 13.41 M0 13.41 C-0.51 12.37, -0.63 10.35, 0 4.47 M0 13.41 C-0.12 10.47, 0.22 8.07, 0 4.47 M0 4.47 C-0.64 3.05, 0.87 0.06, 4.47 0 M0 4.47 C-1.49 1.48, -0.08 0.26, 4.47 0" stroke="#1e1e1e" stroke-width="2" fill="none"></path></g></svg>