<svg version="1.1" xmlns="http://www.w3.org/2000/svg" viewBox="0 0 1051.33349609375 616.0000305175781" width="1051.33349609375" height="616.0000305175781" filter="invert(93%) hue-rotate(180deg)">
  <!-- svg-source:excalidraw -->
  
  <defs>
    <style class="style-fonts">
      @font-face {
        font-family: "Virgil";
        src: url("https://excalidraw.com/Virgil.woff2");
      }
      @font-face {
        font-family: "Cascadia";
        src: url("https://excalidraw.com/Cascadia.woff2");
      }
      @font-face {
        font-family: "Assistant";
        src: url("https://excalidraw.com/Assistant-Regular.woff2");
      }
    </style>
    
  </defs>
  <g stroke-linecap="round" transform="translate(353.33343505859375 70.66665649414062) rotate(0 51.333404541015625 78.66665649414062)"><path d="M3.74 9.88 C3.74 9.88, 3.74 9.88, 3.74 9.88 M3.74 9.88 C3.74 9.88, 3.74 9.88, 3.74 9.88 M0.59 25.69 C4.31 21.54, 9.29 12.38, 21.59 1.54 M0.59 25.69 C9.21 16.96, 16.09 7.74, 21.59 1.54 M0.73 37.73 C7.5 30.01, 16.93 18.81, 32.87 0.75 M0.73 37.73 C6.71 28.9, 14.05 21.3, 32.87 0.75 M0.2 50.53 C13.17 39.28, 23.07 23.74, 43.5 0.72 M0.2 50.53 C14.55 33.82, 28.62 16.62, 43.5 0.72 M0.34 62.57 C21.28 37.36, 42.78 12.99, 54.13 0.68 M0.34 62.57 C21.13 39.49, 42.88 14.65, 54.13 0.68 M0.47 74.61 C20.56 55.27, 36.63 32.5, 64.76 0.65 M0.47 74.61 C14.34 60.91, 27.93 44.9, 64.76 0.65 M-0.05 87.4 C17.54 66.33, 39.93 46.15, 75.39 0.61 M-0.05 87.4 C18.02 64.06, 37.84 41.4, 75.39 0.61 M0.08 99.45 C17.45 77.1, 35.32 59.69, 85.37 1.33 M0.08 99.45 C24.77 69.42, 49.7 42.01, 85.37 1.33 M0.21 111.49 C21.12 87.9, 40.86 65.19, 93.37 4.32 M0.21 111.49 C25.42 83.14, 49.7 54.77, 93.37 4.32 M0.35 123.53 C19.73 101.72, 39.03 79.11, 98.75 10.32 M0.35 123.53 C33.43 84.69, 67.07 46.96, 98.75 10.32 M1.13 134.81 C32.7 99.35, 60.92 66.53, 102.17 18.59 M1.13 134.81 C23.24 109.03, 44.41 84.17, 102.17 18.59 M3.24 144.59 C36.18 104.62, 72.86 67.11, 103.61 29.12 M3.24 144.59 C37.43 105.52, 72.57 66.46, 103.61 29.12 M7.31 152.1 C33.54 121.51, 56.2 93.9, 103.09 41.91 M7.31 152.1 C32.7 125.91, 56.55 96.88, 103.09 41.91 M14.66 155.84 C49.04 117.14, 81.51 79.02, 103.22 53.96 M14.66 155.84 C46.51 119.15, 78.39 83.41, 103.22 53.96 M23.97 157.32 C51.75 125.09, 74.08 98.65, 103.36 66 M23.97 157.32 C49.2 131.54, 72.28 104.06, 103.36 66 M34.6 157.28 C60.1 128.77, 84.99 95.57, 103.49 78.04 M34.6 157.28 C55 131.08, 77.43 106.18, 103.49 78.04 M45.23 157.25 C58.31 142.41, 73.32 126.29, 102.97 90.83 M45.23 157.25 C58.44 141.51, 70.89 127.5, 102.97 90.83 M55.86 157.21 C69.88 141.17, 82.87 125.6, 103.1 102.87 M55.86 157.21 C73.72 135.96, 93.07 115.45, 103.1 102.87 M65.84 157.93 C79.24 142.23, 94.61 125.72, 103.23 114.91 M65.84 157.93 C75.69 147.24, 87.05 135.31, 103.23 114.91 M76.47 157.9 C83.71 149.47, 93.44 139.7, 103.37 126.96 M76.47 157.9 C82.35 150.85, 88.29 144.1, 103.37 126.96 M88.41 156.35 C92.55 152.7, 94.16 148.69, 102.19 140.51 M88.41 156.35 C92.12 153.18, 94.8 149.58, 102.19 140.51" stroke="#f783ac" stroke-width="1" fill="none"></path><path d="M25.67 0 C40.64 0.55, 53.51 0.54, 77 0 M25.67 0 C42.57 1.2, 58.26 0.05, 77 0 M77 0 C92.34 -1.44, 100.78 7, 102.67 25.67 M77 0 C93.87 -0.17, 100.41 9.83, 102.67 25.67 M102.67 25.67 C100.66 46.85, 101.15 72.5, 102.67 131.67 M102.67 25.67 C102.24 60.82, 102.05 95.07, 102.67 131.67 M102.67 131.67 C102.51 150.4, 92.15 159.11, 77 157.33 M102.67 131.67 C104.06 149.02, 93.21 159.35, 77 157.33 M77 157.33 C65.89 156.26, 53.19 155.92, 25.67 157.33 M77 157.33 C58.34 157.44, 41.32 156.89, 25.67 157.33 M25.67 157.33 C7.7 155.78, 0.8 149.9, 0 131.67 M25.67 157.33 C7.96 158.67, 0.84 147.94, 0 131.67 M0 131.67 C0.87 98.8, 1.56 60.43, 0 25.67 M0 131.67 C-0.1 97.65, -1.68 63.64, 0 25.67 M0 25.67 C-1 9.46, 9.61 1.62, 25.67 0 M0 25.67 C-0.1 8.84, 10.2 -1.44, 25.67 0" stroke="#1e1e1e" stroke-width="2" fill="none"></path></g><g transform="translate(376.4008483886719 131.83331298828125) rotate(0 28.2659912109375 17.5)"><text x="28.2659912109375" y="0" font-family="Virgil, Segoe UI Emoji" font-size="28px" fill="#1e1e1e" text-anchor="middle" style="white-space: pre;" direction="ltr" dominant-baseline="text-before-edge">CPU</text></g><g stroke-linecap="round" transform="translate(83.33343505859375 68.00003051757812) rotate(0 59.000030517578125 90)"><path d="M7.2 7.58 C7.2 7.58, 7.2 7.58, 7.2 7.58 M7.2 7.58 C7.2 7.58, 7.2 7.58, 7.2 7.58 M0.77 27.17 C5.36 20.51, 11.93 15.93, 23.07 1.51 M0.77 27.17 C7.03 19.55, 13.62 10.95, 23.07 1.51 M0.9 39.21 C12.02 27.58, 21.84 14.91, 35.02 -0.04 M0.9 39.21 C8.99 29.33, 17.06 20.76, 35.02 -0.04 M0.38 52.01 C17.71 31.35, 35.6 12.66, 45.65 -0.07 M0.38 52.01 C10.75 39.25, 22.88 28.01, 45.65 -0.07 M0.51 64.05 C20.77 38.99, 43.67 16.19, 55.62 0.65 M0.51 64.05 C19.82 43.29, 37.13 22.48, 55.62 0.65 M0.65 76.09 C20.44 52.81, 43.59 26.6, 66.25 0.62 M0.65 76.09 C20.56 52.81, 42.14 28.94, 66.25 0.62 M0.12 88.88 C23.96 57.34, 53.11 27.83, 76.88 0.58 M0.12 88.88 C22.05 63.84, 43.63 39.09, 76.88 0.58 M0.26 100.92 C21.37 77.04, 40.71 53.5, 87.51 0.55 M0.26 100.92 C32.53 62.59, 65.7 25.62, 87.51 0.55 M0.39 112.96 C20.77 87.83, 42.9 63.7, 97.49 1.27 M0.39 112.96 C26.62 81.97, 52.62 52.67, 97.49 1.27 M0.52 125 C33.94 85.69, 66.85 47.54, 105.49 4.25 M0.52 125 C37.23 82.72, 75.14 39.84, 105.49 4.25 M0 137.8 C34.17 98.69, 71.69 57.74, 111.53 9.5 M0 137.8 C25.42 107.67, 52.8 78.29, 111.53 9.5 M0.13 149.84 C34.82 110.71, 70.32 66.08, 116.25 16.26 M0.13 149.84 C33.74 111.34, 65.55 73.23, 116.25 16.26 M1.58 160.37 C40.95 113.47, 82.26 64.67, 118.36 26.03 M1.58 160.37 C40.4 115.74, 80.57 69.08, 118.36 26.03 M4.99 168.64 C40.72 130.22, 76.09 87.41, 118.49 38.08 M4.99 168.64 C37.21 132.77, 70.36 95.32, 118.49 38.08 M10.37 174.64 C48.57 131.28, 83.57 88.03, 118.62 50.12 M10.37 174.64 C44.88 136.53, 80.41 96.31, 118.62 50.12 M17.72 178.38 C53.91 135.04, 92.96 92.28, 118.76 62.16 M17.72 178.38 C53.38 136.6, 90.58 95.44, 118.76 62.16 M27.04 179.86 C58.99 144.24, 88.96 104.71, 118.89 74.2 M27.04 179.86 C54.07 150.42, 80.61 119.93, 118.89 74.2 M37.67 179.82 C65.74 151.03, 91.5 119.52, 118.37 86.99 M37.67 179.82 C70.87 143.91, 101.34 107.19, 118.37 86.99 M48.3 179.79 C69.89 155.73, 90.82 129.72, 118.5 99.03 M48.3 179.79 C74.84 148.02, 100.86 117.54, 118.5 99.03 M58.27 180.51 C80.56 155.66, 99.55 133.61, 118.63 111.08 M58.27 180.51 C81.06 153.86, 104.94 125.58, 118.63 111.08 M68.9 180.47 C85.74 158.87, 106.62 138.46, 118.11 123.87 M68.9 180.47 C82.44 162.59, 96.67 146.36, 118.11 123.87 M79.53 180.44 C92.82 163.19, 110.03 148.85, 118.24 135.91 M79.53 180.44 C89.47 169.92, 96.84 159.79, 118.24 135.91 M90.16 180.4 C96.94 173.57, 104.89 164.96, 118.38 147.95 M90.16 180.4 C98.9 169.61, 108.45 157.85, 118.38 147.95 M102.11 178.86 C104.84 174.05, 110.29 170.5, 115.88 163.01 M102.11 178.86 C105.58 174.54, 110.51 171.04, 115.88 163.01" stroke="#f783ac" stroke-width="1" fill="none"></path><path d="M29.5 0 C51.03 -0.26, 73.41 -2.49, 88.5 0 M29.5 0 C48.89 -0.26, 68.22 0.41, 88.5 0 M88.5 0 C108.09 0.38, 117.58 9.05, 118 29.5 M88.5 0 C108.56 0.32, 117.79 7.82, 118 29.5 M118 29.5 C118.69 69.08, 116.99 108.78, 118 150.5 M118 29.5 C117.72 76.77, 118.52 123.94, 118 150.5 M118 150.5 C119.02 169.05, 108.01 181.4, 88.5 180 M118 150.5 C119.88 171.08, 107.58 179.67, 88.5 180 M88.5 180 C72.25 179.86, 57.15 180.84, 29.5 180 M88.5 180 C66.63 179.11, 43.19 178.64, 29.5 180 M29.5 180 C10.82 181.51, 0.26 169.33, 0 150.5 M29.5 180 C11.77 178.69, -0.89 169.92, 0 150.5 M0 150.5 C2.25 114.71, 1.01 77.95, 0 29.5 M0 150.5 C-0.54 115.17, -0.15 81.49, 0 29.5 M0 29.5 C-2 7.87, 11.12 -0.02, 29.5 0 M0 29.5 C-1.89 8.07, 11.49 2.16, 29.5 0" stroke="#1e1e1e" stroke-width="2" fill="none"></path></g><g transform="translate(112.9334716796875 140.50003051757812) rotate(0 29.399993896484375 17.5)"><text x="29.399993896484375" y="0" font-family="Virgil, Segoe UI Emoji" font-size="28px" fill="#1e1e1e" text-anchor="middle" style="white-space: pre;" direction="ltr" dominant-baseline="text-before-edge">RAM</text></g><g stroke-linecap="round" transform="translate(87.33343505859375 350.6667175292969) rotate(0 54.333343505859375 93)"><path d="M3.49 10.99 C3.49 10.99, 3.49 10.99, 3.49 10.99 M3.49 10.99 C3.49 10.99, 3.49 10.99, 3.49 10.99 M1 26.05 C5.97 17.26, 13.63 12.01, 23.31 0.39 M1 26.05 C6.04 21.34, 10.35 14.99, 23.31 0.39 M1.14 38.09 C8.58 29.76, 17.45 19.13, 33.94 0.35 M1.14 38.09 C8.03 28.94, 15.93 20.29, 33.94 0.35 M1.27 50.13 C17.44 30.29, 36.38 12.35, 44.57 0.32 M1.27 50.13 C15.58 32.82, 31.31 15.44, 44.57 0.32 M0.75 62.92 C11.49 50.05, 26.49 36.34, 55.2 0.28 M0.75 62.92 C16.84 43.58, 33.86 26.33, 55.2 0.28 M0.88 74.97 C22.09 52.98, 41.95 29.34, 65.83 0.25 M0.88 74.97 C25.29 46.54, 51.6 17.53, 65.83 0.25 M1.01 87.01 C29.22 58.67, 51.55 27.66, 76.46 0.21 M1.01 87.01 C29.53 52.69, 59.16 18.66, 76.46 0.21 M1.15 99.05 C25.59 72, 46.97 47.28, 86.43 0.93 M1.15 99.05 C30.4 64.62, 59.61 32.28, 86.43 0.93 M0.62 111.84 C28.76 81.42, 54.67 48.55, 95.1 3.16 M0.62 111.84 C37.03 72.17, 71.94 31.37, 95.1 3.16 M0.76 123.88 C21.64 98.63, 45.61 74.95, 102.45 6.9 M0.76 123.88 C34.8 84.79, 68.43 46.63, 102.45 6.9 M0.89 135.92 C26.47 108.68, 49.92 84.1, 106.51 14.42 M0.89 135.92 C26.25 105.25, 53.76 75.1, 106.51 14.42 M1.02 147.97 C27.58 117.18, 56.48 83.1, 108.62 24.19 M1.02 147.97 C37.82 105.15, 75.02 64.45, 108.62 24.19 M0.5 160.76 C38.95 114.91, 79.5 68.85, 108.75 36.23 M0.5 160.76 C26.63 128.27, 54.31 97.7, 108.75 36.23 M1.94 171.29 C32.87 134.28, 61.31 101.24, 108.88 48.27 M1.94 171.29 C29.18 138.77, 58.3 106.4, 108.88 48.27 M6.67 178.05 C29.03 153.06, 49.4 130.37, 108.36 61.07 M6.67 178.05 C45.66 132.03, 84.78 87.29, 108.36 61.07 M12.71 183.3 C47.03 144.07, 80.74 109.64, 108.49 73.11 M12.71 183.3 C40.08 152.09, 66.45 122.45, 108.49 73.11 M21.37 185.53 C46.19 157.77, 70.76 126.56, 108.63 85.15 M21.37 185.53 C42.61 162.09, 65.26 137.9, 108.63 85.15 M31.34 186.25 C46.59 165.3, 61.87 148.49, 108.76 97.19 M31.34 186.25 C51.55 162.91, 71.59 140.4, 108.76 97.19 M41.97 186.21 C55.86 172.29, 69.59 155.26, 108.24 109.99 M41.97 186.21 C57.81 169.18, 70.87 152.61, 108.24 109.99 M52.6 186.18 C68.4 170.62, 83.17 153.45, 108.37 122.03 M52.6 186.18 C72.19 161.51, 93.14 139.17, 108.37 122.03 M63.23 186.14 C74.84 172.83, 82.36 162.98, 108.5 134.07 M63.23 186.14 C77.99 170.14, 89.54 155.17, 108.5 134.07 M73.86 186.11 C85.85 171.39, 100.59 156.78, 108.64 146.11 M73.86 186.11 C81.94 177.27, 89.8 167.41, 108.64 146.11 M84.49 186.08 C89.21 178.81, 97.15 173.91, 108.11 158.91 M84.49 186.08 C91.24 179.1, 95.46 172.69, 108.11 158.91 M99.06 181.51 C100.5 179.94, 103.85 177.21, 106.28 173.21 M99.06 181.51 C100.29 180.06, 102.46 178, 106.28 173.21" stroke="#f783ac" stroke-width="1" fill="none"></path><path d="M27.17 0 C38.87 0.26, 48.45 0.09, 81.5 0 M27.17 0 C40.34 -0.31, 52.29 -0.72, 81.5 0 M81.5 0 C99.87 -0.12, 108.34 9.25, 108.67 27.17 M81.5 0 C98.21 1.48, 107.32 10.62, 108.67 27.17 M108.67 27.17 C109.45 76.76, 107.46 128.62, 108.67 158.83 M108.67 27.17 C109.49 68.54, 108.72 112.5, 108.67 158.83 M108.67 158.83 C106.73 175.24, 99.3 185.8, 81.5 186 M108.67 158.83 C109.9 177.98, 99.85 184.28, 81.5 186 M81.5 186 C66.96 185.2, 49.83 186.02, 27.17 186 M81.5 186 C68.92 186.04, 58.3 186.19, 27.17 186 M27.17 186 C9.08 186.21, -1.79 176.37, 0 158.83 M27.17 186 C8.26 188.08, -0.67 176.45, 0 158.83 M0 158.83 C-0.59 121.7, 1.85 83.22, 0 27.17 M0 158.83 C1.13 114.07, 0.29 68.92, 0 27.17 M0 27.17 C0.36 7.84, 8.04 -1.35, 27.17 0 M0 27.17 C2.16 10.05, 9.77 1.78, 27.17 0" stroke="#1e1e1e" stroke-width="2" fill="none"></path></g><g transform="translate(113.26079559326172 426.1667175292969) rotate(0 28.405982971191406 17.5)"><text x="28.405982971191406" y="0" font-family="Virgil, Segoe UI Emoji" font-size="28px" fill="#1e1e1e" text-anchor="middle" style="white-space: pre;" direction="ltr" dominant-baseline="text-before-edge">Disk</text></g><g stroke-linecap="round" transform="translate(342.0001220703125 348.0000305175781) rotate(0 64.66668701171875 90.66665649414062)"><path d="M7.86 8.16 C7.86 8.16, 7.86 8.16, 7.86 8.16 M7.86 8.16 C7.86 8.16, 7.86 8.16, 7.86 8.16 M2.75 26.24 C8.21 18.35, 13.18 12.29, 21.12 5.11 M2.75 26.24 C9.61 19.44, 16.66 11.54, 21.12 5.11 M2.88 38.28 C13.42 25.27, 25.07 10.92, 34.37 2.05 M2.88 38.28 C14.58 25.59, 24.16 12.99, 34.37 2.05 M2.36 51.07 C17.19 36.62, 29.83 21.55, 45 2.02 M2.36 51.07 C15.6 34.15, 29.56 18.66, 45 2.02 M2.49 63.11 C15.74 47.29, 26.97 36.36, 55.63 1.98 M2.49 63.11 C17.62 46.66, 31.97 30.21, 55.63 1.98 M2.62 75.16 C23.23 52.1, 39.53 31.09, 66.26 1.95 M2.62 75.16 C21.49 52.02, 40.21 30.32, 66.26 1.95 M2.1 87.95 C30.07 55.03, 57.11 24.43, 76.23 2.67 M2.1 87.95 C27.05 59.22, 52.87 29.69, 76.23 2.67 M2.23 99.99 C26.31 72.41, 47.95 48.43, 86.86 2.63 M2.23 99.99 C34.48 64.33, 65.16 28.35, 86.86 2.63 M2.37 112.03 C40.83 71.03, 78.15 24.39, 97.49 2.6 M2.37 112.03 C22.88 88.8, 42.48 66.04, 97.49 2.6 M2.5 124.07 C31.7 91.54, 56.82 59.99, 107.47 3.32 M2.5 124.07 C26.63 96.91, 48.31 70.06, 107.47 3.32 M1.98 136.87 C46.34 86.68, 91.01 38.02, 116.79 4.8 M1.98 136.87 C29.03 103.88, 57.02 72.39, 116.79 4.8 M0.8 150.42 C28.06 119.29, 51.7 89.58, 122.82 10.04 M0.8 150.42 C41.56 104.84, 81.04 59.18, 122.82 10.04 M2.24 160.95 C27.61 133.18, 53.23 100.65, 128.21 16.05 M2.24 160.95 C37.54 122.25, 72.12 82.12, 128.21 16.05 M5.66 169.22 C43.11 127.8, 79.39 84.94, 132.93 22.8 M5.66 169.22 C52.51 116.73, 97.69 61.84, 132.93 22.8 M11.04 175.22 C46.07 132.92, 85.75 92.81, 133.06 34.85 M11.04 175.22 C43.46 139.15, 76.08 102.03, 133.06 34.85 M17.08 180.47 C50.62 142.25, 85.65 100.14, 132.54 47.64 M17.08 180.47 C61.75 128.92, 105.31 78.47, 132.54 47.64 M26.39 181.95 C52.65 152.88, 76.05 125.76, 132.68 59.68 M26.39 181.95 C48.52 155.92, 72.35 128.24, 132.68 59.68 M36.37 182.67 C71.96 140.82, 108.58 100.25, 132.81 71.72 M36.37 182.67 C58.75 154.34, 83.13 127.19, 132.81 71.72 M47 182.63 C78.36 147.99, 109.6 107.6, 132.94 83.76 M47 182.63 C70.47 156.55, 94.29 128.24, 132.94 83.76 M57.63 182.6 C76.02 162.3, 91.37 142.29, 133.07 95.8 M57.63 182.6 C85.25 150.33, 114.28 116.38, 133.07 95.8 M68.26 182.56 C81.66 164.94, 94.77 151.11, 132.55 108.6 M68.26 182.56 C83.83 164.79, 97.68 148.38, 132.55 108.6 M78.89 182.53 C94.56 164.83, 109.88 148.4, 132.68 120.64 M78.89 182.53 C91.12 167.93, 101.93 154.19, 132.68 120.64 M89.52 182.49 C98.75 172.92, 110.6 158.24, 132.82 132.68 M89.52 182.49 C106.01 163.68, 123.07 142.89, 132.82 132.68 M99.49 183.21 C105 172.78, 112.5 165, 132.95 144.72 M99.49 183.21 C111.81 168.19, 125.31 153.23, 132.95 144.72 M112.75 180.16 C115.75 176.75, 119.91 173.08, 127.18 163.56 M112.75 180.16 C117.08 174.84, 124.01 168.91, 127.18 163.56" stroke="#f783ac" stroke-width="1" fill="none"></path><path d="M32 0 C48.9 -0.58, 60.87 -0.51, 97.33 0 M32 0 C47.14 0.46, 62.81 -0.14, 97.33 0 M97.33 0 C119.31 0.67, 130.15 9.61, 129.33 32 M97.33 0 C118.9 -0.8, 127.3 10.16, 129.33 32 M129.33 32 C128.75 70.45, 129.6 107.26, 129.33 149.33 M129.33 32 C130.31 59.82, 131.15 86.58, 129.33 149.33 M129.33 149.33 C130.7 168.83, 117.2 182.86, 97.33 181.33 M129.33 149.33 C128.04 170.5, 120.62 181.91, 97.33 181.33 M97.33 181.33 C76.19 179.2, 55.49 179.47, 32 181.33 M97.33 181.33 C83.74 181.44, 69.48 182.51, 32 181.33 M32 181.33 C9.72 181.83, -1.64 168.67, 0 149.33 M32 181.33 C8.66 180.98, -0.8 169.65, 0 149.33 M0 149.33 C0.91 112.27, -1.5 74.69, 0 32 M0 149.33 C-0.84 116.86, 0.42 83.38, 0 32 M0 32 C1.34 12.52, 10.25 0.82, 32 0 M0 32 C0.5 11.16, 9.58 1.2, 32 0" stroke="#1e1e1e" stroke-width="2" fill="none"></path></g><g transform="translate(352.9628372192383 403.66668701171875) rotate(0 53.70397186279297 35)"><text x="53.70397186279297" y="0" font-family="Virgil, Segoe UI Emoji" font-size="28px" fill="#1e1e1e" text-anchor="middle" style="white-space: pre;" direction="ltr" dominant-baseline="text-before-edge">Network</text><text x="53.70397186279297" y="35" font-family="Virgil, Segoe UI Emoji" font-size="28px" fill="#1e1e1e" text-anchor="middle" style="white-space: pre;" direction="ltr" dominant-baseline="text-before-edge">Card</text></g><g stroke-linecap="round" transform="translate(661.33349609375 77.99996948242188) rotate(0 190 181)"><path d="M32 0 C96.92 2.15, 162.08 0.39, 348 0 M32 0 C120.01 1.92, 207.54 2.03, 348 0 M348 0 C369.11 -1.44, 380.78 10.34, 380 32 M348 0 C370.86 -0.9, 380.84 12.13, 380 32 M380 32 C381.79 128.33, 379.31 224.96, 380 330 M380 32 C380.75 99.91, 381.19 166.15, 380 330 M380 330 C378.78 351.92, 368.7 363.91, 348 362 M380 330 C380.99 352.51, 369.5 364.25, 348 362 M348 362 C281.88 363.79, 218.43 364.42, 32 362 M348 362 C247.14 362.3, 146 361.58, 32 362 M32 362 C12.13 363.13, 0.17 351.12, 0 330 M32 362 C12.41 360.15, 0.64 349.45, 0 330 M0 330 C-1.2 267.13, 0.18 203.05, 0 32 M0 330 C0.45 238.54, 0.79 148.46, 0 32 M0 32 C-1.52 9.67, 10.81 -1.12, 32 0 M0 32 C1.61 9.31, 10.79 -1.15, 32 0" stroke="#1e1e1e" stroke-width="2" fill="none"></path></g><g stroke-linecap="round" transform="translate(884.3528597939339 133.66659545898438) rotate(0 35.719860388611096 37.82101167315176)"><path d="M4.75 4.13 C4.75 4.13, 4.75 4.13, 4.75 4.13 M4.75 4.13 C4.75 4.13, 4.75 4.13, 4.75 4.13 M0.29 21.46 C5.56 15.12, 11.53 11.05, 18.66 0.32 M0.29 21.46 C5.15 15.16, 10.75 10.14, 18.66 0.32 M0.43 33.5 C12.09 20.91, 19.24 11.01, 29.29 0.29 M0.43 33.5 C7.84 24.89, 14.81 17.71, 29.29 0.29 M-0.1 46.29 C11.68 29.28, 24.49 13.84, 39.27 1.01 M-0.1 46.29 C9.53 36.06, 18.69 24.18, 39.27 1.01 M0.04 58.33 C15.29 42.61, 29.01 26.62, 49.9 0.98 M0.04 58.33 C18.83 35.63, 39.12 14.02, 49.9 0.98 M2.8 67.36 C23.43 43.39, 45.98 19.2, 60.53 0.94 M2.8 67.36 C15.52 53.92, 27.89 39.33, 60.53 0.94 M8.18 73.36 C27.46 53.99, 43.74 30.61, 67.22 5.44 M8.18 73.36 C21.25 58.4, 33.18 44.14, 67.22 5.44 M16.84 75.59 C32.97 56.76, 51.75 34.41, 70.64 13.7 M16.84 75.59 C32.67 58.16, 48.34 41.5, 70.64 13.7 M27.47 75.55 C41.73 58.6, 58.5 38.47, 72.08 24.23 M27.47 75.55 C37.54 63.94, 46.94 52.88, 72.08 24.23 M38.1 75.52 C45.81 66.18, 51.36 60.43, 71.56 37.03 M38.1 75.52 C45.7 66.37, 54.16 55.69, 71.56 37.03 M48.07 76.24 C54.58 66.85, 62.98 57.05, 71.69 49.07 M48.07 76.24 C57.2 67.41, 63.99 57.18, 71.69 49.07 M60.67 73.94 C63.93 68.88, 66.73 66.31, 71.82 61.11 M60.67 73.94 C65.6 69.27, 69.93 64.31, 71.82 61.11" stroke="#f783ac" stroke-width="1" fill="none"></path><path d="M17.86 0 C24.57 2.02, 34.38 0.56, 53.58 0 M17.86 0 C26.45 -0.67, 35.74 0.5, 53.58 0 M53.58 0 C65.33 0.44, 72.16 6.52, 71.44 17.86 M53.58 0 C66.79 -0.02, 73.01 4.06, 71.44 17.86 M71.44 17.86 C72.94 34.58, 72.03 47.92, 71.44 57.78 M71.44 17.86 C71.37 28.05, 71.18 37.11, 71.44 57.78 M71.44 57.78 C70.7 69.17, 63.82 73.89, 53.58 75.64 M71.44 57.78 C70.71 67.73, 65.9 76.78, 53.58 75.64 M53.58 75.64 C43.86 75.44, 33.91 75.31, 17.86 75.64 M53.58 75.64 C44.8 76.38, 36.3 75.14, 17.86 75.64 M17.86 75.64 C6.57 74.36, 1.03 70.07, 0 57.78 M17.86 75.64 C5.81 74.55, -1.95 67.83, 0 57.78 M0 57.78 C-1.09 43.39, 1.63 30.02, 0 17.86 M0 57.78 C0.59 47.03, -0.69 35.88, 0 17.86 M0 17.86 C-0.26 5.16, 5.09 1.44, 17.86 0 M0 17.86 C-1.52 7.08, 5.93 0.53, 17.86 0" stroke="#1e1e1e" stroke-width="2" fill="none"></path></g><g stroke-linecap="round" transform="translate(759.3334045410156 135.76776277415945) rotate(0 25.389110401910557 54.28016098556816)"><path d="M3.38 2.94 C3.38 2.94, 3.38 2.94, 3.38 2.94 M3.38 2.94 C3.38 2.94, 3.38 2.94, 3.38 2.94 M0.89 18 C4.28 11.99, 8.55 7.98, 15.98 0.64 M0.89 18 C4.11 13.51, 7.49 11.87, 15.98 0.64 M1.02 30.04 C5.79 23.84, 11.8 17.42, 26.61 0.6 M1.02 30.04 C8.31 22.72, 15.69 13.43, 26.61 0.6 M1.15 42.08 C8.51 33.92, 18.17 24.32, 37.24 0.57 M1.15 42.08 C13.96 28.23, 26.25 12.94, 37.24 0.57 M1.29 54.12 C18.93 36.44, 31.58 16.12, 46.56 2.04 M1.29 54.12 C14.58 40, 26.51 24.78, 46.56 2.04 M1.42 66.16 C17.07 46.64, 35.74 27.14, 49.97 10.31 M1.42 66.16 C18.24 45.3, 36.09 26.8, 49.97 10.31 M1.55 78.2 C17.69 58.83, 36.34 39.29, 50.1 22.35 M1.55 78.2 C12.25 67.03, 23.74 53.87, 50.1 22.35 M1.69 90.24 C18.1 70.73, 34.13 51.99, 50.24 34.39 M1.69 90.24 C15.71 74.23, 29.1 57.22, 50.24 34.39 M1.82 102.28 C17.97 80.99, 38.01 61.51, 50.37 46.43 M1.82 102.28 C16.71 84.91, 32.47 67.3, 50.37 46.43 M7.86 107.53 C17.9 96.33, 28.16 81.48, 50.5 58.48 M7.86 107.53 C22.39 92.18, 35.13 75.1, 50.5 58.48 M17.83 108.25 C28.01 97.21, 35.15 89.18, 50.63 70.52 M17.83 108.25 C29.95 95.22, 41.36 81.4, 50.63 70.52 M28.46 108.22 C36.06 103.1, 40.25 96.84, 50.77 82.56 M28.46 108.22 C36.9 98.74, 44.68 90.85, 50.77 82.56 M39.09 108.18 C42.65 103.49, 48.16 100.2, 50.9 94.6 M39.09 108.18 C42.3 102.75, 46.75 99.39, 50.9 94.6" stroke="#f783ac" stroke-width="1" fill="none"></path><path d="M12.69 0 C21.36 0, 32.2 0.07, 38.08 0 M12.69 0 C18.41 0.11, 24.64 0.17, 38.08 0 M38.08 0 C47.68 -0.02, 52.15 2.59, 50.78 12.69 M38.08 0 C48.18 2.21, 52.39 5.52, 50.78 12.69 M50.78 12.69 C49.75 45.33, 52.81 78.54, 50.78 95.87 M50.78 12.69 C50.25 41.02, 49.78 68.99, 50.78 95.87 M50.78 95.87 C50.14 102.63, 46.91 109.55, 38.08 108.56 M50.78 95.87 C49.85 104.46, 48.82 108.04, 38.08 108.56 M38.08 108.56 C30.16 107.12, 24.01 108.75, 12.69 108.56 M38.08 108.56 C28.78 107.8, 19.37 108.64, 12.69 108.56 M12.69 108.56 C4.11 107.61, -1.7 102.71, 0 95.87 M12.69 108.56 C5.87 109, -1.47 103.16, 0 95.87 M0 95.87 C-1.44 69.01, -1.5 43.53, 0 12.69 M0 95.87 C0.46 72.5, 0.16 50.65, 0 12.69 M0 12.69 C-1.32 5.21, 4.21 0.46, 12.69 0 M0 12.69 C0.91 2.72, 3.48 0.32, 12.69 0" stroke="#1e1e1e" stroke-width="2" fill="none"></path></g><g stroke-linecap="round" transform="translate(761.7847450345407 279.69772386365366) rotate(0 22.937737847116637 61.984435797665355)"><path d="M3.05 2.65 C3.05 2.65, 3.05 2.65, 3.05 2.65 M3.05 2.65 C3.05 2.65, 3.05 2.65, 3.05 2.65 M0.56 17.71 C5.49 11.21, 10.29 6.32, 15.65 0.36 M0.56 17.71 C4.79 14.51, 7.2 9.07, 15.65 0.36 M0.04 30.51 C6.65 22.68, 13.71 13.91, 26.28 0.32 M0.04 30.51 C10.98 18.02, 19.59 6.08, 26.28 0.32 M0.17 42.55 C8.5 34.22, 17.44 24.69, 36.26 1.04 M0.17 42.55 C8.49 32.35, 18.68 21.45, 36.26 1.04 M0.31 54.59 C16.17 32.87, 34.25 13.83, 44.26 4.03 M0.31 54.59 C17.14 34.47, 34.43 15.38, 44.26 4.03 M0.44 66.63 C18.72 46.88, 38.64 25.97, 46.36 13.8 M0.44 66.63 C15.29 51.08, 29.69 33.93, 46.36 13.8 M0.57 78.67 C10.05 68.7, 19.2 56.13, 46.5 25.84 M0.57 78.67 C12.23 65.81, 22.57 54.39, 46.5 25.84 M0.05 91.47 C8.13 81.45, 18.73 71.19, 45.97 38.64 M0.05 91.47 C17.63 70.13, 36.01 50.13, 45.97 38.64 M0.18 103.51 C13.66 89.33, 25.03 74.19, 46.11 50.68 M0.18 103.51 C16.9 84.58, 33.18 64.67, 46.11 50.68 M0.31 115.55 C16.83 93.81, 36.52 73.56, 46.24 62.72 M0.31 115.55 C9.65 102.79, 20.62 91.11, 46.24 62.72 M5.04 122.31 C13.87 112.54, 25.86 98.16, 46.37 74.76 M5.04 122.31 C16.49 108.74, 27.45 94.99, 46.37 74.76 M14.36 123.78 C25.57 112.35, 37.02 99.5, 46.51 86.8 M14.36 123.78 C26.47 111.24, 37.44 96.57, 46.51 86.8 M24.99 123.75 C31.27 119.12, 34.44 114.05, 45.98 99.6 M24.99 123.75 C33.34 114.72, 41.91 104.94, 45.98 99.6 M35.62 123.71 C40.32 118.56, 43.01 116.75, 46.12 111.64 M35.62 123.71 C38.6 119.53, 42.64 116.49, 46.12 111.64" stroke="#f783ac" stroke-width="1" fill="none"></path><path d="M11.47 0 C18.46 0.11, 24.55 1.61, 34.41 0 M11.47 0 C19.75 0.23, 27.87 -0.06, 34.41 0 M34.41 0 C43.42 -1.65, 47.29 5.75, 45.88 11.47 M34.41 0 C43.66 1.29, 48.08 4.06, 45.88 11.47 M45.88 11.47 C47.26 44.03, 46.19 76.25, 45.88 112.5 M45.88 11.47 C44.67 38.21, 45.18 65.84, 45.88 112.5 M45.88 112.5 C46.23 121.13, 41.24 124.08, 34.41 123.97 M45.88 112.5 C48.15 119.63, 41.42 122.68, 34.41 123.97 M34.41 123.97 C28.07 124.09, 23.8 124.94, 11.47 123.97 M34.41 123.97 C29.09 124.01, 22.69 123.35, 11.47 123.97 M11.47 123.97 C2.13 122.35, 1.42 120.53, 0 112.5 M11.47 123.97 C2.36 122.8, 0.49 122.11, 0 112.5 M0 112.5 C-0.42 73.87, -0.11 31.53, 0 11.47 M0 112.5 C-0.3 91.66, -0.53 69.87, 0 11.47 M0 11.47 C-0.02 4.28, 4.61 -1.32, 11.47 0 M0 11.47 C-0.76 4.14, 2.36 1.54, 11.47 0" stroke="#1e1e1e" stroke-width="2" fill="none"></path></g><g stroke-linecap="round" transform="translate(897.5461239350909 305.88188854172995) rotate(0 23.730200147814344 34.60178479146401)"><path d="M1.93 4.33 C1.93 4.33, 1.93 4.33, 1.93 4.33 M1.93 4.33 C1.93 4.33, 1.93 4.33, 1.93 4.33 M0.75 17.88 C2.8 15.25, 7.48 9.57, 15.84 0.52 M0.75 17.88 C2.91 14.04, 6.43 10.28, 15.84 0.52 M0.23 30.68 C7.9 20.92, 18.48 12.51, 26.47 0.49 M0.23 30.68 C9.3 18.5, 19.24 7.11, 26.47 0.49 M0.36 42.72 C14.48 28.16, 25.26 12.63, 37.1 0.45 M0.36 42.72 C15.37 26.11, 30.13 10.73, 37.1 0.45 M0.5 54.76 C15.26 37.45, 32.47 22.12, 44.45 4.19 M0.5 54.76 C16.62 36.95, 32.69 18, 44.45 4.19 M2.6 64.53 C19.46 47.91, 34.18 28.26, 47.21 13.21 M2.6 64.53 C12.3 53.36, 20.12 41.98, 47.21 13.21 M9.29 69.03 C20.54 54.52, 33.5 39.86, 47.34 25.26 M9.29 69.03 C23.78 53.38, 36.68 35.86, 47.34 25.26 M19.92 68.99 C27.84 61.11, 37.86 51.61, 47.48 37.3 M19.92 68.99 C29.84 58.29, 38.17 46.99, 47.48 37.3 M30.55 68.96 C34.74 62.58, 39.71 58.12, 47.61 49.34 M30.55 68.96 C35.91 61.62, 43.04 55.09, 47.61 49.34 M41.18 68.93 C43.13 66.65, 44.14 65.24, 45.78 63.64 M41.18 68.93 C42.7 67.02, 44.13 65.55, 45.78 63.64" stroke="#f783ac" stroke-width="1" fill="none"></path><path d="M11.87 0 C17.59 1.6, 27.1 -0.17, 35.6 0 M11.87 0 C20.08 -0.08, 27.84 -0.89, 35.6 0 M35.6 0 C44.92 1.92, 48.86 5.08, 47.46 11.87 M35.6 0 C45.71 0.24, 47.98 2.68, 47.46 11.87 M47.46 11.87 C48.78 24.43, 47.37 37.03, 47.46 57.34 M47.46 11.87 C46.76 23.48, 47.26 37.28, 47.46 57.34 M47.46 57.34 C46.65 65.36, 45.48 68.75, 35.6 69.2 M47.46 57.34 C46.82 63.96, 42.71 68.05, 35.6 69.2 M35.6 69.2 C31.65 70.36, 23.64 69.85, 11.87 69.2 M35.6 69.2 C29.94 68.77, 23.55 68.44, 11.87 69.2 M11.87 69.2 C5.38 69.58, -1.27 64.23, 0 57.34 M11.87 69.2 C4.45 71.17, 2.16 64.41, 0 57.34 M0 57.34 C-0.3 42.55, -1.55 30.33, 0 11.87 M0 57.34 C-0.47 45.98, 0.19 33.88, 0 11.87 M0 11.87 C0.79 2.64, 3.3 0.28, 11.87 0 M0 11.87 C-1.46 5.49, 3.12 -1.13, 11.87 0" stroke="#1e1e1e" stroke-width="2" fill="none"></path></g><g stroke-linecap="round"><g transform="translate(349.3333740234375 136.00003051757812) rotate(0 -73 7)"><path d="M-0.91 -0.63 C-25.18 1.4, -122.28 11.09, -146.41 13.37 M0.81 1.65 C-23.58 4.35, -123.06 12.55, -147.58 14.57" stroke="#1e1e1e" stroke-width="2" fill="none"></path></g><g transform="translate(349.3333740234375 136.00003051757812) rotate(0 -73 7)"><path d="M-124.87 4.11 C-131.1 5.68, -136.39 9.31, -147.58 14.57 M-124.87 4.11 C-129.37 7.01, -135.39 8.14, -147.58 14.57" stroke="#1e1e1e" stroke-width="2" fill="none"></path></g><g transform="translate(349.3333740234375 136.00003051757812) rotate(0 -73 7)"><path d="M-123.46 21.15 C-130.18 18.75, -135.79 18.42, -147.58 14.57 M-123.46 21.15 C-128.41 20.35, -134.74 17.79, -147.58 14.57" stroke="#1e1e1e" stroke-width="2" fill="none"></path></g></g><mask></mask><g stroke-linecap="round"><g transform="translate(406.666748046875 230.00003051757812) rotate(0 3.66668701171875 56)"><path d="M-0.46 -0.39 C0.84 18.63, 5.7 94.26, 6.98 112.95 M1.5 -1.64 C2.68 17.16, 5.03 92.23, 5.84 111.33" stroke="#1e1e1e" stroke-width="2" fill="none"></path></g><g transform="translate(406.666748046875 230.00003051757812) rotate(0 3.66668701171875 56)"><path d="M-3.56 88.17 C-2.27 92.94, 2.13 98.68, 5.84 111.33 M-3.56 88.17 C-0.54 94.36, 2.07 101.41, 5.84 111.33" stroke="#1e1e1e" stroke-width="2" fill="none"></path></g><g transform="translate(406.666748046875 230.00003051757812) rotate(0 3.66668701171875 56)"><path d="M13.53 87.54 C10.88 92.4, 11.35 98.28, 5.84 111.33 M13.53 87.54 C11.74 93.93, 9.54 101.15, 5.84 111.33" stroke="#1e1e1e" stroke-width="2" fill="none"></path></g></g><mask></mask><g stroke-linecap="round"><g transform="translate(374.6855943434416 228.99996948242188) rotate(0 -86.75137040495247 70.94916177345806)"><path d="M0.78 0.25 C-28.19 23.8, -144.79 117.19, -173.67 140.97 M-0.28 -0.66 C-29.43 23.04, -145.97 118.39, -174.71 142.02" stroke="#1e1e1e" stroke-width="2" fill="none"></path></g><g transform="translate(374.6855943434416 228.99996948242188) rotate(0 -86.75137040495247 70.94916177345806)"><path d="M-161.96 120.51 C-165.55 126.96, -171.47 135.57, -174.71 142.02 M-161.96 120.51 C-167.67 128.09, -171.48 136.68, -174.71 142.02" stroke="#1e1e1e" stroke-width="2" fill="none"></path></g><g transform="translate(374.6855943434416 228.99996948242188) rotate(0 -86.75137040495247 70.94916177345806)"><path d="M-151.12 133.74 C-158.03 136.17, -167.3 140.67, -174.71 142.02 M-151.12 133.74 C-160.96 136.27, -168.95 139.75, -174.71 142.02" stroke="#1e1e1e" stroke-width="2" fill="none"></path></g></g><mask></mask><g stroke-linecap="round"><g transform="translate(480.666748046875 421.07027220197665) rotate(0 138 -34.42226911187464)"><path d="M0.96 1.16 C46.76 -10.09, 229.58 -56.09, 275.48 -67.83 M0 0.72 C45.54 -10.82, 228.3 -57.93, 274.26 -69.43" stroke="#1e1e1e" stroke-width="2" fill="none"></path></g><g transform="translate(480.666748046875 421.07027220197665) rotate(0 138 -34.42226911187464)"><path d="M253.61 -55.35 C262.94 -61.39, 270.06 -64.95, 274.26 -69.43 M253.61 -55.35 C258.5 -58.78, 263.62 -61.91, 274.26 -69.43" stroke="#1e1e1e" stroke-width="2" fill="none"></path></g><g transform="translate(480.666748046875 421.07027220197665) rotate(0 138 -34.42226911187464)"><path d="M249.39 -71.92 C260.19 -72.09, 268.81 -69.74, 274.26 -69.43 M249.39 -71.92 C255.22 -71.06, 261.43 -69.9, 274.26 -69.43" stroke="#1e1e1e" stroke-width="2" fill="none"></path></g></g><mask></mask><g transform="translate(726.666748046875 27.333343505859375) rotate(0 119.0699462890625 17.5)"><text x="0" y="0" font-family="Virgil, Segoe UI Emoji" font-size="28px" fill="#1e1e1e" text-anchor="start" style="white-space: pre;" direction="ltr" dominant-baseline="text-before-edge">Another computer</text></g><g stroke-linecap="round" transform="translate(10 10) rotate(0 260.3333740234375 298.00001525878906)"><path d="M32 0 C194.78 -0.26, 356.6 -0.7, 488.67 0 M488.67 0 C511.5 -0.63, 522.6 9.19, 520.67 32 M520.67 32 C519.74 227.58, 518.66 422.89, 520.67 564 M520.67 564 C522.48 585.94, 509.27 596.42, 488.67 596 M488.67 596 C387.51 594.58, 286.63 595.04, 32 596 M32 596 C8.67 596.92, 1.84 584.79, 0 564 M0 564 C2.61 407.16, 1.25 250.21, 0 32 M0 32 C1.83 11.31, 12.26 1.2, 32 0" stroke="#1e1e1e" stroke-width="2.5" fill="none" stroke-dasharray="8 10"></path></g></svg>