<svg version="1.1" xmlns="http://www.w3.org/2000/svg" viewBox="0 0 1086.666748046875 346" width="1086.666748046875" height="346" filter="invert(93%) hue-rotate(180deg)">
  <!-- svg-source:excalidraw -->
  
  <defs>
    <style class="style-fonts">
      @font-face {
        font-family: "Virgil";
        src: url("https://excalidraw.com/Virgil.woff2");
      }
      @font-face {
        font-family: "Cascadia";
        src: url("https://excalidraw.com/Cascadia.woff2");
      }
      @font-face {
        font-family: "Assistant";
        src: url("https://excalidraw.com/Assistant-Regular.woff2");
      }
    </style>
    
  </defs>
  <g stroke-linecap="round" transform="translate(10 126.666748046875) rotate(0 366 86.33334350585938)"><path d="M32 0 C205.95 -1.12, 380.35 -1.18, 700 0 M32 0 C234.86 -2.8, 438.66 -2.5, 700 0 M700 0 C722.94 -0.49, 730.11 9.39, 732 32 M700 0 C723.35 -2.19, 733.25 8.46, 732 32 M732 32 C732.2 60.85, 733.77 91.01, 732 140.67 M732 32 C733.15 55.55, 732.83 79.99, 732 140.67 M732 140.67 C730.36 162.08, 719.98 174.6, 700 172.67 M732 140.67 C733.99 160.11, 723.12 174.83, 700 172.67 M700 172.67 C540.67 174.17, 381.34 173.51, 32 172.67 M700 172.67 C494.24 173.41, 288.53 173.46, 32 172.67 M32 172.67 C12.59 172.74, -1.63 162.13, 0 140.67 M32 172.67 C9.81 173.85, 1.43 161.97, 0 140.67 M0 140.67 C1.87 110.53, 0.76 78.68, 0 32 M0 140.67 C0.59 102.1, 0.67 64.67, 0 32 M0 32 C-0.95 12.5, 11.87 0.43, 32 0 M0 32 C-1.74 11.67, 10.33 1.92, 32 0" stroke="#1e1e1e" stroke-width="2" fill="none"></path></g><g stroke-linecap="round" transform="translate(650.0001220703125 176.66668701171875) rotate(0 21.6666259765625 40.66668701171875)"><path d="M2.88 2.51 C2.88 2.51, 2.88 2.51, 2.88 2.51 M2.88 2.51 C2.88 2.51, 2.88 2.51, 2.88 2.51 M0.39 17.57 C1.81 12.81, 4.94 12.31, 15.48 0.21 M0.39 17.57 C3.41 13.19, 7.71 10.4, 15.48 0.21 M0.53 29.61 C8.99 18.44, 14.91 10.16, 25.46 0.93 M0.53 29.61 C11.63 17.39, 20.76 6.6, 25.46 0.93 M0.66 41.65 C13.85 24.69, 29.02 7.93, 36.09 0.89 M0.66 41.65 C12.44 27.83, 25.59 14.62, 36.09 0.89 M0.79 53.69 C9.6 41.89, 18.62 32.64, 42.12 6.14 M0.79 53.69 C16.63 35.36, 33.26 18.04, 42.12 6.14 M0.93 65.73 C9.78 55.44, 20.97 43.01, 43.57 16.67 M0.93 65.73 C13.78 50.32, 25.63 37.15, 43.57 16.67 M2.37 76.26 C13.11 64.12, 25.7 48.51, 43.05 29.47 M2.37 76.26 C9.93 66.34, 18.82 56.46, 43.05 29.47 M9.06 80.76 C21.17 64.28, 34.93 52.37, 43.18 41.51 M9.06 80.76 C21.94 66.18, 34.9 51.13, 43.18 41.51 M19.69 80.72 C29.83 68.45, 37.56 60.1, 43.31 53.55 M19.69 80.72 C24.57 74.63, 30.99 68.34, 43.31 53.55 M30.32 80.69 C36.1 74.58, 38.69 67.98, 43.45 65.59 M30.32 80.69 C33.67 77.01, 36.9 74.01, 43.45 65.59 M6.46 80.97 C6.46 80.97, 6.46 80.97, 6.46 80.97 M6.46 80.97 C6.46 80.97, 6.46 80.97, 6.46 80.97 M18.5 80.84 C13.87 77.7, 7.86 71.49, 1.14 65.75 M18.5 80.84 C13.13 77.43, 8.5 71.67, 1.14 65.75 M30.54 80.71 C22.78 72.18, 15.59 66.79, 1.11 55.12 M30.54 80.71 C21.12 73.49, 12.63 65.68, 1.11 55.12 M39.56 77.95 C29.65 66.23, 14.33 57.43, 0.32 43.84 M39.56 77.95 C27.95 68.02, 14.08 56.35, 0.32 43.84 M44.06 71.26 C27.99 55.69, 12.77 43.02, 0.28 33.21 M44.06 71.26 C33.6 60.92, 21.11 52.63, 0.28 33.21 M44.02 60.63 C34.81 53.41, 23.6 42.49, 0.25 22.58 M44.02 60.63 C27.16 45.67, 8.48 31.22, 0.25 22.58 M43.99 50 C31.14 37.21, 16.05 26.79, 0.22 11.95 M43.99 50 C28.99 36.48, 14.1 24.48, 0.22 11.95 M43.95 39.37 C26.55 27.23, 11.98 12.06, 2.45 3.28 M43.95 39.37 C34.42 31.22, 24.93 23.71, 2.45 3.28 M43.17 28.08 C31.3 18.47, 23.66 10.31, 10.71 -0.13 M43.17 28.08 C34.64 22.41, 27.33 15.44, 10.71 -0.13 M43.13 17.45 C37.63 11.51, 28.41 7.33, 23.51 0.39 M43.13 17.45 C36.06 10.48, 27.83 4.49, 23.51 0.39 M43.1 6.82 C40.6 4.42, 39.09 3.48, 36.3 0.92 M43.1 6.82 C40.7 5.36, 38.51 3.25, 36.3 0.92" stroke="#be4bdb" stroke-width="1" fill="none"></path><path d="M10.83 0 C19.9 -1.33, 27.35 -0.32, 32.5 0 M10.83 0 C17.07 0.16, 21.37 -0.88, 32.5 0 M32.5 0 C41.08 -1.79, 43.01 4.11, 43.33 10.83 M32.5 0 C39.11 0.75, 44.67 1.72, 43.33 10.83 M43.33 10.83 C43.6 27.11, 43.65 42.23, 43.33 70.5 M43.33 10.83 C43.6 31.31, 44.07 51.05, 43.33 70.5 M43.33 70.5 C43.82 77.12, 40.26 79.89, 32.5 81.33 M43.33 70.5 C41.83 77.03, 37.43 81.83, 32.5 81.33 M32.5 81.33 C27.79 82.44, 20.23 80.31, 10.83 81.33 M32.5 81.33 C26.57 81.72, 18.25 80.85, 10.83 81.33 M10.83 81.33 C2.64 81.31, 0.53 76.08, 0 70.5 M10.83 81.33 C4.14 81.75, 2.16 77.64, 0 70.5 M0 70.5 C1.41 56.25, -1.58 42.77, 0 10.83 M0 70.5 C-0.1 58.79, -0.09 46.44, 0 10.83 M0 10.83 C0.51 4.48, 3.16 -1.62, 10.83 0 M0 10.83 C0.22 1.79, 2.31 -1.15, 10.83 0" stroke="#1e1e1e" stroke-width="2" fill="none"></path></g><g stroke-linecap="round" transform="translate(580.6666870117188 186.66665649414062) rotate(0 20.99993896484375 33.33335876464844)"><path d="M2.79 2.43 C2.79 2.43, 2.79 2.43, 2.79 2.43 M2.79 2.43 C2.79 2.43, 2.79 2.43, 2.79 2.43 M0.96 16.73 C6.01 11.12, 12.63 6.25, 14.74 0.89 M0.96 16.73 C4.21 12.94, 7.47 9.96, 14.74 0.89 M1.09 28.78 C8.22 19.66, 17.25 8.53, 25.37 0.85 M1.09 28.78 C8.6 21.58, 14.7 13.36, 25.37 0.85 M1.23 40.82 C12.88 24.61, 28.21 12.38, 36 0.82 M1.23 40.82 C11.74 26.73, 24.15 13.59, 36 0.82 M0.7 53.61 C16.21 36.88, 26.62 23.67, 42.03 6.07 M0.7 53.61 C11.74 40.97, 21.4 29.74, 42.03 6.07 M2.8 63.39 C17.1 49.3, 32.39 30.98, 42.17 18.11 M2.8 63.39 C15.57 47.02, 29.4 32.94, 42.17 18.11 M10.81 66.37 C21.49 54.11, 35.62 41.88, 42.3 30.15 M10.81 66.37 C19.77 56.2, 29.85 43.95, 42.3 30.15 M21.44 66.34 C27.62 61.19, 32.4 53.76, 42.43 42.19 M21.44 66.34 C29.25 57.14, 35.72 49.93, 42.43 42.19 M32.07 66.3 C34.86 63.27, 36.55 59.42, 42.57 54.23 M32.07 66.3 C35.75 62.64, 39.6 58.2, 42.57 54.23 M6.08 66.17 C6.08 66.17, 6.08 66.17, 6.08 66.17 M6.08 66.17 C6.08 66.17, 6.08 66.17, 6.08 66.17 M18.13 66.03 C14.83 60.66, 7.7 57.33, 5.29 54.88 M18.13 66.03 C15.48 64.14, 11.02 61.01, 5.29 54.88 M30.17 65.9 C22.32 55.81, 11.06 50.05, 5.26 44.25 M30.17 65.9 C22.31 59.41, 13.41 52.37, 5.26 44.25 M39.19 63.14 C31.58 55.56, 23 51.39, 5.23 33.62 M39.19 63.14 C31.36 54.76, 21.85 48.34, 5.23 33.62 M42.93 55.79 C33.75 48.96, 29.2 44.1, 5.19 22.99 M42.93 55.79 C34.6 48.88, 26.81 41.8, 5.19 22.99 M42.14 44.51 C34.99 35.28, 26.78 30.46, 5.91 13.01 M42.14 44.51 C32.22 36.62, 25.29 28.53, 5.91 13.01 M42.1 33.88 C30.94 22.76, 15.97 10.52, 4.37 1.07 M42.1 33.88 C32.98 26.38, 21.57 16.64, 4.37 1.07 M42.07 23.25 C35.25 17.68, 30.9 10.71, 12.64 -2.34 M42.07 23.25 C31.47 14.02, 20.17 4.98, 12.64 -2.34 M42.03 12.62 C39.09 6.71, 32.92 2.41, 25.43 -1.82 M42.03 12.62 C37.55 8.89, 31.35 3.84, 25.43 -1.82" stroke="#be4bdb" stroke-width="1" fill="none"></path><path d="M10.5 0 C17.73 1.76, 21.64 0.81, 31.5 0 M10.5 0 C17.68 -0.9, 25.84 0.68, 31.5 0 M31.5 0 C38.12 0.47, 42.54 4.61, 42 10.5 M31.5 0 C40.3 1.41, 41.12 4.31, 42 10.5 M42 10.5 C42.51 27.05, 43.2 40.79, 42 56.17 M42 10.5 C43.14 26.72, 42.54 43.01, 42 56.17 M42 56.17 C40.45 64.42, 36.64 66.23, 31.5 66.67 M42 56.17 C42.49 64.02, 39.2 68.22, 31.5 66.67 M31.5 66.67 C24.39 65.15, 18.2 64.73, 10.5 66.67 M31.5 66.67 C27.71 67.07, 21.67 66.67, 10.5 66.67 M10.5 66.67 C3.05 66.45, 1.16 63.65, 0 56.17 M10.5 66.67 C4.59 64.56, -1.91 61.7, 0 56.17 M0 56.17 C-1.56 44.39, 0.34 30.61, 0 10.5 M0 56.17 C-0.16 46.94, 1.06 38.53, 0 10.5 M0 10.5 C0.06 4.78, 1.78 1.49, 10.5 0 M0 10.5 C-1.75 1.68, 5.29 -0.12, 10.5 0" stroke="#1e1e1e" stroke-width="2" fill="none"></path></g><g stroke-linecap="round" transform="translate(523.3331909179688 189.66665649414062) rotate(0 19.66668701171875 33.66667175292969)"><path d="M0.46 5.7 C0.46 5.7, 0.46 5.7, 0.46 5.7 M0.46 5.7 C0.46 5.7, 0.46 5.7, 0.46 5.7 M0.6 17.74 C4.04 13.7, 9.18 9.31, 15.69 0.39 M0.6 17.74 C6.38 11.3, 11.13 4.9, 15.69 0.39 M0.73 29.79 C8.04 22.69, 13.21 16.42, 25.66 1.11 M0.73 29.79 C8.7 20.77, 18.6 10.16, 25.66 1.11 M0.86 41.83 C11.61 28.02, 24.2 14.35, 35.64 1.83 M0.86 41.83 C8.41 31.63, 17.57 22.62, 35.64 1.83 M0.34 54.62 C8.19 43.11, 18.85 34.43, 39.05 10.09 M0.34 54.62 C9.67 45.61, 16.96 35.4, 39.05 10.09 M3.1 63.64 C13.58 49.69, 28.32 37.94, 39.18 22.14 M3.1 63.64 C13.26 53.81, 23.21 41.97, 39.18 22.14 M11.1 66.63 C23.28 54.86, 31.46 41.27, 39.31 34.18 M11.1 66.63 C21.91 54.77, 31.62 43.29, 39.31 34.18 M21.73 66.59 C24.46 60.66, 31.15 56.17, 39.45 46.22 M21.73 66.59 C27.58 59.13, 33.04 53.8, 39.45 46.22 M32.36 66.56 C34.68 64.99, 35.96 63.39, 39.58 58.26 M32.36 66.56 C34.55 64.53, 36.57 62.28, 39.58 58.26 M5.57 66.75 C5.57 66.75, 5.57 66.75, 5.57 66.75 M5.57 66.75 C5.57 66.75, 5.57 66.75, 5.57 66.75 M17.61 66.62 C13.73 59.84, 7.02 58.49, 1.01 52.19 M17.61 66.62 C13.05 63.49, 10.56 60.45, 1.01 52.19 M29.65 66.49 C24.32 60.36, 18.13 53.58, 0.97 41.56 M29.65 66.49 C20.22 58.26, 12.53 50.66, 0.97 41.56 M37.92 63.07 C28.25 57.15, 22.87 47.22, 0.94 30.93 M37.92 63.07 C26.77 53.52, 16.13 41.91, 0.94 30.93 M40.15 54.41 C28.69 43.98, 16.36 31.73, 0.91 20.3 M40.15 54.41 C30.71 47.96, 23.48 39.22, 0.91 20.3 M40.12 43.78 C25.17 33.35, 10.53 20.49, 0.87 9.67 M40.12 43.78 C31.99 36.92, 23.16 28.93, 0.87 9.67 M39.33 32.5 C27.99 19.54, 12.16 8.24, 3.86 1.66 M39.33 32.5 C29.99 25.12, 19.82 16.61, 3.86 1.66 M39.29 21.87 C31.25 15.59, 24.06 7.1, 13.63 -0.44 M39.29 21.87 C31.57 16.18, 24.41 9.9, 13.63 -0.44 M39.26 11.24 C37.62 8.23, 33.89 6.34, 26.43 0.08 M39.26 11.24 C35.56 8.18, 33.3 5.86, 26.43 0.08" stroke="#be4bdb" stroke-width="1" fill="none"></path><path d="M9.83 0 C15.13 0.67, 25.28 -0.31, 29.5 0 M9.83 0 C16.96 0.49, 22.18 0.24, 29.5 0 M29.5 0 C36.9 -1.01, 40.11 4.02, 39.33 9.83 M29.5 0 C37.13 1.65, 38.24 4.43, 39.33 9.83 M39.33 9.83 C40.13 27.4, 40.75 42.29, 39.33 57.5 M39.33 9.83 C39.1 27.49, 39.2 45.09, 39.33 57.5 M39.33 57.5 C40.17 63.49, 34.57 67.4, 29.5 67.33 M39.33 57.5 C37.77 65.27, 34.01 65.63, 29.5 67.33 M29.5 67.33 C25.65 66.85, 20.34 67.07, 9.83 67.33 M29.5 67.33 C24.28 66.48, 17.3 66.76, 9.83 67.33 M9.83 67.33 C3.01 66.72, -1.11 62.35, 0 57.5 M9.83 67.33 C4.79 67.56, 0.72 61.79, 0 57.5 M0 57.5 C0.3 47.39, 1.88 34.07, 0 9.83 M0 57.5 C-0.35 39.36, 1.19 22.76, 0 9.83 M0 9.83 C-0.46 2.23, 3.22 -0.56, 9.83 0 M0 9.83 C-2.15 5.19, 5.27 0, 9.83 0" stroke="#1e1e1e" stroke-width="2" fill="none"></path></g><g transform="translate(458.666748046875 10) rotate(0 176.54986572265625 12.5)"><text x="0" y="0" font-family="Virgil, Segoe UI Emoji" font-size="20px" fill="#1e1e1e" text-anchor="start" style="white-space: pre;" direction="ltr" dominant-baseline="text-before-edge">All tasks need to wait for this one</text></g><g stroke-linecap="round" transform="translate(790.666748046875 68.66665649414062) rotate(0 143 133.6666717529297)"><path d="M7.86 8.16 C7.86 8.16, 7.86 8.16, 7.86 8.16 M7.86 8.16 C7.86 8.16, 7.86 8.16, 7.86 8.16 M2.75 26.24 C10.74 19.75, 16.89 12.6, 21.12 5.11 M2.75 26.24 C7.88 20.22, 14.74 11.86, 21.12 5.11 M2.88 38.28 C11.83 28.31, 19.36 18.09, 34.37 2.05 M2.88 38.28 C15.27 25.35, 26.08 11.7, 34.37 2.05 M2.36 51.07 C16.63 35.36, 30.34 17.1, 45 2.02 M2.36 51.07 C11.95 38.31, 23.55 25.37, 45 2.02 M2.49 63.11 C15.66 48.32, 29.03 30.91, 55.63 1.98 M2.49 63.11 C22.38 39.63, 43.97 14.45, 55.63 1.98 M2.62 75.16 C21.34 53.3, 37.1 33.91, 66.26 1.95 M2.62 75.16 C19.36 55.42, 36.37 35.4, 66.26 1.95 M2.76 87.2 C26.78 61.61, 49.85 33.04, 76.89 1.91 M2.76 87.2 C19.86 69.92, 34.7 53.02, 76.89 1.91 M2.23 99.99 C24.47 74.88, 48.61 49.18, 87.52 1.88 M2.23 99.99 C26.08 71, 50.57 43.34, 87.52 1.88 M2.37 112.03 C26.21 83.49, 53.59 52.13, 98.15 1.85 M2.37 112.03 C30.2 80.1, 58.1 48.3, 98.15 1.85 M2.5 124.07 C27.32 96.65, 49.83 70.01, 108.78 1.81 M2.5 124.07 C26.63 97.88, 49.33 72.18, 108.78 1.81 M2.63 136.11 C42.93 87.41, 80.87 45.02, 119.41 1.78 M2.63 136.11 C26.51 106.79, 49.93 78.43, 119.41 1.78 M2.11 148.91 C46.69 95.08, 91.61 44.75, 130.04 1.74 M2.11 148.91 C43.6 99.44, 87.43 49.53, 130.04 1.74 M2.24 160.95 C38.98 118.61, 75.46 76.86, 140.67 1.71 M2.24 160.95 C34.62 122.9, 67.72 83.9, 140.67 1.71 M2.38 172.99 C46.73 121.58, 93.17 69.27, 150.65 2.43 M2.38 172.99 C54.67 113.27, 105.35 54.62, 150.65 2.43 M2.51 185.03 C57.2 122.26, 114.39 58.04, 161.28 2.39 M2.51 185.03 C57.69 122.48, 111.59 60.76, 161.28 2.39 M1.99 197.83 C35.92 159.73, 70.61 120.1, 171.91 2.36 M1.99 197.83 C57.44 135.48, 113.22 71.21, 171.91 2.36 M2.12 209.87 C50.5 156.96, 96.75 102.78, 182.54 2.32 M2.12 209.87 C63.48 137.4, 127.33 65.54, 182.54 2.32 M2.25 221.91 C43.82 173.36, 82.66 128.73, 193.17 2.29 M2.25 221.91 C67.26 148.25, 132.21 74.9, 193.17 2.29 M0.42 236.22 C48.82 179.74, 96.63 126.15, 203.8 2.26 M0.42 236.22 C42.98 187.2, 86.06 136.91, 203.8 2.26 M1.86 246.75 C77.97 156.51, 153.04 68.97, 214.43 2.22 M1.86 246.75 C52.78 187.41, 103.88 127.74, 214.43 2.22 M6.59 253.5 C60.62 191.12, 115.91 127.53, 225.06 2.19 M6.59 253.5 C82.47 165.03, 161.14 75.26, 225.06 2.19 M10.66 261.02 C88.38 172.4, 165.68 81.2, 235.69 2.15 M10.66 261.02 C75.13 185.78, 140.17 111.14, 235.69 2.15 M17.35 265.51 C77.23 196.92, 136.15 130.68, 246.32 2.12 M17.35 265.51 C86.62 186.95, 154.76 107.64, 246.32 2.12 M24.05 270 C98.77 182.92, 173.42 97.16, 256.95 2.08 M24.05 270 C96.95 183.04, 171.29 98.44, 256.95 2.08 M34.68 269.97 C119.61 173.85, 205.14 75.01, 266.26 3.56 M34.68 269.97 C94.79 200.06, 153.76 132.09, 266.26 3.56 M45.31 269.94 C114.06 191.48, 179.1 115.37, 273.61 7.3 M45.31 269.94 C125.5 177.04, 207.57 82.19, 273.61 7.3 M55.94 269.9 C107.15 208.88, 161.4 148.87, 280.96 11.04 M55.94 269.9 C129.3 185.59, 202.41 101.19, 280.96 11.04 M66.57 269.87 C140.88 186.01, 214.4 102.26, 285.03 18.55 M66.57 269.87 C116.78 211.9, 168.55 152.02, 285.03 18.55 M77.2 269.83 C137.56 197.96, 200.62 126.13, 286.48 29.08 M77.2 269.83 C139.69 199.12, 201.63 127.13, 286.48 29.08 M87.83 269.8 C163.6 182.41, 238.7 94.19, 290.55 36.59 M87.83 269.8 C162.34 185.36, 235.56 101.91, 290.55 36.59 M98.46 269.76 C161.48 195.7, 225.2 123.06, 290.68 48.63 M98.46 269.76 C146.1 213.11, 195.07 156.33, 290.68 48.63 M109.09 269.73 C145.4 228.03, 180.69 185.3, 290.81 60.67 M109.09 269.73 C167.71 200.55, 227.13 131.44, 290.81 60.67 M119.72 269.69 C167.04 216.54, 214.97 162.15, 290.95 72.71 M119.72 269.69 C183.78 195, 246.85 122.43, 290.95 72.71 M130.35 269.66 C172.42 221.39, 214.24 171.69, 291.08 84.76 M130.35 269.66 C185.99 206.93, 240.4 143.57, 291.08 84.76 M140.98 269.63 C177.49 228.93, 214.49 185.16, 290.56 97.55 M140.98 269.63 C187.81 214.91, 235.33 160.67, 290.56 97.55 M151.61 269.59 C186.79 226.16, 224.43 183.96, 290.69 109.59 M151.61 269.59 C204.27 207.94, 257.54 147.03, 290.69 109.59 M162.24 269.56 C200.79 225.16, 236.26 183.26, 290.82 121.63 M162.24 269.56 C192.43 235.54, 221.77 201.12, 290.82 121.63 M172.87 269.52 C218.06 217.1, 260.97 167.42, 290.96 133.67 M172.87 269.52 C199.72 239.16, 225.33 207.63, 290.96 133.67 M183.5 269.49 C211.06 238.9, 237.13 209.44, 291.09 145.71 M183.5 269.49 C223.65 223.96, 262.8 177.24, 291.09 145.71 M194.13 269.45 C217.83 245.74, 237.98 218.41, 290.57 158.51 M194.13 269.45 C215.84 244.45, 238.88 219.4, 290.57 158.51 M204.76 269.42 C225.93 241.12, 249.76 213.64, 290.7 170.55 M204.76 269.42 C228.03 242.94, 251.27 216.98, 290.7 170.55 M214.73 270.14 C238.26 243.34, 258.1 219.21, 290.83 182.59 M214.73 270.14 C242.29 237.87, 269.55 205.99, 290.83 182.59 M225.36 270.1 C245.32 243.26, 268.8 219.38, 290.97 194.63 M225.36 270.1 C247.1 242.81, 270.08 217.96, 290.97 194.63 M235.99 270.07 C253.52 247.8, 273.4 227.6, 291.1 206.67 M235.99 270.07 C254.78 247.33, 275.05 225.92, 291.1 206.67 M246.62 270.03 C261.19 256.25, 272.8 237.51, 290.58 219.47 M246.62 270.03 C260.22 253.56, 274.26 237.51, 290.58 219.47 M257.25 270 C269.23 258.05, 278.69 246.7, 286.77 236.04 M257.25 270 C268.02 258.25, 278.72 245.47, 286.77 236.04 M270.51 266.95 C276.29 264.1, 280.26 257.13, 284.94 250.34 M270.51 266.95 C272.77 264.27, 276.1 260.23, 284.94 250.34" stroke="#1971c2" stroke-width="1" fill="none"></path><path d="M32 0 C119.89 0.64, 209.12 0.55, 254 0 M32 0 C112.89 0.93, 195.09 1.84, 254 0 M254 0 C276.06 1.61, 284.82 11.33, 286 32 M254 0 C273.36 0.36, 284.41 12.42, 286 32 M286 32 C289.25 83, 288.21 134.35, 286 235.33 M286 32 C284.17 93.23, 284.08 153.57, 286 235.33 M286 235.33 C286.96 258.02, 274.88 267.24, 254 267.33 M286 235.33 C284.63 257.01, 273.77 268, 254 267.33 M254 267.33 C201.54 265.05, 151.32 266.28, 32 267.33 M254 267.33 C171.69 265.65, 87.73 266.29, 32 267.33 M32 267.33 C10.46 266.6, 0.46 255.82, 0 235.33 M32 267.33 C10.76 268.47, 0.36 257.26, 0 235.33 M0 235.33 C-2.26 189.2, -2.65 140.12, 0 32 M0 235.33 C0.73 175.16, -0.14 116.34, 0 32 M0 32 C0.36 10.45, 11.53 0.62, 32 0 M0 32 C0.8 12.11, 11.36 -0.31, 32 0" stroke="#1e1e1e" stroke-width="2" fill="none"></path></g><g transform="translate(862.9068145751953 189.8333282470703) rotate(0 70.75993347167969 12.5)"><text x="70.75993347167969" y="0" font-family="Virgil, Segoe UI Emoji" font-size="20px" fill="#1e1e1e" text-anchor="middle" style="white-space: pre;" direction="ltr" dominant-baseline="text-before-edge">Service Center</text></g><g stroke-linecap="round"><g transform="translate(630.666748046875 48.66668701171875) rotate(0 72.66668701171875 54.666656494140625)"><path d="M-0.85 -0.76 C23.22 17.46, 120.89 91.84, 145.1 110.28 M0.91 1.46 C24.74 19.27, 119.71 90.92, 144.04 108.66" stroke="#1e1e1e" stroke-width="2" fill="none"></path></g><g transform="translate(630.666748046875 48.66668701171875) rotate(0 72.66668701171875 54.666656494140625)"><path d="M120.08 101.5 C127.4 103.83, 138.76 105.25, 144.04 108.66 M120.08 101.5 C128.75 104.22, 136.46 105.7, 144.04 108.66" stroke="#1e1e1e" stroke-width="2" fill="none"></path></g><g transform="translate(630.666748046875 48.66668701171875) rotate(0 72.66668701171875 54.666656494140625)"><path d="M130.28 87.78 C134.09 94.92, 141.82 101.21, 144.04 108.66 M130.28 87.78 C135.48 95.18, 139.64 101.42, 144.04 108.66" stroke="#1e1e1e" stroke-width="2" fill="none"></path></g></g><mask></mask><g stroke-linecap="round" transform="translate(774.3329467773438 138.99993896484375) rotate(0 31.33331298828125 59.66668701171875)"><path d="M4.17 3.63 C4.17 3.63, 4.17 3.63, 4.17 3.63 M4.17 3.63 C4.17 3.63, 4.17 3.63, 4.17 3.63 M0.37 20.19 C4.07 13.27, 9.24 8.01, 17.42 0.57 M0.37 20.19 C5.22 15.67, 8.78 9.35, 17.42 0.57 M0.5 32.24 C8.85 21.31, 19.16 13.56, 28.05 0.54 M0.5 32.24 C10.96 21.38, 19.61 9.12, 28.05 0.54 M0.63 44.28 C8.86 36.07, 16.46 24.17, 38.68 0.5 M0.63 44.28 C9.45 33.95, 16.98 25.64, 38.68 0.5 M0.77 56.32 C10.99 42.44, 22.82 31.92, 49.31 0.47 M0.77 56.32 C12.92 42.33, 24.17 30.07, 49.31 0.47 M0.9 68.36 C23.47 43.47, 46.66 16.11, 57.32 3.45 M0.9 68.36 C15.95 51.05, 28.63 34.6, 57.32 3.45 M1.03 80.4 C20.4 58.58, 39.36 33.42, 62.05 10.21 M1.03 80.4 C22.78 55.74, 45.73 29.86, 62.05 10.21 M1.17 92.44 C23.91 66.18, 44.93 42.89, 62.18 22.25 M1.17 92.44 C14.7 77.02, 29.19 61.27, 62.18 22.25 M1.3 104.48 C22.79 80.22, 40.61 58.39, 62.31 34.29 M1.3 104.48 C22.9 79.81, 43.28 56.54, 62.31 34.29 M3.4 114.26 C24.23 90.64, 44.34 67.41, 61.79 47.09 M3.4 114.26 C21.7 94.63, 38.35 74.31, 61.79 47.09 M10.09 118.75 C29.66 95.17, 51.11 73.8, 61.92 59.13 M10.09 118.75 C28.8 98.49, 46.44 75.56, 61.92 59.13 M20.07 119.47 C37.66 101.59, 51.3 83.02, 62.06 71.17 M20.07 119.47 C34.57 102.76, 47.75 87.56, 62.06 71.17 M31.35 118.68 C42.21 107.47, 48.5 98.23, 62.19 83.21 M31.35 118.68 C44.46 103.59, 56 89.66, 62.19 83.21 M41.98 118.65 C48.38 111.58, 51.29 107.09, 62.32 95.25 M41.98 118.65 C47.95 111.37, 52.58 105.4, 62.32 95.25 M52.61 118.61 C56.86 113.65, 60.53 111.44, 62.46 107.29 M52.61 118.61 C54.05 116.58, 56.12 113.63, 62.46 107.29 M5.77 116.83 C5.77 116.83, 5.77 116.83, 5.77 116.83 M5.77 116.83 C5.77 116.83, 5.77 116.83, 5.77 116.83 M15.55 114.73 C13.24 112.22, 9.68 109.78, 4.98 105.54 M15.55 114.73 C11.97 111.65, 8.04 109.44, 4.98 105.54 M27.59 114.59 C22.84 108.55, 18.24 106.98, 4.95 94.91 M27.59 114.59 C19.17 106.76, 11.63 99.63, 4.95 94.91 M39.63 114.46 C31.38 105.76, 20.67 97.41, 4.91 84.28 M39.63 114.46 C26.17 103.24, 13.77 91.68, 4.91 84.28 M54.69 116.95 C42.12 103.89, 25.02 90.57, 4.88 73.65 M54.69 116.95 C41.66 106.07, 29 95.99, 4.88 73.65 M61.45 112.22 C46.78 100.38, 35.18 89.94, 4.84 63.02 M61.45 112.22 C39.46 93.05, 18.29 75.63, 4.84 63.02 M65.19 104.87 C49.25 91.01, 33.96 77.81, 4.81 52.39 M65.19 104.87 C42.48 85.82, 20.61 66.81, 4.81 52.39 M64.4 93.59 C47.87 76.03, 27.64 62.2, 4.77 41.76 M64.4 93.59 C41.73 74.96, 19.46 55.34, 4.77 41.76 M64.36 82.96 C50.25 70.77, 36.45 57.74, 4.74 31.13 M64.36 82.96 C41.08 63.95, 15.96 41.9, 4.74 31.13 M64.33 72.33 C49.57 59.3, 33.54 44.3, 4.71 20.5 M64.33 72.33 C46.19 58.05, 29.65 43.42, 4.71 20.5 M64.29 61.7 C48.71 45.8, 30.96 31.26, 3.16 8.56 M64.29 61.7 C51.98 50.9, 39.21 40.08, 3.16 8.56 M64.26 51.07 C44.4 35.29, 23.12 17.28, 6.9 1.21 M64.26 51.07 C51.57 40.22, 37.56 27.51, 6.9 1.21 M64.22 40.44 C49.25 29.04, 36.19 18.04, 16.68 -0.89 M64.22 40.44 C53.12 30.07, 41.37 19.91, 16.68 -0.89 M64.19 29.81 C51.26 20.64, 38.82 10.85, 28.72 -1.03 M64.19 29.81 C53.12 20.01, 43.64 13.21, 28.72 -1.03 M64.15 19.18 C54.64 10.73, 47.19 7.27, 40.76 -1.16 M64.15 19.18 C57.97 13.9, 52.86 10.6, 40.76 -1.16" stroke="#f783ac" stroke-width="1" fill="none"></path><path d="M15.67 0 C29 1.04, 40.1 -0.81, 47 0 M15.67 0 C22.08 0.02, 29.15 0.34, 47 0 M47 0 C59.01 1.23, 61.9 5.92, 62.67 15.67 M47 0 C58.41 -1.16, 63.56 6.07, 62.67 15.67 M62.67 15.67 C64.3 47.29, 64.74 78.43, 62.67 103.67 M62.67 15.67 C62.14 44.7, 61.98 72.27, 62.67 103.67 M62.67 103.67 C63.1 114.85, 58.05 120.69, 47 119.33 M62.67 103.67 C63.63 113.46, 55.74 119.41, 47 119.33 M47 119.33 C38.24 117.66, 32.97 120.96, 15.67 119.33 M47 119.33 C36.28 119.21, 26.6 119.56, 15.67 119.33 M15.67 119.33 C6.17 117.5, -1.66 112.84, 0 103.67 M15.67 119.33 C4.91 118.63, -1.28 112.15, 0 103.67 M0 103.67 C-2.06 70.43, -1.54 38.52, 0 15.67 M0 103.67 C-0.69 78.12, -1.58 52.04, 0 15.67 M0 15.67 C-1.52 3.64, 6.78 -0.11, 15.67 0 M0 15.67 C-0.53 4.01, 5.15 -0.65, 15.67 0" stroke="#1e1e1e" stroke-width="2" fill="none"></path></g><g stroke-linecap="round" transform="translate(394.3334655761719 173.99993896484375) rotate(0 21.6666259765625 40.66668701171875)"><path d="M2.88 2.51 C2.88 2.51, 2.88 2.51, 2.88 2.51 M2.88 2.51 C2.88 2.51, 2.88 2.51, 2.88 2.51 M3.67 13.79 C8.06 9.09, 12.26 6.39, 13.51 2.47 M3.67 13.79 C6.37 10.85, 7.72 8.45, 13.51 2.47 M3.81 25.83 C11.23 20.17, 14.37 11.01, 24.14 2.44 M3.81 25.83 C9.14 19.81, 13.81 16, 24.14 2.44 M3.94 37.87 C12.35 31.04, 18.06 22.66, 34.12 3.16 M3.94 37.87 C9.98 30.12, 17.82 21.51, 34.12 3.16 M4.07 49.92 C17.51 36.16, 28.97 21.64, 42.78 5.39 M4.07 49.92 C12.17 39.79, 21.74 30.24, 42.78 5.39 M4.21 61.96 C21.16 43.45, 32.81 28.59, 48.16 11.39 M4.21 61.96 C17.52 45.97, 30.91 32.03, 48.16 11.39 M2.37 76.26 C19.2 59.91, 30.99 42.12, 48.29 23.43 M2.37 76.26 C15.63 61.19, 29.74 45.66, 48.29 23.43 M7.75 82.26 C17.61 68.65, 32.97 53.33, 48.43 35.47 M7.75 82.26 C19.23 70.17, 29.16 56.35, 48.43 35.47 M18.38 82.23 C28.87 69.77, 37.92 60.05, 48.56 47.51 M18.38 82.23 C27.04 73.09, 33.97 65.75, 48.56 47.51 M29.01 82.2 C35.04 78.34, 37.42 71.74, 48.69 59.55 M29.01 82.2 C35.5 73.91, 43.11 65.67, 48.69 59.55 M6.46 80.97 C6.46 80.97, 6.46 80.97, 6.46 80.97 M6.46 80.97 C6.46 80.97, 6.46 80.97, 6.46 80.97 M18.5 80.84 C14.48 78.53, 8.77 74.33, 1.14 65.75 M18.5 80.84 C14.45 77.18, 10.7 75.2, 1.14 65.75 M30.54 80.71 C23.31 74.64, 14.6 64.31, 1.11 55.12 M30.54 80.71 C21.79 73.53, 14.17 66.33, 1.11 55.12 M39.56 77.95 C31 70.05, 22.37 65.19, 0.32 43.84 M39.56 77.95 C30.74 70.66, 23.81 62.84, 0.32 43.84 M44.06 71.26 C27.54 54.67, 8.68 42.82, 0.28 33.21 M44.06 71.26 C32.35 60.22, 21.16 52.15, 0.28 33.21 M44.02 60.63 C32.19 48.86, 19.14 38.94, 0.25 22.58 M44.02 60.63 C27.65 47.74, 12.81 33.8, 0.25 22.58 M43.99 50 C30.6 38.38, 17.85 29.03, 0.22 11.95 M43.99 50 C33.92 40.73, 25.1 32.25, 0.22 11.95 M43.95 39.37 C34.2 30.11, 23.97 22.63, 2.45 3.28 M43.95 39.37 C30.04 27.26, 16.34 13.62, 2.45 3.28 M43.17 28.08 C33.2 18.8, 24.5 10.05, 10.71 -0.13 M43.17 28.08 C31.52 19.5, 22.22 8.51, 10.71 -0.13 M43.13 17.45 C37.48 13.32, 31.64 6.96, 23.51 0.39 M43.13 17.45 C35.93 12.1, 29.84 5.2, 23.51 0.39 M43.1 6.82 C40.97 5.76, 39.58 3.39, 36.3 0.92 M43.1 6.82 C40.72 4.83, 39.03 3.65, 36.3 0.92" stroke="#be4bdb" stroke-width="1" fill="none"></path><path d="M10.83 0 C17.87 -1.6, 24.23 -0.28, 32.5 0 M10.83 0 C17.71 0.68, 23.62 0.9, 32.5 0 M32.5 0 C38.92 -1.94, 42.49 3.81, 43.33 10.83 M32.5 0 C37.7 -1.52, 43.69 5.21, 43.33 10.83 M43.33 10.83 C43.89 25.49, 42.78 34.7, 43.33 70.5 M43.33 10.83 C42.72 24.66, 44.43 37.68, 43.33 70.5 M43.33 70.5 C41.75 78.89, 39.6 82.61, 32.5 81.33 M43.33 70.5 C45.53 78.44, 41.13 80.95, 32.5 81.33 M32.5 81.33 C27.93 80.32, 21.44 82.34, 10.83 81.33 M32.5 81.33 C23.9 82.1, 15.37 80.48, 10.83 81.33 M10.83 81.33 C1.66 82.79, 1.33 77.65, 0 70.5 M10.83 81.33 C2.53 83.5, -2.05 78.85, 0 70.5 M0 70.5 C1.04 55.78, -0.92 39.89, 0 10.83 M0 70.5 C0.16 55.3, 1.1 38.83, 0 10.83 M0 10.83 C1.48 4.49, 3.14 -0.63, 10.83 0 M0 10.83 C1.73 5.73, 5.91 -0.28, 10.83 0" stroke="#1e1e1e" stroke-width="2" fill="none"></path></g><g stroke-linecap="round" transform="translate(464.3332824707031 190.66659545898438) rotate(0 20.99993896484375 33.33335876464844)"><path d="M2.79 2.43 C2.79 2.43, 2.79 2.43, 2.79 2.43 M2.79 2.43 C2.79 2.43, 2.79 2.43, 2.79 2.43 M0.96 16.73 C5.6 14.57, 6.34 11.05, 14.74 0.89 M0.96 16.73 C4.4 11.98, 9.61 6.02, 14.74 0.89 M1.09 28.78 C8.54 17.15, 16.46 7.11, 25.37 0.85 M1.09 28.78 C8.12 22.07, 13.9 13.77, 25.37 0.85 M1.23 40.82 C11.99 29.13, 22.85 15.99, 36 0.82 M1.23 40.82 C14.44 25.98, 28.21 9.44, 36 0.82 M0.7 53.61 C14.08 38.01, 25.43 22.44, 42.03 6.07 M0.7 53.61 C11.41 42.12, 22.29 28.71, 42.03 6.07 M2.8 63.39 C15.47 47.83, 30.48 30.01, 42.17 18.11 M2.8 63.39 C14.45 50.84, 27.22 36.08, 42.17 18.11 M10.81 66.37 C19.78 54.48, 32.18 39.65, 42.3 30.15 M10.81 66.37 C19.11 57.28, 28.12 47.45, 42.3 30.15 M21.44 66.34 C28.05 59.23, 30.56 54.7, 42.43 42.19 M21.44 66.34 C27.82 57.46, 36.2 48.9, 42.43 42.19 M32.07 66.3 C34.86 63.26, 38.48 56.67, 42.57 54.23 M32.07 66.3 C35.39 63.32, 37.98 58.69, 42.57 54.23 M6.08 66.17 C6.08 66.17, 6.08 66.17, 6.08 66.17 M6.08 66.17 C6.08 66.17, 6.08 66.17, 6.08 66.17 M18.13 66.03 C12.57 64.13, 11.56 59.74, 0.77 50.94 M18.13 66.03 C14.4 62.91, 9.17 58.79, 0.77 50.94 M30.17 65.9 C20.64 59.82, 9.43 48.42, 0.73 40.31 M30.17 65.9 C18.87 56.94, 8.22 46.06, 0.73 40.31 M39.19 63.14 C28.21 51.63, 13.9 40.88, 0.7 29.68 M39.19 63.14 C25.19 50.61, 8.79 37.01, 0.7 29.68 M42.93 55.79 C30.67 47.35, 18.68 34.95, 0.66 19.05 M42.93 55.79 C33.85 46.68, 24.68 38.79, 0.66 19.05 M42.14 44.51 C27.72 33.97, 14.84 20.57, 0.63 8.42 M42.14 44.51 C33.27 37.56, 25.35 28.97, 0.63 8.42 M42.1 33.88 C31.09 24.34, 21.74 14.66, 5.12 1.73 M42.1 33.88 C31.09 24.66, 19.88 15.58, 5.12 1.73 M42.07 23.25 C30.32 13.86, 20.63 5.27, 15.65 0.28 M42.07 23.25 C37.54 18.33, 30.97 13.5, 15.65 0.28 M42.03 12.62 C38.03 9.88, 34.45 4.21, 27.69 0.15 M42.03 12.62 C39.63 9.45, 35.48 7.36, 27.69 0.15" stroke="#be4bdb" stroke-width="1" fill="none"></path><path d="M10.5 0 C15.71 -0.16, 22.02 0.62, 31.5 0 M10.5 0 C17.11 0.82, 24.06 -1.13, 31.5 0 M31.5 0 C37.65 0.2, 40.24 2.18, 42 10.5 M31.5 0 C38.85 1.6, 40.06 2.85, 42 10.5 M42 10.5 C41.78 19.39, 40.72 32.89, 42 56.17 M42 10.5 C42.43 27.69, 40.81 46.18, 42 56.17 M42 56.17 C41.88 64.44, 40.41 67.29, 31.5 66.67 M42 56.17 C43.41 62.79, 38.24 66.61, 31.5 66.67 M31.5 66.67 C25.46 67.44, 18.25 68.41, 10.5 66.67 M31.5 66.67 C24.17 65.89, 16.61 67.54, 10.5 66.67 M10.5 66.67 C4.83 66.59, -0.94 65.05, 0 56.17 M10.5 66.67 C1.45 67.8, -1.02 65.27, 0 56.17 M0 56.17 C-0.74 42.77, -1.21 29.02, 0 10.5 M0 56.17 C0.94 39.68, 0.74 25.54, 0 10.5 M0 10.5 C-0.47 2.87, 5.01 1.84, 10.5 0 M0 10.5 C2.3 3.22, 4.74 1.61, 10.5 0" stroke="#1e1e1e" stroke-width="2" fill="none"></path></g><g stroke-linecap="round" transform="translate(333.6665344238281 193.66659545898438) rotate(0 19.66668701171875 33.66667175292969)"><path d="M0.46 5.7 C0.46 5.7, 0.46 5.7, 0.46 5.7 M0.46 5.7 C0.46 5.7, 0.46 5.7, 0.46 5.7 M0.6 17.74 C2.85 15.45, 7.69 10.84, 13.06 3.41 M0.6 17.74 C4.05 13.21, 8.28 10.37, 13.06 3.41 M0.73 29.79 C7.4 18.83, 16.31 12.51, 23.69 3.37 M0.73 29.79 C5.38 23.81, 11.55 17.94, 23.69 3.37 M0.86 41.83 C13.28 27.96, 29.51 8.65, 35.64 1.83 M0.86 41.83 C14.73 25.37, 28.37 10.88, 35.64 1.83 M0.34 54.62 C11.5 39.36, 24.68 23.71, 41.02 7.83 M0.34 54.62 C12.27 40.17, 24.09 28.82, 41.02 7.83 M3.1 63.64 C11.81 52.45, 20.17 43.28, 41.15 19.87 M3.1 63.64 C13.06 52.39, 22.67 42.4, 41.15 19.87 M8.48 69.65 C20.58 54.35, 31.82 40.51, 41.28 31.91 M8.48 69.65 C20.47 56.6, 31.63 41.25, 41.28 31.91 M19.11 69.61 C24.86 61.54, 32.89 55.33, 41.42 43.95 M19.11 69.61 C28.05 59.43, 36.5 50.49, 41.42 43.95 M29.74 69.58 C31.67 65.21, 35.15 64.72, 39.58 58.26 M29.74 69.58 C31.83 66.36, 34 64.18, 39.58 58.26 M5.57 66.75 C5.57 66.75, 5.57 66.75, 5.57 66.75 M5.57 66.75 C5.57 66.75, 5.57 66.75, 5.57 66.75 M17.61 66.62 C15.18 64, 10.26 59.74, 5.54 56.12 M17.61 66.62 C14.89 65.06, 12.74 62.76, 5.54 56.12 M29.65 66.49 C18.48 57.18, 12.13 49.44, 5.5 45.49 M29.65 66.49 C23.74 60.94, 17.94 56.99, 5.5 45.49 M37.17 62.42 C24.73 50.85, 14.53 40.76, 5.47 34.86 M37.17 62.42 C26.39 53.68, 17.33 45.43, 5.47 34.86 M40.91 55.07 C29.85 46.05, 20.93 37.28, 5.43 24.23 M40.91 55.07 C30.84 45.28, 19.22 36.21, 5.43 24.23 M40.87 44.44 C32.66 37.44, 24.11 30.31, 5.4 13.6 M40.87 44.44 C33.45 37.71, 26.04 31.92, 5.4 13.6 M40.84 33.81 C32.6 25.21, 22.13 15.7, 3.86 1.66 M40.84 33.81 C27.21 23.03, 14.84 10.01, 3.86 1.66 M40.8 23.18 C32.97 17.07, 25.94 11.1, 11.37 -2.41 M40.8 23.18 C32.1 15.75, 24.61 9.39, 11.37 -2.41 M40.77 12.55 C37.01 7.48, 29.98 5.07, 24.16 -1.89 M40.77 12.55 C34.55 7.52, 29.2 1.84, 24.16 -1.89" stroke="#be4bdb" stroke-width="1" fill="none"></path><path d="M9.83 0 C14.18 0.47, 19.02 0.62, 29.5 0 M9.83 0 C16.81 -1.15, 24.15 -0.09, 29.5 0 M29.5 0 C34.3 -1.32, 39.64 4.67, 39.33 9.83 M29.5 0 C34.11 -0.65, 37.84 4.11, 39.33 9.83 M39.33 9.83 C37.8 29.33, 40.93 45.24, 39.33 57.5 M39.33 9.83 C38.94 25.81, 39.67 41.25, 39.33 57.5 M39.33 57.5 C41.24 64.68, 37.28 67, 29.5 67.33 M39.33 57.5 C39.07 64, 37.36 69.28, 29.5 67.33 M29.5 67.33 C26.42 69.25, 20.55 66.99, 9.83 67.33 M29.5 67.33 C21.27 67.87, 15.6 67.12, 9.83 67.33 M9.83 67.33 C2.34 69.22, -1.78 65.04, 0 57.5 M9.83 67.33 C2.26 69.43, -0.2 65.87, 0 57.5 M0 57.5 C-0.76 41.39, 0.89 26.34, 0 9.83 M0 57.5 C0.29 42.9, -0.68 27.11, 0 9.83 M0 9.83 C1.51 5.12, 5.28 -0.25, 9.83 0 M0 9.83 C1.24 4.88, 4.06 1.74, 9.83 0" stroke="#1e1e1e" stroke-width="2" fill="none"></path></g><g stroke-linecap="round" transform="translate(275.6667785644531 174.6666259765625) rotate(0 21.6666259765625 40.66668701171875)"><path d="M2.88 2.51 C2.88 2.51, 2.88 2.51, 2.88 2.51 M2.88 2.51 C2.88 2.51, 2.88 2.51, 2.88 2.51 M0.39 17.57 C6.21 13.2, 10.2 7.15, 15.48 0.21 M0.39 17.57 C6.87 10.51, 12.3 3.24, 15.48 0.21 M0.53 29.61 C9.07 17.98, 17.98 10.05, 25.46 0.93 M0.53 29.61 C9.16 19.95, 17.79 8.42, 25.46 0.93 M0.66 41.65 C13.53 27.87, 25.48 12.8, 36.09 0.89 M0.66 41.65 C11.57 28.92, 23.24 15.21, 36.09 0.89 M0.79 53.69 C15.75 38.46, 29.81 18.79, 42.12 6.14 M0.79 53.69 C9.74 43.59, 20.3 32.19, 42.12 6.14 M0.93 65.73 C15.19 46.96, 29.06 30.39, 43.57 16.67 M0.93 65.73 C13.77 49.99, 27.53 34.33, 43.57 16.67 M2.37 76.26 C13.67 66.23, 23.37 51.45, 43.05 29.47 M2.37 76.26 C11.2 66.13, 18.97 55.25, 43.05 29.47 M9.06 80.76 C20.77 69.1, 30.62 56.3, 43.18 41.51 M9.06 80.76 C20.24 68.69, 29.61 57.52, 43.18 41.51 M19.69 80.72 C28.35 72.26, 39.32 59.3, 43.31 53.55 M19.69 80.72 C25.03 75.87, 29.44 69.35, 43.31 53.55 M30.32 80.69 C35.26 76.74, 39.17 73.93, 43.45 65.59 M30.32 80.69 C34.97 75.25, 39.7 69.55, 43.45 65.59 M6.46 80.97 C6.46 80.97, 6.46 80.97, 6.46 80.97 M6.46 80.97 C6.46 80.97, 6.46 80.97, 6.46 80.97 M18.5 80.84 C11.31 77.14, 7.67 70.22, 1.14 65.75 M18.5 80.84 C10.91 74.66, 4.95 69.13, 1.14 65.75 M30.54 80.71 C24.05 73.61, 17.06 70.47, 1.11 55.12 M30.54 80.71 C23.91 75.02, 15.02 68.18, 1.11 55.12 M39.56 77.95 C27.1 64.7, 10.1 54.19, 0.32 43.84 M39.56 77.95 C31.16 70.46, 22.17 64.18, 0.32 43.84 M44.06 71.26 C26.55 56.41, 9.99 42.58, 0.28 33.21 M44.06 71.26 C30.17 58.29, 16.25 47.35, 0.28 33.21 M44.02 60.63 C29.64 45.33, 12.68 35.13, 0.25 22.58 M44.02 60.63 C28.56 47.46, 15.14 36.39, 0.25 22.58 M43.99 50 C30.2 36.17, 12.49 22.7, 0.22 11.95 M43.99 50 C30.58 39.88, 18.18 28.12, 0.22 11.95 M43.95 39.37 C30.15 30.02, 16.82 18.82, 2.45 3.28 M43.95 39.37 C30.39 26.84, 15.69 14.58, 2.45 3.28 M43.17 28.08 C34.95 24.19, 28.32 16.45, 10.71 -0.13 M43.17 28.08 C35.42 21.53, 26.99 14.04, 10.71 -0.13 M43.13 17.45 C36.19 12.16, 28.98 5.77, 23.51 0.39 M43.13 17.45 C37.33 11.15, 29.37 6.34, 23.51 0.39 M43.1 6.82 C41.57 4.1, 38.36 2.21, 36.3 0.92 M43.1 6.82 C40.68 4.3, 37.7 2.32, 36.3 0.92" stroke="#be4bdb" stroke-width="1" fill="none"></path><path d="M10.83 0 C16.54 1.45, 23.67 -0.51, 32.5 0 M10.83 0 C14.57 0.95, 19.47 -0.31, 32.5 0 M32.5 0 C39.51 0.39, 42.41 3.37, 43.33 10.83 M32.5 0 C39.66 1.27, 42.84 3.63, 43.33 10.83 M43.33 10.83 C44.15 22.88, 45.33 37.56, 43.33 70.5 M43.33 10.83 C42.64 24.75, 42.7 39.19, 43.33 70.5 M43.33 70.5 C42.73 77.14, 41.15 80.89, 32.5 81.33 M43.33 70.5 C42.08 76.72, 39.6 81.66, 32.5 81.33 M32.5 81.33 C27.33 80.36, 18.88 82.01, 10.83 81.33 M32.5 81.33 C24.55 81.62, 17.32 81.28, 10.83 81.33 M10.83 81.33 C2.69 82.65, -1.03 78.52, 0 70.5 M10.83 81.33 C2.06 81.94, -1.85 79.84, 0 70.5 M0 70.5 C1.25 48.6, 0.98 24.87, 0 10.83 M0 70.5 C0.33 48.5, -0.8 28.49, 0 10.83 M0 10.83 C-0.84 1.7, 2.29 -1.24, 10.83 0 M0 10.83 C-0.11 2.16, 4.44 -0.96, 10.83 0" stroke="#1e1e1e" stroke-width="2" fill="none"></path></g><g stroke-linecap="round" transform="translate(206.33334350585938 184.66659545898438) rotate(0 20.99993896484375 33.33335876464844)"><path d="M2.79 2.43 C2.79 2.43, 2.79 2.43, 2.79 2.43 M2.79 2.43 C2.79 2.43, 2.79 2.43, 2.79 2.43 M0.96 16.73 C4.75 12.88, 9.13 7.69, 14.74 0.89 M0.96 16.73 C5.79 10.44, 11.63 5.92, 14.74 0.89 M1.09 28.78 C6.56 23.35, 14.29 14.49, 25.37 0.85 M1.09 28.78 C7.53 19.89, 15.34 13.12, 25.37 0.85 M1.23 40.82 C16.21 23.48, 28.29 9.1, 36 0.82 M1.23 40.82 C13.3 26.55, 25.59 14.22, 36 0.82 M0.7 53.61 C10.32 40.69, 18.67 29.56, 42.03 6.07 M0.7 53.61 C12.17 41.04, 22.57 29, 42.03 6.07 M2.8 63.39 C16.85 44.95, 32.43 29.03, 42.17 18.11 M2.8 63.39 C12.7 51.36, 22.7 40.52, 42.17 18.11 M10.81 66.37 C22.3 52.15, 30.33 42.95, 42.3 30.15 M10.81 66.37 C21.98 52.08, 34.75 38.25, 42.3 30.15 M21.44 66.34 C26.32 60.45, 30.67 55.01, 42.43 42.19 M21.44 66.34 C26.04 60.98, 31.88 54.5, 42.43 42.19 M32.07 66.3 C35.64 62.74, 34.87 62.02, 42.57 54.23 M32.07 66.3 C35.23 62.5, 38.3 58.68, 42.57 54.23 M6.08 66.17 C6.08 66.17, 6.08 66.17, 6.08 66.17 M6.08 66.17 C6.08 66.17, 6.08 66.17, 6.08 66.17 M18.13 66.03 C12.67 63.52, 10.38 57.43, 0.77 50.94 M18.13 66.03 C12.81 62.01, 7.23 56.34, 0.77 50.94 M30.17 65.9 C20.58 56.26, 13.2 50.5, 0.73 40.31 M30.17 65.9 C18.8 55.56, 6.32 45.27, 0.73 40.31 M39.19 63.14 C23.95 50.89, 7.67 36.29, 0.7 29.68 M39.19 63.14 C25.52 52.59, 14.37 42.15, 0.7 29.68 M42.93 55.79 C31.03 47.42, 20.57 39.74, 0.66 19.05 M42.93 55.79 C25.9 41.58, 10.17 26.3, 0.66 19.05 M42.14 44.51 C31.99 36.86, 23.34 25.78, 0.63 8.42 M42.14 44.51 C28.38 32.58, 15 19.74, 0.63 8.42 M42.1 33.88 C30.41 25.37, 20.51 14.56, 5.12 1.73 M42.1 33.88 C32.1 25.64, 22.32 14.81, 5.12 1.73 M42.07 23.25 C35.68 18.56, 29.18 10.51, 15.65 0.28 M42.07 23.25 C32.74 15.86, 23.67 6.6, 15.65 0.28 M42.03 12.62 C36.68 11.23, 35.18 5.62, 27.69 0.15 M42.03 12.62 C39.22 10.46, 34.78 6.49, 27.69 0.15" stroke="#be4bdb" stroke-width="1" fill="none"></path><path d="M10.5 0 C14.05 -0.84, 17.44 -1.44, 31.5 0 M10.5 0 C14.76 -0.66, 19.23 0.04, 31.5 0 M31.5 0 C37.57 -0.24, 41.95 4.61, 42 10.5 M31.5 0 C38 0.02, 39.94 4.95, 42 10.5 M42 10.5 C43.72 24.97, 41.02 34.72, 42 56.17 M42 10.5 C41.73 19.01, 41.59 29.2, 42 56.17 M42 56.17 C43.43 62.72, 37.41 65.8, 31.5 66.67 M42 56.17 C41.88 63.5, 38.08 66.95, 31.5 66.67 M31.5 66.67 C22.72 67.12, 18.16 68.49, 10.5 66.67 M31.5 66.67 C26.96 66.79, 20.26 67.41, 10.5 66.67 M10.5 66.67 C2.47 67.46, -1.35 63.69, 0 56.17 M10.5 66.67 C1.65 68.79, 2.12 62.06, 0 56.17 M0 56.17 C0.47 42.77, 0.88 27.28, 0 10.5 M0 56.17 C-0.91 41.64, -0.6 25.41, 0 10.5 M0 10.5 C-1.32 2.26, 3.4 -1.26, 10.5 0 M0 10.5 C0.83 2.54, 1.8 0.02, 10.5 0" stroke="#1e1e1e" stroke-width="2" fill="none"></path></g><g stroke-linecap="round" transform="translate(148.99984741210938 187.66659545898438) rotate(0 19.66668701171875 33.66667175292969)"><path d="M0.46 5.7 C0.46 5.7, 0.46 5.7, 0.46 5.7 M0.46 5.7 C0.46 5.7, 0.46 5.7, 0.46 5.7 M0.6 17.74 C7.5 10.25, 11.98 6.85, 15.69 0.39 M0.6 17.74 C5.66 13.54, 8.84 7.58, 15.69 0.39 M0.73 29.79 C7.86 22.2, 12.37 15.32, 25.66 1.11 M0.73 29.79 C9.98 20.28, 19.4 10.44, 25.66 1.11 M0.86 41.83 C11.08 29.71, 21.83 17.74, 35.64 1.83 M0.86 41.83 C12.77 29.63, 22.96 16.14, 35.64 1.83 M0.34 54.62 C13.2 37.18, 28.14 20.55, 39.05 10.09 M0.34 54.62 C13.83 39.27, 27.54 23.89, 39.05 10.09 M3.1 63.64 C10.87 54.53, 17 45.44, 39.18 22.14 M3.1 63.64 C11.84 53.46, 21.86 43.67, 39.18 22.14 M11.1 66.63 C20.04 55.95, 34.09 42.8, 39.31 34.18 M11.1 66.63 C20.84 55.47, 29.39 45.57, 39.31 34.18 M21.73 66.59 C27.21 59.75, 31.35 55.57, 39.45 46.22 M21.73 66.59 C27.03 60.79, 29.83 55.98, 39.45 46.22 M32.36 66.56 C33.99 63.96, 37.76 60.97, 39.58 58.26 M32.36 66.56 C35.04 63.28, 38.1 60.52, 39.58 58.26 M5.57 66.75 C5.57 66.75, 5.57 66.75, 5.57 66.75 M5.57 66.75 C5.57 66.75, 5.57 66.75, 5.57 66.75 M17.61 66.62 C13.02 60.81, 5.86 55.09, 1.01 52.19 M17.61 66.62 C11.65 61.31, 5.87 55.35, 1.01 52.19 M29.65 66.49 C21.71 58.77, 11.99 47.77, 0.97 41.56 M29.65 66.49 C21.59 59.87, 15.89 53.82, 0.97 41.56 M37.92 63.07 C28.54 55.96, 21.74 50.17, 0.94 30.93 M37.92 63.07 C25.4 52.15, 10.92 40.76, 0.94 30.93 M40.15 54.41 C28.72 47.71, 22.35 37.91, 0.91 20.3 M40.15 54.41 C31.29 45.96, 20.04 37.27, 0.91 20.3 M40.12 43.78 C28.85 31.79, 17.26 23.12, 0.87 9.67 M40.12 43.78 C32.19 36.32, 23.19 29.78, 0.87 9.67 M39.33 32.5 C32.63 26.51, 24.25 17.97, 3.86 1.66 M39.33 32.5 C31.16 24.35, 21.1 18.48, 3.86 1.66 M39.29 21.87 C31.09 13.08, 24.1 6.32, 13.63 -0.44 M39.29 21.87 C29.31 12.52, 18.8 3.81, 13.63 -0.44 M39.26 11.24 C35.03 6.61, 27.74 3.75, 26.43 0.08 M39.26 11.24 C34.17 6.98, 31.22 3.19, 26.43 0.08" stroke="#be4bdb" stroke-width="1" fill="none"></path><path d="M9.83 0 C15.07 -1.22, 22.35 -1.25, 29.5 0 M9.83 0 C17.11 0.29, 24.14 -0.02, 29.5 0 M29.5 0 C36 1.11, 38.9 3.29, 39.33 9.83 M29.5 0 C34 1.45, 38.92 3.79, 39.33 9.83 M39.33 9.83 C38.64 21.35, 37.88 35.49, 39.33 57.5 M39.33 9.83 C38.95 20.25, 39.97 31.03, 39.33 57.5 M39.33 57.5 C38.25 63.19, 35.95 67.62, 29.5 67.33 M39.33 57.5 C38.91 64.34, 37.22 68.41, 29.5 67.33 M29.5 67.33 C26.04 69.3, 18.98 67.51, 9.83 67.33 M29.5 67.33 C22.4 67.99, 15.69 67.73, 9.83 67.33 M9.83 67.33 C1.93 67.86, -1.61 65.9, 0 57.5 M9.83 67.33 C5.4 66.23, 0.44 65.17, 0 57.5 M0 57.5 C0.94 39.89, 0.36 22.59, 0 9.83 M0 57.5 C-0.07 46.12, -0.31 36.04, 0 9.83 M0 9.83 C-0.1 2.01, 4 -0.84, 9.83 0 M0 9.83 C-1.7 3.29, 1.62 1.98, 9.83 0" stroke="#1e1e1e" stroke-width="2" fill="none"></path></g><g stroke-linecap="round"><g transform="translate(52 112.66668701171875) rotate(0 303 0)"><path d="M0.92 1.2 C101.97 1.01, 504.8 -0.09, 605.56 -0.23" stroke="#1e1e1e" stroke-width="2.5" fill="none" stroke-dasharray="8 10"></path></g><g transform="translate(52 112.66668701171875) rotate(0 303 0)"><path d="M582.09 8.38 C589.71 5.38, 593.03 3.21, 605.56 -0.23" stroke="#1e1e1e" stroke-width="2.5" fill="none"></path></g><g transform="translate(52 112.66668701171875) rotate(0 303 0)"><path d="M582.05 -8.73 C589.81 -7.57, 593.14 -5.6, 605.56 -0.23" stroke="#1e1e1e" stroke-width="2.5" fill="none"></path></g></g><mask></mask></svg>