<svg version="1.1" xmlns="http://www.w3.org/2000/svg" viewBox="0 0 1419.043380889309 548.7805317312715" width="1419.043380889309" height="548.7805317312715" filter="invert(93%) hue-rotate(180deg)">
  <!-- svg-source:excalidraw -->
  
  <defs>
    <style class="style-fonts">
      @font-face {
        font-family: "Virgil";
        src: url("https://excalidraw.com/Virgil.woff2");
      }
      @font-face {
        font-family: "Cascadia";
        src: url("https://excalidraw.com/Cascadia.woff2");
      }
      @font-face {
        font-family: "Assistant";
        src: url("https://excalidraw.com/Assistant-Regular.woff2");
      }
    </style>
    
  </defs>
  <g stroke-linecap="round"><g transform="translate(592.706814153875 55.62840458915127) rotate(0 0.666656494140625 238)"><path d="M1.02 0.28 C1.03 79.45, 0.42 395.44, 0.51 474.87 M0.1 -0.62 C0.45 78.67, 2.66 396.55, 2.79 475.81" stroke="#1e1e1e" stroke-width="2" fill="none"></path></g></g><mask></mask><g stroke-linecap="round"><g transform="translate(932.411089744201 56.03116011301546) rotate(0 0.66668701171875 240.66668701171878)"><path d="M-0.29 0.5 C-0.21 80.82, 1.28 401.21, 1.36 481.25 M1.76 -0.28 C1.6 80.3, 0.31 402.4, 0.43 482.75" stroke="#1e1e1e" stroke-width="2" fill="none"></path></g></g><mask></mask><g transform="translate(624.3875610918938 10) rotate(0 126.74193572998047 17.5)"><text x="0" y="0" font-family="Virgil, Segoe UI Emoji" font-size="28px" fill="#1e1e1e" text-anchor="start" style="white-space: pre;" direction="ltr" dominant-baseline="text-before-edge">Interaction buffer</text></g><g stroke-linecap="round" transform="translate(92.42284162003534 274.9561495362874) rotate(0 202.12999644664035 60.33331298828125)"><path d="M30.17 0 C155.42 1.63, 281.39 -0.24, 374.09 0 M30.17 0 C166.91 -1.16, 302.98 -2.1, 374.09 0 M374.09 0 C393.34 -1.89, 403.94 8.08, 404.26 30.17 M374.09 0 C396.4 -0.2, 405.1 8.05, 404.26 30.17 M404.26 30.17 C402.7 50.89, 402.02 76.32, 404.26 90.5 M404.26 30.17 C404.8 52.06, 404.95 76.18, 404.26 90.5 M404.26 90.5 C403.56 110.63, 393.5 121.9, 374.09 120.67 M404.26 90.5 C405.37 109.39, 393.33 119.19, 374.09 120.67 M374.09 120.67 C287.39 122.37, 199.49 123.07, 30.17 120.67 M374.09 120.67 C304.59 123.07, 235.04 122.29, 30.17 120.67 M30.17 120.67 C10.32 120.17, 1.05 109.28, 0 90.5 M30.17 120.67 C9.21 120.03, 2.03 112.16, 0 90.5 M0 90.5 C-0.35 75.16, 0.03 56.88, 0 30.17 M0 90.5 C-0.5 75.78, -0.05 59.58, 0 30.17 M0 30.17 C0.83 10.2, 9.64 0.17, 30.17 0 M0 30.17 C0.65 11.39, 10.67 1.82, 30.17 0" stroke="#1e1e1e" stroke-width="2" fill="none"></path></g><g transform="translate(258.0161475015973 229.62280603042802) rotate(0 29.34996795654297 12.5)"><text x="0" y="0" font-family="Virgil, Segoe UI Emoji" font-size="20px" fill="#1e1e1e" text-anchor="start" style="white-space: pre;" direction="ltr" dominant-baseline="text-before-edge">Queue</text></g><g stroke-linecap="round" transform="translate(260.0161475015973 294.2894014894124) rotate(0 22.33331298828125 42.333343505859375)"><path d="M11.17 0 C17.19 1.8, 24.34 -0.16, 33.5 0 M11.17 0 C19 -0.58, 26.48 0.22, 33.5 0 M33.5 0 C42.25 -1.02, 44.58 1.98, 44.67 11.17 M33.5 0 C42.96 -0.63, 43.21 4.01, 44.67 11.17 M44.67 11.17 C43.66 33.82, 44.38 53.56, 44.67 73.5 M44.67 11.17 C44.37 23.91, 44.36 37.59, 44.67 73.5 M44.67 73.5 C44.54 81.98, 39.41 86.24, 33.5 84.67 M44.67 73.5 C46.24 81.14, 42.89 83.76, 33.5 84.67 M33.5 84.67 C24.6 84.52, 20.85 86.22, 11.17 84.67 M33.5 84.67 C26.25 84.57, 19.1 84.4, 11.17 84.67 M11.17 84.67 C4.61 86.08, 0.08 79.72, 0 73.5 M11.17 84.67 C3.12 83.35, -0.77 82.93, 0 73.5 M0 73.5 C-1.81 55.46, 0.42 41.66, 0 11.17 M0 73.5 C-0.81 54.88, -0.03 36.12, 0 11.17 M0 11.17 C1.63 4.3, 5.29 -0.05, 11.17 0 M0 11.17 C-0.31 4.66, 3.08 0.05, 11.17 0" stroke="#1e1e1e" stroke-width="2" fill="none"></path></g><g stroke-linecap="round" transform="translate(369.01608646644104 294.2894320069905) rotate(0 22.33331298828125 42.333343505859375)"><path d="M2.97 2.58 C2.97 2.58, 2.97 2.58, 2.97 2.58 M2.97 2.58 C2.97 2.58, 2.97 2.58, 2.97 2.58 M3.76 13.87 C5.71 9.81, 10.14 8.64, 13.6 2.55 M3.76 13.87 C7.58 9.62, 11 6.69, 13.6 2.55 M3.89 25.91 C7.58 20.89, 14.74 16.08, 24.23 2.51 M3.89 25.91 C9.81 21.21, 15.13 13.7, 24.23 2.51 M4.03 37.95 C16.66 23.64, 28.45 9.58, 34.86 2.48 M4.03 37.95 C11.1 30.66, 17.49 21.58, 34.86 2.48 M4.16 49.99 C16.63 33.76, 28.5 19.76, 43.52 4.71 M4.16 49.99 C14.08 37.54, 25.54 26.45, 43.52 4.71 M4.29 62.03 C17.63 46.88, 29.65 34.82, 48.91 10.71 M4.29 62.03 C21.75 43.59, 36.61 23.97, 48.91 10.71 M4.43 74.07 C18.65 57.53, 32.18 42.96, 49.04 22.75 M4.43 74.07 C13.87 63.42, 23.08 52.68, 49.04 22.75 M6.53 83.85 C18.65 71.24, 29.58 56.07, 49.17 34.79 M6.53 83.85 C21.89 68.23, 34.81 51.33, 49.17 34.79 M17.16 83.82 C27.55 68.35, 39.08 56.01, 49.31 46.84 M17.16 83.82 C25.32 75.6, 32.54 66.72, 49.31 46.84 M27.79 83.78 C33.66 79.12, 37.48 71.89, 49.44 58.88 M27.79 83.78 C34.21 76.4, 41.86 66.25, 49.44 58.88 M38.42 83.75 C40.3 81.36, 43.64 76.45, 46.29 74.69 M38.42 83.75 C39.85 81.76, 42.17 80.11, 46.29 74.69" stroke="#4dabf7" stroke-width="1" fill="none"></path><path d="M11.17 0 C21.37 1.9, 27.95 1.67, 33.5 0 M11.17 0 C16.9 -0.7, 24.24 1.04, 33.5 0 M33.5 0 C41.4 0.68, 45.63 3.37, 44.67 11.17 M33.5 0 C39.97 -1.19, 45.33 5.43, 44.67 11.17 M44.67 11.17 C43.83 28.13, 45.73 47.4, 44.67 73.5 M44.67 11.17 C44.91 29.25, 43.74 48.85, 44.67 73.5 M44.67 73.5 C45.3 80.15, 41.71 85.77, 33.5 84.67 M44.67 73.5 C43.36 83.04, 42.68 85.64, 33.5 84.67 M33.5 84.67 C28.62 82.49, 22.36 82.74, 11.17 84.67 M33.5 84.67 C25.99 83.68, 19.02 84.81, 11.17 84.67 M11.17 84.67 C5.12 85, -1.39 81.1, 0 73.5 M11.17 84.67 C2.2 84.56, -2.01 80.53, 0 73.5 M0 73.5 C-0.81 55.34, 0.08 42.84, 0 11.17 M0 73.5 C-0.54 56.41, -0.33 38.36, 0 11.17 M0 11.17 C-1.31 2.97, 5.13 -0.54, 11.17 0 M0 11.17 C-2.16 4.45, 2.17 1.55, 11.17 0" stroke="#1e1e1e" stroke-width="2" fill="none"></path></g><g stroke-linecap="round" transform="translate(313.68271244300354 294.6227449952718) rotate(0 22.33331298828125 42.333343505859375)"><path d="M2.97 2.58 C2.97 2.58, 2.97 2.58, 2.97 2.58 M2.97 2.58 C2.97 2.58, 2.97 2.58, 2.97 2.58 M0.48 17.64 C4.38 11.8, 8.43 10.93, 15.57 0.29 M0.48 17.64 C3.33 13.07, 7.97 8.6, 15.57 0.29 M0.61 29.68 C7.57 19.25, 15.26 12.26, 25.54 1.01 M0.61 29.68 C11.25 17.69, 19.24 7.04, 25.54 1.01 M0.75 41.73 C9.36 31.73, 18.74 19.29, 36.17 0.97 M0.75 41.73 C14.51 26.8, 28.11 11.25, 36.17 0.97 M0.88 53.77 C8.61 43.23, 17.61 33.42, 42.87 5.46 M0.88 53.77 C9.72 43.15, 19.19 32.75, 42.87 5.46 M1.01 65.81 C11.13 54.05, 18.08 46.07, 44.31 16 M1.01 65.81 C15.52 49.7, 28.84 34.02, 44.31 16 M1.15 77.85 C8.09 68.34, 17.24 57.17, 44.45 28.04 M1.15 77.85 C15.46 60.95, 30.25 45.01, 44.45 28.04 M6.53 83.85 C21.7 65.55, 36.36 52.46, 44.58 40.08 M6.53 83.85 C22.44 65.9, 36.38 48.43, 44.58 40.08 M17.16 83.82 C21.84 78.19, 27.82 72.16, 44.71 52.12 M17.16 83.82 C26.64 72.54, 37.93 60.87, 44.71 52.12 M27.79 83.78 C34.86 78.36, 39.05 68, 44.85 64.16 M27.79 83.78 C34.87 76.18, 41.89 67.97, 44.85 64.16 M38.42 83.75 C39.75 81.48, 41.87 78.6, 44.32 76.96 M38.42 83.75 C40.32 81.73, 41.98 79.77, 44.32 76.96" stroke="#4dabf7" stroke-width="1" fill="none"></path><path d="M11.17 0 C19.59 0.94, 28.1 -1.13, 33.5 0 M11.17 0 C16.33 0.13, 21.53 -0.39, 33.5 0 M33.5 0 C40.1 -1.03, 45.24 5.21, 44.67 11.17 M33.5 0 C40.49 -2.06, 45.82 3.4, 44.67 11.17 M44.67 11.17 C45.12 27.97, 45.85 46.05, 44.67 73.5 M44.67 11.17 C44.47 26.54, 44.53 43.26, 44.67 73.5 M44.67 73.5 C43.53 82.76, 42.45 85.52, 33.5 84.67 M44.67 73.5 C43.84 82.82, 39.04 85.83, 33.5 84.67 M33.5 84.67 C29.51 85.86, 22.71 83.94, 11.17 84.67 M33.5 84.67 C29.24 84.91, 22.89 84.83, 11.17 84.67 M11.17 84.67 C2.4 84.58, -1.75 80.59, 0 73.5 M11.17 84.67 C2.79 86.02, -2.16 80.44, 0 73.5 M0 73.5 C-0.54 60.45, 0.16 47.11, 0 11.17 M0 73.5 C-0.34 52.09, 1.02 31.15, 0 11.17 M0 11.17 C-1.88 4.36, 2.37 1.35, 11.17 0 M0 11.17 C1.37 5.71, 3.6 1.09, 11.17 0" stroke="#1e1e1e" stroke-width="2" fill="none"></path></g><g stroke-linecap="round" transform="translate(706.7941323525372 280.9763093547921) rotate(0 22.33331298828125 42.333343505859375)"><path d="M2.97 2.58 C2.97 2.58, 2.97 2.58, 2.97 2.58 M2.97 2.58 C2.97 2.58, 2.97 2.58, 2.97 2.58 M0.48 17.64 C4.55 12.93, 6.32 9.74, 15.57 0.29 M0.48 17.64 C5.59 11.63, 9.56 5.68, 15.57 0.29 M0.61 29.68 C4.22 22.71, 10.77 16.95, 25.54 1.01 M0.61 29.68 C8.32 20.36, 14.39 11.75, 25.54 1.01 M0.75 41.73 C11.03 28.97, 23.14 16.92, 36.17 0.97 M0.75 41.73 C14.44 25.81, 27.68 12.13, 36.17 0.97 M0.88 53.77 C13.96 38.31, 28.83 20.47, 42.87 5.46 M0.88 53.77 C10.05 42.69, 19.24 33.89, 42.87 5.46 M1.01 65.81 C19.71 45.29, 34.64 25.66, 44.31 16 M1.01 65.81 C16.42 47.33, 32.53 28.67, 44.31 16 M1.15 77.85 C17.98 61.14, 33.96 42.29, 44.45 28.04 M1.15 77.85 C16.39 60.28, 34 41.44, 44.45 28.04 M6.53 83.85 C19.85 71.5, 28.88 58.27, 44.58 40.08 M6.53 83.85 C15.12 72.45, 24.82 62.43, 44.58 40.08 M17.16 83.82 C21.47 76.62, 30.27 71.1, 44.71 52.12 M17.16 83.82 C26.64 72.84, 37.64 60.18, 44.71 52.12 M27.79 83.78 C34.48 76.55, 41.25 71.48, 44.85 64.16 M27.79 83.78 C33.82 76.48, 39.48 70.05, 44.85 64.16 M38.42 83.75 C40.06 81.56, 42.57 80.11, 44.32 76.96 M38.42 83.75 C40.24 82.14, 40.92 80.85, 44.32 76.96" stroke="#4dabf7" stroke-width="1" fill="none"></path><path d="M11.17 0 C14.02 -1.7, 18.54 -1.68, 33.5 0 M11.17 0 C19.79 -0.67, 27.6 -0.47, 33.5 0 M33.5 0 C39.39 -1.38, 44.22 2.98, 44.67 11.17 M33.5 0 C38.72 1.38, 42.38 3.21, 44.67 11.17 M44.67 11.17 C45.74 24.12, 44.85 37.4, 44.67 73.5 M44.67 11.17 C43.66 31.25, 44.41 52.44, 44.67 73.5 M44.67 73.5 C42.76 81.27, 42.31 84.55, 33.5 84.67 M44.67 73.5 C43.71 82.54, 40.6 86.5, 33.5 84.67 M33.5 84.67 C25.16 84.91, 22.25 83, 11.17 84.67 M33.5 84.67 C26.55 85.5, 20.68 85.54, 11.17 84.67 M11.17 84.67 C4.68 86.19, 0.36 80.7, 0 73.5 M11.17 84.67 C2.82 84.7, -0.15 83.04, 0 73.5 M0 73.5 C0.94 52.85, 0.75 28.62, 0 11.17 M0 73.5 C-0.42 53.84, 0.77 34.82, 0 11.17 M0 11.17 C-1.9 5.14, 1.84 0.63, 11.17 0 M0 11.17 C1.89 2.75, 4.99 -2.03, 11.17 0" stroke="#1e1e1e" stroke-width="2" fill="none"></path></g><g stroke-linecap="round" transform="translate(1012.3767549127465 123.9586047430414) rotate(0 198.33331298828125 165.6666717529297)"><path d="M7.86 8.16 C7.86 8.16, 7.86 8.16, 7.86 8.16 M7.86 8.16 C7.86 8.16, 7.86 8.16, 7.86 8.16 M2.75 26.24 C9.07 19.14, 12.67 14.11, 21.12 5.11 M2.75 26.24 C7.08 20.76, 13.4 13.35, 21.12 5.11 M2.88 38.28 C11.86 25.41, 25.4 12.65, 34.37 2.05 M2.88 38.28 C13.71 26.75, 23.52 14.99, 34.37 2.05 M2.36 51.07 C18.2 31.36, 32.8 14.97, 45 2.02 M2.36 51.07 C18.48 34.08, 34.06 14.89, 45 2.02 M2.49 63.11 C22.67 40.31, 45.66 16.23, 55.63 1.98 M2.49 63.11 C20.17 41.28, 38.99 20.77, 55.63 1.98 M2.62 75.16 C25.22 48.83, 45.23 26.01, 66.26 1.95 M2.62 75.16 C22.06 52.37, 41.65 29.26, 66.26 1.95 M2.76 87.2 C17.45 70.42, 34.11 53.23, 76.89 1.91 M2.76 87.2 C18.1 68.55, 34.71 52.13, 76.89 1.91 M2.23 99.99 C36.05 59.51, 69.36 22.52, 87.52 1.88 M2.23 99.99 C21.21 79.68, 37.53 59.2, 87.52 1.88 M2.37 112.03 C36.16 74.53, 72.27 32.89, 98.15 1.85 M2.37 112.03 C31.1 80.17, 59.77 46.18, 98.15 1.85 M2.5 124.07 C23.64 96.81, 44.13 74.78, 108.78 1.81 M2.5 124.07 C29.65 91.19, 58.76 58.68, 108.78 1.81 M2.63 136.11 C26.35 108.98, 51.87 77.63, 119.41 1.78 M2.63 136.11 C46.38 86.27, 88.46 36.69, 119.41 1.78 M2.11 148.91 C33.82 114.37, 62.79 80.39, 130.04 1.74 M2.11 148.91 C34.37 114.64, 63.93 77.93, 130.04 1.74 M2.24 160.95 C55.5 98.14, 110.57 33.81, 140.67 1.71 M2.24 160.95 C49.64 107.6, 96.61 53.37, 140.67 1.71 M2.38 172.99 C45.53 124.03, 90.29 73.75, 150.65 2.43 M2.38 172.99 C52.84 116.24, 102.15 60.51, 150.65 2.43 M2.51 185.03 C51.51 128.75, 98.73 74.98, 161.28 2.39 M2.51 185.03 C51.87 131.05, 98.51 75.61, 161.28 2.39 M2.64 197.07 C68.14 122.01, 131.97 49.2, 171.91 2.36 M2.64 197.07 C55.08 137.18, 107.34 75.84, 171.91 2.36 M2.12 209.87 C72.02 131.86, 138.98 52.99, 182.54 2.32 M2.12 209.87 C50.66 153.94, 99.85 97.97, 182.54 2.32 M2.25 221.91 C47.77 174.62, 90.67 122.98, 193.17 2.29 M2.25 221.91 C44 173.81, 88.18 123.94, 193.17 2.29 M2.39 233.95 C53.05 177.09, 104.31 118.72, 203.8 2.26 M2.39 233.95 C55.14 171.36, 110.99 107.65, 203.8 2.26 M2.52 245.99 C78.85 158.74, 153.65 72.23, 214.43 2.22 M2.52 245.99 C57.9 182.8, 112.09 119.81, 214.43 2.22 M2 258.79 C89.12 160.04, 173.44 62.01, 225.06 2.19 M2 258.79 C55.86 195.47, 110.42 131.65, 225.06 2.19 M2.13 270.83 C56.99 209.3, 112.07 145.36, 235.69 2.15 M2.13 270.83 C65.8 200.82, 127.21 130, 235.69 2.15 M2.26 282.87 C60.34 217.34, 116.2 149.67, 246.32 2.12 M2.26 282.87 C86.86 187.36, 169.23 90.97, 246.32 2.12 M2.4 294.91 C85.05 201.43, 164.83 110.43, 256.95 2.08 M2.4 294.91 C68.58 218.75, 135.07 142.14, 256.95 2.08 M5.15 303.93 C85.95 208.37, 170.26 113.46, 267.58 2.05 M5.15 303.93 C62.58 240.04, 118.19 176.22, 267.58 2.05 M5.29 315.97 C110.26 194.58, 213.66 73.97, 278.21 2.01 M5.29 315.97 C95.62 213.89, 185.85 110.31, 278.21 2.01 M8.7 324.24 C89.57 228.86, 172.16 135.01, 288.84 1.98 M8.7 324.24 C100.57 216.73, 194.49 109.75, 288.84 1.98 M16.05 327.98 C79.57 254.07, 146.04 178.16, 299.47 1.94 M16.05 327.98 C100.1 230.57, 185.93 132.82, 299.47 1.94 M22.09 333.23 C108.57 231.89, 197.93 130.01, 310.1 1.91 M22.09 333.23 C102.92 238.03, 185.34 143.89, 310.1 1.91 M33.37 332.44 C137.07 213.13, 241.29 94.24, 320.73 1.88 M33.37 332.44 C113.35 239.64, 193.33 147.31, 320.73 1.88 M44 332.4 C118.08 245.61, 192.85 159.63, 331.36 1.84 M44 332.4 C118.2 249.12, 192.1 164.6, 331.36 1.84 M54.63 332.37 C142.73 232.09, 228.7 132.74, 341.99 1.81 M54.63 332.37 C145.68 227.34, 238.71 121.41, 341.99 1.81 M65.26 332.34 C155.95 228.29, 247.21 123.22, 352.62 1.77 M65.26 332.34 C165.85 215.46, 267.6 99.54, 352.62 1.77 M75.89 332.3 C154.74 238.23, 235.68 144.53, 364.56 0.23 M75.89 332.3 C177.33 214.52, 277.86 98.99, 364.56 0.23 M86.52 332.27 C146.35 263.54, 205.93 196.46, 373.88 1.7 M86.52 332.27 C169.32 238.61, 251.4 144.93, 373.88 1.7 M97.15 332.23 C194.89 217.49, 295 101.81, 381.88 4.69 M97.15 332.23 C167.19 251.24, 236.16 171.49, 381.88 4.69 M107.78 332.2 C197.32 228.29, 287.41 122.25, 389.23 8.43 M107.78 332.2 C184.75 242.69, 262.92 152.64, 389.23 8.43 M118.41 332.16 C192.36 245.93, 269.71 158.16, 393.3 15.94 M118.41 332.16 C214.95 221.64, 310.95 111.21, 393.3 15.94 M129.04 332.13 C189.14 261.53, 250.37 193.54, 398.68 21.94 M129.04 332.13 C229.5 217.78, 330.3 102.12, 398.68 21.94 M139.02 332.85 C201.03 262.11, 260.97 194.14, 398.82 33.98 M139.02 332.85 C233.65 221.91, 328.52 112.15, 398.82 33.98 M149.65 332.81 C233.56 236.7, 317.33 142.35, 398.95 46.02 M149.65 332.81 C224.2 245.3, 301.08 157.9, 398.95 46.02 M160.28 332.78 C235.73 248.03, 309.17 161.61, 399.08 58.07 M160.28 332.78 C220.99 261.74, 283.44 189.49, 399.08 58.07 M170.91 332.74 C224.61 268.94, 277.75 209.42, 398.56 70.86 M170.91 332.74 C226.09 268.46, 281.82 204.84, 398.56 70.86 M181.54 332.71 C229.74 275.09, 276.02 220.29, 398.69 82.9 M181.54 332.71 C260.04 242.63, 338.7 153.51, 398.69 82.9 M192.17 332.68 C270.61 244.07, 348.01 152.46, 398.83 94.94 M192.17 332.68 C243.49 270.86, 296.06 210.79, 398.83 94.94 M202.8 332.64 C279.6 246.01, 353.75 162.79, 398.96 106.98 M202.8 332.64 C251.96 275.13, 300.76 220.14, 398.96 106.98 M213.43 332.61 C284.8 249.93, 356.77 170.03, 399.09 119.02 M213.43 332.61 C252.41 288.64, 290.14 243.33, 399.09 119.02 M224.06 332.57 C263.51 286.25, 302.55 242.82, 398.57 131.82 M224.06 332.57 C271.47 278.91, 319.47 224.63, 398.57 131.82 M234.69 332.54 C285.72 274.24, 338.59 214.95, 398.7 143.86 M234.69 332.54 C285.09 276.14, 334.89 218.27, 398.7 143.86 M245.32 332.5 C287.31 282.04, 333.45 229.97, 398.84 155.9 M245.32 332.5 C283.37 291.49, 319.85 248.96, 398.84 155.9 M255.95 332.47 C289.16 296.52, 320.37 258.03, 398.97 167.94 M255.95 332.47 C305.33 276.15, 353.5 220.78, 398.97 167.94 M266.58 332.43 C312.71 280.08, 359.84 224.71, 399.1 179.98 M266.58 332.43 C308.93 283.68, 353.12 234.36, 399.1 179.98 M277.21 332.4 C307.44 299.23, 333.67 269.49, 398.58 192.78 M277.21 332.4 C306.14 300.92, 334.04 269.94, 398.58 192.78 M287.84 332.37 C316.34 295.81, 347.14 261.48, 398.71 204.82 M287.84 332.37 C327.5 287.27, 365.65 243.36, 398.71 204.82 M298.47 332.33 C336.11 287.4, 376.43 243.24, 398.85 216.86 M298.47 332.33 C327.78 297.75, 357.35 264.81, 398.85 216.86 M309.1 332.3 C340.69 293.3, 372.5 255.25, 398.98 228.9 M309.1 332.3 C335.75 301.08, 364.75 267.98, 398.98 228.9 M319.73 332.26 C336.37 312.55, 354.99 290.65, 399.11 240.94 M319.73 332.26 C347.74 298.97, 378.16 265.06, 399.11 240.94 M330.36 332.23 C346.38 316.67, 359.9 298.56, 398.59 253.74 M330.36 332.23 C348.93 312.47, 366.61 290.58, 398.59 253.74 M340.99 332.19 C356.6 316.62, 371.57 298.75, 398.72 265.78 M340.99 332.19 C358.9 313.25, 374.75 292.3, 398.72 265.78 M351.62 332.16 C361.16 320.85, 374.2 306.15, 398.86 277.82 M351.62 332.16 C361.63 320.93, 370.65 310.41, 398.86 277.82 M362.25 332.12 C369.61 323.18, 376.92 314.45, 398.99 289.86 M362.25 332.12 C369.73 321.73, 379.76 312.07, 398.99 289.86 M369.6 335.86 C381.94 322.6, 390.96 312.18, 399.12 301.9 M369.6 335.86 C375.7 327.88, 383.71 320.43, 399.12 301.9" stroke="#ff8787" stroke-width="1" fill="none"></path><path d="M32 0 C143.21 0.29, 255.04 1.87, 364.67 0 M32 0 C107 1.34, 183 0.28, 364.67 0 M364.67 0 C385.66 1.43, 394.85 12.43, 396.67 32 M364.67 0 C388.12 -1.68, 396.14 10.22, 396.67 32 M396.67 32 C398.78 137.74, 396.86 239.74, 396.67 299.33 M396.67 32 C396.11 106.88, 397.53 182.21, 396.67 299.33 M396.67 299.33 C397.45 318.87, 385.21 331.49, 364.67 331.33 M396.67 299.33 C395.05 320.98, 385.77 330.3, 364.67 331.33 M364.67 331.33 C290.53 330.43, 214.77 331.14, 32 331.33 M364.67 331.33 C236.73 330.4, 109.45 331.15, 32 331.33 M32 331.33 C11.29 331.48, -1.14 320.55, 0 299.33 M32 331.33 C11.55 332.28, -2.03 318.54, 0 299.33 M0 299.33 C0.43 203.85, -0.93 108.24, 0 32 M0 299.33 C-0.23 226.62, 0.26 155, 0 32 M0 32 C-0.97 11.74, 10 1.78, 32 0 M0 32 C0.73 9.93, 9.39 -0.51, 32 0" stroke="#1e1e1e" stroke-width="2" fill="none"></path></g><g transform="translate(1167.0201112359887 277.1252764959711) rotate(0 43.68995666503906 12.5)"><text x="43.68995666503906" y="0" font-family="Virgil, Segoe UI Emoji" font-size="20px" fill="#1e1e1e" text-anchor="middle" style="white-space: pre;" direction="ltr" dominant-baseline="text-before-edge">Resource</text></g><g stroke-linecap="round" transform="translate(770.5858445357467 278.5737525018951) rotate(0 22.33331298828125 42.333343505859375)"><path d="M2.97 2.58 C2.97 2.58, 2.97 2.58, 2.97 2.58 M2.97 2.58 C2.97 2.58, 2.97 2.58, 2.97 2.58 M0.48 17.64 C5.57 11.14, 11.65 7.63, 15.57 0.29 M0.48 17.64 C6.16 11.58, 11.91 5.39, 15.57 0.29 M0.61 29.68 C4.94 22.51, 12.65 15.42, 25.54 1.01 M0.61 29.68 C6.48 21.54, 12.6 14.76, 25.54 1.01 M0.75 41.73 C9.55 28.84, 23.2 18.58, 36.17 0.97 M0.75 41.73 C9.34 31.7, 20.13 21.32, 36.17 0.97 M0.88 53.77 C16.16 36.04, 29.81 21.08, 42.87 5.46 M0.88 53.77 C10.14 42.85, 21.87 31.09, 42.87 5.46 M1.01 65.81 C16.84 49.56, 30.82 28.42, 44.31 16 M1.01 65.81 C14.14 52.05, 26.18 36.63, 44.31 16 M1.15 77.85 C17.82 57.66, 36.04 38.34, 44.45 28.04 M1.15 77.85 C15.85 62.12, 29.24 47.11, 44.45 28.04 M6.53 83.85 C22.48 68.25, 36.81 51.6, 44.58 40.08 M6.53 83.85 C19.7 67.87, 33.58 53.42, 44.58 40.08 M17.16 83.82 C24.05 77.37, 29.08 68.84, 44.71 52.12 M17.16 83.82 C28.88 70.91, 39.14 59.32, 44.71 52.12 M27.79 83.78 C32.62 81.07, 34.23 75.44, 44.85 64.16 M27.79 83.78 C34.1 76.34, 41.37 68.03, 44.85 64.16 M38.42 83.75 C39.97 81.7, 40.05 80.71, 44.32 76.96 M38.42 83.75 C40.72 81.38, 42.45 78.49, 44.32 76.96" stroke="#4dabf7" stroke-width="1" fill="none"></path><path d="M11.17 0 C14.15 1.64, 20.13 -1.09, 33.5 0 M11.17 0 C20.54 0.34, 27.88 -0.37, 33.5 0 M33.5 0 C39.67 1.78, 45.85 3.49, 44.67 11.17 M33.5 0 C42.36 -0.7, 45.09 3.17, 44.67 11.17 M44.67 11.17 C46.7 29.96, 43.75 48.35, 44.67 73.5 M44.67 11.17 C44.01 28.99, 45.29 45.64, 44.67 73.5 M44.67 73.5 C44.73 80.34, 39.66 84.74, 33.5 84.67 M44.67 73.5 C45.4 79.65, 42.34 86.53, 33.5 84.67 M33.5 84.67 C26.28 83.41, 21.73 83.97, 11.17 84.67 M33.5 84.67 C25.89 84.01, 16.67 83.93, 11.17 84.67 M11.17 84.67 C4.45 86.2, -1.37 81.97, 0 73.5 M11.17 84.67 C5.88 83.53, -0.4 80.2, 0 73.5 M0 73.5 C0.82 60.42, 1.27 43.59, 0 11.17 M0 73.5 C-0.4 55.81, 0.33 39.94, 0 11.17 M0 11.17 C0.89 5.17, 3.55 1.24, 11.17 0 M0 11.17 C-0.16 3.15, 5.95 -0.95, 11.17 0" stroke="#1e1e1e" stroke-width="2" fill="none"></path></g><g stroke-linecap="round" transform="translate(640.3063080853863 279.9237571941461) rotate(0 22.33331298828125 42.333343505859375)"><path d="M2.97 2.58 C2.97 2.58, 2.97 2.58, 2.97 2.58 M2.97 2.58 C2.97 2.58, 2.97 2.58, 2.97 2.58 M0.48 17.64 C6.09 13.5, 11.19 7.94, 15.57 0.29 M0.48 17.64 C4.38 11.84, 9.34 6.58, 15.57 0.29 M0.61 29.68 C10.85 19.68, 20.25 7.8, 25.54 1.01 M0.61 29.68 C7.36 23.1, 13.05 15.1, 25.54 1.01 M0.75 41.73 C12.16 30.21, 24.82 15.33, 36.17 0.97 M0.75 41.73 C11.09 28.55, 22.85 16.34, 36.17 0.97 M0.88 53.77 C9.97 42.92, 19.51 29.04, 42.87 5.46 M0.88 53.77 C11.07 40.31, 24.05 25.79, 42.87 5.46 M1.01 65.81 C13.86 53.73, 22.78 39.31, 44.31 16 M1.01 65.81 C9.62 54.23, 18.97 44.65, 44.31 16 M1.15 77.85 C9.65 68.48, 20.85 58.03, 44.45 28.04 M1.15 77.85 C10.75 66.57, 19.75 55.42, 44.45 28.04 M6.53 83.85 C12.85 74.31, 22.25 64.82, 44.58 40.08 M6.53 83.85 C15.26 73.29, 24.56 63.81, 44.58 40.08 M17.16 83.82 C25.61 75.33, 36.66 63.19, 44.71 52.12 M17.16 83.82 C27.86 72.11, 37.51 59.7, 44.71 52.12 M27.79 83.78 C32.64 78.57, 38.31 72.06, 44.85 64.16 M27.79 83.78 C31.66 77.84, 36.64 74.1, 44.85 64.16 M38.42 83.75 C39.2 82.57, 41.43 79.06, 44.32 76.96 M38.42 83.75 C40.17 81.57, 41.98 80.24, 44.32 76.96" stroke="#4dabf7" stroke-width="1" fill="none"></path><path d="M11.17 0 C21.2 -0.77, 27.68 -0.56, 33.5 0 M11.17 0 C17.17 0.12, 25.06 0.8, 33.5 0 M33.5 0 C40.07 -0.98, 46.32 2.48, 44.67 11.17 M33.5 0 C40.16 0.85, 45.15 5.6, 44.67 11.17 M44.67 11.17 C46.42 37.26, 45.93 61.42, 44.67 73.5 M44.67 11.17 C45.58 34.16, 44.29 56.7, 44.67 73.5 M44.67 73.5 C43.24 79.28, 40.5 84.71, 33.5 84.67 M44.67 73.5 C43.94 80.08, 43.21 85.37, 33.5 84.67 M33.5 84.67 C28.07 84.26, 20.15 84.77, 11.17 84.67 M33.5 84.67 C28.99 84.49, 24.44 84.12, 11.17 84.67 M11.17 84.67 C2.5 85.64, 1.64 82.69, 0 73.5 M11.17 84.67 C4.31 83.52, 0.05 82.53, 0 73.5 M0 73.5 C-1.61 61.91, -2.1 47.28, 0 11.17 M0 73.5 C-0.03 53.08, -0.94 31.91, 0 11.17 M0 11.17 C1.51 2.68, 1.98 -0.29, 11.17 0 M0 11.17 C-0.76 4.9, 5.09 1.6, 11.17 0" stroke="#1e1e1e" stroke-width="2" fill="none"></path></g><g stroke-linecap="round"><g transform="translate(768.7721858588764 465.0622426264813) rotate(0 74.47089930106279 -1.0382519049893517)"><path d="M0.35 1.16 C25.01 0.87, 123.87 -1.37, 148.51 -1.89 M-0.92 0.72 C23.49 0.66, 122.07 -0.03, 147.33 -0.26" stroke="#1e1e1e" stroke-width="2" fill="none"></path></g><g transform="translate(768.7721858588764 465.0622426264813) rotate(0 74.47089930106279 -1.0382519049893517)"><path d="M123.9 8.48 C133.97 4.65, 140.47 1.05, 147.33 -0.26 M123.9 8.48 C130.77 6.57, 139.09 2.87, 147.33 -0.26" stroke="#1e1e1e" stroke-width="2" fill="none"></path></g><g transform="translate(768.7721858588764 465.0622426264813) rotate(0 74.47089930106279 -1.0382519049893517)"><path d="M123.77 -8.62 C133.87 -6.52, 140.41 -4.19, 147.33 -0.26 M123.77 -8.62 C130.75 -5.27, 139.11 -3.71, 147.33 -0.26" stroke="#1e1e1e" stroke-width="2" fill="none"></path></g></g><mask></mask><g stroke-linecap="round"><g transform="translate(771.2930067956074 466.69243513489414) rotate(0 -84.82477396455124 0.21852850811194457)"><path d="M0.5 -0.17 C-27.7 -0.03, -141.12 0.46, -169.47 0.72 M-0.7 -1.3 C-29.01 -1.54, -142.05 -1.39, -170.32 -1.26" stroke="#1e1e1e" stroke-width="2" fill="none"></path></g><g transform="translate(771.2930067956074 466.69243513489414) rotate(0 -84.82477396455124 0.21852850811194457)"><path d="M-146.85 -9.87 C-153.61 -7.1, -159.34 -4.92, -170.32 -1.26 M-146.85 -9.87 C-155.66 -7.64, -163.8 -3.62, -170.32 -1.26" stroke="#1e1e1e" stroke-width="2" fill="none"></path></g><g transform="translate(771.2930067956074 466.69243513489414) rotate(0 -84.82477396455124 0.21852850811194457)"><path d="M-146.81 7.23 C-153.57 5.29, -159.31 2.74, -170.32 -1.26 M-146.81 7.23 C-155.66 3.03, -163.81 0.62, -170.32 -1.26" stroke="#1e1e1e" stroke-width="2" fill="none"></path></g></g><mask></mask><g transform="translate(694.2713821698708 484.2364365074983) rotate(0 38.15997314453125 12.5)"><text x="0" y="0" font-family="Virgil, Segoe UI Emoji" font-size="20px" fill="#1e1e1e" text-anchor="start" style="white-space: pre;" direction="ltr" dominant-baseline="text-before-edge">Latency</text></g><g stroke-linecap="round"><g transform="translate(117.49052822479325 143.56752550971078) rotate(0 -53.7060055539892 73.76967357763235)"><path d="M0.05 0.77 C-17.62 10.11, -100.21 31.22, -106.55 55.71 C-112.89 80.19, -49.62 132.52, -38 147.68 M-1.38 0.12 C-19.09 9.68, -100.77 32.34, -107.05 57.16 C-113.33 81.99, -50.85 134.05, -39.06 149.07" stroke="#1e1e1e" stroke-width="2" fill="none"></path></g><g transform="translate(117.49052822479325 143.56752550971078) rotate(0 -53.7060055539892 73.76967357763235)"><path d="M-61.54 138.13 C-54.47 142.39, -50.17 142.87, -39.06 149.07 M-61.54 138.13 C-55.06 141.84, -46.9 144.48, -39.06 149.07" stroke="#1e1e1e" stroke-width="2" fill="none"></path></g><g transform="translate(117.49052822479325 143.56752550971078) rotate(0 -53.7060055539892 73.76967357763235)"><path d="M-49.25 126.24 C-45.39 133.59, -44.28 137.15, -39.06 149.07 M-49.25 126.24 C-46.54 133.56, -42.21 139.91, -39.06 149.07" stroke="#1e1e1e" stroke-width="2" fill="none"></path></g></g><mask></mask><g stroke-linecap="round" transform="translate(130.03251932635249 126.06243356043876) rotate(0 15.106890334652633 17.512110129619856)"><path d="M0.4 4.33 C0.4 4.33, 0.4 4.33, 0.4 4.33 M0.4 4.33 C0.4 4.33, 0.4 4.33, 0.4 4.33 M0.54 16.37 C6.52 9.88, 9.45 5.06, 14.31 0.52 M0.54 16.37 C5.02 11.63, 9.52 6.94, 14.31 0.52 M0.67 28.41 C6.71 20.63, 15.87 14.59, 24.94 0.48 M0.67 28.41 C10.05 19.61, 18.26 8.6, 24.94 0.48 M6.05 34.41 C14.3 26.2, 23.81 16.92, 30.33 6.49 M6.05 34.41 C12.01 27.31, 17.14 20.64, 30.33 6.49 M16.68 34.38 C20.68 29.18, 23.49 24.88, 30.46 18.53 M16.68 34.38 C19.5 31.4, 23.15 28.5, 30.46 18.53 M4.34 34.63 C4.34 34.63, 4.34 34.63, 4.34 34.63 M4.34 34.63 C4.34 34.63, 4.34 34.63, 4.34 34.63 M16.38 34.5 C13.46 32.5, 11.14 28.26, 0.54 20.72 M16.38 34.5 C11.9 31.52, 9.63 27.34, 0.54 20.72 M27.67 33.71 C21.96 29.17, 13.88 20.76, 1.26 10.75 M27.67 33.71 C21.1 28.12, 15.93 22.36, 1.26 10.75 M30.65 25.71 C21.04 18.43, 13.67 11.65, 2.73 1.43 M30.65 25.71 C22.1 17.72, 14.38 12.08, 2.73 1.43 M30.62 15.08 C23.44 11.11, 18.55 3.85, 12.51 -0.67 M30.62 15.08 C27.62 11.55, 22.27 7.35, 12.51 -0.67" stroke="#40c057" stroke-width="1" fill="none"></path><path d="M7.55 0 C9.26 1.25, 14.91 -0.35, 22.66 0 M7.55 0 C12.91 0.04, 17.04 0.01, 22.66 0 M22.66 0 C28.16 1.48, 28.22 1.02, 30.21 7.55 M22.66 0 C26.44 -1.88, 31.83 0.87, 30.21 7.55 M30.21 7.55 C31.45 14.24, 31.1 20.16, 30.21 27.47 M30.21 7.55 C30.39 13.01, 29.7 20.09, 30.21 27.47 M30.21 27.47 C29.07 32.53, 25.88 36.04, 22.66 35.02 M30.21 27.47 C29.9 30.9, 25.59 34.7, 22.66 35.02 M22.66 35.02 C17.98 36, 12.5 36.31, 7.55 35.02 M22.66 35.02 C19.16 34.9, 16.79 34.84, 7.55 35.02 M7.55 35.02 C3.84 33.61, 1.31 34.5, 0 27.47 M7.55 35.02 C3.6 35.6, 1.46 31.9, 0 27.47 M0 27.47 C1.67 22.86, -0.6 15.88, 0 7.55 M0 27.47 C-0.35 20.79, 0.52 15.52, 0 7.55 M0 7.55 C0.23 1.46, 3.05 -0.45, 7.55 0 M0 7.55 C-0.26 2.69, 4.05 -0.42, 7.55 0" stroke="#1e1e1e" stroke-width="2" fill="none"></path></g><g stroke-linecap="round" transform="translate(270.8336460886594 348.0527947784693) rotate(0 12.907531803025904 11.54246788909245)"><path d="M0.5 3.09 C0.5 3.09, 0.5 3.09, 0.5 3.09 M0.5 3.09 C0.5 3.09, 0.5 3.09, 0.5 3.09 M-0.02 15.88 C4.43 8.27, 10.48 5.14, 13.76 0.03 M-0.02 15.88 C3.84 11.83, 8.4 7.45, 13.76 0.03 M4.7 22.64 C7.54 15.97, 11.91 13.48, 23.07 1.51 M4.7 22.64 C11.37 14.01, 19.9 5.61, 23.07 1.51 M14.68 23.36 C17.07 19.35, 18.46 18.36, 25.83 10.53 M14.68 23.36 C16.74 19.07, 20.89 16.53, 25.83 10.53 M1.23 21.45 C1.23 21.45, 1.23 21.45, 1.23 21.45 M1.23 21.45 C1.23 21.45, 1.23 21.45, 1.23 21.45 M10.25 18.7 C7.56 17.27, 5.91 15.56, 3.46 12.79 M10.25 18.7 C7.63 16.47, 5.17 14.23, 3.46 12.79 M25.31 21.19 C19.13 13.97, 9.82 8.71, 1.91 0.85 M25.31 21.19 C18.63 14.71, 11.74 9.09, 1.91 0.85 M29.05 13.84 C22.08 7.99, 15.1 3.84, 8.67 -3.88 M29.05 13.84 C22.1 6.83, 14.78 0.65, 8.67 -3.88" stroke="#40c057" stroke-width="1" fill="none"></path><path d="M5.77 0 C9.23 -0.61, 14.83 -0.51, 20.04 0 M5.77 0 C9.37 -0.26, 12.15 -0.56, 20.04 0 M20.04 0 C25.35 1.12, 26.98 1.91, 25.82 5.77 M20.04 0 C23.19 -0.15, 27.2 3.96, 25.82 5.77 M25.82 5.77 C26.18 8.19, 25.39 11.83, 25.82 17.31 M25.82 5.77 C25.18 8.7, 26.05 12.42, 25.82 17.31 M25.82 17.31 C25.96 22.68, 24.35 24.12, 20.04 23.08 M25.82 17.31 C25.42 20.23, 24.94 24.83, 20.04 23.08 M20.04 23.08 C16.24 21.79, 9.47 22.18, 5.77 23.08 M20.04 23.08 C16.11 22.46, 11.14 22.77, 5.77 23.08 M5.77 23.08 C0.45 24.35, -1.65 22.57, 0 17.31 M5.77 23.08 C1.61 25.06, -1.2 19.17, 0 17.31 M0 17.31 C0.91 13.49, 0.12 9.02, 0 5.77 M0 17.31 C0.16 13.6, -0.27 10.92, 0 5.77 M0 5.77 C-0.71 2.2, 2.97 0.9, 5.77 0 M0 5.77 C1.12 0.17, 3.76 -0.54, 5.77 0" stroke="#1e1e1e" stroke-width="2" fill="none"></path></g><g stroke-linecap="round"><g transform="translate(500.555228617666 328.06482645428173) rotate(0 44.614943629332174 -0.0013805446883452532)"><path d="M-1.15 -0.88 C14.04 -0.92, 75.04 -0.54, 90.26 -0.37 M0.44 1.28 C15.64 1.42, 74.95 0.93, 89.85 0.97" stroke="#1e1e1e" stroke-width="2" fill="none"></path></g><g transform="translate(500.555228617666 328.06482645428173) rotate(0 44.614943629332174 -0.0013805446883452532)"><path d="M66.39 9.6 C70.22 9.6, 76.35 7.46, 89.85 0.97 M66.39 9.6 C74.32 7.25, 81.69 3.42, 89.85 0.97" stroke="#1e1e1e" stroke-width="2" fill="none"></path></g><g transform="translate(500.555228617666 328.06482645428173) rotate(0 44.614943629332174 -0.0013805446883452532)"><path d="M66.33 -7.5 C70.16 -3.65, 76.3 -1.93, 89.85 0.97 M66.33 -7.5 C74.34 -4.52, 81.73 -3.02, 89.85 0.97" stroke="#1e1e1e" stroke-width="2" fill="none"></path></g></g><mask></mask><g stroke-linecap="round"><g transform="translate(937.6612019220097 320.22433856369287) rotate(0 35.87291468729563 -0.5109515024063285)"><path d="M0.27 -0.83 C12.23 -0.64, 58.9 0.11, 70.95 0.06 M-1.05 1.34 C11.37 1.32, 61.03 -1.3, 73.25 -1.49" stroke="#1e1e1e" stroke-width="2" fill="none"></path></g><g transform="translate(937.6612019220097 320.22433856369287) rotate(0 35.87291468729563 -0.5109515024063285)"><path d="M50.08 7.91 C54.06 4.39, 62.53 4.95, 73.25 -1.49 M50.08 7.91 C57.63 4.76, 63.95 3, 73.25 -1.49" stroke="#1e1e1e" stroke-width="2" fill="none"></path></g><g transform="translate(937.6612019220097 320.22433856369287) rotate(0 35.87291468729563 -0.5109515024063285)"><path d="M49.46 -9.18 C53.42 -8.81, 62.04 -4.35, 73.25 -1.49 M49.46 -9.18 C57.14 -7.3, 63.64 -4.02, 73.25 -1.49" stroke="#1e1e1e" stroke-width="2" fill="none"></path></g></g><mask></mask><g stroke-linecap="round" transform="translate(839.9647406006561 273.3692083657529) rotate(0 22.33331298828125 42.333343505859375)"><path d="M2.97 2.58 C2.97 2.58, 2.97 2.58, 2.97 2.58 M2.97 2.58 C2.97 2.58, 2.97 2.58, 2.97 2.58 M3.76 13.87 C7.75 11.62, 7.31 7.35, 13.6 2.55 M3.76 13.87 C6.44 10.88, 8.18 8.68, 13.6 2.55 M3.89 25.91 C11.58 16.09, 18.35 9.77, 24.23 2.51 M3.89 25.91 C12.55 16.6, 20.07 9.01, 24.23 2.51 M4.03 37.95 C14.25 28.24, 22.6 17.34, 34.86 2.48 M4.03 37.95 C13.16 28.25, 20.36 19.05, 34.86 2.48 M4.16 49.99 C13.14 41.65, 21.17 30.59, 43.52 4.71 M4.16 49.99 C17.12 34.06, 30.43 19.27, 43.52 4.71 M4.29 62.03 C21.14 43.24, 37.16 23.85, 48.91 10.71 M4.29 62.03 C13.2 51.23, 23.19 41.28, 48.91 10.71 M4.43 74.07 C16.7 61.44, 23.76 52.38, 49.04 22.75 M4.43 74.07 C16.54 60.95, 27.14 47.8, 49.04 22.75 M6.53 83.85 C24.18 64.59, 40.03 47.1, 49.17 34.79 M6.53 83.85 C21.05 65.96, 35.44 48.6, 49.17 34.79 M17.16 83.82 C27.05 72.66, 32.62 65.03, 49.31 46.84 M17.16 83.82 C24.13 74.33, 32.71 66.72, 49.31 46.84 M27.79 83.78 C37.45 75.01, 44.92 64.21, 49.44 58.88 M27.79 83.78 C31.91 78.98, 37.52 72.79, 49.44 58.88 M38.42 83.75 C39.39 82.29, 42.14 78.66, 46.29 74.69 M38.42 83.75 C41.36 80.85, 44.5 77.6, 46.29 74.69" stroke="#4dabf7" stroke-width="1" fill="none"></path><path d="M11.17 0 C17.43 -1.5, 27.48 0.39, 33.5 0 M11.17 0 C16.99 -0.62, 20.94 -1.04, 33.5 0 M33.5 0 C42.36 -0.8, 43.82 2.55, 44.67 11.17 M33.5 0 C43.06 -0.22, 42.41 5.14, 44.67 11.17 M44.67 11.17 C47.08 23.33, 47.17 38.13, 44.67 73.5 M44.67 11.17 C46.06 33.83, 44.65 58.3, 44.67 73.5 M44.67 73.5 C45.33 82.93, 40.74 85.17, 33.5 84.67 M44.67 73.5 C44.48 80.58, 39.26 83.8, 33.5 84.67 M33.5 84.67 C25.87 86.08, 17.58 85.33, 11.17 84.67 M33.5 84.67 C29.31 84.02, 23.5 85.22, 11.17 84.67 M11.17 84.67 C3.72 85.8, 0.76 81.46, 0 73.5 M11.17 84.67 C5.11 85.03, -2.04 83.23, 0 73.5 M0 73.5 C-1.04 54.28, 1.5 33.9, 0 11.17 M0 73.5 C0.67 48.64, -0.85 25.68, 0 11.17 M0 11.17 C0.57 2.97, 2.46 -0.97, 11.17 0 M0 11.17 C1.71 5.05, 4.61 -0.18, 11.17 0" stroke="#1e1e1e" stroke-width="2" fill="none"></path></g><g transform="translate(836.4479350049692 290.7390664865504) rotate(0 27.920259236274433 23.38106332001746)" stroke="none"><path fill="#c92a2a" d="M 1.11,-1.56 Q 1.11,-1.56 6.13,2.12 11.15,5.81 17.74,10.96 24.32,16.10 30.49,21.43 36.67,26.76 41.03,30.73 45.40,34.70 48.33,37.49 51.26,40.28 52.76,41.73 54.26,43.17 55.36,44.18 56.46,45.19 56.56,45.32 56.67,45.46 56.75,45.61 56.82,45.77 56.85,45.94 56.89,46.11 56.88,46.28 56.87,46.45 56.83,46.62 56.78,46.78 56.69,46.93 56.60,47.08 56.48,47.21 56.36,47.33 56.22,47.42 56.07,47.51 55.91,47.57 55.74,47.62 55.57,47.64 55.40,47.65 55.23,47.62 55.06,47.59 54.90,47.53 54.74,47.46 54.60,47.35 54.47,47.25 54.25,46.82 54.04,46.39 54.05,46.16 54.06,45.93 54.14,45.71 54.22,45.50 54.37,45.32 54.52,45.14 54.71,45.02 54.91,44.89 55.14,44.84 55.36,44.79 55.59,44.81 55.83,44.83 56.04,44.93 56.25,45.02 56.42,45.18 56.59,45.34 56.70,45.54 56.81,45.74 56.85,45.97 56.89,46.20 56.86,46.43 56.82,46.66 56.72,46.86 56.61,47.07 56.45,47.23 56.28,47.39 56.07,47.49 55.86,47.59 55.63,47.62 55.40,47.65 55.17,47.60 54.95,47.56 54.75,47.44 54.55,47.32 54.39,47.15 54.24,46.97 54.15,46.76 54.06,46.54 54.05,46.31 54.03,46.08 54.09,45.86 54.15,45.63 54.28,45.44 54.41,45.25 54.59,45.10 54.77,44.96 54.99,44.88 55.21,44.81 55.44,44.80 55.67,44.80 55.89,44.87 56.11,44.94 56.30,45.08 56.49,45.22 56.62,45.41 56.75,45.60 56.60,45.39 56.45,45.19 56.56,45.32 56.67,45.46 56.75,45.61 56.82,45.77 56.85,45.94 56.89,46.11 56.88,46.28 56.87,46.45 56.83,46.62 56.78,46.78 56.69,46.93 56.60,47.08 56.48,47.21 56.36,47.33 56.22,47.42 56.07,47.51 55.91,47.57 55.74,47.62 55.57,47.64 55.40,47.65 55.23,47.62 55.06,47.59 54.90,47.53 54.74,47.46 54.60,47.35 54.47,47.25 53.37,46.24 52.27,45.23 50.78,43.80 49.30,42.37 46.35,39.64 43.41,36.91 39.03,33.01 34.65,29.11 28.49,23.90 22.32,18.69 15.72,13.68 9.11,8.67 3.99,5.11 -1.11,1.56 -1.28,1.40 -1.45,1.24 -1.58,1.05 -1.71,0.86 -1.79,0.64 -1.87,0.42 -1.89,0.19 -1.91,-0.03 -1.88,-0.26 -1.85,-0.48 -1.76,-0.70 -1.68,-0.91 -1.54,-1.10 -1.41,-1.29 -1.23,-1.44 -1.06,-1.59 -0.85,-1.70 -0.65,-1.80 -0.42,-1.85 -0.19,-1.90 0.03,-1.90 0.26,-1.90 0.48,-1.84 0.70,-1.78 0.91,-1.67 1.11,-1.56 1.11,-1.56 L 1.11,-1.56 Z"></path></g><g transform="translate(844.7012122486803 552.8002837438131) rotate(0 21.618457057228284 -241.6291490232788)" stroke="none"><path fill="#c92a2a" d="M -1.58,-220.40 Q -1.58,-220.40 0.07,-221.82 1.73,-223.25 5.89,-227.88 10.05,-232.51 14.42,-237.45 18.79,-242.39 21.87,-245.87 24.95,-249.36 26.75,-251.32 28.54,-253.27 29.40,-254.32 30.26,-255.37 31.14,-256.43 32.01,-257.50 33.01,-258.38 34.02,-259.26 34.82,-260.06 35.63,-260.87 36.40,-261.88 37.17,-262.89 37.89,-263.69 38.62,-264.49 40.32,-265.75 42.01,-267.01 42.48,-267.17 42.95,-267.33 43.45,-267.32 43.95,-267.32 44.42,-267.16 44.89,-267.00 45.28,-266.70 45.67,-266.40 45.95,-265.98 46.23,-265.57 46.36,-265.09 46.49,-264.61 46.46,-264.12 46.43,-263.62 46.24,-263.16 46.06,-262.70 45.73,-262.32 45.41,-261.95 44.99,-261.69 44.56,-261.44 44.07,-261.33 43.59,-261.23 43.09,-261.29 42.60,-261.34 42.15,-261.55 41.70,-261.76 41.34,-262.11 40.98,-262.45 40.75,-262.89 40.52,-263.33 40.44,-263.82 40.37,-264.31 40.45,-264.80 40.53,-265.29 40.77,-265.73 41.00,-266.16 41.36,-266.50 41.73,-266.84 42.18,-267.05 42.63,-267.26 43.12,-267.31 43.62,-267.36 44.10,-267.25 44.59,-267.14 45.01,-266.88 45.43,-266.62 45.75,-266.24 46.07,-265.86 46.25,-265.40 46.44,-264.94 46.46,-264.44 46.49,-263.95 46.35,-263.47 46.21,-262.99 45.93,-262.58 45.65,-262.17 45.26,-261.87 44.86,-261.58 44.86,-261.58 44.86,-261.58 43.50,-260.54 42.13,-259.50 41.26,-258.71 40.38,-257.91 39.50,-257.18 38.62,-256.44 37.65,-255.85 36.67,-255.26 35.58,-254.76 34.50,-254.25 33.58,-253.65 32.67,-253.04 31.69,-252.18 30.71,-251.32 28.97,-249.35 27.24,-247.38 24.21,-243.84 21.19,-240.30 16.89,-235.29 12.59,-230.28 8.41,-225.43 4.23,-220.58 2.70,-219.02 1.17,-217.46 0.97,-217.32 0.78,-217.17 0.55,-217.08 0.33,-216.99 0.09,-216.95 -0.14,-216.92 -0.38,-216.94 -0.63,-216.96 -0.86,-217.04 -1.09,-217.12 -1.29,-217.25 -1.49,-217.39 -1.66,-217.56 -1.82,-217.74 -1.94,-217.95 -2.06,-218.16 -2.13,-218.40 -2.19,-218.63 -2.20,-218.88 -2.20,-219.12 -2.15,-219.35 -2.10,-219.59 -1.99,-219.81 -1.89,-220.03 -1.73,-220.21 -1.58,-220.40 -1.58,-220.40 L -1.58,-220.40 Z"></path></g></svg>