<svg version="1.1" xmlns="http://www.w3.org/2000/svg" viewBox="0 0 1566.6365766177687 413.0000610351563" width="1566.6365766177687" height="413.0000610351563">
  <!-- svg-source:excalidraw -->
  
  <defs>
    <style class="style-fonts">
      @font-face {
        font-family: "Virgil";
        src: url("https://excalidraw.com/Virgil.woff2");
      }
      @font-face {
        font-family: "Cascadia";
        src: url("https://excalidraw.com/Cascadia.woff2");
      }
      @font-face {
        font-family: "Assistant";
        src: url("https://excalidraw.com/Assistant-Regular.woff2");
      }
    </style>
    
  </defs>
  <g stroke-linecap="round"><g transform="translate(258.8146608671457 122.25910401881194) rotate(0 0.28352464532463273 101.21984287312524)"><path d="M1.02 0.28 C0.9 33.86, -0.22 167.48, -0.26 201.31 M0.1 -0.62 C0.32 33.07, 2.02 168.59, 2.02 202.25" stroke="#1e1e1e" stroke-width="2" fill="none"></path></g></g><mask></mask><g stroke-linecap="round"><g transform="translate(407.9040738542434 122.43039330806326) rotate(0 0.28353762425092555 102.35396741227642)"><path d="M-0.29 0.5 C-0.34 34.72, 0.64 170.69, 0.59 204.63 M1.76 -0.28 C1.47 34.2, -0.33 171.88, -0.34 206.12" stroke="#1e1e1e" stroke-width="2" fill="none"></path></g></g><mask></mask><g transform="translate(276.9036823777219 102.8536420731595) rotate(0 53.902516050522536 7.442635505376856)"><text x="0" y="0" font-family="Virgil, Segoe UI Emoji" font-size="11.908216808602969px" fill="#1e1e1e" text-anchor="start" style="white-space: pre;" direction="ltr" dominant-baseline="text-before-edge">Interaction buffer</text></g><g stroke-linecap="round" transform="translate(47.58559430549474 210.15309387778473) rotate(0 103.91337242995132 25.659363280205525)"><path d="M12.83 0 C78.83 1.81, 145.9 -1.01, 195 0 M12.83 0 C85.3 -0.73, 156.74 -2.15, 195 0 M195 0 C202.68 -1.89, 207.51 2.3, 207.83 12.83 M195 0 C205.75 -0.2, 208.67 2.27, 207.83 12.83 M207.83 12.83 C206.56 20.83, 205.88 33.54, 207.83 38.49 M207.83 12.83 C208.17 21.73, 208.32 32.86, 207.83 38.49 M207.83 38.49 C207.12 47.06, 202.84 52.55, 195 51.32 M207.83 38.49 C208.94 45.82, 202.67 49.84, 195 51.32 M195 51.32 C150.17 53.01, 103.54 54.07, 12.83 51.32 M195 51.32 C158.29 53.69, 121.5 52.52, 12.83 51.32 M12.83 51.32 C4.54 50.82, 1.05 45.71, 0 38.49 M12.83 51.32 C3.43 50.69, 2.03 48.59, 0 38.49 M0 38.49 C-0.62 32.35, -0.24 23.28, 0 12.83 M0 38.49 C-0.51 32.49, -0.07 25.02, 0 12.83 M0 12.83 C0.83 4.42, 3.86 0.17, 12.83 0 M0 12.83 C0.65 5.61, 4.89 1.82, 12.83 0" stroke="#1e1e1e" stroke-width="2" fill="none"></path></g><g transform="translate(153.90895866802123 190.87311948040445) rotate(0 12.482349348287983 5.316168218126336)"><text x="0" y="0" font-family="Virgil, Segoe UI Emoji" font-size="8.505869149002121px" fill="#1e1e1e" text-anchor="start" style="white-space: pre;" direction="ltr" dominant-baseline="text-before-edge">Queue</text></g><g stroke-linecap="round" transform="translate(154.75954558292142 218.3753994446833) rotate(0 9.498211897101498 18.00409402502993)"><path d="M4.75 0 C7.32 0.86, 10.43 -0.07, 14.25 0 M4.75 0 C8.1 -0.29, 11.27 0.09, 14.25 0 M14.25 0 C18.72 -1.02, 18.91 -0.16, 19 4.75 M14.25 0 C19.42 -0.63, 17.54 1.87, 19 4.75 M19 4.75 C18.34 15.53, 19.05 23.39, 19 31.26 M19 4.75 C18.5 10.13, 18.48 16.43, 19 31.26 M19 31.26 C18.87 35.47, 15.88 37.58, 14.25 36.01 M19 31.26 C20.57 34.62, 19.36 35.1, 14.25 36.01 M14.25 36.01 C10.36 35.93, 8.93 36.74, 4.75 36.01 M14.25 36.01 C11.18 35.96, 8.16 35.88, 4.75 36.01 M4.75 36.01 C2.47 37.42, 0.08 33.2, 0 31.26 M4.75 36.01 C0.98 34.69, -0.77 36.41, 0 31.26 M0 31.26 C-1.89 22.81, 0.34 18.62, 0 4.75 M0 31.26 C-0.67 23.32, 0.11 15.24, 0 4.75 M0 4.75 C1.63 2.16, 3.15 -0.05, 4.75 0 M0 4.75 C-0.31 2.52, 0.94 0.05, 4.75 0" stroke="#1e1e1e" stroke-width="2" fill="none"></path></g><g stroke-linecap="round" transform="translate(226.20884643453928 218.80070588105968) rotate(0 9.498211897101498 18.00409402502993)"><path d="M1.26 1.1 C1.26 1.1, 1.26 1.1, 1.26 1.1 M1.26 1.1 C1.26 1.1, 1.26 1.1, 1.26 1.1 M0.74 13.89 C3.68 9.63, 7.08 4.92, 12.55 0.31 M0.74 13.89 C4.29 10.64, 6 7.48, 12.55 0.31 M0.87 25.94 C8.64 16.87, 13.61 11.26, 19.24 4.8 M0.87 25.94 C5.87 20.2, 9.26 14.85, 19.24 4.8 M2.98 35.71 C7.52 30.49, 13.54 19.56, 19.38 16.84 M2.98 35.71 C7.81 29.38, 13.58 23.44, 19.38 16.84 M13.61 35.68 C15.35 33.75, 17.52 31.92, 19.51 28.89 M13.61 35.68 C15.14 33.34, 17.18 31.29, 19.51 28.89" stroke="#a5d8ff" stroke-width="1" fill="none"></path><path d="M4.75 0 C7.12 0.84, 10.25 0.27, 14.25 0 M4.75 0 C8.82 -0.1, 12.34 -0.18, 14.25 0 M14.25 0 C16.47 -1.58, 20.35 3.48, 19 4.75 M14.25 0 C17.94 0.78, 20.11 1.18, 19 4.75 M19 4.75 C20.35 11.19, 17.07 19.42, 19 31.26 M19 4.75 C19.57 12.31, 18.78 20.25, 19 31.26 M19 31.26 C19.67 33.49, 15.76 37.16, 14.25 36.01 M19 31.26 C19.72 33.51, 18.29 37.27, 14.25 36.01 M14.25 36.01 C12.34 35.74, 10.4 35.29, 4.75 36.01 M14.25 36.01 C10.5 36.15, 7.92 35.6, 4.75 36.01 M4.75 36.01 C1.05 34.45, -0.01 35.13, 0 31.26 M4.75 36.01 C3.19 36.39, -1.59 34.61, 0 31.26 M0 31.26 C-0.35 24.25, 1.19 16.98, 0 4.75 M0 31.26 C1.1 23.69, -0.02 16.67, 0 4.75 M0 4.75 C-1.43 2.33, 0.57 -0.42, 4.75 0 M0 4.75 C-1.51 0.72, 3.2 -0.62, 4.75 0" stroke="#1e1e1e" stroke-width="2" fill="none"></path></g><g stroke-linecap="round" transform="translate(201.11650648713032 218.3754124236096) rotate(0 9.498211897101498 18.00409402502993)"><path d="M1.26 1.1 C1.26 1.1, 1.26 1.1, 1.26 1.1 M1.26 1.1 C1.26 1.1, 1.26 1.1, 1.26 1.1 M4.68 9.37 C5.59 7.47, 7.66 6.93, 9.27 4.08 M4.68 9.37 C6.46 7.38, 8.06 6.02, 9.27 4.08 M4.81 21.41 C7.24 17.82, 13.18 14.43, 19.9 4.05 M4.81 21.41 C9.39 18.17, 13.4 12.16, 19.9 4.05 M2.98 35.71 C9.99 27.59, 16.28 19.86, 20.03 16.09 M2.98 35.71 C6.91 32.02, 10.08 26.65, 20.03 16.09 M13.61 35.68 C15.81 32.32, 17.65 30.03, 20.17 28.13 M13.61 35.68 C15.07 33.36, 17.39 31.74, 20.17 28.13" stroke="#a5d8ff" stroke-width="1" fill="none"></path><path d="M4.75 0 C9.17 0.9, 11.87 0.8, 14.25 0 M4.75 0 C7.16 -0.34, 10.34 0.49, 14.25 0 M14.25 0 C17.87 0.68, 19.96 1.23, 19 4.75 M14.25 0 C16.44 -1.19, 19.66 3.29, 19 4.75 M19 4.75 C18.48 11.67, 20.38 20.9, 19 31.26 M19 4.75 C19.29 12.17, 18.13 21.11, 19 31.26 M19 31.26 C19.63 33.63, 18.18 37.11, 14.25 36.01 M19 31.26 C17.69 36.52, 19.15 36.98, 14.25 36.01 M14.25 36.01 C12.22 34.98, 9.54 35.1, 4.75 36.01 M14.25 36.01 C11.04 35.55, 8.09 36.09, 4.75 36.01 M4.75 36.01 C2.98 36.34, -1.39 34.59, 0 31.26 M4.75 36.01 C0.06 35.9, -2.01 34.01, 0 31.26 M0 31.26 C-0.6 22.39, 0.29 19.18, 0 4.75 M0 31.26 C-0.64 24.21, -0.43 16.19, 0 4.75 M0 4.75 C-1.31 0.83, 2.99 -0.54, 4.75 0 M0 4.75 C-2.16 2.32, 0.03 1.55, 4.75 0" stroke="#1e1e1e" stroke-width="2" fill="none"></path></g><g stroke-linecap="round" transform="translate(177.58358453632275 218.51716825680876) rotate(0 9.498211897101498 18.00409402502993)"><path d="M1.26 1.1 C1.26 1.1, 1.26 1.1, 1.26 1.1 M1.26 1.1 C1.26 1.1, 1.26 1.1, 1.26 1.1 M0.74 13.89 C3.87 9.1, 7.11 8.78, 12.55 0.31 M0.74 13.89 C2.89 10.28, 6.64 6.75, 12.55 0.31 M0.87 25.94 C5.73 18.01, 11.28 13.48, 19.24 4.8 M0.87 25.94 C8.97 16.9, 14.35 9.26, 19.24 4.8 M2.98 35.71 C6.26 31.75, 10.36 25.39, 19.38 16.84 M2.98 35.71 C9.41 29.01, 15.85 21.7, 19.38 16.84 M13.61 35.68 C14.45 33.85, 15.86 32.46, 19.51 28.89 M13.61 35.68 C14.74 34.28, 16.06 32.98, 19.51 28.89" stroke="#a5d8ff" stroke-width="1" fill="none"></path><path d="M4.75 0 C8.31 0.46, 11.91 -0.53, 14.25 0 M4.75 0 C6.96 0.07, 9.18 -0.17, 14.25 0 M14.25 0 C16.57 -1.03, 19.57 3.07, 19 4.75 M14.25 0 C16.96 -2.06, 20.15 1.26, 19 4.75 M19 4.75 C19.16 11.72, 19.89 19.97, 19 31.26 M19 4.75 C19.09 11.06, 19.16 18.71, 19 31.26 M19 31.26 C17.86 36.24, 18.92 36.86, 14.25 36.01 M19 31.26 C18.17 36.3, 15.51 37.17, 14.25 36.01 M14.25 36.01 C12.58 36.58, 9.57 35.67, 4.75 36.01 M14.25 36.01 C12.47 36.12, 9.7 36.08, 4.75 36.01 M4.75 36.01 C0.26 35.92, -1.75 34.07, 0 31.26 M4.75 36.01 C0.65 37.37, -2.16 33.92, 0 31.26 M0 31.26 C-0.46 25.38, 0.24 19.21, 0 4.75 M0 31.26 C-0.52 21.94, 0.84 13.09, 0 4.75 M0 4.75 C-1.88 2.22, 0.23 1.35, 4.75 0 M0 4.75 C1.37 3.57, 1.46 1.09, 4.75 0" stroke="#1e1e1e" stroke-width="2" fill="none"></path></g><g stroke-linecap="round"><g transform="translate(274.12522533534946 211.85424174973252) rotate(0 65.21168078091802 -0.7088181027747282)"><path d="M0.13 0.04 C21.95 -0.04, 108.81 -0.43, 130.33 -0.74 M-1.25 -0.98 C20.44 -1.38, 107.19 -2.54, 129.34 -2.51" stroke="#1e1e1e" stroke-width="2" fill="none"></path></g><g transform="translate(274.12522533534946 211.85424174973252) rotate(0 65.21168078091802 -0.7088181027747282)"><path d="M105.9 6.21 C111.95 3.81, 118.97 -0.14, 129.34 -2.51 M105.9 6.21 C111.47 4.49, 118.16 1.01, 129.34 -2.51" stroke="#1e1e1e" stroke-width="2" fill="none"></path></g><g transform="translate(274.12522533534946 211.85424174973252) rotate(0 65.21168078091802 -0.7088181027747282)"><path d="M105.78 -10.89 C111.82 -8.94, 118.87 -8.54, 129.34 -2.51 M105.78 -10.89 C111.42 -8.1, 118.14 -7.07, 129.34 -2.51" stroke="#1e1e1e" stroke-width="2" fill="none"></path></g></g><mask></mask><g stroke-linecap="round" transform="translate(299.64285874020845 216.81602038486096) rotate(0 9.498211897101498 18.00409402502993)"><path d="M1.26 1.1 C1.26 1.1, 1.26 1.1, 1.26 1.1 M1.26 1.1 C1.26 1.1, 1.26 1.1, 1.26 1.1 M0.74 13.89 C4.01 10.1, 5.22 7.66, 12.55 0.31 M0.74 13.89 C4.76 9.15, 7.75 4.47, 12.55 0.31 M0.87 25.94 C3.04 20.62, 8.18 16.48, 19.24 4.8 M0.87 25.94 C6.7 18.82, 10.81 12.46, 19.24 4.8 M2.98 35.71 C7.7 29.36, 14.39 23.54, 19.38 16.84 M2.98 35.71 C9.51 27.86, 15.76 22.2, 19.38 16.84 M13.61 35.68 C14.9 33.91, 17.03 31.14, 19.51 28.89 M13.61 35.68 C15.06 33.89, 16.41 33.13, 19.51 28.89" stroke="#a5d8ff" stroke-width="1" fill="none"></path><path d="M4.75 0 C5.87 -0.82, 7.79 -0.81, 14.25 0 M4.75 0 C8.41 -0.31, 11.69 -0.22, 14.25 0 M14.25 0 C15.86 -1.38, 18.55 0.84, 19 4.75 M14.25 0 C15.19 1.38, 16.71 1.07, 19 4.75 M19 4.75 C20.05 10.11, 19.16 15.81, 19 31.26 M19 4.75 C18.23 12.72, 18.98 21.8, 19 31.26 M19 31.26 C17.09 34.75, 18.78 35.89, 14.25 36.01 M19 31.26 C18.04 36.02, 17.07 37.84, 14.25 36.01 M14.25 36.01 C10.61 36.12, 9.55 35.21, 4.75 36.01 M14.25 36.01 C11.26 36.39, 8.79 36.41, 4.75 36.01 M4.75 36.01 C2.54 37.53, 0.36 34.18, 0 31.26 M4.75 36.01 C0.68 36.04, -0.15 36.52, 0 31.26 M0 31.26 C0.88 23.39, 0.69 11.94, 0 4.75 M0 31.26 C-0.29 22.85, 0.9 15.08, 0 4.75 M0 4.75 C-1.9 3, -0.3 0.63, 4.75 0 M0 4.75 C1.89 0.61, 2.85 -2.03, 4.75 0" stroke="#1e1e1e" stroke-width="2" fill="none"></path></g><g stroke-linecap="round" transform="translate(425.9128715329076 163.37080057934674) rotate(0 39.01651690246081 69.12360810819592)"><path d="M5.19 4.51 C5.19 4.51, 5.19 4.51, 5.19 4.51 M5.19 4.51 C5.19 4.51, 5.19 4.51, 5.19 4.51 M4.01 18.06 C9.53 11.89, 12.31 7.79, 19.76 -0.05 M4.01 18.06 C7.62 13.44, 13.19 6.89, 19.76 -0.05 M4.15 30.11 C11.4 19.32, 23.16 8.6, 30.39 -0.08 M4.15 30.11 C13.3 20.47, 21.46 10.61, 30.39 -0.08 M3.62 42.9 C17.6 25.38, 30.32 11.16, 41.02 -0.12 M3.62 42.9 C17.84 28.12, 31.45 11.18, 41.02 -0.12 M3.76 54.94 C21.61 34.84, 42.25 13.47, 50.99 0.6 M3.76 54.94 C19.48 35.43, 36.28 17.24, 50.99 0.6 M3.89 66.98 C24.55 42.95, 42.58 22.42, 61.62 0.57 M3.89 66.98 C21.5 46.32, 39.29 25.3, 61.62 0.57 M4.02 79.02 C16.72 64.66, 31.36 49.79, 68.32 5.06 M4.02 79.02 C17.25 62.74, 31.77 48.72, 68.32 5.06 M3.5 91.82 C32.28 57.09, 60.67 25.76, 76.32 8.05 M3.5 91.82 C19.8 74.44, 33.53 56.94, 76.32 8.05 M3.63 103.86 C30.81 73.83, 60.38 39.71, 81.05 14.8 M3.63 103.86 C26.79 78.24, 50.05 50.47, 81.05 14.8 M0.49 119.67 C17.01 98.04, 32.75 81.47, 83.15 24.58 M0.49 119.67 C21.51 93.93, 44.27 68.72, 83.15 24.58 M3.24 128.7 C19.39 110.58, 37.15 88.17, 83.28 36.62 M3.24 128.7 C33.51 94.41, 61.89 60.59, 83.28 36.62 M7.97 135.45 C26.96 115.58, 43.55 95.84, 83.42 48.66 M7.97 135.45 C27.18 115.49, 44.19 93.24, 83.42 48.66 M15.98 138.44 C41.2 108.1, 68.15 75.98, 83.55 60.7 M15.98 138.44 C38.81 112.37, 61.68 85.84, 83.55 60.7 M26.61 138.4 C42.71 120.84, 60.74 101.52, 83.03 73.5 M26.61 138.4 C45.93 116.47, 64.9 95.8, 83.03 73.5 M36.58 139.12 C51.34 121.67, 64.54 107.15, 83.16 85.54 M36.58 139.12 C51.43 123.68, 64.19 106.85, 83.16 85.54 M47.21 139.09 C62.22 122.23, 74.92 108.4, 83.29 97.58 M47.21 139.09 C58.81 126.52, 68.82 113.48, 83.29 97.58 M58.5 138.3 C69.22 127.28, 76.83 116.16, 83.43 109.62 M58.5 138.3 C64.72 131.12, 72.34 123.15, 83.43 109.62" stroke="#ffc9c9" stroke-width="1" fill="none"></path><path d="M19.51 0 C32.83 -1.26, 47.08 1.07, 58.52 0 M19.51 0 C27.96 0.99, 37.89 -0.58, 58.52 0 M58.52 0 C71.19 1.43, 76.22 8.27, 78.03 19.51 M58.52 0 C73.65 -1.68, 77.5 6.05, 78.03 19.51 M78.03 19.51 C79.74 60.01, 77.3 95.77, 78.03 118.74 M78.03 19.51 C77.17 46.85, 78.98 74.76, 78.03 118.74 M78.03 118.74 C78.81 129.95, 70.74 138.4, 58.52 138.25 M78.03 118.74 C76.42 132.06, 71.3 137.21, 58.52 138.25 M58.52 138.25 C50.97 138.7, 41.03 139.73, 19.51 138.25 M58.52 138.25 C42.76 137.53, 27.96 138.64, 19.51 138.25 M19.51 138.25 C7.13 138.4, -1.14 131.63, 0 118.74 M19.51 138.25 C7.38 139.2, -2.03 129.61, 0 118.74 M0 118.74 C1.37 83.63, -0.35 48.35, 0 19.51 M0 118.74 C-0.7 91.57, -0.07 65.81, 0 19.51 M0 19.51 C-0.97 7.58, 5.84 1.78, 19.51 0 M0 19.51 C0.73 5.77, 5.23 -0.51, 19.51 0" stroke="#1e1e1e" stroke-width="2" fill="none"></path></g><g transform="translate(446.36116638947 227.17824046941632) rotate(0 18.568222045898438 5.316168218126336)"><text x="18.568222045898438" y="0" font-family="Virgil, Segoe UI Emoji" font-size="8.505869149002121px" fill="#1e1e1e" text-anchor="middle" style="white-space: pre;" direction="ltr" dominant-baseline="text-before-edge">Resource</text></g><g stroke-linecap="round"><g transform="translate(309.0376263471484 257.95261915540203) rotate(0 5.5096461964062655 -0.08332902160273647)"><path d="M0.4 0.29 C2.16 0.41, 8.99 0.46, 10.72 0.33 M-0.06 -0.04 C1.87 -0.03, 10.07 -0.38, 11.8 -0.38" stroke="#1e1e1e" stroke-width="2" fill="none"></path></g><g transform="translate(309.0376263471484 257.95261915540203) rotate(0 5.5096461964062655 -0.08332902160273647)"><path d="M6.67 1.63 C8.49 0.81, 10.26 0.2, 11.8 -0.38 M6.67 1.63 C7.85 1.27, 9.23 0.75, 11.8 -0.38" stroke="#1e1e1e" stroke-width="2" fill="none"></path></g><g transform="translate(309.0376263471484 257.95261915540203) rotate(0 5.5096461964062655 -0.08332902160273647)"><path d="M6.58 -2.13 C8.41 -1.73, 10.22 -1.12, 11.8 -0.38 M6.58 -2.13 C7.78 -1.58, 9.19 -1.17, 11.8 -0.38" stroke="#1e1e1e" stroke-width="2" fill="none"></path></g></g><mask></mask><g stroke-linecap="round"><g transform="translate(310.04230007792364 257.90511961690896) rotate(0 -5.717495388059092 -0.17527815478459274)"><path d="M-0.12 -0.36 C-2.13 -0.48, -9.8 -0.39, -11.65 -0.47 M0.81 0.64 C-1.32 0.59, -10.15 0.36, -12.19 0.17" stroke="#1e1e1e" stroke-width="2" fill="none"></path></g><g transform="translate(310.04230007792364 257.90511961690896) rotate(0 -5.717495388059092 -0.17527815478459274)"><path d="M-6.72 -1.49 C-8.94 -0.99, -10.85 -0.14, -12.19 0.17 M-6.72 -1.49 C-7.76 -1.03, -8.89 -0.65, -12.19 0.17" stroke="#1e1e1e" stroke-width="2" fill="none"></path></g><g transform="translate(310.04230007792364 257.90511961690896) rotate(0 -5.717495388059092 -0.17527815478459274)"><path d="M-6.93 2.41 C-9.08 1.46, -10.91 0.86, -12.19 0.17 M-6.93 2.41 C-7.92 2.07, -9.01 1.63, -12.19 0.17" stroke="#1e1e1e" stroke-width="2" fill="none"></path></g></g><mask></mask><g transform="translate(289.45224689557506 264.46957527321484) rotate(0 20.635217659407772 5.316168218126336)"><text x="0" y="0" font-family="Virgil, Segoe UI Emoji" font-size="8.50586914900212px" fill="#1e1e1e" text-anchor="start" style="white-space: pre;" direction="ltr" dominant-baseline="text-before-edge">Fixed size</text></g><g stroke-linecap="round" transform="translate(323.18332678539684 217.58914051745643) rotate(0 9.498211897101498 18.00409402502993)"><path d="M1.26 1.1 C1.26 1.1, 1.26 1.1, 1.26 1.1 M1.26 1.1 C1.26 1.1, 1.26 1.1, 1.26 1.1 M0.74 13.89 C4.77 8.71, 9.68 6.21, 12.55 0.31 M0.74 13.89 C5.22 9.18, 9.77 4.33, 12.55 0.31 M0.87 25.94 C3.62 20.53, 9.75 15.26, 19.24 4.8 M0.87 25.94 C5.09 19.79, 9.49 14.99, 19.24 4.8 M2.98 35.71 C6.1 29.17, 14.26 25.23, 19.38 16.84 M2.98 35.71 C6.63 31.33, 12.39 26.73, 19.38 16.84 M13.61 35.68 C16.18 32.57, 18.1 30.7, 19.51 28.89 M13.61 35.68 C14.71 34.25, 16.86 32.56, 19.51 28.89" stroke="#a5d8ff" stroke-width="1" fill="none"></path><path d="M4.75 0 C5.94 0.77, 8.56 -0.53, 14.25 0 M4.75 0 C8.77 0.17, 11.83 -0.17, 14.25 0 M14.25 0 C16.13 1.78, 20.18 1.35, 19 4.75 M14.25 0 C18.83 -0.7, 19.42 1.03, 19 4.75 M19 4.75 C20.73 12.85, 17.78 20.56, 19 31.26 M19 4.75 C18.43 12.56, 19.72 19.2, 19 31.26 M19 31.26 C19.06 33.82, 16.13 36.09, 14.25 36.01 M19 31.26 C19.73 33.13, 18.81 37.87, 14.25 36.01 M14.25 36.01 C11.12 35.41, 9.27 35.68, 4.75 36.01 M14.25 36.01 C11.04 35.69, 7.07 35.65, 4.75 36.01 M4.75 36.01 C2.31 37.54, -1.37 35.45, 0 31.26 M4.75 36.01 C3.74 34.88, -0.4 33.68, 0 31.26 M0 31.26 C0.98 26.55, 1.43 18.09, 0 4.75 M0 31.26 C-0.59 23.47, 0.14 17.5, 0 4.75 M0 4.75 C0.89 3.03, 1.41 1.24, 4.75 0 M0 4.75 C-0.16 1.01, 3.81 -0.95, 4.75 0" stroke="#1e1e1e" stroke-width="2" fill="none"></path></g><g stroke-linecap="round" transform="translate(275.21224143129484 217.1882926778158) rotate(0 9.498211897101498 18.00409402502993)"><path d="M1.26 1.1 C1.26 1.1, 1.26 1.1, 1.26 1.1 M1.26 1.1 C1.26 1.1, 1.26 1.1, 1.26 1.1 M0.74 13.89 C5.21 10.83, 9.21 6.51, 12.55 0.31 M0.74 13.89 C3.7 9.32, 7.61 5.23, 12.55 0.31 M0.87 25.94 C8.6 18.77, 15.54 9.72, 19.24 4.8 M0.87 25.94 C5.95 21.32, 9.89 15.32, 19.24 4.8 M2.98 35.71 C8.27 30.86, 14.99 22.81, 19.38 16.84 M2.98 35.71 C7.49 29.47, 13.24 24.18, 19.38 16.84 M13.61 35.68 C14.52 34.4, 15.78 31.65, 19.51 28.89 M13.61 35.68 C14.73 33.85, 16.98 31.45, 19.51 28.89" stroke="#a5d8ff" stroke-width="1" fill="none"></path><path d="M4.75 0 C9.11 -0.37, 11.79 -0.27, 14.25 0 M4.75 0 C7.26 0.06, 10.67 0.38, 14.25 0 M14.25 0 C16.54 -0.98, 20.65 0.34, 19 4.75 M14.25 0 C16.63 0.85, 19.48 3.46, 19 4.75 M19 4.75 C20.68 16.58, 20.19 26.48, 19 31.26 M19 4.75 C19.79 14.67, 18.49 24.14, 19 31.26 M19 31.26 C17.57 32.76, 16.97 36.05, 14.25 36.01 M19 31.26 C18.27 33.56, 19.68 36.71, 14.25 36.01 M14.25 36.01 C11.96 35.82, 8.49 36.07, 4.75 36.01 M14.25 36.01 C12.34 35.92, 10.41 35.74, 4.75 36.01 M4.75 36.01 C0.37 36.98, 1.64 36.17, 0 31.26 M4.75 36.01 C2.17 34.86, 0.05 36.01, 0 31.26 M0 31.26 C-1.37 26.84, -1.86 19.38, 0 4.75 M0 31.26 C0.33 22.87, -0.59 13.72, 0 4.75 M0 4.75 C1.51 0.54, -0.16 -0.29, 4.75 0 M0 4.75 C-0.76 2.76, 2.95 1.6, 4.75 0" stroke="#1e1e1e" stroke-width="2" fill="none"></path></g><g stroke-linecap="round" transform="translate(348.17097682789733 217.85639687785414) rotate(0 9.498211897101498 18.00409402502993)"><path d="M1.26 1.1 C1.26 1.1, 1.26 1.1, 1.26 1.1 M1.26 1.1 C1.26 1.1, 1.26 1.1, 1.26 1.1 M0.74 13.89 C3.61 11.24, 5.02 9.41, 12.55 0.31 M0.74 13.89 C3.29 9.77, 8.17 6.82, 12.55 0.31 M0.87 25.94 C7.19 20.37, 12.23 12.7, 19.24 4.8 M0.87 25.94 C6.12 19.11, 12.65 12.61, 19.24 4.8 M2.98 35.71 C10.73 27.15, 14.6 20.66, 19.38 16.84 M2.98 35.71 C10.51 27.3, 16.87 20.48, 19.38 16.84 M13.61 35.68 C15.17 34.35, 15.61 33.18, 19.51 28.89 M13.61 35.68 C16.24 33.42, 18.56 29.97, 19.51 28.89" stroke="#a5d8ff" stroke-width="1" fill="none"></path><path d="M4.75 0 C8.47 -0.35, 12.77 -0.23, 14.25 0 M4.75 0 C8.19 -0.09, 11.08 0.19, 14.25 0 M14.25 0 C18.82 -1.37, 19.68 3.14, 19 4.75 M14.25 0 C18.26 2.07, 19.33 2.95, 19 4.75 M19 4.75 C17.73 14.05, 20.29 22.05, 19 31.26 M19 4.75 C19.46 13.13, 18.74 22.72, 19 31.26 M19 31.26 C17.96 35.18, 19.21 34.91, 14.25 36.01 M19 31.26 C20.16 34.71, 15.59 33.92, 14.25 36.01 M14.25 36.01 C10.78 36.24, 9.35 36.14, 4.75 36.01 M14.25 36.01 C12.07 35.7, 9.08 36.4, 4.75 36.01 M4.75 36.01 C0.41 36.81, -1.45 32.64, 0 31.26 M4.75 36.01 C1.03 37.91, 1.96 32.14, 0 31.26 M0 31.26 C-0.63 24.12, -1.05 15.49, 0 4.75 M0 31.26 C-0.62 21.84, 1.03 11.15, 0 4.75 M0 4.75 C-0.84 0.29, 3.17 -1.66, 4.75 0 M0 4.75 C-1.04 0.51, 0.3 1.42, 4.75 0" stroke="#1e1e1e" stroke-width="2" fill="none"></path></g><g stroke-linecap="round" transform="translate(372.6241875515145 217.054652263965) rotate(0 9.498211897101498 18.00409402502993)"><path d="M1.26 1.1 C1.26 1.1, 1.26 1.1, 1.26 1.1 M1.26 1.1 C1.26 1.1, 1.26 1.1, 1.26 1.1 M0.74 13.89 C6.19 9.05, 10.17 3.94, 12.55 0.31 M0.74 13.89 C4.37 9.62, 6.22 7.13, 12.55 0.31 M0.87 25.94 C8.12 18.39, 13.09 13.86, 19.24 4.8 M0.87 25.94 C7.52 19, 14.2 11.29, 19.24 4.8 M2.98 35.71 C6.36 31.63, 10.2 26.06, 19.38 16.84 M2.98 35.71 C8.77 29.1, 13.7 23.15, 19.38 16.84 M13.61 35.68 C15.26 33.49, 16.63 32.94, 19.51 28.89 M13.61 35.68 C16.09 32.94, 17.8 30.85, 19.51 28.89" stroke="#a5d8ff" stroke-width="1" fill="none"></path><path d="M4.75 0 C9.14 0.92, 12.87 -0.7, 14.25 0 M4.75 0 C7.69 -0.11, 10.1 0.09, 14.25 0 M14.25 0 C15.58 -1.98, 19.57 1.96, 19 4.75 M14.25 0 C19.68 -0.46, 18.1 0.43, 19 4.75 M19 4.75 C18.95 12.35, 17.86 17.37, 19 31.26 M19 4.75 C19.81 13.92, 19 25.48, 19 31.26 M19 31.26 C18.69 33.8, 16.04 34.75, 14.25 36.01 M19 31.26 C18.05 36.38, 16.94 36.98, 14.25 36.01 M14.25 36.01 C11.7 36.98, 7.77 35.37, 4.75 36.01 M14.25 36.01 C12.34 36.27, 9.93 36.33, 4.75 36.01 M4.75 36.01 C2.85 36.35, -0.62 32.48, 0 31.26 M4.75 36.01 C1.35 33.99, 1.32 35.32, 0 31.26 M0 31.26 C0.75 23.62, 1.01 15.02, 0 4.75 M0 31.26 C-0.58 21.49, 0.48 10.02, 0 4.75 M0 4.75 C1.13 3.2, 3.44 1.65, 4.75 0 M0 4.75 C-0.83 -0.08, 3.31 -0.71, 4.75 0" stroke="#1e1e1e" stroke-width="2" fill="none"></path></g><g transform="translate(273.6196446804962 192.29902539247593) rotate(0 38.62936333741817 5.316168218126336)"><text x="0" y="0" font-family="Virgil, Segoe UI Emoji" font-size="8.505869149002121px" fill="#1e1e1e" text-anchor="start" style="white-space: pre;" direction="ltr" dominant-baseline="text-before-edge">Limited throughput</text></g><g stroke-linecap="round"><g transform="translate(306.41647668322605 296.3912983634261) rotate(0 51.748197424840896 -1.5776818261257404)"><path d="M0.35 1.16 C17.43 0.69, 86 -2.27, 103.06 -2.97 M-0.92 0.72 C15.91 0.48, 84.2 -0.93, 101.88 -1.33" stroke="#1e1e1e" stroke-width="2" fill="none"></path></g><g transform="translate(306.41647668322605 296.3912983634261) rotate(0 51.748197424840896 -1.5776818261257404)"><path d="M78.58 7.72 C88.61 3.79, 95.06 0.07, 101.88 -1.33 M78.58 7.72 C85.41 5.71, 93.69 1.91, 101.88 -1.33" stroke="#1e1e1e" stroke-width="2" fill="none"></path></g><g transform="translate(306.41647668322605 296.3912983634261) rotate(0 51.748197424840896 -1.5776818261257404)"><path d="M78.21 -9.38 C88.35 -7.38, 94.93 -5.17, 101.88 -1.33 M78.21 -9.38 C85.22 -6.12, 93.62 -4.66, 101.88 -1.33" stroke="#1e1e1e" stroke-width="2" fill="none"></path></g></g><mask></mask><g stroke-linecap="round"><g transform="translate(339.38160729930314 297.0819468029869) rotate(0 -36.07542139680771 0.092938744766343)"><path d="M0.5 -0.17 C-11.45 -0.07, -59.87 0.25, -71.97 0.46 M-0.7 -1.3 C-12.76 -1.58, -60.8 -1.6, -72.82 -1.51" stroke="#1e1e1e" stroke-width="2" fill="none"></path></g><g transform="translate(339.38160729930314 297.0819468029869) rotate(0 -36.07542139680771 0.092938744766343)"><path d="M-49.35 -10.12 C-56.11 -7.35, -61.84 -5.17, -72.82 -1.51 M-49.35 -10.12 C-58.16 -7.89, -66.3 -3.87, -72.82 -1.51" stroke="#1e1e1e" stroke-width="2" fill="none"></path></g><g transform="translate(339.38160729930314 297.0819468029869) rotate(0 -36.07542139680771 0.092938744766343)"><path d="M-49.31 6.98 C-56.07 5.04, -61.81 2.49, -72.82 -1.51 M-49.31 6.98 C-58.16 2.78, -66.31 0.37, -72.82 -1.51" stroke="#1e1e1e" stroke-width="2" fill="none"></path></g></g><mask></mask><g transform="translate(306.6248142637993 304.54329580425116) rotate(0 16.22918691484091 5.316168218126336)"><text x="0" y="0" font-family="Virgil, Segoe UI Emoji" font-size="8.505869149002121px" fill="#1e1e1e" text-anchor="start" style="white-space: pre;" direction="ltr" dominant-baseline="text-before-edge">Latency</text></g><g stroke-linecap="round"><g transform="translate(81.06733363422188 133.771693045877) rotate(0 -35.276763011119556 32.73790098925346)"><path d="M0.05 0.77 C-11.48 5.65, -63.18 18.17, -69.69 28.98 C-76.21 39.79, -44.34 59.68, -39.04 65.62 M-1.38 0.12 C-12.95 5.23, -63.74 19.29, -70.19 30.44 C-76.64 41.59, -45.58 61.21, -40.1 67.01" stroke="#1e1e1e" stroke-width="2" fill="none"></path></g><g transform="translate(81.06733363422188 133.771693045877) rotate(0 -35.276763011119556 32.73790098925346)"><path d="M-62.95 58.93 C-55.77 62.45, -51.38 62.18, -40.1 67.01 M-62.95 58.93 C-56.36 61.74, -48.09 63.5, -40.1 67.01" stroke="#1e1e1e" stroke-width="2" fill="none"></path></g><g transform="translate(81.06733363422188 133.771693045877) rotate(0 -35.276763011119556 32.73790098925346)"><path d="M-52.41 46.13 C-48 52.97, -46.33 56.02, -40.1 67.01 M-52.41 46.13 C-49.05 52.85, -44.06 58.6, -40.1 67.01" stroke="#1e1e1e" stroke-width="2" fill="none"></path></g></g><mask></mask><g stroke-linecap="round" transform="translate(86.40136039311255 122.98330054584878) rotate(0 6.424861621744014 7.447785864273058)"><path d="M0.35 1.63 C0.35 1.63, 0.35 1.63, 0.35 1.63 M0.35 1.63 C0.35 1.63, 0.35 1.63, 0.35 1.63 M0.49 13.67 C3.6 9.84, 7.49 4.71, 11.64 0.84 M0.49 13.67 C3.91 9.8, 7.41 5.93, 11.64 0.84 M9.8 15.15 C11.11 13.6, 12.33 12.46, 13.08 11.37 M9.8 15.15 C10.93 13.81, 12.39 12.33, 13.08 11.37 M1.8 14.69 C1.8 14.69, 1.8 14.69, 1.8 14.69 M1.8 14.69 C1.8 14.69, 1.8 14.69, 1.8 14.69 M12.34 13.25 C8.97 10.6, 6.19 7.48, 1.01 3.41 M12.34 13.25 C9.25 10.12, 5.69 7.4, 1.01 3.41 M13.06 3.27 C11.48 1.79, 9.62 -0.01, 8.53 -0.66 M13.06 3.27 C11.79 2.16, 10.7 1.27, 8.53 -0.66" stroke="#b2f2bb" stroke-width="1" fill="none"></path><path d="M3.21 0 C4.23 0.27, 6.08 -0.07, 9.64 0 M3.21 0 C5.35 0.01, 7.23 0, 9.64 0 M9.64 0 C12.01 0.74, 11.85 0.32, 12.85 3.21 M9.64 0 C11.15 -0.94, 13.66 0.25, 12.85 3.21 M12.85 3.21 C13.11 5.77, 13.04 8.16, 12.85 11.68 M12.85 3.21 C12.89 5.69, 12.74 8.51, 12.85 11.68 M12.85 11.68 C12.28 13.84, 10.87 15.4, 9.64 14.9 M12.85 11.68 C12.69 13.02, 10.73 14.73, 9.64 14.9 M9.64 14.9 C7.42 15.1, 5.03 15.17, 3.21 14.9 M9.64 14.9 C8.2 14.87, 7.01 14.86, 3.21 14.9 M3.21 14.9 C1.73 14.19, 0.66 14.82, 0 11.68 M3.21 14.9 C1.61 15.18, 0.73 13.52, 0 11.68 M0 11.68 C0.35 9.31, -0.13 6.43, 0 3.21 M0 11.68 C-0.08 9.03, 0.11 6.66, 0 3.21 M0 3.21 C0.11 0.54, 1.34 -0.22, 3.21 0 M0 3.21 C-0.13 1.16, 1.83 -0.21, 3.21 0" stroke="#1e1e1e" stroke-width="2" fill="none"></path></g><g stroke-linecap="round" transform="translate(159.3601569579747 241.24061886083615) rotate(0 5.489488827656089 4.90893607605895)"><path d="M0.65 0.57 C0.65 0.57, 0.65 0.57, 0.65 0.57 M0.65 0.57 C0.65 0.57, 0.65 0.57, 0.65 0.57 M3.41 9.59 C5.95 6.68, 7.65 4.21, 10.63 1.29 M3.41 9.59 C5.92 6.54, 8.78 3.68, 10.63 1.29 M0.99 9.53 C0.99 9.53, 0.99 9.53, 0.99 9.53 M0.99 9.53 C0.99 9.53, 0.99 9.53, 0.99 9.53 M10.77 7.43 C7.91 5.25, 5.41 2.73, 1.71 -0.44 M10.77 7.43 C7.98 4.54, 4.48 2.34, 1.71 -0.44" stroke="#b2f2bb" stroke-width="1" fill="none"></path><path d="M2.45 0 C4.21 -0.13, 6.42 -0.11, 8.52 0 M2.45 0 C3.84 -0.05, 5.04 -0.12, 8.52 0 M8.52 0 C10.89 0.56, 11.56 0.81, 10.98 2.45 M8.52 0 C9.81 -0.08, 11.67 1.83, 10.98 2.45 M10.98 2.45 C11.06 3.67, 10.89 5.14, 10.98 7.36 M10.98 2.45 C10.84 3.8, 11.03 5.32, 10.98 7.36 M10.98 7.36 C11.05 9.76, 10.39 10.34, 8.52 9.82 M10.98 7.36 C10.78 8.53, 10.69 10.69, 8.52 9.82 M8.52 9.82 C6.72 9.54, 4.28 9.63, 2.45 9.82 M8.52 9.82 C6.79 9.69, 4.83 9.75, 2.45 9.82 M2.45 9.82 C0.08 10.45, -0.82 9.7, 0 7.36 M2.45 9.82 C0.66 10.81, -0.6 8, 0 7.36 M0 7.36 C0.19 5.72, 0.02 3.94, 0 2.45 M0 7.36 C0.03 5.89, -0.06 4.64, 0 2.45 M0 2.45 C-0.35 0.96, 1.34 0.45, 2.45 0 M0 2.45 C0.56 -0.06, 1.73 -0.27, 2.45 0" stroke="#1e1e1e" stroke-width="2" fill="none"></path></g><g stroke-linecap="round"><g transform="translate(783.8162687144455 101.55512011851488) rotate(0 0.28352464532463273 101.21984287312526)"><path d="M-0.34 0.58 C-0.37 34.25, 0.13 167.84, 0.14 201.4 M1.69 -0.17 C1.43 33.67, -1.11 168.54, -1.03 202.39" stroke="#1e1e1e" stroke-width="2" fill="none"></path></g></g><mask></mask><g stroke-linecap="round"><g transform="translate(932.9056817015436 101.72640940776625) rotate(0 0.28353762425092555 102.3539674122764)"><path d="M-0.42 -1.04 C-0.41 32.89, -0.58 169.87, -0.25 204.17 M1.56 1.03 C1.98 35.07, 2.08 171.25, 2.03 205.43" stroke="#1e1e1e" stroke-width="2" fill="none"></path></g></g><mask></mask><g transform="translate(801.905290225022 82.14965817286247) rotate(0 53.902516050522536 7.442635505376856)"><text x="0" y="0" font-family="Virgil, Segoe UI Emoji" font-size="11.908216808602969px" fill="#1e1e1e" text-anchor="start" style="white-space: pre;" direction="ltr" dominant-baseline="text-before-edge">Interaction buffer</text></g><g stroke-linecap="round" transform="translate(572.5872021527949 189.44910997748764) rotate(0 103.91337242995132 25.659363280205525)"><path d="M12.83 0 C55.1 0.14, 96.69 -2.72, 195 0 M12.83 0 C72.74 1.68, 134.77 2.65, 195 0 M195 0 C204.96 -1.36, 208.05 5.72, 207.83 12.83 M195 0 C201.79 1.35, 207.1 2.06, 207.83 12.83 M207.83 12.83 C209.12 20.88, 207.01 32.83, 207.83 38.49 M207.83 12.83 C208.41 19.35, 208.77 24.68, 207.83 38.49 M207.83 38.49 C207.51 48.61, 203.15 52.62, 195 51.32 M207.83 38.49 C209.8 47.41, 202.49 50.92, 195 51.32 M195 51.32 C128.86 50.38, 62.13 51.82, 12.83 51.32 M195 51.32 C147.99 48.9, 100.96 50.47, 12.83 51.32 M12.83 51.32 C5.28 52.25, 1.4 46.51, 0 38.49 M12.83 51.32 C2.3 49.4, 1.83 48.54, 0 38.49 M0 38.49 C0.02 29.32, -1.45 19.29, 0 12.83 M0 38.49 C0.73 31.21, -0.36 23.08, 0 12.83 M0 12.83 C1.87 5.22, 3.65 -1.69, 12.83 0 M0 12.83 C-1.31 3.17, 4.58 1.84, 12.83 0" stroke="#1e1e1e" stroke-width="2" fill="none"></path></g><g transform="translate(678.9105665153212 170.16913558010742) rotate(0 12.482349348287926 5.316168218126336)"><text x="0" y="0" font-family="Virgil, Segoe UI Emoji" font-size="8.505869149002121px" fill="#1e1e1e" text-anchor="start" style="white-space: pre;" direction="ltr" dominant-baseline="text-before-edge">Queue</text></g><g stroke-linecap="round" transform="translate(679.7611534302215 197.67141554438626) rotate(0 9.498211897101442 18.00409402502993)"><path d="M4.75 0 C8.69 -0.19, 11.09 -0.83, 14.25 0 M4.75 0 C7.88 -0.41, 10.4 0.25, 14.25 0 M14.25 0 C15.88 1.18, 18.36 -0.34, 19 4.75 M14.25 0 C19.03 1.2, 21.18 2.91, 19 4.75 M19 4.75 C17.26 11.19, 20.17 17.85, 19 31.26 M19 4.75 C19.07 15.83, 19.03 26, 19 31.26 M19 31.26 C20.71 34.74, 16.49 35.66, 14.25 36.01 M19 31.26 C20.38 33.12, 16.97 35.38, 14.25 36.01 M14.25 36.01 C11.29 35.5, 8.19 36.34, 4.75 36.01 M14.25 36.01 C12.27 36.31, 10.15 35.97, 4.75 36.01 M4.75 36.01 C-0.14 34.34, 1.59 35.73, 0 31.26 M4.75 36.01 C2.68 34.29, 1.32 34.23, 0 31.26 M0 31.26 C0.06 25.25, -1.7 17.9, 0 4.75 M0 31.26 C0.98 23.22, -0.27 13.39, 0 4.75 M0 4.75 C-1.14 0.62, 1.84 1.6, 4.75 0 M0 4.75 C0.36 2.31, -0.53 -1.91, 4.75 0" stroke="#1e1e1e" stroke-width="2" fill="none"></path></g><g stroke-linecap="round" transform="translate(751.2104542818394 198.0967219807627) rotate(0 9.498211897101442 18.00409402502993)"><path d="M1.26 1.1 C1.26 1.1, 1.26 1.1, 1.26 1.1 M1.26 1.1 C1.26 1.1, 1.26 1.1, 1.26 1.1 M0.74 13.89 C6.08 8.82, 8.39 5.68, 12.55 0.31 M0.74 13.89 C5.18 9.45, 9.6 3.7, 12.55 0.31 M0.87 25.94 C8.58 19.96, 11.9 13.06, 19.24 4.8 M0.87 25.94 C7.34 17.7, 14.69 11.24, 19.24 4.8 M2.98 35.71 C9.45 28.31, 14.13 19.04, 19.38 16.84 M2.98 35.71 C8.72 29.21, 14.89 22.26, 19.38 16.84 M13.61 35.68 C15.67 33.63, 15.44 31.81, 19.51 28.89 M13.61 35.68 C14.73 33.89, 16.78 32.59, 19.51 28.89" stroke="#a5d8ff" stroke-width="1" fill="none"></path><path d="M4.75 0 C6.1 -0.86, 9.21 0.26, 14.25 0 M4.75 0 C8.52 0.41, 11.82 0.34, 14.25 0 M14.25 0 C16.78 -1.93, 20.4 2.63, 19 4.75 M14.25 0 C19.6 1.33, 17.32 0.49, 19 4.75 M19 4.75 C20.08 15.07, 20.55 25.07, 19 31.26 M19 4.75 C18.75 14.89, 19.81 23.89, 19 31.26 M19 31.26 C18.07 34.08, 18.62 34.87, 14.25 36.01 M19 31.26 C18.55 33.8, 16.74 34.08, 14.25 36.01 M14.25 36.01 C10.08 36.25, 7.11 36.52, 4.75 36.01 M14.25 36.01 C10.87 35.93, 6.42 35.66, 4.75 36.01 M4.75 36.01 C3.18 37.31, 0.95 32.93, 0 31.26 M4.75 36.01 C2.9 35.81, -0.29 32.54, 0 31.26 M0 31.26 C-1.9 26.98, 0.44 18.65, 0 4.75 M0 31.26 C-0.56 23.59, -0.82 17.13, 0 4.75 M0 4.75 C0.26 3.19, 1.9 0.63, 4.75 0 M0 4.75 C-2.11 -0.33, 0.32 2.23, 4.75 0" stroke="#1e1e1e" stroke-width="2" fill="none"></path></g><g stroke-linecap="round" transform="translate(726.1181143344303 197.67142852331256) rotate(0 9.498211897101442 18.00409402502993)"><path d="M1.26 1.1 C1.26 1.1, 1.26 1.1, 1.26 1.1 M1.26 1.1 C1.26 1.1, 1.26 1.1, 1.26 1.1 M0.74 13.89 C4.11 10.48, 8.58 5.35, 12.55 0.31 M0.74 13.89 C3.19 10.83, 6.64 7.48, 12.55 0.31 M0.87 25.94 C3.92 21.89, 12.32 14.92, 19.24 4.8 M0.87 25.94 C6.2 21.2, 11.57 15.01, 19.24 4.8 M2.98 35.71 C7.88 26.41, 17.48 19.16, 19.38 16.84 M2.98 35.71 C8.94 29.08, 15.19 20.26, 19.38 16.84 M13.61 35.68 C14.46 32.87, 16.44 31.3, 19.51 28.89 M13.61 35.68 C15.29 34.29, 16.45 32.31, 19.51 28.89" stroke="#a5d8ff" stroke-width="1" fill="none"></path><path d="M4.75 0 C7.3 0.33, 10.82 0.76, 14.25 0 M4.75 0 C6.59 0.21, 9 -0.53, 14.25 0 M14.25 0 C18.82 1.04, 20.9 2.74, 19 4.75 M14.25 0 C15.74 -1.09, 20.14 -0.27, 19 4.75 M19 4.75 C20.94 15.03, 20.33 21.44, 19 31.26 M19 4.75 C19.8 14.93, 18.48 24.63, 19 31.26 M19 31.26 C20.2 33.29, 17.03 35.46, 14.25 36.01 M19 31.26 C18.33 32.49, 18.39 35.08, 14.25 36.01 M14.25 36.01 C11.31 36.61, 10.5 36.51, 4.75 36.01 M14.25 36.01 C10.55 35.59, 8.05 36.29, 4.75 36.01 M4.75 36.01 C2.53 34.51, 1.15 34.25, 0 31.26 M4.75 36.01 C1.29 34.12, -1.56 34.24, 0 31.26 M0 31.26 C0.68 20.87, -0.6 12.97, 0 4.75 M0 31.26 C-0.49 21.58, 0.21 13.66, 0 4.75 M0 4.75 C0.31 2.22, -0.25 -1.66, 4.75 0 M0 4.75 C-1.26 3.82, 0.58 -1.01, 4.75 0" stroke="#1e1e1e" stroke-width="2" fill="none"></path></g><g stroke-linecap="round" transform="translate(702.5851923836227 197.81318435651167) rotate(0 9.498211897101442 18.00409402502993)"><path d="M1.26 1.1 C1.26 1.1, 1.26 1.1, 1.26 1.1 M1.26 1.1 C1.26 1.1, 1.26 1.1, 1.26 1.1 M4.68 9.37 C6.41 7.57, 6.49 6.55, 9.27 4.08 M4.68 9.37 C6.6 7.34, 8.06 5.61, 9.27 4.08 M4.81 21.41 C11.93 15.69, 15.48 7.98, 19.9 4.05 M4.81 21.41 C9.36 17.21, 13.15 12.78, 19.9 4.05 M2.98 35.71 C9.86 28.28, 15.39 22.74, 20.03 16.09 M2.98 35.71 C8.7 27.7, 15.79 21.65, 20.03 16.09 M13.61 35.68 C14.63 33.42, 16.05 31.43, 20.17 28.13 M13.61 35.68 C15.37 33.36, 17.31 31.84, 20.17 28.13" stroke="#a5d8ff" stroke-width="1" fill="none"></path><path d="M4.75 0 C7.58 0.64, 8.02 0.08, 14.25 0 M4.75 0 C8.13 -0.51, 12.15 0.19, 14.25 0 M14.25 0 C19.31 1.15, 17.54 0.63, 19 4.75 M14.25 0 C18.56 -1.85, 19.48 3.07, 19 4.75 M19 4.75 C20.39 13.78, 20.79 23.04, 19 31.26 M19 4.75 C18.76 14.25, 19.82 23.53, 19 31.26 M19 31.26 C18.61 33.88, 16.83 34.33, 14.25 36.01 M19 31.26 C19.97 33.5, 16.09 33.79, 14.25 36.01 M14.25 36.01 C11.96 36.54, 8.4 36.73, 4.75 36.01 M14.25 36.01 C12.03 36.24, 9.28 35.57, 4.75 36.01 M4.75 36.01 C2.73 35.83, -0.25 32.78, 0 31.26 M4.75 36.01 C0.02 35.82, 1.85 32.22, 0 31.26 M0 31.26 C-0.91 22.69, 0.88 9.76, 0 4.75 M0 31.26 C0.28 26.35, 0.31 20.15, 0 4.75 M0 4.75 C-1.83 -0.08, 0.48 1.94, 4.75 0 M0 4.75 C-1.01 0.57, -0.12 -0.63, 4.75 0" stroke="#1e1e1e" stroke-width="2" fill="none"></path></g><g stroke-linecap="round"><g transform="translate(799.1268331826496 191.15025784943543) rotate(0 65.21168078091796 -0.7088181027747282)"><path d="M0.84 -0.82 C22.55 -1.09, 109.11 -0.57, 130.55 -0.55 M-0.17 1.37 C21.36 1.28, 107.66 -1.55, 129.68 -2.22" stroke="#1e1e1e" stroke-width="2" fill="none"></path></g><g transform="translate(799.1268331826496 191.15025784943543) rotate(0 65.21168078091796 -0.7088181027747282)"><path d="M106.46 7.06 C112.56 4.1, 122.91 -0.67, 129.68 -2.22 M106.46 7.06 C115.53 4.47, 124.1 1.2, 129.68 -2.22" stroke="#1e1e1e" stroke-width="2" fill="none"></path></g><g transform="translate(799.1268331826496 191.15025784943543) rotate(0 65.21168078091796 -0.7088181027747282)"><path d="M105.93 -10.03 C112.36 -7.44, 122.88 -6.66, 129.68 -2.22 M105.93 -10.03 C115.13 -6.48, 123.9 -3.62, 129.68 -2.22" stroke="#1e1e1e" stroke-width="2" fill="none"></path></g></g><mask></mask><g stroke-linecap="round" transform="translate(824.6444665875084 196.11203648456387) rotate(0 9.498211897101442 18.00409402502993)"><path d="M1.26 1.1 C1.26 1.1, 1.26 1.1, 1.26 1.1 M1.26 1.1 C1.26 1.1, 1.26 1.1, 1.26 1.1 M4.68 9.37 C6.32 7.92, 6.98 7.25, 9.27 4.08 M4.68 9.37 C6.26 7.48, 7.67 6.54, 9.27 4.08 M4.81 21.41 C8.99 16.28, 16.8 11.3, 19.9 4.05 M4.81 21.41 C9.53 15.05, 13.4 11.04, 19.9 4.05 M2.98 35.71 C8.04 30.33, 12.11 25.61, 20.03 16.09 M2.98 35.71 C6.64 29.77, 10.55 25.17, 20.03 16.09 M13.61 35.68 C14.83 34.54, 17.17 32.28, 20.17 28.13 M13.61 35.68 C14.94 34.28, 16.19 31.85, 20.17 28.13" stroke="#a5d8ff" stroke-width="1" fill="none"></path><path d="M4.75 0 C8.95 -0.74, 12.34 -0.31, 14.25 0 M4.75 0 C7.13 0.22, 8.27 -0.28, 14.25 0 M14.25 0 C18.41 -1.61, 19.41 2.88, 19 4.75 M14.25 0 C18.62 2.04, 21.04 2.92, 19 4.75 M19 4.75 C20.5 13.99, 19.52 18.88, 19 31.26 M19 4.75 C18.96 11.97, 18.86 18.9, 19 31.26 M19 31.26 C19.84 33.62, 16.26 34.08, 14.25 36.01 M19 31.26 C19.71 32.89, 18.79 38.09, 14.25 36.01 M14.25 36.01 C10.67 35.26, 6.8 36.83, 4.75 36.01 M14.25 36.01 C11.05 35.9, 7.25 35.55, 4.75 36.01 M4.75 36.01 C0.22 35.85, 1.6 32.51, 0 31.26 M4.75 36.01 C3.74 36.49, -0.36 33.45, 0 31.26 M0 31.26 C-1.81 19.69, -1.09 10.66, 0 4.75 M0 31.26 C-0.96 20.35, -0.59 12.08, 0 4.75 M0 4.75 C-0.87 0.71, 0.1 -0.55, 4.75 0 M0 4.75 C1.6 3.68, 1.9 -0.09, 4.75 0" stroke="#1e1e1e" stroke-width="2" fill="none"></path></g><g stroke-linecap="round" transform="translate(946.9144183450513 156.6668166790497) rotate(0 44.34986040832018 61.79026460233652)"><path d="M5.25 5.89 C5.25 5.89, 5.25 5.89, 5.25 5.89 M5.25 5.89 C5.25 5.89, 5.25 5.89, 5.25 5.89 M0.79 23.21 C6.42 17.96, 11.4 10.14, 20.47 0.57 M0.79 23.21 C8.7 15.91, 15.25 6.73, 20.47 0.57 M0.26 36.01 C10.84 27.52, 18.5 17.51, 31.76 -0.22 M0.26 36.01 C8.99 25.91, 18.76 14.97, 31.76 -0.22 M0.4 48.05 C11.85 35.22, 19.02 25.12, 41.73 0.5 M0.4 48.05 C15.46 29.71, 31.63 11.47, 41.73 0.5 M0.53 60.09 C13.19 46.68, 23.04 34.1, 52.36 0.46 M0.53 60.09 C15.75 40.81, 32.91 24.41, 52.36 0.46 M0.66 72.13 C21.09 46.52, 45.23 22.81, 62.99 0.43 M0.66 72.13 C19.98 50.28, 40.21 27.99, 62.99 0.43 M0.14 84.92 C18.05 61.52, 39.88 41.66, 72.96 1.15 M0.14 84.92 C13.83 67.43, 30.77 51.34, 72.96 1.15 M0.27 96.96 C29.12 64.83, 60.56 28.59, 80.97 4.13 M0.27 96.96 C23.53 69.02, 48.43 41.49, 80.97 4.13 M1.72 107.5 C31.53 76.32, 60.45 41.69, 86.35 10.14 M1.72 107.5 C23.17 82.05, 44.16 58.96, 86.35 10.14 M4.48 116.52 C29.24 89.88, 51.35 65, 88.45 19.91 M4.48 116.52 C26 93.37, 45.03 70.87, 88.45 19.91 M11.17 121.01 C32.52 96.7, 53.24 71.24, 89.24 31.2 M11.17 121.01 C41 87.01, 69.71 53.74, 89.24 31.2 M19.83 123.24 C44.99 94.03, 68.83 63.49, 88.72 44 M19.83 123.24 C40.4 100.36, 61.58 75.45, 88.72 44 M30.46 123.21 C45.91 105.3, 61.86 89.9, 88.85 56.04 M30.46 123.21 C50.42 99.69, 71.78 75.7, 88.85 56.04 M41.09 123.17 C57.3 105.59, 72.56 86.91, 88.98 68.08 M41.09 123.17 C50.73 111.62, 61.05 99.22, 88.98 68.08 M51.07 123.89 C62.99 107.67, 75.05 95.51, 89.12 80.12 M51.07 123.89 C59.59 114.31, 70.16 102.05, 89.12 80.12 M61.7 123.86 C69.06 117.75, 73.73 108.93, 89.25 92.16 M61.7 123.86 C70.92 113.37, 81.52 101.85, 89.25 92.16 M73.64 122.31 C78.76 118.27, 84.8 109.35, 88.07 105.71 M73.64 122.31 C78.91 117.04, 82.88 110.79, 88.07 105.71" stroke="#ffc9c9" stroke-width="1" fill="none"></path><path d="M22.17 0 C37.14 -0.29, 47.83 1.75, 66.52 0 M22.17 0 C37.07 -0.73, 53.91 -1.06, 66.52 0 M66.52 0 C81.73 1.3, 89.75 9.16, 88.7 22.17 M66.52 0 C83.35 1.33, 88.33 9.19, 88.7 22.17 M88.7 22.17 C89.53 43.44, 88.87 67.75, 88.7 101.41 M88.7 22.17 C88.26 40.61, 88.97 60.32, 88.7 101.41 M88.7 101.41 C87.55 114.26, 81.93 122.24, 66.52 123.58 M88.7 101.41 C90.08 118.27, 82.46 124.65, 66.52 123.58 M66.52 123.58 C48.45 124.79, 35.01 124.15, 22.17 123.58 M66.52 123.58 C56.41 122.72, 45.86 123.46, 22.17 123.58 M22.17 123.58 C9 121.66, 1.87 116.61, 0 101.41 M22.17 123.58 C7.03 122.6, 2.15 117.27, 0 101.41 M0 101.41 C-0.29 80.38, 2.27 59.15, 0 22.17 M0 101.41 C0.18 76.09, 0.29 48.4, 0 22.17 M0 22.17 C-1.48 6.84, 8.78 1.83, 22.17 0 M0 22.17 C0.32 7.3, 9.05 1.85, 22.17 0" stroke="#1e1e1e" stroke-width="2" fill="none"></path></g><g transform="translate(972.6960567074731 213.14091306325992) rotate(0 18.568222045898438 5.316168218126336)"><text x="18.568222045898438" y="0" font-family="Virgil, Segoe UI Emoji" font-size="8.505869149002121px" fill="#1e1e1e" text-anchor="middle" style="white-space: pre;" direction="ltr" dominant-baseline="text-before-edge">Resource</text></g><g stroke-linecap="round"><g transform="translate(834.0392341944486 237.248635255105) rotate(0 5.5096461964062655 -0.08332902160273647)"><path d="M0.39 0.29 C2.34 0.4, 9.84 0.27, 11.54 0.15 M-0.08 -0.04 C1.86 -0.04, 9.41 -0.66, 11.38 -0.65" stroke="#1e1e1e" stroke-width="2" fill="none"></path></g><g transform="translate(834.0392341944486 237.248635255105) rotate(0 5.5096461964062655 -0.08332902160273647)"><path d="M6.29 1.45 C7.81 1.13, 9.19 0.1, 11.38 -0.65 M6.29 1.45 C7.59 1.03, 8.92 0.53, 11.38 -0.65" stroke="#1e1e1e" stroke-width="2" fill="none"></path></g><g transform="translate(834.0392341944486 237.248635255105) rotate(0 5.5096461964062655 -0.08332902160273647)"><path d="M6.13 -2.32 C7.67 -1.63, 9.09 -1.64, 11.38 -0.65 M6.13 -2.32 C7.48 -1.78, 8.85 -1.33, 11.38 -0.65" stroke="#1e1e1e" stroke-width="2" fill="none"></path></g></g><mask></mask><g stroke-linecap="round"><g transform="translate(835.0439079252238 237.20113571661193) rotate(0 -5.717495388059092 -0.17527815478459274)"><path d="M0.52 0.32 C-1.51 0.17, -9.89 -0.43, -11.84 -0.61 M0.13 0 C-1.77 -0.1, -8.89 0.02, -10.81 -0.05" stroke="#1e1e1e" stroke-width="2" fill="none"></path></g><g transform="translate(835.0439079252238 237.20113571661193) rotate(0 -5.717495388059092 -0.17527815478459274)"><path d="M-5.42 -1.96 C-7.24 -1.43, -9.54 -0.37, -10.81 -0.05 M-5.42 -1.96 C-6.52 -1.4, -7.65 -1.02, -10.81 -0.05" stroke="#1e1e1e" stroke-width="2" fill="none"></path></g><g transform="translate(835.0439079252238 237.20113571661193) rotate(0 -5.717495388059092 -0.17527815478459274)"><path d="M-5.45 1.95 C-7.27 1.03, -9.56 0.64, -10.81 -0.05 M-5.45 1.95 C-6.55 1.66, -7.68 1.17, -10.81 -0.05" stroke="#1e1e1e" stroke-width="2" fill="none"></path></g></g><mask></mask><g transform="translate(814.4538547428753 243.7655913729178) rotate(0 20.635217659407772 5.316168218126336)"><text x="0" y="0" font-family="Virgil, Segoe UI Emoji" font-size="8.50586914900212px" fill="#1e1e1e" text-anchor="start" style="white-space: pre;" direction="ltr" dominant-baseline="text-before-edge">Fixed size</text></g><g stroke-linecap="round" transform="translate(848.1849346326968 196.8851566171594) rotate(0 9.498211897101442 18.00409402502993)"><path d="M1.26 1.1 C1.26 1.1, 1.26 1.1, 1.26 1.1 M1.26 1.1 C1.26 1.1, 1.26 1.1, 1.26 1.1 M0.74 13.89 C4.73 8.08, 9.09 3.76, 12.55 0.31 M0.74 13.89 C5.95 8.79, 9.6 2.88, 12.55 0.31 M0.87 25.94 C6.4 20.51, 9.88 16.09, 19.24 4.8 M0.87 25.94 C8.13 18.58, 14.78 8.61, 19.24 4.8 M2.98 35.71 C4.93 30.53, 8.86 29.49, 19.38 16.84 M2.98 35.71 C9.1 29.73, 13.45 24.15, 19.38 16.84 M13.61 35.68 C15.8 34.44, 16.17 32.68, 19.51 28.89 M13.61 35.68 C15.15 34.25, 16.12 32.52, 19.51 28.89" stroke="#a5d8ff" stroke-width="1" fill="none"></path><path d="M4.75 0 C6.14 0.15, 9.68 0.45, 14.25 0 M4.75 0 C8.36 0.32, 12.04 0.25, 14.25 0 M14.25 0 C19.13 0.32, 18.07 1.24, 19 4.75 M14.25 0 C18.8 -1.3, 18.55 0.96, 19 4.75 M19 4.75 C17.97 10.78, 16.85 19.73, 19 31.26 M19 4.75 C19.66 11.4, 19.86 16.85, 19 31.26 M19 31.26 C17.27 32.76, 19.01 37.31, 14.25 36.01 M19 31.26 C20.09 32.71, 18.73 35.81, 14.25 36.01 M14.25 36.01 C11.44 36.71, 7.88 36.83, 4.75 36.01 M14.25 36.01 C11.64 36.19, 8 35.57, 4.75 36.01 M4.75 36.01 C0.45 35.04, 0.26 36.03, 0 31.26 M4.75 36.01 C1.95 36.74, -2.11 32.52, 0 31.26 M0 31.26 C-1.14 23.28, -0.81 19.66, 0 4.75 M0 31.26 C0.68 21.69, 0.22 9.72, 0 4.75 M0 4.75 C-0.03 2.5, 2.35 0.25, 4.75 0 M0 4.75 C-0.15 0.98, 3.68 -1.09, 4.75 0" stroke="#1e1e1e" stroke-width="2" fill="none"></path></g><g stroke-linecap="round" transform="translate(800.2138492785949 196.48430877751878) rotate(0 9.498211897101442 18.00409402502993)"><path d="M1.26 1.1 C1.26 1.1, 1.26 1.1, 1.26 1.1 M1.26 1.1 C1.26 1.1, 1.26 1.1, 1.26 1.1 M4.68 9.37 C5.9 7.84, 8.4 6.37, 9.27 4.08 M4.68 9.37 C6.12 7.39, 7.25 6.25, 9.27 4.08 M4.81 21.41 C9.47 16.51, 13.1 12.29, 19.9 4.05 M4.81 21.41 C7.98 16.05, 11.4 12.01, 19.9 4.05 M2.98 35.71 C6.44 32.35, 12.1 26.7, 20.03 16.09 M2.98 35.71 C6.49 31.9, 9.87 26.02, 20.03 16.09 M13.61 35.68 C15.7 33.1, 17.76 29.69, 20.17 28.13 M13.61 35.68 C15.69 32.94, 17.82 30.77, 20.17 28.13" stroke="#a5d8ff" stroke-width="1" fill="none"></path><path d="M4.75 0 C8.69 0.48, 12.24 0.82, 14.25 0 M4.75 0 C8.05 0.23, 11.96 0, 14.25 0 M14.25 0 C16.49 -0.34, 20.2 0.45, 19 4.75 M14.25 0 C16.97 -0.63, 18.33 -0.35, 19 4.75 M19 4.75 C16.97 14.45, 17.55 24.1, 19 31.26 M19 4.75 C19.83 14.83, 18.27 24.61, 19 31.26 M19 31.26 C20.59 35.73, 18.36 34.51, 14.25 36.01 M19 31.26 C20.32 34.23, 17.12 34.12, 14.25 36.01 M14.25 36.01 C11.13 36.97, 10.04 35.94, 4.75 36.01 M14.25 36.01 C11.65 35.65, 9.09 35.82, 4.75 36.01 M4.75 36.01 C1.84 37.61, 0.31 35.06, 0 31.26 M4.75 36.01 C-0.53 34.1, -1.26 36.66, 0 31.26 M0 31.26 C-0.43 25.86, 1.94 17.95, 0 4.75 M0 31.26 C0.06 22.62, -0.21 16.02, 0 4.75 M0 4.75 C0.77 1.83, 1.46 -0.53, 4.75 0 M0 4.75 C2.1 0.49, 1.92 0.31, 4.75 0" stroke="#1e1e1e" stroke-width="2" fill="none"></path></g><g stroke-linecap="round" transform="translate(873.1725846751975 197.1524129775571) rotate(0 9.498211897101442 18.00409402502993)"><path d="M1.26 1.1 C1.26 1.1, 1.26 1.1, 1.26 1.1 M1.26 1.1 C1.26 1.1, 1.26 1.1, 1.26 1.1 M0.74 13.89 C5.53 11.65, 7.79 7.96, 12.55 0.31 M0.74 13.89 C3.53 10.51, 7.25 6.49, 12.55 0.31 M0.87 25.94 C6.97 19.36, 8.59 15.65, 19.24 4.8 M0.87 25.94 C7.03 17.45, 14.47 9.26, 19.24 4.8 M2.98 35.71 C7.33 31.89, 9.06 28.65, 19.38 16.84 M2.98 35.71 C7.39 29, 13.81 24.96, 19.38 16.84 M13.61 35.68 C14.94 33.16, 18.05 31.42, 19.51 28.89 M13.61 35.68 C15.38 33.68, 17.58 31.58, 19.51 28.89" stroke="#a5d8ff" stroke-width="1" fill="none"></path><path d="M4.75 0 C8.64 0.79, 11.4 -0.2, 14.25 0 M4.75 0 C8.75 0.01, 11.71 -0.14, 14.25 0 M14.25 0 C18.62 -1.13, 18.61 1.04, 19 4.75 M14.25 0 C16.74 -1.93, 19.97 0.66, 19 4.75 M19 4.75 C17.41 12.37, 20.55 18.6, 19 31.26 M19 4.75 C18.32 13.1, 19.98 23.77, 19 31.26 M19 31.26 C19.95 32.93, 18.56 35.83, 14.25 36.01 M19 31.26 C18.7 32.54, 15.85 35.82, 14.25 36.01 M14.25 36.01 C10.84 35.95, 6.62 36.98, 4.75 36.01 M14.25 36.01 C10.68 35.7, 7.72 36.31, 4.75 36.01 M4.75 36.01 C1.9 36.64, -1.83 32.77, 0 31.26 M4.75 36.01 C0.32 38.24, -1.01 33.42, 0 31.26 M0 31.26 C1.9 25.55, 0 20.73, 0 4.75 M0 31.26 C-0.08 21.63, 0.32 11.21, 0 4.75 M0 4.75 C-0.13 1.06, 3.41 -0.95, 4.75 0 M0 4.75 C0.34 1.9, 3.5 -1.49, 4.75 0" stroke="#1e1e1e" stroke-width="2" fill="none"></path></g><g stroke-linecap="round" transform="translate(897.6257953988144 196.35066836366798) rotate(0 9.498211897101442 18.00409402502993)"><path d="M1.26 1.1 C1.26 1.1, 1.26 1.1, 1.26 1.1 M1.26 1.1 C1.26 1.1, 1.26 1.1, 1.26 1.1 M4.68 9.37 C6.34 8.2, 7.81 5.76, 9.27 4.08 M4.68 9.37 C5.46 8.49, 6.55 7.26, 9.27 4.08 M4.81 21.41 C7.29 17.15, 13.55 11.92, 19.9 4.05 M4.81 21.41 C7.63 17.11, 10.6 13.76, 19.9 4.05 M2.98 35.71 C7.71 30.11, 15.59 20.88, 20.03 16.09 M2.98 35.71 C10.07 29.61, 15.84 21.39, 20.03 16.09 M13.61 35.68 C16.19 33.73, 18.2 30.51, 20.17 28.13 M13.61 35.68 C15.6 33.88, 16.74 31.37, 20.17 28.13" stroke="#a5d8ff" stroke-width="1" fill="none"></path><path d="M4.75 0 C8.65 -0.24, 12.19 -0.27, 14.25 0 M4.75 0 C8 -0.1, 11.97 -0.28, 14.25 0 M14.25 0 C17.03 -0.55, 18.41 -0.1, 19 4.75 M14.25 0 C18.39 -0.93, 17.67 -0.63, 19 4.75 M19 4.75 C20.63 14.53, 19.75 23.7, 19 31.26 M19 4.75 C19.57 12.65, 19.24 18.5, 19 31.26 M19 31.26 C20.14 34.25, 17.16 34.37, 14.25 36.01 M19 31.26 C17.43 34.24, 19.26 33.8, 14.25 36.01 M14.25 36.01 C10.1 36.88, 7.22 35.7, 4.75 36.01 M14.25 36.01 C12.26 36.34, 10.23 36.11, 4.75 36.01 M4.75 36.01 C-0.25 34.35, -1.1 36.37, 0 31.26 M4.75 36.01 C0.58 35, -1.71 33.79, 0 31.26 M0 31.26 C-0.32 22.9, 1.37 12.17, 0 4.75 M0 31.26 C0.39 25.54, -0.06 19.3, 0 4.75 M0 4.75 C1.82 0.63, 1.88 0.27, 4.75 0 M0 4.75 C1.91 0.09, -0.06 -0.45, 4.75 0" stroke="#1e1e1e" stroke-width="2" fill="none"></path></g><g transform="translate(798.6212525277962 171.5950414921789) rotate(0 38.629363337418226 5.316168218126336)"><text x="0" y="0" font-family="Virgil, Segoe UI Emoji" font-size="8.505869149002121px" fill="#1e1e1e" text-anchor="start" style="white-space: pre;" direction="ltr" dominant-baseline="text-before-edge">Limited throughput</text></g><g stroke-linecap="round"><g transform="translate(833.6574556629645 275.6846526944777) rotate(0 45.54101623896338 -1.2439714976278822)"><path d="M-0.24 0.78 C15.14 0.24, 76.98 -1.72, 92.11 -2.3 M-1.82 0.14 C13.51 -0.26, 76.49 -0.39, 91.7 -0.66" stroke="#1e1e1e" stroke-width="2" fill="none"></path></g><g transform="translate(833.6574556629645 275.6846526944777) rotate(0 45.54101623896338 -1.2439714976278822)"><path d="M68.29 8.1 C76.17 7.37, 81.84 2.25, 91.7 -0.66 M68.29 8.1 C74.66 5.48, 81.19 2.44, 91.7 -0.66" stroke="#1e1e1e" stroke-width="2" fill="none"></path></g><g transform="translate(833.6574556629645 275.6846526944777) rotate(0 45.54101623896338 -1.2439714976278822)"><path d="M68.13 -9 C76.19 -4.87, 81.9 -5.14, 91.7 -0.66 M68.13 -9 C74.66 -6.78, 81.22 -4.99, 91.7 -0.66" stroke="#1e1e1e" stroke-width="2" fill="none"></path></g></g><mask></mask><g stroke-linecap="round"><g transform="translate(864.3832151466032 276.3779629026899) rotate(0 -36.07542139680777 0.092938744766343)"><path d="M1.03 0.19 C-11.05 0.06, -60.63 0.09, -72.71 -0.02 M0.11 -0.75 C-12.16 -0.77, -61.96 1.21, -73.94 1.41" stroke="#1e1e1e" stroke-width="2" fill="none"></path></g><g transform="translate(864.3832151466032 276.3779629026899) rotate(0 -36.07542139680777 0.092938744766343)"><path d="M-50.71 -7.83 C-56.84 -5.97, -64.01 -1.26, -73.94 1.41 M-50.71 -7.83 C-56.68 -6.49, -61.61 -3.8, -73.94 1.41" stroke="#1e1e1e" stroke-width="2" fill="none"></path></g><g transform="translate(864.3832151466032 276.3779629026899) rotate(0 -36.07542139680777 0.092938744766343)"><path d="M-50.21 9.26 C-56.59 6.34, -63.9 6.27, -73.94 1.41 M-50.21 9.26 C-56.26 6.45, -61.32 4.97, -73.94 1.41" stroke="#1e1e1e" stroke-width="2" fill="none"></path></g></g><mask></mask><g transform="translate(831.6264221110993 283.8393119039541) rotate(0 16.229186914840852 5.316168218126336)"><text x="0" y="0" font-family="Virgil, Segoe UI Emoji" font-size="8.505869149002121px" fill="#1e1e1e" text-anchor="start" style="white-space: pre;" direction="ltr" dominant-baseline="text-before-edge">Latency</text></g><g stroke-linecap="round"><g transform="translate(520.9201533013849 219.03092283445204) rotate(0 25.544311810172985 0.5696643504745964)"><path d="M0.72 -0.68 C5.99 -0.73, 22.69 -0.66, 31.03 -0.49 C39.37 -0.33, 47.31 0.08, 50.74 0.3 M-0.36 1.58 C4.77 1.72, 21.6 0.95, 29.96 0.87 C38.32 0.79, 46.1 0.95, 49.79 1.09" stroke="#1e1e1e" stroke-width="2" fill="none"></path></g><g transform="translate(520.9201533013849 219.03092283445204) rotate(0 25.544311810172985 0.5696643504745964)"><path d="M40.36 4.22 C42.19 3.18, 44.88 2.29, 49.79 1.09 M40.36 4.22 C42.09 3.11, 44.57 2.57, 49.79 1.09" stroke="#1e1e1e" stroke-width="2" fill="none"></path></g><g transform="translate(520.9201533013849 219.03092283445204) rotate(0 25.544311810172985 0.5696643504745964)"><path d="M40.55 -2.57 C42.32 -1.89, 44.96 -1.06, 49.79 1.09 M40.55 -2.57 C42.27 -2.22, 44.71 -1.29, 49.79 1.09" stroke="#1e1e1e" stroke-width="2" fill="none"></path></g></g><mask></mask><g stroke-linecap="round" transform="translate(502.7364032990064 214.94594262211422) rotate(0 6.424861621743958 7.447785864273044)"><path d="M0.35 1.63 C0.35 1.63, 0.35 1.63, 0.35 1.63 M0.35 1.63 C0.35 1.63, 0.35 1.63, 0.35 1.63 M0.49 13.67 C4.41 9.36, 8.62 3.12, 11.64 0.84 M0.49 13.67 C3.3 9.56, 6.67 6.02, 11.64 0.84 M9.8 15.15 C10.73 14.37, 11.37 13.27, 13.08 11.37 M9.8 15.15 C11.14 13.63, 12.22 12.35, 13.08 11.37 M1.8 14.69 C1.8 14.69, 1.8 14.69, 1.8 14.69 M1.8 14.69 C1.8 14.69, 1.8 14.69, 1.8 14.69 M12.34 13.25 C9.25 9.27, 4.66 7.12, 1.01 3.41 M12.34 13.25 C8.04 9.39, 3.99 6.62, 1.01 3.41 M13.06 3.27 C11.39 1.94, 10.34 0.9, 8.53 -0.66 M13.06 3.27 C11.84 2.1, 10.43 1.11, 8.53 -0.66" stroke="#b2f2bb" stroke-width="1" fill="none"></path><path d="M3.21 0 C5.44 -0.09, 7.57 0.14, 9.64 0 M3.21 0 C4.93 -0.08, 6.65 0.18, 9.64 0 M9.64 0 C12.28 0.46, 13.55 0.81, 12.85 3.21 M9.64 0 C10.79 -0.96, 13.77 1.82, 12.85 3.21 M12.85 3.21 C12.78 6.1, 12.47 8.81, 12.85 11.68 M12.85 3.21 C13.08 5.73, 12.85 8.07, 12.85 11.68 M12.85 11.68 C13.78 14.29, 11.47 14.05, 9.64 14.9 M12.85 11.68 C12.2 13.27, 11.93 15.82, 9.64 14.9 M9.64 14.9 C7.34 14.69, 5.89 14.73, 3.21 14.9 M9.64 14.9 C8.1 15.03, 6.37 14.88, 3.21 14.9 M3.21 14.9 C1.79 15.7, 0.25 13.03, 0 11.68 M3.21 14.9 C1.05 15.42, 0.44 13.97, 0 11.68 M0 11.68 C-0.19 9.26, 0.07 7.06, 0 3.21 M0 11.68 C0.19 9.63, 0.06 7.81, 0 3.21 M0 3.21 C-0.13 0.85, 1.68 0.71, 3.21 0 M0 3.21 C-1.11 2.2, 1.85 0.5, 3.21 0" stroke="#1e1e1e" stroke-width="2" fill="none"></path></g><g stroke-linecap="round" transform="translate(684.3617648052747 220.53663496053912) rotate(0 5.489488827656146 4.90893607605895)"><path d="M0.65 0.57 C0.65 0.57, 0.65 0.57, 0.65 0.57 M0.65 0.57 C0.65 0.57, 0.65 0.57, 0.65 0.57 M3.41 9.59 C5.71 6.17, 8.8 3.78, 10.63 1.29 M3.41 9.59 C5 7.5, 6.69 5.47, 10.63 1.29 M0.99 9.53 C0.99 9.53, 0.99 9.53, 0.99 9.53 M0.99 9.53 C0.99 9.53, 0.99 9.53, 0.99 9.53 M10.77 7.43 C8.3 5.51, 6.35 3.33, 1.71 -0.44 M10.77 7.43 C8.21 5.33, 5.59 2.73, 1.71 -0.44" stroke="#b2f2bb" stroke-width="1" fill="none"></path><path d="M2.45 0 C3.9 0.14, 5.74 -0.17, 8.52 0 M2.45 0 C3.78 0.16, 5 0.09, 8.52 0 M8.52 0 C10.86 -0.27, 10.12 -0.02, 10.98 2.45 M8.52 0 C11.08 0.75, 11.53 -0.04, 10.98 2.45 M10.98 2.45 C10.78 4.04, 10.96 6.16, 10.98 7.36 M10.98 2.45 C10.98 3.4, 11.12 4.52, 10.98 7.36 M10.98 7.36 C10.67 8.15, 9.59 9.34, 8.52 9.82 M10.98 7.36 C11.13 9.92, 10.34 10.18, 8.52 9.82 M8.52 9.82 C7.56 9.67, 5.86 9.58, 2.45 9.82 M8.52 9.82 C6.89 9.84, 5.33 9.97, 2.45 9.82 M2.45 9.82 C1.07 9.02, -0.02 9.46, 0 7.36 M2.45 9.82 C1.26 9.96, -0.07 8.7, 0 7.36 M0 7.36 C0.05 5.65, -0.15 3.35, 0 2.45 M0 7.36 C0 6.05, -0.03 4.58, 0 2.45 M0 2.45 C0.61 1.53, -0.15 0.98, 2.45 0 M0 2.45 C0.78 1.32, 0.42 -0.23, 2.45 0" stroke="#1e1e1e" stroke-width="2" fill="none"></path></g><g stroke-linecap="round"><g transform="translate(1314.482894691008 105.22180713023363) rotate(0 0.28352464532463273 101.21984287312526)"><path d="M0.82 0.48 C0.8 34.37, 0.59 169.7, 0.35 203.29 M-0.21 -0.32 C-0.45 33.25, -1.03 167.7, -0.71 201.62" stroke="#1e1e1e" stroke-width="2" fill="none"></path></g></g><mask></mask><g stroke-linecap="round"><g transform="translate(1463.5723076781064 105.393096419485) rotate(0 0.28353762425092555 102.3539674122764)"><path d="M-0.22 0.85 C-0.45 34.83, -0.6 170.19, -0.6 204.33 M-1.79 0.26 C-1.75 34.36, 0.83 171.74, 1.49 205.67" stroke="#1e1e1e" stroke-width="2" fill="none"></path></g></g><mask></mask><g transform="translate(1332.5719162015844 85.81634518458122) rotate(0 53.902516050522536 7.442635505376856)"><text x="0" y="0" font-family="Virgil, Segoe UI Emoji" font-size="11.908216808602969px" fill="#1e1e1e" text-anchor="start" style="white-space: pre;" direction="ltr" dominant-baseline="text-before-edge">Interaction buffer</text></g><g stroke-linecap="round" transform="translate(1103.2538281293578 193.1157969892064) rotate(0 103.91337242995132 25.659363280205525)"><path d="M12.83 0 C51.28 1.81, 86.43 0.96, 195 0 M12.83 0 C70.21 2.13, 127.81 0.83, 195 0 M195 0 C201.78 0.32, 207.44 2.55, 207.83 12.83 M195 0 C203.24 -1.35, 206.79 4.48, 207.83 12.83 M207.83 12.83 C205.87 19.37, 207.55 27.62, 207.83 38.49 M207.83 12.83 C206.75 21.57, 208.25 31.62, 207.83 38.49 M207.83 38.49 C205.91 47.89, 204.31 52.9, 195 51.32 M207.83 38.49 C207.76 48.58, 205.06 52.25, 195 51.32 M195 51.32 C148.89 50.95, 103.52 51.17, 12.83 51.32 M195 51.32 C130.12 51.55, 66.03 52.86, 12.83 51.32 M12.83 51.32 C4.02 49.85, 0.5 48.57, 0 38.49 M12.83 51.32 C6.02 50.42, -1.52 45.58, 0 38.49 M0 38.49 C0.35 30, 1.26 20.14, 0 12.83 M0 38.49 C-0.79 31.63, -0.45 26.73, 0 12.83 M0 12.83 C-0.58 4.48, 5.41 -0.73, 12.83 0 M0 12.83 C-1.73 5.73, 5.07 1.96, 12.83 0" stroke="#1e1e1e" stroke-width="2" fill="none"></path></g><g transform="translate(1209.577192491884 173.83582259182617) rotate(0 12.48234934828804 5.316168218126336)"><text x="0" y="0" font-family="Virgil, Segoe UI Emoji" font-size="8.505869149002121px" fill="#1e1e1e" text-anchor="start" style="white-space: pre;" direction="ltr" dominant-baseline="text-before-edge">Queue</text></g><g stroke-linecap="round" transform="translate(1210.4277794067843 201.338102556105) rotate(0 9.498211897101442 18.00409402502993)"><path d="M4.75 0 C8 -0.82, 10.31 0.06, 14.25 0 M4.75 0 C7.99 0.12, 11.99 -0.37, 14.25 0 M14.25 0 C17.14 -1.17, 18.09 1.76, 19 4.75 M14.25 0 C16.8 -1.99, 20.53 -0.42, 19 4.75 M19 4.75 C20.2 11.29, 18.42 17.46, 19 31.26 M19 4.75 C18.18 11.78, 19.51 18.76, 19 31.26 M19 31.26 C18.94 35.77, 18.73 36.82, 14.25 36.01 M19 31.26 C17.79 32.43, 16.13 34.85, 14.25 36.01 M14.25 36.01 C11.62 35.47, 8.46 35.99, 4.75 36.01 M14.25 36.01 C12.07 35.71, 10.14 36.42, 4.75 36.01 M4.75 36.01 C3.1 35.22, -1.32 33.16, 0 31.26 M4.75 36.01 C3.27 34.4, -1.72 34.63, 0 31.26 M0 31.26 C-1.5 22.95, -0.81 11.16, 0 4.75 M0 31.26 C-0.21 25.79, 0.65 19.75, 0 4.75 M0 4.75 C-1.5 2.85, 2.27 1.7, 4.75 0 M0 4.75 C1.9 0.78, 1.17 1.64, 4.75 0" stroke="#1e1e1e" stroke-width="2" fill="none"></path></g><g stroke-linecap="round" transform="translate(1281.8770802584022 201.76340899248146) rotate(0 9.498211897101442 18.00409402502993)"><path d="M1.26 1.1 C1.26 1.1, 1.26 1.1, 1.26 1.1 M1.26 1.1 C1.26 1.1, 1.26 1.1, 1.26 1.1 M0.74 13.89 C2.91 9.86, 7.39 4.08, 12.55 0.31 M0.74 13.89 C5.48 9.71, 7.93 5.75, 12.55 0.31 M0.87 25.94 C3.96 20.33, 7.45 18.23, 19.24 4.8 M0.87 25.94 C8.18 18.41, 15.33 10.92, 19.24 4.8 M2.98 35.71 C7.28 29.39, 13.54 26.25, 19.38 16.84 M2.98 35.71 C6.19 30.31, 10.48 26.21, 19.38 16.84 M13.61 35.68 C15.29 33.05, 17.5 31.01, 19.51 28.89 M13.61 35.68 C15.25 34.22, 16.75 32.07, 19.51 28.89" stroke="#a5d8ff" stroke-width="1" fill="none"></path><path d="M4.75 0 C6.8 0.13, 10.99 0.4, 14.25 0 M4.75 0 C7.09 -0.43, 9.55 -0.29, 14.25 0 M14.25 0 C16.51 0.18, 18.46 -0.15, 19 4.75 M14.25 0 C18.95 -2, 18.45 1.52, 19 4.75 M19 4.75 C18.59 11.77, 18.14 23.73, 19 31.26 M19 4.75 C19.12 14.29, 18.71 22.91, 19 31.26 M19 31.26 C20.31 35.24, 16.37 34.28, 14.25 36.01 M19 31.26 C17.71 33.27, 18.16 34.55, 14.25 36.01 M14.25 36.01 C11.51 35.89, 6.99 36.59, 4.75 36.01 M14.25 36.01 C11.01 36.3, 7.9 35.75, 4.75 36.01 M4.75 36.01 C0.26 34.74, 1.47 33.02, 0 31.26 M4.75 36.01 C-0.14 36.21, 1.25 35.67, 0 31.26 M0 31.26 C-0.49 20.92, -1.62 12.57, 0 4.75 M0 31.26 C0.64 22.52, -0.67 15.14, 0 4.75 M0 4.75 C0.69 3.29, 3.23 -0.7, 4.75 0 M0 4.75 C-0.41 3.22, 0.22 -0.56, 4.75 0" stroke="#1e1e1e" stroke-width="2" fill="none"></path></g><g stroke-linecap="round" transform="translate(1256.7847403109931 201.3381155350313) rotate(0 9.498211897101442 18.00409402502993)"><path d="M1.26 1.1 C1.26 1.1, 1.26 1.1, 1.26 1.1 M1.26 1.1 C1.26 1.1, 1.26 1.1, 1.26 1.1 M0.74 13.89 C2.15 10.26, 6.06 6.94, 12.55 0.31 M0.74 13.89 C3.69 10.34, 7.17 6.37, 12.55 0.31 M0.87 25.94 C6.05 20.34, 14.96 9.99, 19.24 4.8 M0.87 25.94 C8.08 19.01, 13.65 11.71, 19.24 4.8 M2.98 35.71 C10.23 30.43, 14.75 22.46, 19.38 16.84 M2.98 35.71 C7.23 30.36, 13.31 24.46, 19.38 16.84 M13.61 35.68 C15.81 33.04, 17.48 30.28, 19.51 28.89 M13.61 35.68 C15 33.95, 16.77 32.5, 19.51 28.89" stroke="#a5d8ff" stroke-width="1" fill="none"></path><path d="M4.75 0 C7.58 0.31, 8.36 -0.85, 14.25 0 M4.75 0 C7.68 -0.2, 10.54 0.12, 14.25 0 M14.25 0 C16.88 -1.73, 20.33 -0.16, 19 4.75 M14.25 0 C16.87 -0.06, 19.88 2.97, 19 4.75 M19 4.75 C17.91 12.71, 19.52 16.66, 19 31.26 M19 4.75 C19.07 14.5, 19.75 23.32, 19 31.26 M19 31.26 C17.95 32.69, 16.3 35, 14.25 36.01 M19 31.26 C19.74 32.97, 18.41 37.29, 14.25 36.01 M14.25 36.01 C11.24 36.64, 10.2 35.88, 4.75 36.01 M14.25 36.01 C12.45 35.89, 9.62 35.78, 4.75 36.01 M4.75 36.01 C3.05 34.61, -1.5 34.6, 0 31.26 M4.75 36.01 C2.84 37.25, 0.94 32.87, 0 31.26 M0 31.26 C-1.71 21.25, 0.41 11.89, 0 4.75 M0 31.26 C-0.9 23.67, 0.19 15.67, 0 4.75 M0 4.75 C1.65 0.89, 1.22 1.43, 4.75 0 M0 4.75 C-1.36 1.02, 2.49 -1.71, 4.75 0" stroke="#1e1e1e" stroke-width="2" fill="none"></path></g><g stroke-linecap="round" transform="translate(1233.2518183601856 201.47987136823042) rotate(0 9.498211897101442 18.00409402502993)"><path d="M1.26 1.1 C1.26 1.1, 1.26 1.1, 1.26 1.1 M1.26 1.1 C1.26 1.1, 1.26 1.1, 1.26 1.1 M0.74 13.89 C5.05 8.14, 8.56 6.84, 12.55 0.31 M0.74 13.89 C3.93 10.27, 8.92 4.64, 12.55 0.31 M0.87 25.94 C7 18.98, 11.37 15.9, 19.24 4.8 M0.87 25.94 C6.74 19.52, 13.66 11.65, 19.24 4.8 M2.98 35.71 C6.52 31.58, 11.84 23.48, 19.38 16.84 M2.98 35.71 C7.45 31.06, 11.86 26.04, 19.38 16.84 M13.61 35.68 C14.77 33.36, 16.04 32.33, 19.51 28.89 M13.61 35.68 C16.14 33.29, 17.51 30.99, 19.51 28.89" stroke="#a5d8ff" stroke-width="1" fill="none"></path><path d="M4.75 0 C7.23 -0.87, 10.7 -0.21, 14.25 0 M4.75 0 C6.56 0.1, 8.68 -0.35, 14.25 0 M14.25 0 C18.75 -1.74, 18.53 1.53, 19 4.75 M14.25 0 C18.29 1.39, 18.09 0.93, 19 4.75 M19 4.75 C19.46 8.21, 19.71 16.26, 19 31.26 M19 4.75 C19.65 15.21, 18.46 23.99, 19 31.26 M19 31.26 C17.88 33.42, 18.06 34.74, 14.25 36.01 M19 31.26 C19.99 35.71, 16.02 37.29, 14.25 36.01 M14.25 36.01 C11.96 35.95, 7.97 36.31, 4.75 36.01 M14.25 36.01 C10.36 35.67, 7.45 35.64, 4.75 36.01 M4.75 36.01 C0.08 36.18, 1.09 35.51, 0 31.26 M4.75 36.01 C2.52 34.45, 1.25 33.66, 0 31.26 M0 31.26 C0.56 24.46, 0.44 19.94, 0 4.75 M0 31.26 C0.54 25.13, 1.02 16.95, 0 4.75 M0 4.75 C-0.36 3.01, 0.4 -0.49, 4.75 0 M0 4.75 C0.9 -0.12, -0.53 0.41, 4.75 0" stroke="#1e1e1e" stroke-width="2" fill="none"></path></g><g stroke-linecap="round"><g transform="translate(1329.7934591592125 194.81694486115418) rotate(0 65.21168078091796 -0.7088181027747282)"><path d="M-1.06 0.19 C20.57 -0.13, 108.31 -2.07, 130.19 -2.46 M0.58 -0.76 C22 -0.92, 107.65 -1.39, 129.12 -1.46" stroke="#1e1e1e" stroke-width="2" fill="none"></path></g><g transform="translate(1329.7934591592125 194.81694486115418) rotate(0 65.21168078091796 -0.7088181027747282)"><path d="M105.67 7.19 C113.84 4.13, 119.61 1.36, 129.12 -1.46 M105.67 7.19 C111.11 4.22, 117.7 2.12, 129.12 -1.46" stroke="#1e1e1e" stroke-width="2" fill="none"></path></g><g transform="translate(1329.7934591592125 194.81694486115418) rotate(0 65.21168078091796 -0.7088181027747282)"><path d="M105.59 -9.91 C113.71 -7.27, 119.51 -4.34, 129.12 -1.46 M105.59 -9.91 C110.97 -8.75, 117.58 -6.72, 129.12 -1.46" stroke="#1e1e1e" stroke-width="2" fill="none"></path></g></g><mask></mask><g stroke-linecap="round" transform="translate(1355.3110925640708 199.77872349628262) rotate(0 9.498211897101442 18.00409402502993)"><path d="M1.26 1.1 C1.26 1.1, 1.26 1.1, 1.26 1.1 M1.26 1.1 C1.26 1.1, 1.26 1.1, 1.26 1.1 M0.74 13.89 C3.78 9.67, 7.25 6.35, 12.55 0.31 M0.74 13.89 C4.97 7.97, 10.81 3.71, 12.55 0.31 M0.87 25.94 C5.57 22.73, 10.25 16.15, 19.24 4.8 M0.87 25.94 C7.15 18.69, 15.12 10.07, 19.24 4.8 M2.98 35.71 C7.81 27.36, 15.25 22.84, 19.38 16.84 M2.98 35.71 C7.48 30.03, 12.71 23.74, 19.38 16.84 M13.61 35.68 C15.6 34.1, 16.24 33.27, 19.51 28.89 M13.61 35.68 C15.4 33.13, 17.59 31.64, 19.51 28.89" stroke="#a5d8ff" stroke-width="1" fill="none"></path><path d="M4.75 0 C5.93 -0.11, 8.21 -0.41, 14.25 0 M4.75 0 C8 -0.33, 10.51 0.07, 14.25 0 M14.25 0 C18.18 1.21, 18.21 1.02, 19 4.75 M14.25 0 C15.18 -1.17, 20.2 2.27, 19 4.75 M19 4.75 C20.69 10.1, 20.45 16.88, 19 31.26 M19 4.75 C18.3 13.28, 19.18 22.18, 19 31.26 M19 31.26 C19.86 35.54, 16.2 37.12, 14.25 36.01 M19 31.26 C18.85 32.64, 18.96 37.23, 14.25 36.01 M14.25 36.01 C12.25 36.75, 8.42 35.4, 4.75 36.01 M14.25 36.01 C11.64 35.98, 10.01 36.2, 4.75 36.01 M4.75 36.01 C2.4 34.65, 1.09 33.76, 0 31.26 M4.75 36.01 C0.08 33.94, -0.7 34.79, 0 31.26 M0 31.26 C-0.76 22.57, 1.24 17.58, 0 4.75 M0 31.26 C-0.4 21.76, -0.81 10.59, 0 4.75 M0 4.75 C0.78 0.1, -0.25 0.36, 4.75 0 M0 4.75 C-2.13 3.12, 1.66 -0.46, 4.75 0" stroke="#1e1e1e" stroke-width="2" fill="none"></path></g><g stroke-linecap="round" transform="translate(1480.9144183450512 146.33350369076845) rotate(0 26.683234431757683 69.79029511991465)"><path d="M3.55 3.09 C3.55 3.09, 3.55 3.09, 3.55 3.09 M3.55 3.09 C3.55 3.09, 3.55 3.09, 3.55 3.09 M1.06 18.15 C8.38 9.85, 14.74 5.62, 16.15 0.79 M1.06 18.15 C5.93 14.32, 8.39 9.59, 16.15 0.79 M0.54 30.94 C10.55 20.3, 19.8 11.65, 26.78 0.75 M0.54 30.94 C8.86 22.03, 15.77 14.08, 26.78 0.75 M0.67 42.98 C9.08 34.98, 16.34 26.84, 37.41 0.72 M0.67 42.98 C10.72 30.91, 20.46 19, 37.41 0.72 M0.8 55.02 C14.64 40.01, 29.86 19.85, 47.38 1.44 M0.8 55.02 C17.73 37.25, 33.66 17.16, 47.38 1.44 M0.94 67.06 C19.53 42.9, 40.15 20.54, 52.11 8.2 M0.94 67.06 C16.79 49.4, 33.01 31.33, 52.11 8.2 M1.07 79.11 C19.86 56.47, 37.93 37.04, 53.55 18.73 M1.07 79.11 C11.96 67.15, 22.95 53.61, 53.55 18.73 M0.55 91.9 C13.48 76.44, 25.93 62.19, 53.69 30.77 M0.55 91.9 C12.57 79.1, 24.21 64.3, 53.69 30.77 M0.68 103.94 C19.66 79.75, 41.79 59.11, 53.82 42.81 M0.68 103.94 C20.35 79.6, 42.18 55.98, 53.82 42.81 M0.81 115.98 C20.55 95.15, 35.78 72.29, 53.95 54.85 M0.81 115.98 C12.38 103.23, 24.65 89.86, 53.95 54.85 M0.95 128.02 C13.84 109.82, 31.62 94.86, 54.09 66.89 M0.95 128.02 C17.21 111.12, 33.23 92.58, 54.09 66.89 M3.7 137.05 C15.2 120.22, 29.28 104.77, 53.56 79.69 M3.7 137.05 C17.75 121.09, 32.5 103.65, 53.56 79.69 M13.02 138.52 C24.95 124.26, 38.39 110.1, 53.7 91.73 M13.02 138.52 C24.6 125.7, 36.99 111.08, 53.7 91.73 M23 139.24 C30.85 131.07, 35.34 124.44, 53.83 103.77 M23 139.24 C32.43 127.98, 42.9 115.83, 53.83 103.77 M33.63 139.21 C38.97 135.4, 42.91 129.77, 53.96 115.81 M33.63 139.21 C42.72 130.57, 49.13 120.25, 53.96 115.81 M43.6 139.93 C47.23 135.05, 50.8 130.91, 54.1 127.85 M43.6 139.93 C46.71 136.92, 48.21 133.98, 54.1 127.85" stroke="#ffc9c9" stroke-width="1" fill="none"></path><path d="M13.34 0 C19.66 -0.87, 28.51 -0.5, 40.02 0 M13.34 0 C18.81 0.21, 25.12 0.83, 40.02 0 M40.02 0 C48.13 -0.57, 51.42 3.43, 53.37 13.34 M40.02 0 C50.12 0.69, 51.16 5.43, 53.37 13.34 M53.37 13.34 C55.6 52.81, 55.07 88.6, 53.37 126.24 M53.37 13.34 C53.06 36.8, 53.17 62.09, 53.37 126.24 M53.37 126.24 C52.15 136.24, 48.79 138.03, 40.02 139.58 M53.37 126.24 C54.91 136.35, 48.62 137.9, 40.02 139.58 M40.02 139.58 C30.57 138.46, 21.41 141.25, 13.34 139.58 M40.02 139.58 C34.43 140.14, 28.16 138.93, 13.34 139.58 M13.34 139.58 C5.53 138.91, -1.3 133.34, 0 126.24 M13.34 139.58 C3.74 139.95, -0.67 135.36, 0 126.24 M0 126.24 C1.68 86.66, 2.12 47.35, 0 13.34 M0 126.24 C-0.39 96.05, 0.6 65.61, 0 13.34 M0 13.34 C-1.84 4.8, 2.59 1.34, 13.34 0 M0 13.34 C0.07 3.98, 3.25 0.62, 13.34 0" stroke="#1e1e1e" stroke-width="2" fill="none"></path></g><g transform="translate(1489.0294307309105 210.8076305925568) rotate(0 18.568222045898438 5.316168218126336)"><text x="18.568222045898438" y="0" font-family="Virgil, Segoe UI Emoji" font-size="8.505869149002121px" fill="#1e1e1e" text-anchor="middle" style="white-space: pre;" direction="ltr" dominant-baseline="text-before-edge">Resource</text></g><g stroke-linecap="round"><g transform="translate(1364.705860171011 240.91532226682375) rotate(0 5.5096461964062655 -0.08332902160273647)"><path d="M-0.15 -0.48 C1.79 -0.59, 9.55 -0.69, 11.39 -0.64 M0.78 0.47 C2.7 0.4, 9.53 -0.18, 11.14 -0.19" stroke="#1e1e1e" stroke-width="2" fill="none"></path></g><g transform="translate(1364.705860171011 240.91532226682375) rotate(0 5.5096461964062655 -0.08332902160273647)"><path d="M6.07 1.96 C7.12 1.6, 8.42 0.81, 11.14 -0.19 M6.07 1.96 C7.52 1.27, 8.95 0.6, 11.14 -0.19" stroke="#1e1e1e" stroke-width="2" fill="none"></path></g><g transform="translate(1364.705860171011 240.91532226682375) rotate(0 5.5096461964062655 -0.08332902160273647)"><path d="M5.87 -1.8 C6.98 -1.2, 8.32 -1.04, 11.14 -0.19 M5.87 -1.8 C7.39 -1.38, 8.88 -0.93, 11.14 -0.19" stroke="#1e1e1e" stroke-width="2" fill="none"></path></g></g><mask></mask><g stroke-linecap="round"><g transform="translate(1365.7105339017867 240.86782272833068) rotate(0 -5.717495388059092 -0.17527815478459274)"><path d="M0.37 -0.48 C-1.54 -0.46, -9.63 -0.44, -11.56 -0.37 M-0.11 0.47 C-2.08 0.62, -10.17 0.56, -12.06 0.33" stroke="#1e1e1e" stroke-width="2" fill="none"></path></g><g transform="translate(1365.7105339017867 240.86782272833068) rotate(0 -5.717495388059092 -0.17527815478459274)"><path d="M-6.59 -1.34 C-8.34 -0.94, -9.6 -0.3, -12.06 0.33 M-6.59 -1.34 C-8.71 -0.82, -10.46 -0.11, -12.06 0.33" stroke="#1e1e1e" stroke-width="2" fill="none"></path></g><g transform="translate(1365.7105339017867 240.86782272833068) rotate(0 -5.717495388059092 -0.17527815478459274)"><path d="M-6.8 2.56 C-8.48 1.9, -9.67 1.47, -12.06 0.33 M-6.8 2.56 C-8.83 1.68, -10.51 0.99, -12.06 0.33" stroke="#1e1e1e" stroke-width="2" fill="none"></path></g></g><mask></mask><g transform="translate(1345.1204807194376 247.43227838463656) rotate(0 20.635217659407772 5.316168218126336)"><text x="0" y="0" font-family="Virgil, Segoe UI Emoji" font-size="8.50586914900212px" fill="#1e1e1e" text-anchor="start" style="white-space: pre;" direction="ltr" dominant-baseline="text-before-edge">Fixed size</text></g><g stroke-linecap="round" transform="translate(1378.8515606092592 200.55184362887815) rotate(0 9.498211897101442 18.00409402502993)"><path d="M1.26 1.1 C1.26 1.1, 1.26 1.1, 1.26 1.1 M1.26 1.1 C1.26 1.1, 1.26 1.1, 1.26 1.1 M0.74 13.89 C6.06 9.59, 10.19 5.16, 12.55 0.31 M0.74 13.89 C5.68 8.79, 8.87 4.6, 12.55 0.31 M0.87 25.94 C8.27 15.65, 14.44 7.38, 19.24 4.8 M0.87 25.94 C7.4 18.75, 12.42 12.17, 19.24 4.8 M2.98 35.71 C6.24 30.92, 13.26 25.55, 19.38 16.84 M2.98 35.71 C6.58 30.88, 11.76 24.24, 19.38 16.84 M13.61 35.68 C14.94 34.05, 17.97 31.01, 19.51 28.89 M13.61 35.68 C14.87 33.92, 16.62 31.88, 19.51 28.89" stroke="#a5d8ff" stroke-width="1" fill="none"></path><path d="M4.75 0 C7.95 -0.41, 9.73 -0.96, 14.25 0 M4.75 0 C6.66 0.17, 9.66 0.35, 14.25 0 M14.25 0 C17.35 1.34, 20.31 2.4, 19 4.75 M14.25 0 C16.21 -1.99, 17.71 0.43, 19 4.75 M19 4.75 C19.94 12.35, 19.94 22.25, 19 31.26 M19 4.75 C19.04 9.91, 19.42 17.3, 19 31.26 M19 31.26 C20.51 33.64, 16.09 34.74, 14.25 36.01 M19 31.26 C20.68 32.81, 15.69 36.21, 14.25 36.01 M14.25 36.01 C10.24 36.56, 7.2 35.43, 4.75 36.01 M14.25 36.01 C12.11 36.07, 10.52 35.85, 4.75 36.01 M4.75 36.01 C0.08 37.27, 0.69 36.13, 0 31.26 M4.75 36.01 C3.48 35.21, -0.41 36.07, 0 31.26 M0 31.26 C-1.42 23.04, 0.42 16.63, 0 4.75 M0 31.26 C-0.53 21.8, -0.45 11.94, 0 4.75 M0 4.75 C1.68 0.61, -0.27 0.67, 4.75 0 M0 4.75 C2.29 -0.68, -0.51 0.49, 4.75 0" stroke="#1e1e1e" stroke-width="2" fill="none"></path></g><g stroke-linecap="round" transform="translate(1330.8804752551573 200.15099578923753) rotate(0 9.498211897101442 18.00409402502993)"><path d="M1.26 1.1 C1.26 1.1, 1.26 1.1, 1.26 1.1 M1.26 1.1 C1.26 1.1, 1.26 1.1, 1.26 1.1 M0.74 13.89 C3.91 12.27, 7.05 7.59, 12.55 0.31 M0.74 13.89 C4.7 9.36, 10.14 3.59, 12.55 0.31 M0.87 25.94 C6.41 16.79, 14.55 11.46, 19.24 4.8 M0.87 25.94 C5.98 19.56, 11.81 12.57, 19.24 4.8 M2.98 35.71 C8.19 31.31, 10.39 28.6, 19.38 16.84 M2.98 35.71 C8.02 28.85, 13.93 24.35, 19.38 16.84 M13.61 35.68 C15.79 33.58, 16.97 30.69, 19.51 28.89 M13.61 35.68 C15.38 33.3, 17.38 31.43, 19.51 28.89" stroke="#a5d8ff" stroke-width="1" fill="none"></path><path d="M4.75 0 C7.69 -0.89, 10.69 0.53, 14.25 0 M4.75 0 C8.06 0.34, 11 0.28, 14.25 0 M14.25 0 C18.73 0.81, 17.95 -0.15, 19 4.75 M14.25 0 C16.13 -1.16, 19.74 0.13, 19 4.75 M19 4.75 C20.25 13.72, 17.59 24.29, 19 31.26 M19 4.75 C19.21 14.87, 19.72 23.08, 19 31.26 M19 31.26 C17.67 33.16, 18.88 34.61, 14.25 36.01 M19 31.26 C17.27 34.63, 18.67 37.25, 14.25 36.01 M14.25 36.01 C10.69 35.44, 6.92 35.77, 4.75 36.01 M14.25 36.01 C11.52 35.84, 7.89 36.32, 4.75 36.01 M4.75 36.01 C2.27 37.71, 1.65 33.73, 0 31.26 M4.75 36.01 C1.17 37.65, -1.36 33.86, 0 31.26 M0 31.26 C0.55 20.41, 1.54 13.34, 0 4.75 M0 31.26 C-0.3 23.97, 0.98 15.94, 0 4.75 M0 4.75 C-1.85 2.26, 3.57 -1.97, 4.75 0 M0 4.75 C-2.09 2.07, 0.18 -1.11, 4.75 0" stroke="#1e1e1e" stroke-width="2" fill="none"></path></g><g stroke-linecap="round" transform="translate(1403.83921065176 200.81909998927586) rotate(0 9.498211897101442 18.00409402502993)"><path d="M1.26 1.1 C1.26 1.1, 1.26 1.1, 1.26 1.1 M1.26 1.1 C1.26 1.1, 1.26 1.1, 1.26 1.1 M0.74 13.89 C5.74 9.08, 10.01 5.96, 12.55 0.31 M0.74 13.89 C4.91 9.7, 7.86 6.32, 12.55 0.31 M0.87 25.94 C5.36 22.17, 8.79 18.42, 19.24 4.8 M0.87 25.94 C5.76 19.71, 10.44 13.62, 19.24 4.8 M2.98 35.71 C7.6 31.55, 13.4 22.24, 19.38 16.84 M2.98 35.71 C9.24 29.83, 14.61 21.89, 19.38 16.84 M13.61 35.68 C15.49 32.36, 18.21 29.83, 19.51 28.89 M13.61 35.68 C15.47 33.64, 17.54 31.51, 19.51 28.89" stroke="#a5d8ff" stroke-width="1" fill="none"></path><path d="M4.75 0 C6.74 0.59, 9.99 -0.82, 14.25 0 M4.75 0 C7.99 0.24, 11.57 0.12, 14.25 0 M14.25 0 C16.37 -1.73, 17.88 0.58, 19 4.75 M14.25 0 C18.16 -1.46, 19.99 2.87, 19 4.75 M19 4.75 C17.59 12.44, 20.21 17.18, 19 31.26 M19 4.75 C19.82 10.37, 18.4 16.14, 19 31.26 M19 31.26 C20.46 33.02, 15.91 36.18, 14.25 36.01 M19 31.26 C20.25 35.67, 18.35 34.45, 14.25 36.01 M14.25 36.01 C10.03 35.66, 7.67 35.67, 4.75 36.01 M14.25 36.01 C10.95 36.27, 8.52 36.38, 4.75 36.01 M4.75 36.01 C3.23 35.31, -0.36 35.85, 0 31.26 M4.75 36.01 C0.22 35.45, 0.9 32.72, 0 31.26 M0 31.26 C1.29 25.81, -0.45 19.18, 0 4.75 M0 31.26 C0.96 22.11, -0.81 14.27, 0 4.75 M0 4.75 C1.99 -0.38, -0.24 0.42, 4.75 0 M0 4.75 C-1.4 0.47, 2.13 -1.85, 4.75 0" stroke="#1e1e1e" stroke-width="2" fill="none"></path></g><g stroke-linecap="round" transform="translate(1428.2924213753772 200.01735537538673) rotate(0 9.498211897101442 18.00409402502993)"><path d="M1.26 1.1 C1.26 1.1, 1.26 1.1, 1.26 1.1 M1.26 1.1 C1.26 1.1, 1.26 1.1, 1.26 1.1 M0.74 13.89 C6.41 10.16, 9.35 2.93, 12.55 0.31 M0.74 13.89 C5.22 9.26, 7.98 4.06, 12.55 0.31 M0.87 25.94 C4.88 22.53, 8.12 16.04, 19.24 4.8 M0.87 25.94 C5.96 18.82, 12.43 13.54, 19.24 4.8 M2.98 35.71 C8.25 28.19, 13.91 23.64, 19.38 16.84 M2.98 35.71 C6.53 30.79, 10.78 27.82, 19.38 16.84 M13.61 35.68 C15.55 33, 17.3 31.32, 19.51 28.89 M13.61 35.68 C15.35 33.97, 16.69 32.13, 19.51 28.89" stroke="#a5d8ff" stroke-width="1" fill="none"></path><path d="M4.75 0 C6.96 -0.96, 9.01 0.31, 14.25 0 M4.75 0 C8.66 0.13, 11.7 -0.47, 14.25 0 M14.25 0 C16.3 -1.01, 19.65 0.32, 19 4.75 M14.25 0 C18.41 1.28, 17.6 2.86, 19 4.75 M19 4.75 C19.85 12.27, 17.33 20.82, 19 31.26 M19 4.75 C18.54 14.09, 19.93 24.01, 19 31.26 M19 31.26 C17.5 34.6, 18.5 37.09, 14.25 36.01 M19 31.26 C19.94 32.87, 18.66 35.24, 14.25 36.01 M14.25 36.01 C12.17 35.7, 9.88 36.52, 4.75 36.01 M14.25 36.01 C11.91 36.47, 9.64 35.9, 4.75 36.01 M4.75 36.01 C1.22 37.43, -1.18 33.94, 0 31.26 M4.75 36.01 C2.49 34.3, -2.11 34.84, 0 31.26 M0 31.26 C-0.58 24.72, 0.36 19.39, 0 4.75 M0 31.26 C-1.15 23.29, 0.77 13.67, 0 4.75 M0 4.75 C-1.82 2.01, 0.36 -0.97, 4.75 0 M0 4.75 C0.55 -0.27, 1.78 2.06, 4.75 0" stroke="#1e1e1e" stroke-width="2" fill="none"></path></g><g transform="translate(1329.287878504359 175.26172850389764) rotate(0 38.629363337418226 5.316168218126336)"><text x="0" y="0" font-family="Virgil, Segoe UI Emoji" font-size="8.505869149002121px" fill="#1e1e1e" text-anchor="start" style="white-space: pre;" direction="ltr" dominant-baseline="text-before-edge">Limited throughput</text></g><g stroke-linecap="round"><g transform="translate(1366.4811558785973 279.3513397061964) rotate(0 49.21663123322696 -1.3851884586943015)"><path d="M0.46 0.95 C17.05 0.54, 81.94 -1.43, 98.4 -1.97 M-0.76 0.4 C15.77 -0.39, 80.83 -2.87, 97.43 -3.67" stroke="#1e1e1e" stroke-width="2" fill="none"></path></g><g transform="translate(1366.4811558785973 279.3513397061964) rotate(0 49.21663123322696 -1.3851884586943015)"><path d="M74.32 5.87 C80.58 3.78, 85.05 3.21, 97.43 -3.67 M74.32 5.87 C81.69 2.32, 90.44 -1.06, 97.43 -3.67" stroke="#1e1e1e" stroke-width="2" fill="none"></path></g><g transform="translate(1366.4811558785973 279.3513397061964) rotate(0 49.21663123322696 -1.3851884586943015)"><path d="M73.6 -11.21 C80.08 -9.82, 84.7 -6.91, 97.43 -3.67 M73.6 -11.21 C81.12 -8.94, 90.12 -6.5, 97.43 -3.67" stroke="#1e1e1e" stroke-width="2" fill="none"></path></g></g><mask></mask><g stroke-linecap="round"><g transform="translate(1395.049841123166 280.04464991440864) rotate(0 -36.07542139680777 0.092938744766343)"><path d="M-0.04 0.8 C-12.01 0.76, -59.24 0.95, -71.36 0.67 M-1.51 0.18 C-13.61 -0.31, -59.84 -1.15, -71.9 -1.19" stroke="#1e1e1e" stroke-width="2" fill="none"></path></g><g transform="translate(1395.049841123166 280.04464991440864) rotate(0 -36.07542139680777 0.092938744766343)"><path d="M-48.3 -9.46 C-54.87 -5.36, -63.37 -4.93, -71.9 -1.19 M-48.3 -9.46 C-53.06 -8.44, -57.99 -5.49, -71.9 -1.19" stroke="#1e1e1e" stroke-width="2" fill="none"></path></g><g transform="translate(1395.049841123166 280.04464991440864) rotate(0 -36.07542139680777 0.092938744766343)"><path d="M-48.51 7.64 C-55.14 5.96, -63.58 0.62, -71.9 -1.19 M-48.51 7.64 C-53.13 5.01, -58.01 4.31, -71.9 -1.19" stroke="#1e1e1e" stroke-width="2" fill="none"></path></g></g><mask></mask><g transform="translate(1362.2930480876616 287.5059989156729) rotate(0 16.229186914840852 5.316168218126336)"><text x="0" y="0" font-family="Virgil, Segoe UI Emoji" font-size="8.505869149002121px" fill="#1e1e1e" text-anchor="start" style="white-space: pre;" direction="ltr" dominant-baseline="text-before-edge">Latency</text></g><g stroke-linecap="round"><g transform="translate(1060.9199701959164 210.36217404584642) rotate(0 21.29133020392169 7.678549950547449)"><path d="M-0.63 -1.04 C2.34 -0.86, 11.33 -1.04, 18.59 1.57 C25.86 4.17, 38.89 12.19, 42.97 14.6 M1.24 1.03 C4.53 1.32, 14.09 0.37, 20.95 2.79 C27.81 5.2, 38.63 13.68, 42.41 15.51" stroke="#1e1e1e" stroke-width="2" fill="none"></path></g><g transform="translate(1060.9199701959164 210.36217404584642) rotate(0 21.29133020392169 7.678549950547449)"><path d="M29.3 12.77 C32.95 13.1, 38.23 15.28, 42.41 15.51 M29.3 12.77 C32.01 13.72, 35.47 13.48, 42.41 15.51" stroke="#1e1e1e" stroke-width="2" fill="none"></path></g><g transform="translate(1060.9199701959164 210.36217404584642) rotate(0 21.29133020392169 7.678549950547449)"><path d="M34.13 4.99 C36.04 8.13, 39.56 13.16, 42.41 15.51 M34.13 4.99 C35.73 7.8, 38.05 9.4, 42.41 15.51" stroke="#1e1e1e" stroke-width="2" fill="none"></path></g></g><mask></mask><g stroke-linecap="round" transform="translate(1040.7363422638505 208.6126601514111) rotate(0 6.424861621743958 7.447785864273044)"><path d="M0.35 1.63 C0.35 1.63, 0.35 1.63, 0.35 1.63 M0.35 1.63 C0.35 1.63, 0.35 1.63, 0.35 1.63 M0.49 13.67 C3.17 10.05, 7.49 6, 11.64 0.84 M0.49 13.67 C4.51 9.02, 8.28 4.29, 11.64 0.84 M9.8 15.15 C10.58 14.2, 11.57 13.39, 13.08 11.37 M9.8 15.15 C10.4 14.4, 11.28 13.54, 13.08 11.37 M1.8 14.69 C1.8 14.69, 1.8 14.69, 1.8 14.69 M1.8 14.69 C1.8 14.69, 1.8 14.69, 1.8 14.69 M12.34 13.25 C8.7 10.49, 5.05 7.62, 1.01 3.41 M12.34 13.25 C9.32 10.57, 6.37 7.94, 1.01 3.41 M13.06 3.27 C12.09 2.46, 10.73 1.51, 8.53 -0.66 M13.06 3.27 C11.8 2.37, 10.83 1.32, 8.53 -0.66" stroke="#b2f2bb" stroke-width="1" fill="none"></path><path d="M3.21 0 C4.64 0.12, 6.19 0.16, 9.64 0 M3.21 0 C5.49 -0.14, 7.89 0.07, 9.64 0 M9.64 0 C11.65 -0.73, 13.1 1.83, 12.85 3.21 M9.64 0 C12.65 -0.45, 12.09 0.34, 12.85 3.21 M12.85 3.21 C12.86 6.61, 13.05 9.71, 12.85 11.68 M12.85 3.21 C12.73 4.99, 12.81 7.18, 12.85 11.68 M12.85 11.68 C12.56 13.92, 12.35 14.53, 9.64 14.9 M12.85 11.68 C11.99 14.55, 12.18 15.88, 9.64 14.9 M9.64 14.9 C7.41 14.7, 4.64 15.02, 3.21 14.9 M9.64 14.9 C8.04 15.01, 6.74 14.87, 3.21 14.9 M3.21 14.9 C0.55 15.16, -0.44 13.96, 0 11.68 M3.21 14.9 C2.04 14.34, -1.07 14.21, 0 11.68 M0 11.68 C0.13 8.04, -0.16 5.02, 0 3.21 M0 11.68 C0.05 9.69, 0.15 7.79, 0 3.21 M0 3.21 C0.98 1.52, 0.71 -0.46, 3.21 0 M0 3.21 C-0.71 2, 1.83 -0.82, 3.21 0" stroke="#1e1e1e" stroke-width="2" fill="none"></path></g><g stroke-linecap="round" transform="translate(1215.0283907818375 224.20332197225787) rotate(0 5.489488827656146 4.90893607605895)"><path d="M0.65 0.57 C0.65 0.57, 0.65 0.57, 0.65 0.57 M0.65 0.57 C0.65 0.57, 0.65 0.57, 0.65 0.57 M3.41 9.59 C5.37 7.56, 7.34 5.32, 10.63 1.29 M3.41 9.59 C5.15 7.3, 6.92 5.39, 10.63 1.29 M0.99 9.53 C0.99 9.53, 0.99 9.53, 0.99 9.53 M0.99 9.53 C0.99 9.53, 0.99 9.53, 0.99 9.53 M10.77 7.43 C7.27 4.86, 4.3 2.2, 1.71 -0.44 M10.77 7.43 C8.31 5.49, 5.8 3.27, 1.71 -0.44" stroke="#b2f2bb" stroke-width="1" fill="none"></path><path d="M2.45 0 C3.74 0.12, 5.59 -0.19, 8.52 0 M2.45 0 C4.71 0.1, 6.75 -0.09, 8.52 0 M8.52 0 C10.41 0.76, 11.74 0.43, 10.98 2.45 M8.52 0 C9.4 -0.73, 11.82 0.01, 10.98 2.45 M10.98 2.45 C11.11 3.66, 10.81 4.8, 10.98 7.36 M10.98 2.45 C10.93 3.78, 10.93 5.09, 10.98 7.36 M10.98 7.36 C11.55 8.63, 9.41 10.45, 8.52 9.82 M10.98 7.36 C11.38 9.98, 11.11 9.42, 8.52 9.82 M8.52 9.82 C6.74 9.92, 4.88 9.52, 2.45 9.82 M8.52 9.82 C6.6 9.81, 4.59 9.88, 2.45 9.82 M2.45 9.82 C0.38 9.95, 0.84 8.52, 0 7.36 M2.45 9.82 C-0.25 10.2, 1.14 7.87, 0 7.36 M0 7.36 C-0.12 6.4, -0.2 5.33, 0 2.45 M0 7.36 C0.08 5.35, 0.11 3.59, 0 2.45 M0 2.45 C-0.36 0.36, 0.2 0.81, 2.45 0 M0 2.45 C0.76 -0.01, 1.4 0.5, 2.45 0" stroke="#1e1e1e" stroke-width="2" fill="none"></path></g><g stroke-linecap="round"><g transform="translate(1522.974621551371 350) rotate(0 -718.0000000000001 -2.33331298828125)"><path d="M0.65 0.73 C-238.82 0.1, -1197.5 -3.75, -1436.82 -4.8 M-0.46 0.06 C-239.56 -0.28, -1195.34 -2.54, -1434.54 -3.34" stroke="#f08c00" stroke-width="4" fill="none"></path></g><g transform="translate(1522.974621551371 350) rotate(0 -718.0000000000001 -2.33331298828125)"><path d="M-1411.03 -11.82 C-1416.97 -10.51, -1425.5 -5.4, -1434.54 -3.34 M-1411.03 -11.82 C-1415.94 -10.34, -1422.08 -8.76, -1434.54 -3.34" stroke="#f08c00" stroke-width="4" fill="none"></path></g><g transform="translate(1522.974621551371 350) rotate(0 -718.0000000000001 -2.33331298828125)"><path d="M-1411.07 5.28 C-1416.86 1.44, -1425.38 1.39, -1434.54 -3.34 M-1411.07 5.28 C-1415.88 2.91, -1422.01 0.66, -1434.54 -3.34" stroke="#f08c00" stroke-width="4" fill="none"></path></g></g><mask></mask><g transform="translate(602.9745605162146 368.00006103515625) rotate(0 83.17395782470703 17.50000000000003)"><text x="0" y="0" font-family="Virgil, Segoe UI Emoji" font-size="28px" fill="#1e1e1e" text-anchor="start" style="white-space: pre;" direction="ltr" dominant-baseline="text-before-edge">Backpresure</text></g><g stroke-linecap="round"><g transform="translate(130.97456051621464 68.66668701171875) rotate(0 712.3333129882814 -2)"><path d="M-1.18 -0.87 C236.5 -1.52, 1187.9 -3.04, 1425.66 -3.52 M0.41 1.29 C238.05 0.23, 1187.8 -4.79, 1425.24 -5.4" stroke="#1971c2" stroke-width="4" fill="none"></path></g><g transform="translate(130.97456051621464 68.66668701171875) rotate(0 712.3333129882814 -2)"><path d="M1401.78 3.25 C1406.57 2.83, 1415.08 0.06, 1425.24 -5.4 M1401.78 3.25 C1408.87 0.81, 1417.38 -2.27, 1425.24 -5.4" stroke="#1971c2" stroke-width="4" fill="none"></path></g><g transform="translate(130.97456051621464 68.66668701171875) rotate(0 712.3333129882814 -2)"><path d="M1401.71 -13.85 C1406.57 -9.7, 1415.11 -7.9, 1425.24 -5.4 M1401.71 -13.85 C1408.68 -10.83, 1417.22 -8.45, 1425.24 -5.4" stroke="#1971c2" stroke-width="4" fill="none"></path></g></g><mask></mask><g transform="translate(571.9745605162146 10) rotate(0 118.07594299316406 17.5)"><text x="0" y="0" font-family="Virgil, Segoe UI Emoji" font-size="28px" fill="#1e1e1e" text-anchor="start" style="white-space: pre;" direction="ltr" dominant-baseline="text-before-edge">Forward pressure</text></g></svg>