<svg version="1.1" xmlns="http://www.w3.org/2000/svg" viewBox="0 0 1138.1733474731445 486.6665954589844" width="1138.1733474731445" height="486.6665954589844" filter="invert(93%) hue-rotate(180deg)">
  <!-- svg-source:excalidraw -->
  
  <defs>
    <style class="style-fonts">
      @font-face {
        font-family: "Virgil";
        src: url("https://excalidraw.com/Virgil.woff2");
      }
      @font-face {
        font-family: "Cascadia";
        src: url("https://excalidraw.com/Cascadia.woff2");
      }
      @font-face {
        font-family: "Assistant";
        src: url("https://excalidraw.com/Assistant-Regular.woff2");
      }
    </style>
    
  </defs>
  <g stroke-linecap="round" transform="translate(317.28662872314453 98) rotate(0 87.66665649414062 58.666656494140625)"><path d="M7.15 7.54 C7.15 7.54, 7.15 7.54, 7.15 7.54 M7.15 7.54 C7.15 7.54, 7.15 7.54, 7.15 7.54 M0.72 27.13 C8.25 20.7, 13.32 13.46, 23.03 1.47 M0.72 27.13 C6.83 20.33, 14.2 12.12, 23.03 1.47 M0.86 39.17 C6.44 30.62, 17.31 22.73, 34.97 -0.07 M0.86 39.17 C14.09 24.47, 28.18 7.9, 34.97 -0.07 M0.33 51.97 C12.95 39.43, 24.32 24.8, 45.6 -0.11 M0.33 51.97 C17.17 33.38, 34.35 14.22, 45.6 -0.11 M0.47 64.01 C21.85 39.53, 41 16.49, 56.23 -0.14 M0.47 64.01 C18.35 41.2, 38.52 21.25, 56.23 -0.14 M0.6 76.05 C16.46 55.17, 35.08 35.11, 66.86 -0.18 M0.6 76.05 C16.56 57.17, 32.1 39.15, 66.86 -0.18 M0.73 88.09 C20.2 69.25, 36.72 47.77, 77.49 -0.21 M0.73 88.09 C29.87 54.25, 59.48 19.24, 77.49 -0.21 M2.18 98.62 C27.08 71.94, 48.26 47.55, 87.47 0.51 M2.18 98.62 C33.61 60.84, 65.01 26.03, 87.47 0.51 M5.59 106.89 C43.26 63.36, 78.69 23.95, 98.1 0.47 M5.59 106.89 C25.49 84.43, 45.95 61.84, 98.1 0.47 M10.97 112.89 C42.31 78.16, 73.92 42.83, 108.73 0.44 M10.97 112.89 C38.68 82.78, 63.4 54.43, 108.73 0.44 M18.98 115.88 C51.2 75.79, 85.93 35.67, 119.36 0.4 M18.98 115.88 C55.59 72.04, 92.54 29.06, 119.36 0.4 M28.3 117.35 C60.98 76.37, 96.67 36.52, 129.99 0.37 M28.3 117.35 C66.97 70.22, 106.33 24.67, 129.99 0.37 M38.93 117.32 C74.94 76.64, 110.44 33.89, 140.62 0.34 M38.93 117.32 C72.93 80.22, 103.68 41.31, 140.62 0.34 M49.56 117.28 C80.52 81.7, 112.08 43.44, 151.25 0.3 M49.56 117.28 C71.04 90.84, 94.33 65.39, 151.25 0.3 M60.19 117.25 C85.67 89.74, 110.85 58.89, 159.25 3.29 M60.19 117.25 C97.45 73.19, 134.78 29.46, 159.25 3.29 M70.82 117.21 C94.32 88.31, 118.96 61.35, 166.6 7.02 M70.82 117.21 C91.69 94.37, 112.75 70.04, 166.6 7.02 M81.45 117.18 C101.63 92.86, 121.69 70.81, 171.98 13.03 M81.45 117.18 C117.27 75.63, 154.25 33.89, 171.98 13.03 M92.08 117.14 C112.19 92.5, 136.26 65.61, 174.74 22.05 M92.08 117.14 C110.67 96.46, 126.79 76.43, 174.74 22.05 M102.71 117.11 C121.15 99.98, 134.26 81.09, 175.53 33.34 M102.71 117.11 C122.17 93.42, 143.47 71.07, 175.53 33.34 M112.68 117.83 C132.16 96.06, 150.6 75.76, 175.66 45.38 M112.68 117.83 C130.23 98.38, 146.98 78.45, 175.66 45.38 M123.31 117.79 C140.21 94.97, 159.86 74.92, 175.8 57.42 M123.31 117.79 C136.13 103.41, 148.37 87.9, 175.8 57.42 M133.94 117.76 C147.1 99.18, 163.73 84.55, 175.93 69.46 M133.94 117.76 C142.88 108.02, 149.69 98.78, 175.93 69.46 M144.57 117.73 C153.77 107.85, 162.53 97.44, 176.06 81.5 M144.57 117.73 C156.88 103.53, 169.4 88.98, 176.06 81.5 M156.52 116.18 C162.99 110.72, 166.9 101.83, 174.89 95.05 M156.52 116.18 C160.05 110.66, 166.17 106.35, 174.89 95.05" stroke="#ff8787" stroke-width="1" fill="none"></path><path d="M29.33 0 C54.91 0.04, 79.37 0.64, 146 0 M29.33 0 C52.76 0.09, 78.02 0.44, 146 0 M146 0 C165.96 1.56, 174.82 9.76, 175.33 29.33 M146 0 C166.31 -0.43, 174.58 7.81, 175.33 29.33 M175.33 29.33 C175.81 51.09, 176.44 71.03, 175.33 88 M175.33 29.33 C176.47 41.78, 175.71 53.92, 175.33 88 M175.33 88 C174.6 108.16, 164.53 115.83, 146 117.33 M175.33 88 C176.16 105.8, 165.35 117.22, 146 117.33 M146 117.33 C98.87 114.94, 56 114.99, 29.33 117.33 M146 117.33 C110.95 117.38, 73.34 115.77, 29.33 117.33 M29.33 117.33 C8.74 115.95, 0.43 108.58, 0 88 M29.33 117.33 C11.34 115.89, -1.93 109.07, 0 88 M0 88 C-1.42 76.24, 0.71 63.38, 0 29.33 M0 88 C0.03 65.51, -0.69 43.15, 0 29.33 M0 29.33 C-0.87 11.55, 8.94 0.02, 29.33 0 M0 29.33 C0.77 7.51, 8.43 0.2, 29.33 0" stroke="#1e1e1e" stroke-width="2" fill="none"></path></g><g stroke-linecap="round" transform="translate(220.9533462524414 359.3332824707031) rotate(0 87.66665649414062 58.666656494140625)"><path d="M7.15 7.54 C7.15 7.54, 7.15 7.54, 7.15 7.54 M7.15 7.54 C7.15 7.54, 7.15 7.54, 7.15 7.54 M0.72 27.13 C8.41 15.92, 16.17 6.43, 23.03 1.47 M0.72 27.13 C8.63 18.28, 16.43 8.35, 23.03 1.47 M0.86 39.17 C13.87 28.29, 21.72 12.19, 34.97 -0.07 M0.86 39.17 C11.35 27.42, 21.97 14.23, 34.97 -0.07 M0.33 51.97 C8.58 39.22, 20.21 28.51, 45.6 -0.11 M0.33 51.97 C11.98 39.47, 23.51 25.27, 45.6 -0.11 M0.47 64.01 C21.32 39.39, 41.73 14.34, 56.23 -0.14 M0.47 64.01 C14.22 47.23, 28.52 31.47, 56.23 -0.14 M0.6 76.05 C14.62 60.6, 30.2 42.46, 66.86 -0.18 M0.6 76.05 C15.44 58.55, 30.19 42.1, 66.86 -0.18 M0.73 88.09 C30.1 52.76, 62.85 16.71, 77.49 -0.21 M0.73 88.09 C20.14 65.26, 41.51 41.07, 77.49 -0.21 M2.18 98.62 C22.29 76.84, 37.43 56.43, 87.47 0.51 M2.18 98.62 C22.64 77.73, 40.19 55.64, 87.47 0.51 M5.59 106.89 C29.93 76.31, 57.7 48.66, 98.1 0.47 M5.59 106.89 C33.23 75.79, 60.39 45, 98.1 0.47 M10.97 112.89 C38.38 82.91, 64.36 51.69, 108.73 0.44 M10.97 112.89 C44.46 71.92, 79.61 32.76, 108.73 0.44 M18.98 115.88 C43.52 88.4, 66.88 58.66, 119.36 0.4 M18.98 115.88 C53.75 74.15, 90.18 34.49, 119.36 0.4 M28.3 117.35 C49.54 93.72, 66.72 71.14, 129.99 0.37 M28.3 117.35 C56.53 84.94, 84.82 52.24, 129.99 0.37 M38.93 117.32 C78.79 71.73, 118.84 25.37, 140.62 0.34 M38.93 117.32 C70.96 82.07, 101.96 44.21, 140.62 0.34 M49.56 117.28 C71.82 88.07, 99.58 61.62, 151.25 0.3 M49.56 117.28 C72.94 91.04, 94.95 64.66, 151.25 0.3 M60.19 117.25 C90.89 81.15, 121.17 47.8, 159.25 3.29 M60.19 117.25 C89.03 80.95, 119.75 46.4, 159.25 3.29 M70.82 117.21 C106.62 73.19, 146.43 30.76, 166.6 7.02 M70.82 117.21 C106.47 75.75, 142.38 34.03, 166.6 7.02 M81.45 117.18 C106.84 87.49, 132.37 59.55, 171.98 13.03 M81.45 117.18 C109.73 84.42, 138.75 52.27, 171.98 13.03 M92.08 117.14 C111.97 92.63, 135.02 68.7, 174.74 22.05 M92.08 117.14 C114.52 92.98, 136.29 67.97, 174.74 22.05 M102.71 117.11 C121.33 94.98, 144.36 70.71, 175.53 33.34 M102.71 117.11 C130.38 85.15, 158.28 52.98, 175.53 33.34 M112.68 117.83 C128.62 100.08, 142.82 81.11, 175.66 45.38 M112.68 117.83 C125.08 101.8, 139.6 86.66, 175.66 45.38 M123.31 117.79 C142.03 97.05, 163.84 73.62, 175.8 57.42 M123.31 117.79 C135.36 103.35, 148.42 90.4, 175.8 57.42 M133.94 117.76 C146.24 101.8, 162.56 86.44, 175.93 69.46 M133.94 117.76 C145.42 104.44, 156.05 92.35, 175.93 69.46 M144.57 117.73 C154.4 108.12, 164.44 94.95, 176.06 81.5 M144.57 117.73 C150.79 109.72, 157.74 101.57, 176.06 81.5 M156.52 116.18 C159.34 112.65, 167.85 104.62, 174.89 95.05 M156.52 116.18 C161.55 111.59, 166.2 105.61, 174.89 95.05" stroke="#ff8787" stroke-width="1" fill="none"></path><path d="M29.33 0 C63.11 -0.3, 97.05 1.74, 146 0 M29.33 0 C70.12 1.8, 108.83 0.97, 146 0 M146 0 C165.17 -1.59, 174.24 9.5, 175.33 29.33 M146 0 C164.13 -1.42, 175.35 10.08, 175.33 29.33 M175.33 29.33 C174.03 46.59, 175.56 65.28, 175.33 88 M175.33 29.33 C176.04 52.91, 176.33 74.59, 175.33 88 M175.33 88 C175.39 107.79, 165.55 115.72, 146 117.33 M175.33 88 C174.42 105.64, 166.66 119.52, 146 117.33 M146 117.33 C116.8 118.18, 85.23 117.33, 29.33 117.33 M146 117.33 C122.52 117.87, 97.66 118.93, 29.33 117.33 M29.33 117.33 C8.11 117.74, 0.4 105.81, 0 88 M29.33 117.33 C7.98 118.66, -1.4 109.19, 0 88 M0 88 C-2.17 68.87, -0.88 51.14, 0 29.33 M0 88 C-1.15 68.88, 0.5 49.99, 0 29.33 M0 29.33 C-1.09 11.27, 10.55 0.77, 29.33 0 M0 29.33 C0.16 8.28, 8.7 -0.62, 29.33 0" stroke="#1e1e1e" stroke-width="2" fill="none"></path></g><g stroke-linecap="round" transform="translate(652.9531021118164 98.6666259765625) rotate(0 87.66665649414062 58.666656494140625)"><path d="M7.15 7.54 C7.15 7.54, 7.15 7.54, 7.15 7.54 M7.15 7.54 C7.15 7.54, 7.15 7.54, 7.15 7.54 M0.72 27.13 C7.54 19.8, 12.45 14.29, 23.03 1.47 M0.72 27.13 C7.86 18.61, 15.6 12.24, 23.03 1.47 M0.86 39.17 C14.66 25.75, 29.26 9.19, 34.97 -0.07 M0.86 39.17 C12.1 25.43, 25.06 10.43, 34.97 -0.07 M0.33 51.97 C10.06 38.27, 23.79 27.42, 45.6 -0.11 M0.33 51.97 C18.59 32.25, 36.14 11.56, 45.6 -0.11 M0.47 64.01 C17.28 43.78, 36.62 23.18, 56.23 -0.14 M0.47 64.01 C14.53 46.05, 30.03 29.49, 56.23 -0.14 M0.6 76.05 C20.42 51.38, 42.66 26.39, 66.86 -0.18 M0.6 76.05 C17.34 57.26, 32.27 39.37, 66.86 -0.18 M0.73 88.09 C22.06 62.83, 43.8 35.46, 77.49 -0.21 M0.73 88.09 C22.11 62.96, 45.39 38.03, 77.49 -0.21 M2.18 98.62 C22.94 72.91, 44.88 50.54, 87.47 0.51 M2.18 98.62 C33.65 62.94, 64.3 26.46, 87.47 0.51 M5.59 106.89 C26.57 81.85, 46.9 57.9, 98.1 0.47 M5.59 106.89 C28.37 79.12, 53.25 52.9, 98.1 0.47 M10.97 112.89 C45.31 75.07, 79.05 34.2, 108.73 0.44 M10.97 112.89 C34.46 85.92, 58.94 58.38, 108.73 0.44 M18.98 115.88 C53.72 77.67, 86.39 37.53, 119.36 0.4 M18.98 115.88 C40.96 89.84, 65.25 63.44, 119.36 0.4 M28.3 117.35 C60.31 80.93, 92.3 44.51, 129.99 0.37 M28.3 117.35 C60.31 80.73, 90.64 44.96, 129.99 0.37 M38.93 117.32 C67.26 85.99, 93.3 53.73, 140.62 0.34 M38.93 117.32 C74.52 77.47, 111.19 35.37, 140.62 0.34 M49.56 117.28 C73.41 84.87, 103.08 55.71, 151.25 0.3 M49.56 117.28 C85.9 77.14, 121.48 36.05, 151.25 0.3 M60.19 117.25 C83.48 90.76, 109.22 60.97, 159.25 3.29 M60.19 117.25 C81.91 94.45, 102.77 69.06, 159.25 3.29 M70.82 117.21 C99.35 83.06, 127.75 51.46, 166.6 7.02 M70.82 117.21 C100.98 83.14, 131.89 48.62, 166.6 7.02 M81.45 117.18 C108.08 85.5, 134.81 55.39, 171.98 13.03 M81.45 117.18 C104.97 89.47, 129.18 59.83, 171.98 13.03 M92.08 117.14 C114.94 88.47, 137.46 62.64, 174.74 22.05 M92.08 117.14 C117.73 88.13, 144.44 56.84, 174.74 22.05 M102.71 117.11 C131.86 85.58, 156.44 52.46, 175.53 33.34 M102.71 117.11 C119.65 97.42, 138.86 77.15, 175.53 33.34 M112.68 117.83 C131.5 94.41, 154.18 69.44, 175.66 45.38 M112.68 117.83 C126.45 103.66, 138.73 87.1, 175.66 45.38 M123.31 117.79 C140.93 94.99, 163.88 72.43, 175.8 57.42 M123.31 117.79 C138.6 99.27, 154.09 80.77, 175.8 57.42 M133.94 117.76 C144.47 104.84, 156.73 91.96, 175.93 69.46 M133.94 117.76 C144.41 105.05, 155.08 93.8, 175.93 69.46 M144.57 117.73 C155.19 105.24, 167.78 88.82, 176.06 81.5 M144.57 117.73 C152.78 108.82, 161.06 97.5, 176.06 81.5 M156.52 116.18 C162.79 106.91, 172.53 99.83, 174.89 95.05 M156.52 116.18 C164.12 107.55, 171.59 98.72, 174.89 95.05" stroke="#ff8787" stroke-width="1" fill="none"></path><path d="M29.33 0 C59.06 -1.71, 85.13 1.11, 146 0 M29.33 0 C71.72 -0.58, 113.95 0.07, 146 0 M146 0 C164.32 -1.23, 175.35 10.04, 175.33 29.33 M146 0 C165.94 -1.43, 175.13 8.7, 175.33 29.33 M175.33 29.33 C177.25 44.46, 175.79 57.42, 175.33 88 M175.33 29.33 C175.71 52.1, 175.68 73.82, 175.33 88 M175.33 88 C174.54 105.89, 166.52 119.23, 146 117.33 M175.33 88 C174.48 108.57, 166 119.02, 146 117.33 M146 117.33 C105.57 116.08, 70.62 119, 29.33 117.33 M146 117.33 C116.45 118.14, 88.76 117.06, 29.33 117.33 M29.33 117.33 C8.22 118.48, -1.21 108.97, 0 88 M29.33 117.33 C10.2 119.04, 0.35 105.56, 0 88 M0 88 C0.48 72.33, -0.56 53.52, 0 29.33 M0 88 C-0.94 73.98, -0.01 58.85, 0 29.33 M0 29.33 C0.14 8.48, 8.84 -0.54, 29.33 0 M0 29.33 C-2.28 11.47, 11.61 2.05, 29.33 0" stroke="#1e1e1e" stroke-width="2" fill="none"></path></g><g stroke-linecap="round"><g transform="translate(734.1301421396843 96.33331298828125) rotate(0 -153.45417522636637 -31.5)"><path d="M0.08 -0.71 C-25.48 -11.03, -101.92 -61.98, -153.12 -61.99 C-204.32 -62, -281.52 -11.02, -307.11 -0.76 M-1.33 1.53 C-27.1 -9.1, -103.1 -63.39, -154.21 -63.58 C-205.32 -63.78, -282.64 -10.37, -307.99 0.34" stroke="#1e1e1e" stroke-width="2" fill="none"></path></g><g transform="translate(734.1301421396843 96.33331298828125) rotate(0 -153.45417522636637 -31.5)"><path d="M-291.3 -18.28 C-297.85 -12.76, -300.32 -6.68, -307.99 0.34 M-291.3 -18.28 C-295.24 -13.89, -300.14 -8.26, -307.99 0.34" stroke="#1e1e1e" stroke-width="2" fill="none"></path></g><g transform="translate(734.1301421396843 96.33331298828125) rotate(0 -153.45417522636637 -31.5)"><path d="M-283.24 -3.19 C-292.36 -2.5, -297.42 -1.25, -307.99 0.34 M-283.24 -3.19 C-289.34 -2.81, -296.38 -1.17, -307.99 0.34" stroke="#1e1e1e" stroke-width="2" fill="none"></path></g></g><mask></mask><g stroke-linecap="round"><g transform="translate(317.9057064981621 216.33331298828125) rotate(0 -21.642882393368154 70.5)"><path d="M-0.84 0.24 C-8.36 2.68, -42.4 -8.96, -44.42 14.66 C-46.44 38.27, -18.24 121.07, -12.96 141.94 M0.92 -0.67 C-6.31 1.93, -39.94 -7.44, -42.31 16.02 C-44.68 39.48, -18.37 119.36, -13.31 140.09" stroke="#1e1e1e" stroke-width="2" fill="none"></path></g><g transform="translate(317.9057064981621 216.33331298828125) rotate(0 -21.642882393368154 70.5)"><path d="M-27.95 119.82 C-22.28 125.31, -18 135.81, -13.31 140.09 M-27.95 119.82 C-23.16 127.38, -16.39 135.28, -13.31 140.09" stroke="#1e1e1e" stroke-width="2" fill="none"></path></g><g transform="translate(317.9057064981621 216.33331298828125) rotate(0 -21.642882393368154 70.5)"><path d="M-11.5 115.15 C-11.73 122.2, -13.36 134.38, -13.31 140.09 M-11.5 115.15 C-12.89 124.32, -12.34 133.98, -13.31 140.09" stroke="#1e1e1e" stroke-width="2" fill="none"></path></g></g><mask></mask><g transform="translate(667.9535598754883 10) rotate(0 125.0059585571289 17.5)"><text x="0" y="0" font-family="Virgil, Segoe UI Emoji" font-size="28px" fill="#1e1e1e" text-anchor="start" style="white-space: pre;" direction="ltr" dominant-baseline="text-before-edge">mean latency 10ms</text></g><g transform="translate(10 307.1666259765625) rotate(0 120.23196411132812 17.5)"><text x="0" y="0" font-family="Virgil, Segoe UI Emoji" font-size="28px" fill="#1e1e1e" text-anchor="start" style="white-space: pre;" direction="ltr" dominant-baseline="text-before-edge">mean latency 5ms</text></g><g stroke-linecap="round"><g transform="translate(1085.2866897583008 152.66665649414062) rotate(0 -126.3333740234375 -0.3333282470703125)"><path d="M0.72 1.04 C-41.29 0.99, -209.44 0.68, -251.57 0.36 M-0.36 0.54 C-42.47 0.12, -209.92 -1.19, -251.94 -1.23" stroke="#1e1e1e" stroke-width="2" fill="none"></path></g><g transform="translate(1085.2866897583008 152.66665649414062) rotate(0 -126.3333740234375 -0.3333282470703125)"><path d="M-228.41 -9.66 C-234.63 -4.82, -242.67 -2.77, -251.94 -1.23 M-228.41 -9.66 C-234.33 -7.43, -240.87 -4.49, -251.94 -1.23" stroke="#1e1e1e" stroke-width="2" fill="none"></path></g><g transform="translate(1085.2866897583008 152.66665649414062) rotate(0 -126.3333740234375 -0.3333282470703125)"><path d="M-228.49 7.44 C-234.78 6.46, -242.8 2.69, -251.94 -1.23 M-228.49 7.44 C-234.29 4.88, -240.81 3.03, -251.94 -1.23" stroke="#1e1e1e" stroke-width="2" fill="none"></path></g></g><mask></mask><g transform="translate(907.9534378051758 203) rotate(0 110.10995483398438 17.5)"><text x="0" y="0" font-family="Virgil, Segoe UI Emoji" font-size="28px" fill="#1e1e1e" text-anchor="start" style="white-space: pre;" direction="ltr" dominant-baseline="text-before-edge">Overall latency?</text></g><g transform="translate(220.62000274658203 14.000030517578125) rotate(0 125.0059585571289 17.5)"><text x="0" y="0" font-family="Virgil, Segoe UI Emoji" font-size="28px" fill="#1e1e1e" text-anchor="start" style="white-space: pre;" direction="ltr" dominant-baseline="text-before-edge">mean latency 10ms</text></g></svg>