<svg version="1.1" xmlns="http://www.w3.org/2000/svg" viewBox="0 0 1154.4264831542969 782.6395953113671" width="1154.4264831542969" height="782.6395953113671" filter="invert(93%) hue-rotate(180deg)">
  <!-- svg-source:excalidraw -->
  
  <defs>
    <style class="style-fonts">
      @font-face {
        font-family: "Virgil";
        src: url("https://excalidraw.com/Virgil.woff2");
      }
      @font-face {
        font-family: "Cascadia";
        src: url("https://excalidraw.com/Cascadia.woff2");
      }
      @font-face {
        font-family: "Assistant";
        src: url("https://excalidraw.com/Assistant-Regular.woff2");
      }
    </style>
    
  </defs>
  <g stroke-linecap="round" transform="translate(435.33331298828125 116.56046335529288) rotate(0 74.33334350585938 227)"><path d="M7.86 8.16 C7.86 8.16, 7.86 8.16, 7.86 8.16 M7.86 8.16 C7.86 8.16, 7.86 8.16, 7.86 8.16 M1.43 27.75 C7.38 20.85, 10.86 15.9, 24.4 1.33 M1.43 27.75 C5.43 22.2, 12.06 17.58, 24.4 1.33 M0.91 40.54 C11.19 26.39, 25.07 12.06, 36.34 -0.21 M0.91 40.54 C11.97 27.81, 23 14.07, 36.34 -0.21 M1.04 52.58 C10.14 42.34, 21.2 32.03, 46.31 0.51 M1.04 52.58 C13.16 39.18, 24.01 28.14, 46.31 0.51 M1.18 64.62 C15.4 48.7, 28.89 32.76, 56.94 0.47 M1.18 64.62 C16.67 46.35, 31.76 29.67, 56.94 0.47 M1.31 76.67 C17.39 60.17, 31.34 41.32, 67.57 0.44 M1.31 76.67 C17.73 58.07, 34.91 39.3, 67.57 0.44 M1.44 88.71 C18.2 67.28, 38.14 48.56, 78.2 0.41 M1.44 88.71 C27.42 57.75, 54.43 28.31, 78.2 0.41 M0.92 101.5 C18.31 77.81, 37.6 59.49, 88.83 0.37 M0.92 101.5 C25.77 74.78, 48.27 46.62, 88.83 0.37 M1.05 113.54 C28.65 80.41, 57.74 50.82, 99.46 0.34 M1.05 113.54 C27.82 83.11, 54.32 53.08, 99.46 0.34 M1.19 125.58 C42.66 77.64, 82.63 30.51, 110.09 0.3 M1.19 125.58 C35.39 87.56, 69.14 50.12, 110.09 0.3 M1.32 137.62 C45.55 87.41, 91.82 32.27, 120.72 0.27 M1.32 137.62 C37.25 99.53, 72.14 59.61, 120.72 0.27 M1.45 149.67 C44.44 98.46, 88.33 49.68, 129.39 2.5 M1.45 149.67 C29.76 116.47, 57.42 84.53, 129.39 2.5 M0.93 162.46 C51.95 101.18, 104.92 40.8, 137.39 5.48 M0.93 162.46 C37.87 120.72, 74.62 78.18, 137.39 5.48 M1.06 174.5 C44.86 123.92, 87.17 76.77, 143.43 10.73 M1.06 174.5 C36.16 132.18, 71.26 90.78, 143.43 10.73 M1.2 186.54 C37.4 143.34, 75.87 100.91, 146.84 19 M1.2 186.54 C55.31 123.23, 108.18 62.1, 146.84 19 M1.33 198.58 C56.63 134.81, 111.34 69.84, 148.29 29.53 M1.33 198.58 C40.99 151, 80.81 105.97, 148.29 29.53 M0.81 211.38 C43.05 161.27, 87.34 110.41, 148.42 41.57 M0.81 211.38 C56.1 149.08, 111.85 86.23, 148.42 41.57 M0.94 223.42 C45.36 171.21, 93.01 120, 148.55 53.61 M0.94 223.42 C50.77 166.43, 100.69 109.83, 148.55 53.61 M1.07 235.46 C44.01 185, 88.15 135.5, 148.69 65.65 M1.07 235.46 C55.04 173.78, 109.15 110.86, 148.69 65.65 M1.21 247.5 C50.82 188.17, 103.13 130.23, 148.82 77.69 M1.21 247.5 C52.8 189.22, 105.01 130.72, 148.82 77.69 M1.34 259.54 C59.21 192.83, 119.53 124.03, 148.3 90.49 M1.34 259.54 C41.36 216.19, 79.77 172.41, 148.3 90.49 M0.82 272.34 C50.58 215.6, 97.18 160.92, 148.43 102.53 M0.82 272.34 C54.44 210.32, 110.63 145.81, 148.43 102.53 M0.95 284.38 C59.33 215.96, 119.41 149.5, 148.56 114.57 M0.95 284.38 C38.17 240.51, 77.58 195.13, 148.56 114.57 M1.08 296.42 C38.11 252.24, 77.72 207.6, 148.7 126.61 M1.08 296.42 C52.57 235.42, 104.54 176.46, 148.7 126.61 M1.22 308.46 C43.57 261.27, 81.22 213.54, 148.83 138.65 M1.22 308.46 C59.44 241.18, 116.18 174.15, 148.83 138.65 M1.35 320.5 C50.37 265.41, 95.63 214.6, 148.31 151.45 M1.35 320.5 C54.65 257.74, 109.1 196.29, 148.31 151.45 M0.83 333.3 C38.99 290.92, 77.39 246.78, 148.44 163.49 M0.83 333.3 C56.86 266.32, 113.11 201.8, 148.44 163.49 M0.96 345.34 C32.12 309.37, 60.1 276.7, 148.57 175.53 M0.96 345.34 C56.73 281.94, 111.84 216.78, 148.57 175.53 M1.09 357.38 C55.47 298.08, 108.37 236.64, 148.71 187.57 M1.09 357.38 C57.25 290.77, 115.91 222.85, 148.71 187.57 M1.23 369.42 C38.89 326.29, 74.48 286.65, 148.84 199.61 M1.23 369.42 C45.67 320.74, 88.59 271.33, 148.84 199.61 M1.36 381.46 C34.38 343.88, 67.66 308.39, 148.97 211.65 M1.36 381.46 C39.03 337.81, 77.22 293.78, 148.97 211.65 M0.84 394.26 C38.21 348.34, 77.23 304.45, 148.45 224.45 M0.84 394.26 C44.06 346.15, 86.56 297.32, 148.45 224.45 M0.97 406.3 C41.74 360.95, 83.61 314.5, 148.58 236.49 M0.97 406.3 C39.87 363.82, 77.73 319.33, 148.58 236.49 M1.1 418.34 C47.63 366.62, 92.51 315.5, 148.72 248.53 M1.1 418.34 C44.53 370.04, 87.01 321.91, 148.72 248.53 M1.24 430.38 C33.16 392.83, 66.41 352.74, 148.85 260.57 M1.24 430.38 C56.62 367.36, 110.78 304.53, 148.85 260.57 M3.99 439.4 C53.83 383.26, 104.33 327.56, 148.98 272.61 M3.99 439.4 C48.13 389.92, 90.83 338.56, 148.98 272.61 M8.72 446.16 C52.04 397.01, 95.91 347.63, 149.12 284.65 M8.72 446.16 C61.57 384.03, 114.11 323.67, 149.12 284.65 M15.41 450.65 C59.02 399.76, 103.58 349.4, 148.59 297.45 M15.41 450.65 C53.14 407.45, 90.85 365.02, 148.59 297.45 M23.42 453.64 C54.41 417.6, 85.99 379.44, 148.73 309.49 M23.42 453.64 C70.31 399.51, 118.37 344.22, 148.73 309.49 M34.05 453.6 C79.37 405.98, 120.96 356.13, 148.86 321.53 M34.05 453.6 C62.31 420.96, 89.38 389.68, 148.86 321.53 M44.68 453.57 C79.02 413.12, 115.73 370.24, 148.99 333.57 M44.68 453.57 C76.13 419.04, 106.5 383.82, 148.99 333.57 M55.31 453.53 C90.21 414.94, 124.78 371.69, 149.12 345.61 M55.31 453.53 C88.5 413.37, 122.15 373.94, 149.12 345.61 M65.94 453.5 C94.46 421.34, 121.55 388.66, 148.6 358.4 M65.94 453.5 C95.08 421.7, 122.55 388.5, 148.6 358.4 M76.57 453.46 C99.29 425.99, 124.4 395.44, 148.74 370.45 M76.57 453.46 C96.53 428.49, 117.68 406.3, 148.74 370.45 M87.2 453.43 C106.79 429.25, 125.08 410.26, 148.87 382.49 M87.2 453.43 C107.06 428.19, 127.48 405.49, 148.87 382.49 M97.83 453.39 C113.83 436.26, 128.85 416.38, 149 394.53 M97.83 453.39 C108.09 440.79, 119.99 428.23, 149 394.53 M108.46 453.36 C118.21 441.65, 129.43 429.3, 149.13 406.57 M108.46 453.36 C119.19 442.6, 129.06 431.13, 149.13 406.57 M119.09 453.33 C126.77 447.49, 131.93 437.9, 149.27 418.61 M119.09 453.33 C130.06 439.65, 142.05 426.75, 149.27 418.61 M131.69 451.03 C135.82 444.92, 144.12 439.61, 148.09 432.16 M131.69 451.03 C135.31 446.12, 139.66 443.71, 148.09 432.16" stroke="#ff8787" stroke-width="1" fill="none"></path><path d="M32 0 C51.79 -0.2, 67.73 -1.24, 116.67 0 M32 0 C53.62 0.03, 74.34 -0.74, 116.67 0 M116.67 0 C139.67 0.86, 147.29 10.75, 148.67 32 M116.67 0 C136.96 0.77, 146.85 8.91, 148.67 32 M148.67 32 C150.18 142.22, 150.08 253.66, 148.67 422 M148.67 32 C150.27 116.21, 150.74 198.95, 148.67 422 M148.67 422 C148.11 442.48, 137.01 455.64, 116.67 454 M148.67 422 C150.46 443.77, 140.03 452.32, 116.67 454 M116.67 454 C93.84 454.69, 70.49 454.67, 32 454 M116.67 454 C83.9 454.95, 50.81 453.77, 32 454 M32 454 C9.71 452.05, -1.17 444.52, 0 422 M32 454 C11.92 455.91, -1.27 443.21, 0 422 M0 422 C3.25 277.59, 1.84 131.52, 0 32 M0 422 C-0.19 318.2, 0.13 215.38, 0 32 M0 32 C1.03 11.61, 12.07 -1.23, 32 0 M0 32 C-0.62 11.25, 10.36 -0.25, 32 0" stroke="#1e1e1e" stroke-width="2" fill="none"></path></g><g transform="translate(500.96665954589844 331.0604633552929) rotate(0 8.699996948242188 12.5)"><text x="8.699996948242188" y="0" font-family="Virgil, Segoe UI Emoji" font-size="20px" fill="#1e1e1e" text-anchor="middle" style="white-space: pre;" direction="ltr" dominant-baseline="text-before-edge">L1</text></g><g stroke-linecap="round" transform="translate(926.9999084472656 120.22708933185538) rotate(0 74.33334350585938 227)"><path d="M7.86 8.16 C7.86 8.16, 7.86 8.16, 7.86 8.16 M7.86 8.16 C7.86 8.16, 7.86 8.16, 7.86 8.16 M1.43 27.75 C7.41 22.02, 11.31 15.05, 24.4 1.33 M1.43 27.75 C9.58 18.86, 16.2 9.2, 24.4 1.33 M0.91 40.54 C10.02 30.22, 17.18 22.58, 36.34 -0.21 M0.91 40.54 C9.88 31.44, 16.36 21.32, 36.34 -0.21 M1.04 52.58 C13.01 40.69, 23.15 27.66, 46.31 0.51 M1.04 52.58 C16.08 35.86, 28.96 19.16, 46.31 0.51 M1.18 64.62 C22.53 39.89, 43.02 17, 56.94 0.47 M1.18 64.62 C18.92 43.15, 37.91 23.25, 56.94 0.47 M1.31 76.67 C23.28 49.21, 46.81 25.15, 67.57 0.44 M1.31 76.67 C23.66 50.39, 46.18 24.84, 67.57 0.44 M1.44 88.71 C22.93 60.92, 46.54 34.6, 78.2 0.41 M1.44 88.71 C24.62 61.05, 49.64 32.91, 78.2 0.41 M0.92 101.5 C28.12 70.05, 52.4 42.09, 88.83 0.37 M0.92 101.5 C18.14 80.13, 36.87 60.01, 88.83 0.37 M1.05 113.54 C23.48 85.15, 47.89 60.01, 99.46 0.34 M1.05 113.54 C21.18 91.64, 42.2 68.27, 99.46 0.34 M1.19 125.58 C40.85 81.3, 79.51 33.3, 110.09 0.3 M1.19 125.58 C40.93 76.36, 84.07 29.51, 110.09 0.3 M1.32 137.62 C35.72 95.26, 71.22 55.04, 120.72 0.27 M1.32 137.62 C41.47 90.77, 81.78 46.05, 120.72 0.27 M1.45 149.67 C34.31 111.13, 66.78 75.24, 129.39 2.5 M1.45 149.67 C36.13 108.92, 70.21 68.47, 129.39 2.5 M0.93 162.46 C55.59 101.49, 109.75 35.65, 137.39 5.48 M0.93 162.46 C32.41 125.82, 64.13 87.65, 137.39 5.48 M1.06 174.5 C38.43 133.62, 74.47 89.06, 143.43 10.73 M1.06 174.5 C52.99 111.83, 106.23 50.17, 143.43 10.73 M1.2 186.54 C52.9 125.16, 108.26 64.13, 146.84 19 M1.2 186.54 C54.84 123.03, 108.15 59.56, 146.84 19 M1.33 198.58 C52.83 141.55, 102.1 81.32, 148.29 29.53 M1.33 198.58 C49.45 140.68, 100.35 82.03, 148.29 29.53 M0.81 211.38 C33.18 173.22, 69.37 133.71, 148.42 41.57 M0.81 211.38 C32.55 173.07, 64.76 137.13, 148.42 41.57 M0.94 223.42 C31.84 191.27, 59.16 157.21, 148.55 53.61 M0.94 223.42 C42.22 176.26, 84.97 127.64, 148.55 53.61 M1.07 235.46 C57.23 173.22, 111.27 111.41, 148.69 65.65 M1.07 235.46 C53.3 174.98, 105.4 115.06, 148.69 65.65 M1.21 247.5 C33.89 211.63, 62.06 177.32, 148.82 77.69 M1.21 247.5 C43.67 200.2, 86.09 152.31, 148.82 77.69 M1.34 259.54 C49.55 203.48, 100.12 148.48, 148.3 90.49 M1.34 259.54 C57.13 196.28, 113.92 132, 148.3 90.49 M0.82 272.34 C42.32 224.07, 85.99 174.26, 148.43 102.53 M0.82 272.34 C42.56 224.4, 85.35 175.51, 148.43 102.53 M0.95 284.38 C61.03 216.86, 118.95 150.6, 148.56 114.57 M0.95 284.38 C31.16 250.09, 61.42 214.74, 148.56 114.57 M1.08 296.42 C38.45 254.36, 75.62 213.12, 148.7 126.61 M1.08 296.42 C59.46 229.2, 118.95 160.54, 148.7 126.61 M1.22 308.46 C36.24 267.51, 72.54 227.18, 148.83 138.65 M1.22 308.46 C55.17 246.24, 108.13 183.74, 148.83 138.65 M1.35 320.5 C36.73 279.74, 71.33 239.88, 148.31 151.45 M1.35 320.5 C58.68 254.9, 115.64 189.31, 148.31 151.45 M0.83 333.3 C41.31 286.5, 81.91 240.21, 148.44 163.49 M0.83 333.3 C43.87 281.78, 88.6 231.26, 148.44 163.49 M0.96 345.34 C38.03 302.41, 79.14 256.15, 148.57 175.53 M0.96 345.34 C61.04 277.97, 119.37 209.58, 148.57 175.53 M1.09 357.38 C41.27 306.54, 85.75 257.93, 148.71 187.57 M1.09 357.38 C39.53 314.21, 78.4 269.91, 148.71 187.57 M1.23 369.42 C44.02 317.38, 91.47 264.89, 148.84 199.61 M1.23 369.42 C34.25 330, 66.79 291.21, 148.84 199.61 M1.36 381.46 C33.89 346.26, 64.21 309.62, 148.97 211.65 M1.36 381.46 C33.62 346.12, 65.73 308.92, 148.97 211.65 M0.84 394.26 C29.84 357.95, 60.27 324.23, 148.45 224.45 M0.84 394.26 C36.51 353.72, 69.79 314.37, 148.45 224.45 M0.97 406.3 C57.09 342.81, 111.09 277.61, 148.58 236.49 M0.97 406.3 C53.72 344.25, 105.14 283.23, 148.58 236.49 M1.1 418.34 C51.64 359.35, 103.77 300.04, 148.72 248.53 M1.1 418.34 C39.43 375.4, 76.46 333.66, 148.72 248.53 M1.24 430.38 C35.49 392.14, 67.94 354.83, 148.85 260.57 M1.24 430.38 C57.4 367.68, 113.35 303.88, 148.85 260.57 M3.99 439.4 C61.85 374.7, 122.04 307.04, 148.98 272.61 M3.99 439.4 C42.35 392.65, 81.37 347.52, 148.98 272.61 M8.72 446.16 C64.17 381.95, 118.38 321.1, 149.12 284.65 M8.72 446.16 C63.23 384.21, 116.55 323.1, 149.12 284.65 M15.41 450.65 C65.06 394.56, 118.5 334.99, 148.59 297.45 M15.41 450.65 C62.9 397.17, 108.52 344.9, 148.59 297.45 M23.42 453.64 C55.62 418.27, 84.52 380.51, 148.73 309.49 M23.42 453.64 C48.51 423.12, 74.66 393.59, 148.73 309.49 M34.05 453.6 C76.73 406.6, 118.8 357.15, 148.86 321.53 M34.05 453.6 C68.03 413.9, 102.83 373.8, 148.86 321.53 M44.68 453.57 C85.2 408.48, 123.15 364.55, 148.99 333.57 M44.68 453.57 C76.06 419.26, 106.72 384.32, 148.99 333.57 M55.31 453.53 C75.04 431.98, 94.77 412.54, 149.12 345.61 M55.31 453.53 C76.23 430.63, 95.17 406.16, 149.12 345.61 M65.94 453.5 C85.49 427.56, 108.76 404.9, 148.6 358.4 M65.94 453.5 C98.22 418.39, 128.78 381.75, 148.6 358.4 M76.57 453.46 C103.11 422.29, 131.74 389.4, 148.74 370.45 M76.57 453.46 C100.97 424.57, 126.68 395.53, 148.74 370.45 M87.2 453.43 C110.26 426.19, 132.62 401.44, 148.87 382.49 M87.2 453.43 C102.41 435.42, 116.61 417.72, 148.87 382.49 M97.83 453.39 C118.89 432.26, 136.27 407.05, 149 394.53 M97.83 453.39 C109.28 440.98, 119.54 428.86, 149 394.53 M108.46 453.36 C119.6 439.53, 132.72 421.92, 149.13 406.57 M108.46 453.36 C123.06 435.35, 139.43 418.53, 149.13 406.57 M119.09 453.33 C127.5 441.79, 137.85 432.43, 149.27 418.61 M119.09 453.33 C127.39 443.49, 135.25 434.86, 149.27 418.61 M131.69 451.03 C136.74 445.87, 141.44 439.33, 148.09 432.16 M131.69 451.03 C135.28 445.73, 141.09 442.23, 148.09 432.16" stroke="#ffa94d" stroke-width="1" fill="none"></path><path d="M32 0 C52.24 0.35, 72.6 -0.97, 116.67 0 M32 0 C49.53 1.37, 68.33 0.91, 116.67 0 M116.67 0 C139.81 -1.09, 148.75 9.41, 148.67 32 M116.67 0 C138.76 1.57, 146.62 11.96, 148.67 32 M148.67 32 C148.05 168.72, 147.63 303.81, 148.67 422 M148.67 32 C150.43 168.25, 150.55 304.37, 148.67 422 M148.67 422 C146.7 442.67, 136.33 454.23, 116.67 454 M148.67 422 C150.03 442.63, 139.18 451.99, 116.67 454 M116.67 454 C83.73 456.24, 53.82 452.7, 32 454 M116.67 454 C84.72 454.12, 53.49 453.59, 32 454 M32 454 C10.94 453.74, 1.02 444.98, 0 422 M32 454 C12.47 452.35, 0.07 441.13, 0 422 M0 422 C0.81 269.35, -0.02 118.87, 0 32 M0 422 C-1 276.83, -0.67 131.95, 0 32 M0 32 C0 9.81, 11.87 -1.49, 32 0 M0 32 C2.04 9.06, 12.38 -2.04, 32 0" stroke="#1e1e1e" stroke-width="2" fill="none"></path></g><g transform="translate(988.5332565307617 334.7270893318554) rotate(0 12.799995422363281 12.5)"><text x="12.799995422363281" y="0" font-family="Virgil, Segoe UI Emoji" font-size="20px" fill="#1e1e1e" text-anchor="middle" style="white-space: pre;" direction="ltr" dominant-baseline="text-before-edge">L3</text></g><g stroke-linecap="round" transform="translate(677.6667175292969 122.22708933185538) rotate(0 74.33334350585938 227)"><path d="M7.86 8.16 C7.86 8.16, 7.86 8.16, 7.86 8.16 M7.86 8.16 C7.86 8.16, 7.86 8.16, 7.86 8.16 M1.43 27.75 C10.04 17.78, 18.35 10.65, 24.4 1.33 M1.43 27.75 C7.77 19.67, 15.13 12.54, 24.4 1.33 M0.91 40.54 C9.47 30.46, 19.8 19.84, 36.34 -0.21 M0.91 40.54 C12.54 27.66, 25.53 14.1, 36.34 -0.21 M1.04 52.58 C15.3 35.65, 29.65 21.04, 46.31 0.51 M1.04 52.58 C14.18 38.88, 26.16 25.43, 46.31 0.51 M1.18 64.62 C15.29 50.21, 26.74 32.48, 56.94 0.47 M1.18 64.62 C13.42 50.63, 25.35 36.19, 56.94 0.47 M1.31 76.67 C19.93 56.58, 35.44 35.5, 67.57 0.44 M1.31 76.67 C17.86 57.85, 34.12 38.31, 67.57 0.44 M1.44 88.71 C20.11 69.89, 39.16 47.09, 78.2 0.41 M1.44 88.71 C29.55 56.05, 57.56 23.41, 78.2 0.41 M0.92 101.5 C20.8 77.67, 42.21 50.73, 88.83 0.37 M0.92 101.5 C23.08 76.61, 44.95 50.3, 88.83 0.37 M1.05 113.54 C21.43 86.65, 44.52 60.52, 99.46 0.34 M1.05 113.54 C39.92 68.84, 77.71 24.7, 99.46 0.34 M1.19 125.58 C41.65 83.35, 80.78 35.68, 110.09 0.3 M1.19 125.58 C28.27 93.7, 56.08 60.14, 110.09 0.3 M1.32 137.62 C31.17 103.94, 60.74 71.78, 120.72 0.27 M1.32 137.62 C32.91 98.59, 67.2 61.07, 120.72 0.27 M1.45 149.67 C38.7 106.49, 78.25 63.08, 129.39 2.5 M1.45 149.67 C44.12 102.04, 84.41 54.77, 129.39 2.5 M0.93 162.46 C53.53 103.67, 108.2 41.69, 137.39 5.48 M0.93 162.46 C47.34 109.65, 94.14 55.49, 137.39 5.48 M1.06 174.5 C59.99 110.65, 116.06 43.47, 143.43 10.73 M1.06 174.5 C38.74 133.72, 73.5 92, 143.43 10.73 M1.2 186.54 C33.41 152.82, 65.29 115.69, 146.84 19 M1.2 186.54 C50.31 131.93, 97.49 77.97, 146.84 19 M1.33 198.58 C55.95 140.23, 108.62 76.61, 148.29 29.53 M1.33 198.58 C47.92 146.04, 95.08 90.47, 148.29 29.53 M0.81 211.38 C52.66 150.75, 108.43 89.85, 148.42 41.57 M0.81 211.38 C37.79 164.49, 77.22 120.07, 148.42 41.57 M0.94 223.42 C52.99 164.27, 103.58 104.43, 148.55 53.61 M0.94 223.42 C55.85 159.68, 108.99 97.7, 148.55 53.61 M1.07 235.46 C42.54 188.08, 81.48 141.55, 148.69 65.65 M1.07 235.46 C34.18 198.16, 68.2 161.55, 148.69 65.65 M1.21 247.5 C42.15 200.16, 81.86 154.03, 148.82 77.69 M1.21 247.5 C44.7 195.6, 89.03 144.27, 148.82 77.69 M1.34 259.54 C48.92 203.71, 94.29 149.38, 148.3 90.49 M1.34 259.54 C54.39 196.75, 108.13 133.64, 148.3 90.49 M0.82 272.34 C51.06 214.74, 100.92 156.39, 148.43 102.53 M0.82 272.34 C58.28 206.2, 114.09 142.54, 148.43 102.53 M0.95 284.38 C39.94 237.96, 81.29 190.33, 148.56 114.57 M0.95 284.38 C43.29 235.58, 85.8 186.36, 148.56 114.57 M1.08 296.42 C41.71 250.09, 79.82 203.71, 148.7 126.61 M1.08 296.42 C50.47 239.3, 101.05 180.81, 148.7 126.61 M1.22 308.46 C37.05 269.74, 70.57 229.44, 148.83 138.65 M1.22 308.46 C44.42 259.82, 87.9 210.98, 148.83 138.65 M1.35 320.5 C43.29 272.98, 82.1 225.36, 148.31 151.45 M1.35 320.5 C43.62 272.27, 85.84 225.18, 148.31 151.45 M0.83 333.3 C43.41 285.23, 87.25 233.68, 148.44 163.49 M0.83 333.3 C41.34 286.06, 82.12 237.62, 148.44 163.49 M0.96 345.34 C50.63 288.28, 98.14 232.88, 148.57 175.53 M0.96 345.34 C54.12 285.55, 107.34 224.08, 148.57 175.53 M1.09 357.38 C37.89 314.18, 74.68 270.61, 148.71 187.57 M1.09 357.38 C43.61 308.89, 86.05 258.3, 148.71 187.57 M1.23 369.42 C37.35 327.37, 78 283.18, 148.84 199.61 M1.23 369.42 C43.69 321.48, 86.42 273.05, 148.84 199.61 M1.36 381.46 C50.75 323.38, 101.15 265.63, 148.97 211.65 M1.36 381.46 C53.73 319.16, 109.31 256.79, 148.97 211.65 M0.84 394.26 C34.98 353.13, 72.52 313.69, 148.45 224.45 M0.84 394.26 C41.84 348.75, 79.73 303.54, 148.45 224.45 M0.97 406.3 C45.7 359.02, 88.48 310.86, 148.58 236.49 M0.97 406.3 C41.01 363.19, 79.65 318.71, 148.58 236.49 M1.1 418.34 C49.03 360, 98.72 304.35, 148.72 248.53 M1.1 418.34 C37.16 375.75, 73.54 335.15, 148.72 248.53 M1.24 430.38 C35.45 391.32, 67.29 353.52, 148.85 260.57 M1.24 430.38 C52.11 370.31, 101.86 311.46, 148.85 260.57 M3.99 439.4 C52.1 384.21, 103.62 326.24, 148.98 272.61 M3.99 439.4 C38.74 401.16, 71.87 362.06, 148.98 272.61 M8.72 446.16 C41.06 408.07, 71.22 372.82, 149.12 284.65 M8.72 446.16 C54.43 394.09, 96.62 343.55, 149.12 284.65 M15.41 450.65 C60.36 398.72, 103.8 348.76, 148.59 297.45 M15.41 450.65 C44.47 416.74, 74.01 383.13, 148.59 297.45 M23.42 453.64 C64.14 406.66, 107.79 357.41, 148.73 309.49 M23.42 453.64 C56.3 416.72, 87.08 381.07, 148.73 309.49 M34.05 453.6 C74.94 406.92, 114 358.52, 148.86 321.53 M34.05 453.6 C63.73 421.4, 91.26 390.27, 148.86 321.53 M44.68 453.57 C79.39 411.3, 115.15 374.35, 148.99 333.57 M44.68 453.57 C82.34 407.04, 122.7 361.86, 148.99 333.57 M55.31 453.53 C79.35 423.3, 105.64 393.41, 149.12 345.61 M55.31 453.53 C85.01 419.6, 114.94 386.05, 149.12 345.61 M65.94 453.5 C83.74 434.55, 97.48 417.58, 148.6 358.4 M65.94 453.5 C93.7 423.39, 120.93 391.07, 148.6 358.4 M76.57 453.46 C104.52 422.5, 130.12 389.69, 148.74 370.45 M76.57 453.46 C98.66 429.16, 119.78 404.86, 148.74 370.45 M87.2 453.43 C100.99 437.21, 116.7 419.57, 148.87 382.49 M87.2 453.43 C102.84 438.08, 115.47 421.77, 148.87 382.49 M97.83 453.39 C113.77 432.71, 133 414.76, 149 394.53 M97.83 453.39 C109.51 441.08, 120.75 425.57, 149 394.53 M108.46 453.36 C125.34 436.77, 138.69 418.08, 149.13 406.57 M108.46 453.36 C118.64 442.08, 128.77 429.16, 149.13 406.57 M119.09 453.33 C126.54 444.1, 137.36 435.44, 149.27 418.61 M119.09 453.33 C126.09 445.39, 133.27 437.54, 149.27 418.61 M131.69 451.03 C137.41 443.54, 143.76 434.94, 148.09 432.16 M131.69 451.03 C135.44 446.15, 139.98 441.92, 148.09 432.16" stroke="#ffa94d" stroke-width="1" fill="none"></path><path d="M32 0 C54.74 1.07, 79.78 -1.01, 116.67 0 M32 0 C66.28 -0.95, 98.79 -1.04, 116.67 0 M116.67 0 C138.66 1.36, 146.89 11.79, 148.67 32 M116.67 0 C139.12 -0.69, 146.47 10.81, 148.67 32 M148.67 32 C148.55 171.81, 149.11 309.22, 148.67 422 M148.67 32 C147.79 151.96, 147.87 272.39, 148.67 422 M148.67 422 C149.85 442.72, 139.02 452.25, 116.67 454 M148.67 422 C150.55 441.55, 139.81 453.32, 116.67 454 M116.67 454 C86.01 451.58, 52.68 451.89, 32 454 M116.67 454 C90.85 453.47, 65.27 454.43, 32 454 M32 454 C12.23 452.56, 0.06 441.41, 0 422 M32 454 C12.71 453.06, -1.62 443.09, 0 422 M0 422 C2.69 337.39, 2.52 251.97, 0 32 M0 422 C-2.19 327.18, -1.84 232.42, 0 32 M0 32 C1.77 9.27, 12.16 -1.77, 32 0 M0 32 C-1.05 11.54, 12.58 -0.32, 32 0" stroke="#1e1e1e" stroke-width="2" fill="none"></path></g><g transform="translate(738.8900680541992 336.7270893318554) rotate(0 13.109992980957031 12.5)"><text x="13.109992980957031" y="0" font-family="Virgil, Segoe UI Emoji" font-size="20px" fill="#1e1e1e" text-anchor="middle" style="white-space: pre;" direction="ltr" dominant-baseline="text-before-edge">L2</text></g><g stroke-linecap="round"><g transform="translate(500 114.56046335529288) rotate(0 130 -45.66668701171875)"><path d="M1.1 0.03 C22.09 -15.87, 81.62 -96.85, 124.8 -96.14 C167.99 -95.43, 237.74 -12.67, 260.2 4.28 M0.23 -1 C21.22 -17.19, 81.06 -98.99, 124.28 -97.98 C167.5 -96.97, 236.99 -12.41, 259.55 5.04" stroke="#1e1e1e" stroke-width="2" fill="none"></path></g><g transform="translate(500 114.56046335529288) rotate(0 130 -45.66668701171875)"><path d="M236.68 -5.06 C241.42 -1.83, 247.02 -0.72, 259.55 5.04 M236.68 -5.06 C240.95 -2.94, 247.3 -1.68, 259.55 5.04" stroke="#1e1e1e" stroke-width="2" fill="none"></path></g><g transform="translate(500 114.56046335529288) rotate(0 130 -45.66668701171875)"><path d="M248.52 -17.4 C250.72 -11.48, 253.85 -7.81, 259.55 5.04 M248.52 -17.4 C250.24 -12.64, 254.08 -8.76, 259.55 5.04" stroke="#1e1e1e" stroke-width="2" fill="none"></path></g></g><mask></mask><g stroke-linecap="round"><g transform="translate(771.3333740234375 117.2271198494335) rotate(0 112.68104604971086 -53.33332824707031)"><path d="M0.44 0.28 C17.88 -17.53, 66.2 -106.24, 103.52 -107.22 C140.83 -108.2, 203.86 -22.51, 224.32 -5.59 M-0.79 -0.62 C17.1 -18.24, 67.72 -104.79, 105.62 -105.97 C143.53 -107.15, 206.44 -24.65, 226.66 -7.72" stroke="#1e1e1e" stroke-width="2" fill="none"></path></g><g transform="translate(771.3333740234375 117.2271198494335) rotate(0 112.68104604971086 -53.33332824707031)"><path d="M204.2 -18.69 C209.28 -18.42, 212.56 -15.97, 226.66 -7.72 M204.2 -18.69 C211.59 -14.52, 220.23 -11.55, 226.66 -7.72" stroke="#1e1e1e" stroke-width="2" fill="none"></path></g><g transform="translate(771.3333740234375 117.2271198494335) rotate(0 112.68104604971086 -53.33332824707031)"><path d="M216.5 -30.56 C219 -27.78, 219.72 -22.87, 226.66 -7.72 M216.5 -30.56 C219.87 -22.4, 224.4 -15.46, 226.66 -7.72" stroke="#1e1e1e" stroke-width="2" fill="none"></path></g></g><mask></mask><g stroke-linecap="round" transform="translate(10 100.56046335529288) rotate(0 113.33334350585938 109.33334350585938)"><path d="M10.3 101.71 C10.3 101.71, 10.3 101.71, 10.3 101.71 M10.3 101.71 C10.3 101.71, 10.3 101.71, 10.3 101.71 M9.12 115.26 C15.16 110.42, 20.34 103.94, 24.87 97.14 M9.12 115.26 C13.96 108.82, 20.12 103.8, 24.87 97.14 M13.85 122.01 C44.05 88.02, 73.37 54.19, 108.98 12.58 M13.85 122.01 C35.22 96.11, 56.65 71.58, 108.98 12.58 M19.23 128.02 C49.48 91.32, 79.44 53.88, 121.58 10.28 M19.23 128.02 C60.22 80.99, 98.68 35.26, 121.58 10.28 M25.27 133.27 C57.14 97.05, 87.88 65.71, 128.27 14.78 M25.27 133.27 C47.07 106.49, 71.77 80.21, 128.27 14.78 M30.65 139.27 C61.69 103.64, 92.9 66.9, 134.31 20.03 M30.65 139.27 C62.85 101.55, 95.19 64.34, 134.31 20.03 M36.69 144.52 C61.34 118.73, 81.05 88.63, 140.34 25.27 M36.69 144.52 C74.06 101.69, 113.84 56.65, 140.34 25.27 M42.72 149.77 C69.14 115.54, 97.36 86.16, 146.38 30.52 M42.72 149.77 C83.3 104.48, 125.32 57.18, 146.38 30.52 M48.11 155.77 C79.84 119.67, 109.9 86.24, 151.76 36.53 M48.11 155.77 C69.8 132.13, 89.88 108.1, 151.76 36.53 M54.14 161.02 C80.45 130.74, 104.87 101.15, 157.8 41.77 M54.14 161.02 C76.1 132.21, 101.41 105.56, 157.8 41.77 M60.18 166.27 C96.82 124.33, 134.2 83.46, 163.18 47.78 M60.18 166.27 C83.39 139.9, 105.28 111.69, 163.18 47.78 M65.56 172.27 C95.29 137.53, 122.23 106.05, 169.22 53.03 M65.56 172.27 C93.22 142.33, 117.67 113.51, 169.22 53.03 M71.6 177.52 C91.76 152.78, 112.57 129.82, 174.6 59.03 M71.6 177.52 C111.19 132.6, 151.84 85.29, 174.6 59.03 M77.64 182.77 C113.76 141.48, 146.23 104.23, 180.64 64.28 M77.64 182.77 C114.42 137.82, 153.94 92.1, 180.64 64.28 M83.02 188.77 C116.61 149.26, 150.54 110.38, 186.02 70.28 M83.02 188.77 C109.41 158.77, 132.51 131.16, 186.02 70.28 M89.06 194.02 C125.74 152.33, 160.2 110.16, 192.06 75.53 M89.06 194.02 C128.06 151, 164.65 108.61, 192.06 75.53 M95.1 199.27 C133.59 154.44, 168.48 115.14, 197.44 81.53 M95.1 199.27 C130.91 156.87, 166.87 115.02, 197.44 81.53 M100.48 205.27 C123.94 179.06, 147.56 149.8, 203.48 86.78 M100.48 205.27 C128.41 174.57, 156.47 141.52, 203.48 86.78 M107.17 209.76 C127.12 185.12, 147.47 163.52, 208.86 92.78 M107.17 209.76 C136.57 176.21, 164.9 143.11, 208.86 92.78 M113.86 214.26 C138.4 188.66, 162.08 159.76, 214.9 98.03 M113.86 214.26 C150.46 172.62, 186.86 131.5, 214.9 98.03 M134.99 202.15 C159.3 172.74, 185 143.12, 218.97 105.54 M134.99 202.15 C157.9 175.74, 179.28 151.61, 218.97 105.54" stroke="#228be6" stroke-width="1" fill="none"></path><path d="M142.5 27.5 C159.52 41.79, 173.36 59.64, 198.17 82.5 M142.5 27.5 C155.44 40.58, 168.74 54.46, 198.17 82.5 M198.17 82.5 C226.08 110.63, 226.51 111.4, 198.17 137.5 M198.17 82.5 C227.39 111.99, 226.75 110.07, 198.17 137.5 M198.17 137.5 C188.35 148.73, 173.37 158.08, 142.5 191.17 M198.17 137.5 C182.34 152.33, 167.27 168.09, 142.5 191.17 M142.5 191.17 C112.76 217.39, 115.4 219.61, 85.5 191.17 M142.5 191.17 C116.21 219.6, 115.27 218.85, 85.5 191.17 M85.5 191.17 C70.99 176.83, 56.62 163.95, 28.5 137.5 M85.5 191.17 C67.03 175.78, 49.98 159.31, 28.5 137.5 M28.5 137.5 C0.57 110.41, -0.15 109.98, 28.5 82.5 M28.5 137.5 C-1 112.29, -0.52 110.88, 28.5 82.5 M28.5 82.5 C51.06 63.22, 72.3 40.75, 85.5 27.5 M28.5 82.5 C44.82 66.33, 62.93 50.69, 85.5 27.5 M85.5 27.5 C112.41 1.28, 113.54 0.42, 142.5 27.5 M85.5 27.5 C112.45 -0.92, 115.4 -0.6, 142.5 27.5" stroke="#1e1e1e" stroke-width="2" fill="none"></path></g><g transform="translate(96.11669921875 197.22713510822257) rotate(0 27.049972534179688 12.5)"><text x="27.049972534179688" y="0" font-family="Virgil, Segoe UI Emoji" font-size="20px" fill="#1e1e1e" text-anchor="middle" style="white-space: pre;" direction="ltr" dominant-baseline="text-before-edge">Client</text></g><g stroke-linecap="round"><g transform="translate(117.62130279002122 315.4578566873191) rotate(0 181.1893486049894 170.2179598281275)"><path d="M1.09 0.54 C16.59 57.19, 31.87 296.53, 92.05 339.54 C152.23 382.55, 316.92 272.33, 362.16 258.61 M0.2 -0.21 C15.59 56.59, 30.75 297.79, 90.93 340.61 C151.11 383.43, 316.32 270.46, 361.27 256.7" stroke="#1e1e1e" stroke-width="2" fill="none"></path></g><g transform="translate(117.62130279002122 315.4578566873191) rotate(0 181.1893486049894 170.2179598281275)"><path d="M343.84 274.62 C348.69 269.91, 350.18 266.09, 361.27 256.7 M343.84 274.62 C349.19 267.57, 356.95 262.43, 361.27 256.7" stroke="#1e1e1e" stroke-width="2" fill="none"></path></g><g transform="translate(117.62130279002122 315.4578566873191) rotate(0 181.1893486049894 170.2179598281275)"><path d="M336.4 259.22 C342.87 257.88, 346.02 257.5, 361.27 256.7 M336.4 259.22 C344.64 257.9, 355.15 258.45, 361.27 256.7" stroke="#1e1e1e" stroke-width="2" fill="none"></path></g></g><mask></mask><g stroke-linecap="round"><g transform="translate(105.74182565831836 303.64599056287545) rotate(0 324.7957741825597 206.45726691378684)"><path d="M-0.44 0.37 C13.25 69.46, -25.4 368.19, 82.98 414.09 C191.36 459.98, 555.53 298.53, 649.84 275.75 M1.53 -0.48 C14.99 68.35, -25.89 366.42, 82.06 412.58 C190.01 458.74, 554.77 299.38, 649.21 276.46" stroke="#1e1e1e" stroke-width="2" fill="none"></path></g><g transform="translate(105.74182565831836 303.64599056287545) rotate(0 324.7957741825597 206.45726691378684)"><path d="M629.65 292.04 C637.6 286.41, 646.21 280.94, 649.21 276.46 M629.65 292.04 C634.2 288.03, 637.79 286.27, 649.21 276.46" stroke="#1e1e1e" stroke-width="2" fill="none"></path></g><g transform="translate(105.74182565831836 303.64599056287545) rotate(0 324.7957741825597 206.45726691378684)"><path d="M624.21 275.83 C634.12 276.25, 644.75 276.81, 649.21 276.46 M624.21 275.83 C629.76 275.09, 634.46 276.62, 649.21 276.46" stroke="#1e1e1e" stroke-width="2" fill="none"></path></g></g><mask></mask><g stroke-linecap="round"><g transform="translate(90.13616930356312 295.64086661141937) rotate(0 449.5986023599372 234.12645486607738)"><path d="M-0.75 0.81 C-0.23 79.02, -147.01 421.35, 2.87 468.32 C152.74 515.3, 749.27 313.25, 898.5 282.66 M1.06 0.19 C1.52 78.7, -147.55 422.68, 2.45 469.89 C152.44 517.11, 751.77 314.67, 901.02 283.49" stroke="#1e1e1e" stroke-width="2" fill="none"></path></g><g transform="translate(90.13616930356312 295.64086661141937) rotate(0 449.5986023599372 234.12645486607738)"><path d="M880.6 297.9 C887.82 295.63, 892.36 288.72, 901.02 283.49 M880.6 297.9 C885.05 294.29, 889.96 290.94, 901.02 283.49" stroke="#1e1e1e" stroke-width="2" fill="none"></path></g><g transform="translate(90.13616930356312 295.64086661141937) rotate(0 449.5986023599372 234.12645486607738)"><path d="M876.11 281.4 C884.47 283.81, 890.27 281.56, 901.02 283.49 M876.11 281.4 C881.43 281.42, 887.34 281.74, 901.02 283.49" stroke="#1e1e1e" stroke-width="2" fill="none"></path></g></g><mask></mask><g stroke-linecap="round"><g transform="translate(142.46358455462894 116.34099909186125) rotate(0 181.10152071096678 -39.890267868284184)"><path d="M0.9 0.87 C21.03 -12.46, 60.86 -78.45, 121.04 -78.81 C181.23 -79.17, 321.85 -14.26, 362.01 -1.29 M-0.09 0.29 C19.88 -12.86, 59.98 -79.82, 120.19 -80.43 C180.39 -81.04, 320.82 -16.26, 361.15 -3.37" stroke="#1e1e1e" stroke-width="2" fill="none"></path></g><g transform="translate(142.46358455462894 116.34099909186125) rotate(0 181.10152071096678 -39.890267868284184)"><path d="M336.15 -3.81 C345.61 -3.57, 353.76 -4.03, 361.15 -3.37 M336.15 -3.81 C344.12 -3.44, 352.28 -2.95, 361.15 -3.37" stroke="#1e1e1e" stroke-width="2" fill="none"></path></g><g transform="translate(142.46358455462894 116.34099909186125) rotate(0 181.10152071096678 -39.890267868284184)"><path d="M342.28 -19.78 C349.94 -14.38, 356.13 -9.74, 361.15 -3.37 M342.28 -19.78 C348.13 -13.92, 354.2 -7.99, 361.15 -3.37" stroke="#1e1e1e" stroke-width="2" fill="none"></path></g></g><mask></mask><g transform="translate(333.33331298828125 102.56043283771476) rotate(0 45.27996063232422 12.5)"><text x="0" y="0" font-family="Virgil, Segoe UI Emoji" font-size="20px" fill="#1e1e1e" text-anchor="start" style="white-space: pre;" direction="ltr" dominant-baseline="text-before-edge">Here? no?</text></g><g transform="translate(691.333251953125 13.227150367011632) rotate(0 59.409950256347656 12.5)"><text x="0" y="0" font-family="Virgil, Segoe UI Emoji" font-size="20px" fill="#1e1e1e" text-anchor="start" style="white-space: pre;" direction="ltr" dominant-baseline="text-before-edge">Maybe here?</text></g><g transform="translate(978.6666259765625 23.893806861152257) rotate(0 82.87992858886719 12.5)"><text x="0" y="0" font-family="Virgil, Segoe UI Emoji" font-size="20px" fill="#1e1e1e" text-anchor="start" style="white-space: pre;" direction="ltr" dominant-baseline="text-before-edge">It must be here!</text></g></svg>