<svg version="1.1" xmlns="http://www.w3.org/2000/svg" viewBox="0 0 663.0760498046875 468" width="663.0760498046875" height="468" filter="invert(93%) hue-rotate(180deg)">
  <!-- svg-source:excalidraw -->
  
  <defs>
    <style class="style-fonts">
      @font-face {
        font-family: "Virgil";
        src: url("https://excalidraw.com/Virgil.woff2");
      }
      @font-face {
        font-family: "Cascadia";
        src: url("https://excalidraw.com/Cascadia.woff2");
      }
      @font-face {
        font-family: "Assistant";
        src: url("https://excalidraw.com/Assistant-Regular.woff2");
      }
    </style>
    
  </defs>
  <g stroke-linecap="round"><g transform="translate(85 405) rotate(0 1 -189.5)"><path d="M0.66 0.07 C1.08 -63.26, 1.59 -316.9, 1.92 -380.19 M-0.46 -0.94 C-0.15 -64.14, 0.49 -316.32, 0.93 -379.28" stroke="#1e1e1e" stroke-width="2" fill="none"></path></g></g><mask></mask><g stroke-linecap="round"><g transform="translate(83 406) rotate(0 278 -2.5)"><path d="M-0.4 -0.82 C92.07 -1.51, 462.25 -3.2, 554.86 -4 M1.59 1.36 C94.41 0.34, 464.28 -4.6, 556.98 -5.6" stroke="#1e1e1e" stroke-width="2" fill="none"></path></g></g><mask></mask><g stroke-linecap="round" transform="translate(107 379) rotate(0 3.5 3.5)"><path d="M4.14 0.32 C4.81 0.34, 5.29 0.6, 5.78 1.08 C6.27 1.56, 7.04 2.46, 7.1 3.2 C7.16 3.95, 6.65 4.93, 6.15 5.57 C5.64 6.21, 4.8 6.89, 4.08 7.03 C3.36 7.17, 2.43 6.75, 1.82 6.42 C1.22 6.08, 0.73 5.64, 0.44 5.02 C0.14 4.39, -0.15 3.47, 0.08 2.68 C0.3 1.89, 1.08 0.72, 1.79 0.29 C2.5 -0.14, 4.02 0.19, 4.36 0.11 C4.69 0.03, 3.92 -0.2, 3.81 -0.2 M3 0.41 C3.62 0.3, 4.51 0.14, 5.18 0.46 C5.85 0.77, 6.79 1.55, 7.02 2.29 C7.26 3.04, 6.87 4.18, 6.58 4.94 C6.3 5.69, 6.03 6.55, 5.32 6.81 C4.6 7.06, 3.16 6.73, 2.3 6.45 C1.43 6.18, 0.56 5.7, 0.14 5.14 C-0.29 4.59, -0.44 3.89, -0.27 3.12 C-0.11 2.36, 0.46 1.04, 1.11 0.55 C1.76 0.06, 3.29 0.17, 3.62 0.17 C3.94 0.18, 3.1 0.49, 3.07 0.56" stroke="none" stroke-width="0" fill="#1971c2"></path><path d="M3.54 -0.26 C4.28 -0.25, 5.27 0.46, 5.79 1 C6.32 1.53, 6.6 2.21, 6.67 2.96 C6.75 3.7, 6.64 4.79, 6.23 5.49 C5.83 6.19, 4.91 6.97, 4.22 7.13 C3.53 7.29, 2.79 6.77, 2.1 6.44 C1.41 6.11, 0.42 5.83, 0.11 5.15 C-0.21 4.46, 0.02 3.04, 0.21 2.35 C0.39 1.65, 0.65 1.33, 1.2 0.95 C1.76 0.57, 3.06 0.25, 3.53 0.06 C3.99 -0.14, 3.99 -0.27, 3.99 -0.22 M3.88 0.03 C4.63 0.19, 5.48 0.97, 5.96 1.52 C6.43 2.07, 6.64 2.62, 6.74 3.32 C6.83 4.02, 6.95 5.21, 6.52 5.73 C6.08 6.25, 4.87 6.35, 4.14 6.45 C3.4 6.55, 2.72 6.6, 2.11 6.33 C1.5 6.06, 0.73 5.51, 0.47 4.83 C0.21 4.15, 0.31 2.97, 0.55 2.25 C0.78 1.53, 1.39 0.9, 1.86 0.52 C2.33 0.13, 3.03 0.02, 3.37 -0.08 C3.72 -0.18, 3.88 -0.13, 3.91 -0.09" stroke="#1971c2" stroke-width="2" fill="none"></path></g><g stroke-linecap="round" transform="translate(168.5 335.5) rotate(0 3.5 3.5)"><path d="M3.68 -0.21 C4.42 -0.27, 5.16 0.33, 5.67 0.81 C6.18 1.29, 6.59 1.92, 6.72 2.65 C6.84 3.39, 6.76 4.52, 6.42 5.23 C6.08 5.94, 5.34 6.7, 4.68 6.91 C4.02 7.13, 3.2 6.81, 2.47 6.52 C1.75 6.22, 0.74 5.73, 0.32 5.14 C-0.1 4.56, -0.23 3.65, -0.06 2.98 C0.11 2.32, 0.73 1.65, 1.35 1.13 C1.98 0.62, 3.38 0.02, 3.7 -0.11 C4.03 -0.23, 3.34 0.32, 3.3 0.4 M3.03 -0.13 C3.83 -0.21, 5.24 0.51, 5.87 1.02 C6.51 1.53, 6.75 2.23, 6.82 2.93 C6.9 3.62, 6.57 4.59, 6.32 5.18 C6.07 5.76, 5.97 6.26, 5.32 6.46 C4.66 6.66, 3.17 6.61, 2.39 6.37 C1.6 6.13, 0.96 5.51, 0.6 5.02 C0.24 4.52, 0.07 4.01, 0.21 3.39 C0.35 2.76, 0.88 1.83, 1.44 1.27 C2 0.72, 3.3 0.28, 3.59 0.06 C3.89 -0.17, 3.2 -0.18, 3.21 -0.09" stroke="none" stroke-width="0" fill="#1971c2"></path><path d="M3.86 0.18 C4.55 0.26, 5.3 0.67, 5.81 1.15 C6.31 1.64, 6.74 2.35, 6.87 3.09 C7 3.84, 7.03 5, 6.61 5.61 C6.18 6.23, 5.12 6.64, 4.3 6.77 C3.49 6.9, 2.41 6.66, 1.71 6.39 C1.02 6.13, 0.4 5.77, 0.13 5.18 C-0.14 4.58, -0.19 3.6, 0.09 2.81 C0.36 2.01, 1.13 0.85, 1.79 0.41 C2.45 -0.04, 3.75 0.21, 4.06 0.14 C4.37 0.08, 3.71 -0.02, 3.65 0.02 M3.19 -0.37 C3.91 -0.57, 5.21 -0.31, 5.74 0.16 C6.26 0.64, 6.22 1.71, 6.32 2.49 C6.41 3.26, 6.45 4.15, 6.29 4.82 C6.13 5.49, 5.95 6.17, 5.36 6.52 C4.78 6.87, 3.47 7.01, 2.79 6.91 C2.1 6.82, 1.79 6.5, 1.25 5.94 C0.72 5.38, -0.3 4.25, -0.43 3.54 C-0.56 2.82, -0.04 2.24, 0.46 1.66 C0.96 1.07, 2.22 0.21, 2.58 0.03 C2.93 -0.15, 2.56 0.52, 2.59 0.6" stroke="#1971c2" stroke-width="2" fill="none"></path></g><g stroke-linecap="round" transform="translate(298.5 225.5) rotate(0 3.5 3.5)"><path d="M2.91 -0.18 C3.6 -0.3, 4.67 0.14, 5.32 0.61 C5.97 1.09, 6.56 2, 6.81 2.67 C7.06 3.34, 7.16 4, 6.84 4.64 C6.51 5.28, 5.59 6.12, 4.87 6.51 C4.16 6.89, 3.23 7.06, 2.55 6.95 C1.87 6.84, 1.19 6.49, 0.8 5.85 C0.41 5.22, 0.22 3.9, 0.21 3.15 C0.19 2.41, 0.23 1.92, 0.74 1.4 C1.24 0.88, 2.82 0.28, 3.23 0.03 C3.64 -0.22, 3.16 -0.13, 3.19 -0.1 M3.26 0.24 C3.87 0.12, 4.64 0.45, 5.32 0.83 C6.01 1.2, 7.15 1.85, 7.35 2.49 C7.54 3.12, 6.91 3.99, 6.49 4.63 C6.08 5.27, 5.51 5.91, 4.87 6.33 C4.22 6.74, 3.3 7.24, 2.64 7.13 C1.97 7.03, 1.28 6.37, 0.89 5.7 C0.51 5.03, 0.3 3.92, 0.33 3.09 C0.35 2.27, 0.49 1.22, 1.04 0.75 C1.6 0.27, 3.25 0.29, 3.66 0.24 C4.07 0.2, 3.59 0.41, 3.49 0.46" stroke="none" stroke-width="0" fill="#1971c2"></path><path d="M3.68 -0.07 C4.46 -0.06, 5.66 0.62, 6.19 1.14 C6.72 1.67, 6.88 2.4, 6.86 3.08 C6.83 3.76, 6.48 4.55, 6.04 5.21 C5.6 5.87, 4.88 6.78, 4.21 7.05 C3.54 7.33, 2.6 7.25, 2 6.87 C1.41 6.48, 0.93 5.44, 0.65 4.75 C0.36 4.06, 0.21 3.42, 0.29 2.72 C0.38 2.03, 0.59 1.01, 1.16 0.55 C1.73 0.1, 3.33 0.04, 3.73 -0.01 C4.14 -0.06, 3.57 0.17, 3.58 0.26 M2.53 0.17 C3.07 0.09, 4.13 0.24, 4.88 0.61 C5.62 0.98, 6.69 1.69, 6.99 2.39 C7.29 3.08, 6.92 4.05, 6.69 4.79 C6.46 5.53, 6.33 6.45, 5.61 6.82 C4.88 7.19, 3.22 7.14, 2.34 7.01 C1.46 6.89, 0.8 6.71, 0.34 6.1 C-0.11 5.49, -0.4 4.1, -0.37 3.36 C-0.34 2.62, 0.01 2.18, 0.54 1.64 C1.06 1.1, 2.44 0.45, 2.77 0.12 C3.11 -0.2, 2.49 -0.31, 2.53 -0.32" stroke="#1971c2" stroke-width="2" fill="none"></path></g><g stroke-linecap="round" transform="translate(334.5 182.5) rotate(0 3.5 3.5)"><path d="M3.09 0.16 C3.84 -0.01, 5 -0.05, 5.6 0.32 C6.2 0.7, 6.54 1.63, 6.7 2.41 C6.87 3.19, 6.84 4.23, 6.59 4.99 C6.33 5.75, 5.78 6.64, 5.15 6.94 C4.53 7.24, 3.63 6.96, 2.84 6.79 C2.05 6.61, 0.89 6.47, 0.42 5.88 C-0.05 5.29, -0.05 4.1, 0.02 3.27 C0.1 2.43, 0.31 1.45, 0.87 0.88 C1.44 0.31, 3.02 -0.06, 3.4 -0.16 C3.78 -0.27, 3.16 0.19, 3.16 0.27 M4.2 -0.24 C4.95 -0.33, 5.37 0.02, 5.84 0.51 C6.31 1.01, 6.89 1.88, 7.01 2.76 C7.13 3.63, 6.94 5.04, 6.57 5.78 C6.2 6.51, 5.48 7.03, 4.78 7.19 C4.08 7.35, 3.1 7.13, 2.35 6.74 C1.59 6.34, 0.57 5.48, 0.25 4.84 C-0.07 4.19, 0.2 3.5, 0.43 2.87 C0.65 2.23, 1.1 1.48, 1.61 1.04 C2.12 0.59, 3.09 0.42, 3.51 0.19 C3.93 -0.03, 4.01 -0.34, 4.13 -0.3" stroke="none" stroke-width="0" fill="#1971c2"></path><path d="M3.23 -0.1 C3.85 -0.24, 4.73 -0.06, 5.31 0.44 C5.89 0.95, 6.5 2.12, 6.71 2.93 C6.92 3.74, 6.83 4.72, 6.57 5.32 C6.31 5.91, 5.8 6.23, 5.14 6.5 C4.48 6.77, 3.43 7.16, 2.61 6.96 C1.79 6.75, 0.66 5.94, 0.22 5.28 C-0.23 4.63, -0.19 3.71, -0.09 3.01 C0.02 2.3, 0.25 1.55, 0.83 1.07 C1.4 0.6, 2.97 0.28, 3.37 0.16 C3.77 0.04, 3.24 0.39, 3.21 0.36 M3.81 -0.03 C4.6 -0.06, 5.21 0.35, 5.81 0.9 C6.42 1.45, 7.4 2.51, 7.44 3.28 C7.47 4.04, 6.57 4.81, 6.02 5.48 C5.47 6.14, 4.86 7.08, 4.15 7.29 C3.45 7.49, 2.48 7, 1.79 6.72 C1.1 6.44, 0.35 6.25, 0.03 5.6 C-0.3 4.95, -0.3 3.71, -0.16 2.83 C-0.02 1.94, 0.24 0.83, 0.87 0.3 C1.51 -0.22, 3.15 -0.33, 3.63 -0.31 C4.1 -0.3, 3.76 0.3, 3.71 0.4" stroke="#1971c2" stroke-width="2" fill="none"></path></g><g stroke-linecap="round" transform="translate(385.5 135.5) rotate(0 3.5 3.5)"><path d="M3.58 -0.13 C4.25 -0.07, 5.23 0.44, 5.82 1.03 C6.41 1.63, 6.98 2.7, 7.11 3.42 C7.24 4.14, 7.08 4.72, 6.6 5.35 C6.12 5.98, 4.98 6.97, 4.23 7.19 C3.48 7.42, 2.76 7.11, 2.09 6.72 C1.43 6.33, 0.54 5.56, 0.24 4.86 C-0.06 4.15, 0.12 3.15, 0.31 2.48 C0.49 1.81, 0.73 1.28, 1.35 0.86 C1.97 0.44, 3.58 0.12, 4.02 -0.04 C4.47 -0.21, 4.05 -0.23, 4.02 -0.11 M3.23 -0.39 C3.99 -0.37, 5.04 0.38, 5.7 0.93 C6.37 1.49, 7.02 2.24, 7.23 2.92 C7.44 3.61, 7.35 4.44, 6.96 5.04 C6.57 5.64, 5.56 6.16, 4.88 6.51 C4.2 6.85, 3.58 7.22, 2.9 7.12 C2.22 7.01, 1.3 6.51, 0.77 5.89 C0.25 5.26, -0.35 4.24, -0.25 3.37 C-0.15 2.49, 0.74 1.18, 1.39 0.63 C2.04 0.08, 3.38 0.07, 3.64 0.06 C3.9 0.05, 3.09 0.55, 2.97 0.58" stroke="none" stroke-width="0" fill="#1971c2"></path><path d="M3.11 0.18 C3.87 0.18, 4.9 0.52, 5.58 0.9 C6.27 1.28, 7.02 1.75, 7.23 2.47 C7.43 3.19, 7.24 4.52, 6.79 5.21 C6.35 5.91, 5.28 6.37, 4.54 6.64 C3.8 6.9, 3.07 7, 2.36 6.82 C1.64 6.64, 0.64 6.17, 0.25 5.57 C-0.15 4.97, -0.13 3.95, -0.03 3.23 C0.07 2.51, 0.31 1.82, 0.84 1.23 C1.37 0.64, 2.71 -0.08, 3.16 -0.33 C3.61 -0.57, 3.49 -0.38, 3.53 -0.25 M3.93 0.23 C4.57 0.2, 4.85 0.37, 5.29 0.88 C5.73 1.4, 6.4 2.58, 6.54 3.3 C6.69 4.02, 6.54 4.54, 6.18 5.2 C5.82 5.86, 5.05 6.98, 4.37 7.26 C3.69 7.54, 2.83 7.29, 2.1 6.89 C1.37 6.49, 0.34 5.58, -0.01 4.87 C-0.35 4.16, -0.2 3.23, 0.02 2.62 C0.23 2, 0.75 1.62, 1.27 1.17 C1.79 0.72, 2.77 0.16, 3.14 -0.08 C3.51 -0.32, 3.48 -0.3, 3.48 -0.26" stroke="#1971c2" stroke-width="2" fill="none"></path></g><g stroke-linecap="round" transform="translate(232.5 283.5) rotate(0 3.5 3.5)"><path d="M2.98 -0.06 C3.61 -0.22, 4.54 0.17, 5.14 0.62 C5.74 1.08, 6.3 1.91, 6.6 2.67 C6.89 3.43, 7.12 4.46, 6.89 5.16 C6.66 5.86, 5.94 6.57, 5.24 6.85 C4.54 7.13, 3.46 7.01, 2.68 6.83 C1.9 6.65, 0.97 6.34, 0.55 5.76 C0.13 5.18, 0.05 4.15, 0.17 3.34 C0.29 2.53, 0.72 1.4, 1.25 0.89 C1.78 0.37, 3.04 0.34, 3.34 0.25 C3.64 0.16, 3.05 0.38, 3.04 0.37 M4.5 0.42 C5.29 0.45, 5.85 0.32, 6.32 0.82 C6.79 1.32, 7.38 2.61, 7.35 3.42 C7.31 4.22, 6.56 5, 6.09 5.64 C5.63 6.27, 5.2 6.99, 4.53 7.22 C3.87 7.45, 2.78 7.47, 2.12 7.02 C1.45 6.57, 0.82 5.34, 0.56 4.52 C0.29 3.69, 0.36 2.7, 0.53 2.07 C0.69 1.44, 0.94 1.07, 1.54 0.74 C2.15 0.41, 3.68 0.23, 4.16 0.1 C4.65 -0.04, 4.44 -0.04, 4.46 -0.06" stroke="none" stroke-width="0" fill="#1971c2"></path><path d="M2.92 0.01 C3.6 -0.11, 4.6 0.46, 5.28 0.81 C5.95 1.15, 6.7 1.45, 6.96 2.06 C7.22 2.68, 7.07 3.77, 6.83 4.48 C6.59 5.19, 6.17 5.94, 5.5 6.31 C4.84 6.68, 3.57 6.82, 2.83 6.69 C2.1 6.57, 1.57 6.14, 1.11 5.55 C0.65 4.95, 0.15 3.84, 0.06 3.12 C-0.03 2.39, 0.12 1.7, 0.57 1.19 C1.03 0.68, 2.33 0.29, 2.78 0.07 C3.23 -0.14, 3.23 -0.17, 3.27 -0.11 M3.13 -0.06 C3.92 -0.12, 5.09 0.4, 5.64 0.79 C6.19 1.18, 6.29 1.61, 6.43 2.27 C6.58 2.93, 6.72 3.98, 6.5 4.74 C6.28 5.5, 5.7 6.42, 5.14 6.83 C4.57 7.24, 3.88 7.47, 3.11 7.2 C2.34 6.93, 0.96 5.86, 0.52 5.21 C0.09 4.56, 0.42 4.01, 0.5 3.3 C0.58 2.58, 0.61 1.4, 1 0.91 C1.39 0.42, 2.53 0.49, 2.84 0.33 C3.15 0.17, 2.76 -0.1, 2.86 -0.04" stroke="#1971c2" stroke-width="2" fill="none"></path></g><g stroke-linecap="round" transform="translate(440.5 86.5) rotate(0 3.5 3.5)"><path d="M3.06 0.24 C3.79 0.16, 4.86 0.35, 5.51 0.7 C6.17 1.06, 6.8 1.72, 7 2.38 C7.2 3.03, 6.98 3.9, 6.71 4.62 C6.45 5.35, 6.05 6.28, 5.42 6.71 C4.8 7.14, 3.75 7.34, 2.95 7.2 C2.15 7.05, 1.07 6.5, 0.62 5.84 C0.16 5.17, 0.15 3.97, 0.24 3.2 C0.33 2.44, 0.71 1.72, 1.14 1.25 C1.57 0.78, 2.54 0.57, 2.82 0.37 C3.11 0.16, 2.76 -0.02, 2.84 0.03 M3.63 -0.1 C4.4 -0.1, 5.2 0.75, 5.8 1.34 C6.4 1.92, 7.07 2.68, 7.26 3.41 C7.44 4.15, 7.39 5.12, 6.9 5.74 C6.41 6.37, 5.15 7.04, 4.31 7.17 C3.47 7.31, 2.48 6.87, 1.87 6.54 C1.26 6.21, 0.93 5.74, 0.64 5.17 C0.35 4.6, 0.04 3.81, 0.14 3.1 C0.24 2.4, 0.69 1.36, 1.22 0.93 C1.74 0.49, 2.88 0.68, 3.28 0.49 C3.69 0.31, 3.53 -0.22, 3.66 -0.17" stroke="none" stroke-width="0" fill="#1971c2"></path><path d="M3.19 0.06 C3.8 0.03, 4.88 0.63, 5.47 1.1 C6.05 1.56, 6.56 2.11, 6.7 2.86 C6.83 3.6, 6.66 4.89, 6.3 5.55 C5.94 6.21, 5.28 6.68, 4.56 6.84 C3.84 7, 2.68 6.81, 2 6.52 C1.31 6.22, 0.78 5.63, 0.46 5.06 C0.14 4.5, -0.01 3.85, 0.08 3.14 C0.18 2.42, 0.44 1.34, 1.02 0.78 C1.59 0.22, 3.15 -0.08, 3.55 -0.22 C3.95 -0.36, 3.4 -0.14, 3.4 -0.06 M3.49 -0.2 C4.15 -0.11, 5.15 0.44, 5.77 1.06 C6.38 1.69, 7.02 2.86, 7.18 3.57 C7.33 4.27, 7.21 4.66, 6.7 5.29 C6.19 5.93, 4.87 7.12, 4.11 7.36 C3.34 7.6, 2.75 7.16, 2.1 6.73 C1.44 6.3, 0.46 5.49, 0.18 4.77 C-0.1 4.04, 0.22 3.03, 0.41 2.39 C0.6 1.76, 0.7 1.37, 1.31 0.95 C1.92 0.54, 3.63 0.12, 4.07 -0.08 C4.51 -0.27, 4.01 -0.37, 3.97 -0.23" stroke="#1971c2" stroke-width="2" fill="none"></path></g><g stroke-linecap="round" transform="translate(496.5 37.5) rotate(0 3.5 3.5)"><path d="M3.79 0.24 C4.42 0.31, 5.08 0.78, 5.62 1.22 C6.16 1.66, 6.81 2.23, 7.01 2.9 C7.2 3.56, 7.2 4.48, 6.77 5.19 C6.35 5.89, 5.19 6.85, 4.46 7.12 C3.73 7.4, 3.12 7.13, 2.4 6.83 C1.67 6.53, 0.51 6.03, 0.12 5.33 C-0.27 4.64, -0.15 3.38, 0.05 2.66 C0.25 1.93, 0.67 1.38, 1.32 0.98 C1.97 0.57, 3.48 0.35, 3.96 0.24 C4.43 0.13, 4.23 0.25, 4.17 0.31 M3.28 0.06 C4.08 -0.12, 5.26 0.1, 5.9 0.46 C6.54 0.81, 6.89 1.44, 7.1 2.19 C7.31 2.94, 7.56 4.14, 7.16 4.96 C6.77 5.78, 5.42 6.86, 4.73 7.11 C4.04 7.36, 3.71 6.66, 3.03 6.47 C2.36 6.29, 1.13 6.56, 0.7 5.99 C0.27 5.43, 0.42 3.98, 0.47 3.07 C0.51 2.16, 0.58 0.97, 0.97 0.53 C1.37 0.09, 2.53 0.47, 2.84 0.41 C3.14 0.36, 2.72 0.2, 2.78 0.21" stroke="none" stroke-width="0" fill="#1971c2"></path><path d="M2.71 0.08 C3.49 -0.11, 4.82 -0.1, 5.49 0.27 C6.17 0.65, 6.57 1.64, 6.75 2.34 C6.92 3.05, 6.83 3.82, 6.56 4.52 C6.28 5.23, 5.72 6.14, 5.09 6.56 C4.47 6.99, 3.5 7.26, 2.81 7.08 C2.12 6.89, 1.43 6.07, 0.94 5.44 C0.44 4.82, -0.13 4.03, -0.16 3.33 C-0.2 2.64, 0.18 1.78, 0.73 1.28 C1.28 0.78, 2.69 0.54, 3.11 0.33 C3.53 0.11, 3.3 -0.07, 3.25 -0.01 M3.25 0.31 C3.91 0.28, 4.84 0.21, 5.5 0.7 C6.17 1.19, 7.08 2.44, 7.23 3.24 C7.39 4.04, 6.91 4.89, 6.44 5.5 C5.96 6.11, 4.99 6.73, 4.37 6.9 C3.75 7.07, 3.38 6.89, 2.71 6.53 C2.04 6.17, 0.79 5.42, 0.35 4.74 C-0.09 4.07, -0.1 3.07, 0.08 2.46 C0.27 1.86, 0.82 1.46, 1.45 1.1 C2.08 0.74, 3.47 0.48, 3.86 0.32 C4.26 0.16, 3.89 0.14, 3.82 0.12" stroke="#1971c2" stroke-width="2" fill="none"></path></g><g transform="translate(640 423) rotate(0 6.53802490234375 17.5)"><text x="0" y="0" font-family="Virgil, Segoe UI Emoji" font-size="28px" fill="#1e1e1e" text-anchor="start" style="white-space: pre;" direction="ltr" dominant-baseline="text-before-edge">n</text></g><g transform="translate(10 10) rotate(0 30.576126098632812 17.5)"><text x="0" y="0" font-family="Virgil, Segoe UI Emoji" font-size="28px" fill="#1e1e1e" text-anchor="start" style="white-space: pre;" direction="ltr" dominant-baseline="text-before-edge">O[n]</text></g></svg>