<svg version="1.1" xmlns="http://www.w3.org/2000/svg" viewBox="0 0 1122.5373422354833 421.9383321199566" width="1122.5373422354833" height="421.9383321199566" filter="invert(93%) hue-rotate(180deg)">
  <!-- svg-source:excalidraw -->
  
  <defs>
    <style class="style-fonts">
      @font-face {
        font-family: "Virgil";
        src: url("https://excalidraw.com/Virgil.woff2");
      }
      @font-face {
        font-family: "Cascadia";
        src: url("https://excalidraw.com/Cascadia.woff2");
      }
      @font-face {
        font-family: "Assistant";
        src: url("https://excalidraw.com/Assistant-Regular.woff2");
      }
    </style>
    
  </defs>
  <g stroke-linecap="round" transform="translate(924 90) rotate(0 90.5 91)"><path d="M0 0 C0 0, 0 0, 0 0 M0 0 C0 0, 0 0, 0 0 M-0.26 6.4 C1.51 4.4, 2.66 3.28, 4.99 0.36 M-0.26 6.4 C1.26 4.18, 4.01 1.84, 4.99 0.36 M0.13 12.04 C3.06 8.05, 6.62 5.55, 10.63 -0.03 M0.13 12.04 C3.3 7.82, 7.55 3.3, 10.63 -0.03 M-0.13 18.44 C2.97 13.36, 11.56 5.3, 15.62 0.33 M-0.13 18.44 C3.06 13.91, 6.87 10.26, 15.62 0.33 M0.27 24.08 C7.85 16.52, 13.04 8.83, 21.26 -0.07 M0.27 24.08 C8.48 15.39, 15.15 7.53, 21.26 -0.07 M0 30.48 C7.89 22.82, 13.69 12.9, 26.25 0.29 M0 30.48 C10.18 19.38, 19.34 8.5, 26.25 0.29 M-0.26 36.88 C12.19 24.18, 25.44 7.71, 31.89 -0.1 M-0.26 36.88 C7.27 28.37, 14.72 20.16, 31.89 -0.1 M0.14 42.52 C13.5 26.91, 28.87 9.99, 36.88 0.26 M0.14 42.52 C11.34 30.81, 21.42 17.61, 36.88 0.26 M-0.12 48.92 C15.44 29.07, 31.4 9.62, 42.52 -0.14 M-0.12 48.92 C15.49 31.65, 29.61 14.68, 42.52 -0.14 M0.27 54.56 C14.6 38.57, 30.49 17.19, 47.51 0.22 M0.27 54.56 C14.04 36.75, 30.48 20.72, 47.51 0.22 M0.01 60.96 C13.9 43.72, 30 25.6, 53.15 -0.17 M0.01 60.96 C15.01 43.05, 31.52 24.73, 53.15 -0.17 M-0.25 67.36 C21.42 40.98, 44.68 16.75, 58.14 0.19 M-0.25 67.36 C15.16 51.67, 29.14 33.22, 58.14 0.19 M0.14 73 C12.76 56.18, 28.08 42.18, 63.78 -0.21 M0.14 73 C15.89 54.8, 32.36 35.42, 63.78 -0.21 M-0.12 79.4 C25.96 49.61, 52.37 21.48, 68.77 0.15 M-0.12 79.4 C25.13 52.28, 49.16 22.02, 68.77 0.15 M0.28 85.04 C25.56 57.52, 48.68 31.7, 74.41 -0.24 M0.28 85.04 C20.57 62.31, 40.71 39.11, 74.41 -0.24 M0.01 91.44 C22.6 65.23, 44.39 40.62, 79.4 0.12 M0.01 91.44 C30.16 54.38, 63.51 19.69, 79.4 0.12 M-0.25 97.84 C27.23 65.96, 56.79 33.68, 85.04 -0.28 M-0.25 97.84 C30.65 64.21, 60.45 29.25, 85.04 -0.28 M0.15 103.48 C22.18 76.47, 44.65 53.31, 90.03 0.08 M0.15 103.48 C31.76 65.68, 64.89 26.85, 90.03 0.08 M-0.11 109.88 C24.6 82.6, 44.22 57.82, 95.67 -0.31 M-0.11 109.88 C36.87 68.31, 74.81 24.15, 95.67 -0.31 M0.28 115.52 C40.77 69.68, 78.41 27.42, 100.66 0.05 M0.28 115.52 C36.9 73.68, 73.57 30.01, 100.66 0.05 M0.02 121.92 C40.31 78.87, 79.02 34.09, 106.3 -0.34 M0.02 121.92 C25.23 90.41, 51.38 60.06, 106.3 -0.34 M-0.24 128.32 C36.43 89.38, 70.2 51.27, 111.29 0.02 M-0.24 128.32 C36.91 86.14, 73.57 42.83, 111.29 0.02 M0.15 133.96 C35.1 95.88, 68.84 55.66, 116.27 0.38 M0.15 133.96 C28.03 99.33, 57.16 65.9, 116.27 0.38 M-0.11 140.36 C29.69 105.99, 58.86 70.62, 121.92 -0.02 M-0.11 140.36 C35.58 97.14, 74.86 54.18, 121.92 -0.02 M0.29 146 C46.12 90.71, 95.99 37.53, 126.91 0.34 M0.29 146 C37.32 104.26, 72.92 60.99, 126.91 0.34 M0.02 152.4 C43.83 103.7, 86.79 52.76, 132.55 -0.05 M0.02 152.4 C49.24 95.63, 98.05 38.88, 132.55 -0.05 M-0.24 158.8 C57.53 96.58, 111.93 33.86, 137.54 0.31 M-0.24 158.8 C45.77 105.89, 93.64 49.92, 137.54 0.31 M0.16 164.44 C42.52 117.83, 84.3 67.86, 143.18 -0.09 M0.16 164.44 C46.08 112.99, 90.57 60.77, 143.18 -0.09 M-0.1 170.84 C46.6 115.63, 93.63 61.31, 148.17 0.27 M-0.1 170.84 C50.77 112, 101.6 54.11, 148.17 0.27 M0.29 176.48 C57.41 109.29, 115.43 43.63, 153.81 -0.12 M0.29 176.48 C51.96 115.79, 104.06 55.76, 153.81 -0.12 M0.69 182.12 C54.15 120.55, 107.85 58.83, 158.8 0.24 M0.69 182.12 C47.56 129.26, 94.08 74.73, 158.8 0.24 M5.67 182.48 C40.55 141.39, 78.43 95.98, 164.44 -0.16 M5.67 182.48 C67.77 110.42, 128.56 40.57, 164.44 -0.16 M11.32 182.09 C47.59 139.21, 82.32 100.53, 169.43 0.2 M11.32 182.09 C73.15 110.84, 134.01 40.01, 169.43 0.2 M16.3 182.45 C51.24 142.85, 84.26 104.54, 175.07 -0.19 M16.3 182.45 C48.77 145.29, 81.29 107.39, 175.07 -0.19 M21.95 182.05 C82.33 111.12, 143.25 38.7, 180.06 0.17 M21.95 182.05 C63.61 133.89, 106.55 87.2, 180.06 0.17 M26.93 182.41 C70.2 135.83, 107.88 88.7, 183.73 2.04 M26.93 182.41 C67.7 136.28, 110.11 88.53, 183.73 2.04 M32.58 182.02 C93.2 111.93, 155.81 43.33, 183.47 8.44 M32.58 182.02 C86.21 122.06, 137.78 61.18, 183.47 8.44 M37.56 182.38 C70.81 144.65, 108.09 101.56, 183.86 14.08 M37.56 182.38 C73.92 141.27, 111.57 98.64, 183.86 14.08 M42.55 182.74 C82.61 136.93, 123.78 91.04, 183.6 20.48 M42.55 182.74 C87.04 129.55, 132.17 77.99, 183.6 20.48 M48.19 182.34 C77.36 147.03, 109.87 112.42, 183.34 26.87 M48.19 182.34 C101.48 120.38, 153.42 60.59, 183.34 26.87 M53.18 182.7 C80.98 151.9, 108.5 119.63, 183.74 32.52 M53.18 182.7 C84.9 144.01, 117.5 107.58, 183.74 32.52 M58.82 182.31 C104.61 128.76, 149.72 75.31, 183.47 38.92 M58.82 182.31 C95.16 136.52, 134.15 92.61, 183.47 38.92 M63.81 182.67 C93.01 153.76, 119.54 121.52, 183.87 44.56 M63.81 182.67 C95.72 146.05, 126.31 110.62, 183.87 44.56 M69.45 182.28 C98.93 148.17, 127.27 115.25, 183.61 50.96 M69.45 182.28 C111.46 134.96, 152.48 86.4, 183.61 50.96 M74.44 182.64 C107.19 144.12, 142.9 102.34, 183.35 57.35 M74.44 182.64 C102.39 149.21, 131.71 116.1, 183.35 57.35 M80.08 182.24 C115.32 140.85, 154.48 95.2, 183.74 63 M80.08 182.24 C113.26 144.6, 146.67 107.24, 183.74 63 M85.07 182.6 C118 147.62, 148.07 111.08, 183.48 69.39 M85.07 182.6 C106.73 158.13, 127.89 134.26, 183.48 69.39 M90.71 182.21 C123.29 141.06, 158.36 102.15, 183.87 75.04 M90.71 182.21 C116.14 152.63, 143.65 122.85, 183.87 75.04 M95.7 182.57 C118.37 158.49, 137.72 132.68, 183.61 81.44 M95.7 182.57 C118.49 156.36, 143.14 127.68, 183.61 81.44 M101.34 182.17 C124.6 157.3, 147.5 130.25, 183.35 87.83 M101.34 182.17 C130.5 149.09, 159.2 116.15, 183.35 87.83 M106.33 182.53 C133.09 153.89, 157.29 125, 183.74 93.48 M106.33 182.53 C124.79 161.58, 142.31 140.58, 183.74 93.48 M111.97 182.14 C128.85 163.08, 149.12 141.46, 183.48 99.87 M111.97 182.14 C139.24 152.3, 165.75 121.79, 183.48 99.87 M116.96 182.5 C144.74 151.07, 168.65 121.51, 183.88 105.52 M116.96 182.5 C137.65 160.38, 156.35 136.02, 183.88 105.52 M122.6 182.1 C135.23 168.24, 148.23 149.92, 183.62 111.91 M122.6 182.1 C145.61 154.8, 170.49 125.31, 183.62 111.91 M127.59 182.46 C145.56 164.36, 161.31 145.11, 183.36 118.31 M127.59 182.46 C145.21 162.74, 162.35 144.35, 183.36 118.31 M133.23 182.07 C144.78 167.33, 161.58 150.37, 183.75 123.96 M133.23 182.07 C144 170.59, 153.98 157.87, 183.75 123.96 M138.22 182.43 C148.16 170.74, 158.79 156.25, 183.49 130.35 M138.22 182.43 C151.37 168.09, 162.33 154.04, 183.49 130.35 M143.86 182.03 C161.13 164.77, 175.42 145.71, 183.88 136 M143.86 182.03 C159.07 164.85, 173.83 146.71, 183.88 136 M148.85 182.39 C158.2 170.87, 169.75 157.27, 183.62 142.39 M148.85 182.39 C159.96 169.8, 169.57 158.01, 183.62 142.39 M153.84 182.75 C160.47 175.67, 167.59 168.24, 183.36 148.79 M153.84 182.75 C161.67 174.66, 169.57 166.66, 183.36 148.79 M159.48 182.36 C169.22 172.64, 177.02 164.74, 183.75 154.44 M159.48 182.36 C165.56 175.3, 173.33 167.45, 183.75 154.44 M164.47 182.72 C169.99 177.65, 175.52 171.24, 183.49 160.83 M164.47 182.72 C171.81 174.61, 178.31 167.84, 183.49 160.83 M170.11 182.33 C176.05 174.9, 182.52 170.78, 183.89 166.48 M170.11 182.33 C174.17 177.87, 178.23 173.97, 183.89 166.48 M175.1 182.69 C177.69 181.22, 179.93 178.64, 183.63 172.87 M175.1 182.69 C178.42 179.75, 180.82 176.7, 183.63 172.87 M180.74 182.29 C181.65 181.59, 182.56 180.25, 183.36 179.27 M180.74 182.29 C181.38 181.37, 182.15 180.63, 183.36 179.27" stroke="#15aabf" stroke-width="0.5" fill="none"></path><path d="M0 0 C69.18 -0.46, 135.26 0.7, 181 0 M0 0 C62.84 2.13, 126.91 2.3, 181 0 M181 0 C177.3 63.79, 180.93 129.23, 181 182 M181 0 C181.04 48.74, 181.23 97.49, 181 182 M181 182 C124.38 182.48, 71.8 182.04, 0 182 M181 182 C144.21 181.84, 107.7 181.58, 0 182 M0 182 C0.22 142.87, 3.57 100.68, 0 0 M0 182 C1.34 144, 1.81 105.34, 0 0" stroke="#000000" stroke-width="1" fill="none"></path></g><g stroke-linecap="round" transform="translate(187 303) rotate(0 31 30)"><path d="M4.24 14.29 C4.24 14.29, 4.24 14.29, 4.24 14.29 M4.24 14.29 C4.24 14.29, 4.24 14.29, 4.24 14.29 M2.67 22.19 C10.47 17.03, 14.54 7.92, 18.41 4.08 M2.67 22.19 C6.7 16.17, 12.45 11.77, 18.41 4.08 M1.09 30.1 C7.49 20.58, 15.98 11.42, 25.37 2.18 M1.09 30.1 C7.5 23.69, 12.91 18.33, 25.37 2.18 M2.14 34.99 C14.57 24.13, 23.59 9.55, 31.01 1.78 M2.14 34.99 C12.21 23.8, 21.79 12.77, 31.01 1.78 M3.85 39.12 C14.9 27.09, 20.42 16.91, 36.65 1.39 M3.85 39.12 C17.12 23.54, 28.59 9.23, 36.65 1.39 M5.56 43.26 C20.72 26.25, 35.42 11.33, 42.3 0.99 M5.56 43.26 C15.35 32.26, 24.27 22.99, 42.3 0.99 M7.26 47.39 C22.9 29.94, 36.94 13.9, 45.32 3.62 M7.26 47.39 C16.71 35.09, 28.52 24.14, 45.32 3.62 M9.63 50.77 C24.1 33.64, 35.42 21.03, 47.68 7 M9.63 50.77 C21.62 36.64, 34.33 23.42, 47.68 7 M11.99 54.15 C23.74 39.66, 37.62 26.11, 50.7 9.62 M11.99 54.15 C23.49 40.82, 34.19 27.73, 50.7 9.62 M15.66 56.02 C24.63 46.65, 33.48 36.32, 53.72 12.24 M15.66 56.02 C28.45 39.82, 41.16 24.5, 53.72 12.24 M20 57.13 C29.79 46.81, 37.33 36.02, 56.08 15.62 M20 57.13 C29.96 45.46, 38.9 35.22, 56.08 15.62 M23.67 59 C32.57 47.7, 40.91 40.38, 58.44 19 M23.67 59 C32.83 49.17, 40.25 40, 58.44 19 M28 60.12 C36.25 51.73, 45.68 40.1, 59.49 23.89 M28 60.12 C38.43 49.04, 48.08 37.22, 59.49 23.89 M33.64 59.72 C41.17 50.49, 49.81 40.11, 60.54 28.78 M33.64 59.72 C38.92 53.18, 46 45.45, 60.54 28.78 M40.6 57.82 C47.45 50.26, 54.75 42.17, 61.59 33.67 M40.6 57.82 C48.46 49.96, 54.78 41.65, 61.59 33.67 M48.21 55.16 C49.96 52.26, 51.46 49.52, 57.4 44.59 M48.21 55.16 C51.16 50.88, 55.97 46.79, 57.4 44.59" stroke="#be4bdb" stroke-width="0.5" fill="none"></path><path d="M42.37 1.22 C48.06 3.18, 54.23 10.75, 57.54 16.65 C60.85 22.55, 63.47 30.35, 62.22 36.61 C60.97 42.86, 55.54 50.18, 50.06 54.18 C44.59 58.19, 36.01 60.81, 29.38 60.65 C22.75 60.48, 15.04 57.76, 10.27 53.18 C5.5 48.6, 1.79 39.63, 0.77 33.15 C-0.24 26.68, 0.74 19.56, 4.19 14.35 C7.64 9.13, 14.96 3.88, 21.48 1.88 C28 -0.11, 39.25 2.18, 43.31 2.38 C47.36 2.57, 45.92 2.65, 45.81 3.05 M24.75 2.12 C30.41 0.41, 38.35 1.79, 44.07 4.4 C49.78 7.01, 56.41 12.07, 59.02 17.76 C61.62 23.44, 61.56 32.06, 59.7 38.5 C57.83 44.94, 53.38 53.06, 47.84 56.4 C42.29 59.73, 32.94 59.3, 26.41 58.52 C19.89 57.74, 13.08 56.47, 8.69 51.74 C4.3 47, 0.55 36.61, 0.07 30.1 C-0.42 23.59, 1.71 17.72, 5.78 12.66 C9.85 7.6, 21.18 1.76, 24.49 -0.26 C27.79 -2.28, 25.63 -0.22, 25.59 0.55" stroke="#000000" stroke-width="1" fill="none"></path></g><g stroke-linecap="round" transform="translate(256 10) rotate(0 31 30)"><path d="M6.99 11.38 C6.99 11.38, 6.99 11.38, 6.99 11.38 M6.99 11.38 C6.99 11.38, 6.99 11.38, 6.99 11.38 M2.14 23.06 C9.79 16.14, 13.49 8.85, 18.54 4.19 M2.14 23.06 C5.59 18.92, 10.66 13.59, 18.54 4.19 M-0.09 31.72 C9.74 19.16, 19.97 7.46, 26.8 0.77 M-0.09 31.72 C5.44 25.72, 12.03 18.79, 26.8 0.77 M1.61 35.85 C12.21 25.24, 19.07 14.9, 31.79 1.14 M1.61 35.85 C8.36 28.08, 15.22 19.93, 31.79 1.14 M3.97 39.23 C9.76 28.74, 17.4 23.04, 36.12 2.25 M3.97 39.23 C11.08 29.05, 19.47 20.61, 36.12 2.25 M5.68 43.36 C14.7 33.47, 25.81 19.5, 41.11 2.61 M5.68 43.36 C13.76 33.7, 23.56 23.23, 41.11 2.61 M7.39 47.5 C15.52 37.62, 25.09 25.27, 45.44 3.72 M7.39 47.5 C18.27 35.43, 30.55 21.74, 45.44 3.72 M9.75 50.88 C23.2 32.44, 41.21 16.35, 48.46 6.35 M9.75 50.88 C17.48 42.02, 26.11 33.07, 48.46 6.35 M13.43 52.75 C21.46 44.03, 30.43 33.17, 50.82 9.73 M13.43 52.75 C22.33 41.52, 31.48 30.45, 50.82 9.73 M17.1 54.62 C27.38 43.93, 36.71 32.44, 53.84 12.35 M17.1 54.62 C29.11 38.99, 42.05 23.99, 53.84 12.35 M20.78 56.49 C30.03 45.19, 38.84 33.06, 56.2 15.73 M20.78 56.49 C29.68 45.04, 40.03 33.54, 56.2 15.73 M24.45 58.36 C35.24 44.57, 50.01 28.81, 59.22 18.36 M24.45 58.36 C35.34 45.07, 46.86 33.37, 59.22 18.36 M28.78 59.47 C36.74 52.74, 41.51 42.48, 60.27 23.24 M28.78 59.47 C38.84 48.55, 48.11 36.19, 60.27 23.24 M35.74 57.57 C45.27 46.86, 53.67 34.55, 60.67 28.89 M35.74 57.57 C42.7 50.48, 48.46 42.74, 60.67 28.89 M42.04 56.42 C46.34 52.05, 50.11 48.28, 61.06 34.53 M42.04 56.42 C46.23 51.54, 49.97 46.67, 61.06 34.53" stroke="#be4bdb" stroke-width="0.5" fill="none"></path><path d="M44.75 2.76 C50.51 5.52, 57.85 13.73, 60.52 19.84 C63.19 25.96, 62.88 33.59, 60.76 39.45 C58.64 45.32, 53.38 51.66, 47.78 55.04 C42.18 58.42, 33.67 60.49, 27.16 59.72 C20.65 58.95, 13.43 55.31, 8.74 50.41 C4.05 45.51, -0.68 36.82, -0.98 30.32 C-1.27 23.82, 2.61 16.49, 6.96 11.4 C11.32 6.32, 18.16 0.62, 25.17 -0.2 C32.18 -1.03, 44.66 4.91, 49.03 6.43 C53.41 7.96, 51.77 8.71, 51.41 8.95 M45.64 1.79 C51.53 3.86, 57.82 11.06, 60.26 16.93 C62.7 22.8, 62.28 30.73, 60.28 37.02 C58.28 43.32, 53.43 51.03, 48.26 54.72 C43.1 58.41, 36.05 59.69, 29.29 59.16 C22.53 58.63, 12.34 55.97, 7.7 51.51 C3.06 47.06, 2.01 39.03, 1.45 32.46 C0.89 25.89, 0.59 17.3, 4.34 12.12 C8.09 6.93, 17.46 2.65, 23.95 1.34 C30.44 0.02, 40.06 3.96, 43.27 4.22 C46.48 4.47, 43.17 2.8, 43.23 2.86" stroke="#000000" stroke-width="1" fill="none"></path></g><g stroke-linecap="round" transform="translate(126 40) rotate(0 31 30)"><path d="M3.66 16.43 C3.66 16.43, 3.66 16.43, 3.66 16.43 M3.66 16.43 C3.66 16.43, 3.66 16.43, 3.66 16.43 M2.08 24.34 C6.54 18.26, 10.68 12.97, 20.45 3.2 M2.08 24.34 C8.63 17.86, 13.94 12.11, 20.45 3.2 M1.17 31.49 C8.06 22.56, 15.8 11.39, 25.44 3.57 M1.17 31.49 C9 23.82, 15.91 15.17, 25.44 3.57 M0.91 37.89 C8.3 27.96, 16.01 19.27, 30.43 3.93 M0.91 37.89 C8.14 29.5, 15.02 20.69, 30.43 3.93 M3.92 40.51 C12.08 27.61, 25.06 17.12, 36.07 3.53 M3.92 40.51 C15.39 26, 28.64 12.85, 36.07 3.53 M6.29 43.89 C17.76 32.9, 25.19 19.73, 41.06 3.89 M6.29 43.89 C18.23 31.19, 29.41 17.48, 41.06 3.89 M8.65 47.27 C22.92 31.37, 34.73 16.44, 44.73 5.76 M8.65 47.27 C24.33 31.26, 38.36 15.04, 44.73 5.76 M11.01 50.65 C22.49 37.92, 36.35 19.95, 47.75 8.38 M11.01 50.65 C21.94 38.97, 32.74 25.44, 47.75 8.38 M13.37 54.03 C26.41 40.43, 37.27 25.56, 51.43 10.25 M13.37 54.03 C25.1 39.58, 36.98 25.78, 51.43 10.25 M17.71 55.14 C31.34 40.09, 44.18 26.68, 55.1 12.12 M17.71 55.14 C31.24 38.31, 45.39 22.68, 55.1 12.12 M21.38 57.01 C33.85 41.31, 45.51 27.64, 58.12 14.75 M21.38 57.01 C33.66 42.8, 45.91 28.74, 58.12 14.75 M25.71 58.13 C36.14 47.71, 44.59 35.52, 59.17 19.64 M25.71 58.13 C32.39 50.11, 40.68 39.48, 59.17 19.64 M29.39 60 C43.13 44.33, 53.35 32.75, 60.22 24.52 M29.39 60 C37.01 50.99, 43.22 44.61, 60.22 24.52 M33.06 61.87 C44.09 48.68, 53.5 35.89, 61.27 29.41 M33.06 61.87 C39.58 54.23, 45.38 47.35, 61.27 29.41 M41.98 57.7 C46.25 52.97, 51.1 46.19, 62.32 34.3 M41.98 57.7 C49.42 48.96, 56.87 38.98, 62.32 34.3" stroke="#be4bdb" stroke-width="0.5" fill="none"></path><path d="M39.45 2.09 C45.78 3.77, 54.32 8.81, 58.03 14.2 C61.75 19.58, 62.84 27.98, 61.74 34.41 C60.65 40.84, 56.35 48.35, 51.46 52.77 C46.58 57.18, 38.89 60.87, 32.42 60.88 C25.95 60.89, 18 56.84, 12.63 52.83 C7.26 48.82, 1.72 42.83, 0.2 36.79 C-1.32 30.75, 0.5 22.42, 3.51 16.6 C6.53 10.77, 10.59 3.83, 18.29 1.85 C25.99 -0.13, 43.52 3, 49.73 4.73 C55.94 6.45, 56.01 11.47, 55.54 12.19 M39.75 2.64 C45.66 3.89, 53.38 8.48, 56.88 13.72 C60.38 18.96, 61.62 27.43, 60.74 34.08 C59.85 40.74, 56.51 49.55, 51.57 53.66 C46.63 57.77, 37.67 58.55, 31.09 58.74 C24.52 58.94, 17.2 58.85, 12.13 54.82 C7.05 50.8, 2.13 40.99, 0.65 34.6 C-0.83 28.21, 0.01 22.05, 3.24 16.47 C6.46 10.88, 13.52 3.7, 20.01 1.08 C26.5 -1.54, 38.83 0.49, 42.17 0.77 C45.52 1.05, 40.63 2.24, 40.08 2.78" stroke="#000000" stroke-width="1" fill="none"></path></g><g stroke-linecap="round" transform="translate(10 171) rotate(0 31 30)"><path d="M2.49 18.07 C2.49 18.07, 2.49 18.07, 2.49 18.07 M2.49 18.07 C2.49 18.07, 2.49 18.07, 2.49 18.07 M2.23 24.46 C8.88 15.78, 16.33 7.46, 20.6 3.33 M2.23 24.46 C6.4 20.63, 10.27 14.59, 20.6 3.33 M1.31 31.62 C7.37 21.31, 16.34 16.07, 26.24 2.94 M1.31 31.62 C8.47 23.79, 14.07 16.88, 26.24 2.94 M0.39 38.77 C12.5 24.27, 22.17 12.86, 32.54 1.79 M0.39 38.77 C9.01 27.9, 18.33 19.22, 32.54 1.79 M3.41 41.39 C12.64 32.46, 19.87 26.12, 38.18 1.39 M3.41 41.39 C11.39 33.44, 17.47 26.1, 38.18 1.39 M5.78 44.77 C13.49 33.11, 24.46 25.01, 41.2 4.02 M5.78 44.77 C14.06 35.07, 21.98 27.12, 41.2 4.02 M8.14 48.15 C16.78 37.37, 28.95 24.97, 44.88 5.89 M8.14 48.15 C18.47 37.15, 28.53 25.22, 44.88 5.89 M11.16 50.78 C20.29 38.71, 28.3 29.64, 48.55 7.76 M11.16 50.78 C21.75 37.84, 32.18 26.17, 48.55 7.76 M13.52 54.15 C23.79 40.85, 35.08 29.7, 51.57 10.38 M13.52 54.15 C23.06 42.42, 34.41 31.27, 51.57 10.38 M17.2 56.02 C30.2 43.06, 43.09 27.49, 55.25 12.25 M17.2 56.02 C25.51 46.15, 35.22 37, 55.25 12.25 M21.53 57.14 C30.77 45.31, 42.39 35.06, 56.95 16.38 M21.53 57.14 C29.57 47.85, 38.65 37.82, 56.95 16.38 M25.86 58.25 C31.89 50.07, 38.58 42.6, 58 21.27 M25.86 58.25 C35.52 45.99, 46.74 35.45, 58 21.27 M30.19 59.37 C40.11 48.35, 48.69 38.08, 59.71 25.41 M30.19 59.37 C38.14 50.97, 47.17 40.57, 59.71 25.41 M35.18 59.73 C42.05 49.4, 50.27 38.8, 61.42 29.54 M35.18 59.73 C43.35 49.81, 50.08 41.42, 61.42 29.54 M44.76 54.81 C50.64 46.97, 56.69 44.03, 61.16 35.94 M44.76 54.81 C49.81 47.63, 56.23 41.04, 61.16 35.94" stroke="#be4bdb" stroke-width="0.5" fill="none"></path><path d="M17.4 3.83 C22.93 0.6, 31.24 -0.21, 37.5 1.19 C43.76 2.59, 50.87 7.1, 54.96 12.24 C59.04 17.37, 62.1 25.86, 62.02 32.01 C61.94 38.16, 59.03 44.46, 54.48 49.12 C49.93 53.79, 41.38 58.87, 34.72 59.99 C28.07 61.11, 20.22 59.37, 14.55 55.84 C8.88 52.3, 2.64 45.13, 0.68 38.78 C-1.28 32.42, -0.44 23.99, 2.8 17.72 C6.03 11.44, 16.55 3.7, 20.07 1.11 C23.59 -1.47, 23.6 1.53, 23.92 2.19 M44.11 2.46 C49.98 4.57, 55.65 11.33, 58.43 17.51 C61.22 23.69, 62.63 33.5, 60.81 39.53 C59 45.56, 53.01 50.06, 47.56 53.67 C42.11 57.28, 34.59 61.89, 28.11 61.18 C21.63 60.47, 13.43 54.14, 8.67 49.41 C3.91 44.68, -0.07 39.16, -0.46 32.8 C-0.85 26.45, 2.1 16.75, 6.33 11.3 C10.56 5.84, 18.62 1.35, 24.91 0.09 C31.2 -1.17, 41.01 3.21, 44.09 3.73 C47.17 4.26, 43.35 2.75, 43.37 3.25" stroke="#000000" stroke-width="1" fill="none"></path></g><g transform="translate(937 127) rotate(0 70.5 12.5)"><text x="0" y="0" font-family="Virgil, Segoe UI Emoji" font-size="20px" fill="#000000" text-anchor="start" style="white-space: pre;" direction="ltr" dominant-baseline="text-before-edge">Service center</text></g><g stroke-linecap="round" transform="translate(475 145) rotate(0 179 36.5)"><path d="M0 0 C84.53 3.26, 171.46 1.76, 358 0 M358 0 C356.72 16.82, 357.51 35.42, 358 73 M358 73 C218.88 74.85, 80.04 74.93, 0 73 M0 73 C1.9 46.11, 1.29 19.73, 0 0" stroke="#000000" stroke-width="1.5" fill="none" stroke-dasharray="8 9"></path></g><g stroke-linecap="round" transform="translate(766 153) rotate(0 31 30)"><path d="M9.42 8.19 C9.42 8.19, 9.42 8.19, 9.42 8.19 M9.42 8.19 C9.42 8.19, 9.42 8.19, 9.42 8.19 M4.57 19.87 C9.7 15.32, 14.41 10.55, 17.69 4.78 M4.57 19.87 C7.94 17.17, 9.62 13.28, 17.69 4.78 M1.68 29.29 C10.04 18.85, 20.14 9.18, 25.96 1.37 M1.68 29.29 C8.81 19.89, 17.45 10.37, 25.96 1.37 M2.74 34.18 C7.98 26.36, 14.94 21.01, 30.95 1.73 M2.74 34.18 C12.95 23.2, 22.61 12.04, 30.95 1.73 M3.79 39.07 C9.39 32.91, 17.75 24.25, 35.28 2.84 M3.79 39.07 C13.86 26.84, 23.65 16.87, 35.28 2.84 M5.49 43.2 C16.17 32.59, 26.03 18.62, 39.61 3.96 M5.49 43.2 C15.3 33.2, 23.67 22.42, 39.61 3.96 M6.54 48.09 C22.15 32.42, 36.52 16.67, 43.94 5.07 M6.54 48.09 C16.4 35.53, 28.2 22.42, 43.94 5.07 M10.22 49.96 C22.07 37.5, 31.57 24.3, 48.27 6.18 M10.22 49.96 C21.55 35.69, 34.91 21.34, 48.27 6.18 M13.89 51.83 C26.35 37.08, 40.14 24.33, 50.63 9.56 M13.89 51.83 C25.09 38.85, 35.65 25.57, 50.63 9.56 M16.91 54.45 C27.7 38.91, 41.6 27.93, 53.65 12.19 M16.91 54.45 C29.99 38.25, 44.1 21.27, 53.65 12.19 M20.59 56.32 C26.77 49.55, 34.7 40.17, 56.01 15.57 M20.59 56.32 C34.75 39.87, 47.16 24.32, 56.01 15.57 M24.26 58.19 C33.87 44.81, 43.82 35.98, 58.38 18.95 M24.26 58.19 C34.46 45.66, 47.47 32.66, 58.38 18.95 M29.9 57.8 C36.42 50.64, 44.97 40.86, 60.74 22.32 M29.9 57.8 C36.58 49.13, 43 41.47, 60.74 22.32 M35.55 57.4 C43.98 51.53, 48.79 42.2, 60.48 28.72 M35.55 57.4 C45.85 47.48, 54.99 34.79, 60.48 28.72 M41.19 57.01 C46.84 52.34, 49.28 45.67, 60.22 35.12 M41.19 57.01 C47.26 50.67, 51.28 45.07, 60.22 35.12 M52.08 50.57 C55.42 46.93, 57.37 43.95, 59.3 42.27 M52.08 50.57 C54.32 47.99, 57.96 44.72, 59.3 42.27" stroke="#be4bdb" stroke-width="0.5" fill="none"></path><path d="M27.61 0.44 C33.67 -0.38, 42.59 2.1, 48.09 5.74 C53.59 9.38, 58.74 16.09, 60.62 22.29 C62.49 28.49, 62.03 37.19, 59.34 42.93 C56.65 48.68, 50.4 54.22, 44.47 56.76 C38.54 59.29, 30.15 59.68, 23.77 58.13 C17.38 56.59, 9.95 52.46, 6.17 47.5 C2.39 42.53, 0.53 34.89, 1.08 28.33 C1.62 21.78, 4.02 12.75, 9.44 8.17 C14.87 3.59, 28.84 1.85, 33.63 0.84 C38.42 -0.18, 38.18 1.76, 38.2 2.08 M35.3 1.62 C41.75 2.03, 49.36 4.71, 53.59 9.23 C57.82 13.75, 60.34 22.15, 60.71 28.75 C61.07 35.36, 59.54 43.7, 55.79 48.85 C52.04 54, 44.58 58.3, 38.21 59.63 C31.84 60.96, 23.66 59.67, 17.58 56.84 C11.51 54.01, 4.6 48.46, 1.77 42.63 C-1.05 36.79, -1.52 27.93, 0.66 21.84 C2.84 15.75, 9.15 9.71, 14.88 6.1 C20.6 2.48, 31.59 1.19, 34.99 0.16 C38.39 -0.88, 35.14 -0.72, 35.27 -0.12" stroke="#000000" stroke-width="1" fill="none"></path></g><g stroke-linecap="round" transform="translate(485 150) rotate(0 31 30)"><path d="M12.4 5.48 C12.4 5.48, 12.4 5.48, 12.4 5.48 M12.4 5.48 C12.4 5.48, 12.4 5.48, 12.4 5.48 M0.99 24.71 C7.05 18.47, 11.6 10.64, 19.36 3.58 M0.99 24.71 C4.71 20.01, 8.05 16.43, 19.36 3.58 M1.38 30.35 C10.71 19.75, 20.33 8.91, 26.31 1.67 M1.38 30.35 C7.63 23.67, 14.82 15.22, 26.31 1.67 M1.78 35.99 C10.15 24.32, 18.29 16.12, 33.27 -0.23 M1.78 35.99 C9.68 26.37, 19.85 17.26, 33.27 -0.23 M2.17 41.64 C13.59 27.52, 23.11 14.23, 36.94 1.64 M2.17 41.64 C12.2 30.93, 20.92 21.7, 36.94 1.64 M4.53 45.02 C13.26 31.64, 23.62 21.96, 40.62 3.51 M4.53 45.02 C17.47 29.11, 32.52 14.48, 40.62 3.51 M7.55 47.64 C20.18 36.19, 31.7 20.12, 44.29 5.38 M7.55 47.64 C21.8 32.49, 34.61 16.5, 44.29 5.38 M10.57 50.26 C18.43 38.23, 28.13 28.18, 47.97 7.25 M10.57 50.26 C19.86 40.19, 27.4 31.6, 47.97 7.25 M13.59 52.89 C25.26 42.06, 31.4 29.34, 51.64 9.12 M13.59 52.89 C25.69 38.91, 36.52 25.61, 51.64 9.12 M16.61 55.51 C27.17 41.58, 39.29 30.4, 55.32 10.99 M16.61 55.51 C28.71 40.79, 41.32 27.56, 55.32 10.99 M20.28 57.38 C33.66 46.38, 44.41 33.54, 57.02 15.12 M20.28 57.38 C28.88 45.67, 38.27 34.66, 57.02 15.12 M25.27 57.74 C38.37 44.05, 48.24 28.09, 58.73 19.25 M25.27 57.74 C32.71 48.71, 41.46 40.03, 58.73 19.25 M29.6 58.86 C38.38 47.33, 45.24 39.39, 60.44 23.39 M29.6 58.86 C38.58 47.82, 49.25 35.76, 60.44 23.39 M34.59 59.22 C44.72 49.16, 53.43 36, 62.14 27.52 M34.59 59.22 C41.88 50.27, 50.46 40.24, 62.14 27.52 M39.58 59.58 C43.35 53.33, 50.67 46.67, 59.91 36.18 M39.58 59.58 C48.18 49.64, 54.55 41.82, 59.91 36.18 M51.78 51.64 C54.02 50.85, 54.71 47.85, 57.68 44.84 M51.78 51.64 C53.52 49.88, 55.52 47.79, 57.68 44.84" stroke="#be4bdb" stroke-width="0.5" fill="none"></path><path d="M33.29 -0.25 C39.68 0.01, 49.18 5.28, 53.93 9.82 C58.68 14.36, 61.32 20.78, 61.77 26.98 C62.22 33.18, 60.28 41.65, 56.63 47.04 C52.99 52.44, 46.29 57.74, 39.91 59.35 C33.53 60.96, 24.65 59.5, 18.33 56.69 C12.01 53.87, 4.93 48.26, 1.99 42.46 C-0.95 36.65, -1.06 28.05, 0.7 21.86 C2.46 15.67, 6.74 9, 12.56 5.3 C18.37 1.6, 31.73 0.42, 35.6 -0.35 C39.47 -1.13, 35.81 -0.01, 35.77 0.67 M31.06 0.09 C37.43 -0.73, 46.5 1.47, 51.5 5.28 C56.5 9.1, 60.09 16.29, 61.05 22.98 C62.01 29.67, 60.35 39.53, 57.27 45.43 C54.18 51.33, 48.53 56.13, 42.55 58.37 C36.56 60.61, 27.59 60.91, 21.33 58.86 C15.08 56.81, 8.71 51.58, 5.03 46.08 C1.34 40.57, -1.86 32.24, -0.78 25.81 C0.29 19.39, 6.29 11.61, 11.47 7.52 C16.64 3.43, 27.08 2.24, 30.26 1.28 C33.44 0.31, 30.54 1.53, 30.55 1.74" stroke="#000000" stroke-width="1" fill="none"></path></g><g stroke-linecap="round" transform="translate(555 153) rotate(0 31 30)"><path d="M2.45 16.71 C2.45 16.71, 2.45 16.71, 2.45 16.71 M2.45 16.71 C2.45 16.71, 2.45 16.71, 2.45 16.71 M2.19 23.11 C9.05 14.7, 14.32 6.98, 18.59 4.24 M2.19 23.11 C5.18 18.66, 9.28 16.1, 18.59 4.24 M1.27 30.26 C6.48 24.29, 11.43 18.85, 24.24 3.84 M1.27 30.26 C7.86 23.94, 12.68 17.11, 24.24 3.84 M1.01 36.66 C5.43 28.39, 13.33 22.89, 29.88 3.45 M1.01 36.66 C9.75 27.98, 19 17.65, 29.88 3.45 M3.38 40.03 C15.03 24.04, 27.49 9.73, 35.52 3.05 M3.38 40.03 C12.7 29.27, 23.49 17.67, 35.52 3.05 M5.74 43.41 C16.15 28.75, 30.27 16.8, 40.51 3.41 M5.74 43.41 C13.49 35.1, 22.52 25.03, 40.51 3.41 M8.1 46.79 C23.3 32.49, 33.84 17.5, 44.18 5.28 M8.1 46.79 C17.43 36.27, 25.89 24.87, 44.18 5.28 M10.46 50.17 C23.86 32.77, 39.21 15.2, 47.86 7.15 M10.46 50.17 C20.91 37.32, 32.88 24.14, 47.86 7.15 M12.83 53.55 C23.09 40.06, 31.48 29.96, 51.53 9.02 M12.83 53.55 C20.74 43, 29.36 33.79, 51.53 9.02 M17.16 54.67 C31.26 37.77, 48.17 21.05, 54.55 11.65 M17.16 54.67 C26.99 42.76, 38.34 31.15, 54.55 11.65 M20.83 56.53 C30.88 48.2, 39.05 37.02, 57.57 14.27 M20.83 56.53 C34.74 39.14, 49.35 24.1, 57.57 14.27 M25.16 57.65 C34.69 45.33, 41.97 35.23, 58.62 19.16 M25.16 57.65 C33.29 48.91, 41.74 38.34, 58.62 19.16 M29.49 58.76 C34.78 49.05, 43.68 42.97, 59.67 24.05 M29.49 58.76 C41.34 45.81, 52.21 33.19, 59.67 24.05 M33.17 60.63 C41.25 51.62, 46.22 45.29, 60.72 28.94 M33.17 60.63 C39.57 53.53, 44.92 45.55, 60.72 28.94 M40.78 57.98 C46.24 52.26, 51.27 46.51, 61.77 33.82 M40.78 57.98 C46.03 49.93, 53.41 43.4, 61.77 33.82 M49.05 54.56 C52.6 51.7, 53.44 48.79, 56.26 46.26 M49.05 54.56 C51.47 52.46, 53.49 49.72, 56.26 46.26" stroke="#be4bdb" stroke-width="0.5" fill="none"></path><path d="M38.79 2.01 C45.07 3.31, 53.69 7.62, 57.45 12.79 C61.22 17.96, 62.2 26.46, 61.39 33.04 C60.58 39.62, 57.17 47.72, 52.59 52.28 C48.01 56.84, 40.57 60.17, 33.91 60.4 C27.25 60.62, 18.14 57.47, 12.64 53.62 C7.13 49.76, 2.53 43.44, 0.87 37.25 C-0.79 31.06, -0.18 22.1, 2.66 16.47 C5.51 10.84, 11.48 5.9, 17.95 3.46 C24.41 1.03, 37.07 1.66, 41.45 1.84 C45.83 2.03, 44.23 4.09, 44.23 4.57 M38.21 1.98 C44.16 2.82, 50.82 6.94, 54.59 11.74 C58.37 16.54, 60.87 24.27, 60.87 30.78 C60.88 37.29, 58.94 45.93, 54.64 50.8 C50.33 55.67, 41.76 59.21, 35.06 60.01 C28.35 60.8, 19.95 59.3, 14.4 55.55 C8.85 51.8, 3.67 43.56, 1.74 37.49 C-0.19 31.41, 0.26 24.81, 2.82 19.1 C5.38 13.39, 11 6.22, 17.09 3.23 C23.19 0.23, 35.73 1.42, 39.4 1.11 C43.07 0.8, 39.53 1.01, 39.12 1.39" stroke="#000000" stroke-width="1" fill="none"></path></g><g stroke-linecap="round" transform="translate(626 153) rotate(0 31 30)"><path d="M1.6 18.62 C1.6 18.62, 1.6 18.62, 1.6 18.62 M1.6 18.62 C1.6 18.62, 1.6 18.62, 1.6 18.62 M1.34 25.02 C4.26 19.77, 7.86 13.35, 20.37 3.13 M1.34 25.02 C7.11 18.17, 14.75 9.75, 20.37 3.13 M1.08 31.41 C6.16 25.49, 11.74 17.35, 26.01 2.74 M1.08 31.41 C9.03 22.38, 16.45 12.5, 26.01 2.74 M1.47 37.06 C8.78 27.75, 18.82 16.74, 31.65 2.34 M1.47 37.06 C9.21 30.21, 15.26 22.73, 31.65 2.34 M3.18 41.19 C9.27 31.15, 17.06 24.4, 37.3 1.95 M3.18 41.19 C11.16 33.13, 18.37 23.74, 37.3 1.95 M5.54 44.57 C17.31 30.9, 31.76 15.36, 41.63 3.06 M5.54 44.57 C16.48 33.81, 25.61 22.91, 41.63 3.06 M7.91 47.95 C16.19 38.04, 23.84 29.53, 44.65 5.69 M7.91 47.95 C17.13 36.57, 25.52 27.67, 44.65 5.69 M10.93 50.57 C20.46 38.59, 29.81 27.48, 48.32 7.55 M10.93 50.57 C24.69 35.3, 38.16 17.91, 48.32 7.55 M13.29 53.95 C25.37 36.45, 40.9 20.15, 52 9.42 M13.29 53.95 C26.58 37.68, 41.22 22.84, 52 9.42 M16.31 56.58 C32 40.56, 47.84 20.48, 55.67 11.29 M16.31 56.58 C30.12 41.56, 44.18 24.09, 55.67 11.29 M21.29 56.94 C29.86 49.56, 35.62 40.78, 57.38 15.43 M21.29 56.94 C32.41 43.16, 45.85 29.68, 57.38 15.43 M25.63 58.05 C34.5 44.33, 45.61 32.16, 58.43 20.32 M25.63 58.05 C34.1 49.08, 40.73 40.06, 58.43 20.32 M30.61 58.41 C39.14 47.23, 51.3 36.97, 60.14 24.45 M30.61 58.41 C42.12 45.33, 53.94 31.79, 60.14 24.45 M34.94 59.53 C41.34 50.21, 50.43 39.79, 61.84 28.58 M34.94 59.53 C45.34 47, 54.84 36.04, 61.84 28.58 M42.55 56.87 C48.57 49.91, 54.56 45.11, 60.27 36.49 M42.55 56.87 C47.25 50.94, 53.44 44.12, 60.27 36.49 M51.48 52.7 C52.55 50.97, 53.6 50.06, 56.73 46.66 M51.48 52.7 C53.65 50.61, 55.35 48.72, 56.73 46.66" stroke="#be4bdb" stroke-width="0.5" fill="none"></path><path d="M38.35 1.62 C44.67 2.49, 51.3 6.15, 55.28 11.01 C59.27 15.87, 62.31 24.21, 62.27 30.77 C62.22 37.34, 59.44 45.65, 55.03 50.39 C50.63 55.14, 42.75 58.41, 35.86 59.23 C28.98 60.06, 19.52 58.69, 13.73 55.32 C7.95 51.95, 3.19 45.11, 1.15 39.01 C-0.88 32.91, -1.15 24.74, 1.51 18.73 C4.17 12.71, 10.13 5.69, 17.12 2.94 C24.11 0.2, 38.02 1.64, 43.45 2.27 C48.89 2.89, 49.92 6.13, 49.72 6.71 M36.75 -0.93 C42.86 -0.6, 49.84 3.84, 53.88 9.04 C57.93 14.25, 60.77 23.61, 61.03 30.29 C61.3 36.97, 59.43 44.2, 55.48 49.12 C51.54 54.04, 43.86 58.54, 37.39 59.82 C30.92 61.1, 22.75 59.89, 16.69 56.8 C10.63 53.71, 3.38 47.33, 1.03 41.28 C-1.32 35.23, 0.28 26.43, 2.58 20.5 C4.88 14.57, 9.28 8.86, 14.83 5.69 C20.38 2.51, 32.44 2.33, 35.89 1.46 C39.33 0.58, 35.68 0.3, 35.49 0.44" stroke="#000000" stroke-width="1" fill="none"></path></g><g stroke-linecap="round" transform="translate(692 154) rotate(0 31 30)"><path d="M5.16 12.44 C5.16 12.44, 5.16 12.44, 5.16 12.44 M5.16 12.44 C5.16 12.44, 5.16 12.44, 5.16 12.44 M2.93 21.1 C6.84 14.32, 9.58 11.97, 16.71 5.25 M2.93 21.1 C7.18 17.54, 9.86 11.42, 16.71 5.25 M0.7 29.76 C7.98 21.4, 13.04 14.56, 25.63 1.08 M0.7 29.76 C6.74 22.37, 11.96 15.28, 25.63 1.08 M1.1 35.4 C9.5 26.51, 16.17 16.84, 30.62 1.44 M1.1 35.4 C8.62 27.67, 15.5 18.87, 30.62 1.44 M3.46 38.78 C12.25 26.33, 24.32 13.79, 34.95 2.56 M3.46 38.78 C16.66 24.4, 28.51 11.01, 34.95 2.56 M5.17 42.92 C14.21 34.64, 21.35 22.76, 39.94 2.92 M5.17 42.92 C13.4 33.93, 21.48 23.9, 39.94 2.92 M6.87 47.05 C19.03 32.53, 32.63 14.79, 44.27 4.03 M6.87 47.05 C20.27 30.14, 36.14 14.04, 44.27 4.03 M9.24 50.43 C18.18 38.37, 27.95 30.75, 47.29 6.66 M9.24 50.43 C25.01 32.81, 38.66 16.81, 47.29 6.66 M12.91 52.3 C26.34 35.57, 40.98 19.6, 50.31 9.28 M12.91 52.3 C24.48 39.04, 37.47 26.52, 50.31 9.28 M16.59 54.17 C28.29 43.19, 35.93 32.44, 52.67 12.66 M16.59 54.17 C26.82 43.53, 34.61 31.82, 52.67 12.66 M20.26 56.04 C35.46 39.29, 49.29 24.76, 55.69 15.28 M20.26 56.04 C28.32 47.58, 36.64 37.71, 55.69 15.28 M23.93 57.91 C34.2 43.42, 46.03 30.14, 58.71 17.91 M23.93 57.91 C32.81 46.98, 41.59 37.23, 58.71 17.91 M27.61 59.78 C37.84 49.31, 48.94 39.3, 59.76 22.8 M27.61 59.78 C34.86 51.82, 41.69 42.5, 59.76 22.8 M34.56 57.87 C41.79 49.12, 47.95 42.37, 60.15 28.44 M34.56 57.87 C39.52 50.58, 46.05 44.14, 60.15 28.44 M41.52 55.97 C44.75 52.64, 50.13 46.27, 60.55 34.08 M41.52 55.97 C49.18 47.68, 55.91 39.35, 60.55 34.08" stroke="#be4bdb" stroke-width="0.5" fill="none"></path><path d="M24.48 0.78 C30.49 -1.18, 38.34 0.32, 44.11 3.32 C49.88 6.32, 56.25 12.86, 59.09 18.76 C61.93 24.67, 63.02 32.9, 61.15 38.77 C59.28 44.64, 53.46 50.54, 47.87 53.99 C42.28 57.44, 34.19 60.1, 27.61 59.46 C21.03 58.81, 13 54.55, 8.4 50.11 C3.8 45.67, 0.51 39.11, 0 32.8 C-0.51 26.49, 0.33 17.56, 5.33 12.24 C10.33 6.92, 24.64 2.74, 30.01 0.89 C35.39 -0.96, 37.44 0.74, 37.58 1.14 M38.15 0.79 C44.14 1.73, 51.42 6.76, 55.55 12.16 C59.68 17.57, 63.34 26.64, 62.92 33.23 C62.51 39.82, 57.94 47.17, 53.07 51.7 C48.21 56.23, 40.34 60.14, 33.72 60.4 C27.09 60.65, 18.73 56.89, 13.32 53.22 C7.91 49.54, 2.95 44.39, 1.24 38.36 C-0.46 32.32, 0.05 22.89, 3.1 16.99 C6.15 11.09, 13.3 5.59, 19.54 2.95 C25.78 0.31, 37.34 1.4, 40.55 1.12 C43.75 0.85, 39.26 0.86, 38.77 1.32" stroke="#000000" stroke-width="1" fill="none"></path></g><g stroke-linecap="round" transform="translate(983 183) rotate(0 31 30)"><path d="M8.02 9.62 C8.02 9.62, 8.02 9.62, 8.02 9.62 M8.02 9.62 C8.02 9.62, 8.02 9.62, 8.02 9.62 M2.51 22.06 C7.82 15.17, 15.29 8.79, 16.95 5.46 M2.51 22.06 C7.16 16.37, 13.84 10.78, 16.95 5.46 M0.94 29.97 C8.88 21.61, 16.14 15.09, 25.21 2.04 M0.94 29.97 C8.89 20.79, 16.83 10.54, 25.21 2.04 M1.99 34.85 C10.55 28.39, 17.68 19.32, 30.86 1.65 M1.99 34.85 C9.88 25.93, 18.43 15.05, 30.86 1.65 M3.7 38.99 C11.4 29.2, 16.25 23.76, 35.19 2.76 M3.7 38.99 C14.84 26.56, 24.77 16.6, 35.19 2.76 M4.75 43.88 C16.85 32.78, 25.67 19.38, 39.52 3.88 M4.75 43.88 C16.72 29.93, 28.59 15.73, 39.52 3.88 M6.45 48.01 C17.5 37.59, 26.56 24.4, 43.85 4.99 M6.45 48.01 C19.32 32.78, 32.99 16.81, 43.85 4.99 M9.47 50.63 C25.41 33.27, 37.03 18.43, 48.18 6.11 M9.47 50.63 C20.62 36.97, 30.62 25.25, 48.18 6.11 M13.15 52.5 C20.5 44.89, 30.3 33.94, 50.54 9.49 M13.15 52.5 C24.12 40.48, 35.68 27.19, 50.54 9.49 M16.17 55.13 C26.82 45.91, 35.76 35.66, 53.56 12.11 M16.17 55.13 C27.36 41.72, 38.78 29.21, 53.56 12.11 M19.19 57.75 C27.73 50.56, 32.6 39.96, 55.92 15.49 M19.19 57.75 C33.43 42.13, 46.79 25.25, 55.92 15.49 M22.2 60.38 C29.91 48.61, 40.44 40.37, 58.29 18.87 M22.2 60.38 C34.36 44.71, 48.31 28.69, 58.29 18.87 M28.5 59.23 C38.07 47.8, 44.41 39.09, 60.65 22.25 M28.5 59.23 C39.89 45.77, 52.84 31.08, 60.65 22.25 M34.8 58.08 C44.62 48.43, 52.03 36.59, 60.39 28.64 M34.8 58.08 C41.68 50.12, 49.22 41.68, 60.39 28.64 M41.1 56.93 C46.45 53.62, 49.48 47.7, 60.13 35.04 M41.1 56.93 C45.89 52.85, 49.54 47.32, 60.13 35.04 M53.31 48.99 C55.1 46.69, 57.66 43.37, 59.21 42.2 M53.31 48.99 C54.63 47.62, 55.66 45.42, 59.21 42.2" stroke="#be4bdb" stroke-width="0.5" fill="none"></path><path d="M27.21 0.98 C33.38 0.18, 42.69 2.46, 48.29 5.96 C53.9 9.46, 58.99 15.78, 60.84 21.99 C62.68 28.2, 62.22 37.53, 59.37 43.22 C56.53 48.91, 49.93 53.35, 43.75 56.15 C37.58 58.94, 28.74 61.55, 22.34 59.99 C15.94 58.42, 9.1 52.16, 5.34 46.77 C1.58 41.38, -0.71 33.91, -0.22 27.67 C0.27 21.43, 3.35 14.05, 8.28 9.33 C13.2 4.61, 25.43 0.76, 29.31 -0.65 C33.2 -2.05, 31.53 0.42, 31.57 0.9 M18.38 3.57 C24.2 0.29, 33.11 -1.47, 39.2 0.13 C45.28 1.74, 51.02 7.98, 54.89 13.22 C58.77 18.45, 62.67 25.58, 62.44 31.54 C62.21 37.5, 58.06 44.36, 53.52 48.98 C48.97 53.61, 41.94 58.28, 35.18 59.28 C28.43 60.29, 18.83 58.56, 12.98 55.04 C7.14 51.52, 1.64 44.04, 0.11 38.16 C-1.42 32.27, 0.84 25.45, 3.79 19.73 C6.75 14.01, 15.64 6.29, 17.82 3.83 C20 1.37, 16.77 4.77, 16.9 4.96" stroke="#000000" stroke-width="1" fill="none"></path></g><g stroke-linecap="round"><g transform="translate(319.13690501290944 52.36950014594356) rotate(0 73.43154749354528 54.959202746128284)"><path d="M0.31 0.65 C24.79 18.98, 122.17 92.41, 146.73 110.71" stroke="#000000" stroke-width="1.5" fill="none" stroke-dasharray="8 9"></path></g><g transform="translate(319.13690501290944 52.36950014594356) rotate(0 73.43154749354528 54.959202746128284)"><path d="M122.81 103.45 C130.85 105.27, 138 108.92, 146.73 110.71" stroke="#000000" stroke-width="1.5" fill="none"></path></g><g transform="translate(319.13690501290944 52.36950014594356) rotate(0 73.43154749354528 54.959202746128284)"><path d="M133.07 89.77 C138.22 95.57, 142.4 103.18, 146.73 110.71" stroke="#000000" stroke-width="1.5" fill="none"></path></g></g><mask></mask><g stroke-linecap="round"><g transform="translate(251 335) rotate(0 107 -78.5)"><path d="M-0.22 0.49 C35.56 -25.72, 179.15 -131.72, 214.95 -157.86" stroke="#000000" stroke-width="1.5" fill="none" stroke-dasharray="8 9"></path></g><g transform="translate(251 335) rotate(0 107 -78.5)"><path d="M201.08 -137.06 C206.42 -142.08, 208.59 -149.37, 214.95 -157.86" stroke="#000000" stroke-width="1.5" fill="none"></path></g><g transform="translate(251 335) rotate(0 107 -78.5)"><path d="M190.95 -150.84 C199.45 -151.45, 204.84 -154.35, 214.95 -157.86" stroke="#000000" stroke-width="1.5" fill="none"></path></g></g><mask></mask><g stroke-linecap="round"><g transform="translate(75 199) rotate(0 189 -13)"><path d="M0.37 -0.87 C63.06 -5.18, 314.23 -21.53, 376.98 -25.53" stroke="#000000" stroke-width="1.5" fill="none" stroke-dasharray="8 9"></path></g><g transform="translate(75 199) rotate(0 189 -13)"><path d="M354.09 -15.48 C361.11 -20.98, 371.84 -24.83, 376.98 -25.53" stroke="#000000" stroke-width="1.5" fill="none"></path></g><g transform="translate(75 199) rotate(0 189 -13)"><path d="M352.99 -32.55 C360.47 -31.71, 371.61 -29.23, 376.98 -25.53" stroke="#000000" stroke-width="1.5" fill="none"></path></g></g><mask></mask><g stroke-linecap="round"><g transform="translate(183 83) rotate(0 129.5 39.5)"><path d="M0.82 0.84 C44.05 13.81, 216.98 65, 259.99 77.98" stroke="#000000" stroke-width="1.5" fill="none" stroke-dasharray="8 9"></path></g><g transform="translate(183 83) rotate(0 129.5 39.5)"><path d="M235.04 79.45 C245.2 80.42, 250.86 78.11, 259.99 77.98" stroke="#000000" stroke-width="1.5" fill="none"></path></g><g transform="translate(183 83) rotate(0 129.5 39.5)"><path d="M239.93 63.07 C248.39 69.82, 252.34 73.27, 259.99 77.98" stroke="#000000" stroke-width="1.5" fill="none"></path></g></g><mask></mask><g stroke-linecap="round"><g transform="translate(848 188) rotate(0 33 -1)"><path d="M-0.09 -0.74 C10.92 -1.02, 55.62 -2.45, 66.79 -2.77 M-1.6 1.49 C9.26 1.44, 54.89 -1.11, 66.25 -1.63" stroke="#000000" stroke-width="1" fill="none"></path></g><g transform="translate(848 188) rotate(0 33 -1)"><path d="M43.22 8.1 C50.38 5.92, 58.63 2.58, 66.25 -1.63 M43.22 8.1 C47.82 6.51, 54.62 2.79, 66.25 -1.63" stroke="#000000" stroke-width="1" fill="none"></path></g><g transform="translate(848 188) rotate(0 33 -1)"><path d="M42.35 -8.98 C49.67 -5, 58.23 -2.19, 66.25 -1.63 M42.35 -8.98 C47.31 -6.36, 54.32 -5.87, 66.25 -1.63" stroke="#000000" stroke-width="1" fill="none"></path></g></g><mask></mask><g stroke-linecap="round"><g transform="translate(476 412) rotate(0 317.5 -2)"><path d="M0.08 -0.06 C105.61 -0.69, 528.52 -2.53, 634.23 -3.34 M-1.34 -1.14 C104.49 -2.15, 530.78 -4.62, 636.54 -5.11" stroke="#000000" stroke-width="2" fill="none"></path></g><g transform="translate(476 412) rotate(0 317.5 -2)"><path d="M23.53 -8.73 C14.43 -6.66, 6.61 -3.15, 0.08 -0.06 M23.53 -8.73 C17.71 -7.54, 12.23 -5.5, 0.08 -0.06" stroke="#000000" stroke-width="2" fill="none"></path></g><g transform="translate(476 412) rotate(0 317.5 -2)"><path d="M23.61 8.37 C14.42 3.86, 6.57 0.79, 0.08 -0.06 M23.61 8.37 C17.9 5.76, 12.4 4, 0.08 -0.06" stroke="#000000" stroke-width="2" fill="none"></path></g><g transform="translate(476 412) rotate(0 317.5 -2)"><path d="M613.09 3.56 C621.98 -1.07, 632.21 -4.24, 636.54 -5.11 M613.09 3.56 C617.83 0.58, 622.77 -1.23, 636.54 -5.11" stroke="#000000" stroke-width="2" fill="none"></path></g><g transform="translate(476 412) rotate(0 317.5 -2)"><path d="M613 -13.54 C621.99 -11.59, 632.25 -8.17, 636.54 -5.11 M613 -13.54 C617.63 -12.72, 622.59 -10.73, 636.54 -5.11" stroke="#000000" stroke-width="2" fill="none"></path></g></g><mask></mask><g transform="translate(692 382) rotate(0 39 12.5)"><text x="0" y="0" font-family="Virgil, Segoe UI Emoji" font-size="20px" fill="#000000" text-anchor="start" style="white-space: pre;" direction="ltr" dominant-baseline="text-before-edge">Latency</text></g><g stroke-linecap="round"><g transform="translate(479 323.00000000000006) rotate(0 183 0)"><path d="M0.97 -0.58 C62.22 -0.57, 306.08 -1.12, 367.04 -0.86" stroke="#000000" stroke-width="1.5" fill="none" stroke-dasharray="8 9"></path></g><g transform="translate(479 323.00000000000006) rotate(0 183 0)"><path d="M24.45 -9.16 C17.3 -5, 10.72 -3.29, 0.97 -0.58" stroke="#000000" stroke-width="1.5" fill="none"></path></g><g transform="translate(479 323.00000000000006) rotate(0 183 0)"><path d="M24.47 7.94 C17.44 7.64, 10.86 4.9, 0.97 -0.58" stroke="#000000" stroke-width="1.5" fill="none"></path></g><g transform="translate(479 323.00000000000006) rotate(0 183 0)"><path d="M343.54 7.68 C348.76 7, 354.43 4.25, 367.04 -0.86" stroke="#000000" stroke-width="1.5" fill="none"></path></g><g transform="translate(479 323.00000000000006) rotate(0 183 0)"><path d="M343.55 -9.42 C348.64 -5.64, 354.3 -3.93, 367.04 -0.86" stroke="#000000" stroke-width="1.5" fill="none"></path></g></g><mask></mask><g transform="translate(568 293) rotate(0 47.5 12.5)"><text x="0" y="0" font-family="Virgil, Segoe UI Emoji" font-size="20px" fill="#000000" text-anchor="start" style="white-space: pre;" direction="ltr" dominant-baseline="text-before-edge">Wait time</text></g><g stroke-linecap="round"><g transform="translate(922.6136867828668 325.5773086573928) rotate(0 94.1931566085666 0.21134567130357595)"><path d="M0.31 -1.16 C16.02 -1.12, 61.89 -0.64, 93.41 -0.21 C124.94 0.22, 173.45 1.17, 189.45 1.41" stroke="#000000" stroke-width="1.5" fill="none" stroke-dasharray="8 9"></path></g><g transform="translate(922.6136867828668 325.5773086573928) rotate(0 94.1931566085666 0.21134567130357595)"><path d="M23.88 -9.5 C16.51 -8.83, 12.36 -3.85, 0.31 -1.16" stroke="#000000" stroke-width="1.5" fill="none"></path></g><g transform="translate(922.6136867828668 325.5773086573928) rotate(0 94.1931566085666 0.21134567130357595)"><path d="M23.72 7.6 C16.46 4.36, 12.34 5.43, 0.31 -1.16" stroke="#000000" stroke-width="1.5" fill="none"></path></g><g transform="translate(922.6136867828668 325.5773086573928) rotate(0 94.1931566085666 0.21134567130357595)"><path d="M165.82 9.56 C169.32 6.33, 175.95 7.55, 189.45 1.41" stroke="#000000" stroke-width="1.5" fill="none"></path></g><g transform="translate(922.6136867828668 325.5773086573928) rotate(0 94.1931566085666 0.21134567130357595)"><path d="M166.11 -7.54 C169.47 -6.85, 176.04 -1.73, 189.45 1.41" stroke="#000000" stroke-width="1.5" fill="none"></path></g></g><mask></mask><g transform="translate(954 292) rotate(0 59.5 12.5)"><text x="0" y="0" font-family="Virgil, Segoe UI Emoji" font-size="20px" fill="#000000" text-anchor="start" style="white-space: pre;" direction="ltr" dominant-baseline="text-before-edge">Service time</text></g></svg>