<svg version="1.1" xmlns="http://www.w3.org/2000/svg" viewBox="0 0 1038.2997375499694 384.9999542236328" width="1038.2997375499694" height="384.9999542236328" filter="invert(93%) hue-rotate(180deg)">
  <!-- svg-source:excalidraw -->
  
  <defs>
    <style class="style-fonts">
      @font-face {
        font-family: "Virgil";
        src: url("https://excalidraw.com/Virgil.woff2");
      }
      @font-face {
        font-family: "Cascadia";
        src: url("https://excalidraw.com/Cascadia.woff2");
      }
      @font-face {
        font-family: "Assistant";
        src: url("https://excalidraw.com/Assistant-Regular.woff2");
      }
    </style>
    
  </defs>
  <g stroke-linecap="round" transform="translate(909.4663635265321 10) rotate(0 57.66668701171875 54.66667175292969)"><path d="M3.54 11.03 C3.54 11.03, 3.54 11.03, 3.54 11.03 M3.54 11.03 C3.54 11.03, 3.54 11.03, 3.54 11.03 M0.39 26.84 C6.87 20.54, 14.49 11.98, 22.7 1.18 M0.39 26.84 C6.34 20.01, 11.82 14.9, 22.7 1.18 M0.53 38.88 C10.1 28.04, 16.08 21.35, 33.98 0.39 M0.53 38.88 C9.39 28.7, 17.82 19.41, 33.98 0.39 M0.66 50.92 C15.98 34.68, 32.68 14.48, 44.61 0.36 M0.66 50.92 C18.67 29.77, 36.19 11.06, 44.61 0.36 M0.79 62.96 C13.35 49.87, 23.76 36.53, 55.24 0.32 M0.79 62.96 C11.19 50.2, 22.35 37.05, 55.24 0.32 M0.93 75 C22.23 52.09, 42.39 27.16, 65.87 0.29 M0.93 75 C19.77 52.55, 39.26 32.09, 65.87 0.29 M1.06 87.05 C30.29 53.73, 57.22 23.66, 76.5 0.25 M1.06 87.05 C23.39 60.3, 46.28 35.71, 76.5 0.25 M3.16 96.82 C25.72 71.31, 48.53 46.15, 87.14 0.22 M3.16 96.82 C22.18 73.57, 42.41 51.9, 87.14 0.22 M8.54 102.83 C40.35 65.49, 75.21 27.68, 96.45 1.69 M8.54 102.83 C34.76 71.82, 61.77 41.82, 96.45 1.69 M15.23 107.32 C40.67 79, 65.87 51.7, 105.11 3.92 M15.23 107.32 C36.57 81.44, 57.58 56.03, 105.11 3.92 M23.9 109.55 C51.56 76.53, 80.59 43.06, 110.5 9.93 M23.9 109.55 C47.93 81.26, 72.07 54.07, 110.5 9.93 M34.53 109.51 C62.71 74.41, 93.46 41.66, 113.91 18.19 M34.53 109.51 C60.4 80.37, 86.79 50.91, 113.91 18.19 M45.16 109.48 C66.26 89.26, 83.77 66.21, 116.01 27.97 M45.16 109.48 C67.08 81.84, 90.02 56.52, 116.01 27.97 M55.79 109.45 C68.7 95.43, 81.01 79.36, 116.14 40.01 M55.79 109.45 C68.93 93.62, 83.92 76.48, 116.14 40.01 M66.42 109.41 C82.3 92.81, 92.5 77.26, 115.62 52.81 M66.42 109.41 C85.78 87.52, 105.14 64.39, 115.62 52.81 M77.05 109.38 C93.56 92.82, 106.17 72.93, 115.75 64.85 M77.05 109.38 C87.93 96.89, 99.5 82.83, 115.75 64.85 M87.02 110.1 C99.25 96, 108.43 85.9, 115.89 76.89 M87.02 110.1 C96.11 99.72, 106.72 87.39, 115.89 76.89 M98.96 108.55 C103.68 101.22, 108.57 95.24, 114.05 91.19 M98.96 108.55 C104.24 102.56, 110.28 94.9, 114.05 91.19" stroke="#fab005" stroke-width="1" fill="none"></path><path d="M27.33 0 C42.5 -2.27, 56.85 -0.48, 88 0 M27.33 0 C41.98 -1.48, 57.9 -1.15, 88 0 M88 0 C104.81 1.94, 116.33 11.03, 115.33 27.33 M88 0 C104.97 1.49, 114.37 8.44, 115.33 27.33 M115.33 27.33 C114.76 38.02, 114.2 50.9, 115.33 82 M115.33 27.33 C114.31 47.19, 114.53 66.59, 115.33 82 M115.33 82 C116.67 101.75, 107.56 107.77, 88 109.33 M115.33 82 C113.68 98.7, 104.5 107.56, 88 109.33 M88 109.33 C75.61 108.43, 61.09 107.72, 27.33 109.33 M88 109.33 C67.34 109.55, 46.94 110.56, 27.33 109.33 M27.33 109.33 C7.34 109.99, -0.02 98.53, 0 82 M27.33 109.33 C10.71 108.96, -0.84 99.33, 0 82 M0 82 C1.71 67.85, -1.88 50.97, 0 27.33 M0 82 C-0.92 64.89, -0.76 48.86, 0 27.33 M0 27.33 C-1.71 10.34, 9.47 0.07, 27.33 0 M0 27.33 C0.14 7.5, 7.2 -1.25, 27.33 0" stroke="#1e1e1e" stroke-width="2" fill="none"></path></g><g transform="translate(952.0630584728211 52.16667175292969) rotate(0 15.069992065429688 12.5)"><text x="15.069992065429688" y="0" font-family="Virgil, Segoe UI Emoji" font-size="20px" fill="#1e1e1e" text-anchor="middle" style="white-space: pre;" direction="ltr" dominant-baseline="text-before-edge">DB</text></g><g transform="translate(23.299615479657064 139.46312784392626) rotate(0 28.5 12.5)"><text x="0" y="0" font-family="Virgil, Segoe UI Emoji" font-size="20px" fill="#000000" text-anchor="start" style="white-space: pre;" direction="ltr" dominant-baseline="text-before-edge">Users</text></g><g stroke-linecap="round" transform="translate(63.74243241887655 72.20328450958937) rotate(0 9.875171816384807 8.640775339336727)"><path d="M2.19 3.23 C2.19 3.23, 2.19 3.23, 2.19 3.23 M2.19 3.23 C2.19 3.23, 2.19 3.23, 2.19 3.23 M2.98 14.51 C6.76 10.16, 10.54 5.81, 14.79 0.93 M2.98 14.51 C6.49 10.47, 10 6.43, 14.79 0.93 M10.33 18.25 C12.94 15.24, 15.56 12.23, 19.51 7.69 M10.33 18.25 C13.99 14.04, 17.66 9.82, 19.51 7.69 M3.77 15.47 C3.77 15.47, 3.77 15.47, 3.77 15.47 M3.77 15.47 C3.77 15.47, 3.77 15.47, 3.77 15.47 M15.81 15.34 C10.69 10.88, 5.56 6.43, 2.23 3.53 M15.81 15.34 C11.1 11.24, 6.38 7.14, 2.23 3.53 M20.31 8.65 C17.01 5.78, 13.7 2.9, 9.74 -0.54 M20.31 8.65 C18.02 6.66, 15.74 4.67, 9.74 -0.54" stroke="#ced4da" stroke-width="1" fill="none"></path><path d="M19.75 8.64 C19.75 9.14, 19.7 9.65, 19.6 10.14 C19.5 10.63, 19.35 11.13, 19.15 11.6 C18.96 12.07, 18.71 12.53, 18.43 12.96 C18.14 13.39, 17.81 13.81, 17.44 14.19 C17.07 14.58, 16.66 14.94, 16.22 15.26 C15.78 15.58, 15.31 15.87, 14.81 16.12 C14.32 16.37, 13.79 16.59, 13.25 16.76 C12.72 16.93, 12.15 17.06, 11.59 17.15 C11.03 17.24, 10.45 17.28, 9.88 17.28 C9.3 17.28, 8.72 17.24, 8.16 17.15 C7.6 17.06, 7.03 16.93, 6.5 16.76 C5.96 16.59, 5.43 16.37, 4.94 16.12 C4.44 15.87, 3.97 15.58, 3.53 15.26 C3.09 14.94, 2.68 14.58, 2.31 14.19 C1.94 13.81, 1.61 13.39, 1.32 12.96 C1.04 12.53, 0.79 12.07, 0.6 11.6 C0.4 11.13, 0.25 10.63, 0.15 10.14 C0.05 9.65, 0 9.14, 0 8.64 C0 8.14, 0.05 7.63, 0.15 7.14 C0.25 6.65, 0.4 6.16, 0.6 5.69 C0.79 5.22, 1.04 4.75, 1.32 4.32 C1.61 3.89, 1.94 3.47, 2.31 3.09 C2.68 2.7, 3.09 2.34, 3.53 2.02 C3.97 1.7, 4.44 1.41, 4.94 1.16 C5.43 0.91, 5.96 0.69, 6.5 0.52 C7.03 0.35, 7.6 0.22, 8.16 0.13 C8.72 0.04, 9.3 0, 9.88 0 C10.45 0, 11.03 0.04, 11.59 0.13 C12.15 0.22, 12.72 0.35, 13.25 0.52 C13.79 0.69, 14.32 0.91, 14.81 1.16 C15.31 1.41, 15.78 1.7, 16.22 2.02 C16.66 2.34, 17.07 2.7, 17.44 3.09 C17.81 3.47, 18.14 3.89, 18.43 4.32 C18.71 4.75, 18.96 5.22, 19.15 5.69 C19.35 6.16, 19.5 6.65, 19.6 7.14 C19.7 7.63, 19.73 8.39, 19.75 8.64 C19.78 8.89, 19.78 8.39, 19.75 8.64" stroke="#000000" stroke-width="2" fill="none"></path></g><g stroke-linecap="round" transform="translate(20.558758294554195 72.78635229322344) rotate(0 9.875171816384807 8.640775339336727)"><path d="M2.19 3.23 C2.19 3.23, 2.19 3.23, 2.19 3.23 M2.19 3.23 C2.19 3.23, 2.19 3.23, 2.19 3.23 M2.98 14.51 C7.18 9.67, 11.39 4.84, 14.79 0.93 M2.98 14.51 C6.45 10.52, 9.92 6.53, 14.79 0.93 M10.33 18.25 C12.35 15.92, 14.38 13.6, 19.51 7.69 M10.33 18.25 C13.26 14.88, 16.19 11.51, 19.51 7.69 M3.77 15.47 C3.77 15.47, 3.77 15.47, 3.77 15.47 M3.77 15.47 C3.77 15.47, 3.77 15.47, 3.77 15.47 M15.81 15.34 C10.83 11.01, 5.85 6.68, 2.23 3.53 M15.81 15.34 C12.74 12.67, 9.66 9.99, 2.23 3.53 M20.31 8.65 C16.1 4.99, 11.9 1.34, 9.74 -0.54 M20.31 8.65 C17.97 6.61, 15.63 4.58, 9.74 -0.54" stroke="#ced4da" stroke-width="1" fill="none"></path><path d="M19.75 8.64 C19.75 9.14, 19.7 9.65, 19.6 10.14 C19.5 10.63, 19.35 11.13, 19.15 11.6 C18.96 12.07, 18.71 12.53, 18.43 12.96 C18.14 13.39, 17.81 13.81, 17.44 14.19 C17.07 14.58, 16.66 14.94, 16.22 15.26 C15.78 15.58, 15.31 15.87, 14.81 16.12 C14.32 16.37, 13.79 16.59, 13.25 16.76 C12.72 16.93, 12.15 17.06, 11.59 17.15 C11.03 17.24, 10.45 17.28, 9.88 17.28 C9.3 17.28, 8.72 17.24, 8.16 17.15 C7.6 17.06, 7.03 16.93, 6.5 16.76 C5.96 16.59, 5.43 16.37, 4.94 16.12 C4.44 15.87, 3.97 15.58, 3.53 15.26 C3.09 14.94, 2.68 14.58, 2.31 14.19 C1.94 13.81, 1.61 13.39, 1.32 12.96 C1.04 12.53, 0.79 12.07, 0.6 11.6 C0.4 11.13, 0.25 10.63, 0.15 10.14 C0.05 9.65, 0 9.14, 0 8.64 C0 8.14, 0.05 7.63, 0.15 7.14 C0.25 6.65, 0.4 6.16, 0.6 5.69 C0.79 5.22, 1.04 4.75, 1.32 4.32 C1.61 3.89, 1.94 3.47, 2.31 3.09 C2.68 2.7, 3.09 2.34, 3.53 2.02 C3.97 1.7, 4.44 1.41, 4.94 1.16 C5.43 0.91, 5.96 0.69, 6.5 0.52 C7.03 0.35, 7.6 0.22, 8.16 0.13 C8.72 0.04, 9.3 0, 9.88 0 C10.45 0, 11.03 0.04, 11.59 0.13 C12.15 0.22, 12.72 0.35, 13.25 0.52 C13.79 0.69, 14.32 0.91, 14.81 1.16 C15.31 1.41, 15.78 1.7, 16.22 2.02 C16.66 2.34, 17.07 2.7, 17.44 3.09 C17.81 3.47, 18.14 3.89, 18.43 4.32 C18.71 4.75, 18.96 5.22, 19.15 5.69 C19.35 6.16, 19.5 6.65, 19.6 7.14 C19.7 7.63, 19.73 8.39, 19.75 8.64 C19.78 8.89, 19.78 8.39, 19.75 8.64" stroke="#000000" stroke-width="2" fill="none"></path></g><g stroke-linecap="round"><g transform="translate(31.010578301818555 131.71738803087305) rotate(0 20.903001066267336 -18.613522148782124)" fill-rule="evenodd"><path d="M11.93 -33.36 C11.93 -33.36, 11.93 -33.36, 11.93 -33.36 M11.93 -33.36 C11.93 -33.36, 11.93 -33.36, 11.93 -33.36 M1.56 -9.24 C6.77 -15.23, 11.97 -21.22, 25.18 -36.41 M1.56 -9.24 C9.09 -17.91, 16.63 -26.57, 25.18 -36.41 M4.32 -0.22 C11.49 -8.47, 18.67 -16.72, 31.22 -31.16 M4.32 -0.22 C10.23 -7.03, 16.15 -13.83, 31.22 -31.16 M14.95 -0.26 C22.89 -9.39, 30.83 -18.52, 36.6 -25.16 M14.95 -0.26 C19.85 -5.9, 24.75 -11.54, 36.6 -25.16 M25.58 -0.29 C31.58 -7.2, 37.59 -14.11, 40.67 -17.65 M25.58 -0.29 C28.92 -4.14, 32.27 -7.98, 40.67 -17.65 M36.21 -0.32 C39.16 -3.72, 42.11 -7.11, 44.08 -9.38 M36.21 -0.32 C38.66 -3.14, 41.1 -5.95, 44.08 -9.38 M0 0 C0 0, 0 0, 0 0 M0 0 C0 0, 0 0, 0 0 M12.04 -0.13 C8.94 -2.83, 5.84 -5.53, 1.47 -9.32 M12.04 -0.13 C8.68 -3.06, 5.31 -5.98, 1.47 -9.32 M24.08 -0.27 C17.1 -6.33, 10.12 -12.4, 2.95 -18.64 M24.08 -0.27 C18.18 -5.39, 12.28 -10.52, 2.95 -18.64 M35.37 -1.06 C24.66 -10.36, 13.96 -19.66, 5.93 -26.64 M35.37 -1.06 C24.9 -10.15, 14.43 -19.25, 5.93 -26.64 M42.88 -5.12 C34.6 -12.33, 26.31 -19.53, 11.18 -32.68 M42.88 -5.12 C33.46 -13.31, 24.05 -21.5, 11.18 -32.68 M41.34 -17.07 C36.46 -21.31, 31.58 -25.55, 18.7 -36.75 M41.34 -17.07 C34.83 -22.73, 28.32 -28.38, 18.7 -36.75" stroke="#ced4da" stroke-width="1" fill="none"></path><path d="M0 0 C0.78 -4.11, 1.34 -18.46, 4.68 -24.67 C8.03 -30.87, 14.94 -36.78, 20.07 -37.23 C25.2 -37.68, 31.83 -33.14, 35.45 -27.36 C39.07 -21.58, 47.71 -7.12, 41.81 -2.56 C35.9 2, 6.97 -0.43, 0 0 M0 0 C0.78 -4.11, 1.34 -18.46, 4.68 -24.67 C8.03 -30.87, 14.94 -36.78, 20.07 -37.23 C25.2 -37.68, 31.83 -33.14, 35.45 -27.36 C39.07 -21.58, 47.71 -7.12, 41.81 -2.56 C35.9 2, 6.97 -0.43, 0 0" stroke="#000000" stroke-width="2" fill="none"></path></g></g><mask></mask><g stroke-linecap="round" transform="translate(41.49670045262849 75.14287671103602) rotate(0 10.702336545928858 9.364544477687787)"><path d="M2.43 3.43 C2.43 3.43, 2.43 3.43, 2.43 3.43 M2.43 3.43 C2.43 3.43, 2.43 3.43, 2.43 3.43 M2.56 15.48 C7.53 9.76, 12.5 4.04, 15.02 1.14 M2.56 15.48 C6.84 10.55, 11.12 5.63, 15.02 1.14 M10.57 18.46 C12.93 15.74, 15.29 13.02, 21.06 6.38 M10.57 18.46 C12.8 15.89, 15.03 13.33, 21.06 6.38 M4.02 16.71 C4.02 16.71, 4.02 16.71, 4.02 16.71 M4.02 16.71 C4.02 16.71, 4.02 16.71, 4.02 16.71 M16.82 17.23 C13.37 14.24, 9.93 11.25, 1.72 4.11 M16.82 17.23 C10.83 12.03, 4.85 6.83, 1.72 4.11 M21.31 10.54 C18.6 8.18, 15.88 5.82, 9.24 0.04 M21.31 10.54 C18.71 8.28, 16.11 6.02, 9.24 0.04" stroke="#ced4da" stroke-width="1" fill="none"></path><path d="M21.4 9.36 C21.4 9.91, 21.35 10.46, 21.24 10.99 C21.13 11.52, 20.97 12.06, 20.76 12.57 C20.55 13.08, 20.28 13.58, 19.97 14.05 C19.66 14.52, 19.3 14.97, 18.9 15.38 C18.5 15.8, 18.06 16.19, 17.58 16.54 C17.11 16.89, 16.59 17.2, 16.05 17.47 C15.52 17.75, 14.94 17.98, 14.36 18.16 C13.78 18.35, 13.17 18.49, 12.56 18.59 C11.95 18.68, 11.32 18.73, 10.7 18.73 C10.08 18.73, 9.45 18.68, 8.84 18.59 C8.23 18.49, 7.62 18.35, 7.04 18.16 C6.46 17.98, 5.89 17.75, 5.35 17.47 C4.81 17.2, 4.3 16.89, 3.82 16.54 C3.35 16.19, 2.9 15.8, 2.5 15.38 C2.11 14.97, 1.74 14.52, 1.43 14.05 C1.12 13.58, 0.86 13.08, 0.65 12.57 C0.43 12.06, 0.27 11.52, 0.16 10.99 C0.06 10.46, 0 9.91, 0 9.36 C0 8.82, 0.06 8.27, 0.16 7.74 C0.27 7.2, 0.43 6.67, 0.65 6.16 C0.86 5.65, 1.12 5.15, 1.43 4.68 C1.74 4.21, 2.11 3.76, 2.5 3.35 C2.9 2.93, 3.35 2.54, 3.82 2.19 C4.3 1.84, 4.81 1.53, 5.35 1.25 C5.89 0.98, 6.46 0.75, 7.04 0.56 C7.62 0.38, 8.23 0.24, 8.84 0.14 C9.45 0.05, 10.08 0, 10.7 0 C11.32 0, 11.95 0.05, 12.56 0.14 C13.17 0.24, 13.78 0.38, 14.36 0.56 C14.94 0.75, 15.52 0.98, 16.05 1.25 C16.59 1.53, 17.11 1.84, 17.58 2.19 C18.06 2.54, 18.5 2.93, 18.9 3.35 C19.3 3.76, 19.66 4.21, 19.97 4.68 C20.28 5.15, 20.55 5.65, 20.76 6.16 C20.97 6.67, 21.13 7.2, 21.24 7.74 C21.35 8.27, 21.38 9.09, 21.4 9.36 C21.43 9.64, 21.43 9.09, 21.4 9.36" stroke="#000000" stroke-width="2" fill="none"></path></g><g stroke-linecap="round"><g transform="translate(60.16191375626988 98.04832334582011) rotate(0 16.71865860152218 9.951582500906)" fill-rule="evenodd"><path d="M0 0 C0 0, 0 0, 0 0 M0 0 C0 0, 0 0, 0 0 M6.04 5.25 C8.73 2.15, 11.43 -0.95, 17.85 -8.34 M6.04 5.25 C10.72 -0.14, 15.4 -5.53, 17.85 -8.34 M10.11 12.76 C13.5 8.86, 16.9 4.95, 25.2 -4.6 M10.11 12.76 C13.36 9.02, 16.61 5.28, 25.2 -4.6 M14.18 20.27 C17.73 16.19, 21.28 12.11, 29.27 2.92 M14.18 20.27 C17.95 15.93, 21.73 11.58, 29.27 2.92 M17.59 28.54 C21.5 24.05, 25.4 19.55, 32.02 11.94 M17.59 28.54 C21.92 23.56, 26.25 18.58, 32.02 11.94 M29.53 27 C31.28 24.99, 33.02 22.98, 34.12 21.71 M29.53 27 C30.84 25.49, 32.16 23.98, 34.12 21.71 M14.43 27.6 C14.43 27.6, 14.43 27.6, 14.43 27.6 M14.43 27.6 C14.43 27.6, 14.43 27.6, 14.43 27.6 M26.47 27.47 C20.05 21.89, 13.63 16.31, 9.87 13.04 M26.47 27.47 C20.25 22.06, 14.02 16.65, 9.87 13.04 M33.23 22.75 C22.74 13.62, 12.24 4.5, 3.04 -3.5 M33.23 22.75 C25.64 16.15, 18.05 9.55, 3.04 -3.5 M31.68 10.8 C23.56 3.75, 15.45 -3.31, 9.8 -8.22 M31.68 10.8 C24.06 4.18, 16.44 -2.45, 9.8 -8.22" stroke="#ced4da" stroke-width="1" fill="none"></path><path d="M0 0 C0.86 -0.93, 3.58 -4.18, 5.17 -5.57 C6.77 -6.97, 7.56 -7.83, 9.55 -8.36 C11.54 -8.89, 14.99 -8.89, 17.12 -8.76 C19.24 -8.62, 20.83 -8.43, 22.29 -7.56 C23.75 -6.7, 24.88 -5.11, 25.87 -3.58 C26.87 -2.06, 27.47 -0.33, 28.26 1.59 C29.06 3.52, 29.92 5.84, 30.65 7.96 C31.38 10.08, 32.18 12.41, 32.64 14.33 C33.11 16.25, 33.44 17.78, 33.44 19.51 C33.44 21.23, 33.3 23.42, 32.64 24.68 C31.98 25.94, 30.72 26.47, 29.46 27.07 C28.2 27.67, 26.87 28, 25.08 28.26 C23.29 28.53, 20.43 28.73, 18.71 28.66 C16.98 28.59, 15.46 28.93, 14.73 27.86 C14 26.8, 14.66 23.82, 14.33 22.29 C14 20.77, 13.47 20.23, 12.74 18.71 C12.01 17.18, 11.08 15.33, 9.95 13.14 C8.82 10.95, 7.63 7.76, 5.97 5.57 C4.31 3.38, 1 0.93, 0 0 M0 0 C0.86 -0.93, 3.58 -4.18, 5.17 -5.57 C6.77 -6.97, 7.56 -7.83, 9.55 -8.36 C11.54 -8.89, 14.99 -8.89, 17.12 -8.76 C19.24 -8.62, 20.83 -8.43, 22.29 -7.56 C23.75 -6.7, 24.88 -5.11, 25.87 -3.58 C26.87 -2.06, 27.47 -0.33, 28.26 1.59 C29.06 3.52, 29.92 5.84, 30.65 7.96 C31.38 10.08, 32.18 12.41, 32.64 14.33 C33.11 16.25, 33.44 17.78, 33.44 19.51 C33.44 21.23, 33.3 23.42, 32.64 24.68 C31.98 25.94, 30.72 26.47, 29.46 27.07 C28.2 27.67, 26.87 28, 25.08 28.26 C23.29 28.53, 20.43 28.73, 18.71 28.66 C16.98 28.59, 15.46 28.93, 14.73 27.86 C14 26.8, 14.66 23.82, 14.33 22.29 C14 20.77, 13.47 20.23, 12.74 18.71 C12.01 17.18, 11.08 15.33, 9.95 13.14 C8.82 10.95, 7.63 7.76, 5.97 5.57 C4.31 3.38, 1 0.93, 0 0" stroke="#000000" stroke-width="2" fill="none"></path></g></g><mask></mask><g stroke-linecap="round"><g transform="translate(42.243127302935704 98.03644744241569) rotate(0 -16.121563651467852 11.941899001087336)" fill-rule="evenodd"><path d="M-24.42 -2.68 C-24.42 -2.68, -24.42 -2.68, -24.42 -2.68 M-24.42 -2.68 C-24.42 -2.68, -24.42 -2.68, -24.42 -2.68 M-31.51 17.66 C-27.25 12.76, -22.99 7.86, -10.51 -6.49 M-31.51 17.66 C-23.7 8.68, -15.9 -0.29, -10.51 -6.49 M-29.41 27.44 C-22.55 19.55, -15.7 11.67, -2.51 -3.51 M-29.41 27.44 C-23.11 20.2, -16.82 12.95, -2.51 -3.51 M-22.06 31.18 C-17.64 26.1, -13.23 21.02, -8.28 15.33 M-22.06 31.18 C-16.94 25.29, -11.83 19.41, -8.28 15.33 M-12.08 31.9 C-11.66 31.41, -11.24 30.92, -10.77 30.39 M-12.08 31.9 C-11.64 31.39, -11.2 30.88, -10.77 30.39 M-31.63 25.72 C-31.63 25.72, -31.63 25.72, -31.63 25.72 M-31.63 25.72 C-31.63 25.72, -31.63 25.72, -31.63 25.72 M-12.8 31.49 C-17.18 27.68, -21.56 23.87, -30.91 15.74 M-12.8 31.49 C-19.09 26.01, -25.39 20.54, -30.91 15.74 M-9.06 24.14 C-13.14 20.59, -17.22 17.04, -28.68 7.08 M-9.06 24.14 C-16.78 17.43, -24.5 10.72, -28.68 7.08 M-8.34 14.16 C-13.09 10.03, -17.83 5.91, -25.7 -0.93 M-8.34 14.16 C-11.86 11.1, -15.37 8.05, -25.7 -0.93 M-4.6 6.81 C-10.18 1.96, -15.77 -2.9, -20.45 -6.96 M-4.6 6.81 C-8.31 3.58, -12.03 0.35, -20.45 -6.96 M-0.1 0.12 C-2.56 -2.01, -5.01 -4.14, -9.16 -7.75 M-0.1 0.12 C-3.68 -2.99, -7.25 -6.1, -9.16 -7.75" stroke="#ced4da" stroke-width="1" fill="none"></path><path d="M0 0 C-0.66 -0.73, -2.59 -3.18, -3.98 -4.38 C-5.37 -5.57, -6.37 -6.63, -8.36 -7.17 C-10.35 -7.7, -13.8 -7.7, -15.92 -7.56 C-18.05 -7.43, -19.64 -7.23, -21.1 -6.37 C-22.56 -5.51, -23.68 -3.91, -24.68 -2.39 C-25.68 -0.86, -26.27 0.86, -27.07 2.79 C-27.86 4.71, -28.73 7.03, -29.46 9.16 C-30.19 11.28, -30.98 13.6, -31.45 15.52 C-31.91 17.45, -32.24 18.97, -32.24 20.7 C-32.24 22.42, -32.11 24.61, -31.45 25.87 C-30.78 27.13, -29.46 27.53, -28.26 28.26 C-27.07 28.99, -26.01 29.72, -24.28 30.25 C-22.56 30.78, -20.1 31.25, -17.91 31.45 C-15.72 31.65, -12.41 32.64, -11.15 31.45 C-9.89 30.25, -10.62 26.07, -10.35 24.28 C-10.08 22.49, -9.89 22.29, -9.55 20.7 C-9.22 19.11, -9.16 17.05, -8.36 14.73 C-7.56 12.41, -6.17 9.22, -4.78 6.77 C-3.38 4.31, -0.8 1.13, 0 0 M0 0 C-0.66 -0.73, -2.59 -3.18, -3.98 -4.38 C-5.37 -5.57, -6.37 -6.63, -8.36 -7.17 C-10.35 -7.7, -13.8 -7.7, -15.92 -7.56 C-18.05 -7.43, -19.64 -7.23, -21.1 -6.37 C-22.56 -5.51, -23.68 -3.91, -24.68 -2.39 C-25.68 -0.86, -26.27 0.86, -27.07 2.79 C-27.86 4.71, -28.73 7.03, -29.46 9.16 C-30.19 11.28, -30.98 13.6, -31.45 15.52 C-31.91 17.45, -32.24 18.97, -32.24 20.7 C-32.24 22.42, -32.11 24.61, -31.45 25.87 C-30.78 27.13, -29.46 27.53, -28.26 28.26 C-27.07 28.99, -26.01 29.72, -24.28 30.25 C-22.56 30.78, -20.1 31.25, -17.91 31.45 C-15.72 31.65, -12.41 32.64, -11.15 31.45 C-9.89 30.25, -10.62 26.07, -10.35 24.28 C-10.08 22.49, -9.89 22.29, -9.55 20.7 C-9.22 19.11, -9.16 17.05, -8.36 14.73 C-7.56 12.41, -6.17 9.22, -4.78 6.77 C-3.38 4.31, -0.8 1.13, 0 0" stroke="#000000" stroke-width="2" fill="none"></path></g></g><mask></mask><g stroke-linecap="round" transform="translate(508.83739003193284 27.066723266350095) rotate(0 37.55366633498829 70.1001771586445)"><path d="M0 0 C0 0, 0 0, 0 0 M0 0 C0 0, 0 0, 0 0 M0.13 12.04 C2.88 8.88, 5.62 5.72, 10.63 -0.03 M0.13 12.04 C3.56 8.1, 6.99 4.15, 10.63 -0.03 M0.27 24.08 C8.02 15.16, 15.78 6.24, 21.26 -0.07 M0.27 24.08 C8.63 14.46, 16.99 4.84, 21.26 -0.07 M-0.26 36.88 C10.53 24.47, 21.32 12.06, 31.89 -0.1 M-0.26 36.88 C11.1 23.81, 22.46 10.74, 31.89 -0.1 M-0.12 48.92 C12.98 33.85, 26.08 18.78, 42.52 -0.14 M-0.12 48.92 C16.34 29.98, 32.8 11.04, 42.52 -0.14 M0.01 60.96 C16.27 42.25, 32.54 23.54, 53.15 -0.17 M0.01 60.96 C19.98 37.98, 39.96 15.01, 53.15 -0.17 M0.14 73 C23.02 46.68, 45.9 20.36, 63.78 -0.21 M0.14 73 C16.42 54.28, 32.7 35.55, 63.78 -0.21 M0.28 85.04 C17.46 65.27, 34.65 45.5, 74.41 -0.24 M0.28 85.04 C28.55 52.52, 56.82 19.99, 74.41 -0.24 M-0.25 97.84 C26.58 66.98, 53.4 36.13, 75.2 11.04 M-0.25 97.84 C22.34 71.85, 44.93 45.87, 75.2 11.04 M-0.11 109.88 C27.23 78.42, 54.57 46.97, 75.33 23.09 M-0.11 109.88 C23.77 82.4, 47.65 54.93, 75.33 23.09 M0.02 121.92 C16.24 103.26, 32.46 84.6, 75.47 35.13 M0.02 121.92 C20.26 98.64, 40.49 75.36, 75.47 35.13 M0.15 133.96 C25.64 104.64, 51.13 75.32, 75.6 47.17 M0.15 133.96 C21.83 109.02, 43.51 84.08, 75.6 47.17 M5.53 139.96 C29.76 112.09, 53.99 84.22, 75.08 59.96 M5.53 139.96 C31.47 110.12, 57.41 80.29, 75.08 59.96 M16.16 139.93 C39.12 113.52, 62.08 87.11, 75.21 72 M16.16 139.93 C37.37 115.53, 58.58 91.14, 75.21 72 M26.79 139.89 C39.26 125.56, 51.72 111.22, 75.34 84.04 M26.79 139.89 C40.57 124.05, 54.34 108.2, 75.34 84.04 M37.42 139.86 C50.24 125.12, 63.05 110.38, 75.48 96.09 M37.42 139.86 C51 124.24, 64.58 108.62, 75.48 96.09 M47.4 140.58 C56.75 129.82, 66.1 119.06, 75.61 108.13 M47.4 140.58 C56.7 129.87, 66.01 119.17, 75.61 108.13 M58.03 140.54 C64.74 132.82, 71.45 125.1, 75.09 120.92 M58.03 140.54 C62.54 135.36, 67.05 130.17, 75.09 120.92 M68.66 140.51 C70.33 138.58, 72.01 136.66, 75.22 132.96 M68.66 140.51 C70.63 138.24, 72.6 135.98, 75.22 132.96 M0.02 140.21 C0.02 140.21, 0.02 140.21, 0.02 140.21 M0.02 140.21 C0.02 140.21, 0.02 140.21, 0.02 140.21 M12.06 140.08 C9.63 137.97, 7.21 135.87, -0.02 129.58 M12.06 140.08 C9.12 137.53, 6.19 134.98, -0.02 129.58 M24.1 139.95 C18.43 135.02, 12.77 130.1, -0.05 118.95 M24.1 139.95 C15.82 132.76, 7.55 125.57, -0.05 118.95 M36.89 140.47 C28.34 133.03, 19.78 125.59, -0.09 108.32 M36.89 140.47 C27.06 131.92, 17.22 123.37, -0.09 108.32 M48.93 140.34 C29.51 123.45, 10.08 106.56, -0.12 97.69 M48.93 140.34 C35.28 128.47, 21.63 116.6, -0.12 97.69 M60.97 140.2 C42.54 124.18, 24.11 108.16, -0.16 87.06 M60.97 140.2 C40.45 122.36, 19.92 104.52, -0.16 87.06 M73.02 140.07 C56.88 126.05, 40.75 112.02, -0.19 76.43 M73.02 140.07 C54.4 123.89, 35.78 107.7, -0.19 76.43 M75.24 131.41 C55.94 114.63, 36.64 97.85, -0.23 65.8 M75.24 131.41 C54.2 113.12, 33.16 94.82, -0.23 65.8 M75.21 120.78 C54.62 102.88, 34.03 84.98, -0.26 55.17 M75.21 120.78 C56.23 104.28, 37.25 87.78, -0.26 55.17 M75.93 110.8 C58.42 95.59, 40.92 80.37, -0.3 44.54 M75.93 110.8 C46.9 85.57, 17.87 60.33, -0.3 44.54 M75.9 100.17 C52.34 79.7, 28.78 59.22, -0.33 33.91 M75.9 100.17 C59.87 86.24, 43.84 72.31, -0.33 33.91 M75.86 89.54 C56.87 73.03, 37.87 56.52, -0.36 23.28 M75.86 89.54 C46.37 63.91, 16.88 38.27, -0.36 23.28 M75.83 78.91 C55.04 60.85, 34.26 42.78, 0.36 13.31 M75.83 78.91 C58.44 63.8, 41.05 48.69, 0.36 13.31 M75.79 68.28 C58.36 53.13, 40.93 37.98, 0.32 2.68 M75.79 68.28 C53.04 48.51, 30.29 28.73, 0.32 2.68 M75.76 57.65 C55.25 39.83, 34.74 22, 9.34 -0.08 M75.76 57.65 C51.12 36.24, 26.49 14.82, 9.34 -0.08 M75.72 47.02 C54.95 28.97, 34.18 10.91, 21.38 -0.21 M75.72 47.02 C54.62 28.68, 33.53 10.34, 21.38 -0.21 M75.69 36.39 C61.45 24.02, 47.22 11.64, 33.43 -0.35 M75.69 36.39 C65.1 27.19, 54.52 17.99, 33.43 -0.35 M75.65 25.76 C69.74 20.62, 63.82 15.48, 46.22 0.18 M75.65 25.76 C64.75 16.28, 53.84 6.8, 46.22 0.18 M75.62 15.13 C70.8 10.94, 65.98 6.75, 58.26 0.04 M75.62 15.13 C71.34 11.41, 67.05 7.69, 58.26 0.04 M75.59 4.5 C74.13 3.24, 72.67 1.97, 70.3 -0.09 M75.59 4.5 C74.37 3.44, 73.15 2.38, 70.3 -0.09" stroke="#ced4da" stroke-width="1" fill="none"></path><path d="M0 0 C23.39 0, 46.79 0, 75.11 0 M0 0 C22.39 0, 44.77 0, 75.11 0 M75.11 0 C75.11 44.97, 75.11 89.94, 75.11 140.2 M75.11 0 C75.11 43.21, 75.11 86.42, 75.11 140.2 M75.11 140.2 C47 140.2, 18.9 140.2, 0 140.2 M75.11 140.2 C45.23 140.2, 15.35 140.2, 0 140.2 M0 140.2 C0 109.94, 0 79.68, 0 0 M0 140.2 C0 102.67, 0 65.13, 0 0" stroke="#000000" stroke-width="2" fill="none"></path></g><g transform="translate(482.9087625579724 187.2023343036883) rotate(0 63.482293808946906 25.19138643212176)"><text x="0" y="0" font-family="Virgil, Segoe UI Emoji" font-size="40.30621829139484px" fill="#000000" text-anchor="start" style="white-space: pre;" direction="ltr" dominant-baseline="text-before-edge">Server</text></g><g stroke-linecap="round"><g transform="translate(517.8751673724042 42.57645664144076) rotate(0 28.791144190157524 2.2737367544323206e-13)"><path d="M0 0 C9.6 0, 47.99 0, 57.58 0 M0 0 C9.6 0, 47.99 0, 57.58 0" stroke="#000000" stroke-width="2" fill="none"></path></g></g><mask></mask><g stroke-linecap="round"><g transform="translate(517.5999121767617 55.48210019735245) rotate(0 28.791144190157524 2.2737367544323206e-13)"><path d="M0 0 C9.6 0, 47.99 0, 57.58 0 M0 0 C9.6 0, 47.99 0, 57.58 0" stroke="#000000" stroke-width="2" fill="none"></path></g></g><mask></mask><g stroke-linecap="round"><g transform="translate(517.5376686265771 68.38774375326602) rotate(0 28.791144190157524 2.2737367544323206e-13)"><path d="M0 0 C9.6 0, 47.99 0, 57.58 0 M0 0 C9.6 0, 47.99 0, 57.58 0" stroke="#000000" stroke-width="2" fill="none"></path></g></g><mask></mask><g stroke-linecap="round"><g transform="translate(517.5376686265771 81.29338730917812) rotate(0 28.791144190157524 2.2737367544323206e-13)"><path d="M0 0 C9.6 0, 47.99 0, 57.58 0 M0 0 C9.6 0, 47.99 0, 57.58 0" stroke="#000000" stroke-width="2" fill="none"></path></g></g><mask></mask><g stroke-linecap="round"><g transform="translate(96.85435591832265 85.07915831912442) rotate(0 164.4727518509797 6.150260182951229)"><path d="M0.39 -0.63 C54.93 1.49, 272.95 10.78, 327.91 12.91 M-0.86 1.65 C53.98 3.4, 274.93 9.16, 330.08 11.11" stroke="#1e1e1e" stroke-width="2" fill="none"></path></g><g transform="translate(96.85435591832265 85.07915831912442) rotate(0 164.4727518509797 6.150260182951229)"><path d="M306.34 18.95 C313.74 14.34, 324.27 15.27, 330.08 11.11 M306.34 18.95 C312.76 16.56, 320.49 14.59, 330.08 11.11" stroke="#1e1e1e" stroke-width="2" fill="none"></path></g><g transform="translate(96.85435591832265 85.07915831912442) rotate(0 164.4727518509797 6.150260182951229)"><path d="M306.85 1.85 C314.1 3.35, 324.45 10.37, 330.08 11.11 M306.85 1.85 C313.07 4.34, 320.66 7.24, 330.08 11.11" stroke="#1e1e1e" stroke-width="2" fill="none"></path></g></g><mask></mask><g stroke-linecap="round"><g transform="translate(586.8773685486177 102.79205928777287) rotate(0 118.46112346551968 -15.697775657727817)"><path d="M-0.13 -0.85 C39.28 -6.29, 197.23 -26.97, 236.9 -32.01 M-1.66 1.31 C37.55 -4.03, 196.05 -25.03, 235.94 -30.79" stroke="#1e1e1e" stroke-width="2" fill="none"></path></g><g transform="translate(586.8773685486177 102.79205928777287) rotate(0 118.46112346551968 -15.697775657727817)"><path d="M213.83 -19.12 C219.8 -23.06, 227.66 -25.32, 235.94 -30.79 M213.83 -19.12 C220.69 -23.18, 229.02 -25.99, 235.94 -30.79" stroke="#1e1e1e" stroke-width="2" fill="none"></path></g><g transform="translate(586.8773685486177 102.79205928777287) rotate(0 118.46112346551968 -15.697775657727817)"><path d="M211.5 -36.06 C218.35 -34.29, 226.99 -30.83, 235.94 -30.79 M211.5 -36.06 C219.27 -34.55, 228.37 -31.81, 235.94 -30.79" stroke="#1e1e1e" stroke-width="2" fill="none"></path></g></g><mask></mask><g stroke-linecap="round" transform="translate(827.1332336437196 48.66664123535156) rotate(0 37.3333740234375 17.333328247070312)"><path d="M8.67 0 C23.4 -1.84, 35.71 -0.47, 66 0 M8.67 0 C23.41 0.45, 40.3 0, 66 0 M66 0 C71.29 -0.29, 76.35 4.22, 74.67 8.67 M66 0 C72.77 -1.19, 76.65 1.68, 74.67 8.67 M74.67 8.67 C74.82 11.39, 74.57 18.39, 74.67 26 M74.67 8.67 C74.49 13.79, 75.28 17.97, 74.67 26 M74.67 26 C74.84 32.43, 72.04 32.75, 66 34.67 M74.67 26 C76.21 30.39, 73.56 33.81, 66 34.67 M66 34.67 C51.19 34.02, 40.07 34.32, 8.67 34.67 M66 34.67 C51.93 34.48, 39.29 35.65, 8.67 34.67 M8.67 34.67 C1.02 33.23, 0.72 32.83, 0 26 M8.67 34.67 C2.05 35.01, 2.29 32.08, 0 26 M0 26 C0.35 20.59, -0.53 17.57, 0 8.67 M0 26 C-0.36 19.91, 0.61 11.97, 0 8.67 M0 8.67 C-1.12 2.34, 2.61 0.16, 8.67 0 M0 8.67 C1.56 3.38, 1.36 1.26, 8.67 0" stroke="#1e1e1e" stroke-width="2" fill="none"></path></g><g stroke-linecap="round" transform="translate(881.1332336437196 54.66664123535156) rotate(0 6.66668701171875 11.666656494140625)"><path d="M0.39 1.66 C0.39 1.66, 0.39 1.66, 0.39 1.66 M0.39 1.66 C0.39 1.66, 0.39 1.66, 0.39 1.66 M0.52 13.71 C5.04 8.47, 8.75 3.76, 11.68 0.88 M0.52 13.71 C3.47 10.44, 6.32 6.73, 11.68 0.88 M2.63 23.48 C3.94 21.12, 7.47 19, 13.12 11.41 M2.63 23.48 C5.84 19.2, 9.54 15.94, 13.12 11.41 M2.19 23.4 C2.19 23.4, 2.19 23.4, 2.19 23.4 M2.19 23.4 C2.19 23.4, 2.19 23.4, 2.19 23.4 M12.72 21.95 C10.61 20.18, 6.19 16.74, 0.64 11.45 M12.72 21.95 C8.38 18.41, 3.74 13.75, 0.64 11.45 M13.44 11.98 C9.25 7.9, 4.23 3.87, 1.36 1.48 M13.44 11.98 C9.47 8.09, 4.58 4.67, 1.36 1.48" stroke="#228be6" stroke-width="1" fill="none"></path><path d="M3.33 0 C4.86 0.28, 6.04 0.21, 10 0 M3.33 0 C5.76 -0.07, 8.22 0.11, 10 0 M10 0 C11.9 -0.52, 13.21 2.07, 13.33 3.33 M10 0 C13.03 -0.61, 14.21 0.59, 13.33 3.33 M13.33 3.33 C13.4 10.4, 13.02 16.18, 13.33 20 M13.33 3.33 C13.58 7.5, 13.07 10.87, 13.33 20 M13.33 20 C13.54 21.41, 11.99 24.1, 10 23.33 M13.33 20 C13.68 22.07, 12.43 23.39, 10 23.33 M10 23.33 C7.3 23.47, 4.98 23.56, 3.33 23.33 M10 23.33 C8.28 23.23, 6.66 23.36, 3.33 23.33 M3.33 23.33 C1.08 22.62, -0.6 22, 0 20 M3.33 23.33 C0.3 24.17, 0.19 21.5, 0 20 M0 20 C0.7 14.26, 0.55 7.98, 0 3.33 M0 20 C0.31 14.17, 0.24 8.05, 0 3.33 M0 3.33 C0.72 0.37, 1.74 -0.11, 3.33 0 M0 3.33 C-0.99 0.98, 0.16 0.99, 3.33 0" stroke="#1e1e1e" stroke-width="2" fill="none"></path></g><g stroke-linecap="round" transform="translate(859.1331726085633 53.99995422363281) rotate(0 6.66668701171875 11.666656494140625)"><path d="M0.39 1.66 C0.39 1.66, 0.39 1.66, 0.39 1.66 M0.39 1.66 C0.39 1.66, 0.39 1.66, 0.39 1.66 M0.52 13.71 C3.97 9.33, 7.15 5.83, 11.68 0.88 M0.52 13.71 C2.78 10.79, 5.54 8.13, 11.68 0.88 M2.63 23.48 C5.73 20.13, 8.99 16.59, 13.12 11.41 M2.63 23.48 C6.51 18.93, 11.09 13.8, 13.12 11.41 M2.19 23.4 C2.19 23.4, 2.19 23.4, 2.19 23.4 M2.19 23.4 C2.19 23.4, 2.19 23.4, 2.19 23.4 M12.72 21.95 C8.43 18.08, 5.37 15.22, 0.64 11.45 M12.72 21.95 C9.43 18.93, 6.34 16.25, 0.64 11.45 M13.44 11.98 C8.37 7.9, 4.55 3.67, 1.36 1.48 M13.44 11.98 C10.96 10.02, 8.05 7.95, 1.36 1.48" stroke="#228be6" stroke-width="1" fill="none"></path><path d="M3.33 0 C4.73 0.16, 6.52 -0.25, 10 0 M3.33 0 C5.3 0.05, 7.3 0.05, 10 0 M10 0 C11.87 -0.58, 14.08 1.79, 13.33 3.33 M10 0 C11.92 -0.04, 12.77 1.83, 13.33 3.33 M13.33 3.33 C13.44 10.06, 13.87 15.22, 13.33 20 M13.33 3.33 C13.05 7.65, 13.63 11.97, 13.33 20 M13.33 20 C14.07 21.72, 11.54 22.92, 10 23.33 M13.33 20 C13.13 22.15, 11.45 23.86, 10 23.33 M10 23.33 C7.75 23.22, 5 23.36, 3.33 23.33 M10 23.33 C7.98 23.25, 5.73 23.44, 3.33 23.33 M3.33 23.33 C0.48 23.19, 0.35 21.78, 0 20 M3.33 23.33 C2 22.42, 0.68 21.7, 0 20 M0 20 C-0.63 15.47, 0.33 11.23, 0 3.33 M0 20 C0.21 15.86, 0.15 11.28, 0 3.33 M0 3.33 C0.49 0.44, 1.99 0.33, 3.33 0 M0 3.33 C-0.84 0.91, 0.15 -0.32, 3.33 0" stroke="#1e1e1e" stroke-width="2" fill="none"></path></g><g stroke-linecap="round" transform="translate(430.46636352653206 81.33331298828125) rotate(0 37.3333740234375 17.333328247070312)"><path d="M8.67 0 C18.5 2.23, 29.87 -1.23, 66 0 M8.67 0 C20.39 -0.17, 33.87 0.86, 66 0 M66 0 C73.48 -0.87, 73.85 3.11, 74.67 8.67 M66 0 C72.51 -0.84, 72.65 5.1, 74.67 8.67 M74.67 8.67 C73.45 16.7, 73.55 20.25, 74.67 26 M74.67 8.67 C73.99 13.74, 74.84 17.8, 74.67 26 M74.67 26 C74.74 30.94, 70.27 34.44, 66 34.67 M74.67 26 C76.05 29.72, 70.59 33.64, 66 34.67 M66 34.67 C45.4 32.85, 21.65 36.44, 8.67 34.67 M66 34.67 C53.32 34.49, 39.94 35.99, 8.67 34.67 M8.67 34.67 C4.1 32.86, -1.25 30.05, 0 26 M8.67 34.67 C3.2 34.52, -0.3 31.79, 0 26 M0 26 C-0.79 21.98, 0.17 15.19, 0 8.67 M0 26 C-0.19 20.52, 0.03 14.3, 0 8.67 M0 8.67 C0.97 4.2, 2.01 -1.41, 8.67 0 M0 8.67 C-0.95 2.93, 1.63 0.5, 8.67 0" stroke="#1e1e1e" stroke-width="2" fill="none"></path></g><g stroke-linecap="round" transform="translate(484.46636352653206 87.33331298828125) rotate(0 6.66668701171875 11.666656494140625)"><path d="M0.39 1.66 C0.39 1.66, 0.39 1.66, 0.39 1.66 M0.39 1.66 C0.39 1.66, 0.39 1.66, 0.39 1.66 M0.52 13.71 C3.62 9.4, 7.35 5.69, 11.68 0.88 M0.52 13.71 C3.29 10.36, 6.42 6.75, 11.68 0.88 M2.63 23.48 C6.79 19.92, 9.92 14.7, 13.12 11.41 M2.63 23.48 C5.77 20.61, 8.28 17.31, 13.12 11.41 M2.19 23.4 C2.19 23.4, 2.19 23.4, 2.19 23.4 M2.19 23.4 C2.19 23.4, 2.19 23.4, 2.19 23.4 M12.72 21.95 C8.74 19.63, 5.86 15.19, 0.64 11.45 M12.72 21.95 C9.25 19.1, 5.63 16.27, 0.64 11.45 M13.44 11.98 C10.28 10.05, 7.69 6.86, 1.36 1.48 M13.44 11.98 C10.83 9.5, 8.44 7.36, 1.36 1.48" stroke="#228be6" stroke-width="1" fill="none"></path><path d="M3.33 0 C4.38 -0.33, 5.76 -0.23, 10 0 M3.33 0 C5.15 0.13, 7.18 -0.06, 10 0 M10 0 C11.82 0.11, 13.65 0.75, 13.33 3.33 M10 0 C11.21 1.11, 14.15 1.87, 13.33 3.33 M13.33 3.33 C12.68 6.38, 13.07 10.19, 13.33 20 M13.33 3.33 C13.41 8.25, 13.29 13.41, 13.33 20 M13.33 20 C12.58 22.11, 12.82 22.44, 10 23.33 M13.33 20 C12.74 21.71, 13.17 22.61, 10 23.33 M10 23.33 C7.99 23.61, 5.92 23.47, 3.33 23.33 M10 23.33 C7.7 23.48, 5.34 23.17, 3.33 23.33 M3.33 23.33 C0.49 22.47, 0.14 22.16, 0 20 M3.33 23.33 C0.96 23.34, 0.04 21.9, 0 20 M0 20 C0.1 15.91, 0.45 12.28, 0 3.33 M0 20 C0.04 14.34, 0.22 8.57, 0 3.33 M0 3.33 C-0.44 0.4, 0.7 0.02, 3.33 0 M0 3.33 C-0.63 1.36, 0.49 -0.92, 3.33 0" stroke="#1e1e1e" stroke-width="2" fill="none"></path></g><g stroke-linecap="round" transform="translate(462.4663024913758 86.6666259765625) rotate(0 6.66668701171875 11.666656494140625)"><path d="M0.39 1.66 C0.39 1.66, 0.39 1.66, 0.39 1.66 M0.39 1.66 C0.39 1.66, 0.39 1.66, 0.39 1.66 M0.52 13.71 C3.78 9.92, 7.85 5.86, 11.68 0.88 M0.52 13.71 C3.27 10.44, 6.46 6.96, 11.68 0.88 M2.63 23.48 C4.96 20.26, 7.24 17.1, 13.12 11.41 M2.63 23.48 C5.24 20.63, 7.87 17.38, 13.12 11.41 M2.19 23.4 C2.19 23.4, 2.19 23.4, 2.19 23.4 M2.19 23.4 C2.19 23.4, 2.19 23.4, 2.19 23.4 M12.72 21.95 C9.36 18.29, 5.37 15.47, 0.64 11.45 M12.72 21.95 C8.5 18.77, 4.15 14.7, 0.64 11.45 M13.44 11.98 C9.34 8.31, 5.18 5.47, 1.36 1.48 M13.44 11.98 C9.52 8.23, 4.87 4.38, 1.36 1.48" stroke="#228be6" stroke-width="1" fill="none"></path><path d="M3.33 0 C5.63 -0.17, 8.37 -0.3, 10 0 M3.33 0 C5.28 -0.1, 6.87 -0.01, 10 0 M10 0 C12.54 -0.36, 12.46 2.07, 13.33 3.33 M10 0 C13.04 0.76, 12.41 0.22, 13.33 3.33 M13.33 3.33 C13.08 9.4, 13.34 15.85, 13.33 20 M13.33 3.33 C13.38 8.7, 13.05 14.38, 13.33 20 M13.33 20 C13.93 21.33, 11.71 22.89, 10 23.33 M13.33 20 C14.28 21.5, 12.1 24.1, 10 23.33 M10 23.33 C8.36 23.53, 7.36 23.57, 3.33 23.33 M10 23.33 C8.44 23.22, 6.57 23.22, 3.33 23.33 M3.33 23.33 C1.25 23.27, -0.13 22.23, 0 20 M3.33 23.33 C1.15 23.01, -0.73 21.67, 0 20 M0 20 C0.41 13.97, 0.42 7.48, 0 3.33 M0 20 C0.2 14.17, -0.19 7.5, 0 3.33 M0 3.33 C-0.41 1.13, 0.57 0.22, 3.33 0 M0 3.33 C-0.62 0.19, 1.27 0.45, 3.33 0" stroke="#1e1e1e" stroke-width="2" fill="none"></path></g><g stroke-linecap="round" transform="translate(908.9664855968446 216.9998779296875) rotate(0 59.6666259765625 59.66670227050781)"><path d="M7.28 7.66 C7.28 7.66, 7.28 7.66, 7.28 7.66 M7.28 7.66 C7.28 7.66, 7.28 7.66, 7.28 7.66 M0.2 28 C9.01 19.43, 14.09 10.28, 23.82 0.83 M0.2 28 C8.27 19.13, 14.82 10.12, 23.82 0.83 M0.99 39.29 C12.62 24.58, 21.39 12.73, 35.11 0.04 M0.99 39.29 C10.9 28.95, 20.38 18.45, 35.11 0.04 M0.47 52.08 C15.71 37.31, 29.25 19.52, 45.74 0.01 M0.47 52.08 C16.35 32.97, 33.61 15.02, 45.74 0.01 M0.6 64.12 C21.07 45.19, 39.49 23.07, 56.37 -0.03 M0.6 64.12 C19.4 44.09, 37.58 21.65, 56.37 -0.03 M0.73 76.16 C17.16 58.3, 31.13 41.72, 67 -0.06 M0.73 76.16 C25.99 48.19, 50.38 19.32, 67 -0.06 M0.87 88.2 C26.81 58.96, 55.5 25.82, 76.97 0.66 M0.87 88.2 C23.23 62.8, 44.63 37.44, 76.97 0.66 M1.66 99.49 C35.22 59.21, 70.43 23.6, 87.6 0.62 M1.66 99.49 C28.23 69.4, 54.59 36.6, 87.6 0.62 M4.41 108.51 C34.45 72.4, 65.04 35.9, 97.57 1.34 M4.41 108.51 C25.65 83.86, 46.44 59.48, 97.57 1.34 M10.45 113.76 C45.47 70.44, 81.85 32.23, 106.24 3.57 M10.45 113.76 C43.25 75.52, 76.62 37.03, 106.24 3.57 M17.8 117.5 C46.91 86.61, 71.07 57.36, 112.27 8.82 M17.8 117.5 C43.62 86.05, 72.62 52.91, 112.27 8.82 M27.12 118.98 C55.4 88.18, 84.42 53.66, 117 15.58 M27.12 118.98 C59.46 80.31, 93.34 44.19, 117 15.58 M37.75 118.94 C63.18 88.67, 89.85 60.68, 119.1 25.36 M37.75 118.94 C61.87 92.92, 84.24 66.38, 119.1 25.36 M48.38 118.91 C70.52 89.72, 96.13 65.03, 119.89 36.64 M48.38 118.91 C63.25 101.76, 79.55 83.83, 119.89 36.64 M58.35 119.63 C76.03 100.48, 91.72 82.73, 120.02 48.68 M58.35 119.63 C75.44 99.58, 92.08 80.72, 120.02 48.68 M68.98 119.59 C88.99 94.9, 109.81 74.83, 119.5 61.48 M68.98 119.59 C86.01 99.11, 103.67 79.75, 119.5 61.48 M79.61 119.56 C94.82 102.32, 110.84 82.52, 119.63 73.52 M79.61 119.56 C95.31 102.39, 110 83.17, 119.63 73.52 M90.24 119.52 C103.09 107.91, 112.89 95.09, 119.77 85.56 M90.24 119.52 C98.23 108.89, 107.91 99.67, 119.77 85.56 M102.84 117.22 C106.55 111.62, 112.95 108.36, 118.59 99.11 M102.84 117.22 C108.37 109.95, 115.96 103.81, 118.59 99.11" stroke="#fab005" stroke-width="1" fill="none"></path><path d="M29.83 0 C44.25 -0.25, 59.89 0.37, 89.5 0 M29.83 0 C54.01 0.88, 77.89 1.5, 89.5 0 M89.5 0 C107.88 1.86, 120.21 10.5, 119.33 29.83 M89.5 0 C110.49 -1.91, 119.09 10.31, 119.33 29.83 M119.33 29.83 C118.7 48.69, 120.83 67.07, 119.33 89.5 M119.33 29.83 C120.71 44.99, 119.22 58.99, 119.33 89.5 M119.33 89.5 C119.48 108.67, 109.24 119.13, 89.5 119.33 M119.33 89.5 C118.99 107.77, 108.77 121.21, 89.5 119.33 M89.5 119.33 C75.47 120.75, 64.39 119.07, 29.83 119.33 M89.5 119.33 C76.05 118.92, 61.08 120.49, 29.83 119.33 M29.83 119.33 C8.12 120.21, -0.39 108.17, 0 89.5 M29.83 119.33 C10.38 117.73, -0.52 110.03, 0 89.5 M0 89.5 C-0.57 66.92, 0.57 42.88, 0 29.83 M0 89.5 C0.82 67, -0.12 44.8, 0 29.83 M0 29.83 C0.36 11.74, 8.29 1.3, 29.83 0 M0 29.83 C-1.79 12.16, 9.58 -0.53, 29.83 0" stroke="#1e1e1e" stroke-width="2" fill="none"></path></g><g transform="translate(953.5631195079774 264.1665802001953) rotate(0 15.069992065429688 12.5)"><text x="15.069992065429688" y="0" font-family="Virgil, Segoe UI Emoji" font-size="20px" fill="#1e1e1e" text-anchor="middle" style="white-space: pre;" direction="ltr" dominant-baseline="text-before-edge">DB</text></g><g stroke-linecap="round" transform="translate(828.6333557140321 258.3332061767578) rotate(0 37.3333740234375 17.333328247070312)"><path d="M8.67 0 C27.74 0.11, 41 0.47, 66 0 M8.67 0 C27.04 0.39, 47.36 -0.27, 66 0 M66 0 C72.73 -1.66, 74.46 3.2, 74.67 8.67 M66 0 C71.81 0.79, 74.09 1.92, 74.67 8.67 M74.67 8.67 C73.82 16.28, 73.36 22, 74.67 26 M74.67 8.67 C74.61 14.53, 74.48 20.93, 74.67 26 M74.67 26 C74.37 30.37, 71.24 36.3, 66 34.67 M74.67 26 C72.75 31.92, 72.46 33.38, 66 34.67 M66 34.67 C44.07 35.37, 25.59 36.4, 8.67 34.67 M66 34.67 C52.13 35.58, 39.88 34.54, 8.67 34.67 M8.67 34.67 C3.27 33.27, -0.45 32.33, 0 26 M8.67 34.67 C4.64 32.61, 1.91 30.51, 0 26 M0 26 C1.34 19.91, -1.55 16.65, 0 8.67 M0 26 C0.24 21.52, -0.64 16.05, 0 8.67 M0 8.67 C-1.55 4.82, 2.57 -0.46, 8.67 0 M0 8.67 C0.32 2.25, 2.05 0.97, 8.67 0" stroke="#1e1e1e" stroke-width="2" fill="none"></path></g><g stroke-linecap="round" transform="translate(882.6333557140321 264.3332061767578) rotate(0 6.66668701171875 11.666656494140625)"><path d="M0.39 1.66 C0.39 1.66, 0.39 1.66, 0.39 1.66 M0.39 1.66 C0.39 1.66, 0.39 1.66, 0.39 1.66 M0.52 13.71 C3.71 10.8, 6.68 7.18, 11.68 0.88 M0.52 13.71 C3.49 10.58, 6.59 6.51, 11.68 0.88 M2.63 23.48 C4.9 20.15, 8.06 17.86, 13.12 11.41 M2.63 23.48 C6.5 18.34, 10.92 14.32, 13.12 11.41 M2.19 23.4 C2.19 23.4, 2.19 23.4, 2.19 23.4 M2.19 23.4 C2.19 23.4, 2.19 23.4, 2.19 23.4 M12.72 21.95 C7.82 17.68, 3.83 15.04, 0.64 11.45 M12.72 21.95 C9.45 18.9, 6.52 16.3, 0.64 11.45 M13.44 11.98 C9.63 10.04, 7.38 7.08, 1.36 1.48 M13.44 11.98 C9.73 8.11, 5.23 5.26, 1.36 1.48" stroke="#228be6" stroke-width="1" fill="none"></path><path d="M3.33 0 C5.22 0.1, 7.83 0.11, 10 0 M3.33 0 C6.04 0.02, 8.68 -0.17, 10 0 M10 0 C12.12 0.16, 13.35 1.46, 13.33 3.33 M10 0 C11.94 -0.48, 13.84 1.86, 13.33 3.33 M13.33 3.33 C12.61 10.08, 13.76 14.91, 13.33 20 M13.33 3.33 C13.31 8.23, 13.28 12.92, 13.33 20 M13.33 20 C13.06 23.04, 11.39 23.4, 10 23.33 M13.33 20 C13.68 21.58, 12.93 23.75, 10 23.33 M10 23.33 C8.33 23.66, 6.05 23.46, 3.33 23.33 M10 23.33 C7.41 23.25, 4.92 23.23, 3.33 23.33 M3.33 23.33 C0.89 23.61, 0.76 21.33, 0 20 M3.33 23.33 C2.06 22.7, -0.08 22.24, 0 20 M0 20 C-0.81 16.83, -0.04 12.48, 0 3.33 M0 20 C-0.36 14.67, -0.34 9.21, 0 3.33 M0 3.33 C-0.16 0.88, 1.25 -0.28, 3.33 0 M0 3.33 C-0.42 1.59, 0.04 0.66, 3.33 0" stroke="#1e1e1e" stroke-width="2" fill="none"></path></g><g stroke-linecap="round" transform="translate(860.6332946788758 263.66651916503906) rotate(0 6.66668701171875 11.666656494140625)"><path d="M0.39 1.66 C0.39 1.66, 0.39 1.66, 0.39 1.66 M0.39 1.66 C0.39 1.66, 0.39 1.66, 0.39 1.66 M0.52 13.71 C4.6 9.5, 7.31 5.12, 11.68 0.88 M0.52 13.71 C4.24 9.16, 7.35 5.21, 11.68 0.88 M2.63 23.48 C5.97 20.26, 9.04 17.05, 13.12 11.41 M2.63 23.48 C6.12 19.95, 9.3 15.85, 13.12 11.41 M2.19 23.4 C2.19 23.4, 2.19 23.4, 2.19 23.4 M2.19 23.4 C2.19 23.4, 2.19 23.4, 2.19 23.4 M12.72 21.95 C8.69 19.16, 4.45 14.75, 0.64 11.45 M12.72 21.95 C10.05 19.37, 6.92 17.16, 0.64 11.45 M13.44 11.98 C9.28 8.69, 4.89 4.13, 1.36 1.48 M13.44 11.98 C8.94 8.44, 4.88 4.33, 1.36 1.48" stroke="#228be6" stroke-width="1" fill="none"></path><path d="M3.33 0 C5.54 0.1, 7.83 -0.26, 10 0 M3.33 0 C6.03 -0.15, 8.56 0.02, 10 0 M10 0 C12.23 0.34, 13.08 0.69, 13.33 3.33 M10 0 C12.73 0.74, 14.07 0.47, 13.33 3.33 M13.33 3.33 C13.73 9.35, 13.23 16.56, 13.33 20 M13.33 3.33 C13.27 7.44, 13.21 12.47, 13.33 20 M13.33 20 C12.5 22.28, 12.52 22.78, 10 23.33 M13.33 20 C14.04 22.64, 11.97 22.66, 10 23.33 M10 23.33 C7.48 23.48, 5.73 23.06, 3.33 23.33 M10 23.33 C7.74 23.2, 5.38 23.36, 3.33 23.33 M3.33 23.33 C1.87 22.44, 0.83 21.67, 0 20 M3.33 23.33 C1.04 23.36, -0.99 23.11, 0 20 M0 20 C0.1 15.58, 0.37 12.09, 0 3.33 M0 20 C-0.25 13.9, 0 6.91, 0 3.33 M0 3.33 C0.14 0.83, 0.74 0.42, 3.33 0 M0 3.33 C-1.07 1.77, 0.23 0.23, 3.33 0" stroke="#1e1e1e" stroke-width="2" fill="none"></path></g><g transform="translate(849.1332336437196 349.9999542236328) rotate(0 59.339942932128906 12.5)"><text x="0" y="0" font-family="Virgil, Segoe UI Emoji" font-size="20px" fill="#1e1e1e" text-anchor="start" style="white-space: pre;" direction="ltr" dominant-baseline="text-before-edge">Slow queries</text></g><g stroke-linecap="round"><g transform="translate(586.2106205017427 96.13204322598745) rotate(0 118.12793254755093 85.01255244983781)"><path d="M-0.09 0.28 C39.12 28.67, 196.52 141.07, 235.77 169.24 M-1.6 -0.62 C37.37 28.01, 194.66 141.9, 234.56 170.36" stroke="#1e1e1e" stroke-width="2" fill="none"></path></g><g transform="translate(586.2106205017427 96.13204322598745) rotate(0 118.12793254755093 85.01255244983781)"><path d="M210.5 163.58 C219.06 165.09, 225.45 166.76, 234.56 170.36 M210.5 163.58 C217.23 165.08, 222.03 167.63, 234.56 170.36" stroke="#1e1e1e" stroke-width="2" fill="none"></path></g><g transform="translate(586.2106205017427 96.13204322598745) rotate(0 118.12793254755093 85.01255244983781)"><path d="M220.49 149.7 C225.53 155.91, 228.53 162.29, 234.56 170.36 M220.49 149.7 C225 154.51, 227.43 160.35, 234.56 170.36" stroke="#1e1e1e" stroke-width="2" fill="none"></path></g></g><mask></mask></svg>