<svg version="1.1" xmlns="http://www.w3.org/2000/svg" viewBox="0 0 929.4663635265321 573.9184964501586" width="929.4663635265321" height="573.9184964501586" filter="invert(93%) hue-rotate(180deg)">
  <!-- svg-source:excalidraw -->
  
  <defs>
    <style class="style-fonts">
      @font-face {
        font-family: "Virgil";
        src: url("https://excalidraw.com/Virgil.woff2");
      }
      @font-face {
        font-family: "Cascadia";
        src: url("https://excalidraw.com/Cascadia.woff2");
      }
      @font-face {
        font-family: "Assistant";
        src: url("https://excalidraw.com/Assistant-Regular.woff2");
      }
    </style>
    
  </defs>
  <g stroke-linecap="round" transform="translate(769.4663635265321 248.66676330566406) rotate(0 75 80.00001525878906)"><path d="M7.86 8.16 C7.86 8.16, 7.86 8.16, 7.86 8.16 M7.86 8.16 C7.86 8.16, 7.86 8.16, 7.86 8.16 M1.43 27.75 C8.12 21.22, 15.94 12.42, 24.4 1.33 M1.43 27.75 C7.55 20.74, 13.19 15.44, 24.4 1.33 M0.91 40.54 C10.94 29.14, 17.4 21.9, 36.34 -0.21 M0.91 40.54 C10.27 29.77, 19.21 19.92, 36.34 -0.21 M1.04 52.58 C16.81 35.82, 33.96 15.09, 46.31 0.51 M1.04 52.58 C19.57 30.83, 37.61 11.52, 46.31 0.51 M1.18 64.62 C14.01 51.22, 24.69 37.56, 56.94 0.47 M1.18 64.62 C11.84 51.55, 23.27 38.09, 56.94 0.47 M0.65 77.42 C22.58 53.81, 43.35 28.18, 67.57 0.44 M0.65 77.42 C20.09 54.31, 40.16 33.18, 67.57 0.44 M0.79 89.46 C30.76 55.31, 58.42 24.39, 78.2 0.41 M0.79 89.46 C23.7 62.04, 47.18 36.78, 78.2 0.41 M0.92 101.5 C24.56 74.8, 48.42 48.43, 88.83 0.37 M0.92 101.5 C20.86 77.15, 42.01 54.43, 88.83 0.37 M0.4 114.3 C36.37 72.29, 75.36 29.72, 99.46 0.34 M0.4 114.3 C29.97 79.42, 60.38 45.51, 99.46 0.34 M0.53 126.34 C31.25 91.77, 61.83 58.28, 110.09 0.3 M0.53 126.34 C26.49 94.82, 52.26 63.95, 110.09 0.3 M1.32 137.62 C39.82 92.09, 79.6 46.23, 120.72 0.27 M1.32 137.62 C34.32 98.53, 67.59 60.85, 120.72 0.27 M4.08 146.65 C49.3 91.19, 97.39 38.48, 130.04 1.74 M4.08 146.65 C45.23 100.32, 86.62 53.61, 130.04 1.74 M9.46 152.65 C46.15 115.54, 78.8 75.07, 138.05 4.73 M9.46 152.65 C49.86 103.27, 91.35 56.61, 138.05 4.73 M16.15 157.14 C42.41 127.23, 68.29 95.55, 143.43 10.73 M16.15 157.14 C44.25 123.58, 74.9 88.42, 143.43 10.73 M24.82 159.37 C62.19 119.58, 93.15 80.15, 148.15 17.49 M24.82 159.37 C73.52 104.2, 122.34 47.17, 148.15 17.49 M34.79 160.09 C80.67 109.58, 123.11 55.38, 149.6 28.02 M34.79 160.09 C67.46 121.4, 101.55 81.42, 149.6 28.02 M45.42 160.06 C86.7 112.75, 124.75 69.44, 150.39 39.3 M45.42 160.06 C79.42 120.64, 115.16 79.41, 150.39 39.3 M56.05 160.02 C88.25 120.63, 121.3 82.25, 149.87 52.1 M56.05 160.02 C92.52 119.81, 128.92 77.23, 149.87 52.1 M66.68 159.99 C89.08 137.72, 109.32 114.14, 150 64.14 M66.68 159.99 C82.32 141.19, 100.33 122.09, 150 64.14 M77.31 159.96 C100.49 133.97, 121.37 108.42, 150.13 76.18 M77.31 159.96 C102.66 131.41, 127.33 103.85, 150.13 76.18 M87.94 159.92 C103.64 142.11, 121.76 121.85, 150.27 88.22 M87.94 159.92 C109.52 133.7, 131.93 109.04, 150.27 88.22 M98.57 159.89 C110.59 144.65, 123.37 132.49, 149.74 101.02 M98.57 159.89 C116.12 139.42, 135.13 118.38, 149.74 101.02 M109.2 159.85 C122.66 147.68, 134.25 131.21, 149.88 113.06 M109.2 159.85 C123.99 140.76, 139.43 122.3, 149.88 113.06 M119.83 159.82 C129.17 148.34, 141.1 136.38, 150.01 125.1 M119.83 159.82 C131.86 146.49, 143.17 133.03, 150.01 125.1 M131.77 158.27 C136.61 152.29, 143.98 144.24, 148.83 138.65 M131.77 158.27 C137.09 150.65, 144.6 143.28, 148.83 138.65" stroke="#fab005" stroke-width="1" fill="none"></path><path d="M32 0 C53.65 -2.38, 74.49 -0.59, 118 0 M32 0 C52.95 -1.69, 75.15 -1.36, 118 0 M118 0 C137.92 1.94, 150.99 12.59, 150 32 M118 0 C138.08 1.49, 149.03 10, 150 32 M150 32 C149.58 51.22, 149.02 72.62, 150 128 M150 32 C148.8 66.59, 149.02 100.72, 150 128 M150 128 C151.34 150.86, 140.67 158.43, 118 160 M150 128 C148.34 147.81, 137.61 158.23, 118 160 M118 160 C100.38 159.03, 80.64 158.32, 32 160 M118 160 C88.87 160.46, 60 161.47, 32 160 M32 160 C8.9 160.66, -0.02 147.64, 0 128 M32 160 C12.26 159.62, -0.84 148.44, 0 128 M0 128 C1.55 101.92, -2.05 73.11, 0 32 M0 128 C-1 98.16, -0.84 69.39, 0 32 M0 32 C-1.71 11.9, 11.02 0.07, 32 0 M0 32 C0.14 9.06, 8.76 -1.25, 32 0" stroke="#1e1e1e" stroke-width="2" fill="none"></path></g><g transform="translate(829.3963714611024 316.1667785644531) rotate(0 15.069992065429688 12.5)"><text x="15.069992065429688" y="0" font-family="Virgil, Segoe UI Emoji" font-size="20px" fill="#1e1e1e" text-anchor="middle" style="white-space: pre;" direction="ltr" dominant-baseline="text-before-edge">DB</text></g><g stroke-linecap="round" transform="translate(447.8255188176578 98.39266887672841) rotate(0 21.73410220016592 40.57032410697619)"><path d="M0 0 C0 0, 0 0, 0 0 M0 0 C0 0, 0 0, 0 0 M0.13 12.04 C2.87 8.9, 5.6 5.75, 10.63 -0.03 M0.13 12.04 C2.8 8.97, 5.47 5.9, 10.63 -0.03 M0.27 24.08 C8.63 14.45, 17 4.83, 21.26 -0.07 M0.27 24.08 C6.9 16.46, 13.52 8.83, 21.26 -0.07 M-0.26 36.88 C6.62 28.97, 13.49 21.06, 31.89 -0.1 M-0.26 36.88 C10.46 24.55, 21.18 12.22, 31.89 -0.1 M-0.12 48.92 C12.72 34.14, 25.56 19.37, 42.52 -0.14 M-0.12 48.92 C12.31 34.62, 24.74 20.32, 42.52 -0.14 M0.01 60.96 C11.05 48.26, 22.08 35.56, 43.31 11.15 M0.01 60.96 C14.48 44.31, 28.95 27.66, 43.31 11.15 M0.14 73 C8.81 63.03, 17.47 53.07, 43.44 23.19 M0.14 73 C14.63 56.33, 29.12 39.67, 43.44 23.19 M3.56 81.27 C16.51 66.37, 29.46 51.47, 43.58 35.23 M3.56 81.27 C14.08 69.16, 24.6 57.06, 43.58 35.23 M13.53 81.99 C19.74 74.85, 25.94 67.71, 43.71 47.27 M13.53 81.99 C24.27 69.63, 35.01 57.28, 43.71 47.27 M24.16 81.95 C31.06 74.01, 37.96 66.07, 43.84 59.31 M24.16 81.95 C29.77 75.5, 35.37 69.05, 43.84 59.31 M34.79 81.92 C37.51 78.79, 40.23 75.66, 43.32 72.11 M34.79 81.92 C37.56 78.73, 40.34 75.54, 43.32 72.11 M-0.18 80.99 C-0.18 80.99, -0.18 80.99, -0.18 80.99 M-0.18 80.99 C-0.18 80.99, -0.18 80.99, -0.18 80.99 M11.86 80.85 C9.07 78.42, 6.27 75.99, -0.21 70.36 M11.86 80.85 C8.58 78, 5.29 75.14, -0.21 70.36 M24.66 81.38 C15.79 73.67, 6.93 65.96, -0.24 59.73 M24.66 81.38 C18.02 75.6, 11.38 69.83, -0.24 59.73 M36.7 81.24 C24.65 70.77, 12.59 60.29, -0.28 49.1 M36.7 81.24 C26.14 72.06, 15.57 62.88, -0.28 49.1 M43.46 76.52 C28.19 63.25, 12.93 49.98, -0.31 38.47 M43.46 76.52 C27.95 63.04, 12.44 49.56, -0.31 38.47 M43.42 65.89 C31.39 55.43, 19.37 44.97, -0.35 27.84 M43.42 65.89 C29.69 53.95, 15.96 42.01, -0.35 27.84 M44.15 55.91 C29.74 43.4, 15.34 30.88, 0.37 17.86 M44.15 55.91 C27.06 41.06, 9.97 26.21, 0.37 17.86 M44.11 45.28 C33.53 36.08, 22.94 26.88, 0.34 7.23 M44.11 45.28 C28.18 31.43, 12.24 17.58, 0.34 7.23 M44.08 34.65 C28.57 21.17, 13.06 7.69, 3.32 -0.77 M44.08 34.65 C30.33 22.71, 16.59 10.76, 3.32 -0.77 M44.04 24.02 C36.2 17.2, 28.35 10.38, 16.12 -0.25 M44.04 24.02 C35.57 16.66, 27.1 9.29, 16.12 -0.25 M44.01 13.39 C38.02 8.19, 32.03 2.98, 28.16 -0.38 M44.01 13.39 C38.99 9.04, 33.98 4.68, 28.16 -0.38 M43.97 2.76 C42.7 1.66, 41.43 0.55, 40.2 -0.52 M43.97 2.76 C43 1.92, 42.02 1.07, 40.2 -0.52" stroke="#ced4da" stroke-width="1" fill="none"></path><path d="M0 0 C14.09 0, 28.17 0, 43.47 0 M0 0 C16.38 0, 32.75 0, 43.47 0 M43.47 0 C43.47 16.96, 43.47 33.93, 43.47 81.14 M43.47 0 C43.47 19.04, 43.47 38.08, 43.47 81.14 M43.47 81.14 C26.35 81.14, 9.23 81.14, 0 81.14 M43.47 81.14 C33.88 81.14, 24.29 81.14, 0 81.14 M0 81.14 C0 61.25, 0 41.36, 0 0 M0 81.14 C0 60.81, 0 40.49, 0 0" stroke="#000000" stroke-width="2" fill="none"></path></g><g transform="translate(432.8193824153635 191.07080328644054) rotate(0 36.74023860245927 14.579459762880646)"><text x="0" y="0" font-family="Virgil, Segoe UI Emoji" font-size="23.32713562060904px" fill="#000000" text-anchor="start" style="white-space: pre;" direction="ltr" dominant-baseline="text-before-edge">Server</text></g><g stroke-linecap="round"><g transform="translate(453.05611267307415 107.36889312244159) rotate(0 16.662811686793702 1.4210854715202004e-13)"><path d="M0 0 C5.55 0, 27.77 0, 33.33 0 M0 0 C5.55 0, 27.77 0, 33.33 0" stroke="#000000" stroke-width="2" fill="none"></path></g></g><mask></mask><g stroke-linecap="round"><g transform="translate(452.896809331029 114.8380060847029) rotate(0 16.662811686793702 1.4210854715202004e-13)"><path d="M0 0 C5.55 0, 27.77 0, 33.33 0 M0 0 C5.55 0, 27.77 0, 33.33 0" stroke="#000000" stroke-width="2" fill="none"></path></g></g><mask></mask><g stroke-linecap="round"><g transform="translate(452.86078601258794 122.30711904696523) rotate(0 16.662811686793702 1.4210854715202004e-13)"><path d="M0 0 C5.55 0, 27.77 0, 33.33 0 M0 0 C5.55 0, 27.77 0, 33.33 0" stroke="#000000" stroke-width="2" fill="none"></path></g></g><mask></mask><g stroke-linecap="round"><g transform="translate(452.86078601258794 129.776232009227) rotate(0 16.662811686793702 1.4210854715202004e-13)"><path d="M0 0 C5.55 0, 27.77 0, 33.33 0 M0 0 C5.55 0, 27.77 0, 33.33 0" stroke="#000000" stroke-width="2" fill="none"></path></g></g><mask></mask><g transform="translate(23.299615479657064 336.12995218474657) rotate(0 28.5 12.5)"><text x="0" y="0" font-family="Virgil, Segoe UI Emoji" font-size="20px" fill="#000000" text-anchor="start" style="white-space: pre;" direction="ltr" dominant-baseline="text-before-edge">Users</text></g><g stroke-linecap="round" transform="translate(63.74243241887655 268.8701088504097) rotate(0 9.875171816384807 8.640775339336727)"><path d="M2.19 3.23 C2.19 3.23, 2.19 3.23, 2.19 3.23 M2.19 3.23 C2.19 3.23, 2.19 3.23, 2.19 3.23 M2.98 14.51 C6.76 10.16, 10.54 5.81, 14.79 0.93 M2.98 14.51 C6.49 10.47, 10 6.43, 14.79 0.93 M10.33 18.25 C12.94 15.24, 15.56 12.23, 19.51 7.69 M10.33 18.25 C13.99 14.04, 17.66 9.82, 19.51 7.69 M3.77 15.47 C3.77 15.47, 3.77 15.47, 3.77 15.47 M3.77 15.47 C3.77 15.47, 3.77 15.47, 3.77 15.47 M15.81 15.34 C10.69 10.88, 5.56 6.43, 2.23 3.53 M15.81 15.34 C11.1 11.24, 6.38 7.14, 2.23 3.53 M20.31 8.65 C17.01 5.78, 13.7 2.9, 9.74 -0.54 M20.31 8.65 C18.02 6.66, 15.74 4.67, 9.74 -0.54" stroke="#ced4da" stroke-width="1" fill="none"></path><path d="M19.75 8.64 C19.75 9.14, 19.7 9.65, 19.6 10.14 C19.5 10.63, 19.35 11.13, 19.15 11.6 C18.96 12.07, 18.71 12.53, 18.43 12.96 C18.14 13.39, 17.81 13.81, 17.44 14.19 C17.07 14.58, 16.66 14.94, 16.22 15.26 C15.78 15.58, 15.31 15.87, 14.81 16.12 C14.32 16.37, 13.79 16.59, 13.25 16.76 C12.72 16.93, 12.15 17.06, 11.59 17.15 C11.03 17.24, 10.45 17.28, 9.88 17.28 C9.3 17.28, 8.72 17.24, 8.16 17.15 C7.6 17.06, 7.03 16.93, 6.5 16.76 C5.96 16.59, 5.43 16.37, 4.94 16.12 C4.44 15.87, 3.97 15.58, 3.53 15.26 C3.09 14.94, 2.68 14.58, 2.31 14.19 C1.94 13.81, 1.61 13.39, 1.32 12.96 C1.04 12.53, 0.79 12.07, 0.6 11.6 C0.4 11.13, 0.25 10.63, 0.15 10.14 C0.05 9.65, 0 9.14, 0 8.64 C0 8.14, 0.05 7.63, 0.15 7.14 C0.25 6.65, 0.4 6.16, 0.6 5.69 C0.79 5.22, 1.04 4.75, 1.32 4.32 C1.61 3.89, 1.94 3.47, 2.31 3.09 C2.68 2.7, 3.09 2.34, 3.53 2.02 C3.97 1.7, 4.44 1.41, 4.94 1.16 C5.43 0.91, 5.96 0.69, 6.5 0.52 C7.03 0.35, 7.6 0.22, 8.16 0.13 C8.72 0.04, 9.3 0, 9.88 0 C10.45 0, 11.03 0.04, 11.59 0.13 C12.15 0.22, 12.72 0.35, 13.25 0.52 C13.79 0.69, 14.32 0.91, 14.81 1.16 C15.31 1.41, 15.78 1.7, 16.22 2.02 C16.66 2.34, 17.07 2.7, 17.44 3.09 C17.81 3.47, 18.14 3.89, 18.43 4.32 C18.71 4.75, 18.96 5.22, 19.15 5.69 C19.35 6.16, 19.5 6.65, 19.6 7.14 C19.7 7.63, 19.73 8.39, 19.75 8.64 C19.78 8.89, 19.78 8.39, 19.75 8.64" stroke="#000000" stroke-width="2" fill="none"></path></g><g stroke-linecap="round" transform="translate(20.558758294554195 269.45317663404376) rotate(0 9.875171816384807 8.640775339336727)"><path d="M2.19 3.23 C2.19 3.23, 2.19 3.23, 2.19 3.23 M2.19 3.23 C2.19 3.23, 2.19 3.23, 2.19 3.23 M2.98 14.51 C7.18 9.67, 11.39 4.84, 14.79 0.93 M2.98 14.51 C6.45 10.52, 9.92 6.53, 14.79 0.93 M10.33 18.25 C12.35 15.92, 14.38 13.6, 19.51 7.69 M10.33 18.25 C13.26 14.88, 16.19 11.51, 19.51 7.69 M3.77 15.47 C3.77 15.47, 3.77 15.47, 3.77 15.47 M3.77 15.47 C3.77 15.47, 3.77 15.47, 3.77 15.47 M15.81 15.34 C10.83 11.01, 5.85 6.68, 2.23 3.53 M15.81 15.34 C12.74 12.67, 9.66 9.99, 2.23 3.53 M20.31 8.65 C16.1 4.99, 11.9 1.34, 9.74 -0.54 M20.31 8.65 C17.97 6.61, 15.63 4.58, 9.74 -0.54" stroke="#ced4da" stroke-width="1" fill="none"></path><path d="M19.75 8.64 C19.75 9.14, 19.7 9.65, 19.6 10.14 C19.5 10.63, 19.35 11.13, 19.15 11.6 C18.96 12.07, 18.71 12.53, 18.43 12.96 C18.14 13.39, 17.81 13.81, 17.44 14.19 C17.07 14.58, 16.66 14.94, 16.22 15.26 C15.78 15.58, 15.31 15.87, 14.81 16.12 C14.32 16.37, 13.79 16.59, 13.25 16.76 C12.72 16.93, 12.15 17.06, 11.59 17.15 C11.03 17.24, 10.45 17.28, 9.88 17.28 C9.3 17.28, 8.72 17.24, 8.16 17.15 C7.6 17.06, 7.03 16.93, 6.5 16.76 C5.96 16.59, 5.43 16.37, 4.94 16.12 C4.44 15.87, 3.97 15.58, 3.53 15.26 C3.09 14.94, 2.68 14.58, 2.31 14.19 C1.94 13.81, 1.61 13.39, 1.32 12.96 C1.04 12.53, 0.79 12.07, 0.6 11.6 C0.4 11.13, 0.25 10.63, 0.15 10.14 C0.05 9.65, 0 9.14, 0 8.64 C0 8.14, 0.05 7.63, 0.15 7.14 C0.25 6.65, 0.4 6.16, 0.6 5.69 C0.79 5.22, 1.04 4.75, 1.32 4.32 C1.61 3.89, 1.94 3.47, 2.31 3.09 C2.68 2.7, 3.09 2.34, 3.53 2.02 C3.97 1.7, 4.44 1.41, 4.94 1.16 C5.43 0.91, 5.96 0.69, 6.5 0.52 C7.03 0.35, 7.6 0.22, 8.16 0.13 C8.72 0.04, 9.3 0, 9.88 0 C10.45 0, 11.03 0.04, 11.59 0.13 C12.15 0.22, 12.72 0.35, 13.25 0.52 C13.79 0.69, 14.32 0.91, 14.81 1.16 C15.31 1.41, 15.78 1.7, 16.22 2.02 C16.66 2.34, 17.07 2.7, 17.44 3.09 C17.81 3.47, 18.14 3.89, 18.43 4.32 C18.71 4.75, 18.96 5.22, 19.15 5.69 C19.35 6.16, 19.5 6.65, 19.6 7.14 C19.7 7.63, 19.73 8.39, 19.75 8.64 C19.78 8.89, 19.78 8.39, 19.75 8.64" stroke="#000000" stroke-width="2" fill="none"></path></g><g stroke-linecap="round"><g transform="translate(31.010578301818555 328.38421237169337) rotate(0 20.903001066267336 -18.613522148782096)" fill-rule="evenodd"><path d="M11.93 -33.36 C11.93 -33.36, 11.93 -33.36, 11.93 -33.36 M11.93 -33.36 C11.93 -33.36, 11.93 -33.36, 11.93 -33.36 M1.56 -9.24 C6.77 -15.23, 11.97 -21.22, 25.18 -36.41 M1.56 -9.24 C9.09 -17.91, 16.63 -26.57, 25.18 -36.41 M4.32 -0.22 C11.49 -8.47, 18.67 -16.72, 31.22 -31.16 M4.32 -0.22 C10.23 -7.03, 16.15 -13.83, 31.22 -31.16 M14.95 -0.26 C22.89 -9.39, 30.83 -18.52, 36.6 -25.16 M14.95 -0.26 C19.85 -5.9, 24.75 -11.54, 36.6 -25.16 M25.58 -0.29 C31.58 -7.2, 37.59 -14.11, 40.67 -17.65 M25.58 -0.29 C28.92 -4.14, 32.27 -7.98, 40.67 -17.65 M36.21 -0.32 C39.16 -3.72, 42.11 -7.11, 44.08 -9.38 M36.21 -0.32 C38.66 -3.14, 41.1 -5.95, 44.08 -9.38 M0 0 C0 0, 0 0, 0 0 M0 0 C0 0, 0 0, 0 0 M12.04 -0.13 C8.94 -2.83, 5.84 -5.53, 1.47 -9.32 M12.04 -0.13 C8.68 -3.06, 5.31 -5.98, 1.47 -9.32 M24.08 -0.27 C17.1 -6.33, 10.12 -12.4, 2.95 -18.64 M24.08 -0.27 C18.18 -5.39, 12.28 -10.52, 2.95 -18.64 M35.37 -1.06 C24.66 -10.36, 13.96 -19.66, 5.93 -26.64 M35.37 -1.06 C24.9 -10.15, 14.43 -19.25, 5.93 -26.64 M42.88 -5.12 C34.6 -12.33, 26.31 -19.53, 11.18 -32.68 M42.88 -5.12 C33.46 -13.31, 24.05 -21.5, 11.18 -32.68 M41.34 -17.07 C36.46 -21.31, 31.58 -25.55, 18.7 -36.75 M41.34 -17.07 C34.83 -22.73, 28.32 -28.38, 18.7 -36.75" stroke="#ced4da" stroke-width="1" fill="none"></path><path d="M0 0 C0.78 -4.11, 1.34 -18.46, 4.68 -24.67 C8.03 -30.87, 14.94 -36.78, 20.07 -37.23 C25.2 -37.68, 31.83 -33.14, 35.45 -27.36 C39.07 -21.58, 47.71 -7.12, 41.81 -2.56 C35.9 2, 6.97 -0.43, 0 0 M0 0 C0.78 -4.11, 1.34 -18.46, 4.68 -24.67 C8.03 -30.87, 14.94 -36.78, 20.07 -37.23 C25.2 -37.68, 31.83 -33.14, 35.45 -27.36 C39.07 -21.58, 47.71 -7.12, 41.81 -2.56 C35.9 2, 6.97 -0.43, 0 0" stroke="#000000" stroke-width="2" fill="none"></path></g></g><mask></mask><g stroke-linecap="round" transform="translate(41.49670045262849 271.80970105185634) rotate(0 10.702336545928858 9.364544477687815)"><path d="M2.43 3.43 C2.43 3.43, 2.43 3.43, 2.43 3.43 M2.43 3.43 C2.43 3.43, 2.43 3.43, 2.43 3.43 M2.56 15.48 C7.53 9.76, 12.5 4.04, 15.02 1.14 M2.56 15.48 C6.84 10.55, 11.12 5.63, 15.02 1.14 M10.57 18.46 C12.93 15.74, 15.29 13.02, 21.06 6.38 M10.57 18.46 C12.8 15.89, 15.03 13.33, 21.06 6.38 M4.02 16.71 C4.02 16.71, 4.02 16.71, 4.02 16.71 M4.02 16.71 C4.02 16.71, 4.02 16.71, 4.02 16.71 M16.82 17.23 C13.37 14.24, 9.93 11.25, 1.72 4.11 M16.82 17.23 C10.83 12.03, 4.85 6.83, 1.72 4.11 M21.31 10.54 C18.6 8.18, 15.88 5.82, 9.24 0.04 M21.31 10.54 C18.71 8.28, 16.11 6.02, 9.24 0.04" stroke="#ced4da" stroke-width="1" fill="none"></path><path d="M21.4 9.36 C21.4 9.91, 21.35 10.46, 21.24 10.99 C21.13 11.52, 20.97 12.06, 20.76 12.57 C20.55 13.08, 20.28 13.58, 19.97 14.05 C19.66 14.52, 19.3 14.97, 18.9 15.38 C18.5 15.8, 18.06 16.19, 17.58 16.54 C17.11 16.89, 16.59 17.2, 16.05 17.47 C15.52 17.75, 14.94 17.98, 14.36 18.16 C13.78 18.35, 13.17 18.49, 12.56 18.59 C11.95 18.68, 11.32 18.73, 10.7 18.73 C10.08 18.73, 9.45 18.68, 8.84 18.59 C8.23 18.49, 7.62 18.35, 7.04 18.16 C6.46 17.98, 5.89 17.75, 5.35 17.47 C4.81 17.2, 4.3 16.89, 3.82 16.54 C3.35 16.19, 2.9 15.8, 2.5 15.38 C2.11 14.97, 1.74 14.52, 1.43 14.05 C1.12 13.58, 0.86 13.08, 0.65 12.57 C0.43 12.06, 0.27 11.52, 0.16 10.99 C0.06 10.46, 0 9.91, 0 9.36 C0 8.82, 0.06 8.27, 0.16 7.74 C0.27 7.2, 0.43 6.67, 0.65 6.16 C0.86 5.65, 1.12 5.15, 1.43 4.68 C1.74 4.21, 2.11 3.76, 2.5 3.35 C2.9 2.93, 3.35 2.54, 3.82 2.19 C4.3 1.84, 4.81 1.53, 5.35 1.25 C5.89 0.98, 6.46 0.75, 7.04 0.56 C7.62 0.38, 8.23 0.24, 8.84 0.14 C9.45 0.05, 10.08 0, 10.7 0 C11.32 0, 11.95 0.05, 12.56 0.14 C13.17 0.24, 13.78 0.38, 14.36 0.56 C14.94 0.75, 15.52 0.98, 16.05 1.25 C16.59 1.53, 17.11 1.84, 17.58 2.19 C18.06 2.54, 18.5 2.93, 18.9 3.35 C19.3 3.76, 19.66 4.21, 19.97 4.68 C20.28 5.15, 20.55 5.65, 20.76 6.16 C20.97 6.67, 21.13 7.2, 21.24 7.74 C21.35 8.27, 21.38 9.09, 21.4 9.36 C21.43 9.64, 21.43 9.09, 21.4 9.36" stroke="#000000" stroke-width="2" fill="none"></path></g><g stroke-linecap="round"><g transform="translate(60.16191375626988 294.7151476866404) rotate(0 16.71865860152218 9.951582500906)" fill-rule="evenodd"><path d="M0 0 C0 0, 0 0, 0 0 M0 0 C0 0, 0 0, 0 0 M6.04 5.25 C8.73 2.15, 11.43 -0.95, 17.85 -8.34 M6.04 5.25 C10.72 -0.14, 15.4 -5.53, 17.85 -8.34 M10.11 12.76 C13.5 8.86, 16.9 4.95, 25.2 -4.6 M10.11 12.76 C13.36 9.02, 16.61 5.28, 25.2 -4.6 M14.18 20.27 C17.73 16.19, 21.28 12.11, 29.27 2.92 M14.18 20.27 C17.95 15.93, 21.73 11.58, 29.27 2.92 M17.59 28.54 C21.5 24.05, 25.4 19.55, 32.02 11.94 M17.59 28.54 C21.92 23.56, 26.25 18.58, 32.02 11.94 M29.53 27 C31.28 24.99, 33.02 22.98, 34.12 21.71 M29.53 27 C30.84 25.49, 32.16 23.98, 34.12 21.71 M14.43 27.6 C14.43 27.6, 14.43 27.6, 14.43 27.6 M14.43 27.6 C14.43 27.6, 14.43 27.6, 14.43 27.6 M26.47 27.47 C20.05 21.89, 13.63 16.31, 9.87 13.04 M26.47 27.47 C20.25 22.06, 14.02 16.65, 9.87 13.04 M33.23 22.75 C22.74 13.62, 12.24 4.5, 3.04 -3.5 M33.23 22.75 C25.64 16.15, 18.05 9.55, 3.04 -3.5 M31.68 10.8 C23.56 3.75, 15.45 -3.31, 9.8 -8.22 M31.68 10.8 C24.06 4.18, 16.44 -2.45, 9.8 -8.22" stroke="#ced4da" stroke-width="1" fill="none"></path><path d="M0 0 C0.86 -0.93, 3.58 -4.18, 5.17 -5.57 C6.77 -6.97, 7.56 -7.83, 9.55 -8.36 C11.54 -8.89, 14.99 -8.89, 17.12 -8.76 C19.24 -8.62, 20.83 -8.43, 22.29 -7.56 C23.75 -6.7, 24.88 -5.11, 25.87 -3.58 C26.87 -2.06, 27.47 -0.33, 28.26 1.59 C29.06 3.52, 29.92 5.84, 30.65 7.96 C31.38 10.08, 32.18 12.41, 32.64 14.33 C33.11 16.25, 33.44 17.78, 33.44 19.51 C33.44 21.23, 33.3 23.42, 32.64 24.68 C31.98 25.94, 30.72 26.47, 29.46 27.07 C28.2 27.67, 26.87 28, 25.08 28.26 C23.29 28.53, 20.43 28.73, 18.71 28.66 C16.98 28.59, 15.46 28.93, 14.73 27.86 C14 26.8, 14.66 23.82, 14.33 22.29 C14 20.77, 13.47 20.23, 12.74 18.71 C12.01 17.18, 11.08 15.33, 9.95 13.14 C8.82 10.95, 7.63 7.76, 5.97 5.57 C4.31 3.38, 1 0.93, 0 0 M0 0 C0.86 -0.93, 3.58 -4.18, 5.17 -5.57 C6.77 -6.97, 7.56 -7.83, 9.55 -8.36 C11.54 -8.89, 14.99 -8.89, 17.12 -8.76 C19.24 -8.62, 20.83 -8.43, 22.29 -7.56 C23.75 -6.7, 24.88 -5.11, 25.87 -3.58 C26.87 -2.06, 27.47 -0.33, 28.26 1.59 C29.06 3.52, 29.92 5.84, 30.65 7.96 C31.38 10.08, 32.18 12.41, 32.64 14.33 C33.11 16.25, 33.44 17.78, 33.44 19.51 C33.44 21.23, 33.3 23.42, 32.64 24.68 C31.98 25.94, 30.72 26.47, 29.46 27.07 C28.2 27.67, 26.87 28, 25.08 28.26 C23.29 28.53, 20.43 28.73, 18.71 28.66 C16.98 28.59, 15.46 28.93, 14.73 27.86 C14 26.8, 14.66 23.82, 14.33 22.29 C14 20.77, 13.47 20.23, 12.74 18.71 C12.01 17.18, 11.08 15.33, 9.95 13.14 C8.82 10.95, 7.63 7.76, 5.97 5.57 C4.31 3.38, 1 0.93, 0 0" stroke="#000000" stroke-width="2" fill="none"></path></g></g><mask></mask><g stroke-linecap="round"><g transform="translate(42.243127302935704 294.703271783236) rotate(0 -16.121563651467852 11.941899001087336)" fill-rule="evenodd"><path d="M-24.42 -2.68 C-24.42 -2.68, -24.42 -2.68, -24.42 -2.68 M-24.42 -2.68 C-24.42 -2.68, -24.42 -2.68, -24.42 -2.68 M-31.51 17.66 C-27.25 12.76, -22.99 7.86, -10.51 -6.49 M-31.51 17.66 C-23.7 8.68, -15.9 -0.29, -10.51 -6.49 M-29.41 27.44 C-22.55 19.55, -15.7 11.67, -2.51 -3.51 M-29.41 27.44 C-23.11 20.2, -16.82 12.95, -2.51 -3.51 M-22.06 31.18 C-17.64 26.1, -13.23 21.02, -8.28 15.33 M-22.06 31.18 C-16.94 25.29, -11.83 19.41, -8.28 15.33 M-12.08 31.9 C-11.66 31.41, -11.24 30.92, -10.77 30.39 M-12.08 31.9 C-11.64 31.39, -11.2 30.88, -10.77 30.39 M-31.63 25.72 C-31.63 25.72, -31.63 25.72, -31.63 25.72 M-31.63 25.72 C-31.63 25.72, -31.63 25.72, -31.63 25.72 M-12.8 31.49 C-17.18 27.68, -21.56 23.87, -30.91 15.74 M-12.8 31.49 C-19.09 26.01, -25.39 20.54, -30.91 15.74 M-9.06 24.14 C-13.14 20.59, -17.22 17.04, -28.68 7.08 M-9.06 24.14 C-16.78 17.43, -24.5 10.72, -28.68 7.08 M-8.34 14.16 C-13.09 10.03, -17.83 5.91, -25.7 -0.93 M-8.34 14.16 C-11.86 11.1, -15.37 8.05, -25.7 -0.93 M-4.6 6.81 C-10.18 1.96, -15.77 -2.9, -20.45 -6.96 M-4.6 6.81 C-8.31 3.58, -12.03 0.35, -20.45 -6.96 M-0.1 0.12 C-2.56 -2.01, -5.01 -4.14, -9.16 -7.75 M-0.1 0.12 C-3.68 -2.99, -7.25 -6.1, -9.16 -7.75" stroke="#ced4da" stroke-width="1" fill="none"></path><path d="M0 0 C-0.66 -0.73, -2.59 -3.18, -3.98 -4.38 C-5.37 -5.57, -6.37 -6.63, -8.36 -7.17 C-10.35 -7.7, -13.8 -7.7, -15.92 -7.56 C-18.05 -7.43, -19.64 -7.23, -21.1 -6.37 C-22.56 -5.51, -23.68 -3.91, -24.68 -2.39 C-25.68 -0.86, -26.27 0.86, -27.07 2.79 C-27.86 4.71, -28.73 7.03, -29.46 9.16 C-30.19 11.28, -30.98 13.6, -31.45 15.52 C-31.91 17.45, -32.24 18.97, -32.24 20.7 C-32.24 22.42, -32.11 24.61, -31.45 25.87 C-30.78 27.13, -29.46 27.53, -28.26 28.26 C-27.07 28.99, -26.01 29.72, -24.28 30.25 C-22.56 30.78, -20.1 31.25, -17.91 31.45 C-15.72 31.65, -12.41 32.64, -11.15 31.45 C-9.89 30.25, -10.62 26.07, -10.35 24.28 C-10.08 22.49, -9.89 22.29, -9.55 20.7 C-9.22 19.11, -9.16 17.05, -8.36 14.73 C-7.56 12.41, -6.17 9.22, -4.78 6.77 C-3.38 4.31, -0.8 1.13, 0 0 M0 0 C-0.66 -0.73, -2.59 -3.18, -3.98 -4.38 C-5.37 -5.57, -6.37 -6.63, -8.36 -7.17 C-10.35 -7.7, -13.8 -7.7, -15.92 -7.56 C-18.05 -7.43, -19.64 -7.23, -21.1 -6.37 C-22.56 -5.51, -23.68 -3.91, -24.68 -2.39 C-25.68 -0.86, -26.27 0.86, -27.07 2.79 C-27.86 4.71, -28.73 7.03, -29.46 9.16 C-30.19 11.28, -30.98 13.6, -31.45 15.52 C-31.91 17.45, -32.24 18.97, -32.24 20.7 C-32.24 22.42, -32.11 24.61, -31.45 25.87 C-30.78 27.13, -29.46 27.53, -28.26 28.26 C-27.07 28.99, -26.01 29.72, -24.28 30.25 C-22.56 30.78, -20.1 31.25, -17.91 31.45 C-15.72 31.65, -12.41 32.64, -11.15 31.45 C-9.89 30.25, -10.62 26.07, -10.35 24.28 C-10.08 22.49, -9.89 22.29, -9.55 20.7 C-9.22 19.11, -9.16 17.05, -8.36 14.73 C-7.56 12.41, -6.17 9.22, -4.78 6.77 C-3.38 4.31, -0.8 1.13, 0 0" stroke="#000000" stroke-width="2" fill="none"></path></g></g><mask></mask><g stroke-linecap="round" transform="translate(192.24420233946637 247.11118231879357) rotate(0 57.55553521050331 57.55553521050331)"><path d="M39.86 3.57 C47.85 0.44, 59.5 0.38, 68.47 1.77 C77.44 3.17, 86.85 6.57, 93.69 11.95 C100.53 17.34, 105.78 25.96, 109.5 34.08 C113.21 42.19, 116.49 51.89, 115.96 60.65 C115.44 69.4, 111.08 79.12, 106.34 86.62 C101.6 94.12, 94.94 101.04, 87.51 105.67 C80.09 110.29, 70.7 113.64, 61.77 114.36 C52.85 115.08, 42.21 113.41, 33.98 110 C25.74 106.59, 17.8 100.91, 12.36 93.88 C6.91 86.86, 2.96 76.79, 1.3 67.85 C-0.37 58.91, -0.07 48.65, 2.37 40.23 C4.8 31.8, 9.29 23.69, 15.91 17.29 C22.54 10.9, 37.06 4.36, 42.13 1.88 C47.21 -0.6, 46.02 1.56, 46.36 2.41 M29.84 7.78 C36.97 3.19, 49.04 1.37, 58.08 0.97 C67.12 0.57, 76.18 1.59, 84.1 5.39 C92.02 9.19, 100.65 16.41, 105.59 23.77 C110.52 31.14, 112.9 40.66, 113.72 49.58 C114.53 58.49, 113.53 68.71, 110.47 77.28 C107.41 85.85, 101.7 95.01, 95.36 100.99 C89.02 106.97, 80.87 111.31, 72.43 113.17 C63.99 115.02, 53.44 114.32, 44.72 112.1 C36.01 109.88, 27.22 105.78, 20.15 99.84 C13.08 93.91, 5.76 84.5, 2.3 76.49 C-1.17 68.49, -1.85 60.68, -0.64 51.81 C0.56 42.94, 4.24 30.58, 9.52 23.28 C14.81 15.98, 27.35 10.69, 31.06 7.99 C34.78 5.28, 31.18 6.5, 31.79 7.05" stroke="#000000" stroke-width="1" fill="none"></path></g><g stroke-linecap="round"><g transform="translate(209.12198139862983 284.7784756312317) rotate(0 38.48373447880488 20.544685979652712)" fill-rule="evenodd"><path d="M1.27 1.67 L2.11 35.18 L18.76 33.44 L17.52 20.36 L53.54 44.62 L53.2 51.65 L65.35 53.74 L65.28 58.24 L78.87 58.07 L76.52 43.23 L61.87 42.87 L65.22 49.43 L57.37 38.32 L54.21 43.03 L26.18 20.04 L49.98 20.44 L50.13 24.79 L61.94 20.82 L63 28.57 L76.7 24.98 L78.94 12.59 L61.75 10.69 L64.01 16.81 L50.23 10.21 L49.81 13.83 L26.5 13 L55.81 -3.16 L58.66 0.29 L60.72 -8.07 L62.26 -0.58 L77.97 -1.98 L75.33 -18.76 L64.13 -16.69 L62.54 -10.51 L52.84 -7.55 L51.19 -4.24 L19.76 15.44 L17.76 -1.06 L1.9 -0.51" stroke="none" stroke-width="0" fill="#fff" fill-rule="evenodd"></path><path d="M0 0 C-0.46 9.42, -0.58 22.91, 0.31 34.11 M0 0 C0.31 12.69, 0.96 27.15, 0.31 34.11 M0.31 34.11 C5.39 32.48, 11.55 33.16, 18.2 34.27 M0.31 34.11 C5.78 34.43, 9.86 34.08, 18.2 34.27 M18.2 34.27 C17.3 30.98, 18.87 27.8, 18.48 21.17 M18.2 34.27 C18.46 30.88, 17.92 27.57, 18.48 21.17 M18.48 21.17 C28.45 30.07, 40.04 36.07, 54.26 46.21 M18.48 21.17 C25.99 26.98, 34.8 32.08, 54.26 46.21 M54.26 46.21 C53.01 47.53, 51.81 49.44, 51.67 51.02 M54.26 46.21 C53.24 48.34, 52.26 49.87, 51.67 51.02 M51.67 51.02 C55.77 51.56, 60.7 52.06, 63.49 53.23 M51.67 51.02 C55.25 51.97, 58.91 52.31, 63.49 53.23 M63.49 53.23 C63.45 54.96, 63.13 56.9, 63.49 58.29 M63.49 53.23 C63.77 54.82, 63.47 56.43, 63.49 58.29 M63.49 58.29 C68.87 57.6, 72.9 57, 76.94 57.61 M63.49 58.29 C68.36 57.83, 72.12 58.19, 76.94 57.61 M76.94 57.61 C75.6 54.31, 77.93 50.66, 76.97 43.72 M76.94 57.61 C77.06 54.97, 76.57 52.2, 76.97 43.72 M76.97 43.72 C73.09 45.09, 67.72 43.86, 63.58 43.88 M76.97 43.72 C72.9 43.18, 69.69 43.46, 63.58 43.88 M63.58 43.88 C63.52 44.98, 63.77 46.58, 63.52 47.94 M63.58 43.88 C63.52 44.79, 63.61 45.84, 63.52 47.94 M63.52 47.94 C61.53 45.65, 61.16 44.69, 58.43 39.62 M63.52 47.94 C62.25 45.73, 61.4 44.78, 58.43 39.62 M58.43 39.62 C57.4 40.77, 57.47 41.66, 55.87 43.17 M58.43 39.62 C57.72 40.74, 56.53 42.15, 55.87 43.17 M55.87 43.17 C49.23 37.66, 39.2 28.93, 25.11 20.05 M55.87 43.17 C43.95 34.1, 31.25 24.27, 25.11 20.05 M25.11 20.05 C33.35 18.59, 44.23 19.33, 51.24 20.02 M25.11 20.05 C33.85 18.89, 40.31 19.89, 51.24 20.02 M51.24 20.02 C51.42 21.17, 51.08 22.73, 51.09 23.73 M51.24 20.02 C51.04 21.19, 51.01 22.1, 51.09 23.73 M51.09 23.73 C55.98 23.35, 58.49 20.25, 62.56 20.02 M51.09 23.73 C53.15 22.36, 56.06 21.77, 62.56 20.02 M62.56 20.02 C62.09 21.78, 62.81 23.97, 62.56 26.65 M62.56 20.02 C62.36 22.18, 62.54 24.5, 62.56 26.65 M62.56 26.65 C65.35 26.91, 68.51 25.92, 76.81 26.55 M62.56 26.65 C65.24 26.36, 68.33 27, 76.81 26.55 M76.81 26.55 C78.36 22.74, 76.26 18.64, 76.97 12.17 M76.81 26.55 C77.46 24.03, 76.43 20.66, 76.97 12.17 M76.97 12.17 C72.72 13.18, 69.88 13.44, 62.62 12.17 M76.97 12.17 C73.38 12.36, 70.37 12.35, 62.62 12.17 M62.62 12.17 C62.87 13.32, 62.91 14.77, 62.41 16.62 M62.62 12.17 C62.73 13.66, 62.34 15.06, 62.41 16.62 M62.41 16.62 C60.43 16.12, 56.12 14.65, 51.12 12.07 M62.41 16.62 C58.48 14.62, 53.94 12.83, 51.12 12.07 M51.12 12.07 C51.42 13.51, 51.47 14.59, 51.36 15.15 M51.12 12.07 C51.21 13.02, 51.33 13.8, 51.36 15.15 M51.36 15.15 C43.38 15.25, 32.79 14.27, 25.42 14.86 M51.36 15.15 C45.03 16.11, 37.8 15.19, 25.42 14.86 M25.42 14.86 C32.96 11.86, 41.97 2.93, 55 -2.34 M25.42 14.86 C37.91 8.94, 47.87 1.96, 55 -2.34 M55 -2.34 C55.57 -0.56, 56.54 0.08, 57.26 1.09 M55 -2.34 C55.58 -1.31, 56.35 -0.14, 57.26 1.09 M57.26 1.09 C59 -1.14, 58.99 -3.42, 62.53 -6.82 M57.26 1.09 C58.87 -1.7, 60.83 -4.63, 62.53 -6.82 M62.53 -6.82 C62.63 -5.39, 62.7 -4.52, 62.56 -2.4 M62.53 -6.82 C62.64 -5.4, 62.72 -4.24, 62.56 -2.4 M62.56 -2.4 C68.59 -3.09, 73.41 -2.37, 76.69 -2.27 M62.56 -2.4 C65.32 -2.47, 68.96 -2.77, 76.69 -2.27 M76.69 -2.27 C75.53 -7.97, 77.72 -10.75, 76.6 -17.04 M76.69 -2.27 C76.02 -7.2, 76.61 -12.76, 76.6 -17.04 M76.6 -17.04 C71.23 -17.19, 65.98 -18.15, 62.19 -17.2 M76.6 -17.04 C70.78 -17.51, 65.88 -16.94, 62.19 -17.2 M62.19 -17.2 C62.41 -15.39, 62.05 -13.84, 62.07 -11.21 M62.19 -17.2 C61.94 -15.59, 61.9 -14.09, 62.07 -11.21 M62.07 -11.21 C58.81 -9.87, 54.62 -10.83, 51.61 -9.48 M62.07 -11.21 C60.23 -10.4, 57.86 -10.89, 51.61 -9.48 M51.61 -9.48 C51.63 -8.5, 52.13 -7.3, 53.12 -5.25 M51.61 -9.48 C52.31 -8.05, 52.59 -6.41, 53.12 -5.25 M53.12 -5.25 C44.4 -2.85, 36.86 3.21, 18.35 14.57 M53.12 -5.25 C44.3 -1.01, 36.55 3.51, 18.35 14.57 M18.35 14.57 C16.91 12.21, 17.97 7.26, 17.89 0 M18.35 14.57 C17.46 11.58, 18.5 7.98, 17.89 0 M17.89 0 C14.92 -0.96, 9.93 0.61, 0 0 M17.89 0 C12.25 0.8, 7.24 0.59, 0 0 M0 0 C0 0, 0 0, 0 0 M0 0 C0 0, 0 0, 0 0" stroke="#000000" stroke-width="1" fill="none"></path></g></g><mask></mask><g stroke-linecap="round" transform="translate(441.73226132636717 442.08144251468514) rotate(0 21.73410220016592 40.57032410697616)"><path d="M0 0 C0 0, 0 0, 0 0 M0 0 C0 0, 0 0, 0 0 M0.13 12.04 C3.91 7.7, 7.68 3.36, 10.63 -0.03 M0.13 12.04 C3.55 8.11, 6.96 4.18, 10.63 -0.03 M0.27 24.08 C7.06 16.27, 13.85 8.45, 21.26 -0.07 M0.27 24.08 C6.24 17.21, 12.22 10.33, 21.26 -0.07 M-0.26 36.88 C9.63 25.5, 19.52 14.13, 31.89 -0.1 M-0.26 36.88 C10.54 24.46, 21.33 12.04, 31.89 -0.1 M-0.12 48.92 C15.7 30.71, 31.53 12.5, 42.52 -0.14 M-0.12 48.92 C10.02 37.24, 20.17 25.57, 42.52 -0.14 M0.01 60.96 C8.8 50.85, 17.59 40.73, 43.31 11.15 M0.01 60.96 C13.54 45.39, 27.08 29.82, 43.31 11.15 M0.14 73 C12.66 58.6, 25.18 44.19, 43.44 23.19 M0.14 73 C16.34 54.37, 32.54 35.73, 43.44 23.19 M3.56 81.27 C14.83 68.3, 26.1 55.33, 43.58 35.23 M3.56 81.27 C14.02 69.23, 24.48 57.2, 43.58 35.23 M13.53 81.99 C24.63 69.21, 35.74 56.44, 43.71 47.27 M13.53 81.99 C24.67 69.17, 35.81 56.36, 43.71 47.27 M24.16 81.95 C28.86 76.55, 33.55 71.15, 43.84 59.31 M24.16 81.95 C31.61 73.38, 39.06 64.81, 43.84 59.31 M34.79 81.92 C36.98 79.39, 39.18 76.87, 43.32 72.11 M34.79 81.92 C38.11 78.1, 41.44 74.27, 43.32 72.11 M-0.18 80.99 C-0.18 80.99, -0.18 80.99, -0.18 80.99 M-0.18 80.99 C-0.18 80.99, -0.18 80.99, -0.18 80.99 M11.86 80.85 C7.44 77.01, 3.02 73.17, -0.21 70.36 M11.86 80.85 C8.33 77.78, 4.79 74.7, -0.21 70.36 M24.66 81.38 C18.08 75.65, 11.49 69.93, -0.24 59.73 M24.66 81.38 C18.27 75.82, 11.87 70.26, -0.24 59.73 M36.7 81.24 C26.96 72.78, 17.22 64.31, -0.28 49.1 M36.7 81.24 C28.3 73.94, 19.9 66.64, -0.28 49.1 M43.46 76.52 C33.82 68.14, 24.18 59.76, -0.31 38.47 M43.46 76.52 C27.55 62.69, 11.64 48.86, -0.31 38.47 M43.42 65.89 C31.31 55.36, 19.2 44.83, -0.35 27.84 M43.42 65.89 C33.34 57.12, 23.25 48.35, -0.35 27.84 M44.15 55.91 C34.15 47.23, 24.15 38.54, 0.37 17.86 M44.15 55.91 C29.7 43.35, 15.25 30.79, 0.37 17.86 M44.11 45.28 C31.27 34.13, 18.44 22.97, 0.34 7.23 M44.11 45.28 C33.95 36.45, 23.78 27.61, 0.34 7.23 M44.08 34.65 C32.64 24.71, 21.2 14.77, 3.32 -0.77 M44.08 34.65 C31.6 23.81, 19.12 12.96, 3.32 -0.77 M44.04 24.02 C33.99 15.29, 23.95 6.56, 16.12 -0.25 M44.04 24.02 C37 17.9, 29.96 11.78, 16.12 -0.25 M44.01 13.39 C40.38 10.25, 36.76 7.1, 28.16 -0.38 M44.01 13.39 C40.33 10.2, 36.66 7, 28.16 -0.38 M43.97 2.76 C42.91 1.84, 41.84 0.91, 40.2 -0.52 M43.97 2.76 C43.22 2.11, 42.46 1.45, 40.2 -0.52" stroke="#ced4da" stroke-width="1" fill="none"></path><path d="M0 0 C12.61 0, 25.23 0, 43.47 0 M0 0 C13.97 0, 27.94 0, 43.47 0 M43.47 0 C43.47 21.1, 43.47 42.21, 43.47 81.14 M43.47 0 C43.47 27.08, 43.47 54.17, 43.47 81.14 M43.47 81.14 C31.51 81.14, 19.56 81.14, 0 81.14 M43.47 81.14 C31.48 81.14, 19.48 81.14, 0 81.14 M0 81.14 C0 50.09, 0 19.04, 0 0 M0 81.14 C0 59.54, 0 37.94, 0 0" stroke="#000000" stroke-width="2" fill="none"></path></g><g transform="translate(426.7261249240727 534.7595769243973) rotate(0 36.74023860245927 14.579459762880674)"><text x="0" y="0" font-family="Virgil, Segoe UI Emoji" font-size="23.32713562060904px" fill="#000000" text-anchor="start" style="white-space: pre;" direction="ltr" dominant-baseline="text-before-edge">Server</text></g><g stroke-linecap="round"><g transform="translate(446.96285518178354 451.0576667603983) rotate(0 16.662811686793702 1.1368683772161603e-13)"><path d="M0 0 C5.55 0, 27.77 0, 33.33 0 M0 0 C5.55 0, 27.77 0, 33.33 0" stroke="#000000" stroke-width="2" fill="none"></path></g></g><mask></mask><g stroke-linecap="round"><g transform="translate(446.80355183973813 458.5267797226596) rotate(0 16.662811686793702 1.1368683772161603e-13)"><path d="M0 0 C5.55 0, 27.77 0, 33.33 0 M0 0 C5.55 0, 27.77 0, 33.33 0" stroke="#000000" stroke-width="2" fill="none"></path></g></g><mask></mask><g stroke-linecap="round"><g transform="translate(446.7675285212971 465.99589268492207) rotate(0 16.662811686793702 1.1368683772161603e-13)"><path d="M0 0 C5.55 0, 27.77 0, 33.33 0 M0 0 C5.55 0, 27.77 0, 33.33 0" stroke="#000000" stroke-width="2" fill="none"></path></g></g><mask></mask><g stroke-linecap="round"><g transform="translate(446.7675285212971 473.4650056471836) rotate(0 16.662811686793702 1.1368683772161603e-13)"><path d="M0 0 C5.55 0, 27.77 0, 33.33 0 M0 0 C5.55 0, 27.77 0, 33.33 0" stroke="#000000" stroke-width="2" fill="none"></path></g></g><mask></mask><g stroke-linecap="round" transform="translate(440.73238339667967 283.7481295264039) rotate(0 21.73410220016592 40.57032410697616)"><path d="M0 0 C0 0, 0 0, 0 0 M0 0 C0 0, 0 0, 0 0 M0.13 12.04 C2.88 8.88, 5.62 5.72, 10.63 -0.03 M0.13 12.04 C3.56 8.1, 6.99 4.15, 10.63 -0.03 M0.27 24.08 C8.02 15.16, 15.78 6.24, 21.26 -0.07 M0.27 24.08 C8.63 14.46, 16.99 4.84, 21.26 -0.07 M-0.26 36.88 C10.53 24.47, 21.32 12.06, 31.89 -0.1 M-0.26 36.88 C11.1 23.81, 22.46 10.74, 31.89 -0.1 M-0.12 48.92 C12.98 33.85, 26.08 18.78, 42.52 -0.14 M-0.12 48.92 C16.34 29.98, 32.8 11.04, 42.52 -0.14 M0.01 60.96 C13.26 45.71, 26.51 30.47, 43.31 11.15 M0.01 60.96 C16.28 42.24, 32.56 23.52, 43.31 11.15 M0.14 73 C15.71 55.09, 31.28 37.19, 43.44 23.19 M0.14 73 C11.22 60.26, 22.29 47.52, 43.44 23.19 M3.56 81.27 C12.83 70.59, 22.11 59.92, 43.58 35.23 M3.56 81.27 C18.82 63.71, 34.08 46.15, 43.58 35.23 M13.53 81.99 C24.26 69.65, 34.99 57.3, 43.71 47.27 M13.53 81.99 C22.57 71.59, 31.6 61.2, 43.71 47.27 M24.16 81.95 C31.29 73.75, 38.43 65.54, 43.84 59.31 M24.16 81.95 C30.39 74.79, 36.62 67.62, 43.84 59.31 M34.79 81.92 C36.62 79.81, 38.46 77.7, 43.32 72.11 M34.79 81.92 C37.08 79.29, 39.37 76.66, 43.32 72.11 M-0.18 80.99 C-0.18 80.99, -0.18 80.99, -0.18 80.99 M-0.18 80.99 C-0.18 80.99, -0.18 80.99, -0.18 80.99 M11.86 80.85 C7.66 77.2, 3.45 73.54, -0.21 70.36 M11.86 80.85 C7.36 76.94, 2.86 73.02, -0.21 70.36 M24.66 81.38 C14.98 72.96, 5.29 64.54, -0.24 59.73 M24.66 81.38 C15.72 73.6, 6.77 65.83, -0.24 59.73 M36.7 81.24 C27.21 72.99, 17.72 64.74, -0.28 49.1 M36.7 81.24 C26.21 72.12, 15.72 63, -0.28 49.1 M43.46 76.52 C28.72 63.71, 13.98 50.9, -0.31 38.47 M43.46 76.52 C27.84 62.94, 12.22 49.37, -0.31 38.47 M43.42 65.89 C28.91 53.27, 14.4 40.66, -0.35 27.84 M43.42 65.89 C28.99 53.34, 14.55 40.79, -0.35 27.84 M44.15 55.91 C26.92 40.94, 9.7 25.97, 0.37 17.86 M44.15 55.91 C32.58 45.86, 21.01 35.8, 0.37 17.86 M44.11 45.28 C32.94 35.57, 21.77 25.86, 0.34 7.23 M44.11 45.28 C30.97 33.86, 17.82 22.43, 0.34 7.23 M44.08 34.65 C29.34 21.84, 14.6 9.03, 3.32 -0.77 M44.08 34.65 C34.9 26.67, 25.71 18.69, 3.32 -0.77 M44.04 24.02 C38.44 19.15, 32.83 14.28, 16.12 -0.25 M44.04 24.02 C37.25 18.12, 30.46 12.22, 16.12 -0.25 M44.01 13.39 C40.29 10.16, 36.57 6.93, 28.16 -0.38 M44.01 13.39 C38.58 8.68, 33.15 3.96, 28.16 -0.38 M43.97 2.76 C43.1 2.01, 42.23 1.25, 40.2 -0.52 M43.97 2.76 C42.97 1.89, 41.97 1.02, 40.2 -0.52" stroke="#ced4da" stroke-width="1" fill="none"></path><path d="M0 0 C13.54 0, 27.08 0, 43.47 0 M0 0 C12.96 0, 25.91 0, 43.47 0 M43.47 0 C43.47 26.03, 43.47 52.05, 43.47 81.14 M43.47 0 C43.47 25.01, 43.47 50.02, 43.47 81.14 M43.47 81.14 C27.2 81.14, 10.94 81.14, 0 81.14 M43.47 81.14 C26.18 81.14, 8.88 81.14, 0 81.14 M0 81.14 C0 63.63, 0 46.12, 0 0 M0 81.14 C0 59.42, 0 37.69, 0 0" stroke="#000000" stroke-width="2" fill="none"></path></g><g transform="translate(425.7262469943852 376.426263936116) rotate(0 36.74023860245927 14.579459762880674)"><text x="0" y="0" font-family="Virgil, Segoe UI Emoji" font-size="23.32713562060904px" fill="#000000" text-anchor="start" style="white-space: pre;" direction="ltr" dominant-baseline="text-before-edge">Server</text></g><g stroke-linecap="round"><g transform="translate(445.96297725209604 292.72435377211707) rotate(0 16.662811686793702 1.4210854715202004e-13)"><path d="M0 0 C5.55 0, 27.77 0, 33.33 0 M0 0 C5.55 0, 27.77 0, 33.33 0" stroke="#000000" stroke-width="2" fill="none"></path></g></g><mask></mask><g stroke-linecap="round"><g transform="translate(445.80367391005063 300.1934667343784) rotate(0 16.662811686793702 1.4210854715202004e-13)"><path d="M0 0 C5.55 0, 27.77 0, 33.33 0 M0 0 C5.55 0, 27.77 0, 33.33 0" stroke="#000000" stroke-width="2" fill="none"></path></g></g><mask></mask><g stroke-linecap="round"><g transform="translate(445.7676505916096 307.6625796966408) rotate(0 16.662811686793702 1.4210854715202004e-13)"><path d="M0 0 C5.55 0, 27.77 0, 33.33 0 M0 0 C5.55 0, 27.77 0, 33.33 0" stroke="#000000" stroke-width="2" fill="none"></path></g></g><mask></mask><g stroke-linecap="round"><g transform="translate(445.7676505916096 315.13169265890235) rotate(0 16.662811686793702 1.1368683772161603e-13)"><path d="M0 0 C5.55 0, 27.77 0, 33.33 0 M0 0 C5.55 0, 27.77 0, 33.33 0" stroke="#000000" stroke-width="2" fill="none"></path></g></g><mask></mask><g stroke-linecap="round"><g transform="translate(307.30327433601735 321.8073819598151) rotate(0 65.58166666556986 -0.11924032952236985)"><path d="M0.29 0.41 C22.14 0.23, 109.04 -0.76, 130.86 -0.89 M-1.02 -0.42 C20.67 -0.47, 107.84 0.08, 129.75 0.31" stroke="#1e1e1e" stroke-width="2" fill="none"></path></g><g transform="translate(307.30327433601735 321.8073819598151) rotate(0 65.58166666556986 -0.11924032952236985)"><path d="M106.19 8.67 C113.42 5.77, 118.22 3.96, 129.75 0.31 M106.19 8.67 C113.61 6.69, 119.57 3.3, 129.75 0.31" stroke="#1e1e1e" stroke-width="2" fill="none"></path></g><g transform="translate(307.30327433601735 321.8073819598151) rotate(0 65.58166666556986 -0.11924032952236985)"><path d="M106.32 -8.43 C113.55 -6.56, 118.31 -3.61, 129.75 0.31 M106.32 -8.43 C113.7 -5.42, 119.61 -3.81, 129.75 0.31" stroke="#1e1e1e" stroke-width="2" fill="none"></path></g></g><mask></mask><g stroke-linecap="round"><g transform="translate(308.96812984814835 302.45568174389433) rotate(0 68.92869448475471 -77.63801866445542)"><path d="M0.79 1 C23.74 -24.76, 115.03 -128.17, 138.04 -154.37 M-0.25 0.48 C22.52 -25.62, 114.05 -130.04, 137.19 -156.01" stroke="#1e1e1e" stroke-width="2" fill="none"></path></g><g transform="translate(308.96812984814835 302.45568174389433) rotate(0 68.92869448475471 -77.63801866445542)"><path d="M128.05 -132.74 C132.7 -140.19, 135.57 -146.57, 137.19 -156.01 M128.05 -132.74 C129.68 -137.84, 132.19 -142.63, 137.19 -156.01" stroke="#1e1e1e" stroke-width="2" fill="none"></path></g><g transform="translate(308.96812984814835 302.45568174389433) rotate(0 68.92869448475471 -77.63801866445542)"><path d="M115.23 -144.06 C124.14 -147.85, 131.24 -150.49, 137.19 -156.01 M115.23 -144.06 C119.69 -146.58, 125.07 -148.85, 137.19 -156.01" stroke="#1e1e1e" stroke-width="2" fill="none"></path></g></g><mask></mask><g stroke-linecap="round"><g transform="translate(299.30161031650835 338.50643365278916) rotate(0 70.58243764016811 68.81514779292434)"><path d="M-0.33 0.65 C23.02 23.32, 116.85 114.06, 140.37 137.09 M1.7 -0.06 C25.41 23.29, 119.64 115.49, 142.67 138.34" stroke="#1e1e1e" stroke-width="2" fill="none"></path></g><g transform="translate(299.30161031650835 338.50643365278916) rotate(0 70.58243764016811 68.81514779292434)"><path d="M119.93 127.95 C128.42 130.04, 133.76 134.1, 142.67 138.34 M119.93 127.95 C128.69 132.61, 137.51 136.76, 142.67 138.34" stroke="#1e1e1e" stroke-width="2" fill="none"></path></g><g transform="translate(299.30161031650835 338.50643365278916) rotate(0 70.58243764016811 68.81514779292434)"><path d="M131.92 115.76 C136.66 121.74, 138.13 129.73, 142.67 138.34 M131.92 115.76 C136.06 125.2, 140.14 134.16, 142.67 138.34" stroke="#1e1e1e" stroke-width="2" fill="none"></path></g></g><mask></mask><g stroke-linecap="round"><g transform="translate(92.46648559684456 303.3333435058594) rotate(0 49.666656494140625 1.333343505859375)"><path d="M0.39 -0.63 C16.66 -0.12, 81.61 2.76, 98.3 3.28 M-0.86 1.65 C15.71 1.79, 83.59 1.13, 100.46 1.47" stroke="#1e1e1e" stroke-width="2" fill="none"></path></g><g transform="translate(92.46648559684456 303.3333435058594) rotate(0 49.666656494140625 1.333343505859375)"><path d="M76.94 9.95 C84.27 5.12, 94.72 5.82, 100.46 1.47 M76.94 9.95 C83.3 7.38, 90.98 5.23, 100.46 1.47" stroke="#1e1e1e" stroke-width="2" fill="none"></path></g><g transform="translate(92.46648559684456 303.3333435058594) rotate(0 49.666656494140625 1.333343505859375)"><path d="M77 -7.15 C84.33 -5.88, 94.77 0.91, 100.46 1.47 M77 -7.15 C83.29 -4.84, 90.95 -2.12, 100.46 1.47" stroke="#1e1e1e" stroke-width="2" fill="none"></path></g></g><mask></mask><g stroke-linecap="round"><g transform="translate(496.46648559684456 142.12450901543184) rotate(0 135.99993896484375 82.99259310520245)"><path d="M0 0.49 C45.5 27.93, 226.91 138.24, 272.38 165.63 M-1.46 -0.3 C43.98 27.83, 225.98 139.34, 271.64 166.98" stroke="#1e1e1e" stroke-width="2" fill="none"></path></g><g transform="translate(496.46648559684456 142.12450901543184) rotate(0 135.99993896484375 82.99259310520245)"><path d="M247.13 162.05 C254.06 163.92, 258.73 165.87, 271.64 166.98 M247.13 162.05 C251.75 162.65, 257.5 164.78, 271.64 166.98" stroke="#1e1e1e" stroke-width="2" fill="none"></path></g><g transform="translate(496.46648559684456 142.12450901543184) rotate(0 135.99993896484375 82.99259310520245)"><path d="M256.03 147.45 C260.88 152.93, 263.34 158.5, 271.64 166.98 M256.03 147.45 C258.76 151.09, 262.69 156.2, 271.64 166.98" stroke="#1e1e1e" stroke-width="2" fill="none"></path></g></g><mask></mask><g stroke-linecap="round"><g transform="translate(487.13323364371956 328.68702562167937) rotate(0 139.66656494140625 -6.718907915851787)"><path d="M-0.13 -0.85 C46.34 -3.3, 232.57 -12.01, 279.31 -14.05 M-1.66 1.31 C44.62 -1.04, 231.4 -10.07, 278.35 -12.83" stroke="#1e1e1e" stroke-width="2" fill="none"></path></g><g transform="translate(487.13323364371956 328.68702562167937) rotate(0 139.66656494140625 -6.718907915851787)"><path d="M255.34 -3.05 C261.63 -6.36, 269.79 -7.97, 278.35 -12.83 M255.34 -3.05 C262.51 -6.49, 271.14 -8.68, 278.35 -12.83" stroke="#1e1e1e" stroke-width="2" fill="none"></path></g><g transform="translate(487.13323364371956 328.68702562167937) rotate(0 139.66656494140625 -6.718907915851787)"><path d="M254.44 -20.13 C261.12 -17.68, 269.58 -13.54, 278.35 -12.83 M254.44 -20.13 C262.06 -17.96, 270.98 -14.55, 278.35 -12.83" stroke="#1e1e1e" stroke-width="2" fill="none"></path></g></g><mask></mask><g stroke-linecap="round"><g transform="translate(490.46648559684456 481.25372999258843) rotate(0 137.6666259765625 -72.18109805797599)"><path d="M-1.13 0.24 C44.54 -23.59, 228.66 -119.76, 274.9 -143.72 M0.47 -0.68 C45.87 -24.79, 227.79 -121.38, 273.72 -145.5" stroke="#1e1e1e" stroke-width="2" fill="none"></path></g><g transform="translate(490.46648559684456 481.25372999258843) rotate(0 137.6666259765625 -72.18109805797599)"><path d="M256.95 -126.97 C263.72 -134.45, 270.66 -139.02, 273.72 -145.5 M256.95 -126.97 C263.02 -133, 270.06 -141.6, 273.72 -145.5" stroke="#1e1e1e" stroke-width="2" fill="none"></path></g><g transform="translate(490.46648559684456 481.25372999258843) rotate(0 137.6666259765625 -72.18109805797599)"><path d="M248.96 -142.09 C258.62 -143.85, 268.54 -142.78, 273.72 -145.5 M248.96 -142.09 C258.05 -142.57, 268.06 -145.56, 273.72 -145.5" stroke="#1e1e1e" stroke-width="2" fill="none"></path></g></g><mask></mask><g stroke-linecap="round" transform="translate(581.1331115734071 10) rotate(0 68 65)"><path d="M7.86 8.16 C7.86 8.16, 7.86 8.16, 7.86 8.16 M7.86 8.16 C7.86 8.16, 7.86 8.16, 7.86 8.16 M1.43 27.75 C7.65 16.81, 16.69 7.69, 24.4 1.33 M1.43 27.75 C10.83 18.04, 18.86 6.82, 24.4 1.33 M0.26 41.3 C15.07 24.9, 27.16 7.56, 36.34 -0.21 M0.26 41.3 C13.83 25.85, 25.8 12.84, 36.34 -0.21 M0.39 53.34 C12.86 38.1, 28.96 20.76, 46.31 0.51 M0.39 53.34 C10.59 42.63, 19.58 30.84, 46.31 0.51 M0.52 65.38 C14.98 47.96, 29.45 33.47, 56.94 0.47 M0.52 65.38 C21.52 39.82, 43.62 15.66, 56.94 0.47 M0 78.17 C14.34 60.86, 27.08 45.73, 67.57 0.44 M0 78.17 C24.59 50.67, 49 22.24, 67.57 0.44 M0.13 90.22 C26.44 61.81, 53.59 30.01, 78.2 0.41 M0.13 90.22 C26.48 59.36, 52.68 29.07, 78.2 0.41 M0.92 101.5 C21.14 77.79, 41.97 53.47, 88.83 0.37 M0.92 101.5 C34.82 62.01, 69.41 22.99, 88.83 0.37 M2.37 112.03 C24.08 85.07, 50.03 57.62, 99.46 0.34 M2.37 112.03 C39.04 67.85, 78.62 24.59, 99.46 0.34 M6.44 119.55 C43.18 78.61, 76.85 37.48, 110.09 0.3 M6.44 119.55 C44.81 74.96, 84.2 30.54, 110.09 0.3 M12.47 124.79 C44.75 85.16, 79.18 49.74, 118.1 3.29 M12.47 124.79 C36.67 97.44, 60.78 68.69, 118.1 3.29 M19.82 128.53 C56.32 83.77, 96.86 41.28, 125.45 7.02 M19.82 128.53 C44.68 100.9, 69.57 73.67, 125.45 7.02 M29.14 130.01 C51.55 100.15, 77.58 72.97, 131.49 12.27 M29.14 130.01 C51.78 103.5, 72.84 79.07, 131.49 12.27 M39.77 129.97 C61.53 106.48, 78.85 81.28, 134.9 20.54 M39.77 129.97 C61.98 102.36, 85.83 74.49, 134.9 20.54 M50.4 129.94 C72.51 102.98, 96.77 78.31, 136.35 31.07 M50.4 129.94 C67.82 109.81, 85.35 89.66, 136.35 31.07 M61.03 129.9 C79.13 108.29, 97.45 88.51, 136.48 43.11 M61.03 129.9 C84.45 104.18, 106.61 77.16, 136.48 43.11 M71.01 130.62 C85.6 112.38, 99.04 95.94, 136.61 55.15 M71.01 130.62 C95.49 102.96, 118 73.6, 136.61 55.15 M81.64 130.59 C96.17 114.87, 112.09 96.47, 136.09 67.95 M81.64 130.59 C96.64 114.11, 110.88 97.47, 136.09 67.95 M92.27 130.56 C104.31 116.21, 116.25 102.87, 136.22 79.99 M92.27 130.56 C106.36 112.72, 123.13 97.02, 136.22 79.99 M102.9 130.52 C111.9 123.12, 118.24 115.95, 136.35 92.03 M102.9 130.52 C116.33 115.58, 130.2 100.05, 136.35 92.03 M114.84 128.98 C124.63 121.51, 131.65 109.63, 135.83 104.83 M114.84 128.98 C118.87 122.75, 124.35 117.32, 135.83 104.83" stroke="#fab005" stroke-width="1" fill="none"></path><path d="M32 0 C56.6 -1.43, 78.36 -1.6, 104 0 M32 0 C54.96 -0.21, 79.1 0.13, 104 0 M104 0 C127.04 -1.26, 134.47 12.26, 136 32 M104 0 C127.48 -1.93, 135.85 9.91, 136 32 M136 32 C138.28 45.17, 135.28 62, 136 98 M136 32 C136.2 46.85, 135.44 62.2, 136 98 M136 98 C135.21 118.13, 126.78 129.49, 104 130 M136 98 C133.86 118.73, 123.42 131.68, 104 130 M104 130 C80.06 128.75, 54.26 131.1, 32 130 M104 130 C76.03 128.7, 49.07 128.97, 32 130 M32 130 C10.94 129.33, 0.09 119.44, 0 98 M32 130 C12.23 130.19, -0.4 118.39, 0 98 M0 98 C1.74 74.34, 1.8 54.37, 0 32 M0 98 C-0.04 72.98, -1.02 48.49, 0 32 M0 32 C1.21 9.91, 12.27 1.34, 32 0 M0 32 C0.9 10.92, 8.59 1.28, 32 0" stroke="#1e1e1e" stroke-width="2" fill="none"></path></g><g transform="translate(620.5931335460633 62.5) rotate(0 28.53997802734375 12.5)"><text x="28.53997802734375" y="0" font-family="Virgil, Segoe UI Emoji" font-size="20px" fill="#1e1e1e" text-anchor="middle" style="white-space: pre;" direction="ltr" dominant-baseline="text-before-edge">Cache</text></g><g stroke-linecap="round"><g transform="translate(491.79985962028206 139.33334350585938) rotate(0 43.33331298828125 -29.666656494140625)"><path d="M0.47 -1.02 C15.16 -10.69, 73.02 -48.63, 87.42 -58.35 M-0.74 1.07 C13.93 -8.91, 72.38 -50.1, 86.86 -59.95" stroke="#1e1e1e" stroke-width="2" fill="none"></path></g><g transform="translate(491.79985962028206 139.33334350585938) rotate(0 43.33331298828125 -29.666656494140625)"><path d="M72.44 -39.53 C74.22 -43.2, 81 -49.03, 86.86 -59.95 M72.44 -39.53 C77.56 -46.68, 80.96 -52.62, 86.86 -59.95" stroke="#1e1e1e" stroke-width="2" fill="none"></path></g><g transform="translate(491.79985962028206 139.33334350585938) rotate(0 43.33331298828125 -29.666656494140625)"><path d="M62.69 -53.58 C66.76 -53.94, 75.86 -56.43, 86.86 -59.95 M62.69 -53.58 C70.62 -56.6, 76.94 -58.34, 86.86 -59.95" stroke="#1e1e1e" stroke-width="2" fill="none"></path></g></g><mask></mask><g stroke-linecap="round"><g transform="translate(487.13311157340706 285.3333435058594) rotate(0 44.3333740234375 -100)"><path d="M-0.88 -0.72 C13.64 -33.97, 73.28 -167.22, 88.24 -200.34 M0.86 1.52 C15.08 -31.48, 72.5 -165.15, 87.07 -198.98" stroke="#1e1e1e" stroke-width="2" fill="none"></path></g><g transform="translate(487.13311157340706 285.3333435058594) rotate(0 44.3333740234375 -100)"><path d="M85.65 -174.02 C85.19 -184.62, 86.38 -193.38, 87.07 -198.98 M85.65 -174.02 C86.91 -183.07, 86.15 -190.84, 87.07 -198.98" stroke="#1e1e1e" stroke-width="2" fill="none"></path></g><g transform="translate(487.13311157340706 285.3333435058594) rotate(0 44.3333740234375 -100)"><path d="M69.94 -180.78 C75.67 -188.58, 83.09 -194.66, 87.07 -198.98 M69.94 -180.78 C76.6 -187.63, 81.27 -193.06, 87.07 -198.98" stroke="#1e1e1e" stroke-width="2" fill="none"></path></g></g><mask></mask><g stroke-linecap="round"><g transform="translate(485.79985962028206 452.6667175292969) rotate(0 45.33331298828125 -170.00001525878906)"><path d="M1.02 0.52 C16.31 -55.99, 76.07 -282.1, 91.21 -338.85 M0.1 -0.25 C15.32 -57.08, 75.28 -283.97, 90.55 -340.37" stroke="#1e1e1e" stroke-width="2" fill="none"></path></g><g transform="translate(485.79985962028206 452.6667175292969) rotate(0 45.33331298828125 -170.00001525878906)"><path d="M92.74 -315.47 C93 -321.02, 93.48 -326.41, 90.55 -340.37 M92.74 -315.47 C92.51 -322.39, 91.68 -329.72, 90.55 -340.37" stroke="#1e1e1e" stroke-width="2" fill="none"></path></g><g transform="translate(485.79985962028206 452.6667175292969) rotate(0 45.33331298828125 -170.00001525878906)"><path d="M76.22 -319.88 C80.78 -324.43, 85.55 -328.67, 90.55 -340.37 M76.22 -319.88 C80.98 -325.48, 85.14 -331.49, 90.55 -340.37" stroke="#1e1e1e" stroke-width="2" fill="none"></path></g></g><mask></mask></svg>