<svg version="1.1" xmlns="http://www.w3.org/2000/svg" viewBox="0 0 1038.2997375499694 514.6073616408497" width="1038.2997375499694" height="514.6073616408497" filter="invert(93%) hue-rotate(180deg)">
  <!-- svg-source:excalidraw -->
  
  <defs>
    <style class="style-fonts">
      @font-face {
        font-family: "Virgil";
        src: url("https://excalidraw.com/Virgil.woff2");
      }
      @font-face {
        font-family: "Cascadia";
        src: url("https://excalidraw.com/Cascadia.woff2");
      }
      @font-face {
        font-family: "Assistant";
        src: url("https://excalidraw.com/Assistant-Regular.woff2");
      }
    </style>
    
  </defs>
  <g stroke-linecap="round" transform="translate(909.4663635265321 139.6074074172169) rotate(0 57.66668701171875 54.66667175292969)"><path d="M3.54 11.03 C3.54 11.03, 3.54 11.03, 3.54 11.03 M3.54 11.03 C3.54 11.03, 3.54 11.03, 3.54 11.03 M0.39 26.84 C6.87 20.54, 14.49 11.98, 22.7 1.18 M0.39 26.84 C6.34 20.01, 11.82 14.9, 22.7 1.18 M0.53 38.88 C10.1 28.04, 16.08 21.35, 33.98 0.39 M0.53 38.88 C9.39 28.7, 17.82 19.41, 33.98 0.39 M0.66 50.92 C15.98 34.68, 32.68 14.48, 44.61 0.36 M0.66 50.92 C18.67 29.77, 36.19 11.06, 44.61 0.36 M0.79 62.96 C13.35 49.87, 23.76 36.53, 55.24 0.32 M0.79 62.96 C11.19 50.2, 22.35 37.05, 55.24 0.32 M0.93 75 C22.23 52.09, 42.39 27.16, 65.87 0.29 M0.93 75 C19.77 52.55, 39.26 32.09, 65.87 0.29 M1.06 87.05 C30.29 53.73, 57.22 23.66, 76.5 0.25 M1.06 87.05 C23.39 60.3, 46.28 35.71, 76.5 0.25 M3.16 96.82 C25.72 71.31, 48.53 46.15, 87.14 0.22 M3.16 96.82 C22.18 73.57, 42.41 51.9, 87.14 0.22 M8.54 102.83 C40.35 65.49, 75.21 27.68, 96.45 1.69 M8.54 102.83 C34.76 71.82, 61.77 41.82, 96.45 1.69 M15.23 107.32 C40.67 79, 65.87 51.7, 105.11 3.92 M15.23 107.32 C36.57 81.44, 57.58 56.03, 105.11 3.92 M23.9 109.55 C51.56 76.53, 80.59 43.06, 110.5 9.93 M23.9 109.55 C47.93 81.26, 72.07 54.07, 110.5 9.93 M34.53 109.51 C62.71 74.41, 93.46 41.66, 113.91 18.19 M34.53 109.51 C60.4 80.37, 86.79 50.91, 113.91 18.19 M45.16 109.48 C66.26 89.26, 83.77 66.21, 116.01 27.97 M45.16 109.48 C67.08 81.84, 90.02 56.52, 116.01 27.97 M55.79 109.45 C68.7 95.43, 81.01 79.36, 116.14 40.01 M55.79 109.45 C68.93 93.62, 83.92 76.48, 116.14 40.01 M66.42 109.41 C82.3 92.81, 92.5 77.26, 115.62 52.81 M66.42 109.41 C85.78 87.52, 105.14 64.39, 115.62 52.81 M77.05 109.38 C93.56 92.82, 106.17 72.93, 115.75 64.85 M77.05 109.38 C87.93 96.89, 99.5 82.83, 115.75 64.85 M87.02 110.1 C99.25 96, 108.43 85.9, 115.89 76.89 M87.02 110.1 C96.11 99.72, 106.72 87.39, 115.89 76.89 M98.96 108.55 C103.68 101.22, 108.57 95.24, 114.05 91.19 M98.96 108.55 C104.24 102.56, 110.28 94.9, 114.05 91.19" stroke="#fab005" stroke-width="1" fill="none"></path><path d="M27.33 0 C42.5 -2.27, 56.85 -0.48, 88 0 M27.33 0 C41.98 -1.48, 57.9 -1.15, 88 0 M88 0 C104.81 1.94, 116.33 11.03, 115.33 27.33 M88 0 C104.97 1.49, 114.37 8.44, 115.33 27.33 M115.33 27.33 C114.76 38.02, 114.2 50.9, 115.33 82 M115.33 27.33 C114.31 47.19, 114.53 66.59, 115.33 82 M115.33 82 C116.67 101.75, 107.56 107.77, 88 109.33 M115.33 82 C113.68 98.7, 104.5 107.56, 88 109.33 M88 109.33 C75.61 108.43, 61.09 107.72, 27.33 109.33 M88 109.33 C67.34 109.55, 46.94 110.56, 27.33 109.33 M27.33 109.33 C7.34 109.99, -0.02 98.53, 0 82 M27.33 109.33 C10.71 108.96, -0.84 99.33, 0 82 M0 82 C1.71 67.85, -1.88 50.97, 0 27.33 M0 82 C-0.92 64.89, -0.76 48.86, 0 27.33 M0 27.33 C-1.71 10.34, 9.47 0.07, 27.33 0 M0 27.33 C0.14 7.5, 7.2 -1.25, 27.33 0" stroke="#1e1e1e" stroke-width="2" fill="none"></path></g><g transform="translate(952.0630584728211 181.7740791701466) rotate(0 15.069992065429688 12.5)"><text x="15.069992065429688" y="0" font-family="Virgil, Segoe UI Emoji" font-size="20px" fill="#1e1e1e" text-anchor="middle" style="white-space: pre;" direction="ltr" dominant-baseline="text-before-edge">DB</text></g><g stroke-linecap="round" transform="translate(519.1588928410953 10) rotate(0 21.73410220016592 40.57032410697619)"><path d="M0 0 C0 0, 0 0, 0 0 M0 0 C0 0, 0 0, 0 0 M0.13 12.04 C2.87 8.9, 5.6 5.75, 10.63 -0.03 M0.13 12.04 C2.8 8.97, 5.47 5.9, 10.63 -0.03 M0.27 24.08 C8.63 14.45, 17 4.83, 21.26 -0.07 M0.27 24.08 C6.9 16.46, 13.52 8.83, 21.26 -0.07 M-0.26 36.88 C6.62 28.97, 13.49 21.06, 31.89 -0.1 M-0.26 36.88 C10.46 24.55, 21.18 12.22, 31.89 -0.1 M-0.12 48.92 C12.72 34.14, 25.56 19.37, 42.52 -0.14 M-0.12 48.92 C12.31 34.62, 24.74 20.32, 42.52 -0.14 M0.01 60.96 C11.05 48.26, 22.08 35.56, 43.31 11.15 M0.01 60.96 C14.48 44.31, 28.95 27.66, 43.31 11.15 M0.14 73 C8.81 63.03, 17.47 53.07, 43.44 23.19 M0.14 73 C14.63 56.33, 29.12 39.67, 43.44 23.19 M3.56 81.27 C16.51 66.37, 29.46 51.47, 43.58 35.23 M3.56 81.27 C14.08 69.16, 24.6 57.06, 43.58 35.23 M13.53 81.99 C19.74 74.85, 25.94 67.71, 43.71 47.27 M13.53 81.99 C24.27 69.63, 35.01 57.28, 43.71 47.27 M24.16 81.95 C31.06 74.01, 37.96 66.07, 43.84 59.31 M24.16 81.95 C29.77 75.5, 35.37 69.05, 43.84 59.31 M34.79 81.92 C37.51 78.79, 40.23 75.66, 43.32 72.11 M34.79 81.92 C37.56 78.73, 40.34 75.54, 43.32 72.11 M-0.18 80.99 C-0.18 80.99, -0.18 80.99, -0.18 80.99 M-0.18 80.99 C-0.18 80.99, -0.18 80.99, -0.18 80.99 M11.86 80.85 C9.07 78.42, 6.27 75.99, -0.21 70.36 M11.86 80.85 C8.58 78, 5.29 75.14, -0.21 70.36 M24.66 81.38 C15.79 73.67, 6.93 65.96, -0.24 59.73 M24.66 81.38 C18.02 75.6, 11.38 69.83, -0.24 59.73 M36.7 81.24 C24.65 70.77, 12.59 60.29, -0.28 49.1 M36.7 81.24 C26.14 72.06, 15.57 62.88, -0.28 49.1 M43.46 76.52 C28.19 63.25, 12.93 49.98, -0.31 38.47 M43.46 76.52 C27.95 63.04, 12.44 49.56, -0.31 38.47 M43.42 65.89 C31.39 55.43, 19.37 44.97, -0.35 27.84 M43.42 65.89 C29.69 53.95, 15.96 42.01, -0.35 27.84 M44.15 55.91 C29.74 43.4, 15.34 30.88, 0.37 17.86 M44.15 55.91 C27.06 41.06, 9.97 26.21, 0.37 17.86 M44.11 45.28 C33.53 36.08, 22.94 26.88, 0.34 7.23 M44.11 45.28 C28.18 31.43, 12.24 17.58, 0.34 7.23 M44.08 34.65 C28.57 21.17, 13.06 7.69, 3.32 -0.77 M44.08 34.65 C30.33 22.71, 16.59 10.76, 3.32 -0.77 M44.04 24.02 C36.2 17.2, 28.35 10.38, 16.12 -0.25 M44.04 24.02 C35.57 16.66, 27.1 9.29, 16.12 -0.25 M44.01 13.39 C38.02 8.19, 32.03 2.98, 28.16 -0.38 M44.01 13.39 C38.99 9.04, 33.98 4.68, 28.16 -0.38 M43.97 2.76 C42.7 1.66, 41.43 0.55, 40.2 -0.52 M43.97 2.76 C43 1.92, 42.02 1.07, 40.2 -0.52" stroke="#ced4da" stroke-width="1" fill="none"></path><path d="M0 0 C14.09 0, 28.17 0, 43.47 0 M0 0 C16.38 0, 32.75 0, 43.47 0 M43.47 0 C43.47 16.96, 43.47 33.93, 43.47 81.14 M43.47 0 C43.47 19.04, 43.47 38.08, 43.47 81.14 M43.47 81.14 C26.35 81.14, 9.23 81.14, 0 81.14 M43.47 81.14 C33.88 81.14, 24.29 81.14, 0 81.14 M0 81.14 C0 61.25, 0 41.36, 0 0 M0 81.14 C0 60.81, 0 40.49, 0 0" stroke="#000000" stroke-width="2" fill="none"></path></g><g transform="translate(504.152756438801 102.67813440971213) rotate(0 36.74023860245927 14.579459762880646)"><text x="0" y="0" font-family="Virgil, Segoe UI Emoji" font-size="23.32713562060904px" fill="#000000" text-anchor="start" style="white-space: pre;" direction="ltr" dominant-baseline="text-before-edge">Server</text></g><g stroke-linecap="round"><g transform="translate(524.3894866965117 18.976224245713183) rotate(0 16.662811686793702 1.4210854715202004e-13)"><path d="M0 0 C5.55 0, 27.77 0, 33.33 0 M0 0 C5.55 0, 27.77 0, 33.33 0" stroke="#000000" stroke-width="2" fill="none"></path></g></g><mask></mask><g stroke-linecap="round"><g transform="translate(524.2301833544665 26.44533720797449) rotate(0 16.662811686793702 1.4210854715202004e-13)"><path d="M0 0 C5.55 0, 27.77 0, 33.33 0 M0 0 C5.55 0, 27.77 0, 33.33 0" stroke="#000000" stroke-width="2" fill="none"></path></g></g><mask></mask><g stroke-linecap="round"><g transform="translate(524.1941600360254 33.91445017023682) rotate(0 16.662811686793702 1.4210854715202004e-13)"><path d="M0 0 C5.55 0, 27.77 0, 33.33 0 M0 0 C5.55 0, 27.77 0, 33.33 0" stroke="#000000" stroke-width="2" fill="none"></path></g></g><mask></mask><g stroke-linecap="round"><g transform="translate(524.1941600360254 41.38356313249858) rotate(0 16.662811686793702 1.4210854715202004e-13)"><path d="M0 0 C5.55 0, 27.77 0, 33.33 0 M0 0 C5.55 0, 27.77 0, 33.33 0" stroke="#000000" stroke-width="2" fill="none"></path></g></g><mask></mask><g transform="translate(23.299615479657064 269.07053526114316) rotate(0 28.5 12.5)"><text x="0" y="0" font-family="Virgil, Segoe UI Emoji" font-size="20px" fill="#000000" text-anchor="start" style="white-space: pre;" direction="ltr" dominant-baseline="text-before-edge">Users</text></g><g stroke-linecap="round" transform="translate(63.74243241887655 201.81069192680627) rotate(0 9.875171816384807 8.640775339336727)"><path d="M2.19 3.23 C2.19 3.23, 2.19 3.23, 2.19 3.23 M2.19 3.23 C2.19 3.23, 2.19 3.23, 2.19 3.23 M2.98 14.51 C6.76 10.16, 10.54 5.81, 14.79 0.93 M2.98 14.51 C6.49 10.47, 10 6.43, 14.79 0.93 M10.33 18.25 C12.94 15.24, 15.56 12.23, 19.51 7.69 M10.33 18.25 C13.99 14.04, 17.66 9.82, 19.51 7.69 M3.77 15.47 C3.77 15.47, 3.77 15.47, 3.77 15.47 M3.77 15.47 C3.77 15.47, 3.77 15.47, 3.77 15.47 M15.81 15.34 C10.69 10.88, 5.56 6.43, 2.23 3.53 M15.81 15.34 C11.1 11.24, 6.38 7.14, 2.23 3.53 M20.31 8.65 C17.01 5.78, 13.7 2.9, 9.74 -0.54 M20.31 8.65 C18.02 6.66, 15.74 4.67, 9.74 -0.54" stroke="#ced4da" stroke-width="1" fill="none"></path><path d="M19.75 8.64 C19.75 9.14, 19.7 9.65, 19.6 10.14 C19.5 10.63, 19.35 11.13, 19.15 11.6 C18.96 12.07, 18.71 12.53, 18.43 12.96 C18.14 13.39, 17.81 13.81, 17.44 14.19 C17.07 14.58, 16.66 14.94, 16.22 15.26 C15.78 15.58, 15.31 15.87, 14.81 16.12 C14.32 16.37, 13.79 16.59, 13.25 16.76 C12.72 16.93, 12.15 17.06, 11.59 17.15 C11.03 17.24, 10.45 17.28, 9.88 17.28 C9.3 17.28, 8.72 17.24, 8.16 17.15 C7.6 17.06, 7.03 16.93, 6.5 16.76 C5.96 16.59, 5.43 16.37, 4.94 16.12 C4.44 15.87, 3.97 15.58, 3.53 15.26 C3.09 14.94, 2.68 14.58, 2.31 14.19 C1.94 13.81, 1.61 13.39, 1.32 12.96 C1.04 12.53, 0.79 12.07, 0.6 11.6 C0.4 11.13, 0.25 10.63, 0.15 10.14 C0.05 9.65, 0 9.14, 0 8.64 C0 8.14, 0.05 7.63, 0.15 7.14 C0.25 6.65, 0.4 6.16, 0.6 5.69 C0.79 5.22, 1.04 4.75, 1.32 4.32 C1.61 3.89, 1.94 3.47, 2.31 3.09 C2.68 2.7, 3.09 2.34, 3.53 2.02 C3.97 1.7, 4.44 1.41, 4.94 1.16 C5.43 0.91, 5.96 0.69, 6.5 0.52 C7.03 0.35, 7.6 0.22, 8.16 0.13 C8.72 0.04, 9.3 0, 9.88 0 C10.45 0, 11.03 0.04, 11.59 0.13 C12.15 0.22, 12.72 0.35, 13.25 0.52 C13.79 0.69, 14.32 0.91, 14.81 1.16 C15.31 1.41, 15.78 1.7, 16.22 2.02 C16.66 2.34, 17.07 2.7, 17.44 3.09 C17.81 3.47, 18.14 3.89, 18.43 4.32 C18.71 4.75, 18.96 5.22, 19.15 5.69 C19.35 6.16, 19.5 6.65, 19.6 7.14 C19.7 7.63, 19.73 8.39, 19.75 8.64 C19.78 8.89, 19.78 8.39, 19.75 8.64" stroke="#000000" stroke-width="2" fill="none"></path></g><g stroke-linecap="round" transform="translate(20.558758294554195 202.39375971044035) rotate(0 9.875171816384807 8.640775339336727)"><path d="M2.19 3.23 C2.19 3.23, 2.19 3.23, 2.19 3.23 M2.19 3.23 C2.19 3.23, 2.19 3.23, 2.19 3.23 M2.98 14.51 C7.18 9.67, 11.39 4.84, 14.79 0.93 M2.98 14.51 C6.45 10.52, 9.92 6.53, 14.79 0.93 M10.33 18.25 C12.35 15.92, 14.38 13.6, 19.51 7.69 M10.33 18.25 C13.26 14.88, 16.19 11.51, 19.51 7.69 M3.77 15.47 C3.77 15.47, 3.77 15.47, 3.77 15.47 M3.77 15.47 C3.77 15.47, 3.77 15.47, 3.77 15.47 M15.81 15.34 C10.83 11.01, 5.85 6.68, 2.23 3.53 M15.81 15.34 C12.74 12.67, 9.66 9.99, 2.23 3.53 M20.31 8.65 C16.1 4.99, 11.9 1.34, 9.74 -0.54 M20.31 8.65 C17.97 6.61, 15.63 4.58, 9.74 -0.54" stroke="#ced4da" stroke-width="1" fill="none"></path><path d="M19.75 8.64 C19.75 9.14, 19.7 9.65, 19.6 10.14 C19.5 10.63, 19.35 11.13, 19.15 11.6 C18.96 12.07, 18.71 12.53, 18.43 12.96 C18.14 13.39, 17.81 13.81, 17.44 14.19 C17.07 14.58, 16.66 14.94, 16.22 15.26 C15.78 15.58, 15.31 15.87, 14.81 16.12 C14.32 16.37, 13.79 16.59, 13.25 16.76 C12.72 16.93, 12.15 17.06, 11.59 17.15 C11.03 17.24, 10.45 17.28, 9.88 17.28 C9.3 17.28, 8.72 17.24, 8.16 17.15 C7.6 17.06, 7.03 16.93, 6.5 16.76 C5.96 16.59, 5.43 16.37, 4.94 16.12 C4.44 15.87, 3.97 15.58, 3.53 15.26 C3.09 14.94, 2.68 14.58, 2.31 14.19 C1.94 13.81, 1.61 13.39, 1.32 12.96 C1.04 12.53, 0.79 12.07, 0.6 11.6 C0.4 11.13, 0.25 10.63, 0.15 10.14 C0.05 9.65, 0 9.14, 0 8.64 C0 8.14, 0.05 7.63, 0.15 7.14 C0.25 6.65, 0.4 6.16, 0.6 5.69 C0.79 5.22, 1.04 4.75, 1.32 4.32 C1.61 3.89, 1.94 3.47, 2.31 3.09 C2.68 2.7, 3.09 2.34, 3.53 2.02 C3.97 1.7, 4.44 1.41, 4.94 1.16 C5.43 0.91, 5.96 0.69, 6.5 0.52 C7.03 0.35, 7.6 0.22, 8.16 0.13 C8.72 0.04, 9.3 0, 9.88 0 C10.45 0, 11.03 0.04, 11.59 0.13 C12.15 0.22, 12.72 0.35, 13.25 0.52 C13.79 0.69, 14.32 0.91, 14.81 1.16 C15.31 1.41, 15.78 1.7, 16.22 2.02 C16.66 2.34, 17.07 2.7, 17.44 3.09 C17.81 3.47, 18.14 3.89, 18.43 4.32 C18.71 4.75, 18.96 5.22, 19.15 5.69 C19.35 6.16, 19.5 6.65, 19.6 7.14 C19.7 7.63, 19.73 8.39, 19.75 8.64 C19.78 8.89, 19.78 8.39, 19.75 8.64" stroke="#000000" stroke-width="2" fill="none"></path></g><g stroke-linecap="round"><g transform="translate(31.010578301818555 261.32479544808996) rotate(0 20.903001066267336 -18.613522148782124)" fill-rule="evenodd"><path d="M11.93 -33.36 C11.93 -33.36, 11.93 -33.36, 11.93 -33.36 M11.93 -33.36 C11.93 -33.36, 11.93 -33.36, 11.93 -33.36 M1.56 -9.24 C6.77 -15.23, 11.97 -21.22, 25.18 -36.41 M1.56 -9.24 C9.09 -17.91, 16.63 -26.57, 25.18 -36.41 M4.32 -0.22 C11.49 -8.47, 18.67 -16.72, 31.22 -31.16 M4.32 -0.22 C10.23 -7.03, 16.15 -13.83, 31.22 -31.16 M14.95 -0.26 C22.89 -9.39, 30.83 -18.52, 36.6 -25.16 M14.95 -0.26 C19.85 -5.9, 24.75 -11.54, 36.6 -25.16 M25.58 -0.29 C31.58 -7.2, 37.59 -14.11, 40.67 -17.65 M25.58 -0.29 C28.92 -4.14, 32.27 -7.98, 40.67 -17.65 M36.21 -0.32 C39.16 -3.72, 42.11 -7.11, 44.08 -9.38 M36.21 -0.32 C38.66 -3.14, 41.1 -5.95, 44.08 -9.38 M0 0 C0 0, 0 0, 0 0 M0 0 C0 0, 0 0, 0 0 M12.04 -0.13 C8.94 -2.83, 5.84 -5.53, 1.47 -9.32 M12.04 -0.13 C8.68 -3.06, 5.31 -5.98, 1.47 -9.32 M24.08 -0.27 C17.1 -6.33, 10.12 -12.4, 2.95 -18.64 M24.08 -0.27 C18.18 -5.39, 12.28 -10.52, 2.95 -18.64 M35.37 -1.06 C24.66 -10.36, 13.96 -19.66, 5.93 -26.64 M35.37 -1.06 C24.9 -10.15, 14.43 -19.25, 5.93 -26.64 M42.88 -5.12 C34.6 -12.33, 26.31 -19.53, 11.18 -32.68 M42.88 -5.12 C33.46 -13.31, 24.05 -21.5, 11.18 -32.68 M41.34 -17.07 C36.46 -21.31, 31.58 -25.55, 18.7 -36.75 M41.34 -17.07 C34.83 -22.73, 28.32 -28.38, 18.7 -36.75" stroke="#ced4da" stroke-width="1" fill="none"></path><path d="M0 0 C0.78 -4.11, 1.34 -18.46, 4.68 -24.67 C8.03 -30.87, 14.94 -36.78, 20.07 -37.23 C25.2 -37.68, 31.83 -33.14, 35.45 -27.36 C39.07 -21.58, 47.71 -7.12, 41.81 -2.56 C35.9 2, 6.97 -0.43, 0 0 M0 0 C0.78 -4.11, 1.34 -18.46, 4.68 -24.67 C8.03 -30.87, 14.94 -36.78, 20.07 -37.23 C25.2 -37.68, 31.83 -33.14, 35.45 -27.36 C39.07 -21.58, 47.71 -7.12, 41.81 -2.56 C35.9 2, 6.97 -0.43, 0 0" stroke="#000000" stroke-width="2" fill="none"></path></g></g><mask></mask><g stroke-linecap="round" transform="translate(41.49670045262849 204.75028412825293) rotate(0 10.702336545928858 9.364544477687787)"><path d="M2.43 3.43 C2.43 3.43, 2.43 3.43, 2.43 3.43 M2.43 3.43 C2.43 3.43, 2.43 3.43, 2.43 3.43 M2.56 15.48 C7.53 9.76, 12.5 4.04, 15.02 1.14 M2.56 15.48 C6.84 10.55, 11.12 5.63, 15.02 1.14 M10.57 18.46 C12.93 15.74, 15.29 13.02, 21.06 6.38 M10.57 18.46 C12.8 15.89, 15.03 13.33, 21.06 6.38 M4.02 16.71 C4.02 16.71, 4.02 16.71, 4.02 16.71 M4.02 16.71 C4.02 16.71, 4.02 16.71, 4.02 16.71 M16.82 17.23 C13.37 14.24, 9.93 11.25, 1.72 4.11 M16.82 17.23 C10.83 12.03, 4.85 6.83, 1.72 4.11 M21.31 10.54 C18.6 8.18, 15.88 5.82, 9.24 0.04 M21.31 10.54 C18.71 8.28, 16.11 6.02, 9.24 0.04" stroke="#ced4da" stroke-width="1" fill="none"></path><path d="M21.4 9.36 C21.4 9.91, 21.35 10.46, 21.24 10.99 C21.13 11.52, 20.97 12.06, 20.76 12.57 C20.55 13.08, 20.28 13.58, 19.97 14.05 C19.66 14.52, 19.3 14.97, 18.9 15.38 C18.5 15.8, 18.06 16.19, 17.58 16.54 C17.11 16.89, 16.59 17.2, 16.05 17.47 C15.52 17.75, 14.94 17.98, 14.36 18.16 C13.78 18.35, 13.17 18.49, 12.56 18.59 C11.95 18.68, 11.32 18.73, 10.7 18.73 C10.08 18.73, 9.45 18.68, 8.84 18.59 C8.23 18.49, 7.62 18.35, 7.04 18.16 C6.46 17.98, 5.89 17.75, 5.35 17.47 C4.81 17.2, 4.3 16.89, 3.82 16.54 C3.35 16.19, 2.9 15.8, 2.5 15.38 C2.11 14.97, 1.74 14.52, 1.43 14.05 C1.12 13.58, 0.86 13.08, 0.65 12.57 C0.43 12.06, 0.27 11.52, 0.16 10.99 C0.06 10.46, 0 9.91, 0 9.36 C0 8.82, 0.06 8.27, 0.16 7.74 C0.27 7.2, 0.43 6.67, 0.65 6.16 C0.86 5.65, 1.12 5.15, 1.43 4.68 C1.74 4.21, 2.11 3.76, 2.5 3.35 C2.9 2.93, 3.35 2.54, 3.82 2.19 C4.3 1.84, 4.81 1.53, 5.35 1.25 C5.89 0.98, 6.46 0.75, 7.04 0.56 C7.62 0.38, 8.23 0.24, 8.84 0.14 C9.45 0.05, 10.08 0, 10.7 0 C11.32 0, 11.95 0.05, 12.56 0.14 C13.17 0.24, 13.78 0.38, 14.36 0.56 C14.94 0.75, 15.52 0.98, 16.05 1.25 C16.59 1.53, 17.11 1.84, 17.58 2.19 C18.06 2.54, 18.5 2.93, 18.9 3.35 C19.3 3.76, 19.66 4.21, 19.97 4.68 C20.28 5.15, 20.55 5.65, 20.76 6.16 C20.97 6.67, 21.13 7.2, 21.24 7.74 C21.35 8.27, 21.38 9.09, 21.4 9.36 C21.43 9.64, 21.43 9.09, 21.4 9.36" stroke="#000000" stroke-width="2" fill="none"></path></g><g stroke-linecap="round"><g transform="translate(60.16191375626988 227.655730763037) rotate(0 16.71865860152218 9.951582500906)" fill-rule="evenodd"><path d="M0 0 C0 0, 0 0, 0 0 M0 0 C0 0, 0 0, 0 0 M6.04 5.25 C8.73 2.15, 11.43 -0.95, 17.85 -8.34 M6.04 5.25 C10.72 -0.14, 15.4 -5.53, 17.85 -8.34 M10.11 12.76 C13.5 8.86, 16.9 4.95, 25.2 -4.6 M10.11 12.76 C13.36 9.02, 16.61 5.28, 25.2 -4.6 M14.18 20.27 C17.73 16.19, 21.28 12.11, 29.27 2.92 M14.18 20.27 C17.95 15.93, 21.73 11.58, 29.27 2.92 M17.59 28.54 C21.5 24.05, 25.4 19.55, 32.02 11.94 M17.59 28.54 C21.92 23.56, 26.25 18.58, 32.02 11.94 M29.53 27 C31.28 24.99, 33.02 22.98, 34.12 21.71 M29.53 27 C30.84 25.49, 32.16 23.98, 34.12 21.71 M14.43 27.6 C14.43 27.6, 14.43 27.6, 14.43 27.6 M14.43 27.6 C14.43 27.6, 14.43 27.6, 14.43 27.6 M26.47 27.47 C20.05 21.89, 13.63 16.31, 9.87 13.04 M26.47 27.47 C20.25 22.06, 14.02 16.65, 9.87 13.04 M33.23 22.75 C22.74 13.62, 12.24 4.5, 3.04 -3.5 M33.23 22.75 C25.64 16.15, 18.05 9.55, 3.04 -3.5 M31.68 10.8 C23.56 3.75, 15.45 -3.31, 9.8 -8.22 M31.68 10.8 C24.06 4.18, 16.44 -2.45, 9.8 -8.22" stroke="#ced4da" stroke-width="1" fill="none"></path><path d="M0 0 C0.86 -0.93, 3.58 -4.18, 5.17 -5.57 C6.77 -6.97, 7.56 -7.83, 9.55 -8.36 C11.54 -8.89, 14.99 -8.89, 17.12 -8.76 C19.24 -8.62, 20.83 -8.43, 22.29 -7.56 C23.75 -6.7, 24.88 -5.11, 25.87 -3.58 C26.87 -2.06, 27.47 -0.33, 28.26 1.59 C29.06 3.52, 29.92 5.84, 30.65 7.96 C31.38 10.08, 32.18 12.41, 32.64 14.33 C33.11 16.25, 33.44 17.78, 33.44 19.51 C33.44 21.23, 33.3 23.42, 32.64 24.68 C31.98 25.94, 30.72 26.47, 29.46 27.07 C28.2 27.67, 26.87 28, 25.08 28.26 C23.29 28.53, 20.43 28.73, 18.71 28.66 C16.98 28.59, 15.46 28.93, 14.73 27.86 C14 26.8, 14.66 23.82, 14.33 22.29 C14 20.77, 13.47 20.23, 12.74 18.71 C12.01 17.18, 11.08 15.33, 9.95 13.14 C8.82 10.95, 7.63 7.76, 5.97 5.57 C4.31 3.38, 1 0.93, 0 0 M0 0 C0.86 -0.93, 3.58 -4.18, 5.17 -5.57 C6.77 -6.97, 7.56 -7.83, 9.55 -8.36 C11.54 -8.89, 14.99 -8.89, 17.12 -8.76 C19.24 -8.62, 20.83 -8.43, 22.29 -7.56 C23.75 -6.7, 24.88 -5.11, 25.87 -3.58 C26.87 -2.06, 27.47 -0.33, 28.26 1.59 C29.06 3.52, 29.92 5.84, 30.65 7.96 C31.38 10.08, 32.18 12.41, 32.64 14.33 C33.11 16.25, 33.44 17.78, 33.44 19.51 C33.44 21.23, 33.3 23.42, 32.64 24.68 C31.98 25.94, 30.72 26.47, 29.46 27.07 C28.2 27.67, 26.87 28, 25.08 28.26 C23.29 28.53, 20.43 28.73, 18.71 28.66 C16.98 28.59, 15.46 28.93, 14.73 27.86 C14 26.8, 14.66 23.82, 14.33 22.29 C14 20.77, 13.47 20.23, 12.74 18.71 C12.01 17.18, 11.08 15.33, 9.95 13.14 C8.82 10.95, 7.63 7.76, 5.97 5.57 C4.31 3.38, 1 0.93, 0 0" stroke="#000000" stroke-width="2" fill="none"></path></g></g><mask></mask><g stroke-linecap="round"><g transform="translate(42.243127302935704 227.6438548596326) rotate(0 -16.121563651467852 11.941899001087336)" fill-rule="evenodd"><path d="M-24.42 -2.68 C-24.42 -2.68, -24.42 -2.68, -24.42 -2.68 M-24.42 -2.68 C-24.42 -2.68, -24.42 -2.68, -24.42 -2.68 M-31.51 17.66 C-27.25 12.76, -22.99 7.86, -10.51 -6.49 M-31.51 17.66 C-23.7 8.68, -15.9 -0.29, -10.51 -6.49 M-29.41 27.44 C-22.55 19.55, -15.7 11.67, -2.51 -3.51 M-29.41 27.44 C-23.11 20.2, -16.82 12.95, -2.51 -3.51 M-22.06 31.18 C-17.64 26.1, -13.23 21.02, -8.28 15.33 M-22.06 31.18 C-16.94 25.29, -11.83 19.41, -8.28 15.33 M-12.08 31.9 C-11.66 31.41, -11.24 30.92, -10.77 30.39 M-12.08 31.9 C-11.64 31.39, -11.2 30.88, -10.77 30.39 M-31.63 25.72 C-31.63 25.72, -31.63 25.72, -31.63 25.72 M-31.63 25.72 C-31.63 25.72, -31.63 25.72, -31.63 25.72 M-12.8 31.49 C-17.18 27.68, -21.56 23.87, -30.91 15.74 M-12.8 31.49 C-19.09 26.01, -25.39 20.54, -30.91 15.74 M-9.06 24.14 C-13.14 20.59, -17.22 17.04, -28.68 7.08 M-9.06 24.14 C-16.78 17.43, -24.5 10.72, -28.68 7.08 M-8.34 14.16 C-13.09 10.03, -17.83 5.91, -25.7 -0.93 M-8.34 14.16 C-11.86 11.1, -15.37 8.05, -25.7 -0.93 M-4.6 6.81 C-10.18 1.96, -15.77 -2.9, -20.45 -6.96 M-4.6 6.81 C-8.31 3.58, -12.03 0.35, -20.45 -6.96 M-0.1 0.12 C-2.56 -2.01, -5.01 -4.14, -9.16 -7.75 M-0.1 0.12 C-3.68 -2.99, -7.25 -6.1, -9.16 -7.75" stroke="#ced4da" stroke-width="1" fill="none"></path><path d="M0 0 C-0.66 -0.73, -2.59 -3.18, -3.98 -4.38 C-5.37 -5.57, -6.37 -6.63, -8.36 -7.17 C-10.35 -7.7, -13.8 -7.7, -15.92 -7.56 C-18.05 -7.43, -19.64 -7.23, -21.1 -6.37 C-22.56 -5.51, -23.68 -3.91, -24.68 -2.39 C-25.68 -0.86, -26.27 0.86, -27.07 2.79 C-27.86 4.71, -28.73 7.03, -29.46 9.16 C-30.19 11.28, -30.98 13.6, -31.45 15.52 C-31.91 17.45, -32.24 18.97, -32.24 20.7 C-32.24 22.42, -32.11 24.61, -31.45 25.87 C-30.78 27.13, -29.46 27.53, -28.26 28.26 C-27.07 28.99, -26.01 29.72, -24.28 30.25 C-22.56 30.78, -20.1 31.25, -17.91 31.45 C-15.72 31.65, -12.41 32.64, -11.15 31.45 C-9.89 30.25, -10.62 26.07, -10.35 24.28 C-10.08 22.49, -9.89 22.29, -9.55 20.7 C-9.22 19.11, -9.16 17.05, -8.36 14.73 C-7.56 12.41, -6.17 9.22, -4.78 6.77 C-3.38 4.31, -0.8 1.13, 0 0 M0 0 C-0.66 -0.73, -2.59 -3.18, -3.98 -4.38 C-5.37 -5.57, -6.37 -6.63, -8.36 -7.17 C-10.35 -7.7, -13.8 -7.7, -15.92 -7.56 C-18.05 -7.43, -19.64 -7.23, -21.1 -6.37 C-22.56 -5.51, -23.68 -3.91, -24.68 -2.39 C-25.68 -0.86, -26.27 0.86, -27.07 2.79 C-27.86 4.71, -28.73 7.03, -29.46 9.16 C-30.19 11.28, -30.98 13.6, -31.45 15.52 C-31.91 17.45, -32.24 18.97, -32.24 20.7 C-32.24 22.42, -32.11 24.61, -31.45 25.87 C-30.78 27.13, -29.46 27.53, -28.26 28.26 C-27.07 28.99, -26.01 29.72, -24.28 30.25 C-22.56 30.78, -20.1 31.25, -17.91 31.45 C-15.72 31.65, -12.41 32.64, -11.15 31.45 C-9.89 30.25, -10.62 26.07, -10.35 24.28 C-10.08 22.49, -9.89 22.29, -9.55 20.7 C-9.22 19.11, -9.16 17.05, -8.36 14.73 C-7.56 12.41, -6.17 9.22, -4.78 6.77 C-3.38 4.31, -0.8 1.13, 0 0" stroke="#000000" stroke-width="2" fill="none"></path></g></g><mask></mask><g stroke-linecap="round" transform="translate(263.57757636290387 158.71851344206516) rotate(0 57.55553521050331 57.55553521050331)"><path d="M39.86 3.57 C47.85 0.44, 59.5 0.38, 68.47 1.77 C77.44 3.17, 86.85 6.57, 93.69 11.95 C100.53 17.34, 105.78 25.96, 109.5 34.08 C113.21 42.19, 116.49 51.89, 115.96 60.65 C115.44 69.4, 111.08 79.12, 106.34 86.62 C101.6 94.12, 94.94 101.04, 87.51 105.67 C80.09 110.29, 70.7 113.64, 61.77 114.36 C52.85 115.08, 42.21 113.41, 33.98 110 C25.74 106.59, 17.8 100.91, 12.36 93.88 C6.91 86.86, 2.96 76.79, 1.3 67.85 C-0.37 58.91, -0.07 48.65, 2.37 40.23 C4.8 31.8, 9.29 23.69, 15.91 17.29 C22.54 10.9, 37.06 4.36, 42.13 1.88 C47.21 -0.6, 46.02 1.56, 46.36 2.41 M29.84 7.78 C36.97 3.19, 49.04 1.37, 58.08 0.97 C67.12 0.57, 76.18 1.59, 84.1 5.39 C92.02 9.19, 100.65 16.41, 105.59 23.77 C110.52 31.14, 112.9 40.66, 113.72 49.58 C114.53 58.49, 113.53 68.71, 110.47 77.28 C107.41 85.85, 101.7 95.01, 95.36 100.99 C89.02 106.97, 80.87 111.31, 72.43 113.17 C63.99 115.02, 53.44 114.32, 44.72 112.1 C36.01 109.88, 27.22 105.78, 20.15 99.84 C13.08 93.91, 5.76 84.5, 2.3 76.49 C-1.17 68.49, -1.85 60.68, -0.64 51.81 C0.56 42.94, 4.24 30.58, 9.52 23.28 C14.81 15.98, 27.35 10.69, 31.06 7.99 C34.78 5.28, 31.18 6.5, 31.79 7.05" stroke="#000000" stroke-width="1" fill="none"></path></g><g stroke-linecap="round"><g transform="translate(280.4553554220673 196.38580675450328) rotate(0 38.48373447880488 20.544685979652712)" fill-rule="evenodd"><path d="M1.27 1.67 L2.11 35.18 L18.76 33.44 L17.52 20.36 L53.54 44.62 L53.2 51.65 L65.35 53.74 L65.28 58.24 L78.87 58.07 L76.52 43.23 L61.87 42.87 L65.22 49.43 L57.37 38.32 L54.21 43.03 L26.18 20.04 L49.98 20.44 L50.13 24.79 L61.94 20.82 L63 28.57 L76.7 24.98 L78.94 12.59 L61.75 10.69 L64.01 16.81 L50.23 10.21 L49.81 13.83 L26.5 13 L55.81 -3.16 L58.66 0.29 L60.72 -8.07 L62.26 -0.58 L77.97 -1.98 L75.33 -18.76 L64.13 -16.69 L62.54 -10.51 L52.84 -7.55 L51.19 -4.24 L19.76 15.44 L17.76 -1.06 L1.9 -0.51" stroke="none" stroke-width="0" fill="#fff" fill-rule="evenodd"></path><path d="M0 0 C-0.46 9.42, -0.58 22.91, 0.31 34.11 M0 0 C0.31 12.69, 0.96 27.15, 0.31 34.11 M0.31 34.11 C5.39 32.48, 11.55 33.16, 18.2 34.27 M0.31 34.11 C5.78 34.43, 9.86 34.08, 18.2 34.27 M18.2 34.27 C17.3 30.98, 18.87 27.8, 18.48 21.17 M18.2 34.27 C18.46 30.88, 17.92 27.57, 18.48 21.17 M18.48 21.17 C28.45 30.07, 40.04 36.07, 54.26 46.21 M18.48 21.17 C25.99 26.98, 34.8 32.08, 54.26 46.21 M54.26 46.21 C53.01 47.53, 51.81 49.44, 51.67 51.02 M54.26 46.21 C53.24 48.34, 52.26 49.87, 51.67 51.02 M51.67 51.02 C55.77 51.56, 60.7 52.06, 63.49 53.23 M51.67 51.02 C55.25 51.97, 58.91 52.31, 63.49 53.23 M63.49 53.23 C63.45 54.96, 63.13 56.9, 63.49 58.29 M63.49 53.23 C63.77 54.82, 63.47 56.43, 63.49 58.29 M63.49 58.29 C68.87 57.6, 72.9 57, 76.94 57.61 M63.49 58.29 C68.36 57.83, 72.12 58.19, 76.94 57.61 M76.94 57.61 C75.6 54.31, 77.93 50.66, 76.97 43.72 M76.94 57.61 C77.06 54.97, 76.57 52.2, 76.97 43.72 M76.97 43.72 C73.09 45.09, 67.72 43.86, 63.58 43.88 M76.97 43.72 C72.9 43.18, 69.69 43.46, 63.58 43.88 M63.58 43.88 C63.52 44.98, 63.77 46.58, 63.52 47.94 M63.58 43.88 C63.52 44.79, 63.61 45.84, 63.52 47.94 M63.52 47.94 C61.53 45.65, 61.16 44.69, 58.43 39.62 M63.52 47.94 C62.25 45.73, 61.4 44.78, 58.43 39.62 M58.43 39.62 C57.4 40.77, 57.47 41.66, 55.87 43.17 M58.43 39.62 C57.72 40.74, 56.53 42.15, 55.87 43.17 M55.87 43.17 C49.23 37.66, 39.2 28.93, 25.11 20.05 M55.87 43.17 C43.95 34.1, 31.25 24.27, 25.11 20.05 M25.11 20.05 C33.35 18.59, 44.23 19.33, 51.24 20.02 M25.11 20.05 C33.85 18.89, 40.31 19.89, 51.24 20.02 M51.24 20.02 C51.42 21.17, 51.08 22.73, 51.09 23.73 M51.24 20.02 C51.04 21.19, 51.01 22.1, 51.09 23.73 M51.09 23.73 C55.98 23.35, 58.49 20.25, 62.56 20.02 M51.09 23.73 C53.15 22.36, 56.06 21.77, 62.56 20.02 M62.56 20.02 C62.09 21.78, 62.81 23.97, 62.56 26.65 M62.56 20.02 C62.36 22.18, 62.54 24.5, 62.56 26.65 M62.56 26.65 C65.35 26.91, 68.51 25.92, 76.81 26.55 M62.56 26.65 C65.24 26.36, 68.33 27, 76.81 26.55 M76.81 26.55 C78.36 22.74, 76.26 18.64, 76.97 12.17 M76.81 26.55 C77.46 24.03, 76.43 20.66, 76.97 12.17 M76.97 12.17 C72.72 13.18, 69.88 13.44, 62.62 12.17 M76.97 12.17 C73.38 12.36, 70.37 12.35, 62.62 12.17 M62.62 12.17 C62.87 13.32, 62.91 14.77, 62.41 16.62 M62.62 12.17 C62.73 13.66, 62.34 15.06, 62.41 16.62 M62.41 16.62 C60.43 16.12, 56.12 14.65, 51.12 12.07 M62.41 16.62 C58.48 14.62, 53.94 12.83, 51.12 12.07 M51.12 12.07 C51.42 13.51, 51.47 14.59, 51.36 15.15 M51.12 12.07 C51.21 13.02, 51.33 13.8, 51.36 15.15 M51.36 15.15 C43.38 15.25, 32.79 14.27, 25.42 14.86 M51.36 15.15 C45.03 16.11, 37.8 15.19, 25.42 14.86 M25.42 14.86 C32.96 11.86, 41.97 2.93, 55 -2.34 M25.42 14.86 C37.91 8.94, 47.87 1.96, 55 -2.34 M55 -2.34 C55.57 -0.56, 56.54 0.08, 57.26 1.09 M55 -2.34 C55.58 -1.31, 56.35 -0.14, 57.26 1.09 M57.26 1.09 C59 -1.14, 58.99 -3.42, 62.53 -6.82 M57.26 1.09 C58.87 -1.7, 60.83 -4.63, 62.53 -6.82 M62.53 -6.82 C62.63 -5.39, 62.7 -4.52, 62.56 -2.4 M62.53 -6.82 C62.64 -5.4, 62.72 -4.24, 62.56 -2.4 M62.56 -2.4 C68.59 -3.09, 73.41 -2.37, 76.69 -2.27 M62.56 -2.4 C65.32 -2.47, 68.96 -2.77, 76.69 -2.27 M76.69 -2.27 C75.53 -7.97, 77.72 -10.75, 76.6 -17.04 M76.69 -2.27 C76.02 -7.2, 76.61 -12.76, 76.6 -17.04 M76.6 -17.04 C71.23 -17.19, 65.98 -18.15, 62.19 -17.2 M76.6 -17.04 C70.78 -17.51, 65.88 -16.94, 62.19 -17.2 M62.19 -17.2 C62.41 -15.39, 62.05 -13.84, 62.07 -11.21 M62.19 -17.2 C61.94 -15.59, 61.9 -14.09, 62.07 -11.21 M62.07 -11.21 C58.81 -9.87, 54.62 -10.83, 51.61 -9.48 M62.07 -11.21 C60.23 -10.4, 57.86 -10.89, 51.61 -9.48 M51.61 -9.48 C51.63 -8.5, 52.13 -7.3, 53.12 -5.25 M51.61 -9.48 C52.31 -8.05, 52.59 -6.41, 53.12 -5.25 M53.12 -5.25 C44.4 -2.85, 36.86 3.21, 18.35 14.57 M53.12 -5.25 C44.3 -1.01, 36.55 3.51, 18.35 14.57 M18.35 14.57 C16.91 12.21, 17.97 7.26, 17.89 0 M18.35 14.57 C17.46 11.58, 18.5 7.98, 17.89 0 M17.89 0 C14.92 -0.96, 9.93 0.61, 0 0 M17.89 0 C12.25 0.8, 7.24 0.59, 0 0 M0 0 C0 0, 0 0, 0 0 M0 0 C0 0, 0 0, 0 0" stroke="#000000" stroke-width="1" fill="none"></path></g></g><mask></mask><g stroke-linecap="round" transform="translate(513.0656353498047 353.68877363795673) rotate(0 21.73410220016592 40.57032410697616)"><path d="M0 0 C0 0, 0 0, 0 0 M0 0 C0 0, 0 0, 0 0 M0.13 12.04 C3.91 7.7, 7.68 3.36, 10.63 -0.03 M0.13 12.04 C3.55 8.11, 6.96 4.18, 10.63 -0.03 M0.27 24.08 C7.06 16.27, 13.85 8.45, 21.26 -0.07 M0.27 24.08 C6.24 17.21, 12.22 10.33, 21.26 -0.07 M-0.26 36.88 C9.63 25.5, 19.52 14.13, 31.89 -0.1 M-0.26 36.88 C10.54 24.46, 21.33 12.04, 31.89 -0.1 M-0.12 48.92 C15.7 30.71, 31.53 12.5, 42.52 -0.14 M-0.12 48.92 C10.02 37.24, 20.17 25.57, 42.52 -0.14 M0.01 60.96 C8.8 50.85, 17.59 40.73, 43.31 11.15 M0.01 60.96 C13.54 45.39, 27.08 29.82, 43.31 11.15 M0.14 73 C12.66 58.6, 25.18 44.19, 43.44 23.19 M0.14 73 C16.34 54.37, 32.54 35.73, 43.44 23.19 M3.56 81.27 C14.83 68.3, 26.1 55.33, 43.58 35.23 M3.56 81.27 C14.02 69.23, 24.48 57.2, 43.58 35.23 M13.53 81.99 C24.63 69.21, 35.74 56.44, 43.71 47.27 M13.53 81.99 C24.67 69.17, 35.81 56.36, 43.71 47.27 M24.16 81.95 C28.86 76.55, 33.55 71.15, 43.84 59.31 M24.16 81.95 C31.61 73.38, 39.06 64.81, 43.84 59.31 M34.79 81.92 C36.98 79.39, 39.18 76.87, 43.32 72.11 M34.79 81.92 C38.11 78.1, 41.44 74.27, 43.32 72.11 M-0.18 80.99 C-0.18 80.99, -0.18 80.99, -0.18 80.99 M-0.18 80.99 C-0.18 80.99, -0.18 80.99, -0.18 80.99 M11.86 80.85 C7.44 77.01, 3.02 73.17, -0.21 70.36 M11.86 80.85 C8.33 77.78, 4.79 74.7, -0.21 70.36 M24.66 81.38 C18.08 75.65, 11.49 69.93, -0.24 59.73 M24.66 81.38 C18.27 75.82, 11.87 70.26, -0.24 59.73 M36.7 81.24 C26.96 72.78, 17.22 64.31, -0.28 49.1 M36.7 81.24 C28.3 73.94, 19.9 66.64, -0.28 49.1 M43.46 76.52 C33.82 68.14, 24.18 59.76, -0.31 38.47 M43.46 76.52 C27.55 62.69, 11.64 48.86, -0.31 38.47 M43.42 65.89 C31.31 55.36, 19.2 44.83, -0.35 27.84 M43.42 65.89 C33.34 57.12, 23.25 48.35, -0.35 27.84 M44.15 55.91 C34.15 47.23, 24.15 38.54, 0.37 17.86 M44.15 55.91 C29.7 43.35, 15.25 30.79, 0.37 17.86 M44.11 45.28 C31.27 34.13, 18.44 22.97, 0.34 7.23 M44.11 45.28 C33.95 36.45, 23.78 27.61, 0.34 7.23 M44.08 34.65 C32.64 24.71, 21.2 14.77, 3.32 -0.77 M44.08 34.65 C31.6 23.81, 19.12 12.96, 3.32 -0.77 M44.04 24.02 C33.99 15.29, 23.95 6.56, 16.12 -0.25 M44.04 24.02 C37 17.9, 29.96 11.78, 16.12 -0.25 M44.01 13.39 C40.38 10.25, 36.76 7.1, 28.16 -0.38 M44.01 13.39 C40.33 10.2, 36.66 7, 28.16 -0.38 M43.97 2.76 C42.91 1.84, 41.84 0.91, 40.2 -0.52 M43.97 2.76 C43.22 2.11, 42.46 1.45, 40.2 -0.52" stroke="#ced4da" stroke-width="1" fill="none"></path><path d="M0 0 C12.61 0, 25.23 0, 43.47 0 M0 0 C13.97 0, 27.94 0, 43.47 0 M43.47 0 C43.47 21.1, 43.47 42.21, 43.47 81.14 M43.47 0 C43.47 27.08, 43.47 54.17, 43.47 81.14 M43.47 81.14 C31.51 81.14, 19.56 81.14, 0 81.14 M43.47 81.14 C31.48 81.14, 19.48 81.14, 0 81.14 M0 81.14 C0 50.09, 0 19.04, 0 0 M0 81.14 C0 59.54, 0 37.94, 0 0" stroke="#000000" stroke-width="2" fill="none"></path></g><g transform="translate(498.0594989475102 446.36690804766886) rotate(0 36.74023860245927 14.579459762880674)"><text x="0" y="0" font-family="Virgil, Segoe UI Emoji" font-size="23.32713562060904px" fill="#000000" text-anchor="start" style="white-space: pre;" direction="ltr" dominant-baseline="text-before-edge">Server</text></g><g stroke-linecap="round"><g transform="translate(518.296229205221 362.6649978836699) rotate(0 16.662811686793702 1.1368683772161603e-13)"><path d="M0 0 C5.55 0, 27.77 0, 33.33 0 M0 0 C5.55 0, 27.77 0, 33.33 0" stroke="#000000" stroke-width="2" fill="none"></path></g></g><mask></mask><g stroke-linecap="round"><g transform="translate(518.1369258631756 370.1341108459312) rotate(0 16.662811686793702 1.1368683772161603e-13)"><path d="M0 0 C5.55 0, 27.77 0, 33.33 0 M0 0 C5.55 0, 27.77 0, 33.33 0" stroke="#000000" stroke-width="2" fill="none"></path></g></g><mask></mask><g stroke-linecap="round"><g transform="translate(518.1009025447346 377.60322380819366) rotate(0 16.662811686793702 1.1368683772161603e-13)"><path d="M0 0 C5.55 0, 27.77 0, 33.33 0 M0 0 C5.55 0, 27.77 0, 33.33 0" stroke="#000000" stroke-width="2" fill="none"></path></g></g><mask></mask><g stroke-linecap="round"><g transform="translate(518.1009025447346 385.0723367704552) rotate(0 16.662811686793702 1.1368683772161603e-13)"><path d="M0 0 C5.55 0, 27.77 0, 33.33 0 M0 0 C5.55 0, 27.77 0, 33.33 0" stroke="#000000" stroke-width="2" fill="none"></path></g></g><mask></mask><g stroke-linecap="round" transform="translate(512.0657574201172 195.35546064967548) rotate(0 21.73410220016592 40.57032410697616)"><path d="M0 0 C0 0, 0 0, 0 0 M0 0 C0 0, 0 0, 0 0 M0.13 12.04 C2.88 8.88, 5.62 5.72, 10.63 -0.03 M0.13 12.04 C3.56 8.1, 6.99 4.15, 10.63 -0.03 M0.27 24.08 C8.02 15.16, 15.78 6.24, 21.26 -0.07 M0.27 24.08 C8.63 14.46, 16.99 4.84, 21.26 -0.07 M-0.26 36.88 C10.53 24.47, 21.32 12.06, 31.89 -0.1 M-0.26 36.88 C11.1 23.81, 22.46 10.74, 31.89 -0.1 M-0.12 48.92 C12.98 33.85, 26.08 18.78, 42.52 -0.14 M-0.12 48.92 C16.34 29.98, 32.8 11.04, 42.52 -0.14 M0.01 60.96 C13.26 45.71, 26.51 30.47, 43.31 11.15 M0.01 60.96 C16.28 42.24, 32.56 23.52, 43.31 11.15 M0.14 73 C15.71 55.09, 31.28 37.19, 43.44 23.19 M0.14 73 C11.22 60.26, 22.29 47.52, 43.44 23.19 M3.56 81.27 C12.83 70.59, 22.11 59.92, 43.58 35.23 M3.56 81.27 C18.82 63.71, 34.08 46.15, 43.58 35.23 M13.53 81.99 C24.26 69.65, 34.99 57.3, 43.71 47.27 M13.53 81.99 C22.57 71.59, 31.6 61.2, 43.71 47.27 M24.16 81.95 C31.29 73.75, 38.43 65.54, 43.84 59.31 M24.16 81.95 C30.39 74.79, 36.62 67.62, 43.84 59.31 M34.79 81.92 C36.62 79.81, 38.46 77.7, 43.32 72.11 M34.79 81.92 C37.08 79.29, 39.37 76.66, 43.32 72.11 M-0.18 80.99 C-0.18 80.99, -0.18 80.99, -0.18 80.99 M-0.18 80.99 C-0.18 80.99, -0.18 80.99, -0.18 80.99 M11.86 80.85 C7.66 77.2, 3.45 73.54, -0.21 70.36 M11.86 80.85 C7.36 76.94, 2.86 73.02, -0.21 70.36 M24.66 81.38 C14.98 72.96, 5.29 64.54, -0.24 59.73 M24.66 81.38 C15.72 73.6, 6.77 65.83, -0.24 59.73 M36.7 81.24 C27.21 72.99, 17.72 64.74, -0.28 49.1 M36.7 81.24 C26.21 72.12, 15.72 63, -0.28 49.1 M43.46 76.52 C28.72 63.71, 13.98 50.9, -0.31 38.47 M43.46 76.52 C27.84 62.94, 12.22 49.37, -0.31 38.47 M43.42 65.89 C28.91 53.27, 14.4 40.66, -0.35 27.84 M43.42 65.89 C28.99 53.34, 14.55 40.79, -0.35 27.84 M44.15 55.91 C26.92 40.94, 9.7 25.97, 0.37 17.86 M44.15 55.91 C32.58 45.86, 21.01 35.8, 0.37 17.86 M44.11 45.28 C32.94 35.57, 21.77 25.86, 0.34 7.23 M44.11 45.28 C30.97 33.86, 17.82 22.43, 0.34 7.23 M44.08 34.65 C29.34 21.84, 14.6 9.03, 3.32 -0.77 M44.08 34.65 C34.9 26.67, 25.71 18.69, 3.32 -0.77 M44.04 24.02 C38.44 19.15, 32.83 14.28, 16.12 -0.25 M44.04 24.02 C37.25 18.12, 30.46 12.22, 16.12 -0.25 M44.01 13.39 C40.29 10.16, 36.57 6.93, 28.16 -0.38 M44.01 13.39 C38.58 8.68, 33.15 3.96, 28.16 -0.38 M43.97 2.76 C43.1 2.01, 42.23 1.25, 40.2 -0.52 M43.97 2.76 C42.97 1.89, 41.97 1.02, 40.2 -0.52" stroke="#ced4da" stroke-width="1" fill="none"></path><path d="M0 0 C13.54 0, 27.08 0, 43.47 0 M0 0 C12.96 0, 25.91 0, 43.47 0 M43.47 0 C43.47 26.03, 43.47 52.05, 43.47 81.14 M43.47 0 C43.47 25.01, 43.47 50.02, 43.47 81.14 M43.47 81.14 C27.2 81.14, 10.94 81.14, 0 81.14 M43.47 81.14 C26.18 81.14, 8.88 81.14, 0 81.14 M0 81.14 C0 63.63, 0 46.12, 0 0 M0 81.14 C0 59.42, 0 37.69, 0 0" stroke="#000000" stroke-width="2" fill="none"></path></g><g transform="translate(497.0596210178227 288.0335950593876) rotate(0 36.74023860245927 14.579459762880674)"><text x="0" y="0" font-family="Virgil, Segoe UI Emoji" font-size="23.32713562060904px" fill="#000000" text-anchor="start" style="white-space: pre;" direction="ltr" dominant-baseline="text-before-edge">Server</text></g><g stroke-linecap="round"><g transform="translate(517.2963512755335 204.33168489538866) rotate(0 16.662811686793702 1.4210854715202004e-13)"><path d="M0 0 C5.55 0, 27.77 0, 33.33 0 M0 0 C5.55 0, 27.77 0, 33.33 0" stroke="#000000" stroke-width="2" fill="none"></path></g></g><mask></mask><g stroke-linecap="round"><g transform="translate(517.1370479334881 211.80079785764997) rotate(0 16.662811686793702 1.4210854715202004e-13)"><path d="M0 0 C5.55 0, 27.77 0, 33.33 0 M0 0 C5.55 0, 27.77 0, 33.33 0" stroke="#000000" stroke-width="2" fill="none"></path></g></g><mask></mask><g stroke-linecap="round"><g transform="translate(517.1010246150471 219.2699108199124) rotate(0 16.662811686793702 1.4210854715202004e-13)"><path d="M0 0 C5.55 0, 27.77 0, 33.33 0 M0 0 C5.55 0, 27.77 0, 33.33 0" stroke="#000000" stroke-width="2" fill="none"></path></g></g><mask></mask><g stroke-linecap="round"><g transform="translate(517.1010246150471 226.73902378217394) rotate(0 16.662811686793702 1.1368683772161603e-13)"><path d="M0 0 C5.55 0, 27.77 0, 33.33 0 M0 0 C5.55 0, 27.77 0, 33.33 0" stroke="#000000" stroke-width="2" fill="none"></path></g></g><mask></mask><g stroke-linecap="round"><g transform="translate(378.63664835945485 233.41471308308667) rotate(0 25.248353677288605 1.2141031763370052)"><path d="M0.29 0.41 C8.7 0.67, 41.82 1.46, 50.19 1.78 M-1.02 -0.42 C7.23 -0.03, 40.62 2.3, 49.08 2.98" stroke="#1e1e1e" stroke-width="2" fill="none"></path></g><g transform="translate(378.63664835945485 233.41471308308667) rotate(0 25.248353677288605 1.2141031763370052)"><path d="M25.02 9.78 C32.4 7.31, 37.34 5.93, 49.08 2.98 M25.02 9.78 C32.6 8.25, 38.69 5.32, 49.08 2.98" stroke="#1e1e1e" stroke-width="2" fill="none"></path></g><g transform="translate(378.63664835945485 233.41471308308667) rotate(0 25.248353677288605 1.2141031763370052)"><path d="M26.28 -7.27 C33.33 -4.98, 37.92 -1.62, 49.08 2.98 M26.28 -7.27 C33.47 -3.83, 39.21 -1.78, 49.08 2.98" stroke="#1e1e1e" stroke-width="2" fill="none"></path></g></g><mask></mask><g stroke-linecap="round"><g transform="translate(380.96825191846085 214.06301286716592) rotate(0 27.928694484754715 -79.63801866445542)"><path d="M0.79 1 C10.07 -25.43, 46.7 -131.5, 56.04 -158.37 M-0.25 0.48 C8.86 -26.29, 45.72 -133.37, 55.19 -160.01" stroke="#1e1e1e" stroke-width="2" fill="none"></path></g><g transform="translate(380.96825191846085 214.06301286716592) rotate(0 27.928694484754715 -79.63801866445542)"><path d="M55.52 -135.02 C57.04 -142.97, 56.78 -149.92, 55.19 -160.01 M55.52 -135.02 C55.04 -140.54, 55.44 -145.71, 55.19 -160.01" stroke="#1e1e1e" stroke-width="2" fill="none"></path></g><g transform="translate(380.96825191846085 214.06301286716592) rotate(0 27.928694484754715 -79.63801866445542)"><path d="M39.37 -140.65 C46.24 -146.85, 51.31 -151.93, 55.19 -160.01 M39.37 -140.65 C42.48 -144.85, 46.49 -148.77, 55.19 -160.01" stroke="#1e1e1e" stroke-width="2" fill="none"></path></g></g><mask></mask><g stroke-linecap="round"><g transform="translate(370.63498433994585 249.44713879949825) rotate(0 31.58243764016811 67.48180428706496)"><path d="M-0.33 0.65 C10.02 22.88, 51.85 111.84, 62.37 134.42 M1.7 -0.06 C12.41 22.85, 54.64 113.27, 64.67 135.67" stroke="#1e1e1e" stroke-width="2" fill="none"></path></g><g transform="translate(370.63498433994585 249.44713879949825) rotate(0 31.58243764016811 67.48180428706496)"><path d="M47.1 117.88 C53.99 122.34, 57.66 128.78, 64.67 135.67 M47.1 117.88 C53.89 125.45, 60.67 132.52, 64.67 135.67" stroke="#1e1e1e" stroke-width="2" fill="none"></path></g><g transform="translate(370.63498433994585 249.44713879949825) rotate(0 31.58243764016811 67.48180428706496)"><path d="M62.64 110.75 C64.59 117.46, 63.25 126.2, 64.67 135.67 M62.64 110.75 C63.36 121.08, 63.99 130.97, 64.67 135.67" stroke="#1e1e1e" stroke-width="2" fill="none"></path></g></g><mask></mask><g stroke-linecap="round"><g transform="translate(96.85435591832265 214.68656573634132) rotate(0 44.13940834512033 3.1502601829512287)"><path d="M0.39 -0.63 C14.82 0.49, 72.39 5.78, 87.24 6.91 M-0.86 1.65 C13.87 2.4, 74.38 4.16, 89.41 5.11" stroke="#1e1e1e" stroke-width="2" fill="none"></path></g><g transform="translate(96.85435591832265 214.68656573634132) rotate(0 44.13940834512033 3.1502601829512287)"><path d="M65.56 12.62 C73.01 8.13, 83.57 9.17, 89.41 5.11 M65.56 12.62 C72.02 10.33, 79.78 8.45, 89.41 5.11" stroke="#1e1e1e" stroke-width="2" fill="none"></path></g><g transform="translate(96.85435591832265 214.68656573634132) rotate(0 44.13940834512033 3.1502601829512287)"><path d="M66.31 -4.46 C73.52 -2.86, 83.82 4.28, 89.41 5.11 M66.31 -4.46 C72.5 -1.89, 80.05 1.11, 89.41 5.11" stroke="#1e1e1e" stroke-width="2" fill="none"></path></g></g><mask></mask><g stroke-linecap="round"><g transform="translate(569.7998596202821 48.338898254523144) rotate(0 128.16668701171875 70.62955734714129)"><path d="M0 0.49 C42.89 23.8, 213.86 117.63, 256.72 140.9 M-1.46 -0.3 C41.36 23.71, 212.93 118.73, 255.97 142.26" stroke="#1e1e1e" stroke-width="2" fill="none"></path></g><g transform="translate(569.7998596202821 48.338898254523144) rotate(0 128.16668701171875 70.62955734714129)"><path d="M231.27 138.41 C238.24 140.01, 242.95 141.69, 255.97 142.26 M231.27 138.41 C235.93 138.78, 241.72 140.69, 255.97 142.26" stroke="#1e1e1e" stroke-width="2" fill="none"></path></g><g transform="translate(569.7998596202821 48.338898254523144) rotate(0 128.16668701171875 70.62955734714129)"><path d="M239.52 123.43 C244.57 128.74, 247.24 134.13, 255.97 142.26 M239.52 123.43 C242.43 126.92, 246.53 131.88, 255.97 142.26" stroke="#1e1e1e" stroke-width="2" fill="none"></path></g></g><mask></mask><g stroke-linecap="round"><g transform="translate(558.4666076671571 238.77885755780449) rotate(0 132.66650390625 -18.713688035005873)"><path d="M-0.13 -0.85 C44.01 -7.3, 220.9 -32, 265.31 -38.04 M-1.66 1.31 C42.28 -5.03, 219.73 -30.06, 264.35 -36.82" stroke="#1e1e1e" stroke-width="2" fill="none"></path></g><g transform="translate(558.4666076671571 238.77885755780449) rotate(0 132.66650390625 -18.713688035005873)"><path d="M242.34 -24.98 C248.27 -28.98, 256.1 -31.29, 264.35 -36.82 M242.34 -24.98 C249.16 -29.09, 257.46 -31.96, 264.35 -36.82" stroke="#1e1e1e" stroke-width="2" fill="none"></path></g><g transform="translate(558.4666076671571 238.77885755780449) rotate(0 132.66650390625 -18.713688035005873)"><path d="M239.87 -41.9 C246.73 -40.2, 255.39 -36.8, 264.35 -36.82 M239.87 -41.9 C247.66 -40.46, 256.77 -37.77, 264.35 -36.82" stroke="#1e1e1e" stroke-width="2" fill="none"></path></g></g><mask></mask><g stroke-linecap="round"><g transform="translate(561.7998596202821 393.07368169330425) rotate(0 130.66656494140625 -90.44374811688164)"><path d="M-1.13 0.24 C42.2 -29.68, 216.99 -150.2, 260.9 -180.24 M0.47 -0.68 C43.54 -30.88, 216.13 -151.82, 259.72 -182.03" stroke="#1e1e1e" stroke-width="2" fill="none"></path></g><g transform="translate(561.7998596202821 393.07368169330425) rotate(0 130.66656494140625 -90.44374811688164)"><path d="M245.35 -161.58 C251.24 -169.8, 257.28 -175.08, 259.72 -182.03 M245.35 -161.58 C250.52 -168.3, 256.67 -177.61, 259.72 -182.03" stroke="#1e1e1e" stroke-width="2" fill="none"></path></g><g transform="translate(561.7998596202821 393.07368169330425) rotate(0 130.66656494140625 -90.44374811688164)"><path d="M235.56 -175.6 C245.02 -178.5, 254.71 -178.54, 259.72 -182.03 M235.56 -175.6 C244.42 -177.2, 254.2 -181.31, 259.72 -182.03" stroke="#1e1e1e" stroke-width="2" fill="none"></path></g></g><mask></mask><g stroke-linecap="round" transform="translate(827.1332336437196 178.27404865256847) rotate(0 37.3333740234375 17.333328247070312)"><path d="M8.67 0 C23.4 -1.84, 35.71 -0.47, 66 0 M8.67 0 C23.41 0.45, 40.3 0, 66 0 M66 0 C71.29 -0.29, 76.35 4.22, 74.67 8.67 M66 0 C72.77 -1.19, 76.65 1.68, 74.67 8.67 M74.67 8.67 C74.82 11.39, 74.57 18.39, 74.67 26 M74.67 8.67 C74.49 13.79, 75.28 17.97, 74.67 26 M74.67 26 C74.84 32.43, 72.04 32.75, 66 34.67 M74.67 26 C76.21 30.39, 73.56 33.81, 66 34.67 M66 34.67 C51.19 34.02, 40.07 34.32, 8.67 34.67 M66 34.67 C51.93 34.48, 39.29 35.65, 8.67 34.67 M8.67 34.67 C1.02 33.23, 0.72 32.83, 0 26 M8.67 34.67 C2.05 35.01, 2.29 32.08, 0 26 M0 26 C0.35 20.59, -0.53 17.57, 0 8.67 M0 26 C-0.36 19.91, 0.61 11.97, 0 8.67 M0 8.67 C-1.12 2.34, 2.61 0.16, 8.67 0 M0 8.67 C1.56 3.38, 1.36 1.26, 8.67 0" stroke="#1e1e1e" stroke-width="2" fill="none"></path></g><g stroke-linecap="round" transform="translate(881.1332336437196 184.27404865256847) rotate(0 6.66668701171875 11.666656494140625)"><path d="M0.39 1.66 C0.39 1.66, 0.39 1.66, 0.39 1.66 M0.39 1.66 C0.39 1.66, 0.39 1.66, 0.39 1.66 M0.52 13.71 C5.04 8.47, 8.75 3.76, 11.68 0.88 M0.52 13.71 C3.47 10.44, 6.32 6.73, 11.68 0.88 M2.63 23.48 C3.94 21.12, 7.47 19, 13.12 11.41 M2.63 23.48 C5.84 19.2, 9.54 15.94, 13.12 11.41 M2.19 23.4 C2.19 23.4, 2.19 23.4, 2.19 23.4 M2.19 23.4 C2.19 23.4, 2.19 23.4, 2.19 23.4 M12.72 21.95 C10.61 20.18, 6.19 16.74, 0.64 11.45 M12.72 21.95 C8.38 18.41, 3.74 13.75, 0.64 11.45 M13.44 11.98 C9.25 7.9, 4.23 3.87, 1.36 1.48 M13.44 11.98 C9.47 8.09, 4.58 4.67, 1.36 1.48" stroke="#228be6" stroke-width="1" fill="none"></path><path d="M3.33 0 C4.86 0.28, 6.04 0.21, 10 0 M3.33 0 C5.76 -0.07, 8.22 0.11, 10 0 M10 0 C11.9 -0.52, 13.21 2.07, 13.33 3.33 M10 0 C13.03 -0.61, 14.21 0.59, 13.33 3.33 M13.33 3.33 C13.4 10.4, 13.02 16.18, 13.33 20 M13.33 3.33 C13.58 7.5, 13.07 10.87, 13.33 20 M13.33 20 C13.54 21.41, 11.99 24.1, 10 23.33 M13.33 20 C13.68 22.07, 12.43 23.39, 10 23.33 M10 23.33 C7.3 23.47, 4.98 23.56, 3.33 23.33 M10 23.33 C8.28 23.23, 6.66 23.36, 3.33 23.33 M3.33 23.33 C1.08 22.62, -0.6 22, 0 20 M3.33 23.33 C0.3 24.17, 0.19 21.5, 0 20 M0 20 C0.7 14.26, 0.55 7.98, 0 3.33 M0 20 C0.31 14.17, 0.24 8.05, 0 3.33 M0 3.33 C0.72 0.37, 1.74 -0.11, 3.33 0 M0 3.33 C-0.99 0.98, 0.16 0.99, 3.33 0" stroke="#1e1e1e" stroke-width="2" fill="none"></path></g><g stroke-linecap="round" transform="translate(859.1331726085633 183.60736164084972) rotate(0 6.66668701171875 11.666656494140625)"><path d="M0.39 1.66 C0.39 1.66, 0.39 1.66, 0.39 1.66 M0.39 1.66 C0.39 1.66, 0.39 1.66, 0.39 1.66 M0.52 13.71 C3.97 9.33, 7.15 5.83, 11.68 0.88 M0.52 13.71 C2.78 10.79, 5.54 8.13, 11.68 0.88 M2.63 23.48 C5.73 20.13, 8.99 16.59, 13.12 11.41 M2.63 23.48 C6.51 18.93, 11.09 13.8, 13.12 11.41 M2.19 23.4 C2.19 23.4, 2.19 23.4, 2.19 23.4 M2.19 23.4 C2.19 23.4, 2.19 23.4, 2.19 23.4 M12.72 21.95 C8.43 18.08, 5.37 15.22, 0.64 11.45 M12.72 21.95 C9.43 18.93, 6.34 16.25, 0.64 11.45 M13.44 11.98 C8.37 7.9, 4.55 3.67, 1.36 1.48 M13.44 11.98 C10.96 10.02, 8.05 7.95, 1.36 1.48" stroke="#228be6" stroke-width="1" fill="none"></path><path d="M3.33 0 C4.73 0.16, 6.52 -0.25, 10 0 M3.33 0 C5.3 0.05, 7.3 0.05, 10 0 M10 0 C11.87 -0.58, 14.08 1.79, 13.33 3.33 M10 0 C11.92 -0.04, 12.77 1.83, 13.33 3.33 M13.33 3.33 C13.44 10.06, 13.87 15.22, 13.33 20 M13.33 3.33 C13.05 7.65, 13.63 11.97, 13.33 20 M13.33 20 C14.07 21.72, 11.54 22.92, 10 23.33 M13.33 20 C13.13 22.15, 11.45 23.86, 10 23.33 M10 23.33 C7.75 23.22, 5 23.36, 3.33 23.33 M10 23.33 C7.98 23.25, 5.73 23.44, 3.33 23.33 M3.33 23.33 C0.48 23.19, 0.35 21.78, 0 20 M3.33 23.33 C2 22.42, 0.68 21.7, 0 20 M0 20 C-0.63 15.47, 0.33 11.23, 0 3.33 M0 20 C0.21 15.86, 0.15 11.28, 0 3.33 M0 3.33 C0.49 0.44, 1.99 0.33, 3.33 0 M0 3.33 C-0.84 0.91, 0.15 -0.32, 3.33 0" stroke="#1e1e1e" stroke-width="2" fill="none"></path></g><g stroke-linecap="round" transform="translate(442.79973754996956 30.607346382060655) rotate(0 37.3333740234375 17.333328247070312)"><path d="M8.67 0 C24.62 -1.2, 42.06 1.79, 66 0 M8.67 0 C22.62 0.26, 36.45 0.69, 66 0 M66 0 C71.43 1.65, 74.55 3.42, 74.67 8.67 M66 0 C72.7 0.65, 73.46 4.13, 74.67 8.67 M74.67 8.67 C76.05 14.84, 73.01 21.01, 74.67 26 M74.67 8.67 C74.76 13.03, 75.51 17.28, 74.67 26 M74.67 26 C74.37 29.87, 73.34 34.45, 66 34.67 M74.67 26 C76.31 30.64, 71.75 35.13, 66 34.67 M66 34.67 C44.81 35.86, 26.22 33.17, 8.67 34.67 M66 34.67 C52.26 36.05, 37.31 35.27, 8.67 34.67 M8.67 34.67 C2.97 36.64, 1.49 32.13, 0 26 M8.67 34.67 C1.11 32.66, 1.31 29.75, 0 26 M0 26 C-1.38 20.14, 0.22 18.61, 0 8.67 M0 26 C0.89 21.15, 0.88 17.17, 0 8.67 M0 8.67 C0.35 4.27, 4.05 -1.62, 8.67 0 M0 8.67 C-1.84 4.43, 4.15 -0.67, 8.67 0" stroke="#1e1e1e" stroke-width="2" fill="none"></path></g><g stroke-linecap="round" transform="translate(496.79973754996956 36.607346382060655) rotate(0 6.66668701171875 11.666656494140625)"><path d="M0.39 1.66 C0.39 1.66, 0.39 1.66, 0.39 1.66 M0.39 1.66 C0.39 1.66, 0.39 1.66, 0.39 1.66 M0.52 13.71 C5.03 8.36, 7.83 4.9, 11.68 0.88 M0.52 13.71 C4.62 9.74, 8.1 5.53, 11.68 0.88 M2.63 23.48 C5.57 19.14, 9.04 15.78, 13.12 11.41 M2.63 23.48 C5.4 20.01, 8.94 17, 13.12 11.41 M2.19 23.4 C2.19 23.4, 2.19 23.4, 2.19 23.4 M2.19 23.4 C2.19 23.4, 2.19 23.4, 2.19 23.4 M12.72 21.95 C9.09 18.58, 4.71 14.44, 0.64 11.45 M12.72 21.95 C9.63 18.87, 5.78 16.23, 0.64 11.45 M13.44 11.98 C10.42 9.22, 7.68 6.79, 1.36 1.48 M13.44 11.98 C9.02 8.36, 5.18 4.78, 1.36 1.48" stroke="#228be6" stroke-width="1" fill="none"></path><path d="M3.33 0 C5.68 0.34, 7.51 0.14, 10 0 M3.33 0 C4.63 0.04, 6.22 0.14, 10 0 M10 0 C12.16 0.27, 13.73 1.39, 13.33 3.33 M10 0 C11.62 0.62, 14.33 0.45, 13.33 3.33 M13.33 3.33 C12.66 7.65, 13.08 13.23, 13.33 20 M13.33 3.33 C13.72 7.76, 13.28 12.21, 13.33 20 M13.33 20 C14.11 22.12, 12.94 22.84, 10 23.33 M13.33 20 C13.32 22.45, 12.72 23.29, 10 23.33 M10 23.33 C8.23 23.15, 6.41 23.09, 3.33 23.33 M10 23.33 C7.25 23.37, 4.72 23.53, 3.33 23.33 M3.33 23.33 C1.85 23.51, -0.77 21.35, 0 20 M3.33 23.33 C1.77 22.32, -0.68 22.27, 0 20 M0 20 C0.18 15.26, -0.45 9.12, 0 3.33 M0 20 C0.3 15.78, 0 12.4, 0 3.33 M0 3.33 C0.58 0.3, 0.31 0.67, 3.33 0 M0 3.33 C0.63 0.78, 1.99 0.48, 3.33 0" stroke="#1e1e1e" stroke-width="2" fill="none"></path></g><g stroke-linecap="round" transform="translate(474.7996765148133 35.940659370341905) rotate(0 6.66668701171875 11.666656494140625)"><path d="M0.39 1.66 C0.39 1.66, 0.39 1.66, 0.39 1.66 M0.39 1.66 C0.39 1.66, 0.39 1.66, 0.39 1.66 M0.52 13.71 C3.8 9.57, 8.95 3.53, 11.68 0.88 M0.52 13.71 C4.14 9.93, 7.78 5.14, 11.68 0.88 M2.63 23.48 C5.91 19.43, 10.37 14.37, 13.12 11.41 M2.63 23.48 C7.16 19.12, 10.65 13.77, 13.12 11.41 M2.19 23.4 C2.19 23.4, 2.19 23.4, 2.19 23.4 M2.19 23.4 C2.19 23.4, 2.19 23.4, 2.19 23.4 M12.72 21.95 C8.59 17.85, 2.82 14.01, 0.64 11.45 M12.72 21.95 C8.77 18.8, 5.37 15.76, 0.64 11.45 M13.44 11.98 C10.55 9.3, 7.9 7.19, 1.36 1.48 M13.44 11.98 C8.96 7.96, 4.26 3.93, 1.36 1.48" stroke="#228be6" stroke-width="1" fill="none"></path><path d="M3.33 0 C4.82 0.09, 6.36 -0.18, 10 0 M3.33 0 C5.17 0.13, 7.05 0.04, 10 0 M10 0 C12.62 0.28, 12.81 1.65, 13.33 3.33 M10 0 C13.22 -0.66, 13.21 2.09, 13.33 3.33 M13.33 3.33 C12.93 8.07, 13.08 12.37, 13.33 20 M13.33 3.33 C13.35 7.62, 13.73 12.66, 13.33 20 M13.33 20 C14.05 21.73, 12.21 23.53, 10 23.33 M13.33 20 C13.83 22.18, 11.71 22.47, 10 23.33 M10 23.33 C7.33 23.05, 5.36 23.41, 3.33 23.33 M10 23.33 C7.45 23.5, 5.02 23.36, 3.33 23.33 M3.33 23.33 C0.34 22.46, 0.57 21.34, 0 20 M3.33 23.33 C0.43 23.39, 0.14 21.31, 0 20 M0 20 C-0.53 16.15, -0.54 14.01, 0 3.33 M0 20 C0 16.68, 0.17 12.44, 0 3.33 M0 3.33 C-0.8 1.78, 1.66 -0.29, 3.33 0 M0 3.33 C0.88 1.59, 0.86 -0.86, 3.33 0" stroke="#1e1e1e" stroke-width="2" fill="none"></path></g><g stroke-linecap="round" transform="translate(434.46636352653206 216.94072040549815) rotate(0 37.3333740234375 17.333328247070312)"><path d="M8.67 0 C18.5 2.23, 29.87 -1.23, 66 0 M8.67 0 C20.39 -0.17, 33.87 0.86, 66 0 M66 0 C73.48 -0.87, 73.85 3.11, 74.67 8.67 M66 0 C72.51 -0.84, 72.65 5.1, 74.67 8.67 M74.67 8.67 C73.45 16.7, 73.55 20.25, 74.67 26 M74.67 8.67 C73.99 13.74, 74.84 17.8, 74.67 26 M74.67 26 C74.74 30.94, 70.27 34.44, 66 34.67 M74.67 26 C76.05 29.72, 70.59 33.64, 66 34.67 M66 34.67 C45.4 32.85, 21.65 36.44, 8.67 34.67 M66 34.67 C53.32 34.49, 39.94 35.99, 8.67 34.67 M8.67 34.67 C4.1 32.86, -1.25 30.05, 0 26 M8.67 34.67 C3.2 34.52, -0.3 31.79, 0 26 M0 26 C-0.79 21.98, 0.17 15.19, 0 8.67 M0 26 C-0.19 20.52, 0.03 14.3, 0 8.67 M0 8.67 C0.97 4.2, 2.01 -1.41, 8.67 0 M0 8.67 C-0.95 2.93, 1.63 0.5, 8.67 0" stroke="#1e1e1e" stroke-width="2" fill="none"></path></g><g stroke-linecap="round" transform="translate(488.46636352653206 222.94072040549815) rotate(0 6.66668701171875 11.666656494140625)"><path d="M0.39 1.66 C0.39 1.66, 0.39 1.66, 0.39 1.66 M0.39 1.66 C0.39 1.66, 0.39 1.66, 0.39 1.66 M0.52 13.71 C3.62 9.4, 7.35 5.69, 11.68 0.88 M0.52 13.71 C3.29 10.36, 6.42 6.75, 11.68 0.88 M2.63 23.48 C6.79 19.92, 9.92 14.7, 13.12 11.41 M2.63 23.48 C5.77 20.61, 8.28 17.31, 13.12 11.41 M2.19 23.4 C2.19 23.4, 2.19 23.4, 2.19 23.4 M2.19 23.4 C2.19 23.4, 2.19 23.4, 2.19 23.4 M12.72 21.95 C8.74 19.63, 5.86 15.19, 0.64 11.45 M12.72 21.95 C9.25 19.1, 5.63 16.27, 0.64 11.45 M13.44 11.98 C10.28 10.05, 7.69 6.86, 1.36 1.48 M13.44 11.98 C10.83 9.5, 8.44 7.36, 1.36 1.48" stroke="#228be6" stroke-width="1" fill="none"></path><path d="M3.33 0 C4.38 -0.33, 5.76 -0.23, 10 0 M3.33 0 C5.15 0.13, 7.18 -0.06, 10 0 M10 0 C11.82 0.11, 13.65 0.75, 13.33 3.33 M10 0 C11.21 1.11, 14.15 1.87, 13.33 3.33 M13.33 3.33 C12.68 6.38, 13.07 10.19, 13.33 20 M13.33 3.33 C13.41 8.25, 13.29 13.41, 13.33 20 M13.33 20 C12.58 22.11, 12.82 22.44, 10 23.33 M13.33 20 C12.74 21.71, 13.17 22.61, 10 23.33 M10 23.33 C7.99 23.61, 5.92 23.47, 3.33 23.33 M10 23.33 C7.7 23.48, 5.34 23.17, 3.33 23.33 M3.33 23.33 C0.49 22.47, 0.14 22.16, 0 20 M3.33 23.33 C0.96 23.34, 0.04 21.9, 0 20 M0 20 C0.1 15.91, 0.45 12.28, 0 3.33 M0 20 C0.04 14.34, 0.22 8.57, 0 3.33 M0 3.33 C-0.44 0.4, 0.7 0.02, 3.33 0 M0 3.33 C-0.63 1.36, 0.49 -0.92, 3.33 0" stroke="#1e1e1e" stroke-width="2" fill="none"></path></g><g stroke-linecap="round" transform="translate(466.4663024913758 222.2740333937794) rotate(0 6.66668701171875 11.666656494140625)"><path d="M0.39 1.66 C0.39 1.66, 0.39 1.66, 0.39 1.66 M0.39 1.66 C0.39 1.66, 0.39 1.66, 0.39 1.66 M0.52 13.71 C3.78 9.92, 7.85 5.86, 11.68 0.88 M0.52 13.71 C3.27 10.44, 6.46 6.96, 11.68 0.88 M2.63 23.48 C4.96 20.26, 7.24 17.1, 13.12 11.41 M2.63 23.48 C5.24 20.63, 7.87 17.38, 13.12 11.41 M2.19 23.4 C2.19 23.4, 2.19 23.4, 2.19 23.4 M2.19 23.4 C2.19 23.4, 2.19 23.4, 2.19 23.4 M12.72 21.95 C9.36 18.29, 5.37 15.47, 0.64 11.45 M12.72 21.95 C8.5 18.77, 4.15 14.7, 0.64 11.45 M13.44 11.98 C9.34 8.31, 5.18 5.47, 1.36 1.48 M13.44 11.98 C9.52 8.23, 4.87 4.38, 1.36 1.48" stroke="#228be6" stroke-width="1" fill="none"></path><path d="M3.33 0 C5.63 -0.17, 8.37 -0.3, 10 0 M3.33 0 C5.28 -0.1, 6.87 -0.01, 10 0 M10 0 C12.54 -0.36, 12.46 2.07, 13.33 3.33 M10 0 C13.04 0.76, 12.41 0.22, 13.33 3.33 M13.33 3.33 C13.08 9.4, 13.34 15.85, 13.33 20 M13.33 3.33 C13.38 8.7, 13.05 14.38, 13.33 20 M13.33 20 C13.93 21.33, 11.71 22.89, 10 23.33 M13.33 20 C14.28 21.5, 12.1 24.1, 10 23.33 M10 23.33 C8.36 23.53, 7.36 23.57, 3.33 23.33 M10 23.33 C8.44 23.22, 6.57 23.22, 3.33 23.33 M3.33 23.33 C1.25 23.27, -0.13 22.23, 0 20 M3.33 23.33 C1.15 23.01, -0.73 21.67, 0 20 M0 20 C0.41 13.97, 0.42 7.48, 0 3.33 M0 20 C0.2 14.17, -0.19 7.5, 0 3.33 M0 3.33 C-0.41 1.13, 0.57 0.22, 3.33 0 M0 3.33 C-0.62 0.19, 1.27 0.45, 3.33 0" stroke="#1e1e1e" stroke-width="2" fill="none"></path></g><g stroke-linecap="round" transform="translate(437.46648559684456 374.94072040549815) rotate(0 37.3333740234375 17.333328247070312)"><path d="M8.67 0 C21.66 1.83, 30.87 -0.68, 66 0 M8.67 0 C25.63 1.17, 45.06 0.87, 66 0 M66 0 C70.18 -1.54, 76.51 1.47, 74.67 8.67 M66 0 C70.07 -0.54, 73.36 3.06, 74.67 8.67 M74.67 8.67 C73.83 12.77, 74 15.44, 74.67 26 M74.67 8.67 C74.32 13.29, 75.49 18.13, 74.67 26 M74.67 26 C74.45 33.12, 70.02 34.19, 66 34.67 M74.67 26 C76.78 30.21, 72.89 35.98, 66 34.67 M66 34.67 C47.29 36.17, 22.8 33.71, 8.67 34.67 M66 34.67 C53.62 34.64, 41.53 34.35, 8.67 34.67 M8.67 34.67 C1.62 33.7, 1.42 31.92, 0 26 M8.67 34.67 C2.49 35.8, 0.43 32.96, 0 26 M0 26 C0.71 21.96, 1.02 15.48, 0 8.67 M0 26 C-0.4 22.21, -0.39 17.35, 0 8.67 M0 8.67 C0.28 3.67, 0.98 -0.92, 8.67 0 M0 8.67 C-0.92 4.9, 2.59 -1.59, 8.67 0" stroke="#1e1e1e" stroke-width="2" fill="none"></path></g><g stroke-linecap="round" transform="translate(491.46648559684456 380.94072040549815) rotate(0 6.66668701171875 11.666656494140625)"><path d="M0.39 1.66 C0.39 1.66, 0.39 1.66, 0.39 1.66 M0.39 1.66 C0.39 1.66, 0.39 1.66, 0.39 1.66 M0.52 13.71 C3.34 10.95, 5.71 6.75, 11.68 0.88 M0.52 13.71 C4.27 8.99, 8.07 4.36, 11.68 0.88 M2.63 23.48 C7.09 18.66, 10.73 15.32, 13.12 11.41 M2.63 23.48 C5.51 20.16, 9.16 16.34, 13.12 11.41 M2.19 23.4 C2.19 23.4, 2.19 23.4, 2.19 23.4 M2.19 23.4 C2.19 23.4, 2.19 23.4, 2.19 23.4 M12.72 21.95 C9.78 18.14, 5.13 15.65, 0.64 11.45 M12.72 21.95 C9.55 19.04, 6.83 17, 0.64 11.45 M13.44 11.98 C9.62 8.64, 5.51 5.47, 1.36 1.48 M13.44 11.98 C9.34 8.87, 5.43 4.68, 1.36 1.48" stroke="#228be6" stroke-width="1" fill="none"></path><path d="M3.33 0 C5.03 -0.16, 7.06 0.08, 10 0 M3.33 0 C5.21 0.08, 6.71 -0.16, 10 0 M10 0 C13.15 -0.71, 12.59 0.88, 13.33 3.33 M10 0 C11.57 0.09, 12.56 1.49, 13.33 3.33 M13.33 3.33 C12.94 8.23, 13.2 14.89, 13.33 20 M13.33 3.33 C13.63 6.58, 13.25 10.63, 13.33 20 M13.33 20 C12.45 21.98, 13.14 22.65, 10 23.33 M13.33 20 C13.89 22.88, 12.92 22.75, 10 23.33 M10 23.33 C7.36 23.15, 5.04 23.4, 3.33 23.33 M10 23.33 C8.05 23.29, 5.98 23.25, 3.33 23.33 M3.33 23.33 C1.82 23.41, -0.17 22.72, 0 20 M3.33 23.33 C1.33 23.92, -0.21 22.98, 0 20 M0 20 C0.51 14.52, -0.63 9.42, 0 3.33 M0 20 C-0.18 14.63, 0.1 10.1, 0 3.33 M0 3.33 C-0.95 0.65, 0.71 0.87, 3.33 0 M0 3.33 C-0.15 0.32, 0.44 0.72, 3.33 0" stroke="#1e1e1e" stroke-width="2" fill="none"></path></g><g stroke-linecap="round" transform="translate(469.4664245616883 380.2740333937794) rotate(0 6.66668701171875 11.666656494140625)"><path d="M0.39 1.66 C0.39 1.66, 0.39 1.66, 0.39 1.66 M0.39 1.66 C0.39 1.66, 0.39 1.66, 0.39 1.66 M0.52 13.71 C3.16 9.66, 7 7.45, 11.68 0.88 M0.52 13.71 C3.41 9.83, 7.31 6.66, 11.68 0.88 M2.63 23.48 C6.04 20.73, 8.24 16.45, 13.12 11.41 M2.63 23.48 C6.53 19.36, 10.26 14.77, 13.12 11.41 M2.19 23.4 C2.19 23.4, 2.19 23.4, 2.19 23.4 M2.19 23.4 C2.19 23.4, 2.19 23.4, 2.19 23.4 M12.72 21.95 C9.11 19.1, 5.45 16.46, 0.64 11.45 M12.72 21.95 C9.63 19.36, 6.47 16.2, 0.64 11.45 M13.44 11.98 C8.45 8, 4.38 4.04, 1.36 1.48 M13.44 11.98 C9.29 8.05, 5.3 4.66, 1.36 1.48" stroke="#228be6" stroke-width="1" fill="none"></path><path d="M3.33 0 C5.94 0.12, 8.34 -0.28, 10 0 M3.33 0 C5.84 -0.15, 8.77 -0.14, 10 0 M10 0 C11.48 -0.24, 12.77 1.19, 13.33 3.33 M10 0 C11.45 0.38, 13.7 0.52, 13.33 3.33 M13.33 3.33 C13.21 8.9, 12.55 13.03, 13.33 20 M13.33 3.33 C13.36 7.87, 13.04 11.75, 13.33 20 M13.33 20 C14.25 21.54, 12.71 23.9, 10 23.33 M13.33 20 C14.03 21.64, 12.8 24.48, 10 23.33 M10 23.33 C7.31 23.36, 5.17 23.27, 3.33 23.33 M10 23.33 C7.89 23.24, 6.11 23.34, 3.33 23.33 M3.33 23.33 C0.94 23.83, 0.19 22.73, 0 20 M3.33 23.33 C0.9 24.09, 0.08 22.77, 0 20 M0 20 C-0.64 13.85, -0.04 7.93, 0 3.33 M0 20 C0.1 14.8, -0.35 9.09, 0 3.33 M0 3.33 C-0.4 1.98, 0.98 -0.69, 3.33 0 M0 3.33 C-0.68 1.83, 1.18 -0.38, 3.33 0" stroke="#1e1e1e" stroke-width="2" fill="none"></path></g><g stroke-linecap="round" transform="translate(189.13311157340706 199.94072040549815) rotate(0 37.3333740234375 17.333328247070312)"><path d="M8.67 0 C21.55 -0.82, 31.78 -0.92, 66 0 M8.67 0 C29.62 -0.75, 50.17 -0.03, 66 0 M66 0 C71.69 0.49, 75.5 1.94, 74.67 8.67 M66 0 C70.99 -1.35, 75.85 3.61, 74.67 8.67 M74.67 8.67 C74.24 16.44, 75.86 22, 74.67 26 M74.67 8.67 C74.58 12.91, 74.54 17.53, 74.67 26 M74.67 26 C73.56 31.81, 71.02 34.06, 66 34.67 M74.67 26 C73.49 33.18, 70.15 35.89, 66 34.67 M66 34.67 C53.07 35.46, 42.14 36.41, 8.67 34.67 M66 34.67 C50.31 35.02, 33.91 35.47, 8.67 34.67 M8.67 34.67 C2.35 34.17, -0.4 32.86, 0 26 M8.67 34.67 C1.79 34.04, 2.01 29.82, 0 26 M0 26 C-0.59 19.62, 1.12 14.52, 0 8.67 M0 26 C0.72 19.92, 0.39 15.96, 0 8.67 M0 8.67 C0.52 3.71, 1.24 1.55, 8.67 0 M0 8.67 C0.46 4.75, 1.37 -2.09, 8.67 0" stroke="#1e1e1e" stroke-width="2" fill="none"></path></g><g stroke-linecap="round" transform="translate(243.13311157340706 205.94072040549815) rotate(0 6.66668701171875 11.666656494140625)"><path d="M0.39 1.66 C0.39 1.66, 0.39 1.66, 0.39 1.66 M0.39 1.66 C0.39 1.66, 0.39 1.66, 0.39 1.66 M0.52 13.71 C2.79 10.56, 5.86 8.06, 11.68 0.88 M0.52 13.71 C2.8 10.79, 5.15 8.34, 11.68 0.88 M2.63 23.48 C5.07 19.86, 8.94 15.93, 13.12 11.41 M2.63 23.48 C6.13 20.04, 8.99 16.15, 13.12 11.41 M2.19 23.4 C2.19 23.4, 2.19 23.4, 2.19 23.4 M2.19 23.4 C2.19 23.4, 2.19 23.4, 2.19 23.4 M12.72 21.95 C8.26 17.81, 5.23 15.68, 0.64 11.45 M12.72 21.95 C8.87 18.76, 5.01 15.4, 0.64 11.45 M13.44 11.98 C10.19 9.39, 5.09 5.25, 1.36 1.48 M13.44 11.98 C9.22 8.57, 4.98 4.52, 1.36 1.48" stroke="#228be6" stroke-width="1" fill="none"></path><path d="M3.33 0 C5.39 -0.1, 8.18 0.14, 10 0 M3.33 0 C5.71 0.07, 8.22 0.05, 10 0 M10 0 C12.64 -0.47, 12.99 0.53, 13.33 3.33 M10 0 C12.81 0.36, 14.25 1.09, 13.33 3.33 M13.33 3.33 C13.89 8.62, 13.14 13.91, 13.33 20 M13.33 3.33 C13.24 8.25, 13.09 13.98, 13.33 20 M13.33 20 C12.96 21.92, 11.71 23.94, 10 23.33 M13.33 20 C12.52 22.83, 11.29 24.09, 10 23.33 M10 23.33 C8.16 23.63, 5.81 23.16, 3.33 23.33 M10 23.33 C7.94 23.49, 6.04 23.3, 3.33 23.33 M3.33 23.33 C0.91 23.87, -0.48 21.95, 0 20 M3.33 23.33 C2.12 22.35, 0.77 22.37, 0 20 M0 20 C0.58 16.62, 0.05 11.96, 0 3.33 M0 20 C0.11 13.64, 0.04 7.03, 0 3.33 M0 3.33 C-0.82 1.89, 1.31 0.81, 3.33 0 M0 3.33 C-0.76 0.07, 1.55 -0.27, 3.33 0" stroke="#1e1e1e" stroke-width="2" fill="none"></path></g><g stroke-linecap="round" transform="translate(221.1330505382508 205.2740333937794) rotate(0 6.66668701171875 11.666656494140625)"><path d="M0.39 1.66 C0.39 1.66, 0.39 1.66, 0.39 1.66 M0.39 1.66 C0.39 1.66, 0.39 1.66, 0.39 1.66 M0.52 13.71 C3.05 11.26, 4.4 7.79, 11.68 0.88 M0.52 13.71 C3.44 10.29, 6.27 7.47, 11.68 0.88 M2.63 23.48 C6.45 18.93, 9.83 16.12, 13.12 11.41 M2.63 23.48 C5.68 19.94, 9.23 16.44, 13.12 11.41 M2.19 23.4 C2.19 23.4, 2.19 23.4, 2.19 23.4 M2.19 23.4 C2.19 23.4, 2.19 23.4, 2.19 23.4 M12.72 21.95 C9.15 18.99, 5.05 14.73, 0.64 11.45 M12.72 21.95 C9.85 19.69, 7.36 17.17, 0.64 11.45 M13.44 11.98 C8.33 8.12, 4.71 3.77, 1.36 1.48 M13.44 11.98 C9.27 8.28, 4.57 4.83, 1.36 1.48" stroke="#228be6" stroke-width="1" fill="none"></path><path d="M3.33 0 C5.37 0.14, 7.19 0.01, 10 0 M3.33 0 C5.08 0.03, 6.92 -0.09, 10 0 M10 0 C11.88 -0.58, 13.85 1.42, 13.33 3.33 M10 0 C13.14 -0.02, 13.48 0.83, 13.33 3.33 M13.33 3.33 C13.22 9.63, 13.55 15.49, 13.33 20 M13.33 3.33 C13.09 7.17, 13.16 10.87, 13.33 20 M13.33 20 C12.82 22.83, 11.51 23.87, 10 23.33 M13.33 20 C12.4 22.98, 12.31 23.13, 10 23.33 M10 23.33 C7.67 23.17, 5.48 23.38, 3.33 23.33 M10 23.33 C7.69 23.32, 5.45 23.45, 3.33 23.33 M3.33 23.33 C0.63 23.06, 0.87 21.37, 0 20 M3.33 23.33 C1.88 23.48, -0.71 21.84, 0 20 M0 20 C-0.04 14.94, 0.73 10.72, 0 3.33 M0 20 C0.07 16.79, -0.38 13.57, 0 3.33 M0 3.33 C0.2 1.92, 0.45 -0.91, 3.33 0 M0 3.33 C0.44 0.84, 0.79 0.81, 3.33 0" stroke="#1e1e1e" stroke-width="2" fill="none"></path></g><g stroke-linecap="round" transform="translate(908.9664855968446 346.6072853469044) rotate(0 59.6666259765625 59.66670227050781)"><path d="M7.28 7.66 C7.28 7.66, 7.28 7.66, 7.28 7.66 M7.28 7.66 C7.28 7.66, 7.28 7.66, 7.28 7.66 M0.2 28 C9.01 19.43, 14.09 10.28, 23.82 0.83 M0.2 28 C8.27 19.13, 14.82 10.12, 23.82 0.83 M0.99 39.29 C12.62 24.58, 21.39 12.73, 35.11 0.04 M0.99 39.29 C10.9 28.95, 20.38 18.45, 35.11 0.04 M0.47 52.08 C15.71 37.31, 29.25 19.52, 45.74 0.01 M0.47 52.08 C16.35 32.97, 33.61 15.02, 45.74 0.01 M0.6 64.12 C21.07 45.19, 39.49 23.07, 56.37 -0.03 M0.6 64.12 C19.4 44.09, 37.58 21.65, 56.37 -0.03 M0.73 76.16 C17.16 58.3, 31.13 41.72, 67 -0.06 M0.73 76.16 C25.99 48.19, 50.38 19.32, 67 -0.06 M0.87 88.2 C26.81 58.96, 55.5 25.82, 76.97 0.66 M0.87 88.2 C23.23 62.8, 44.63 37.44, 76.97 0.66 M1.66 99.49 C35.22 59.21, 70.43 23.6, 87.6 0.62 M1.66 99.49 C28.23 69.4, 54.59 36.6, 87.6 0.62 M4.41 108.51 C34.45 72.4, 65.04 35.9, 97.57 1.34 M4.41 108.51 C25.65 83.86, 46.44 59.48, 97.57 1.34 M10.45 113.76 C45.47 70.44, 81.85 32.23, 106.24 3.57 M10.45 113.76 C43.25 75.52, 76.62 37.03, 106.24 3.57 M17.8 117.5 C46.91 86.61, 71.07 57.36, 112.27 8.82 M17.8 117.5 C43.62 86.05, 72.62 52.91, 112.27 8.82 M27.12 118.98 C55.4 88.18, 84.42 53.66, 117 15.58 M27.12 118.98 C59.46 80.31, 93.34 44.19, 117 15.58 M37.75 118.94 C63.18 88.67, 89.85 60.68, 119.1 25.36 M37.75 118.94 C61.87 92.92, 84.24 66.38, 119.1 25.36 M48.38 118.91 C70.52 89.72, 96.13 65.03, 119.89 36.64 M48.38 118.91 C63.25 101.76, 79.55 83.83, 119.89 36.64 M58.35 119.63 C76.03 100.48, 91.72 82.73, 120.02 48.68 M58.35 119.63 C75.44 99.58, 92.08 80.72, 120.02 48.68 M68.98 119.59 C88.99 94.9, 109.81 74.83, 119.5 61.48 M68.98 119.59 C86.01 99.11, 103.67 79.75, 119.5 61.48 M79.61 119.56 C94.82 102.32, 110.84 82.52, 119.63 73.52 M79.61 119.56 C95.31 102.39, 110 83.17, 119.63 73.52 M90.24 119.52 C103.09 107.91, 112.89 95.09, 119.77 85.56 M90.24 119.52 C98.23 108.89, 107.91 99.67, 119.77 85.56 M102.84 117.22 C106.55 111.62, 112.95 108.36, 118.59 99.11 M102.84 117.22 C108.37 109.95, 115.96 103.81, 118.59 99.11" stroke="#fab005" stroke-width="1" fill="none"></path><path d="M29.83 0 C44.25 -0.25, 59.89 0.37, 89.5 0 M29.83 0 C54.01 0.88, 77.89 1.5, 89.5 0 M89.5 0 C107.88 1.86, 120.21 10.5, 119.33 29.83 M89.5 0 C110.49 -1.91, 119.09 10.31, 119.33 29.83 M119.33 29.83 C118.7 48.69, 120.83 67.07, 119.33 89.5 M119.33 29.83 C120.71 44.99, 119.22 58.99, 119.33 89.5 M119.33 89.5 C119.48 108.67, 109.24 119.13, 89.5 119.33 M119.33 89.5 C118.99 107.77, 108.77 121.21, 89.5 119.33 M89.5 119.33 C75.47 120.75, 64.39 119.07, 29.83 119.33 M89.5 119.33 C76.05 118.92, 61.08 120.49, 29.83 119.33 M29.83 119.33 C8.12 120.21, -0.39 108.17, 0 89.5 M29.83 119.33 C10.38 117.73, -0.52 110.03, 0 89.5 M0 89.5 C-0.57 66.92, 0.57 42.88, 0 29.83 M0 89.5 C0.82 67, -0.12 44.8, 0 29.83 M0 29.83 C0.36 11.74, 8.29 1.3, 29.83 0 M0 29.83 C-1.79 12.16, 9.58 -0.53, 29.83 0" stroke="#1e1e1e" stroke-width="2" fill="none"></path></g><g transform="translate(953.5631195079774 393.7739876174122) rotate(0 15.069992065429688 12.5)"><text x="15.069992065429688" y="0" font-family="Virgil, Segoe UI Emoji" font-size="20px" fill="#1e1e1e" text-anchor="middle" style="white-space: pre;" direction="ltr" dominant-baseline="text-before-edge">DB</text></g><g stroke-linecap="round" transform="translate(828.6333557140321 387.9406135939747) rotate(0 37.3333740234375 17.333328247070312)"><path d="M8.67 0 C27.74 0.11, 41 0.47, 66 0 M8.67 0 C27.04 0.39, 47.36 -0.27, 66 0 M66 0 C72.73 -1.66, 74.46 3.2, 74.67 8.67 M66 0 C71.81 0.79, 74.09 1.92, 74.67 8.67 M74.67 8.67 C73.82 16.28, 73.36 22, 74.67 26 M74.67 8.67 C74.61 14.53, 74.48 20.93, 74.67 26 M74.67 26 C74.37 30.37, 71.24 36.3, 66 34.67 M74.67 26 C72.75 31.92, 72.46 33.38, 66 34.67 M66 34.67 C44.07 35.37, 25.59 36.4, 8.67 34.67 M66 34.67 C52.13 35.58, 39.88 34.54, 8.67 34.67 M8.67 34.67 C3.27 33.27, -0.45 32.33, 0 26 M8.67 34.67 C4.64 32.61, 1.91 30.51, 0 26 M0 26 C1.34 19.91, -1.55 16.65, 0 8.67 M0 26 C0.24 21.52, -0.64 16.05, 0 8.67 M0 8.67 C-1.55 4.82, 2.57 -0.46, 8.67 0 M0 8.67 C0.32 2.25, 2.05 0.97, 8.67 0" stroke="#1e1e1e" stroke-width="2" fill="none"></path></g><g stroke-linecap="round" transform="translate(882.6333557140321 393.9406135939747) rotate(0 6.66668701171875 11.666656494140625)"><path d="M0.39 1.66 C0.39 1.66, 0.39 1.66, 0.39 1.66 M0.39 1.66 C0.39 1.66, 0.39 1.66, 0.39 1.66 M0.52 13.71 C3.71 10.8, 6.68 7.18, 11.68 0.88 M0.52 13.71 C3.49 10.58, 6.59 6.51, 11.68 0.88 M2.63 23.48 C4.9 20.15, 8.06 17.86, 13.12 11.41 M2.63 23.48 C6.5 18.34, 10.92 14.32, 13.12 11.41 M2.19 23.4 C2.19 23.4, 2.19 23.4, 2.19 23.4 M2.19 23.4 C2.19 23.4, 2.19 23.4, 2.19 23.4 M12.72 21.95 C7.82 17.68, 3.83 15.04, 0.64 11.45 M12.72 21.95 C9.45 18.9, 6.52 16.3, 0.64 11.45 M13.44 11.98 C9.63 10.04, 7.38 7.08, 1.36 1.48 M13.44 11.98 C9.73 8.11, 5.23 5.26, 1.36 1.48" stroke="#228be6" stroke-width="1" fill="none"></path><path d="M3.33 0 C5.22 0.1, 7.83 0.11, 10 0 M3.33 0 C6.04 0.02, 8.68 -0.17, 10 0 M10 0 C12.12 0.16, 13.35 1.46, 13.33 3.33 M10 0 C11.94 -0.48, 13.84 1.86, 13.33 3.33 M13.33 3.33 C12.61 10.08, 13.76 14.91, 13.33 20 M13.33 3.33 C13.31 8.23, 13.28 12.92, 13.33 20 M13.33 20 C13.06 23.04, 11.39 23.4, 10 23.33 M13.33 20 C13.68 21.58, 12.93 23.75, 10 23.33 M10 23.33 C8.33 23.66, 6.05 23.46, 3.33 23.33 M10 23.33 C7.41 23.25, 4.92 23.23, 3.33 23.33 M3.33 23.33 C0.89 23.61, 0.76 21.33, 0 20 M3.33 23.33 C2.06 22.7, -0.08 22.24, 0 20 M0 20 C-0.81 16.83, -0.04 12.48, 0 3.33 M0 20 C-0.36 14.67, -0.34 9.21, 0 3.33 M0 3.33 C-0.16 0.88, 1.25 -0.28, 3.33 0 M0 3.33 C-0.42 1.59, 0.04 0.66, 3.33 0" stroke="#1e1e1e" stroke-width="2" fill="none"></path></g><g stroke-linecap="round" transform="translate(860.6332946788758 393.27392658225597) rotate(0 6.66668701171875 11.666656494140625)"><path d="M0.39 1.66 C0.39 1.66, 0.39 1.66, 0.39 1.66 M0.39 1.66 C0.39 1.66, 0.39 1.66, 0.39 1.66 M0.52 13.71 C4.6 9.5, 7.31 5.12, 11.68 0.88 M0.52 13.71 C4.24 9.16, 7.35 5.21, 11.68 0.88 M2.63 23.48 C5.97 20.26, 9.04 17.05, 13.12 11.41 M2.63 23.48 C6.12 19.95, 9.3 15.85, 13.12 11.41 M2.19 23.4 C2.19 23.4, 2.19 23.4, 2.19 23.4 M2.19 23.4 C2.19 23.4, 2.19 23.4, 2.19 23.4 M12.72 21.95 C8.69 19.16, 4.45 14.75, 0.64 11.45 M12.72 21.95 C10.05 19.37, 6.92 17.16, 0.64 11.45 M13.44 11.98 C9.28 8.69, 4.89 4.13, 1.36 1.48 M13.44 11.98 C8.94 8.44, 4.88 4.33, 1.36 1.48" stroke="#228be6" stroke-width="1" fill="none"></path><path d="M3.33 0 C5.54 0.1, 7.83 -0.26, 10 0 M3.33 0 C6.03 -0.15, 8.56 0.02, 10 0 M10 0 C12.23 0.34, 13.08 0.69, 13.33 3.33 M10 0 C12.73 0.74, 14.07 0.47, 13.33 3.33 M13.33 3.33 C13.73 9.35, 13.23 16.56, 13.33 20 M13.33 3.33 C13.27 7.44, 13.21 12.47, 13.33 20 M13.33 20 C12.5 22.28, 12.52 22.78, 10 23.33 M13.33 20 C14.04 22.64, 11.97 22.66, 10 23.33 M10 23.33 C7.48 23.48, 5.73 23.06, 3.33 23.33 M10 23.33 C7.74 23.2, 5.38 23.36, 3.33 23.33 M3.33 23.33 C1.87 22.44, 0.83 21.67, 0 20 M3.33 23.33 C1.04 23.36, -0.99 23.11, 0 20 M0 20 C0.1 15.58, 0.37 12.09, 0 3.33 M0 20 C-0.25 13.9, 0 6.91, 0 3.33 M0 3.33 C0.14 0.83, 0.74 0.42, 3.33 0 M0 3.33 C-1.07 1.77, 0.23 0.23, 3.33 0" stroke="#1e1e1e" stroke-width="2" fill="none"></path></g><g transform="translate(849.1332336437196 479.6073616408497) rotate(0 59.339942932128906 12.5)"><text x="0" y="0" font-family="Virgil, Segoe UI Emoji" font-size="20px" fill="#1e1e1e" text-anchor="start" style="white-space: pre;" direction="ltr" dominant-baseline="text-before-edge">Slow queries</text></g><g stroke-linecap="round"><g transform="translate(559.1332336437196 397.6073616408497) rotate(0 132.33331298828125 4.333343505859375)"><path d="M0.7 0.78 C44.59 2.02, 219.58 6.42, 263.57 7.9 M-0.39 0.14 C43.84 1.49, 221.67 7.76, 265.7 9.04" stroke="#1e1e1e" stroke-width="2" fill="none"></path></g><g transform="translate(559.1332336437196 397.6073616408497) rotate(0 132.33331298828125 4.333343505859375)"><path d="M241.94 16.82 C250.81 12.36, 255.83 11.58, 265.7 9.04 M241.94 16.82 C251.82 13.83, 261.02 10.15, 265.7 9.04" stroke="#1e1e1e" stroke-width="2" fill="none"></path></g><g transform="translate(559.1332336437196 397.6073616408497) rotate(0 132.33331298828125 4.333343505859375)"><path d="M242.5 -0.27 C251.25 0.73, 256.09 5.42, 265.7 9.04 M242.5 -0.27 C252.09 3.23, 261.08 6.06, 265.7 9.04" stroke="#1e1e1e" stroke-width="2" fill="none"></path></g></g><mask></mask><g stroke-linecap="round"><g transform="translate(557.7998596202821 234.27404865256847) rotate(0 132.33331298828125 82)"><path d="M-0.09 0.28 C43.86 27.67, 220.2 136.05, 264.18 163.21 M-1.6 -0.62 C42.11 27, 218.33 136.88, 262.97 164.34" stroke="#1e1e1e" stroke-width="2" fill="none"></path></g><g transform="translate(557.7998596202821 234.27404865256847) rotate(0 132.33331298828125 82)"><path d="M238.5 159.23 C247.22 160.16, 253.75 161.27, 262.97 164.34 M238.5 159.23 C245.31 160.33, 250.21 162.49, 262.97 164.34" stroke="#1e1e1e" stroke-width="2" fill="none"></path></g><g transform="translate(557.7998596202821 234.27404865256847) rotate(0 132.33331298828125 82)"><path d="M247.51 144.69 C253.03 150.55, 256.51 156.59, 262.97 164.34 M247.51 144.69 C252.34 149.26, 255.1 154.85, 262.97 164.34" stroke="#1e1e1e" stroke-width="2" fill="none"></path></g></g><mask></mask><g stroke-linecap="round"><g transform="translate(563.7998596202821 58.94067462913097) rotate(0 129.33331298828125 167.66668701171875)"><path d="M0.16 0.28 C43.19 56.45, 215.86 280.42, 258.82 336.33 M-1.22 -0.62 C41.62 55.29, 214.35 279.02, 257.96 334.73" stroke="#1e1e1e" stroke-width="2" fill="none"></path></g><g transform="translate(563.7998596202821 58.94067462913097) rotate(0 129.33331298828125 167.66668701171875)"><path d="M236.79 321.42 C244.59 326.3, 253.18 329.47, 257.96 334.73 M236.79 321.42 C243.28 326.69, 251.49 329.59, 257.96 334.73" stroke="#1e1e1e" stroke-width="2" fill="none"></path></g><g transform="translate(563.7998596202821 58.94067462913097) rotate(0 129.33331298828125 167.66668701171875)"><path d="M250.3 310.93 C253.31 319.5, 257.18 326.34, 257.96 334.73 M250.3 310.93 C252.32 319.79, 256.03 326.18, 257.96 334.73" stroke="#1e1e1e" stroke-width="2" fill="none"></path></g></g><mask></mask></svg>